<svg width="128" height="325" viewBox="0 0 128 325" fill="none" xmlns="http://www.w3.org/2000/svg">
<mask id="mask0" mask-type="alpha" maskUnits="userSpaceOnUse" x="0" y="0" width="128" height="325">
<rect width="128" height="325" rx="32" fill="url(#paint0_linear)"/>
</mask>
<g mask="url(#mask0)">
<rect width="128" height="325" rx="32" fill="url(#paint1_linear)"/>
<path opacity="0.1" d="M74.3344 335.702C72.3148 335.029 70.744 333.458 69.1732 331.888C68.5 331.214 67.6024 330.541 66.9292 329.868C64.2364 327.4 61.3192 324.707 59.0752 321.341C55.2604 315.506 54.5872 308.999 56.8312 300.92C58.402 295.31 60.8704 289.7 63.1144 284.315C63.7876 282.744 64.4608 281.173 65.134 279.602C68.5 271.3 72.5392 261.65 74.11 251.552C75.4564 243.025 72.988 234.274 67.6024 227.99C62.6656 222.156 55.7092 219.014 48.304 218.79H47.6308H46.7332H45.8356C44.0404 218.79 42.2452 218.79 40.2256 218.341C35.962 217.668 33.2692 214.975 32.1472 210.712C31.474 208.468 31.2496 205.999 31.2496 203.755C31.2496 197.248 31.0252 191.189 30.1276 185.13C28.108 172.115 21.376 163.363 9.03401 157.978C6.11681 156.856 3.6484 155.734 0.9556 154.836C-3.308 153.041 -7.796 151.246 -12.0596 149.226C-22.6064 144.065 -31.1336 136.435 -37.1924 126.562C-38.09 125.215 -38.9876 123.644 -39.8852 122.298C-42.1292 118.483 -44.3732 114.444 -47.2904 110.854C-51.1052 105.468 -55.3688 103 -60.3056 103C-63.4472 103 -67.0376 104.122 -70.8524 106.366C-85.6628 114.893 -94.19 128.357 -96.6584 146.533C-97.7804 155.285 -97.1072 164.036 -95.0876 173.686C-94.8632 175.256 -94.4144 176.603 -93.9656 178.174C-93.068 182.213 -92.1704 186.252 -91.4972 190.516C-90.5996 196.574 -91.0484 203.082 -92.3948 210.263C-94.8632 222.156 -98.0048 231.356 -102.493 238.986C-107.878 248.186 -115.508 253.572 -125.157 254.918C-128.299 255.367 -131.44 255.592 -134.582 255.592C-145.802 255.592 -157.022 252.899 -168.915 247.289C-170.71 246.616 -172.281 245.718 -173.852 244.82C-179.013 242.352 -184.399 239.659 -190.009 238.088C-194.497 236.742 -198.985 236.069 -203.922 235.844C-204.819 235.844 -205.717 235.62 -206.39 235.62C-207.512 235.396 -208.634 235.396 -209.756 235.396C-209.98 235.396 -210.205 235.396 -210.654 234.947V211.609C-210.429 211.385 -210.205 211.385 -209.98 211.385C-209.532 211.385 -209.307 211.385 -208.858 211.609C-208.634 211.609 -208.41 211.834 -208.185 211.834C-193.15 214.751 -180.584 220.361 -169.364 228.888C-163.754 233.152 -158.817 236.742 -153.656 239.435C-147.148 243.025 -140.641 244.82 -133.909 245.045C-133.46 245.045 -133.011 245.045 -132.338 245.045C-122.24 245.045 -114.386 240.781 -109.225 232.254C-104.288 223.727 -101.595 213.853 -101.146 203.082C-100.922 195.901 -102.268 189.169 -103.839 182.662C-106.308 172.788 -107.205 164.485 -106.981 156.631C-106.308 144.962 -104.961 131.274 -98.9024 118.932C-96.434 113.771 -93.2924 108.834 -88.58 103.224C-87.0092 101.204 -85.4384 99.4092 -83.8676 97.3896C-78.9308 91.3308 -73.994 85.0476 -68.384 79.4376C-65.2424 75.6228 -62.3252 72.93 -59.408 70.9104C-52.9004 66.198 -47.5148 60.1392 -42.3536 52.5096C-36.7436 43.9824 -30.6848 36.8016 -24.4016 30.294C-20.138 26.0304 -15.2012 22.2156 -10.4888 18.6252L-8.2448 16.83C-2.8592 12.7908 0.731198 8.0784 2.7508 2.4684C2.9752 2.0196 3.424 1.5708 3.8728 1.122H30.8008C31.2496 1.5708 31.6984 2.0196 31.9228 2.9172C33.4936 9.6492 37.3084 14.586 40.8988 18.6252C50.0992 28.9476 56.6068 39.4944 61.3192 51.1632C64.2364 58.5684 67.8268 66.4224 72.988 72.93C77.476 78.54 82.8616 83.7012 88.4716 87.9648L92.2864 90.882C98.1208 95.37 104.18 100.082 110.238 104.122C114.726 107.039 119.214 108.61 123.927 108.834C124.151 108.834 124.6 108.834 124.824 108.834C130.21 108.834 134.922 106.59 138.962 102.326C142.328 98.736 145.245 94.248 148.386 87.9648C151.528 81.6816 153.996 74.9496 156.689 68.442C157.587 66.198 158.484 63.7296 159.382 61.4856C161.85 54.978 164.319 49.8168 166.787 45.1044C169.48 39.9432 170.378 35.2308 169.48 30.294C168.134 22.44 167.909 14.3616 167.685 7.6296C167.685 6.732 167.685 5.8344 167.909 4.7124C168.134 3.8148 168.134 2.9172 168.134 2.0196C168.134 1.5708 168.358 1.3464 168.582 1.122H192.144C192.818 1.5708 193.266 2.0196 193.715 3.1416C195.51 7.1808 196.857 10.098 198.652 12.5664C203.813 20.196 211.218 24.4596 221.092 25.806C223.336 26.2548 225.356 26.2548 227.6 26.2548C228.946 26.2548 230.292 26.2548 231.639 26.2548C234.107 26.4792 236.576 26.4792 238.82 26.7036C244.205 26.928 249.591 27.1524 254.976 28.2744C264.626 30.5184 270.909 37.9236 272.031 48.246C272.704 54.5292 272.704 59.466 272.031 64.1784C270.011 76.5204 261.933 85.272 250.488 87.516C247.796 87.9648 245.327 88.4136 242.634 88.4136C236.8 88.4136 230.741 87.0672 224.907 84.15C221.092 82.1304 217.277 79.8864 213.462 77.418C211.892 76.5204 210.545 75.6228 208.974 74.7252C206.73 73.3788 204.038 72.0324 201.345 70.9104C198.652 69.7884 195.735 69.1152 192.818 69.1152C188.554 69.1152 184.066 70.4616 179.578 73.1544C174.417 76.296 169.929 80.784 165.665 87.516C161.85 93.5748 158.484 100.307 155.567 106.59C154.67 108.385 153.772 110.405 152.874 112.2C151.079 115.79 149.284 118.708 147.04 121.4C143.674 125.215 139.41 127.235 133.127 127.684C132.454 127.684 131.781 127.684 131.108 127.684C122.132 127.684 113.829 124.093 105.526 116.688C101.487 113.098 97.4476 109.507 93.4084 105.692C86.2276 99.1848 79.0468 92.6772 71.866 86.1696C64.6852 79.662 58.402 71.3592 53.6896 61.4856L53.4652 61.0368C50.0992 54.3048 46.7332 47.3484 41.1232 42.1872C33.9424 35.2308 26.986 31.8648 19.3564 31.6404H18.6832C13.2976 31.6404 8.8096 34.1088 4.546 39.0456C2.5264 41.514 0.506808 44.2068 -1.51279 48.0216C-7.57159 57.8952 -14.528 67.7688 -22.8308 77.8668C-27.0944 82.8036 -29.5628 88.4136 -30.6848 94.248C-31.8068 100.756 -31.1336 107.488 -28.4408 115.342C-24.4016 127.235 -16.0988 135.313 -3.08359 140.25C1.18001 141.821 5.2192 143.167 9.2584 144.289C12.1756 145.187 15.0928 146.084 18.01 146.982C27.2104 150.124 34.3912 156.631 40.0012 166.954C41.572 169.646 42.9184 172.564 44.2648 175.481C44.938 177.5 46.06 179.52 46.9576 181.54C50.548 188.496 55.7092 194.555 63.3388 200.614C72.0904 207.794 78.3736 213.629 83.7592 219.688C89.5936 226.42 94.9792 233.6 100.589 241.903C103.955 247.289 107.097 249.533 110.912 249.533C113.829 249.533 116.746 248.186 120.561 246.391C127.742 242.801 133.352 236.518 138.064 227.542C143.001 218.117 146.591 210.038 149.284 202.409C151.977 194.779 153.548 186.925 153.996 178.847C154.221 175.032 154.221 171.217 154.445 167.402C154.445 164.036 154.67 160.67 154.894 157.304C155.118 153.938 155.343 149.899 156.465 146.084C158.26 139.577 162.748 135.538 169.48 134.64C172.846 134.191 175.988 133.742 178.905 133.742C186.534 133.742 192.818 135.538 198.652 139.128C205.16 143.167 210.77 149.226 215.258 156.856C221.092 166.954 224.682 178.398 225.58 190.516L225.804 193.433C226.253 199.94 226.926 206.448 229.17 212.731C230.966 218.117 233.658 223.951 239.717 227.317C241.737 228.439 243.532 229.112 245.327 229.561C246 229.786 246.898 229.786 247.571 229.786C251.162 229.786 254.079 227.542 255.65 223.727C257.445 219.463 258.118 214.975 258.791 210.487L259.24 209.365C260.811 200.838 262.606 190.964 267.318 181.988C270.909 175.032 274.724 169.198 279.212 164.261C283.7 159.548 288.412 154.836 293.124 150.572C294.471 149.45 295.817 148.104 296.939 146.982C302.325 141.821 307.486 136.211 313.769 128.132C320.95 118.932 327.009 111.527 333.965 104.795C337.556 101.429 341.37 97.614 346.532 93.3504C346.756 93.126 346.98 92.9016 347.205 92.9016C347.654 92.4528 347.878 92.2284 348.102 92.2284V134.191C346.307 137.557 343.39 140.026 340.473 142.045C334.414 146.533 327.682 150.124 321.399 153.265C319.828 154.163 318.033 154.836 316.462 155.734C309.73 159.1 302.774 162.466 296.266 166.729C284.373 174.808 276.968 184.906 273.602 197.248C272.48 201.736 271.806 205.775 271.806 209.814V212.058C271.806 216.097 271.806 220.361 272.704 224.4C274.275 232.927 278.987 238.986 286.617 242.352C290.88 244.372 295.593 245.494 299.856 246.84C301.203 247.289 302.549 247.513 303.671 247.962C310.403 249.982 319.379 252.899 327.906 257.387C338.004 262.997 343.839 271.748 345.634 284.539C346.756 293.066 345.41 300.92 341.37 308.101C339.126 312.365 335.312 315.506 329.702 317.975C325.662 319.77 321.399 320.892 317.36 322.014C316.238 322.238 315.34 322.463 314.218 322.912H313.994C310.852 323.809 307.486 324.707 304.344 326.053C300.978 327.624 298.061 330.092 295.368 333.907C294.92 334.58 294.471 335.254 293.798 335.702H276.519C275.846 335.029 275.846 334.132 275.621 333.01V332.336C275.172 328.073 274.275 324.707 273.153 321.79C272.031 318.424 269.787 316.404 266.421 315.506C262.606 314.384 258.791 313.936 254.976 313.711C249.142 313.038 243.083 312.589 237.698 312.14C235.678 311.916 233.658 311.916 231.863 311.916C220.868 311.916 212.565 314.833 205.384 320.892C201.569 324.034 198.652 328.297 195.735 333.907C195.286 334.805 194.837 335.478 194.164 335.927H175.763C175.539 335.702 175.539 335.254 175.988 334.356C178.232 328.522 180.476 324.258 183.617 320.892C193.042 310.121 203.364 303.389 215.258 300.247C217.95 299.574 220.868 299.125 224.682 299.125C225.356 299.125 226.029 299.125 226.702 299.125C228.048 299.125 229.17 299.125 230.517 299.125C231.863 299.125 232.985 299.125 234.332 299.125C236.8 299.125 239.942 299.125 243.083 298.676C247.122 298.003 251.61 297.106 254.752 293.066C255.874 291.72 256.996 289.925 257.445 287.905C259.016 280.724 261.035 262.548 245.776 252.001L243.308 250.206C239.717 247.738 235.902 245.269 232.536 242.352C223.56 234.947 217.95 224.849 215.931 212.731C215.033 207.121 214.809 201.287 214.584 196.126C214.809 188.72 214.36 180.642 211.892 173.012C208.974 164.036 204.486 157.304 198.428 152.816C194.164 149.45 189.676 147.88 184.964 147.88C183.393 147.88 182.046 148.104 180.476 148.328C174.641 149.675 170.378 153.49 167.909 159.773C165.89 164.71 165.441 169.871 165.216 173.91C164.319 188.945 162.524 202.633 160.055 215.873C158.933 221.707 158.484 227.766 157.811 233.6L157.587 236.069C156.465 247.513 153.099 256.489 147.04 263.894C145.02 266.363 142.776 268.607 140.532 270.626C139.186 271.973 137.84 273.319 136.493 274.89C131.781 280.051 128.415 286.11 126.62 293.291C125.946 295.759 125.498 298.003 124.824 300.472C123.927 303.838 123.254 307.428 122.132 311.018C120.561 317.077 118.317 322.912 116.297 328.522C115.624 330.317 114.951 332.112 114.278 333.907C114.053 334.58 113.604 335.029 113.156 335.254H74.3344V335.702ZM74.3344 336.6C87.574 336.6 100.589 336.6 113.829 336.6C114.726 336.151 115.175 335.478 115.624 334.58C118.317 326.951 121.458 319.546 123.478 311.467C125.049 305.633 126.395 299.574 127.742 293.74C129.537 286.783 132.454 280.724 137.391 275.788C140.981 271.973 144.572 268.607 147.938 264.792C154.67 256.714 157.811 247.064 158.709 236.518C159.382 229.786 159.831 223.054 160.953 216.322C163.646 202.409 165.216 188.272 166.114 174.359C166.338 169.646 167.012 164.934 168.807 160.446C171.051 154.836 174.866 150.797 180.7 149.45C182.046 149.226 183.617 149.002 184.964 149.002C189.676 149.002 193.94 150.797 197.979 153.714C204.486 158.651 208.301 165.607 210.994 173.461C213.462 180.642 213.911 188.272 214.136 195.901C214.36 201.511 214.584 207.121 215.482 212.731C217.502 225.073 223.112 235.171 232.536 243.025C236.8 246.616 241.288 249.533 245.776 252.674C257.894 261.202 259.689 275.563 256.996 287.681C256.547 289.476 255.65 291.047 254.528 292.393C251.61 296.208 247.571 297.106 243.308 297.779C240.39 298.228 237.473 298.228 234.556 298.228C232.088 298.228 229.395 298.228 226.926 298.228C226.253 298.228 225.58 298.228 224.907 298.228C221.765 298.228 218.399 298.676 215.258 299.35C202.467 302.716 191.92 310.121 183.168 320.219C179.578 324.258 177.334 328.97 175.539 334.132C175.09 335.254 174.866 336.151 175.763 336.824C182.046 336.824 188.33 336.824 194.613 336.824C195.735 336.376 196.184 335.254 196.632 334.356C199.101 329.419 202.018 325.156 206.057 321.565C213.911 315.058 222.663 312.814 232.088 312.814C233.883 312.814 235.902 312.814 237.698 313.038C243.532 313.487 249.366 313.936 254.976 314.609C258.791 315.058 262.606 315.506 266.196 316.404C269.114 317.302 271.133 319.097 272.255 322.014C273.377 325.38 274.05 328.97 274.499 332.336C274.724 333.907 274.724 335.478 275.846 336.6C281.904 336.6 287.963 336.6 293.798 336.6C294.695 335.927 295.368 335.029 295.817 334.356C298.061 331.214 300.754 328.522 304.344 326.951C307.486 325.604 310.852 324.707 314.218 323.809C319.379 322.463 324.765 321.116 329.702 318.872C334.638 316.628 339.126 313.711 341.819 308.55C345.858 300.92 347.205 292.842 346.083 284.315C344.288 271.973 338.453 262.548 327.906 256.714C320.726 252.226 312.423 249.308 304.12 246.84C298.286 245.045 292.451 243.698 287.066 241.23C279.66 237.864 275.172 232.254 273.602 223.727C272.704 219.014 272.704 214.302 272.704 209.59C272.704 205.326 273.377 201.287 274.499 197.248C278.09 184.008 286.168 174.583 296.939 167.402C304.793 162.017 313.32 158.202 321.848 153.938C328.58 150.572 335.087 146.982 340.922 142.494C344.063 140.25 346.98 137.782 349 134.191C349 119.83 349 105.692 349 91.3308C348.776 91.1064 348.327 91.1064 348.102 91.1064C347.205 91.1064 346.532 92.004 345.858 92.6772C341.595 96.492 337.331 100.307 333.292 104.346C325.887 111.527 319.379 119.605 313.096 127.908C307.935 134.64 302.549 140.923 296.49 146.533C290.432 152.143 284.148 157.753 278.538 163.812C273.602 169.198 269.787 175.032 266.421 181.54C261.933 190.291 259.913 199.716 258.342 209.141C257.445 213.853 256.772 218.79 254.976 223.278C253.63 226.868 250.937 228.664 247.796 228.664C247.122 228.664 246.449 228.664 245.776 228.439C243.756 227.99 242.186 227.317 240.39 226.195C235.005 223.278 232.312 217.892 230.292 212.058C227.824 205.102 227.375 197.472 226.702 190.067C225.804 177.725 222.214 166.505 216.155 156.182C211.892 148.777 206.282 142.494 199.101 138.23C192.593 134.191 185.861 132.845 178.905 132.845C175.763 132.845 172.622 133.069 169.256 133.742C162.748 134.64 157.587 138.455 155.567 145.86C154.445 149.675 153.996 153.49 153.772 157.304C153.323 164.485 153.323 171.666 152.874 178.847C152.426 186.925 150.855 194.779 148.162 202.184C145.02 210.936 141.206 219.014 136.942 227.093C132.903 234.947 127.517 241.679 119.888 245.718C116.297 247.738 113.38 248.86 110.687 248.86C107.321 248.86 104.404 246.84 101.038 241.679C95.8768 233.825 90.2668 226.42 84.208 219.239C77.9248 212.058 70.9684 205.999 63.7876 199.94C57.28 194.779 51.67 188.945 47.6308 181.315C45.1624 176.378 43.1428 171.442 40.45 166.505C35.2888 156.856 28.108 149.675 18.01 146.084C11.0536 143.84 4.0972 142.045 -2.8592 139.352C-14.3036 134.864 -23.504 127.684 -27.7676 114.893C-30.0116 108.161 -31.358 101.429 -30.0116 94.248C-28.6652 88.1892 -25.9724 83.028 -22.1576 78.3156C-14.3036 68.6664 -7.12279 58.7928 -0.615193 48.0216C1.18001 44.88 2.9752 41.9628 5.4436 39.27C9.034 35.0064 13.2976 32.3136 18.9076 32.3136C19.132 32.3136 19.3564 32.3136 19.5808 32.3136C27.8836 32.538 34.84 36.8016 40.6744 42.636C46.2844 48.0216 49.6504 54.978 53.0164 61.71C57.7288 71.1348 63.7876 79.662 71.4172 86.6184C82.6372 96.7164 93.8572 106.814 105.077 116.912C112.707 123.644 121.234 128.132 131.332 128.132C132.005 128.132 132.678 128.132 133.576 128.132C139.186 127.908 144.123 126.337 148.162 121.625C150.63 118.708 152.426 115.566 154.221 112.2C158.26 103.897 161.85 95.37 167.012 87.516C170.602 81.906 174.866 76.9692 180.7 73.6032C184.739 71.1348 189.003 69.564 193.491 69.564C196.184 69.564 198.876 70.0128 201.569 71.3592C204.262 72.4812 206.73 73.8276 209.199 75.174C214.36 78.3156 219.521 81.906 225.131 84.5988C230.966 87.516 237.024 89.0868 243.083 89.0868C245.776 89.0868 248.244 88.8624 250.937 88.1892C262.83 85.7208 271.133 76.7448 273.153 63.954C274.05 58.5684 273.826 53.1828 273.153 47.7972C272.031 36.8016 265.074 29.172 255.425 27.1524C247.571 25.3572 239.717 25.806 231.863 25.1328C228.273 24.9084 224.907 25.1328 221.316 24.684C212.565 23.3376 204.935 19.5228 199.55 11.6688C197.53 8.7516 195.959 5.61 194.613 2.244C194.164 1.3464 193.491 0.6732 192.593 0C184.515 0 176.436 0 168.358 0C167.909 0.4488 167.46 1.122 167.46 1.7952C167.46 3.5904 167.012 5.61 167.012 7.4052C167.012 15.0348 167.46 22.6644 168.807 30.294C169.704 35.2308 168.582 39.7188 166.338 44.2068C163.421 49.5924 160.953 54.978 158.709 60.8124C155.118 69.564 151.977 78.7644 147.713 87.2916C145.245 92.4528 142.328 97.1652 138.288 101.429C134.474 105.468 129.986 107.712 124.824 107.712C124.6 107.712 124.151 107.712 123.927 107.712C119.214 107.488 114.951 105.692 110.687 103.224C103.058 98.2872 96.1012 92.6772 88.9204 87.0672C83.3104 82.8036 78.1492 77.8668 73.6612 72.2568C68.5 65.7492 65.134 58.344 61.9924 50.7144C57.28 38.148 50.0992 27.3768 41.572 17.7276C37.7572 13.2396 34.1668 8.5272 32.8204 2.4684C32.596 1.3464 31.9228 0.6732 31.2496 0C22.0492 0 12.8488 0 3.6484 0C2.9752 0.6732 2.302 1.3464 1.8532 2.244C-0.390801 8.0784 -4.20559 12.5664 -8.91799 16.1568C-14.528 20.4204 -20.138 24.684 -25.0748 29.6208C-31.8068 36.3528 -37.8656 43.9824 -43.2512 52.0608C-47.7392 59.0172 -53.1248 65.076 -59.8568 70.0128C-63.2228 72.7056 -66.3644 75.6228 -69.0572 78.54C-76.238 86.1696 -82.5212 94.4724 -89.2532 102.326C-93.2924 107.488 -97.1072 112.649 -99.8 118.483C-105.634 130.376 -107.205 143.392 -107.878 156.631C-108.327 165.607 -106.981 174.359 -104.961 183.11C-103.166 189.618 -101.82 196.126 -102.044 203.082C-102.268 213.404 -104.961 223.278 -110.347 232.03C-115.732 240.781 -123.362 244.372 -132.562 244.372C-133.011 244.372 -133.46 244.372 -134.133 244.372C-140.865 244.147 -147.373 242.128 -153.432 238.762C-159.042 235.844 -163.978 232.03 -169.14 228.215C-180.808 219.014 -194.048 213.629 -208.185 210.936C-208.858 210.936 -209.532 210.487 -210.205 210.487C-210.878 210.487 -211.551 210.712 -212 211.16C-212 219.239 -212 227.317 -212 235.396C-211.551 235.844 -211.102 236.293 -210.205 236.293C-210.205 236.293 -210.205 236.293 -209.98 236.293C-207.961 236.293 -206.166 236.742 -204.146 236.742C-199.434 236.966 -194.946 237.64 -190.458 238.986C-183.052 241.006 -176.32 244.82 -169.364 247.962C-158.144 253.123 -146.7 256.265 -134.582 256.265C-131.44 256.265 -128.299 256.04 -124.933 255.592C-114.61 254.245 -106.981 248.635 -101.595 239.435C-96.434 230.459 -93.5168 220.585 -91.4972 210.487C-90.1508 203.98 -89.702 197.248 -90.5996 190.516C-91.4972 184.906 -92.8436 179.296 -94.19 173.686C-96.2096 164.71 -96.8828 155.958 -95.7608 146.758C-93.5168 129.03 -84.9896 115.79 -70.628 107.263C-67.0376 105.244 -63.6716 104.122 -60.53 104.122C-56.042 104.122 -52.0028 106.366 -48.188 111.751C-44.3732 116.688 -41.456 122.074 -38.3144 127.459C-31.8068 137.782 -23.2796 145.187 -12.7328 150.348C-5.77639 153.714 1.4044 156.182 8.3608 159.1C19.5808 164.036 26.986 172.564 29.0056 185.579C29.9032 191.862 30.352 197.921 30.1276 204.204C30.1276 206.672 30.352 208.916 31.0252 211.385C32.1472 216.097 35.0644 219.014 39.7768 219.688C41.7964 219.912 43.5916 220.136 45.3868 220.136C46.06 220.136 46.7332 220.136 47.4064 220.136C47.6308 220.136 47.8552 220.136 48.0796 220.136C63.7876 220.136 75.4564 235.171 72.988 251.777C71.4172 261.65 67.8268 270.626 64.2364 279.827C61.3192 286.783 58.1776 293.74 55.9336 301.145C53.6896 308.55 53.6896 315.731 58.1776 322.463C60.4216 325.829 63.3388 328.522 66.256 330.99C68.9488 332.561 70.9684 335.478 74.3344 336.6Z" fill="#D88CF3"/>
<path opacity="0.1" d="M-91.9461 335.7C-91.2729 330.09 -89.7021 324.48 -86.7849 317.524C-83.4189 309.445 -78.9309 301.816 -74.6673 294.41C-73.3209 292.166 -71.9745 289.922 -70.6281 287.678L-70.1793 286.781C-66.5889 280.498 -62.7741 273.99 -58.5105 267.931C-48.6369 254.692 -37.4169 247.511 -24.1773 245.491C-22.1577 245.267 -20.3625 245.042 -18.5673 245.042C-10.9377 245.042 -4.65445 247.735 0.282346 253.121C3.42395 256.487 4.99473 260.975 6.34113 265.238C9.03393 272.868 10.3803 280.722 11.9511 288.576L12.3999 290.371C14.6439 302.264 18.0099 312.811 22.7223 322.685C24.7419 326.948 26.0883 331.212 26.9859 335.7H7.68754C7.23874 335.251 6.78995 334.578 6.78995 333.905L6.56554 332.558C5.44354 324.256 4.09714 315.728 3.64834 307.426L3.42395 304.284C2.97515 298.674 2.75074 293.064 1.85314 287.23C0.731139 280.049 -1.06405 271.746 -6.22525 264.79C-10.2645 259.404 -15.6501 256.262 -22.3821 255.814C-23.0553 255.814 -23.7285 255.814 -24.4017 255.814C-31.8069 255.814 -38.7633 258.955 -45.7197 265.463C-51.5541 270.848 -55.5933 277.805 -58.9593 284.537C-62.1009 290.371 -65.2425 295.981 -68.3841 301.591C-70.4037 305.182 -72.1989 308.772 -74.2185 312.138C-78.4821 319.992 -80.9505 326.275 -82.2969 332.783C-82.5213 334.129 -82.7457 334.802 -83.4189 335.251H-91.9461V335.7ZM-92.8437 336.598C-89.7021 336.598 -86.5605 336.598 -83.4189 336.598C-82.0725 335.924 -81.8481 334.802 -81.6237 333.456C-80.0529 326.275 -77.1357 319.543 -73.7697 313.26C-68.6085 303.835 -63.4473 294.859 -58.5105 285.434C-54.9201 278.478 -51.1053 271.746 -45.2709 266.585C-39.2121 260.75 -32.4801 256.936 -24.4017 256.936C-23.7285 256.936 -23.0553 256.936 -22.3821 256.936C-16.0989 257.384 -10.7133 260.077 -6.67406 265.463C-1.73726 271.97 0.057945 279.6 1.17995 287.454C2.07755 293.962 2.52634 300.694 2.97514 307.201C3.64834 316.177 4.77035 324.929 6.11675 333.905C6.34115 335.027 6.78994 335.7 7.46314 336.373C14.4195 336.373 21.3759 336.373 28.3323 336.373C27.4347 331.436 25.8639 326.724 23.6199 322.236C18.6831 312.138 15.5415 301.367 13.2975 290.147C11.7267 281.62 10.1559 273.092 7.46314 265.014C5.89234 260.526 4.32155 256.038 1.17995 252.672C-4.43006 246.613 -11.1621 244.369 -18.3429 244.369C-20.1381 244.369 -22.1577 244.594 -24.1773 244.818C-38.5389 246.838 -49.9833 255.365 -58.9593 267.707C-63.6717 273.766 -67.4865 280.498 -71.3013 287.23C-76.9113 297.103 -83.1945 306.528 -87.4581 317.075C-90.1509 323.358 -92.1705 329.641 -92.8437 336.598Z" fill="#D88CF3"/>
<path opacity="0.1" d="M114.951 335.704C115.624 333.685 116.522 331.441 117.195 329.421C120.112 321.118 123.254 312.591 125.273 303.615C126.395 298.229 127.742 292.619 129.761 287.458C131.108 283.643 133.352 280.277 136.044 277.36C138.064 275.341 140.084 273.097 142.103 271.077C143.225 269.955 144.572 268.609 145.694 267.487C153.099 259.857 157.362 250.657 158.26 239.885C159.606 225.973 161.85 211.611 163.87 199.493C164.768 193.883 165.216 188.049 165.665 182.663L165.89 179.073C166.338 173.463 166.787 166.955 168.807 161.121C171.275 153.716 177.783 148.779 184.964 148.779C185.861 148.779 186.759 148.779 187.656 149.003C196.408 150.574 202.916 155.96 208.301 166.058C211.892 172.565 213.687 180.195 214.136 189.844C214.136 191.864 214.36 194.108 214.36 196.127C214.584 201.962 214.809 208.245 215.931 214.079C218.624 227.095 225.131 237.641 235.454 245.047C236.8 245.944 238.146 247.066 239.717 247.964C242.41 249.759 244.878 251.779 247.571 253.574C254.079 258.735 257.669 265.467 258.118 273.994C258.567 278.707 258.342 282.521 257.669 285.887C256.772 291.273 253.63 294.863 248.469 296.659C245.776 297.556 242.634 298.005 238.595 298.005C237.698 298.005 237.024 298.005 236.127 298.005C235.005 298.005 233.658 298.005 232.536 298.005C231.414 298.005 230.068 298.005 228.946 298.005C226.702 298.005 224.009 298.005 221.092 298.454C213.687 299.127 206.282 302.044 198.652 306.981C190.798 312.142 184.964 317.528 180.924 323.811C178.232 327.85 176.436 331.889 175.314 335.704H153.772C153.323 335.255 153.323 334.807 153.323 333.909V333.46C153.323 332.114 153.323 330.992 153.323 329.645C153.323 327.177 153.323 324.709 152.874 322.24V321.791C152.65 319.996 152.201 317.977 149.957 317.079C149.508 316.855 149.06 316.855 148.611 316.855C146.816 316.855 145.469 318.201 144.347 319.323C140.532 323.362 137.84 327.626 136.044 332.338L135.82 333.011C135.371 334.133 134.922 335.255 134.249 335.704H114.951ZM113.604 336.602C120.336 336.602 127.068 336.602 133.8 336.602C135.371 335.704 135.82 334.133 136.269 332.563C138.064 327.85 140.981 323.587 144.572 319.996C145.469 318.874 146.816 317.752 148.162 317.752C148.386 317.752 148.835 317.752 149.284 317.977C151.304 318.65 151.304 320.669 151.752 322.465C152.426 326.279 151.977 329.87 152.201 333.685C152.201 334.807 152.201 336.153 153.099 336.826C160.728 336.826 168.134 336.826 175.763 336.826C176.885 332.338 178.905 328.299 181.373 324.484C185.861 317.528 192.144 312.367 198.876 307.879C205.608 303.391 212.789 300.249 220.868 299.351C223.56 299.127 226.029 299.127 228.722 299.127C231.19 299.127 233.434 299.127 235.902 299.127C236.8 299.127 237.473 299.127 238.371 299.127C241.737 299.127 245.327 298.678 248.469 297.781C253.854 295.985 257.22 292.395 258.342 286.336C259.016 282.297 259.016 278.258 258.791 274.219C258.118 265.243 254.528 258.286 247.796 253.125C243.981 249.983 239.717 247.291 235.678 244.373C225.356 236.968 219.072 226.87 216.604 213.855C215.033 205.777 215.258 197.698 214.809 189.62C214.36 180.868 212.789 172.79 208.75 165.385C204.038 156.409 197.53 149.677 187.432 147.881C186.534 147.657 185.412 147.657 184.515 147.657C176.885 147.657 169.929 152.818 167.46 160.448C165.665 166.282 164.992 172.565 164.543 178.624C164.094 185.356 163.646 192.313 162.524 199.045C160.28 212.509 158.26 225.973 156.914 239.437C156.016 249.983 151.752 259.184 144.572 266.365C141.43 269.731 138.064 272.872 135.147 276.238C132.454 279.155 130.21 282.746 128.639 286.785C126.62 292.171 125.498 297.556 124.151 303.166C121.907 314.835 117.419 325.606 113.604 336.602Z" fill="#D88CF3"/>
<path opacity="0.1" d="M125.049 107.712C123.478 107.712 121.683 107.488 119.888 107.039C116.297 106.141 112.707 104.57 108.892 101.878C99.916 95.5944 90.4912 88.8624 82.1884 81.2328C75.4564 75.174 70.5196 68.6664 66.9292 61.2612C65.5828 58.344 64.2364 55.2024 62.89 52.2852C60.8704 47.7972 58.8508 43.0848 56.3824 38.5968C53.2408 32.9868 49.426 27.3768 44.4892 21.5424C42.0208 18.8496 39.328 15.4836 36.8596 11.8932C34.84 8.976 33.2692 5.3856 32.3716 0.8976H60.1972C60.8704 1.3464 61.0948 2.0196 61.3192 3.1416V3.5904C63.7876 16.83 67.378 30.9672 71.866 46.6752C74.3344 54.978 78.1492 62.3832 83.086 67.9932C86.2276 71.5836 89.818 74.7252 93.8572 77.1936C101.262 81.6816 107.77 84.15 114.278 85.0476C114.951 85.0476 115.4 85.0476 116.073 85.0476C121.907 85.0476 126.62 80.784 127.517 74.5008C128.19 70.2372 127.966 65.9736 127.517 61.9344L127.293 59.6904C125.946 43.9824 127.293 30.294 131.781 17.952C133.352 13.2396 136.044 9.2004 138.513 4.9368C138.737 4.488 138.962 4.0392 139.186 3.5904C139.859 2.4684 140.308 1.3464 141.43 0.6732H167.46C167.46 1.7952 167.46 2.6928 167.236 3.8148C167.236 4.7124 167.012 5.8344 167.012 6.732C167.012 15.4836 167.46 23.1132 168.807 30.0696C169.704 34.782 168.807 39.27 166.563 43.5336C162.524 50.9388 159.382 58.7928 156.465 66.6468L156.016 67.7688L155.118 70.0128C151.752 78.54 148.386 87.516 143.225 95.37C140.532 99.4092 138.064 102.102 135.147 104.346C132.005 106.59 128.639 107.712 125.049 107.712ZM125.049 108.61C128.864 108.61 132.454 107.488 135.82 105.019C139.186 102.551 141.879 99.4092 144.123 95.8188C149.733 87.2916 153.323 77.6424 156.914 68.2176C160.055 60.1392 163.197 52.0608 167.236 44.4312C169.704 39.9432 170.602 35.4552 169.704 30.294C168.358 22.6644 167.909 14.8104 167.909 6.9564C167.909 4.7124 168.358 2.244 168.358 0C159.382 0 150.182 0 141.206 0C139.41 1.122 138.737 2.9172 137.84 4.488C135.147 8.7516 132.454 13.0152 130.883 17.7276C126.171 31.416 125.273 45.5532 126.395 59.9148C126.844 64.8516 127.293 69.564 126.62 74.5008C125.722 80.5596 121.458 84.3744 116.073 84.3744C115.624 84.3744 114.951 84.3744 114.502 84.3744C107.321 83.4768 100.589 80.3352 94.306 76.5204C90.2668 74.052 86.9008 71.1348 83.7592 67.5444C78.598 61.4856 75.0076 54.3048 72.7636 46.4508C68.7244 32.3136 64.9096 17.952 62.2168 3.5904C61.768 2.0196 61.768 0.6732 60.1972 0C50.548 0 40.6744 0 31.0252 0C31.9228 4.488 33.4936 8.7516 35.962 12.342C38.4304 15.708 40.8988 18.8496 43.5916 21.9912C48.0796 27.1524 52.1188 32.7624 55.2604 38.8212C59.2996 46.2264 62.2168 54.0804 65.8072 61.4856C69.622 69.3396 75.0076 76.0716 81.2908 81.6816C89.818 89.3112 99.0184 96.0432 108.219 102.551C111.585 105.019 115.4 106.814 119.439 107.712C121.458 108.385 123.254 108.61 125.049 108.61Z" fill="#D88CF3"/>
<path opacity="0.1" d="M116.522 84.5988C116.073 84.5988 115.624 84.5988 115.4 84.5988C105.526 83.4768 96.55 79.2132 87.7984 71.808C77.7004 63.0564 73.4368 50.7144 70.2952 38.5968L68.7244 32.7624C66.0316 22.44 63.3388 11.6688 61.5436 1.122H140.084C139.186 3.366 138.064 5.1612 136.718 7.1808C136.269 7.854 135.82 8.5272 135.596 8.976C131.332 15.708 128.639 23.7864 127.293 33.66C126.395 39.0456 125.722 44.88 125.946 50.9388C125.946 53.856 126.395 56.7732 126.62 59.6904C126.844 62.1588 127.068 64.6272 127.068 67.0956C127.293 72.93 127.293 77.8668 123.029 81.906C121.234 83.7012 118.99 84.5988 116.522 84.5988ZM116.522 85.4964C118.99 85.4964 121.458 84.5988 123.478 82.5792C127.966 78.3156 127.966 72.7056 127.742 67.0956C127.517 61.71 126.844 56.3244 126.62 50.9388C126.395 45.1044 127.068 39.27 127.966 33.4356C129.088 24.684 131.556 16.6056 136.044 9.2004C138.064 6.2832 140.084 3.5904 141.206 0C114.278 0 87.3496 0 60.4216 0C60.4216 0.2244 60.646 0.6732 60.646 0.8976C62.89 13.6884 66.256 26.0304 69.3976 38.5968C72.7636 51.3876 77.0272 63.5052 87.1252 72.2568C95.428 79.4376 104.628 84.15 115.175 85.272C115.848 85.4964 116.297 85.4964 116.522 85.4964Z" fill="#D88CF3"/>
<path opacity="0.1" d="M96.3256 49.5911C95.8768 49.5911 95.2036 49.3667 94.5304 49.1423C92.5108 48.0203 90.7156 44.4299 90.4912 40.8395C90.2668 39.2687 90.4912 36.1271 92.9596 34.1075C93.8572 33.4343 94.7548 33.2099 95.6524 32.9855C97.4476 33.2099 99.0184 34.3319 100.365 36.8003C102.384 40.1663 101.487 45.3275 98.5696 48.4691C97.8964 49.1423 97.2232 49.5911 96.3256 49.5911ZM96.3256 50.4887C97.2232 50.4887 98.1208 50.0399 99.0184 49.1423C102.16 46.0007 103.058 40.3907 101.038 36.5759C99.916 34.5563 98.3452 32.5367 95.6524 32.3123C94.5304 32.3123 93.4084 32.7611 92.5108 33.6587C87.1252 37.9223 90.2668 47.7959 94.0816 50.0399C94.9792 50.0399 95.6524 50.4887 96.3256 50.4887Z" fill="#D88CF3"/>
<path opacity="0.1" d="M107.321 194.554C107.097 194.554 107.097 194.554 106.872 194.554C103.731 194.329 100.365 193.432 96.5499 191.412C89.5935 187.597 83.3103 183.109 77.7003 177.499C72.5391 172.338 68.4999 165.382 65.1339 156.63C60.8703 144.737 54.5871 133.293 46.5087 122.97C44.7135 120.726 43.5915 118.258 42.4695 115.565C41.3475 112.872 40.8987 111.077 42.2451 109.057C43.3671 107.262 45.1623 106.365 47.6307 106.365C47.8551 106.365 48.0795 106.365 48.3039 106.365C52.5675 106.589 56.8311 108.16 61.5435 110.853C69.1731 115.341 75.0075 121.848 79.9443 127.683C88.9203 138.678 96.5499 147.205 103.731 154.611C105.077 155.957 106.424 157.303 107.77 158.65C110.238 161.118 112.707 163.587 115.175 166.055C117.644 168.748 119.439 171.665 120.561 175.031C121.907 178.846 121.234 183.334 119.214 186.924C117.195 190.515 113.829 192.983 110.238 193.881H109.79C109.116 194.329 108.219 194.554 107.321 194.554ZM107.321 195.451C108.443 195.451 109.341 195.227 110.463 194.778C118.766 192.983 124.151 183.109 121.458 174.807C120.336 171.216 118.317 168.075 115.848 165.382C112.258 161.343 108.219 157.752 104.404 153.937C96.1011 145.41 88.2471 136.434 80.6175 127.234C75.2319 120.502 69.3975 114.443 61.9923 110.179C57.7287 107.711 53.2407 105.691 48.5283 105.467C48.3039 105.467 48.0795 105.467 47.6307 105.467C45.1623 105.467 43.1427 106.14 41.5719 108.384C39.7767 110.853 40.6743 113.321 41.7963 115.789C42.9183 118.482 44.2647 120.951 46.0599 123.195C53.9139 133.293 60.1971 144.288 64.4607 156.63C67.3779 164.484 71.1927 171.889 77.2515 177.948C82.8615 183.558 89.3691 188.271 96.3255 192.085C99.6915 193.881 103.282 195.227 107.097 195.451C107.097 195.451 107.321 195.451 107.321 195.451Z" fill="#D88CF3"/>
<g opacity="0.3" filter="url(#filter0_f)">
<circle r="193.5" transform="matrix(-1 0 0 1 164.5 290.5)" fill="#0690F4"/>
</g>
</g>
<defs>
<filter id="filter0_f" x="-163" y="-37" width="655" height="655" filterUnits="userSpaceOnUse" color-interpolation-filters="sRGB">
<feFlood flood-opacity="0" result="BackgroundImageFix"/>
<feBlend mode="normal" in="SourceGraphic" in2="BackgroundImageFix" result="shape"/>
<feGaussianBlur stdDeviation="67" result="effect1_foregroundBlur"/>
</filter>
<linearGradient id="paint0_linear" x1="64" y1="0" x2="118.5" y2="378.5" gradientUnits="userSpaceOnUse">
<stop stop-color="#A437BF"/>
<stop offset="1" stop-color="#9337BF"/>
</linearGradient>
<linearGradient id="paint1_linear" x1="64" y1="0" x2="118.5" y2="378.5" gradientUnits="userSpaceOnUse">
<stop stop-color="#A437BF"/>
<stop offset="1" stop-color="#9337BF"/>
</linearGradient>
</defs>
</svg>
