<svg width="150" height="104" viewBox="0 0 150 104" fill="none" xmlns="http://www.w3.org/2000/svg">
<path opacity="0.15" fill-rule="evenodd" clip-rule="evenodd" d="M127.964 91.5056C98.9673 108.239 51.7842 108.155 22.6195 91.3101C-6.57315 74.4649 -6.71281 47.2278 22.2843 30.4944C51.2814 13.761 98.4645 13.8448 127.629 30.6899C156.794 47.535 156.961 74.7443 127.964 91.5056Z" fill="url(#paint0_radial)"/>
<g opacity="0.2">
<path opacity="0.2" d="M87.4775 71.0099C77.9743 76.5003 62.5247 76.4638 52.9668 70.9552C43.4088 65.4284 43.3541 56.5089 52.8573 51.0368C62.3606 45.5464 77.8101 45.5829 87.3681 51.0915C96.926 56.6001 96.9807 65.5196 87.4775 71.0099Z" fill="#1E16B5"/>
</g>
<path d="M18.0729 46.7319V51.3285L18 40.9862L18.0182 36.3896L18.0729 46.7319Z" fill="#18314F"/>
<path fill-rule="evenodd" clip-rule="evenodd" d="M61.1202 76.1896L61.1202 76.1896L18.0729 51.3281V46.7314L61.1384 71.5931L61.1385 71.593L78.9957 71.5931L121.769 46.7314L121.751 51.3098L78.9775 76.1896H61.1202Z" fill="#18314F"/>
<path d="M121.715 36.3899L121.77 46.7322L78.996 71.5938H61.1387L18.0732 46.7322L18.0185 36.3899L60.8104 11.5283H78.6494L121.715 36.3899Z" fill="#18314F"/>
<path d="M18.0729 40.1294V45.6197L18 34.3837L18.0182 29.7871L18.0729 40.1294Z" fill="#86E9EE"/>
<path fill-rule="evenodd" clip-rule="evenodd" d="M61.1202 70.4808L61.1202 70.4809L18.0729 45.6193V40.1289L61.1384 64.9905L61.1385 64.9905L78.9957 64.9905L121.769 40.1289L121.751 45.6193L78.9775 70.4808H61.1202Z" fill="url(#paint1_linear)"/>
<path d="M121.714 29.7864L121.769 40.1287L78.9951 64.9903H61.1378L18.0723 40.1287L18.0176 29.7864L60.8095 4.9248H78.6485L121.714 29.7864Z" fill="url(#paint2_linear)"/>
<path d="M62.3058 61.853H61.9775L21.192 38.3047L21.1555 31.574L61.6491 8.04395H77.8101L118.596 31.5923L118.632 38.3229L78.1384 61.853H62.3058ZM23.691 36.8637L62.6524 59.3541H77.4818L116.133 36.9002L116.115 33.0515L77.1534 10.5611H62.324L23.6727 33.015L23.691 36.8637Z" fill="#86E9EE"/>
<path d="M18.0729 35.1854V39.2712L18 29.4397L18.0182 24.8613L18.0729 35.1854Z" fill="#1B1C1E"/>
<path fill-rule="evenodd" clip-rule="evenodd" d="M61.1202 64.1327L61.1202 64.133L18.0729 39.2714V35.1855L61.1384 60.0472L61.1385 60.0469H78.9958L78.9957 60.0472L121.769 35.1855L121.751 39.2714L78.9775 64.133L78.9775 64.1327H61.1202Z" fill="#18314F"/>
<path d="M121.714 24.8616L121.769 35.1857L78.9951 60.0473H61.1378L18.0723 35.1857L18.0176 24.8616L60.8095 0H78.6485L121.714 24.8616Z" fill="#0A2340"/>
<path d="M62.3058 56.9282H61.9775L21.192 33.3799L21.1555 26.6492L61.6491 3.11914H77.8101L118.596 26.6674L118.632 33.3981L78.1384 56.9282H62.3058ZM23.691 31.9389L62.6524 54.4293H77.4818L116.133 31.9754L116.115 28.1267L77.1534 5.63632H62.324L23.6727 28.0902L23.691 31.9389Z" fill="#18314F"/>
<defs>
<radialGradient id="paint0_radial" cx="0" cy="0" r="1" gradientUnits="userSpaceOnUse" gradientTransform="translate(75.1191 61) rotate(89.0274) scale(32.4197 56.1605)">
<stop stop-color="#18EDFA"/>
<stop offset="1" stop-color="#18EDFA" stop-opacity="0"/>
</radialGradient>
<linearGradient id="paint1_linear" x1="18" y1="43.0005" x2="122" y2="46.0005" gradientUnits="userSpaceOnUse">
<stop stop-color="#0BB3EE"/>
<stop offset="1" stop-color="#A437BF"/>
</linearGradient>
<linearGradient id="paint2_linear" x1="17.9446" y1="10.6076" x2="122.064" y2="12.126" gradientUnits="userSpaceOnUse">
<stop stop-color="#0BB3EE"/>
<stop offset="1" stop-color="#A437BF"/>
</linearGradient>
</defs>
</svg>
