<svg width="181" height="179" viewBox="0 0 181 179" fill="none" xmlns="http://www.w3.org/2000/svg">
<path opacity="0.6" d="M97.4162 137.387C92.5376 137.883 87.5552 136.124 82.5968 132.121C80.338 93.0069 96.1819 73.3686 96.3294 73.1898L118.67 44.9008L123.331 53.9281C127.287 61.5881 130.692 70.1451 133.454 79.3571L138.376 95.7977L113.029 127.903L112.937 128.019C112.874 128.107 106.451 136.464 97.4162 137.387Z" fill="#081533"/>
<path d="M114.604 109.182V65.7474L98.4817 54.4436C90.3442 48.7375 82.1376 43.998 74.0001 40.309L57.8779 33L51.3679 36.8123L58.5733 42.0351V76.0352C58.5733 76.0352 57.6905 103.752 86.9363 135.74C90.6993 135.972 93.9592 135.691 96.7901 135.04L96.3068 136.613L102.033 133.239C102.526 132.973 102.999 132.692 103.458 132.401L103.537 132.352H103.532C115.082 124.875 114.604 109.182 114.604 109.182Z" fill="#8E1CAA"/>
<path d="M86.2069 46.6025C82.1332 44.25 78.0546 42.149 73.9957 40.3095L57.8735 33.0005L51.3635 36.8128L58.5689 42.0356V62.5619L86.2069 46.6025Z" fill="#8E1CAA"/>
<path d="M80.5896 43.5244L67.0024 51.366L78.1928 57.8267L91.7849 49.9802C88.0564 47.6228 84.323 45.4676 80.5896 43.5244Z" fill="#8618A2"/>
<path d="M108.094 112.994V69.5594L91.9721 58.2556C83.8346 52.5495 75.628 47.81 67.4905 44.121L51.3683 36.812V80.2466C51.3683 80.2466 50.4855 107.964 79.7313 139.951C108.977 141.732 108.094 112.994 108.094 112.994Z" fill="#7B1594"/>
<path d="M96.8547 130.113C93.3334 133.526 88.3325 135.232 81.9606 135.163C55.9501 105.863 56.2165 80.6321 56.2214 80.4003L56.2263 44.3535L65.4784 48.5505C73.3299 52.1113 81.3047 56.7176 89.1808 62.2363L103.232 72.0901V112.995V113.143C103.237 113.251 103.375 123.791 96.8547 130.113Z" fill="#8E1CAA"/>
<path d="M85.9048 91.9209C85.9048 93.3802 87.2305 95.1489 88.8534 95.8741C90.4877 96.5993 91.802 96.0156 91.802 94.5564C91.802 93.0972 90.4763 91.3284 88.8534 90.6032C87.2191 89.8692 85.9048 90.4617 85.9048 91.9209Z" fill="#0051FF"/>
<path d="M75.7949 86.8658C75.7949 88.325 77.1207 90.0937 78.7436 90.8189C80.3779 91.5441 81.6922 90.9604 81.6922 89.5012C81.6922 88.042 80.3665 86.2732 78.7436 85.548C77.1093 84.814 75.7949 85.4065 75.7949 86.8658Z" fill="#0051FF"/>
<path d="M65.6855 81.8111C65.6855 83.2703 67.0113 85.039 68.6342 85.7642C70.2685 86.4894 71.5828 85.9057 71.5828 84.4465C71.5828 82.9873 70.257 81.2185 68.6342 80.4934C67.0113 79.7593 65.6855 80.3519 65.6855 81.8111Z" fill="#0051FF"/>
</svg>
