<svg width="18" height="18" viewBox="0 0 18 18" fill="none" xmlns="http://www.w3.org/2000/svg">
<path fill-rule="evenodd" clip-rule="evenodd" d="M1.5 9.00001C1.5 4.85938 4.85938 1.5 9 1.5C13.1406 1.5 16.5 4.85938 16.5 9.00001C16.5 13.1406 13.1406 16.5 9 16.5C4.85938 16.5 1.5 13.1406 1.5 9.00001ZM12.2164 6.29918C12.0271 6.13152 11.7431 6.15551 11.5821 6.35276L8.0551 10.675L6.37397 9.11846C6.18822 8.94647 5.90378 8.9639 5.73867 9.15739C5.57356 9.35088 5.59029 9.64716 5.77604 9.81915L7.80104 11.6941C7.9897 11.8688 8.27939 11.8477 8.44287 11.6474L12.2679 6.95992C12.4288 6.76267 12.4058 6.46685 12.2164 6.29918Z" fill="#0051FF"/>
</svg>
