<svg width="246" height="288" viewBox="0 0 246 288" fill="none" xmlns="http://www.w3.org/2000/svg">
<path d="M5.323 127.612L5.35147 124.056C5.35147 124.994 5.94881 125.905 7.17202 126.616L7.14354 130.172C5.92033 129.461 5.323 128.55 5.323 127.612Z" fill="#18314F"/>
<path d="M53.9954 148.576L53.967 152.132C51.5491 153.526 47.595 153.526 45.177 152.132L45.2054 148.576C47.6518 149.97 51.6059 149.97 53.9954 148.576Z" fill="#18314F"/>
<path fill-rule="evenodd" clip-rule="evenodd" d="M7.20058 126.616C5.97737 125.905 5.37995 124.994 5.37995 124.056L5.35156 127.612C5.35156 128.55 5.9489 129.461 7.17211 130.172L45.1771 152.116L45.1769 152.132C47.5949 153.526 51.549 153.526 53.967 152.132L53.9953 148.576C51.615 149.965 47.6822 149.97 45.2337 148.592L45.2338 148.577L7.20058 126.616ZM91.7726 126.616L53.9954 148.577L53.967 152.133L91.7442 130.172C92.939 129.489 93.5364 128.55 93.5364 127.64L93.5635 124.246C93.566 124.192 93.5664 124.138 93.5648 124.084L93.5635 124.246C93.5226 125.127 92.9256 125.972 91.7726 126.616Z" fill="#18314F"/>
<path d="M91.7446 121.524C94.1626 122.918 94.191 125.222 91.773 126.616L53.9958 148.577C51.5778 149.971 47.6237 149.971 45.2057 148.577L7.1725 126.616C4.75453 125.222 4.72606 122.918 7.14403 121.524L44.9213 99.563C47.3392 98.1691 51.2934 98.1691 53.7114 99.563L91.7446 121.524Z" fill="#18314F"/>
<path fill-rule="evenodd" clip-rule="evenodd" d="M89.4679 103.746C89.6569 102.787 89.1131 101.782 87.8474 101.042L53.3699 81.1295C51.1511 79.8494 47.5668 79.8494 45.3764 81.1295L11.0981 101.042C8.90775 102.294 8.93622 104.37 11.1266 105.651L45.6324 125.563C47.8228 126.843 51.4071 126.843 53.5975 125.563L87.8758 105.651C88.0459 105.553 88.2026 105.451 88.346 105.345C88.1949 105.46 88.0286 105.572 87.847 105.679L53.5687 125.592L53.5686 125.608C51.3755 126.844 47.7846 126.838 45.632 125.592L45.6036 145.618C47.794 146.898 51.3782 146.898 53.5686 145.618L53.5687 145.602L87.8185 125.705C88.8995 125.08 89.44 124.255 89.44 123.401L89.4679 103.746ZM11.0978 105.679C9.98836 105.054 9.44791 104.2 9.44791 103.347L9.41943 123.373C9.41943 124.227 9.95988 125.052 11.0693 125.706L45.5752 145.618L45.6036 125.592L11.0978 105.679Z" fill="url(#paint0_linear)"/>
<path d="M5.323 102.323L5.35147 98.7671C5.35147 99.7058 5.94881 100.616 7.17202 101.327L7.14354 104.883C5.92033 104.2 5.323 103.262 5.323 102.323Z" fill="#18314F"/>
<path d="M53.9954 123.288L53.967 126.844C51.5491 128.238 47.595 128.238 45.177 126.844L45.2054 123.288C47.6518 124.71 51.6059 124.71 53.9954 123.288Z" fill="#18314F"/>
<path fill-rule="evenodd" clip-rule="evenodd" d="M7.20058 101.356C5.97737 100.644 5.37995 99.7057 5.37995 98.7954L5.35156 102.351C5.35156 103.29 5.9489 104.2 7.17211 104.911L45.2053 126.872L45.2054 126.86C47.6259 128.238 51.5585 128.232 53.967 126.844L53.9953 123.288C51.6058 124.71 47.6517 124.71 45.2053 123.288L45.2052 123.3L7.20058 101.356ZM91.7726 101.355L53.9954 123.316L53.967 126.872L91.7442 104.911C92.939 104.229 93.5364 103.29 93.5364 102.38L93.5635 98.9795C93.566 98.9276 93.5664 98.8757 93.5648 98.8237L93.5635 98.9795C93.523 99.8373 92.926 100.685 91.7726 101.355Z" fill="#18314F"/>
<path d="M91.7446 96.2636C94.1626 97.6575 94.191 99.9616 91.773 101.356L53.9958 123.316C51.5778 124.71 47.6237 124.71 45.2057 123.316L7.1725 101.356C4.75453 99.9616 4.72606 97.6575 7.14403 96.2636L44.9213 74.3027C47.3392 72.9089 51.2934 72.9089 53.7114 74.3027L91.7446 96.2636Z" fill="#18314F"/>
<path fill-rule="evenodd" clip-rule="evenodd" d="M89.4679 78.4576C89.6568 77.4989 89.113 76.4933 87.8474 75.7536L53.3699 55.8409C51.1511 54.5608 47.5668 54.5608 45.3764 55.8409L11.0981 75.7536C8.90774 77.0053 8.93621 79.0819 11.1266 80.362L45.6324 100.275C47.8228 101.555 51.4071 101.555 53.5975 100.275L87.8758 80.362C88.2962 80.1218 88.6348 79.8512 88.8921 79.5616C88.6318 79.8627 88.2834 80.1441 87.847 80.3903L53.5687 100.303L53.5686 100.32C51.3755 101.583 47.7846 101.578 45.632 100.303L45.6036 120.33C47.794 121.61 51.3782 121.61 53.5686 120.33L53.5687 120.313L87.8185 100.417C88.8995 99.791 89.44 98.966 89.44 98.1126L89.4679 78.4576ZM11.0978 80.3901C9.98836 79.7358 9.44791 78.9109 9.44791 78.0574L9.41943 98.084C9.41943 98.9374 9.95988 99.7623 11.0693 100.417L45.5752 120.329L45.6036 100.303L11.0978 80.3901Z" fill="url(#paint1_linear)"/>
<path d="M5.323 77.5173L5.35147 73.9614C5.35147 74.9002 5.94881 75.8105 7.17202 76.5217L7.14354 80.0775C5.92033 79.3948 5.323 78.456 5.323 77.5173Z" fill="url(#paint2_linear)"/>
<path fill-rule="evenodd" clip-rule="evenodd" d="M5.37995 73.9897C5.37995 74.9 5.97737 75.8388 7.20058 76.5499L45.2052 98.4943L45.2053 98.4822C47.6517 99.9045 51.6058 99.9045 53.9953 98.4822L53.967 102.038C51.5585 103.426 47.6259 103.432 45.2054 102.054L45.2053 102.067L7.17211 80.1058C5.9489 79.3946 5.35156 78.4843 5.35156 77.5456L5.37995 73.9897ZM53.9954 98.5111L91.7726 76.5503C92.926 75.8797 93.523 75.0321 93.5635 74.1744L93.5364 77.5744C93.5364 78.4847 92.939 79.4234 91.7442 80.1061L53.967 102.067L53.9954 98.5111ZM93.5648 74.0186L93.5635 74.1744C93.566 74.1225 93.5664 74.0705 93.5648 74.0186Z" fill="#18314F"/>
<path d="M91.7446 71.4579C94.1626 72.8518 94.191 75.1559 91.773 76.5498L53.9958 98.5107C51.5778 99.9046 47.6237 99.9046 45.2057 98.5107L7.1725 76.5498C4.75453 75.1559 4.72606 72.8518 7.14403 71.4579L44.9213 49.4971C47.3392 48.1032 51.2934 48.1032 53.7114 49.4971L91.7446 71.4579Z" fill="#0A2340"/>
<path d="M245.1 128.665V191.617L186.358 225.782V162.829L245.1 128.665Z" fill="#18314F"/>
<path d="M186.358 162.829V225.782L100.961 176.37V113.417L186.358 162.829Z" fill="#0A1D33"/>
<path d="M245.1 128.665L186.358 162.829L100.961 113.417L159.732 79.2529L245.1 128.665Z" fill="#0A2340"/>
<path fill-rule="evenodd" clip-rule="evenodd" d="M241.488 122.093L151.795 79.4229L104.574 106.845V112.62L186.33 159.955L186.33 159.955L241.488 127.896L241.488 122.093Z" fill="url(#paint3_linear)"/>
<path d="M245.1 102.009V120.699L186.358 154.863V136.145L245.1 102.009Z" fill="#18314F"/>
<path d="M186.358 136.146V154.864L100.961 105.452V86.7344L186.358 136.146Z" fill="#0A1D33"/>
<path d="M103.208 104.144L103.578 91.2573L183.741 137.654L183.371 150.512L103.208 104.144Z" fill="#0A1D33"/>
<path d="M245.1 102.01L186.358 136.146L100.961 86.7342L159.732 52.5981L245.1 102.01Z" fill="#0A2340"/>
<path d="M188.036 137.397L244.048 105.025V119.646L188.036 152.019V137.397Z" fill="#0A2340"/>
<path d="M189.43 137.795L209.627 126.075V138.534L189.43 150.254V137.795Z" fill="#06121F"/>
<path d="M195.916 137.681L190.426 140.839V147.239L195.916 144.053V137.681Z" fill="#A337BF"/>
<path d="M202.345 133.983L196.855 137.141V143.541L202.345 140.355V133.983Z" fill="#A337BF"/>
<path d="M208.603 130.313L203.113 133.5V139.872L208.603 136.714V130.313Z" fill="#A337BF"/>
<path d="M225.814 129.376L227.065 128.664V115.949L225.814 116.688V129.376Z" fill="#06121F"/>
<path d="M223.282 130.855L224.534 130.116V117.428L223.282 118.139V130.855Z" fill="#06121F"/>
<path d="M220.75 132.306L222.002 131.595V118.879L220.75 119.619V132.306Z" fill="#06121F"/>
<path d="M218.218 133.785L219.47 133.045V120.358L218.218 121.069V133.785Z" fill="#06121F"/>
<path d="M215.687 135.235L216.938 134.524V121.809L215.687 122.52V135.235Z" fill="#06121F"/>
<path d="M213.126 136.715L214.378 135.975V123.259L213.126 123.999V136.715Z" fill="#06121F"/>
<path d="M210.595 138.166L211.846 137.454V124.739L210.595 125.45V138.166Z" fill="#06121F"/>
<path fill-rule="evenodd" clip-rule="evenodd" d="M241.488 96.008L151.795 53.3379L104.574 80.7606L186.33 128.067L186.33 128.068L186.33 128.068L104.574 80.7609V86.5355L186.33 133.871L186.33 133.871L241.488 101.811L241.488 96.008Z" fill="url(#paint4_linear)"/>
<path d="M245.1 75.8965V94.6144L186.358 128.779V110.061L245.1 75.8965Z" fill="#18314F"/>
<path d="M186.358 110.061V128.779L100.961 79.3669V60.6489L186.358 110.061Z" fill="#0A1D33"/>
<path d="M103.208 78.0587L103.578 65.1724L183.741 111.569L183.371 124.427L103.208 78.0587Z" fill="#0A1D33"/>
<path d="M245.1 75.8962L186.358 110.061L100.961 60.6487L159.732 26.5127L245.1 75.8962Z" fill="#0A2340"/>
<path d="M188.036 111.312L244.048 78.9399V93.5616L188.036 125.934V111.312Z" fill="#0A2340"/>
<path d="M189.43 111.711L209.627 99.9907V112.45L189.43 124.17V111.711Z" fill="#06121F"/>
<path d="M195.916 111.597L190.426 114.755V121.155L195.916 117.969V111.597Z" fill="#A337BF"/>
<path d="M202.345 107.899L196.855 111.056V117.457L202.345 114.271V107.899Z" fill="#A337BF"/>
<path d="M208.603 104.229L203.113 107.415V113.787L208.603 110.63V104.229Z" fill="#A337BF"/>
<path d="M225.814 103.291L227.065 102.579V89.8638L225.814 90.6033V103.291Z" fill="#06121F"/>
<path d="M223.282 104.77L224.534 104.03V91.3433L223.282 92.0544V104.77Z" fill="#06121F"/>
<path d="M220.75 106.221L222.002 105.51V92.7939L220.75 93.5335V106.221Z" fill="#06121F"/>
<path d="M218.218 107.7L219.47 106.96V94.2729L218.218 94.9841V107.7Z" fill="#06121F"/>
<path d="M215.687 109.15L216.938 108.439V95.7236L215.687 96.4348V109.15Z" fill="#06121F"/>
<path d="M213.126 110.631L214.378 109.891V97.1753L213.126 97.9149V110.631Z" fill="#06121F"/>
<path d="M210.595 112.081L211.846 111.369V98.6538L210.595 99.365V112.081Z" fill="#06121F"/>
<path fill-rule="evenodd" clip-rule="evenodd" d="M241.488 69.5236L151.795 26.8252L104.574 54.2478V60.051L186.33 107.358L241.488 75.2984L241.488 69.5236Z" fill="url(#paint5_linear)"/>
<path d="M245.1 49.4121V68.13L186.358 102.266V83.5482L245.1 49.4121Z" fill="#18314F"/>
<path d="M186.358 83.5482V102.266L100.961 52.8542V34.1362L186.358 83.5482Z" fill="#0A1D33"/>
<path d="M103.208 51.5455L103.578 38.6592L183.741 85.0558L183.371 97.9421L103.208 51.5455Z" fill="#0A1D33"/>
<path d="M245.1 49.412L186.358 83.5481L100.961 34.1361L159.732 0L245.1 49.412Z" fill="#0A2340"/>
<path d="M188.036 84.7995L244.048 52.4272V67.0488L188.036 99.4212V84.7995Z" fill="#0A2340"/>
<path d="M189.43 85.1976L209.627 73.4775V85.9656L189.43 97.6572V85.1976Z" fill="#06121F"/>
<path d="M195.916 85.084L190.426 88.2416V94.6421L195.916 91.4561V85.084Z" fill="#A337BF"/>
<path d="M202.345 81.3857L196.855 84.5433V90.9438L202.345 87.7863V81.3857Z" fill="#A337BF"/>
<path d="M208.603 77.7446L203.113 80.9022V87.3027L208.603 84.1167V77.7446Z" fill="#A337BF"/>
<path d="M225.814 76.8063L227.065 76.0668V63.3511L225.814 64.0906V76.8063Z" fill="#06121F"/>
<path d="M223.282 78.2574L224.534 77.5462V64.8306L223.282 65.5417V78.2574Z" fill="#06121F"/>
<path d="M220.75 79.7365L222.002 78.9969V66.2812L220.75 67.0208V79.7365Z" fill="#06121F"/>
<path d="M218.218 81.1871L219.47 80.4759V67.7603L218.218 68.4714V81.1871Z" fill="#06121F"/>
<path d="M215.687 82.6383L216.938 81.9271V69.2114L215.687 69.9511V82.6383Z" fill="#06121F"/>
<path d="M213.126 84.1178L214.378 83.3781V70.6909L213.126 71.4021V84.1178Z" fill="#06121F"/>
<path d="M210.595 85.5685L211.846 84.8573V72.1416L210.595 72.8812V85.5685Z" fill="#06121F"/>
<path d="M144.965 179.368L65.3422 133.114C63.1803 131.862 61.3881 132.858 61.3881 135.361L61.0752 192.539C61.0752 195.014 62.8389 198.086 65.0009 199.366L144.623 245.621C146.814 246.901 148.577 245.877 148.577 243.373L148.862 186.195C148.919 183.72 147.155 180.648 144.965 179.368Z" fill="#0A2340"/>
<path d="M72.1125 203.519H69.8367V206.648H72.1125V203.519Z" fill="#06121F"/>
<path d="M145.391 247.441H143.286V249.773L64.1475 203.804C61.9855 202.523 58.4581 202.523 56.2962 203.775L0.0285645 232.649V237.712C0.0854579 238.509 0.625966 239.277 1.65005 239.874L81.2724 286.128C83.4628 287.38 86.9902 287.38 89.1237 286.157L143.798 254.609C144.822 254.012 145.363 253.244 145.42 252.447V247.441H145.391Z" fill="#18314F"/>
<path d="M143.77 249.688L89.0951 281.264C86.9616 282.487 83.4058 282.487 81.2439 281.236L1.62146 234.981C-0.540487 233.73 -0.540487 231.682 1.62146 230.43L56.2677 198.882C58.4296 197.602 61.9569 197.631 64.1189 198.911L72.1125 203.548L70.6047 204.401L128.408 237.769L129.745 237.001L143.741 245.137C145.932 246.389 145.932 248.437 143.77 249.688Z" fill="#0A2340"/>
<path d="M64.2042 131.919C64.5456 131.691 64.9439 131.492 65.3137 131.265C66.0248 130.838 67.0204 130.923 68.1299 131.549L147.752 177.804C149.914 179.084 151.678 182.127 151.649 184.602L151.365 241.78C151.365 243.032 150.91 243.914 150.199 244.312C149.26 244.852 148.321 245.393 147.382 245.933C148.094 245.535 148.52 244.653 148.52 243.402L148.805 186.224C148.833 183.749 147.07 180.648 144.879 179.397L65.2852 133.171C64.1758 132.516 63.1802 132.459 62.469 132.886C62.6397 132.801 63.8059 132.147 64.2042 131.919Z" fill="#18314F"/>
<path d="M135.52 247.527C135.207 248.38 134.411 249.233 133.187 249.945L105.253 266.159C102.237 267.895 97.6576 268.094 95.0405 266.586L24.3504 225.822C24.3219 225.793 24.2935 225.793 24.265 225.765C23.497 225.31 22.9849 224.741 22.7574 224.143C22.2169 222.75 23.0133 221.157 25.0899 219.933L53.0246 203.69C56.04 201.955 60.6199 201.756 63.237 203.264L133.927 244.028C134.638 244.454 135.15 244.938 135.406 245.507C135.748 246.161 135.776 246.844 135.52 247.527Z" fill="#0A1D33"/>
<path d="M135.52 247.526C135.207 248.38 134.411 249.233 133.188 249.944L105.253 266.159C102.238 267.894 97.6578 268.093 95.0407 266.586L24.3506 225.822C24.3221 225.793 24.2937 225.793 24.2652 225.765C23.4972 225.31 22.9851 224.741 22.7576 224.143C23.0705 223.29 23.8669 222.408 25.0901 221.697L53.0248 205.482C56.0402 203.747 60.6201 203.548 63.2372 205.056L133.927 245.82C134.638 246.246 135.151 246.73 135.407 247.27C135.463 247.356 135.492 247.47 135.52 247.526Z" fill="#0A2340"/>
<path d="M63.1518 214.472L57.6047 217.658L63.3225 221.015L68.8411 217.829L63.1518 214.472Z" fill="#06121F"/>
<path d="M54.3334 217.174L48.8147 220.36L54.504 223.689L60.0511 220.503L54.3334 217.174Z" fill="#06121F"/>
<path d="M46.3684 212.964L39.9964 216.634L36.2982 218.739L34.4492 219.792L44.0927 225.424L49.6114 222.266L46.6529 220.531L53.0534 216.833L46.3684 212.964Z" fill="#06121F"/>
<path d="M60.7624 220.929L55.2153 224.115L60.9331 227.444L66.4517 224.258L60.7624 220.929Z" fill="#06121F"/>
<path d="M33.1691 220.531L27.6504 223.717L39.4273 230.601L44.9459 227.415L33.1691 220.531Z" fill="#06121F"/>
<path d="M45.515 227.756L39.9963 230.914L48.9002 236.12L54.4472 232.934L45.515 227.756Z" fill="#06121F"/>
<path d="M63.1236 230.146L57.5764 233.333L63.2942 236.661L68.8129 233.475L63.1236 230.146Z" fill="#06121F"/>
<path d="M60.2789 204.971L54.7603 208.157L60.478 211.485L65.9967 208.299L60.2789 204.971Z" fill="#06121F"/>
<path d="M67.0775 208.924L61.5588 212.11L67.2482 215.439L72.7953 212.281L67.0775 208.924Z" fill="#06121F"/>
<path d="M53.5084 208.868L47.9897 212.026L56.8082 217.203L62.3553 214.017L53.5084 208.868Z" fill="#06121F"/>
<path d="M73.8762 212.908L68.3291 216.065L74.0469 219.422L79.5656 216.236L73.8762 212.908Z" fill="#06121F"/>
<path d="M80.675 216.89L75.1279 220.048L80.8457 223.376L86.3643 220.218L80.675 216.89Z" fill="#06121F"/>
<path d="M69.6376 218.284L64.1189 221.442L69.8367 224.798L75.3269 221.612L69.6376 218.284Z" fill="#06121F"/>
<path d="M87.4739 220.844L81.9268 224.002L87.6446 227.359L93.1632 224.173L87.4739 220.844Z" fill="#06121F"/>
<path d="M76.1521 222.067L70.605 225.253L76.3228 228.582L81.8415 225.396L76.1521 222.067Z" fill="#06121F"/>
<path d="M50.3507 222.665L44.832 225.851L50.5214 229.207L56.04 226.021L50.3507 222.665Z" fill="#06121F"/>
<path d="M94.2726 224.798L88.7256 227.984L94.4433 231.341L99.9905 228.155L94.2726 224.798Z" fill="#06121F"/>
<path d="M67.1914 224.685L61.6443 227.842L67.3621 231.199L72.8808 228.013L67.1914 224.685Z" fill="#06121F"/>
<path d="M82.6378 225.851L77.1191 229.037L82.8085 232.365L88.3556 229.208L82.6378 225.851Z" fill="#06121F"/>
<path d="M56.7799 226.448L51.2612 229.606L56.9506 232.934L62.4977 229.777L56.7799 226.448Z" fill="#06121F"/>
<path d="M73.5919 228.411L68.0732 231.597L73.7626 234.925L79.3097 231.767L73.5919 228.411Z" fill="#06121F"/>
<path d="M101.043 228.781L95.5242 231.967L101.242 235.296L106.761 232.11L101.043 228.781Z" fill="#06121F"/>
<path d="M89.1521 229.663L83.605 232.82L89.3228 236.148L94.8415 232.991L89.1521 229.663Z" fill="#06121F"/>
<path d="M80.0209 232.166L74.5022 235.352L80.1915 238.68L85.7386 235.494L80.0209 232.166Z" fill="#06121F"/>
<path d="M107.842 232.764L102.323 235.921L108.041 239.25L113.559 236.092L107.842 232.764Z" fill="#06121F"/>
<path d="M95.638 233.446L90.0908 236.603L95.8086 239.96L101.356 236.774L95.638 233.446Z" fill="#06121F"/>
<path d="M69.7516 234.015L64.2329 237.201L69.9507 240.529L75.4694 237.343L69.7516 234.015Z" fill="#06121F"/>
<path d="M86.4498 235.921L80.9312 239.107L86.6205 242.435L92.1676 239.249L86.4498 235.921Z" fill="#06121F"/>
<path d="M114.64 236.717L109.122 239.903L114.811 243.232L120.358 240.046L114.64 236.717Z" fill="#06121F"/>
<path d="M102.124 237.258L96.5767 240.416L102.323 243.773L107.842 240.587L102.124 237.258Z" fill="#06121F"/>
<path d="M76.1235 237.742L70.5764 240.899L76.2941 244.228L81.8128 241.07L76.1235 237.742Z" fill="#06121F"/>
<path d="M92.8787 239.676L87.3315 242.862L93.0494 246.19L98.5965 243.032L92.8787 239.676Z" fill="#06121F"/>
<path d="M82.524 241.468L77.0054 244.654L82.7232 247.983L88.2419 244.825L82.524 241.468Z" fill="#06121F"/>
<path d="M124.028 242.208L118.481 245.366L124.199 248.722L129.717 245.536L124.028 242.208Z" fill="#06121F"/>
<path d="M99.2792 243.431L93.7605 246.617L99.4783 249.945L104.997 246.759L99.2792 243.431Z" fill="#06121F"/>
<path d="M55.0162 233.275L49.4976 236.461L74.5591 251.111L80.0778 247.925L55.0162 233.275Z" fill="#06121F"/>
<path d="M88.8678 245.194L83.3491 248.352L89.0669 251.709L94.5856 248.523L88.8678 245.194Z" fill="#06121F"/>
<path d="M108.923 241.212L103.375 244.37L117.428 252.591L122.975 249.433L108.923 241.212Z" fill="#06121F"/>
<path d="M105.737 247.186L100.189 250.372L110.658 256.488L116.205 253.302L105.737 247.186Z" fill="#06121F"/>
<path d="M80.9027 248.409L75.384 251.595L84.2879 256.801L89.8349 253.615L80.9027 248.409Z" fill="#06121F"/>
<path d="M95.3535 248.978L89.8633 252.164L103.916 260.357L109.435 257.199L95.3535 248.978Z" fill="#06121F"/>
<path d="M90.5461 254.041L84.999 257.227L97.1173 264.282L102.636 261.096L90.5461 254.041Z" fill="#06121F"/>
<path d="M63.3225 253.87C63.0664 254.411 62.526 254.923 61.7579 255.378L56.8082 258.336C54.6463 259.588 51.4034 259.702 49.5259 258.649L36.6679 251.225C36.1843 250.94 35.843 250.599 35.6439 250.229C35.0749 249.205 35.6154 247.925 37.2084 247.015L42.1581 244.056C44.3201 242.804 47.5631 242.691 49.4405 243.772L62.2984 251.168C63.4932 251.85 63.8061 252.875 63.3225 253.87Z" fill="#0A1D33"/>
<path d="M63.3224 253.87C63.0664 254.411 62.5259 254.923 61.7579 255.378L56.8082 258.336C54.6462 259.588 51.4033 259.702 49.5258 258.649L36.6678 251.225C36.1842 250.94 35.8429 250.599 35.6438 250.229C35.8998 249.689 36.4403 249.148 37.2083 248.721L42.158 245.763C44.32 244.511 47.563 244.369 49.4405 245.478L62.2983 252.875C62.7819 253.159 63.1233 253.5 63.3224 253.87Z" fill="#06121F"/>
<path d="M105.338 160.963C105.338 162.016 105.992 163.267 106.789 163.722C107.585 164.178 108.24 163.694 108.24 162.641C108.24 161.589 107.585 160.337 106.789 159.882C105.992 159.427 105.338 159.911 105.338 160.963Z" fill="#1B1823"/>
<path d="M65.3423 194.559L143.485 240.5V187.277L65.3423 141.307V194.559Z" fill="url(#paint6_linear)"/>
<path fill-rule="evenodd" clip-rule="evenodd" d="M66.6793 193.819V142.075L65.3423 141.307V194.559V194.559L143.485 240.5V240.5V238.993V238.992L66.6793 193.819Z" fill="#06121F"/>
<defs>
<linearGradient id="paint0_linear" x1="9.3631" y1="86.4523" x2="89.7411" y2="87.2708" gradientUnits="userSpaceOnUse">
<stop stop-color="#0BB3EE"/>
<stop offset="1" stop-color="#A437BF"/>
</linearGradient>
<linearGradient id="paint1_linear" x1="9.3631" y1="61.1638" x2="89.741" y2="61.9822" gradientUnits="userSpaceOnUse">
<stop stop-color="#0BB3EE"/>
<stop offset="1" stop-color="#A437BF"/>
</linearGradient>
<linearGradient id="paint2_linear" x1="5.32442" y1="77.036" x2="7.18681" y2="77.036" gradientUnits="userSpaceOnUse">
<stop offset="0.00510204" stop-color="#E4E9F2"/>
<stop offset="1" stop-color="#B4C2DA"/>
</linearGradient>
<linearGradient id="paint3_linear" x1="104.477" y1="87.042" x2="241.878" y2="89.0143" gradientUnits="userSpaceOnUse">
<stop stop-color="#0BB3EE"/>
<stop offset="1" stop-color="#A437BF"/>
</linearGradient>
<linearGradient id="paint4_linear" x1="104.477" y1="60.9571" x2="241.878" y2="62.9294" gradientUnits="userSpaceOnUse">
<stop stop-color="#0BB3EE"/>
<stop offset="1" stop-color="#A437BF"/>
</linearGradient>
<linearGradient id="paint5_linear" x1="104.477" y1="34.4443" x2="241.878" y2="36.4167" gradientUnits="userSpaceOnUse">
<stop stop-color="#0BB3EE"/>
<stop offset="1" stop-color="#A437BF"/>
</linearGradient>
<linearGradient id="paint6_linear" x1="122.916" y1="183.736" x2="62.1662" y2="207.291" gradientUnits="userSpaceOnUse">
<stop stop-color="#0BB3EE"/>
<stop offset="1" stop-color="#8DE1FF"/>
</linearGradient>
</defs>
</svg>
