<svg width="369" height="307" viewBox="0 0 369 307" fill="none" xmlns="http://www.w3.org/2000/svg">
<path opacity="0.15" fill-rule="evenodd" clip-rule="evenodd" d="M288.11 263.285C228.43 297.724 131.32 297.552 71.2955 262.882C11.213 228.213 10.9255 172.155 70.6056 137.715C130.286 103.276 227.395 103.448 287.42 138.118C347.445 172.787 347.79 228.788 288.11 263.285Z" fill="url(#paint0_radial)"/>
<path d="M55.3231 127.612L55.3515 124.056C55.3515 124.994 55.9489 125.905 57.1721 126.616L57.1436 130.172C55.9204 129.461 55.3231 128.55 55.3231 127.612Z" fill="#18314F"/>
<path d="M103.995 148.576L103.967 152.132C101.549 153.526 97.5949 153.526 95.1769 152.132L95.2053 148.576C97.6517 149.97 101.606 149.97 103.995 148.576Z" fill="#18314F"/>
<path fill-rule="evenodd" clip-rule="evenodd" d="M57.2006 126.616C55.9774 125.905 55.38 124.994 55.38 124.056L55.3516 127.612C55.3516 128.55 55.9489 129.461 57.1721 130.172L95.1771 152.116L95.1769 152.132C97.5949 153.526 101.549 153.526 103.967 152.132L103.995 148.576C101.615 149.965 97.6822 149.97 95.2337 148.592L95.2338 148.577L57.2006 126.616ZM141.773 126.616L103.995 148.577L103.967 152.133L141.744 130.172C142.939 129.489 143.536 128.55 143.536 127.64L143.563 124.246C143.566 124.192 143.566 124.138 143.565 124.084L143.563 124.246C143.523 125.127 142.926 125.972 141.773 126.616Z" fill="#18314F"/>
<path d="M141.745 121.524C144.163 122.918 144.191 125.222 141.773 126.616L103.996 148.577C101.578 149.971 97.6238 149.971 95.2059 148.577L57.1726 126.616C54.7547 125.222 54.7262 122.918 57.1442 121.524L94.9214 99.563C97.3393 98.1691 101.294 98.1691 103.711 99.563L141.745 121.524Z" fill="#18314F"/>
<path fill-rule="evenodd" clip-rule="evenodd" d="M139.468 103.747C139.657 102.788 139.113 101.782 137.847 101.043L103.37 81.13C101.151 79.8499 97.5668 79.8499 95.3764 81.13L61.0982 101.043C58.9078 102.294 58.9363 104.371 61.1266 105.651L95.6324 125.564C97.8228 126.844 101.407 126.844 103.598 125.564L137.876 105.651C138.04 105.557 138.192 105.458 138.332 105.356C138.185 105.467 138.023 105.575 137.847 105.679L103.569 125.592L103.569 125.608C101.376 126.843 97.7846 126.838 95.632 125.592L95.6036 145.618C97.794 146.898 101.378 146.898 103.569 145.618L103.569 145.602L137.819 125.706C138.9 125.08 139.44 124.255 139.44 123.401L139.468 103.747ZM61.0978 105.679C59.9884 105.054 59.4479 104.2 59.4479 103.347L59.4194 123.373C59.4194 124.227 59.9599 125.051 61.0693 125.706L95.5752 145.618L95.6036 125.592L61.0978 105.679Z" fill="url(#paint1_linear)"/>
<path d="M55.3231 102.322L55.3515 98.7666C55.3515 99.7053 55.9489 100.616 57.1721 101.327L57.1436 104.883C55.9204 104.2 55.3231 103.261 55.3231 102.322Z" fill="#18314F"/>
<path d="M103.995 123.288L103.967 126.844C101.549 128.238 97.5949 128.238 95.1769 126.844L95.2053 123.288C97.6517 124.71 101.606 124.71 103.995 123.288Z" fill="#18314F"/>
<path fill-rule="evenodd" clip-rule="evenodd" d="M57.2006 101.355C55.9774 100.644 55.38 99.7052 55.38 98.7949L55.3516 102.351C55.3516 103.29 55.9489 104.2 57.1721 104.911L95.2053 126.872L95.2054 126.86C97.6259 128.237 101.558 128.232 103.967 126.843L103.995 123.287C101.606 124.71 97.6517 124.71 95.2053 123.287L95.2052 123.299L57.2006 101.355ZM141.773 101.355L103.995 123.316L103.967 126.872L141.744 104.911C142.939 104.228 143.536 103.289 143.536 102.379L143.564 98.9791C143.566 98.9271 143.566 98.8752 143.565 98.8232L143.564 98.9791C143.523 99.8368 142.926 100.684 141.773 101.355Z" fill="#18314F"/>
<path d="M141.745 96.2631C144.163 97.657 144.191 99.9611 141.773 101.355L103.996 123.316C101.578 124.71 97.6238 124.71 95.2059 123.316L57.1726 101.355C54.7547 99.9611 54.7262 97.657 57.1442 96.2631L94.9214 74.3023C97.3393 72.9084 101.294 72.9084 103.711 74.3023L141.745 96.2631Z" fill="#18314F"/>
<path fill-rule="evenodd" clip-rule="evenodd" d="M139.468 78.4578C139.657 77.499 139.113 76.4933 137.847 75.7536L103.37 55.8409C101.151 54.5608 97.5668 54.5608 95.3764 55.8409L61.0982 75.7536C58.9078 77.0053 58.9363 79.0819 61.1266 80.362L95.6324 100.275C97.8228 101.555 101.407 101.555 103.598 100.275L137.876 80.362C138.293 80.1238 138.629 79.8557 138.886 79.5689C138.626 79.8671 138.28 80.1459 137.847 80.3901L103.569 100.303L103.569 100.32C101.376 101.584 97.7846 101.578 95.632 100.304L95.6036 120.33C97.794 121.61 101.378 121.61 103.569 120.33L103.569 120.313L137.819 100.417C138.9 99.7908 139.44 98.9658 139.44 98.1124L139.468 78.4578ZM61.0978 80.3903C59.9884 79.736 59.4479 78.911 59.4479 78.0576L59.4194 98.0841C59.4194 98.9375 59.9599 99.7625 61.0693 100.417L95.5752 120.329L95.6036 100.303L61.0978 80.3903Z" fill="url(#paint2_linear)"/>
<path d="M55.3231 77.5178L55.3515 73.9619C55.3515 74.9007 55.9489 75.811 57.1721 76.5222L57.1436 80.078C55.9204 79.3953 55.3231 78.4565 55.3231 77.5178Z" fill="url(#paint3_linear)"/>
<path fill-rule="evenodd" clip-rule="evenodd" d="M55.38 73.9902C55.38 74.9005 55.9774 75.8393 57.2006 76.5504L95.2052 98.4948L95.2053 98.4824C97.6517 99.9048 101.606 99.9048 103.995 98.4824L103.967 102.038C101.558 103.427 97.6259 103.432 95.2054 102.055L95.2053 102.067L57.1721 80.1063C55.9489 79.3951 55.3516 78.4848 55.3516 77.5461L55.38 73.9902ZM103.995 98.5116L141.773 76.5508C142.926 75.8802 143.523 75.0326 143.564 74.1749L143.536 77.5749C143.536 78.4852 142.939 79.4239 141.744 80.1066L103.967 102.067L103.995 98.5116ZM143.565 74.019L143.564 74.1749C143.566 74.1229 143.566 74.071 143.565 74.019Z" fill="#18314F"/>
<path d="M141.745 71.4584C144.163 72.8523 144.191 75.1564 141.773 76.5503L103.996 98.5112C101.578 99.9051 97.6238 99.9051 95.2059 98.5112L57.1726 76.5503C54.7547 75.1564 54.7262 72.8523 57.1442 71.4584L94.9214 49.4976C97.3393 48.1037 101.294 48.1037 103.711 49.4976L141.745 71.4584Z" fill="#0A2340"/>
<path d="M295.1 128.664V191.617L236.358 225.781V162.829L295.1 128.664Z" fill="#18314F"/>
<path d="M236.358 162.829V225.781L150.961 176.369V113.417L236.358 162.829Z" fill="#0A1D33"/>
<path d="M295.1 128.665L236.358 162.829L150.961 113.417L209.732 79.2529L295.1 128.665Z" fill="#0A2340"/>
<path fill-rule="evenodd" clip-rule="evenodd" d="M291.488 122.093L291.488 127.896L236.329 159.955L236.33 159.956L154.574 112.62V106.846L236.33 154.153L236.33 154.152L236.329 154.152L154.574 106.845L201.795 79.4229L291.488 122.093Z" fill="url(#paint4_linear)"/>
<path d="M295.1 102.01V120.699L236.358 154.864V136.146L295.1 102.01Z" fill="#18314F"/>
<path d="M236.358 136.146V154.864L150.961 105.452V86.7344L236.358 136.146Z" fill="#0A1D33"/>
<path d="M153.208 104.143L153.578 91.2568L233.741 137.653L233.371 150.511L153.208 104.143Z" fill="#0A1D33"/>
<path d="M295.1 102.01L236.358 136.146L150.961 86.7337L209.732 52.5977L295.1 102.01Z" fill="#0A2340"/>
<path d="M238.036 137.398L294.048 105.025V119.647L238.036 152.019V137.398Z" fill="#0A2340"/>
<path d="M239.43 137.795L259.627 126.075V138.535L239.43 150.255V137.795Z" fill="#06121F"/>
<path d="M245.916 137.682L240.426 140.839V147.24L245.916 144.054V137.682Z" fill="#A337BF"/>
<path d="M252.345 133.983L246.855 137.141V143.542L252.345 140.356V133.983Z" fill="#A337BF"/>
<path d="M258.603 130.313L253.113 133.5V139.872L258.603 136.714V130.313Z" fill="#A337BF"/>
<path d="M275.814 129.375L277.065 128.664V115.948L275.814 116.688V129.375Z" fill="#06121F"/>
<path d="M273.282 130.855L274.533 130.115V117.428L273.282 118.139V130.855Z" fill="#06121F"/>
<path d="M270.75 132.306L272.002 131.595V118.879L270.75 119.619V132.306Z" fill="#06121F"/>
<path d="M268.218 133.785L269.47 133.046V120.358L268.218 121.07V133.785Z" fill="#06121F"/>
<path d="M265.687 135.235L266.938 134.524V121.809L265.687 122.52V135.235Z" fill="#06121F"/>
<path d="M263.126 136.715L264.378 135.975V123.26L263.126 123.999V136.715Z" fill="#06121F"/>
<path d="M260.595 138.166L261.846 137.455V124.739L260.595 125.45V138.166Z" fill="#06121F"/>
<path fill-rule="evenodd" clip-rule="evenodd" d="M291.488 96.008L291.488 101.811L236.329 133.87L236.33 133.871L154.574 86.5354V80.7607L236.33 128.068L236.33 128.067L236.329 128.067L154.574 80.7606L201.795 53.3379L291.488 96.008Z" fill="url(#paint5_linear)"/>
<path d="M295.1 75.8965V94.6144L236.358 128.779V110.061L295.1 75.8965Z" fill="#18314F"/>
<path d="M236.358 110.06V128.778L150.961 79.3664V60.6484L236.358 110.06Z" fill="#0A1D33"/>
<path d="M153.208 78.0582L153.578 65.1719L233.741 111.568L233.371 124.426L153.208 78.0582Z" fill="#0A1D33"/>
<path d="M295.1 75.8962L236.358 110.061L150.961 60.6487L209.732 26.5127L295.1 75.8962Z" fill="#0A2340"/>
<path d="M238.036 111.312L294.048 78.9395V93.5611L238.036 125.933V111.312Z" fill="#0A2340"/>
<path d="M239.43 111.71L259.627 99.9902V112.45L239.43 124.17V111.71Z" fill="#06121F"/>
<path d="M245.916 111.597L240.426 114.754V121.155L245.916 117.969V111.597Z" fill="#A337BF"/>
<path d="M252.345 107.898L246.855 111.056V117.456L252.345 114.27V107.898Z" fill="#A337BF"/>
<path d="M258.603 104.229L253.113 107.415V113.787L258.603 110.629V104.229Z" fill="#A337BF"/>
<path d="M275.814 103.29L277.065 102.579V89.8633L275.814 90.6028V103.29Z" fill="#06121F"/>
<path d="M273.282 104.77L274.533 104.03V91.3428L273.282 92.0539V104.77Z" fill="#06121F"/>
<path d="M270.75 106.22L272.002 105.509V92.793L270.75 93.5325V106.22Z" fill="#06121F"/>
<path d="M268.218 107.699L269.47 106.96V94.2725L268.218 94.9836V107.699Z" fill="#06121F"/>
<path d="M265.687 109.15L266.938 108.439V95.7236L265.687 96.4348V109.15Z" fill="#06121F"/>
<path d="M263.126 110.63L264.378 109.89V97.1748L263.126 97.9144V110.63Z" fill="#06121F"/>
<path d="M260.595 112.08L261.846 111.369V98.6533L260.595 99.3645V112.08Z" fill="#06121F"/>
<path fill-rule="evenodd" clip-rule="evenodd" d="M236.33 101.583L154.574 54.2478L201.795 26.8252L291.488 69.5236L291.488 75.2981L236.329 107.358L236.33 107.358L154.574 60.0512V54.248L236.33 101.583L236.33 101.583Z" fill="url(#paint6_linear)"/>
<path d="M295.1 49.4121V68.13L236.358 102.266V83.5482L295.1 49.4121Z" fill="#18314F"/>
<path d="M236.358 83.5477V102.266L150.961 52.8537V34.1357L236.358 83.5477Z" fill="#0A1D33"/>
<path d="M153.208 51.5455L153.578 38.6592L233.741 85.0558L233.371 97.9421L153.208 51.5455Z" fill="#0A1D33"/>
<path d="M295.1 49.412L236.358 83.5481L150.961 34.1361L209.732 0L295.1 49.412Z" fill="#0A2340"/>
<path d="M238.036 84.799L294.048 52.4268V67.0483L238.036 99.4207V84.799Z" fill="#0A2340"/>
<path d="M239.43 85.1976L259.627 73.4775V85.9656L239.43 97.6572V85.1976Z" fill="#06121F"/>
<path d="M245.916 85.084L240.426 88.2416V94.6421L245.916 91.4561V85.084Z" fill="#A337BF"/>
<path d="M252.345 81.3857L246.855 84.5433V90.9438L252.345 87.7863V81.3857Z" fill="#A337BF"/>
<path d="M258.603 77.7441L253.113 80.9017V87.3022L258.603 84.1162V77.7441Z" fill="#A337BF"/>
<path d="M275.814 76.8058L277.065 76.0663V63.3506L275.814 64.0901V76.8058Z" fill="#06121F"/>
<path d="M273.282 78.2569L274.533 77.5458V64.8301L273.282 65.5412V78.2569Z" fill="#06121F"/>
<path d="M270.75 79.7365L272.002 78.9969V66.2812L270.75 67.0208V79.7365Z" fill="#06121F"/>
<path d="M268.218 81.1866L269.47 80.4754V67.7598L268.218 68.4709V81.1866Z" fill="#06121F"/>
<path d="M265.687 82.6378L266.938 81.9266V69.2109L265.687 69.9506V82.6378Z" fill="#06121F"/>
<path d="M263.126 84.1173L264.378 83.3776V70.6904L263.126 71.4016V84.1173Z" fill="#06121F"/>
<path d="M260.595 85.5685L261.846 84.8573V72.1416L260.595 72.8812V85.5685Z" fill="#06121F"/>
<path d="M194.965 179.369L115.342 133.114C113.18 131.863 111.388 132.858 111.388 135.362L111.075 192.539C111.075 195.014 112.839 198.087 115.001 199.367L194.623 245.621C196.814 246.901 198.577 245.877 198.577 243.374L198.862 186.196C198.919 183.721 197.155 180.649 194.965 179.369Z" fill="#0A2340"/>
<path d="M122.113 203.52H119.837V206.649H122.113V203.52Z" fill="#06121F"/>
<path d="M195.391 247.441H193.286V249.773L114.147 203.804C111.986 202.523 108.458 202.523 106.296 203.775L50.0286 232.649V237.712C50.0855 238.509 50.626 239.277 51.65 239.874L131.272 286.128C133.463 287.38 136.99 287.38 139.124 286.157L193.798 254.609C194.822 254.012 195.363 253.244 195.42 252.447V247.441H195.391Z" fill="#18314F"/>
<path d="M193.77 249.688L139.095 281.264C136.962 282.487 133.406 282.487 131.244 281.236L51.6215 234.981C49.4596 233.73 49.4596 231.682 51.6215 230.43L106.268 198.882C108.43 197.602 111.957 197.631 114.119 198.911L122.113 203.548L120.605 204.401L178.409 237.769L179.746 237.001L193.741 245.137C195.932 246.389 195.932 248.437 193.77 249.688Z" fill="#0A2340"/>
<path d="M114.204 131.919C114.546 131.691 114.944 131.492 115.314 131.265C116.025 130.838 117.021 130.923 118.13 131.549L197.752 177.804C199.914 179.084 201.678 182.127 201.65 184.602L201.365 241.78C201.365 243.032 200.91 243.914 200.199 244.312C199.26 244.852 198.321 245.393 197.383 245.933C198.094 245.535 198.52 244.653 198.52 243.402L198.805 186.224C198.833 183.749 197.07 180.648 194.879 179.397L115.285 133.171C114.176 132.516 113.18 132.459 112.469 132.886C112.64 132.801 113.806 132.147 114.204 131.919Z" fill="#18314F"/>
<path d="M185.52 247.526C185.207 248.38 184.411 249.233 183.188 249.944L155.253 266.159C152.238 267.894 147.658 268.093 145.041 266.585L74.3506 225.821C74.3221 225.793 74.2937 225.793 74.2652 225.764C73.4972 225.309 72.9851 224.74 72.7576 224.143C72.2171 222.749 73.0135 221.156 75.0901 219.933L103.025 203.69C106.04 201.955 110.62 201.755 113.237 203.263L183.927 244.027C184.638 244.454 185.15 244.938 185.407 245.506C185.748 246.161 185.776 246.843 185.52 247.526Z" fill="#0A1D33"/>
<path d="M185.52 247.526C185.207 248.379 184.411 249.233 183.188 249.944L155.253 266.159C152.238 267.894 147.658 268.093 145.041 266.585L74.3506 225.821C74.3221 225.793 74.2937 225.793 74.2652 225.764C73.4972 225.309 72.9851 224.74 72.7576 224.143C73.0705 223.289 73.8669 222.408 75.0901 221.696L103.025 205.482C106.04 203.747 110.62 203.547 113.237 205.055L183.927 245.819C184.638 246.246 185.151 246.729 185.407 247.27C185.463 247.355 185.492 247.469 185.52 247.526Z" fill="#0A2340"/>
<path d="M113.152 214.472L107.605 217.658L113.322 221.014L118.841 217.828L113.152 214.472Z" fill="#06121F"/>
<path d="M104.333 217.175L98.8148 220.361L104.504 223.689L110.051 220.503L104.333 217.175Z" fill="#06121F"/>
<path d="M96.3683 212.964L89.9962 216.634L86.2981 218.739L84.4491 219.791L94.0926 225.424L99.6112 222.266L96.6528 220.531L103.053 216.833L96.3683 212.964Z" fill="#06121F"/>
<path d="M110.762 220.929L105.215 224.115L110.933 227.443L116.452 224.257L110.762 220.929Z" fill="#06121F"/>
<path d="M83.1691 220.531L77.6504 223.717L89.4273 230.601L94.9459 227.415L83.1691 220.531Z" fill="#06121F"/>
<path d="M95.5149 227.756L89.9963 230.913L98.9001 236.119L104.447 232.933L95.5149 227.756Z" fill="#06121F"/>
<path d="M113.123 230.146L107.576 233.333L113.294 236.661L118.813 233.475L113.123 230.146Z" fill="#06121F"/>
<path d="M110.279 204.971L104.76 208.157L110.478 211.485L115.997 208.299L110.279 204.971Z" fill="#06121F"/>
<path d="M117.078 208.924L111.559 212.11L117.248 215.438L122.795 212.281L117.078 208.924Z" fill="#06121F"/>
<path d="M103.508 208.868L97.9897 212.026L106.808 217.203L112.355 214.017L103.508 208.868Z" fill="#06121F"/>
<path d="M123.876 212.907L118.329 216.065L124.047 219.421L129.566 216.235L123.876 212.907Z" fill="#06121F"/>
<path d="M130.675 216.89L125.128 220.047L130.846 223.375L136.364 220.218L130.675 216.89Z" fill="#06121F"/>
<path d="M119.638 218.284L114.119 221.442L119.837 224.798L125.327 221.612L119.638 218.284Z" fill="#06121F"/>
<path d="M137.474 220.844L131.927 224.001L137.645 227.358L143.163 224.172L137.474 220.844Z" fill="#06121F"/>
<path d="M126.152 222.067L120.605 225.253L126.323 228.582L131.841 225.396L126.152 222.067Z" fill="#06121F"/>
<path d="M100.351 222.665L94.8322 225.851L100.521 229.208L106.04 226.022L100.351 222.665Z" fill="#06121F"/>
<path d="M144.273 224.798L138.726 227.984L144.443 231.341L149.99 228.155L144.273 224.798Z" fill="#06121F"/>
<path d="M117.191 224.685L111.644 227.842L117.362 231.199L122.881 228.013L117.191 224.685Z" fill="#06121F"/>
<path d="M132.638 225.851L127.119 229.037L132.809 232.365L138.356 229.207L132.638 225.851Z" fill="#06121F"/>
<path d="M106.78 226.448L101.261 229.606L106.951 232.934L112.498 229.777L106.78 226.448Z" fill="#06121F"/>
<path d="M123.592 228.411L118.073 231.597L123.762 234.925L129.31 231.768L123.592 228.411Z" fill="#06121F"/>
<path d="M151.043 228.781L145.524 231.967L151.242 235.296L156.761 232.11L151.043 228.781Z" fill="#06121F"/>
<path d="M139.152 229.662L133.605 232.82L139.323 236.148L144.842 232.99L139.152 229.662Z" fill="#06121F"/>
<path d="M130.021 232.166L124.502 235.352L130.191 238.68L135.739 235.494L130.021 232.166Z" fill="#06121F"/>
<path d="M157.842 232.764L152.323 235.921L158.041 239.25L163.559 236.092L157.842 232.764Z" fill="#06121F"/>
<path d="M145.638 233.445L140.091 236.603L145.809 239.96L151.356 236.774L145.638 233.445Z" fill="#06121F"/>
<path d="M119.752 234.015L114.233 237.201L119.951 240.529L125.469 237.343L119.752 234.015Z" fill="#06121F"/>
<path d="M136.45 235.921L130.931 239.107L136.62 242.435L142.168 239.249L136.45 235.921Z" fill="#06121F"/>
<path d="M164.64 236.717L159.122 239.903L164.811 243.231L170.358 240.045L164.64 236.717Z" fill="#06121F"/>
<path d="M152.124 237.258L146.577 240.415L152.323 243.772L157.842 240.586L152.124 237.258Z" fill="#06121F"/>
<path d="M126.124 237.741L120.576 240.899L126.294 244.227L131.813 241.07L126.124 237.741Z" fill="#06121F"/>
<path d="M142.879 239.676L137.332 242.862L143.049 246.19L148.597 243.032L142.879 239.676Z" fill="#06121F"/>
<path d="M132.524 241.468L127.005 244.654L132.723 247.982L138.242 244.825L132.524 241.468Z" fill="#06121F"/>
<path d="M174.028 242.208L168.481 245.366L174.199 248.722L179.717 245.536L174.028 242.208Z" fill="#06121F"/>
<path d="M149.279 243.431L143.761 246.617L149.478 249.945L154.997 246.759L149.279 243.431Z" fill="#06121F"/>
<path d="M105.016 233.275L99.4974 236.461L124.559 251.111L130.078 247.925L105.016 233.275Z" fill="#06121F"/>
<path d="M138.868 245.194L133.349 248.352L139.067 251.709L144.586 248.523L138.868 245.194Z" fill="#06121F"/>
<path d="M158.923 241.212L153.375 244.37L167.428 252.591L172.975 249.433L158.923 241.212Z" fill="#06121F"/>
<path d="M155.737 247.187L150.19 250.373L160.658 256.489L166.205 253.303L155.737 247.187Z" fill="#06121F"/>
<path d="M130.903 248.409L125.384 251.595L134.288 256.801L139.835 253.615L130.903 248.409Z" fill="#06121F"/>
<path d="M145.354 248.978L139.863 252.164L153.916 260.356L159.435 257.199L145.354 248.978Z" fill="#06121F"/>
<path d="M140.546 254.041L134.999 257.227L147.117 264.282L152.636 261.096L140.546 254.041Z" fill="#06121F"/>
<path d="M113.322 253.87C113.066 254.41 112.526 254.922 111.758 255.377L106.808 258.336C104.646 259.588 101.403 259.701 99.5259 258.649L86.6679 251.224C86.1843 250.94 85.843 250.598 85.6439 250.229C85.0749 249.204 85.6154 247.924 87.2084 247.014L92.1581 244.056C94.3201 242.804 97.5631 242.69 99.4405 243.771L112.298 251.167C113.493 251.85 113.806 252.874 113.322 253.87Z" fill="#0A1D33"/>
<path d="M113.323 253.87C113.066 254.41 112.526 254.922 111.758 255.377L106.808 258.336C104.646 259.588 101.403 259.701 99.5259 258.649L86.668 251.224C86.1844 250.94 85.843 250.598 85.6439 250.229C85.8999 249.688 86.4404 249.148 87.2085 248.721L92.1582 245.762C94.3201 244.511 97.5631 244.368 99.4406 245.478L112.298 252.874C112.782 253.159 113.123 253.5 113.323 253.87Z" fill="#06121F"/>
<path d="M155.338 160.963C155.338 162.016 155.993 163.267 156.789 163.722C157.586 164.178 158.24 163.694 158.24 162.641C158.24 161.589 157.586 160.337 156.789 159.882C155.993 159.427 155.338 159.911 155.338 160.963Z" fill="#1B1823"/>
<path d="M115.342 194.559L193.485 240.5V187.277L115.342 141.307V194.559Z" fill="url(#paint7_linear)"/>
<path fill-rule="evenodd" clip-rule="evenodd" d="M116.679 193.819V142.075L115.342 141.307V194.559V194.559L193.485 240.5V240.5V238.993V238.992L116.679 193.819Z" fill="#06121F"/>
<defs>
<radialGradient id="paint0_radial" cx="0" cy="0" r="1" gradientUnits="userSpaceOnUse" gradientTransform="translate(179.347 200.5) rotate(89.0274) scale(66.7243 115.586)">
<stop stop-color="#18EDFA"/>
<stop offset="1" stop-color="#18EDFA" stop-opacity="0"/>
</radialGradient>
<linearGradient id="paint1_linear" x1="59.3631" y1="86.4528" x2="139.741" y2="87.2712" gradientUnits="userSpaceOnUse">
<stop stop-color="#0BB3EE"/>
<stop offset="1" stop-color="#A437BF"/>
</linearGradient>
<linearGradient id="paint2_linear" x1="59.3631" y1="61.1638" x2="139.741" y2="61.9822" gradientUnits="userSpaceOnUse">
<stop stop-color="#0BB3EE"/>
<stop offset="1" stop-color="#A437BF"/>
</linearGradient>
<linearGradient id="paint3_linear" x1="55.3245" y1="77.0365" x2="57.1869" y2="77.0365" gradientUnits="userSpaceOnUse">
<stop offset="0.00510204" stop-color="#E4E9F2"/>
<stop offset="1" stop-color="#B4C2DA"/>
</linearGradient>
<linearGradient id="paint4_linear" x1="154.477" y1="87.042" x2="291.878" y2="89.0143" gradientUnits="userSpaceOnUse">
<stop stop-color="#0BB3EE"/>
<stop offset="1" stop-color="#A437BF"/>
</linearGradient>
<linearGradient id="paint5_linear" x1="154.477" y1="60.957" x2="291.878" y2="62.9294" gradientUnits="userSpaceOnUse">
<stop stop-color="#0BB3EE"/>
<stop offset="1" stop-color="#A437BF"/>
</linearGradient>
<linearGradient id="paint6_linear" x1="154.477" y1="34.4444" x2="291.878" y2="36.4167" gradientUnits="userSpaceOnUse">
<stop stop-color="#0BB3EE"/>
<stop offset="1" stop-color="#A437BF"/>
</linearGradient>
<linearGradient id="paint7_linear" x1="172.916" y1="183.736" x2="112.166" y2="207.291" gradientUnits="userSpaceOnUse">
<stop stop-color="#0BB3EE"/>
<stop offset="1" stop-color="#8DE1FF"/>
</linearGradient>
</defs>
</svg>
