<svg width="126" height="220" viewBox="0 0 126 220" fill="none" xmlns="http://www.w3.org/2000/svg">
<path d="M0 43.144L0.413376 190.618L50.9691 220L50.5557 72.5266L0 43.144Z" fill="#0A1D33"/>
<path d="M7.20537 144.551C7.20537 143.517 6.46706 142.247 5.58116 141.716C4.66572 141.184 3.95703 141.627 3.95703 142.661C3.95703 143.694 4.69525 144.964 5.58116 145.496C6.49659 146.027 7.20537 145.614 7.20537 144.551Z" fill="#081523"/>
<path d="M12.2551 147.474C12.2551 146.44 11.5169 145.141 10.631 144.639C9.71554 144.107 8.97729 144.55 8.97729 145.584C8.97729 146.618 9.71554 147.887 10.631 148.419C11.5169 148.921 12.2551 148.508 12.2551 147.474Z" fill="#081523"/>
<path d="M17.2752 150.368C17.2752 149.334 16.5369 148.065 15.651 147.533C14.7356 147.002 13.9973 147.444 13.9973 148.478C13.9973 149.512 14.7356 150.781 15.6215 151.313C16.537 151.844 17.2752 151.431 17.2752 150.368Z" fill="#081523"/>
<path d="M22.3247 153.291C22.3247 152.258 21.5865 150.988 20.7006 150.456C19.7851 149.925 19.0469 150.368 19.0469 151.401C19.0469 152.435 19.7851 153.705 20.671 154.236C21.5864 154.738 22.3247 154.325 22.3247 153.291Z" fill="#081523"/>
<path d="M27.345 156.185C27.345 155.152 26.6068 153.882 25.6914 153.35C24.7759 152.819 24.0671 153.262 24.0671 154.295C24.0671 155.329 24.8054 156.599 25.6914 157.13C26.6068 157.662 27.345 157.248 27.345 156.185Z" fill="#081523"/>
<path d="M32.3948 159.079C32.3948 158.045 31.6565 156.776 30.7706 156.244C29.8552 155.712 29.1169 156.155 29.1169 157.189C29.1169 158.223 29.8552 159.492 30.7706 160.024C31.6565 160.555 32.3948 160.142 32.3948 159.079Z" fill="#081523"/>
<path d="M37.4148 162.003C37.4148 160.969 36.6765 159.699 35.7611 159.168C34.8457 158.636 34.137 159.079 34.137 160.113C34.137 161.146 34.8752 162.416 35.7611 162.948C36.6765 163.479 37.4148 163.036 37.4148 162.003Z" fill="#081523"/>
<path d="M42.4644 164.897C42.4644 163.863 41.7262 162.593 40.8107 162.062C39.9248 161.53 39.1865 161.973 39.1865 163.007C39.1865 164.04 39.9248 165.31 40.8107 165.842C41.7262 166.373 42.4644 165.96 42.4644 164.897Z" fill="#081523"/>
<path d="M47.4846 167.82C47.4846 166.787 46.7464 165.517 45.8605 164.985C44.945 164.454 44.2363 164.897 44.2363 165.93C44.2363 166.964 44.9745 168.234 45.8605 168.765C46.7464 169.297 47.4846 168.854 47.4846 167.82Z" fill="#081523"/>
<path d="M7.20537 150.723C7.20537 149.689 6.46706 148.42 5.58116 147.888C4.66572 147.357 3.95703 147.799 3.95703 148.833C3.95703 149.896 4.69525 151.136 5.58116 151.668C6.49659 152.199 7.20537 151.786 7.20537 150.723Z" fill="#081523"/>
<path d="M12.2551 153.646C12.2551 152.613 11.5169 151.343 10.631 150.811C9.71554 150.28 8.97729 150.723 8.97729 151.756C8.97729 152.79 9.71554 154.06 10.631 154.591C11.5169 155.093 12.2551 154.68 12.2551 153.646Z" fill="#081523"/>
<path d="M17.2752 156.54C17.2752 155.507 16.5369 154.237 15.651 153.705C14.7355 153.174 14.0269 153.617 14.0269 154.65C14.0269 155.684 14.7651 156.954 15.651 157.485C16.5369 158.017 17.2752 157.574 17.2752 156.54Z" fill="#081523"/>
<path d="M22.3248 159.434C22.3248 158.4 21.5865 157.131 20.7006 156.599C19.7852 156.067 19.0764 156.51 19.0764 157.544C19.0764 158.578 19.8147 159.847 20.7006 160.379C21.5865 160.91 22.3248 160.497 22.3248 159.434Z" fill="#081523"/>
<path d="M27.345 162.358C27.345 161.324 26.6068 160.054 25.6914 159.523C24.7759 158.991 24.0671 159.434 24.0671 160.468C24.0671 161.531 24.8054 162.771 25.6914 163.303C26.6068 163.834 27.345 163.391 27.345 162.358Z" fill="#081523"/>
<path d="M32.3948 165.252C32.3948 164.218 31.6565 162.948 30.7706 162.417C29.8552 161.885 29.1169 162.328 29.1169 163.362C29.1169 164.395 29.8552 165.665 30.7706 166.197C31.6565 166.728 32.3948 166.315 32.3948 165.252Z" fill="#081523"/>
<path d="M37.4148 168.175C37.4148 167.142 36.6765 165.872 35.7611 165.34C34.8457 164.809 34.137 165.252 34.137 166.285C34.137 167.319 34.8752 168.589 35.7611 169.12C36.6765 169.622 37.4148 169.209 37.4148 168.175Z" fill="#081523"/>
<path d="M42.4644 171.069C42.4644 170.035 41.7262 168.765 40.8107 168.234C39.9248 167.702 39.1865 168.145 39.1865 169.179C39.1865 170.212 39.9248 171.482 40.8107 172.014C41.7262 172.545 42.4644 172.102 42.4644 171.069Z" fill="#081523"/>
<path d="M47.4846 173.992C47.4846 172.959 46.7464 171.689 45.8605 171.158C44.945 170.626 44.2363 171.069 44.2363 172.103C44.2363 173.136 44.9745 174.406 45.8605 174.937C46.7464 175.439 47.4846 175.026 47.4846 173.992Z" fill="#081523"/>
<path d="M7.20537 156.894C7.20537 155.86 6.46706 154.59 5.58116 154.059C4.66572 153.527 3.95703 153.97 3.95703 155.004C3.95703 156.037 4.69525 157.307 5.58116 157.839C6.49659 158.341 7.20537 157.927 7.20537 156.894Z" fill="#081523"/>
<path d="M12.2551 159.788C12.2551 158.754 11.5169 157.485 10.631 156.953C9.71554 156.421 8.97729 156.864 8.97729 157.898C8.97729 158.932 9.71554 160.201 10.631 160.733C11.5169 161.264 12.2551 160.851 12.2551 159.788Z" fill="#081523"/>
<path d="M17.2752 162.711C17.2752 161.678 16.5369 160.408 15.651 159.876C14.7355 159.345 14.0269 159.788 14.0269 160.821C14.0269 161.855 14.7651 163.125 15.651 163.656C16.5369 164.158 17.2752 163.745 17.2752 162.711Z" fill="#081523"/>
<path d="M22.3248 165.605C22.3248 164.572 21.5865 163.302 20.7006 162.77C19.7852 162.239 19.0764 162.682 19.0764 163.715C19.0764 164.749 19.8147 166.019 20.7006 166.55C21.5865 167.082 22.3248 166.668 22.3248 165.605Z" fill="#081523"/>
<path d="M27.345 168.529C27.345 167.495 26.6068 166.225 25.6914 165.694C24.7759 165.162 24.0671 165.605 24.0671 166.639C24.0671 167.672 24.8054 168.942 25.6914 169.474C26.6068 169.976 27.345 169.562 27.345 168.529Z" fill="#081523"/>
<path d="M32.3948 171.423C32.3948 170.389 31.6565 169.119 30.7706 168.588C29.8552 168.056 29.1169 168.499 29.1169 169.533C29.1169 170.566 29.8552 171.836 30.7706 172.368C31.6565 172.899 32.3948 172.456 32.3948 171.423Z" fill="#081523"/>
<path d="M37.4148 174.317C37.4148 173.283 36.6765 172.013 35.7611 171.482C34.8457 170.95 34.137 171.393 34.137 172.427C34.137 173.46 34.8752 174.73 35.7611 175.262C36.6765 175.793 37.4148 175.38 37.4148 174.317Z" fill="#081523"/>
<path d="M42.4644 177.24C42.4644 176.206 41.7262 174.937 40.8107 174.405C39.9248 173.874 39.1865 174.317 39.1865 175.35C39.1865 176.384 39.9248 177.653 40.8107 178.185C41.7262 178.717 42.4644 178.274 42.4644 177.24Z" fill="#081523"/>
<path d="M47.4846 180.135C47.4846 179.101 46.7464 177.831 45.8605 177.3C44.945 176.768 44.2363 177.211 44.2363 178.245C44.2363 179.278 44.9745 180.578 45.8605 181.08C46.7464 181.611 47.4846 181.198 47.4846 180.135Z" fill="#081523"/>
<path d="M7.20537 163.066C7.20537 162.033 6.46706 160.763 5.58116 160.231C4.66572 159.7 3.95703 160.143 3.95703 161.176C3.95703 162.21 4.69525 163.48 5.58116 164.011C6.49659 164.513 7.20537 164.1 7.20537 163.066Z" fill="#081523"/>
<path d="M12.2551 165.96C12.2551 164.927 11.5169 163.657 10.631 163.125C9.71554 162.594 8.97729 163.037 8.97729 164.07C8.97729 165.104 9.71554 166.374 10.631 166.905C11.5169 167.437 12.2551 166.994 12.2551 165.96Z" fill="#081523"/>
<path d="M17.2752 168.854C17.2752 167.821 16.5369 166.551 15.651 166.019C14.7355 165.488 14.0269 165.931 14.0269 166.964C14.0269 167.998 14.7651 169.268 15.651 169.799C16.5369 170.331 17.2752 169.917 17.2752 168.854Z" fill="#081523"/>
<path d="M22.3248 171.778C22.3248 170.744 21.5865 169.474 20.7006 168.943C19.7852 168.411 19.0764 168.854 19.0764 169.888C19.0764 170.921 19.8147 172.191 20.7006 172.723C21.5865 173.225 22.3248 172.811 22.3248 171.778Z" fill="#081523"/>
<path d="M27.345 174.672C27.345 173.638 26.6068 172.368 25.6914 171.837C24.7759 171.305 24.0671 171.748 24.0671 172.782C24.0671 173.845 24.8054 175.085 25.6914 175.617C26.6068 176.148 27.345 175.735 27.345 174.672Z" fill="#081523"/>
<path d="M32.3948 177.595C32.3948 176.561 31.6565 175.292 30.7706 174.76C29.8552 174.229 29.1169 174.672 29.1169 175.705C29.1169 176.739 29.8552 178.008 30.7706 178.54C31.6565 179.042 32.3948 178.629 32.3948 177.595Z" fill="#081523"/>
<path d="M37.4148 180.489C37.4148 179.455 36.6765 178.185 35.7611 177.654C34.8457 177.122 34.137 177.565 34.137 178.599C34.137 179.632 34.8752 180.902 35.7611 181.434C36.6765 181.965 37.4148 181.522 37.4148 180.489Z" fill="#081523"/>
<path d="M42.4644 183.412C42.4644 182.379 41.7262 181.109 40.8107 180.578C39.9248 180.046 39.1865 180.489 39.1865 181.522C39.1865 182.556 39.9248 183.826 40.8107 184.357C41.7262 184.859 42.4644 184.446 42.4644 183.412Z" fill="#081523"/>
<path d="M47.4846 186.307C47.4846 185.273 46.7464 184.004 45.8605 183.472C44.945 182.94 44.2363 183.383 44.2363 184.417C44.2363 185.451 44.9745 186.72 45.8605 187.252C46.7464 187.783 47.4846 187.34 47.4846 186.307Z" fill="#081523"/>
<path d="M7.20537 169.209C7.20537 168.175 6.46706 166.905 5.58116 166.374C4.66572 165.842 3.95703 166.285 3.95703 167.319C3.95703 168.352 4.69525 169.622 5.58116 170.154C6.49659 170.685 7.20537 170.272 7.20537 169.209Z" fill="#081523"/>
<path d="M12.2551 172.132C12.2551 171.099 11.5169 169.829 10.631 169.297C9.71554 168.766 8.97729 169.209 8.97729 170.242C8.97729 171.276 9.71554 172.546 10.631 173.077C11.5169 173.579 12.2551 173.166 12.2551 172.132Z" fill="#081523"/>
<path d="M17.2752 175.026C17.2752 173.992 16.5369 172.722 15.651 172.191C14.7355 171.659 14.0269 172.102 14.0269 173.136C14.0269 174.169 14.7651 175.439 15.651 175.971C16.5369 176.502 17.2752 176.059 17.2752 175.026Z" fill="#081523"/>
<path d="M22.3248 177.95C22.3248 176.916 21.5865 175.646 20.7006 175.115C19.7852 174.583 19.0764 175.026 19.0764 176.06C19.0764 177.093 19.8147 178.363 20.7006 178.894C21.5865 179.397 22.3248 178.983 22.3248 177.95Z" fill="#081523"/>
<path d="M27.345 180.844C27.345 179.81 26.6068 178.54 25.6914 178.009C24.7759 177.477 24.0671 177.92 24.0671 178.954C24.0671 179.987 24.8054 181.257 25.6914 181.789C26.6068 182.32 27.345 181.877 27.345 180.844Z" fill="#081523"/>
<path d="M32.3948 183.737C32.3948 182.704 31.6565 181.434 30.7706 180.902C29.8552 180.371 29.1169 180.814 29.1169 181.847C29.1169 182.881 29.8552 184.151 30.7706 184.682C31.6565 185.214 32.3948 184.8 32.3948 183.737Z" fill="#081523"/>
<path d="M37.4148 186.66C37.4148 185.627 36.6765 184.357 35.7611 183.826C34.8457 183.294 34.137 183.737 34.137 184.771C34.137 185.804 34.8752 187.074 35.7611 187.605C36.6765 188.137 37.4148 187.694 37.4148 186.66Z" fill="#081523"/>
<path d="M42.4644 189.555C42.4644 188.521 41.7262 187.251 40.8107 186.72C39.9248 186.188 39.1865 186.631 39.1865 187.665C39.1865 188.698 39.9248 189.968 40.8107 190.499C41.7262 191.031 42.4644 190.618 42.4644 189.555Z" fill="#081523"/>
<path d="M47.4846 192.478C47.4846 191.445 46.7464 190.175 45.8605 189.643C44.945 189.112 44.2363 189.555 44.2363 190.588C44.2363 191.622 44.9745 192.892 45.8605 193.423C46.7464 193.925 47.4846 193.512 47.4846 192.478Z" fill="#081523"/>
<path d="M7.20537 175.38C7.20537 174.346 6.46706 173.076 5.58116 172.545C4.66572 172.013 3.95703 172.456 3.95703 173.49C3.95703 174.523 4.69525 175.793 5.58116 176.325C6.49659 176.856 7.20537 176.413 7.20537 175.38Z" fill="#081523"/>
<path d="M12.2551 178.274C12.2551 177.24 11.5169 175.97 10.631 175.439C9.71554 174.907 8.97729 175.35 8.97729 176.384C8.97729 177.417 9.71554 178.687 10.631 179.219C11.5169 179.75 12.2551 179.337 12.2551 178.274Z" fill="#081523"/>
<path d="M17.2752 181.197C17.2752 180.164 16.5369 178.894 15.651 178.362C14.7355 177.831 14.0269 178.274 14.0269 179.307C14.0269 180.341 14.7651 181.61 15.651 182.142C16.5369 182.644 17.2752 182.231 17.2752 181.197Z" fill="#081523"/>
<path d="M22.3248 184.091C22.3248 183.058 21.5865 181.788 20.7006 181.256C19.7852 180.725 19.0764 181.168 19.0764 182.201C19.0764 183.235 19.8147 184.505 20.7006 185.036C21.5865 185.568 22.3248 185.154 22.3248 184.091Z" fill="#081523"/>
<path d="M27.345 187.014C27.345 185.981 26.6068 184.711 25.6914 184.18C24.7759 183.648 24.0671 184.091 24.0671 185.125C24.0671 186.158 24.8054 187.428 25.6914 187.959C26.6068 188.461 27.345 188.048 27.345 187.014Z" fill="#081523"/>
<path d="M32.3948 189.908C32.3948 188.875 31.6565 187.605 30.7706 187.074C29.8552 186.542 29.1169 186.985 29.1169 188.019C29.1169 189.052 29.8552 190.322 30.7706 190.853C31.6565 191.385 32.3948 190.972 32.3948 189.908Z" fill="#081523"/>
<path d="M37.4148 192.832C37.4148 191.798 36.6765 190.528 35.7611 189.997C34.8457 189.465 34.137 189.908 34.137 190.942C34.137 191.975 34.8752 193.245 35.7611 193.777C36.6765 194.279 37.4148 193.865 37.4148 192.832Z" fill="#081523"/>
<path d="M42.4644 195.726C42.4644 194.692 41.7262 193.393 40.8107 192.891C39.8953 192.359 39.1865 192.802 39.1865 193.836C39.1865 194.87 39.9248 196.139 40.8107 196.671C41.7262 197.202 42.4644 196.759 42.4644 195.726Z" fill="#081523"/>
<path d="M47.4846 198.62C47.4846 197.587 46.7464 196.317 45.8605 195.786C44.945 195.254 44.2363 195.697 44.2363 196.73C44.2363 197.764 44.9745 199.034 45.8605 199.565C46.7464 200.097 47.4846 199.684 47.4846 198.62Z" fill="#081523"/>
<path d="M7.20537 181.552C7.20537 180.518 6.46706 179.249 5.58116 178.717C4.66572 178.186 3.95703 178.629 3.95703 179.662C3.95703 180.696 4.69525 181.965 5.58116 182.497C6.49659 182.999 7.20537 182.586 7.20537 181.552Z" fill="#081523"/>
<path d="M12.2551 184.446C12.2551 183.413 11.5169 182.143 10.631 181.611C9.71554 181.08 8.97729 181.523 8.97729 182.556C8.97729 183.59 9.71554 184.86 10.631 185.391C11.5169 185.923 12.2551 185.509 12.2551 184.446Z" fill="#081523"/>
<path d="M17.2752 187.37C17.2752 186.336 16.5369 185.067 15.651 184.535C14.7355 184.003 14.0269 184.446 14.0269 185.48C14.0269 186.514 14.7651 187.813 15.651 188.315C16.5369 188.817 17.2752 188.403 17.2752 187.37Z" fill="#081523"/>
<path d="M22.3248 190.263C22.3248 189.23 21.5865 187.96 20.7006 187.429C19.7852 186.897 19.0764 187.34 19.0764 188.374C19.0764 189.407 19.8147 190.677 20.7006 191.208C21.5865 191.74 22.3248 191.297 22.3248 190.263Z" fill="#081523"/>
<path d="M27.345 193.157C27.345 192.123 26.6068 190.854 25.6914 190.322C24.7759 189.791 24.0671 190.234 24.0671 191.267C24.0671 192.301 24.8054 193.57 25.6914 194.102C26.6068 194.634 27.345 194.22 27.345 193.157Z" fill="#081523"/>
<path d="M32.3948 196.081C32.3948 195.047 31.6565 193.748 30.7706 193.246C29.8552 192.714 29.1169 193.157 29.1169 194.191C29.1169 195.224 29.8552 196.494 30.7706 197.026C31.6565 197.557 32.3948 197.114 32.3948 196.081Z" fill="#081523"/>
<path d="M37.4145 198.975C37.4145 197.941 36.6763 196.672 35.7904 196.14C34.8749 195.608 34.1663 196.051 34.1663 197.085C34.1663 198.119 34.9045 199.388 35.7904 199.92C36.6763 200.451 37.4145 200.038 37.4145 198.975Z" fill="#081523"/>
<path d="M42.4644 201.898C42.4644 200.865 41.7261 199.595 40.8402 199.063C39.9248 198.532 39.2161 198.975 39.2161 200.008C39.2161 201.042 39.9543 202.312 40.8402 202.843C41.7261 203.375 42.4644 202.932 42.4644 201.898Z" fill="#081523"/>
<path d="M47.4846 204.793C47.4846 203.759 46.7464 202.489 45.8605 201.958C44.945 201.426 44.2363 201.869 44.2363 202.903C44.2363 203.936 44.9745 205.206 45.8605 205.738C46.7464 206.269 47.4846 205.856 47.4846 204.793Z" fill="#081523"/>
<path d="M7.20537 187.724C7.20537 186.69 6.46706 185.421 5.58116 184.889C4.66572 184.357 3.95703 184.8 3.95703 185.834C3.95703 186.868 4.69525 188.137 5.58116 188.669C6.49659 189.171 7.20537 188.757 7.20537 187.724Z" fill="#081523"/>
<path d="M12.2551 190.618C12.2551 189.584 11.5169 188.315 10.631 187.783C9.71554 187.252 8.97729 187.694 8.97729 188.728C8.97729 189.762 9.71554 191.031 10.631 191.563C11.5169 192.094 12.2551 191.652 12.2551 190.618Z" fill="#081523"/>
<path d="M17.2752 193.512C17.2752 192.478 16.5369 191.209 15.651 190.677C14.7356 190.146 13.9973 190.589 13.9973 191.622C13.9973 192.656 14.7356 193.955 15.651 194.457C16.5369 194.989 17.2752 194.575 17.2752 193.512Z" fill="#081523"/>
<path d="M22.3248 196.435C22.3248 195.402 21.5865 194.132 20.7006 193.6C19.7852 193.069 19.0764 193.512 19.0764 194.545C19.0764 195.579 19.8147 196.849 20.7006 197.38C21.5865 197.882 22.3248 197.469 22.3248 196.435Z" fill="#081523"/>
<path d="M27.345 199.329C27.345 198.295 26.6068 197.026 25.6914 196.494C24.7759 195.962 24.0671 196.405 24.0671 197.439C24.0671 198.473 24.8054 199.742 25.6914 200.274C26.6068 200.805 27.345 200.392 27.345 199.329Z" fill="#081523"/>
<path d="M32.3948 202.253C32.3948 201.219 31.6565 199.949 30.7706 199.418C29.8552 198.886 29.1169 199.329 29.1169 200.363C29.1169 201.396 29.8552 202.666 30.7706 203.198C31.6565 203.7 32.3948 203.286 32.3948 202.253Z" fill="#081523"/>
<path d="M37.4145 205.147C37.4145 204.113 36.6763 202.843 35.7904 202.312C34.8749 201.78 34.1663 202.223 34.1663 203.257C34.1663 204.29 34.9045 205.56 35.7904 206.092C36.6763 206.623 37.4145 206.18 37.4145 205.147Z" fill="#081523"/>
<path d="M42.4644 208.04C42.4644 207.007 41.7261 205.737 40.8402 205.205C39.9248 204.674 39.2161 205.117 39.2161 206.15C39.2161 207.184 39.9543 208.454 40.8402 208.985C41.7261 209.517 42.4644 209.103 42.4644 208.04Z" fill="#081523"/>
<path d="M47.4846 210.965C47.4846 209.931 46.7464 208.661 45.8605 208.13C44.945 207.598 44.2363 208.041 44.2363 209.075C44.2363 210.108 44.9745 211.408 45.8605 211.91C46.7464 212.441 47.4846 211.998 47.4846 210.965Z" fill="#081523"/>
<path d="M50.5557 72.5259L50.9691 220L125.71 176.856L125.267 29.3823L50.5557 72.5259Z" fill="#132943"/>
<path d="M53.5088 74.2384L122.344 34.4907L122.757 175.173L53.9223 214.92L53.5088 74.2384Z" fill="#18314F"/>
<path d="M58.8538 121.398L120.69 85.6958V104.507L58.8538 140.209V121.398Z" fill="#0A2340"/>
<path d="M60.2712 124.026C60.2712 123.199 60.8323 122.166 61.5706 121.752C62.2793 121.339 62.8699 121.693 62.8699 122.52C62.8699 123.347 62.3088 124.381 61.6 124.794C60.8618 125.178 60.2712 124.853 60.2712 124.026Z" fill="#06121F"/>
<path d="M116.704 91.4539C116.704 90.627 117.265 89.5935 118.003 89.1801C118.712 88.7666 119.302 89.121 119.302 89.9478C119.302 90.7747 118.712 91.8082 118.003 92.2217C117.294 92.6055 116.704 92.2807 116.704 91.4539Z" fill="#06121F"/>
<path d="M60.2712 136.694C60.2712 135.867 60.8323 134.863 61.5706 134.45C62.2793 134.036 62.8699 134.361 62.8699 135.188C62.8699 136.015 62.3088 137.048 61.6 137.462C60.8618 137.875 60.2712 137.521 60.2712 136.694Z" fill="#06121F"/>
<path d="M116.704 104.123C116.704 103.296 117.265 102.292 118.003 101.879C118.712 101.465 119.302 101.79 119.302 102.646C119.302 103.473 118.712 104.507 118.003 104.92C117.294 105.304 116.704 104.95 116.704 104.123Z" fill="#06121F"/>
<path d="M58.8538 129.43L120.69 93.728V97.0945L58.8538 132.796V129.43Z" fill="url(#paint0_linear)"/>
<path d="M75.5974 117.146L103.917 100.786L107.46 103.208L103.917 109.409L75.5974 125.739L71.4927 123.672L75.5974 117.146Z" fill="url(#paint1_linear)"/>
<path d="M58.8538 144.52L120.69 108.818V127.629L58.8538 163.331V144.52Z" fill="#0A2340"/>
<path d="M60.2712 147.119C60.2712 146.292 60.8323 145.258 61.5706 144.845C62.2793 144.432 62.8699 144.756 62.8699 145.613C62.8699 146.44 62.3088 147.444 61.6 147.887C60.8618 148.3 60.2712 147.946 60.2712 147.119Z" fill="#06121F"/>
<path d="M116.704 114.546C116.704 113.72 117.265 112.716 118.003 112.302C118.712 111.889 119.302 112.243 119.302 113.07C119.302 113.897 118.712 114.93 118.003 115.344C117.294 115.728 116.704 115.373 116.704 114.546Z" fill="#06121F"/>
<path d="M60.2712 159.787C60.2712 158.96 60.8323 157.956 61.5706 157.543C62.2793 157.129 62.8699 157.484 62.8699 158.311C62.8699 159.137 62.3088 160.171 61.6 160.584C60.8618 160.968 60.2712 160.644 60.2712 159.787Z" fill="#06121F"/>
<path d="M116.704 127.215C116.704 126.388 117.265 125.384 118.003 124.971C118.712 124.558 119.302 124.882 119.302 125.739C119.302 126.566 118.712 127.57 118.003 128.013C117.294 128.396 116.704 128.072 116.704 127.215Z" fill="#06121F"/>
<path d="M58.8538 152.227L120.69 116.525V119.892L58.8538 155.594V152.227Z" fill="url(#paint2_linear)"/>
<path d="M75.5974 139.943L103.917 123.583L107.46 126.004L103.917 132.206L75.5974 148.536L71.4927 146.469L75.5974 139.943Z" fill="url(#paint3_linear)"/>
<path d="M58.8538 167.642L120.69 131.94V150.722L58.8538 186.424V167.642Z" fill="#0A2340"/>
<path d="M60.2712 170.241C60.2712 169.414 60.8323 168.41 61.5706 167.997C62.2793 167.583 62.8699 167.908 62.8699 168.765C62.8699 169.591 62.3088 170.595 61.6 171.038C60.8618 171.422 60.2712 171.068 60.2712 170.241Z" fill="#06121F"/>
<path d="M116.704 137.669C116.704 136.843 117.265 135.838 118.003 135.425C118.712 135.012 119.302 135.336 119.302 136.193C119.302 137.02 118.712 138.053 118.003 138.467C117.294 138.821 116.704 138.496 116.704 137.669Z" fill="#06121F"/>
<path d="M60.2712 182.91C60.2712 182.083 60.8323 181.079 61.5706 180.665C62.2793 180.252 62.8699 180.606 62.8699 181.433C62.8699 182.26 62.3088 183.264 61.6 183.707C60.8618 184.091 60.2712 183.737 60.2712 182.91Z" fill="#06121F"/>
<path d="M116.704 150.338C116.704 149.511 117.265 148.507 118.003 148.064C118.712 147.651 119.302 148.005 119.302 148.832C119.302 149.659 118.712 150.663 118.003 151.076C117.294 151.519 116.704 151.165 116.704 150.338Z" fill="#06121F"/>
<path d="M58.8538 175.35L120.69 139.648V143.014L58.8538 178.716V175.35Z" fill="url(#paint4_linear)"/>
<path d="M75.5974 163.036L103.917 146.706L107.46 149.127L103.917 155.299L75.5974 171.659L71.4927 169.591L75.5974 163.036Z" fill="url(#paint5_linear)"/>
<path d="M58.8538 190.735L120.69 155.033V173.843L58.8538 209.545V190.735Z" fill="#0A2340"/>
<path d="M60.2712 193.333C60.2712 192.506 60.8323 191.502 61.5706 191.089C62.2793 190.675 62.8699 191.03 62.8699 191.857C62.8699 192.683 62.3088 193.717 61.6 194.13C60.8618 194.514 60.2712 194.189 60.2712 193.333Z" fill="#06121F"/>
<path d="M116.704 160.762C116.704 159.935 117.265 158.931 118.003 158.517C118.712 158.104 119.302 158.429 119.302 159.285C119.302 160.112 118.712 161.116 118.003 161.559C117.294 161.943 116.704 161.618 116.704 160.762Z" fill="#06121F"/>
<path d="M60.2712 206.031C60.2712 205.204 60.8323 204.2 61.5706 203.787C62.2793 203.373 62.8699 203.698 62.8699 204.555C62.8699 205.381 62.3088 206.386 61.6 206.799C60.8618 207.183 60.2712 206.858 60.2712 206.031Z" fill="#06121F"/>
<path d="M116.704 173.459C116.704 172.632 117.265 171.599 118.003 171.185C118.712 170.772 119.302 171.126 119.302 171.953C119.302 172.78 118.712 173.814 118.003 174.198C117.294 174.611 116.704 174.286 116.704 173.459Z" fill="#06121F"/>
<path d="M58.8538 198.472L120.69 162.77V166.136L58.8538 201.808V198.472Z" fill="url(#paint6_linear)"/>
<path d="M75.5974 186.157L103.917 169.797L107.46 172.219L103.917 178.42L75.5974 194.78L71.4927 192.683L75.5974 186.157Z" fill="url(#paint7_linear)"/>
<path d="M58.8538 75.1834L120.69 39.4814V58.2922L58.8538 93.9942V75.1834Z" fill="#0A2340"/>
<path d="M113.307 52.5922L118.003 49.905V44.501L113.307 47.1882V52.5922Z" fill="#06121F"/>
<path d="M107.106 56.195L111.772 53.4782V48.0742L107.106 50.791V56.195Z" fill="#06121F"/>
<path d="M100.905 59.768L105.571 57.0808V51.6768L100.905 54.364V59.768Z" fill="#06121F"/>
<path d="M94.6738 63.3716L99.3691 60.6548V55.2803L94.6738 57.9675V63.3716Z" fill="#06121F"/>
<path d="M88.4724 66.9443L93.1382 64.257V58.853L88.4724 61.5403V66.9443Z" fill="#06121F"/>
<path d="M82.2712 70.5471L86.9371 67.8303V62.4263L82.2712 65.143V70.5471Z" fill="#06121F"/>
<path d="M62.2202 88.8261L66.8859 86.1389V74.061L62.2202 76.7778V88.8261Z" fill="#0BB3EE"/>
<path d="M68.5103 85.2827L73.176 82.5659V70.5176L68.5103 73.2048V85.2827Z" fill="#0BB3EE"/>
<path d="M74.6526 81.6504L79.3183 78.9336V66.8853L74.6526 69.5725V81.6504Z" fill="#0BB3EE"/>
<path d="M113.307 59.5322L118.003 56.8449V51.4409L113.307 54.1282V59.5322Z" fill="#06121F"/>
<path d="M107.106 63.1352L111.772 60.4184V55.0439L107.106 57.7312V63.1352Z" fill="#06121F"/>
<path d="M100.905 66.708L105.571 64.0207V58.6167L100.905 61.3039V66.708Z" fill="#06121F"/>
<path d="M94.6738 70.3105L99.3691 67.5937V62.2192L94.6738 64.9065V70.3105Z" fill="#06121F"/>
<path d="M88.4724 73.8838L93.1382 71.1965V65.7925L88.4724 68.4797V73.8838Z" fill="#06121F"/>
<path d="M82.2712 77.487L86.9371 74.7702V69.3662L82.2712 72.083V77.487Z" fill="#06121F"/>
<path d="M58.8538 98.3055L120.69 62.6035V81.4142L58.8538 117.116V98.3055Z" fill="#0A2340"/>
<path d="M113.307 75.7148L118.003 73.0276V67.6235L113.307 70.3108V75.7148Z" fill="#06121F"/>
<path d="M107.106 79.3176L111.772 76.6008V71.1968L107.106 73.9135V79.3176Z" fill="#06121F"/>
<path d="M100.905 82.8906L105.571 80.2033V74.7993L100.905 77.4866V82.8906Z" fill="#06121F"/>
<path d="M94.6738 86.4938L99.3691 83.7771V78.373L94.6738 81.0898V86.4938Z" fill="#06121F"/>
<path d="M88.4724 90.0669L93.1382 87.3796V81.9756L88.4724 84.6628V90.0669Z" fill="#06121F"/>
<path d="M82.2712 93.6696L86.9371 90.9528V85.5488L82.2712 88.2656V93.6696Z" fill="#06121F"/>
<path d="M62.2202 111.949L66.8859 109.261V97.1836L62.2202 99.9004V111.949Z" fill="#0BB3EE"/>
<path d="M68.5103 108.405L73.176 105.688V93.6401L68.5103 96.3274V108.405Z" fill="#0BB3EE"/>
<path d="M74.6526 104.773L79.3183 102.056V90.0078L74.6526 92.6951V104.773Z" fill="#0BB3EE"/>
<path d="M113.307 82.6547L118.003 79.9675V74.5635L113.307 77.2507V82.6547Z" fill="#06121F"/>
<path d="M107.106 86.2573L111.772 83.5405V78.166L107.106 80.8533V86.2573Z" fill="#06121F"/>
<path d="M100.905 89.8305L105.571 87.1433V81.7393L100.905 84.4265V89.8305Z" fill="#06121F"/>
<path d="M94.6738 93.4331L99.3691 90.7163V85.3418L94.6738 88.029V93.4331Z" fill="#06121F"/>
<path d="M88.4724 97.0063L93.1382 94.3191V88.915L88.4724 91.6023V97.0063Z" fill="#06121F"/>
<path d="M82.2712 100.609L86.9371 97.8923V92.4883L82.2712 95.2051V100.609Z" fill="#06121F"/>
<path d="M0 43.1436L50.5557 72.5261L125.267 29.3825L74.7114 0L0 43.1436Z" fill="#0A2340"/>
<defs>
<linearGradient id="paint0_linear" x1="89.7719" y1="93.728" x2="89.7719" y2="132.796" gradientUnits="userSpaceOnUse">
<stop stop-color="#0BB3EE"/>
<stop offset="1" stop-color="#A437BF"/>
</linearGradient>
<linearGradient id="paint1_linear" x1="89.4766" y1="100.786" x2="89.4766" y2="125.739" gradientUnits="userSpaceOnUse">
<stop stop-color="#0BB3EE"/>
<stop offset="1" stop-color="#A437BF"/>
</linearGradient>
<linearGradient id="paint2_linear" x1="89.7719" y1="116.525" x2="89.7719" y2="155.594" gradientUnits="userSpaceOnUse">
<stop stop-color="#0BB3EE"/>
<stop offset="1" stop-color="#A437BF"/>
</linearGradient>
<linearGradient id="paint3_linear" x1="89.4766" y1="123.583" x2="89.4766" y2="148.536" gradientUnits="userSpaceOnUse">
<stop stop-color="#0BB3EE"/>
<stop offset="1" stop-color="#A437BF"/>
</linearGradient>
<linearGradient id="paint4_linear" x1="89.7719" y1="139.648" x2="89.7719" y2="178.716" gradientUnits="userSpaceOnUse">
<stop stop-color="#0BB3EE"/>
<stop offset="1" stop-color="#A437BF"/>
</linearGradient>
<linearGradient id="paint5_linear" x1="89.4766" y1="146.706" x2="89.4766" y2="171.659" gradientUnits="userSpaceOnUse">
<stop stop-color="#0BB3EE"/>
<stop offset="1" stop-color="#A437BF"/>
</linearGradient>
<linearGradient id="paint6_linear" x1="89.7719" y1="162.77" x2="89.7719" y2="201.808" gradientUnits="userSpaceOnUse">
<stop stop-color="#0BB3EE"/>
<stop offset="1" stop-color="#A437BF"/>
</linearGradient>
<linearGradient id="paint7_linear" x1="89.4766" y1="169.797" x2="89.4766" y2="194.78" gradientUnits="userSpaceOnUse">
<stop stop-color="#0BB3EE"/>
<stop offset="1" stop-color="#A437BF"/>
</linearGradient>
</defs>
</svg>
