<svg width="189" height="248" viewBox="0 0 189 248" fill="none" xmlns="http://www.w3.org/2000/svg">
<path opacity="0.15" fill-rule="evenodd" clip-rule="evenodd" d="M156.63 233.181C122.238 253.028 66.277 252.928 31.6863 232.949C-2.93751 212.97 -3.10316 180.666 31.2887 160.819C65.6806 140.972 121.642 141.072 156.233 161.051C190.823 181.03 191.022 213.301 156.63 233.181Z" fill="url(#paint0_radial)"/>
<path d="M32 43.1436L32.4134 190.617L82.9691 220L82.5557 72.5261L32 43.1436Z" fill="#0A1D33"/>
<path d="M39.2052 144.551C39.2052 143.518 38.4669 142.248 37.581 141.716C36.6656 141.185 35.9569 141.628 35.9569 142.661C35.9569 143.695 36.6951 144.964 37.581 145.496C38.4965 146.028 39.2052 145.614 39.2052 144.551Z" fill="#081523"/>
<path d="M44.2549 147.474C44.2549 146.44 43.5167 145.141 42.6308 144.639C41.7154 144.107 40.9771 144.55 40.9771 145.584C40.9771 146.618 41.7154 147.887 42.6308 148.419C43.5167 148.921 44.2549 148.508 44.2549 147.474Z" fill="#081523"/>
<path d="M49.2752 150.368C49.2752 149.335 48.5368 148.065 47.6509 147.534C46.7355 147.002 45.9973 147.445 45.9973 148.479C45.9973 149.512 46.7356 150.782 47.6215 151.313C48.5369 151.845 49.2752 151.432 49.2752 150.368Z" fill="#081523"/>
<path d="M54.3246 153.291C54.3246 152.258 53.5864 150.988 52.7005 150.456C51.7851 149.925 51.0468 150.368 51.0468 151.401C51.0468 152.435 51.785 153.705 52.6709 154.236C53.5864 154.738 54.3246 154.325 54.3246 153.291Z" fill="#081523"/>
<path d="M59.3449 156.186C59.3449 155.152 58.6066 153.882 57.6912 153.351C56.7757 152.819 56.067 153.262 56.067 154.296C56.067 155.329 56.8053 156.599 57.6912 157.131C58.6066 157.662 59.3449 157.249 59.3449 156.186Z" fill="#081523"/>
<path d="M64.3946 159.079C64.3946 158.046 63.6563 156.776 62.7704 156.244C61.855 155.713 61.1167 156.156 61.1167 157.189C61.1167 158.223 61.855 159.493 62.7704 160.024C63.6563 160.556 64.3946 160.143 64.3946 159.079Z" fill="#081523"/>
<path d="M69.4145 162.002C69.4145 160.969 68.6763 159.699 67.7608 159.167C66.8454 158.636 66.1367 159.079 66.1367 160.112C66.1367 161.146 66.8749 162.416 67.7608 162.947C68.6763 163.479 69.4145 163.036 69.4145 162.002Z" fill="#081523"/>
<path d="M74.4643 164.897C74.4643 163.863 73.7261 162.593 72.8106 162.062C71.9247 161.53 71.1864 161.973 71.1864 163.007C71.1864 164.04 71.9247 165.31 72.8106 165.842C73.7261 166.373 74.4643 165.96 74.4643 164.897Z" fill="#081523"/>
<path d="M79.4844 167.821C79.4844 166.787 78.7462 165.517 77.8603 164.986C76.9448 164.454 76.2361 164.897 76.2361 165.931C76.2361 166.964 76.9744 168.234 77.8603 168.766C78.7462 169.297 79.4844 168.854 79.4844 167.821Z" fill="#081523"/>
<path d="M39.2052 150.723C39.2052 149.689 38.4669 148.42 37.581 147.888C36.6656 147.357 35.9569 147.799 35.9569 148.833C35.9569 149.896 36.6951 151.136 37.581 151.668C38.4965 152.199 39.2052 151.786 39.2052 150.723Z" fill="#081523"/>
<path d="M44.2549 153.646C44.2549 152.612 43.5167 151.342 42.6308 150.811C41.7154 150.279 40.9771 150.722 40.9771 151.756C40.9771 152.789 41.7154 154.059 42.6308 154.591C43.5167 155.093 44.2549 154.679 44.2549 153.646Z" fill="#081523"/>
<path d="M49.2752 156.54C49.2752 155.507 48.5369 154.237 47.6509 153.705C46.7355 153.174 46.0268 153.617 46.0268 154.65C46.0268 155.684 46.765 156.954 47.6509 157.485C48.5369 158.017 49.2752 157.574 49.2752 156.54Z" fill="#081523"/>
<path d="M54.3247 159.434C54.3247 158.4 53.5865 157.131 52.7006 156.599C51.7852 156.067 51.0764 156.51 51.0764 157.544C51.0764 158.578 51.8147 159.847 52.7006 160.379C53.5865 160.91 54.3247 160.497 54.3247 159.434Z" fill="#081523"/>
<path d="M59.3449 162.358C59.3449 161.324 58.6066 160.054 57.6912 159.523C56.7757 158.991 56.067 159.434 56.067 160.468C56.067 161.531 56.8053 162.771 57.6912 163.303C58.6066 163.834 59.3449 163.391 59.3449 162.358Z" fill="#081523"/>
<path d="M64.3947 165.251C64.3947 164.218 63.6563 162.948 62.7704 162.416C61.855 161.885 61.1168 162.328 61.1168 163.361C61.1168 164.395 61.855 165.665 62.7704 166.196C63.6563 166.728 64.3947 166.314 64.3947 165.251Z" fill="#081523"/>
<path d="M69.4145 168.175C69.4145 167.142 68.6763 165.872 67.7608 165.34C66.8454 164.809 66.1367 165.252 66.1367 166.285C66.1367 167.319 66.8749 168.589 67.7608 169.12C68.6763 169.622 69.4145 169.209 69.4145 168.175Z" fill="#081523"/>
<path d="M74.4643 171.069C74.4643 170.035 73.7261 168.765 72.8106 168.234C71.9247 167.702 71.1864 168.145 71.1864 169.179C71.1864 170.212 71.9247 171.482 72.8106 172.014C73.7261 172.545 74.4643 172.102 74.4643 171.069Z" fill="#081523"/>
<path d="M79.4844 173.992C79.4844 172.959 78.7462 171.689 77.8603 171.158C76.9448 170.626 76.2361 171.069 76.2361 172.103C76.2361 173.136 76.9744 174.406 77.8603 174.937C78.7462 175.439 79.4844 175.026 79.4844 173.992Z" fill="#081523"/>
<path d="M39.2052 156.894C39.2052 155.86 38.4669 154.59 37.581 154.059C36.6656 153.527 35.9569 153.97 35.9569 155.004C35.9569 156.037 36.6951 157.307 37.581 157.839C38.4965 158.341 39.2052 157.927 39.2052 156.894Z" fill="#081523"/>
<path d="M44.2549 159.788C44.2549 158.755 43.5167 157.485 42.6308 156.953C41.7154 156.422 40.9771 156.865 40.9771 157.898C40.9771 158.932 41.7154 160.202 42.6308 160.733C43.5167 161.265 44.2549 160.851 44.2549 159.788Z" fill="#081523"/>
<path d="M49.2752 162.711C49.2752 161.678 48.5369 160.408 47.6509 159.876C46.7355 159.345 46.0268 159.788 46.0268 160.821C46.0268 161.855 46.765 163.125 47.6509 163.656C48.5369 164.158 49.2752 163.745 49.2752 162.711Z" fill="#081523"/>
<path d="M54.3247 165.606C54.3247 164.572 53.5865 163.302 52.7006 162.771C51.7852 162.239 51.0764 162.682 51.0764 163.716C51.0764 164.749 51.8147 166.019 52.7006 166.551C53.5865 167.082 54.3247 166.669 54.3247 165.606Z" fill="#081523"/>
<path d="M59.3449 168.529C59.3449 167.495 58.6066 166.225 57.6912 165.694C56.7757 165.162 56.067 165.605 56.067 166.639C56.067 167.672 56.8053 168.942 57.6912 169.474C58.6066 169.976 59.3449 169.562 59.3449 168.529Z" fill="#081523"/>
<path d="M64.3947 171.423C64.3947 170.39 63.6563 169.12 62.7704 168.588C61.855 168.057 61.1168 168.5 61.1168 169.533C61.1168 170.567 61.855 171.837 62.7704 172.368C63.6563 172.9 64.3947 172.457 64.3947 171.423Z" fill="#081523"/>
<path d="M69.4145 174.317C69.4145 173.283 68.6763 172.013 67.7608 171.482C66.8454 170.95 66.1367 171.393 66.1367 172.427C66.1367 173.46 66.8749 174.73 67.7608 175.262C68.6763 175.793 69.4145 175.38 69.4145 174.317Z" fill="#081523"/>
<path d="M74.4643 177.241C74.4643 176.207 73.7261 174.937 72.8106 174.406C71.9247 173.874 71.1864 174.317 71.1864 175.351C71.1864 176.384 71.9247 177.654 72.8106 178.185C73.7261 178.717 74.4643 178.274 74.4643 177.241Z" fill="#081523"/>
<path d="M79.4844 180.135C79.4844 179.102 78.7462 177.832 77.8603 177.3C76.9448 176.769 76.2361 177.212 76.2361 178.245C76.2361 179.279 76.9744 180.578 77.8603 181.08C78.7462 181.612 79.4844 181.198 79.4844 180.135Z" fill="#081523"/>
<path d="M39.2052 163.066C39.2052 162.032 38.4669 160.762 37.581 160.231C36.6656 159.699 35.9569 160.142 35.9569 161.176C35.9569 162.209 36.6951 163.479 37.581 164.011C38.4965 164.513 39.2052 164.099 39.2052 163.066Z" fill="#081523"/>
<path d="M44.2549 165.96C44.2549 164.927 43.5167 163.657 42.6308 163.125C41.7154 162.594 40.9771 163.037 40.9771 164.07C40.9771 165.104 41.7154 166.374 42.6308 166.905C43.5167 167.437 44.2549 166.994 44.2549 165.96Z" fill="#081523"/>
<path d="M49.2752 168.854C49.2752 167.82 48.5369 166.55 47.6509 166.019C46.7355 165.487 46.0268 165.93 46.0268 166.964C46.0268 167.997 46.765 169.267 47.6509 169.799C48.5369 170.33 49.2752 169.917 49.2752 168.854Z" fill="#081523"/>
<path d="M54.3247 171.778C54.3247 170.744 53.5865 169.474 52.7006 168.943C51.7852 168.411 51.0764 168.854 51.0764 169.888C51.0764 170.921 51.8147 172.191 52.7006 172.723C53.5865 173.225 54.3247 172.811 54.3247 171.778Z" fill="#081523"/>
<path d="M59.3449 174.671C59.3449 173.638 58.6066 172.368 57.6912 171.836C56.7757 171.305 56.067 171.748 56.067 172.781C56.067 173.844 56.8053 175.085 57.6912 175.616C58.6066 176.148 59.3449 175.734 59.3449 174.671Z" fill="#081523"/>
<path d="M64.3947 177.595C64.3947 176.561 63.6563 175.292 62.7704 174.76C61.855 174.229 61.1168 174.672 61.1168 175.705C61.1168 176.739 61.855 178.008 62.7704 178.54C63.6563 179.042 64.3947 178.629 64.3947 177.595Z" fill="#081523"/>
<path d="M69.4145 180.489C69.4145 179.455 68.6763 178.185 67.7608 177.654C66.8454 177.122 66.1367 177.565 66.1367 178.599C66.1367 179.632 66.8749 180.902 67.7608 181.434C68.6763 181.965 69.4145 181.522 69.4145 180.489Z" fill="#081523"/>
<path d="M74.4643 183.412C74.4643 182.379 73.7261 181.109 72.8106 180.578C71.9247 180.046 71.1864 180.489 71.1864 181.522C71.1864 182.556 71.9247 183.826 72.8106 184.357C73.7261 184.859 74.4643 184.446 74.4643 183.412Z" fill="#081523"/>
<path d="M79.4844 186.307C79.4844 185.273 78.7462 184.004 77.8603 183.472C76.9448 182.94 76.2361 183.383 76.2361 184.417C76.2361 185.451 76.9744 186.72 77.8603 187.252C78.7462 187.783 79.4844 187.34 79.4844 186.307Z" fill="#081523"/>
<path d="M39.2052 169.208C39.2052 168.175 38.4669 166.905 37.581 166.373C36.6656 165.842 35.9569 166.285 35.9569 167.318C35.9569 168.352 36.6951 169.622 37.581 170.153C38.4965 170.685 39.2052 170.271 39.2052 169.208Z" fill="#081523"/>
<path d="M44.2549 172.132C44.2549 171.099 43.5167 169.829 42.6308 169.297C41.7154 168.766 40.9771 169.209 40.9771 170.242C40.9771 171.276 41.7154 172.546 42.6308 173.077C43.5167 173.579 44.2549 173.166 44.2549 172.132Z" fill="#081523"/>
<path d="M49.2752 175.026C49.2752 173.992 48.5369 172.722 47.6509 172.191C46.7355 171.659 46.0268 172.102 46.0268 173.136C46.0268 174.169 46.765 175.439 47.6509 175.971C48.5369 176.502 49.2752 176.059 49.2752 175.026Z" fill="#081523"/>
<path d="M54.3247 177.95C54.3247 176.916 53.5865 175.646 52.7006 175.115C51.7852 174.583 51.0764 175.026 51.0764 176.06C51.0764 177.093 51.8147 178.363 52.7006 178.894C53.5865 179.397 54.3247 178.983 54.3247 177.95Z" fill="#081523"/>
<path d="M59.3449 180.843C59.3449 179.81 58.6066 178.54 57.6912 178.008C56.7757 177.477 56.067 177.92 56.067 178.953C56.067 179.987 56.8053 181.256 57.6912 181.788C58.6066 182.32 59.3449 181.877 59.3449 180.843Z" fill="#081523"/>
<path d="M64.3947 183.737C64.3947 182.703 63.6563 181.433 62.7704 180.902C61.855 180.37 61.1168 180.813 61.1168 181.847C61.1168 182.88 61.855 184.15 62.7704 184.682C63.6563 185.213 64.3947 184.8 64.3947 183.737Z" fill="#081523"/>
<path d="M69.4145 186.66C69.4145 185.627 68.6763 184.357 67.7608 183.826C66.8454 183.294 66.1367 183.737 66.1367 184.771C66.1367 185.804 66.8749 187.074 67.7608 187.605C68.6763 188.137 69.4145 187.694 69.4145 186.66Z" fill="#081523"/>
<path d="M74.4643 189.555C74.4643 188.521 73.7261 187.252 72.8106 186.72C71.9247 186.189 71.1864 186.631 71.1864 187.665C71.1864 188.699 71.9247 189.968 72.8106 190.5C73.7261 191.032 74.4643 190.618 74.4643 189.555Z" fill="#081523"/>
<path d="M79.4844 192.478C79.4844 191.444 78.7462 190.174 77.8603 189.643C76.9448 189.111 76.2361 189.554 76.2361 190.588C76.2361 191.621 76.9744 192.891 77.8603 193.423C78.7462 193.925 79.4844 193.511 79.4844 192.478Z" fill="#081523"/>
<path d="M39.2052 175.38C39.2052 174.347 38.4669 173.077 37.581 172.545C36.6656 172.014 35.9569 172.457 35.9569 173.49C35.9569 174.524 36.6951 175.794 37.581 176.325C38.4965 176.857 39.2052 176.414 39.2052 175.38Z" fill="#081523"/>
<path d="M44.2549 178.274C44.2549 177.24 43.5167 175.97 42.6308 175.439C41.7154 174.907 40.9771 175.35 40.9771 176.384C40.9771 177.417 41.7154 178.687 42.6308 179.219C43.5167 179.75 44.2549 179.337 44.2549 178.274Z" fill="#081523"/>
<path d="M49.2752 181.198C49.2752 180.164 48.5369 178.894 47.6509 178.363C46.7355 177.831 46.0268 178.274 46.0268 179.308C46.0268 180.341 46.765 181.611 47.6509 182.143C48.5369 182.645 49.2752 182.231 49.2752 181.198Z" fill="#081523"/>
<path d="M54.3247 184.091C54.3247 183.058 53.5865 181.788 52.7006 181.256C51.7852 180.725 51.0764 181.168 51.0764 182.201C51.0764 183.235 51.8147 184.505 52.7006 185.036C53.5865 185.568 54.3247 185.154 54.3247 184.091Z" fill="#081523"/>
<path d="M59.3449 187.015C59.3449 185.981 58.6066 184.712 57.6912 184.18C56.7757 183.649 56.067 184.091 56.067 185.125C56.067 186.159 56.8053 187.428 57.6912 187.96C58.6066 188.462 59.3449 188.048 59.3449 187.015Z" fill="#081523"/>
<path d="M64.3947 189.908C64.3947 188.875 63.6563 187.605 62.7704 187.074C61.855 186.542 61.1168 186.985 61.1168 188.019C61.1168 189.052 61.855 190.322 62.7704 190.853C63.6563 191.385 64.3947 190.972 64.3947 189.908Z" fill="#081523"/>
<path d="M69.4145 192.832C69.4145 191.799 68.6763 190.529 67.7608 189.997C66.8454 189.466 66.1367 189.909 66.1367 190.942C66.1367 191.976 66.8749 193.246 67.7608 193.777C68.6763 194.279 69.4145 193.866 69.4145 192.832Z" fill="#081523"/>
<path d="M74.4643 195.726C74.4643 194.692 73.7261 193.393 72.8106 192.891C71.8952 192.359 71.1864 192.802 71.1864 193.836C71.1864 194.87 71.9247 196.139 72.8106 196.671C73.7261 197.202 74.4643 196.759 74.4643 195.726Z" fill="#081523"/>
<path d="M79.4844 198.62C79.4844 197.587 78.7462 196.317 77.8603 195.786C76.9448 195.254 76.2361 195.697 76.2361 196.73C76.2361 197.764 76.9744 199.034 77.8603 199.565C78.7462 200.097 79.4844 199.684 79.4844 198.62Z" fill="#081523"/>
<path d="M39.2052 181.552C39.2052 180.518 38.4669 179.249 37.581 178.717C36.6656 178.186 35.9569 178.629 35.9569 179.662C35.9569 180.696 36.6951 181.965 37.581 182.497C38.4965 182.999 39.2052 182.586 39.2052 181.552Z" fill="#081523"/>
<path d="M44.2549 184.446C44.2549 183.412 43.5167 182.142 42.6308 181.611C41.7154 181.079 40.9771 181.522 40.9771 182.556C40.9771 183.589 41.7154 184.859 42.6308 185.391C43.5167 185.922 44.2549 185.509 44.2549 184.446Z" fill="#081523"/>
<path d="M49.2752 187.369C49.2752 186.336 48.5369 185.066 47.6509 184.535C46.7355 184.003 46.0268 184.446 46.0268 185.48C46.0268 186.513 46.765 187.812 47.6509 188.314C48.5369 188.816 49.2752 188.403 49.2752 187.369Z" fill="#081523"/>
<path d="M54.3247 190.264C54.3247 189.23 53.5865 187.961 52.7006 187.429C51.7852 186.898 51.0764 187.34 51.0764 188.374C51.0764 189.408 51.8147 190.677 52.7006 191.209C53.5865 191.74 54.3247 191.298 54.3247 190.264Z" fill="#081523"/>
<path d="M59.3449 193.158C59.3449 192.124 58.6066 190.854 57.6912 190.323C56.7757 189.791 56.067 190.234 56.067 191.268C56.067 192.301 56.8053 193.571 57.6912 194.102C58.6066 194.634 59.3449 194.221 59.3449 193.158Z" fill="#081523"/>
<path d="M64.3947 196.08C64.3947 195.047 63.6563 193.747 62.7704 193.245C61.855 192.714 61.1168 193.157 61.1168 194.19C61.1168 195.224 61.855 196.494 62.7704 197.025C63.6563 197.557 64.3947 197.114 64.3947 196.08Z" fill="#081523"/>
<path d="M69.4145 198.975C69.4145 197.941 68.6763 196.672 67.7904 196.14C66.8749 195.608 66.1662 196.051 66.1662 197.085C66.1662 198.119 66.9044 199.388 67.7904 199.92C68.6763 200.451 69.4145 200.038 69.4145 198.975Z" fill="#081523"/>
<path d="M74.4643 201.899C74.4643 200.865 73.726 199.595 72.8401 199.064C71.9247 198.532 71.216 198.975 71.216 200.009C71.216 201.042 71.9542 202.312 72.8401 202.844C73.726 203.375 74.4643 202.932 74.4643 201.899Z" fill="#081523"/>
<path d="M79.4844 204.793C79.4844 203.76 78.7462 202.49 77.8603 201.958C76.9448 201.427 76.2361 201.87 76.2361 202.903C76.2361 203.937 76.9744 205.207 77.8603 205.738C78.7462 206.27 79.4844 205.856 79.4844 204.793Z" fill="#081523"/>
<path d="M39.2052 187.724C39.2052 186.69 38.4669 185.421 37.581 184.889C36.6656 184.357 35.9569 184.8 35.9569 185.834C35.9569 186.868 36.6951 188.137 37.581 188.669C38.4965 189.171 39.2052 188.757 39.2052 187.724Z" fill="#081523"/>
<path d="M44.2549 190.618C44.2549 189.585 43.5167 188.315 42.6308 187.784C41.7154 187.252 40.9771 187.695 40.9771 188.729C40.9771 189.762 41.7154 191.032 42.6308 191.563C43.5167 192.095 44.2549 191.652 44.2549 190.618Z" fill="#081523"/>
<path d="M49.2752 193.512C49.2752 192.478 48.5368 191.209 47.6509 190.677C46.7355 190.146 45.9973 190.589 45.9973 191.622C45.9973 192.656 46.7355 193.955 47.6509 194.457C48.5368 194.989 49.2752 194.575 49.2752 193.512Z" fill="#081523"/>
<path d="M54.3247 196.436C54.3247 195.402 53.5865 194.132 52.7006 193.601C51.7852 193.069 51.0764 193.512 51.0764 194.546C51.0764 195.579 51.8147 196.849 52.7006 197.381C53.5865 197.883 54.3247 197.469 54.3247 196.436Z" fill="#081523"/>
<path d="M59.3449 199.329C59.3449 198.296 58.6066 197.026 57.6912 196.494C56.7757 195.963 56.067 196.406 56.067 197.439C56.067 198.473 56.8053 199.743 57.6912 200.274C58.6066 200.806 59.3449 200.392 59.3449 199.329Z" fill="#081523"/>
<path d="M64.3947 202.253C64.3947 201.22 63.6563 199.95 62.7704 199.418C61.855 198.887 61.1168 199.33 61.1168 200.363C61.1168 201.397 61.855 202.667 62.7704 203.198C63.6563 203.7 64.3947 203.287 64.3947 202.253Z" fill="#081523"/>
<path d="M69.4145 205.147C69.4145 204.113 68.6763 202.843 67.7904 202.312C66.8749 201.78 66.1662 202.223 66.1662 203.257C66.1662 204.29 66.9044 205.56 67.7904 206.092C68.6763 206.623 69.4145 206.18 69.4145 205.147Z" fill="#081523"/>
<path d="M74.4643 208.04C74.4643 207.007 73.726 205.737 72.8401 205.205C71.9247 204.674 71.216 205.117 71.216 206.15C71.216 207.184 71.9542 208.454 72.8401 208.985C73.726 209.517 74.4643 209.103 74.4643 208.04Z" fill="#081523"/>
<path d="M79.4844 210.965C79.4844 209.932 78.7462 208.662 77.8603 208.13C76.9448 207.599 76.2361 208.042 76.2361 209.075C76.2361 210.109 76.9744 211.408 77.8603 211.91C78.7462 212.442 79.4844 211.999 79.4844 210.965Z" fill="#081523"/>
<path d="M82.5557 72.5264L82.9692 220L157.71 176.857L157.267 29.3828L82.5557 72.5264Z" fill="#132943"/>
<path d="M85.5087 74.2389L154.344 34.4912L154.757 175.173L85.9222 214.921L85.5087 74.2389Z" fill="#18314F"/>
<path d="M90.8537 121.398L152.69 85.6963V104.507L90.8537 140.209V121.398Z" fill="#0A2340"/>
<path d="M92.2713 124.026C92.2713 123.199 92.8324 122.166 93.5706 121.752C94.2793 121.339 94.8699 121.693 94.8699 122.52C94.8699 123.347 94.3088 124.381 93.6001 124.794C92.8618 125.178 92.2713 124.853 92.2713 124.026Z" fill="#06121F"/>
<path d="M148.703 91.4539C148.703 90.627 149.265 89.5935 150.003 89.1801C150.712 88.7666 151.302 89.121 151.302 89.9478C151.302 90.7747 150.712 91.8082 150.003 92.2217C149.294 92.6055 148.703 92.2807 148.703 91.4539Z" fill="#06121F"/>
<path d="M92.2713 136.694C92.2713 135.867 92.8324 134.863 93.5706 134.45C94.2793 134.036 94.8699 134.361 94.8699 135.188C94.8699 136.015 94.3088 137.048 93.6001 137.462C92.8618 137.875 92.2713 137.521 92.2713 136.694Z" fill="#06121F"/>
<path d="M148.703 104.123C148.703 103.296 149.265 102.292 150.003 101.879C150.712 101.465 151.302 101.79 151.302 102.646C151.302 103.473 150.712 104.507 150.003 104.92C149.294 105.304 148.703 104.95 148.703 104.123Z" fill="#06121F"/>
<path d="M90.8537 129.43L152.69 93.7275V97.094L90.8537 132.796V129.43Z" fill="url(#paint1_linear)"/>
<path d="M107.597 117.146L135.917 100.786L139.46 103.208L135.917 109.409L107.597 125.739L103.493 123.672L107.597 117.146Z" fill="url(#paint2_linear)"/>
<path d="M90.8537 144.52L152.69 108.818V127.629L90.8537 163.331V144.52Z" fill="#0A2340"/>
<path d="M92.2713 147.119C92.2713 146.292 92.8324 145.259 93.5706 144.845C94.2793 144.432 94.8699 144.757 94.8699 145.613C94.8699 146.44 94.3088 147.444 93.6001 147.887C92.8618 148.301 92.2713 147.946 92.2713 147.119Z" fill="#06121F"/>
<path d="M148.703 114.547C148.703 113.721 149.265 112.717 150.003 112.303C150.712 111.89 151.302 112.244 151.302 113.071C151.302 113.898 150.712 114.931 150.003 115.345C149.294 115.729 148.703 115.374 148.703 114.547Z" fill="#06121F"/>
<path d="M92.2713 159.788C92.2713 158.961 92.8324 157.957 93.5706 157.543C94.2793 157.13 94.8699 157.484 94.8699 158.311C94.8699 159.138 94.3088 160.172 93.6001 160.585C92.8618 160.969 92.2713 160.644 92.2713 159.788Z" fill="#06121F"/>
<path d="M148.703 127.216C148.703 126.389 149.265 125.385 150.003 124.971C150.712 124.558 151.302 124.883 151.302 125.739C151.302 126.566 150.712 127.57 150.003 128.013C149.294 128.397 148.703 128.072 148.703 127.216Z" fill="#06121F"/>
<path d="M90.8537 152.227L152.69 116.525V119.892L90.8537 155.594V152.227Z" fill="url(#paint3_linear)"/>
<path d="M107.597 139.943L135.917 123.583L139.46 126.004L135.917 132.206L107.597 148.536L103.493 146.469L107.597 139.943Z" fill="url(#paint4_linear)"/>
<path d="M90.8537 167.642L152.69 131.94V150.722L90.8537 186.424V167.642Z" fill="#0A2340"/>
<path d="M92.2713 170.241C92.2713 169.414 92.8324 168.41 93.5706 167.997C94.2793 167.583 94.8699 167.908 94.8699 168.765C94.8699 169.591 94.3088 170.595 93.6001 171.038C92.8618 171.422 92.2713 171.068 92.2713 170.241Z" fill="#06121F"/>
<path d="M148.703 137.67C148.703 136.843 149.265 135.839 150.003 135.426C150.712 135.012 151.302 135.337 151.302 136.193C151.302 137.02 150.712 138.054 150.003 138.467C149.294 138.822 148.703 138.497 148.703 137.67Z" fill="#06121F"/>
<path d="M92.2713 182.91C92.2713 182.083 92.8324 181.079 93.5706 180.665C94.2793 180.252 94.8699 180.606 94.8699 181.433C94.8699 182.26 94.3088 183.264 93.6001 183.707C92.8618 184.091 92.2713 183.737 92.2713 182.91Z" fill="#06121F"/>
<path d="M148.703 150.338C148.703 149.511 149.265 148.507 150.003 148.064C150.712 147.65 151.302 148.005 151.302 148.832C151.302 149.658 150.712 150.662 150.003 151.076C149.294 151.519 148.703 151.165 148.703 150.338Z" fill="#06121F"/>
<path d="M90.8537 175.35L152.69 139.648V143.015L90.8537 178.717V175.35Z" fill="url(#paint5_linear)"/>
<path d="M107.597 163.036L135.917 146.706L139.46 149.128L135.917 155.299L107.597 171.659L103.493 169.592L107.597 163.036Z" fill="url(#paint6_linear)"/>
<path d="M90.8537 190.735L152.69 155.033V173.844L90.8537 209.546V190.735Z" fill="#0A2340"/>
<path d="M92.2713 193.334C92.2713 192.507 92.8324 191.503 93.5706 191.089C94.2793 190.676 94.8699 191.03 94.8699 191.857C94.8699 192.684 94.3088 193.717 93.6001 194.131C92.8618 194.515 92.2713 194.19 92.2713 193.334Z" fill="#06121F"/>
<path d="M148.703 160.762C148.703 159.935 149.265 158.931 150.003 158.517C150.712 158.104 151.302 158.429 151.302 159.285C151.302 160.112 150.712 161.116 150.003 161.559C149.294 161.943 148.703 161.618 148.703 160.762Z" fill="#06121F"/>
<path d="M92.2713 206.031C92.2713 205.204 92.8324 204.2 93.5706 203.787C94.2793 203.373 94.8699 203.698 94.8699 204.555C94.8699 205.381 94.3088 206.386 93.6001 206.799C92.8618 207.183 92.2713 206.858 92.2713 206.031Z" fill="#06121F"/>
<path d="M148.703 173.46C148.703 172.633 149.265 171.599 150.003 171.186C150.712 170.772 151.302 171.127 151.302 171.954C151.302 172.781 150.712 173.814 150.003 174.198C149.294 174.611 148.703 174.287 148.703 173.46Z" fill="#06121F"/>
<path d="M90.8537 198.472L152.69 162.77V166.136L90.8537 201.808V198.472Z" fill="url(#paint7_linear)"/>
<path d="M107.597 186.158L135.917 169.798L139.46 172.219L135.917 178.421L107.597 194.78L103.493 192.684L107.597 186.158Z" fill="url(#paint8_linear)"/>
<path d="M90.8537 75.1834L152.69 39.4814V58.2922L90.8537 93.9942V75.1834Z" fill="#0A2340"/>
<path d="M145.307 52.5922L150.003 49.905V44.501L145.307 47.1882V52.5922Z" fill="#06121F"/>
<path d="M139.106 56.195L143.772 53.4782V48.0742L139.106 50.791V56.195Z" fill="#06121F"/>
<path d="M132.905 59.768L137.57 57.0808V51.6768L132.905 54.364V59.768Z" fill="#06121F"/>
<path d="M126.674 63.3716L131.369 60.6548V55.2803L126.674 57.9675V63.3716Z" fill="#06121F"/>
<path d="M120.472 66.9448L125.138 64.2575V58.8535L120.472 61.5408V66.9448Z" fill="#06121F"/>
<path d="M114.271 70.5476L118.937 67.8308V62.4268L114.271 65.1435V70.5476Z" fill="#06121F"/>
<path d="M94.2202 88.8266L98.8859 86.1394V74.0615L94.2202 76.7783V88.8266Z" fill="#0BB3EE"/>
<path d="M100.51 85.2827L105.176 82.5659V70.5176L100.51 73.2048V85.2827Z" fill="#0BB3EE"/>
<path d="M106.652 81.6508L111.318 78.9341V66.8857L106.652 69.573V81.6508Z" fill="#0BB3EE"/>
<path d="M145.307 59.5327L150.003 56.8454V51.4414L145.307 54.1287V59.5327Z" fill="#06121F"/>
<path d="M139.106 63.1352L143.772 60.4184V55.0439L139.106 57.7312V63.1352Z" fill="#06121F"/>
<path d="M132.905 66.7085L137.57 64.0212V58.6172L132.905 61.3044V66.7085Z" fill="#06121F"/>
<path d="M126.674 70.311L131.369 67.5942V62.2197L126.674 64.907V70.311Z" fill="#06121F"/>
<path d="M120.472 73.8842L125.138 71.197V65.793L120.472 68.4802V73.8842Z" fill="#06121F"/>
<path d="M114.271 77.487L118.937 74.7702V69.3662L114.271 72.083V77.487Z" fill="#06121F"/>
<path d="M90.8537 98.3055L152.69 62.6035V81.4142L90.8537 117.116V98.3055Z" fill="#0A2340"/>
<path d="M145.307 75.7153L150.003 73.0281V67.624L145.307 70.3113V75.7153Z" fill="#06121F"/>
<path d="M139.106 79.3181L143.772 76.6013V71.1973L139.106 73.914V79.3181Z" fill="#06121F"/>
<path d="M132.905 82.8901L137.57 80.2029V74.7988L132.905 77.4861V82.8901Z" fill="#06121F"/>
<path d="M126.674 86.4938L131.369 83.7771V78.373L126.674 81.0898V86.4938Z" fill="#06121F"/>
<path d="M120.472 90.0669L125.138 87.3796V81.9756L120.472 84.6628V90.0669Z" fill="#06121F"/>
<path d="M114.271 93.6696L118.937 90.9528V85.5488L114.271 88.2656V93.6696Z" fill="#06121F"/>
<path d="M94.2202 111.949L98.8859 109.261V97.1836L94.2202 99.9004V111.949Z" fill="#0BB3EE"/>
<path d="M100.51 108.405L105.176 105.688V93.6396L100.51 96.3269V108.405Z" fill="#0BB3EE"/>
<path d="M106.652 104.773L111.318 102.056V90.0078L106.652 92.6951V104.773Z" fill="#0BB3EE"/>
<path d="M145.307 82.6547L150.003 79.9675V74.5635L145.307 77.2507V82.6547Z" fill="#06121F"/>
<path d="M139.106 86.2573L143.772 83.5405V78.166L139.106 80.8533V86.2573Z" fill="#06121F"/>
<path d="M132.905 89.8305L137.57 87.1433V81.7393L132.905 84.4265V89.8305Z" fill="#06121F"/>
<path d="M126.674 93.4331L131.369 90.7163V85.3418L126.674 88.029V93.4331Z" fill="#06121F"/>
<path d="M120.472 97.0063L125.138 94.3191V88.915L120.472 91.6023V97.0063Z" fill="#06121F"/>
<path d="M114.271 100.609L118.937 97.8923V92.4883L114.271 95.2051V100.609Z" fill="#06121F"/>
<path d="M32 43.1436L82.5557 72.5261L157.267 29.3825L106.711 0L32 43.1436Z" fill="#0A2340"/>
<defs>
<radialGradient id="paint0_radial" cx="0" cy="0" r="1" gradientUnits="userSpaceOnUse" gradientTransform="translate(93.9533 197) rotate(89.0274) scale(38.4513 66.609)">
<stop stop-color="#18EDFA"/>
<stop offset="1" stop-color="#18EDFA" stop-opacity="0"/>
</radialGradient>
<linearGradient id="paint1_linear" x1="121.772" y1="93.7275" x2="121.772" y2="132.796" gradientUnits="userSpaceOnUse">
<stop stop-color="#0BB3EE"/>
<stop offset="1" stop-color="#A437BF"/>
</linearGradient>
<linearGradient id="paint2_linear" x1="121.476" y1="100.786" x2="121.476" y2="125.739" gradientUnits="userSpaceOnUse">
<stop stop-color="#0BB3EE"/>
<stop offset="1" stop-color="#A437BF"/>
</linearGradient>
<linearGradient id="paint3_linear" x1="121.772" y1="116.525" x2="121.772" y2="155.594" gradientUnits="userSpaceOnUse">
<stop stop-color="#0BB3EE"/>
<stop offset="1" stop-color="#A437BF"/>
</linearGradient>
<linearGradient id="paint4_linear" x1="121.476" y1="123.583" x2="121.476" y2="148.536" gradientUnits="userSpaceOnUse">
<stop stop-color="#0BB3EE"/>
<stop offset="1" stop-color="#A437BF"/>
</linearGradient>
<linearGradient id="paint5_linear" x1="121.772" y1="139.648" x2="121.772" y2="178.717" gradientUnits="userSpaceOnUse">
<stop stop-color="#0BB3EE"/>
<stop offset="1" stop-color="#A437BF"/>
</linearGradient>
<linearGradient id="paint6_linear" x1="121.476" y1="146.706" x2="121.476" y2="171.659" gradientUnits="userSpaceOnUse">
<stop stop-color="#0BB3EE"/>
<stop offset="1" stop-color="#A437BF"/>
</linearGradient>
<linearGradient id="paint7_linear" x1="121.772" y1="162.77" x2="121.772" y2="201.808" gradientUnits="userSpaceOnUse">
<stop stop-color="#0BB3EE"/>
<stop offset="1" stop-color="#A437BF"/>
</linearGradient>
<linearGradient id="paint8_linear" x1="121.476" y1="169.798" x2="121.476" y2="194.78" gradientUnits="userSpaceOnUse">
<stop stop-color="#0BB3EE"/>
<stop offset="1" stop-color="#A437BF"/>
</linearGradient>
</defs>
</svg>
