<svg width="159" height="213" viewBox="0 0 159 213" fill="none" xmlns="http://www.w3.org/2000/svg">
<path d="M63.4238 137.636L63.3904 147.664C63.4071 143.576 60.7039 139.471 55.2976 136.351C44.5518 130.144 27.1816 130.144 16.5192 136.351C11.213 139.438 8.5599 143.459 8.54321 147.497L8.57659 137.469C8.59328 133.431 11.2464 129.393 16.5525 126.322C27.2316 120.115 44.5852 120.115 55.331 126.322C60.7206 129.443 63.4238 133.548 63.4238 137.636Z" fill="#3857CC"/>
<path d="M63.4238 137.637L63.3904 147.665C63.4071 143.577 60.7039 139.472 55.2977 136.352C54.2631 135.751 53.1618 135.217 52.0105 134.733L52.0439 124.705C53.1952 125.189 54.2965 125.723 55.3311 126.324C60.7207 129.444 63.4238 133.549 63.4238 137.637Z" fill="#3857CC"/>
<path d="M52.044 124.705L52.0106 134.733C48.5732 133.281 44.7021 132.363 40.7141 131.946L40.7475 121.918C44.7354 122.335 48.6066 123.253 52.044 124.705Z" fill="#3857CC"/>
<path d="M40.7305 121.918L40.6971 131.946C33.3052 131.179 25.4961 132.18 19.2722 134.933L19.3056 124.905C25.5462 122.152 33.3553 121.15 40.7305 121.918Z" fill="#3857CC"/>
<path d="M19.3056 124.905L19.2722 134.934C18.3044 135.367 17.37 135.835 16.5023 136.352C14.3832 137.587 12.6812 138.972 11.4131 140.457L11.4465 130.428C12.7146 128.943 14.4166 127.558 16.5357 126.324C17.4201 125.806 18.3545 125.339 19.3056 124.905Z" fill="#3857CC"/>
<path d="M11.4466 130.411L11.4132 140.439C9.51101 142.659 8.54321 145.078 8.54321 147.498L8.57659 137.469C8.57659 135.05 9.5277 132.63 11.4466 130.411Z" fill="#3857CC"/>
<path d="M71.9671 137.652L71.9337 146.98C71.9171 152.286 68.4297 157.576 61.4883 161.614C47.4887 169.756 24.7121 169.756 10.6124 161.614C3.52082 157.526 -0.0166273 152.136 5.87538e-05 146.78L0.033438 137.452C0.016752 142.825 3.5542 148.198 10.6458 152.286C24.7455 160.429 47.522 160.429 61.5216 152.286C68.4631 148.248 71.9505 142.959 71.9671 137.652Z" fill="#96AAC9"/>
<path d="M71.9673 137.652L71.9339 146.98C71.9172 150.15 70.6658 153.337 68.1628 156.241L68.1962 146.913C70.6991 144.01 71.9506 140.839 71.9673 137.652Z" fill="#96AAC9"/>
<path d="M68.196 146.913L68.1627 156.241C66.4941 158.176 64.2581 159.995 61.4715 161.614C60.3202 162.281 59.1021 162.898 57.834 163.466L57.8673 154.138C59.1355 153.571 60.3536 152.953 61.5049 152.286C64.2915 150.667 66.5274 148.849 68.196 146.913Z" fill="#96AAC9"/>
<path d="M57.8674 154.139L57.834 163.466C49.6745 167.087 39.4292 168.389 29.7346 167.387L29.768 158.06C39.4626 159.061 49.7079 157.76 57.8674 154.139Z" fill="#D9E1EE"/>
<path d="M29.7681 158.06L29.7347 167.387C24.4953 166.853 19.406 165.635 14.9175 163.733L14.9508 154.405C19.4394 156.307 24.5287 157.526 29.7681 158.06Z" fill="#96AAC9"/>
<path d="M14.9508 154.422L14.9174 163.749C13.4157 163.115 11.9807 162.414 10.6124 161.63C3.52082 157.542 -0.0166273 152.152 5.87538e-05 146.796L0.033438 137.469C0.016752 142.842 3.5542 148.215 10.6458 152.303C11.9974 153.07 13.4323 153.788 14.9508 154.422Z" fill="#0A1D33"/>
<path d="M61.3372 122.818C75.437 130.961 75.5037 144.143 61.504 152.286C47.5044 160.428 24.7279 160.428 10.6282 152.286C-3.47155 144.143 -3.53828 130.961 10.4613 122.818C24.4777 114.675 47.2542 114.675 61.3372 122.818Z" fill="#072342"/>
<path fill-rule="evenodd" clip-rule="evenodd" d="M71.2747 122.592C71.2893 117.327 67.8143 112.055 60.8541 108.034C47.0213 100.058 24.6787 100.058 10.9293 108.034C4.07652 112.022 0.659987 117.241 0.675594 122.461C0.675539 122.482 0.675537 122.503 0.67559 122.524L0.675584 122.593L0.675584 122.659L0.675584 122.726L0.675584 122.793L0.675584 122.859L0.675584 122.926L0.675584 122.993L0.675584 123.06L0.675584 123.127L0.675584 123.193L0.675584 123.26L0.675584 123.327L0.675584 123.393L0.675563 123.452L0.675584 123.51L0.675584 123.577L0.675584 123.644L0.675584 123.711L0.675584 123.777L0.675584 123.844L0.675584 123.911L0.675584 123.977L0.675584 124.044L0.675584 124.111L0.675584 124.178L0.675584 124.244L0.675584 124.311L0.675584 124.378L0.675583 124.445L0.675584 124.511L0.675584 124.578L0.675584 124.645L0.675584 124.712L0.675584 124.778L0.675584 124.845L0.675563 124.903L0.675584 124.962L0.675584 125.029L0.675584 125.096L0.675583 125.162L0.675584 125.229L0.675584 125.296L0.675584 125.363L0.675584 125.429L0.675584 125.496L0.675584 125.563L0.675584 125.629L0.675583 125.696L0.675584 125.763L0.675584 125.83L0.675584 125.896L0.675584 125.963L0.675584 126.03L0.675583 126.096L0.675584 126.163L0.675584 126.23L0.675584 126.297L0.675564 126.355L0.675584 126.414L0.675584 126.48L0.675584 126.547L0.675584 126.614L0.675584 126.681L0.675583 126.747L0.675584 126.814L0.675584 126.881L0.675584 126.948L0.675584 127.014L0.675584 127.081L0.675584 127.148L0.675584 127.215L0.675584 127.281L0.675583 127.348L0.675584 127.415L0.675584 127.482L0.675584 127.548L0.675584 127.615L0.675584 127.682L0.675584 127.748L0.675564 127.807L0.675584 127.865L0.675584 127.932L0.675584 127.999L0.675584 128.065L0.675584 128.132L0.675584 128.199L0.675584 128.266L0.675583 128.333L0.675584 128.399L0.675584 128.466L0.675584 128.533L0.675583 128.599L0.675584 128.666L0.675584 128.733L0.675584 128.8L0.675584 128.867L0.675584 128.933L0.675583 129L0.675584 129.066L0.675584 129.133L0.675584 129.2L0.675563 129.258L0.675584 129.317L0.675584 129.384L0.675584 129.45L0.675585 129.517L0.675583 129.584L0.675584 129.651L0.675584 129.717L0.675584 129.784L0.675584 129.851L0.675584 129.918L0.675584 129.984L0.675584 130.051L0.675584 130.118L0.675584 130.185L0.675583 130.251L0.675584 130.318L0.675584 130.385L0.675584 130.452L0.675584 130.518L0.675584 130.585L0.675583 130.652L0.675564 130.71L0.675584 130.769L0.675584 130.836L0.675583 130.902L0.675584 130.969L0.675584 131.035L0.675584 131.102L0.675584 131.169L0.675584 131.236L0.675584 131.303L0.675584 131.369L0.675584 131.436L0.675583 131.503L0.675584 131.569L0.675584 131.636L0.675584 131.703L0.675584 131.77L0.675584 131.837L0.675583 131.903L0.675584 131.97L0.675584 132.037L0.675584 132.104L0.675563 132.162L0.675584 132.22L0.675584 132.287L0.675584 132.354L0.675584 132.421L0.675584 132.487L0.675584 132.554L0.675583 132.621L0.675584 132.687L0.675584 132.754L0.675584 132.821L0.675584 132.888L0.675584 132.955L0.675584 133.021L0.675584 133.088L0.675583 133.155L0.675584 133.221L0.675584 133.288L0.675584 133.355L0.675584 133.422L0.675584 133.489L0.675563 133.547L0.675584 133.605L0.675584 133.672L0.675584 133.739L0.675584 133.806L0.675583 133.872L0.675584 133.939L0.675584 134.006L0.675584 134.072L0.675584 134.139L0.675584 134.206L0.675584 134.273L0.675584 134.34L0.675583 134.406L0.675584 134.473L0.675584 134.54L0.675584 134.606L0.675584 134.673L0.675584 134.74L0.675584 134.807L0.675583 134.874L0.675584 134.94L0.675564 134.998L0.675584 135.057L0.675583 135.124L0.675584 135.19L0.675584 135.257L0.675584 135.324L0.675584 135.391L0.675584 135.458L0.675584 135.524L0.675583 135.591L0.675584 135.658C0.660858 140.922 4.1358 146.194 11.0962 150.216C24.9289 158.208 47.2883 158.208 61.021 150.216C67.8728 146.228 71.2893 141.011 71.2747 135.791V135.723V135.657V135.59V135.524V135.456V135.39V135.323V135.256V135.19L71.2747 135.131L71.2747 135.074V135.007V134.941V134.873V134.807V134.74V134.673V134.606V134.54V134.473V134.406V134.34V134.273V134.206V134.139V134.072V134.006V133.939V133.872V133.806V133.739L71.2747 133.681L71.2747 133.622V133.554V133.488V133.421V133.354V133.287V133.221V133.154V133.087V133.02V132.954V132.887V132.82V132.753V132.687V132.62V132.553V132.486V132.42V132.353L71.2747 132.294L71.2747 132.237V132.17V132.103V132.037V131.97V131.903V131.837V131.77V131.703V131.636V131.57V131.503V131.436V131.369V131.303V131.236V131.169V131.102V131.036V130.969V130.902L71.2747 130.844L71.2747 130.785V130.718V130.651V130.584V130.517V130.451V130.384V130.318V130.251V130.184V130.117V130.05V129.984V129.917V129.85V129.783V129.717V129.65V129.583V129.516V129.45L71.2747 129.391L71.2747 129.334V129.267V129.2V129.133V129.067V129V128.933V128.866V128.8V128.733V128.666V128.599V128.533V128.466V128.4V128.332V128.266V128.199V128.132V128.066V127.999L71.2747 127.941L71.2747 127.882V127.814V127.748V127.681V127.614V127.547V127.481V127.414V127.347V127.28V127.214V127.147V127.08V127.014V126.947V126.88V126.814V126.747V126.68V126.613V126.546L71.2747 126.488L71.2747 126.43V126.364V126.297V126.23V126.164V126.097V126.03V125.963V125.896V125.83V125.763V125.696V125.63V125.563V125.496V125.429V125.362V125.296V125.229V125.162V125.095L71.2747 125.037L71.2747 124.978V124.911V124.844V124.777V124.711V124.644V124.577V124.511V124.444V124.377V124.31V124.244V124.177V124.11V124.043V123.977V123.91V123.843V123.776V123.709V123.643L71.2747 123.584L71.2747 123.527V123.46V123.393V123.327V123.26V123.193V123.126V123.06V122.993V122.926V122.859V122.793V122.726L71.2747 122.663C71.2748 122.639 71.2748 122.615 71.2747 122.592Z" fill="url(#paint0_linear)"/>
<path d="M63.4238 110.203L63.3904 120.231C63.4071 116.143 60.7039 112.038 55.2976 108.918C44.5518 102.711 27.1816 102.711 16.5192 108.918C11.213 112.005 8.5599 116.026 8.54321 120.064L8.57659 110.036C8.59328 105.998 11.2464 101.96 16.5525 98.8898C27.2316 92.6826 44.5852 92.6826 55.331 98.8898C60.7206 102.01 63.4238 106.115 63.4238 110.203Z" fill="#3857CC"/>
<path d="M63.4238 110.202L63.3904 120.231C63.4071 116.142 60.7039 112.038 55.2977 108.917C54.2631 108.317 53.1618 107.783 52.0105 107.299L52.0439 97.2705C53.1952 97.7544 54.2965 98.2884 55.3311 98.8891C60.7207 102.009 63.4238 106.114 63.4238 110.202Z" fill="#3857CC"/>
<path d="M52.0437 97.271L52.0103 107.299C48.573 105.848 44.7018 104.93 40.7139 104.513L40.7472 94.4844C44.7352 94.9015 48.6064 95.8193 52.0437 97.271Z" fill="#3857CC"/>
<path d="M40.7305 94.4844L40.6971 104.513C33.3052 103.745 25.4961 104.746 19.2722 107.5L19.3056 97.4712C25.5462 94.718 33.3553 93.7168 40.7305 94.4844Z" fill="#3857CC"/>
<path d="M19.3056 97.4707L19.2722 107.499C18.3044 107.933 17.37 108.4 16.5023 108.917C14.3832 110.152 12.6812 111.537 11.4131 113.022L11.4465 102.994C12.7146 101.509 14.4166 100.124 16.5357 98.889C17.4201 98.3718 18.3545 97.9045 19.3056 97.4707Z" fill="#3857CC"/>
<path d="M11.4466 102.978L11.4132 113.006C9.51101 115.225 8.54321 117.645 8.54321 120.064L8.57659 110.036C8.57659 107.616 9.5277 105.197 11.4466 102.978Z" fill="#3857CC"/>
<path d="M71.9671 110.22L71.9337 119.547C71.9171 124.853 68.4297 130.143 61.4883 134.181C47.4887 142.324 24.7121 142.324 10.6124 134.181C3.52082 130.093 -0.0166273 124.703 5.87538e-05 119.347L0.033438 110.02C0.016752 115.392 3.5542 120.765 10.6458 124.853C24.7455 132.996 47.522 132.996 61.5216 124.853C68.4631 120.815 71.9505 115.526 71.9671 110.22Z" fill="#96AAC9"/>
<path d="M71.9673 110.221L71.9339 119.548C71.9172 122.719 70.6658 125.906 68.1628 128.809L68.1962 119.481C70.6991 116.578 71.9506 113.408 71.9673 110.221Z" fill="#0A1D33"/>
<path d="M68.196 119.481L68.1627 128.809C66.4941 130.745 64.2581 132.563 61.4715 134.182C60.3202 134.849 59.1021 135.467 57.834 136.034L57.8673 126.707C59.1355 126.139 60.3536 125.522 61.5049 124.854C64.2915 123.236 66.5274 121.417 68.196 119.481Z" fill="#0A1D33"/>
<path d="M57.8674 126.706L57.834 136.034C49.6745 139.654 39.4292 140.956 29.7346 139.955L29.768 130.627C39.4626 131.628 49.7079 130.327 57.8674 126.706Z" fill="#132943"/>
<path d="M29.7681 130.627L29.7347 139.954C24.4953 139.42 19.406 138.202 14.9175 136.3L14.9508 126.973C19.4394 128.875 24.5287 130.093 29.7681 130.627Z" fill="#0A1D33"/>
<path d="M14.9508 126.989L14.9174 136.317C13.4157 135.683 11.9807 134.982 10.6124 134.198C3.52082 130.109 -0.0166273 124.72 5.87538e-05 119.364L0.033438 110.036C0.016752 115.409 3.5542 120.782 10.6458 124.87C11.9974 125.638 13.4323 126.355 14.9508 126.989Z" fill="#0A1D33"/>
<path d="M61.3372 95.3854C75.437 103.528 75.5037 116.71 61.504 124.853C47.5044 132.996 24.7279 132.996 10.6282 124.853C-3.47155 116.71 -3.53828 103.528 10.4613 95.3854C24.4777 87.2426 47.2542 87.2426 61.3372 95.3854Z" fill="#0A2340"/>
<path fill-rule="evenodd" clip-rule="evenodd" d="M71.5992 95.5422C71.6147 90.2773 68.1398 85.0042 61.1786 80.982C47.3458 73.006 25.0031 73.006 11.2538 80.982C4.40224 84.9697 0.985709 90.1869 1.00005 95.4067C0.999984 95.4292 0.999984 95.4517 1.00005 95.4742L1.00005 95.541L1.00005 95.6076L1.00005 95.6741L1.00005 95.7409L1.00005 95.8077L1.00005 95.8745L1.00005 95.9413L1.00005 96.008L1.00005 96.075L1.00005 96.1416L1.00005 96.2081L1.00005 96.2749L1.00005 96.3418L1.00003 96.4001L1.00005 96.4584L1.00005 96.5252L1.00005 96.592L1.00005 96.6588L1.00005 96.7255L1.00005 96.7925L1.00005 96.8591L1.00005 96.9256L1.00005 96.9924L1.00005 97.0593L1.00005 97.1261L1.00005 97.1928L1.00005 97.2595L1.00005 97.3263L1.00005 97.393L1.00005 97.4596L1.00005 97.5264L1.00005 97.5931L1.00005 97.6599L1.00005 97.7269L1.00005 97.7935L1.00003 97.8518L1.00005 97.9102L1.00005 97.9769L1.00005 98.0437L1.00005 98.1104L1.00005 98.1771L1.00005 98.2439L1.00005 98.3106L1.00005 98.3774L1.00005 98.4444L1.00005 98.511L1.00005 98.5776L1.00005 98.6444L1.00005 98.7111L1.00005 98.7779L1.00005 98.8446L1.00005 98.9114L1.00005 98.9782L1.00005 99.0448L1.00005 99.1115L1.00005 99.1783L1.00005 99.245L1.00003 99.3035L1.00005 99.3619L1.00005 99.4286L1.00005 99.4953L1.00005 99.5621L1.00005 99.6289L1.00005 99.6959L1.00005 99.7625L1.00005 99.829L1.00005 99.8958L1.00005 99.9625L1.00005 100.029L1.00005 100.096L1.00005 100.163L1.00005 100.23L1.00005 100.296L1.00005 100.363L1.00005 100.43L1.00005 100.497L1.00005 100.563L1.00005 100.63L1.00005 100.697L1.00003 100.755L1.00005 100.814L1.00005 100.88L1.00005 100.947L1.00005 101.014L1.00005 101.08L1.00005 101.147L1.00005 101.214L1.00005 101.281L1.00005 101.348L1.00005 101.415L1.00005 101.481L1.00005 101.548L1.00005 101.614L1.00005 101.681L1.00005 101.748L1.00005 101.815L1.00005 101.882L1.00005 101.948L1.00005 102.015L1.00005 102.082L1.00005 102.148L1.00003 102.207L1.00005 102.265L1.00005 102.332L1.00005 102.399L1.00005 102.466L1.00005 102.532L1.00005 102.599L1.00005 102.666L1.00005 102.732L1.00005 102.799L1.00005 102.866L1.00005 102.933L1.00005 103L1.00005 103.066L1.00005 103.133L1.00005 103.2L1.00005 103.266L1.00005 103.333L1.00005 103.4L1.00005 103.467L1.00005 103.533L1.00005 103.6L1.00003 103.659L1.00005 103.717L1.00005 103.784L1.00005 103.851L1.00005 103.917L1.00005 103.984L1.00005 104.051L1.00005 104.117L1.00005 104.184L1.00005 104.251L1.00005 104.318L1.00005 104.385L1.00005 104.451L1.00005 104.518L1.00005 104.585L1.00005 104.651L1.00005 104.718L1.00005 104.785L1.00005 104.852L1.00005 104.918L1.00005 104.985L1.00005 105.052L1.00003 105.11L1.00005 105.169L1.00005 105.235L1.00005 105.302L1.00005 105.369L1.00005 105.436L1.00005 105.502L1.00005 105.569L1.00005 105.636L1.00005 105.703L1.00005 105.769L1.00005 105.836L1.00005 105.903L1.00005 105.97L1.00005 106.036L1.00005 106.103L1.00005 106.17L1.00005 106.237L1.00005 106.303L1.00005 106.37L1.00005 106.437L1.00003 106.495L1.00005 106.554L1.00005 106.62L1.00005 106.687L1.00005 106.754L1.00005 106.82L1.00005 106.887L1.00005 106.954L1.00005 107.021L1.00005 107.088L1.00005 107.154L1.00005 107.221L1.00005 107.288L1.00005 107.354L1.00005 107.421L1.00005 107.488L1.00005 107.555L1.00005 107.622L1.00005 107.688L1.00005 107.755L1.00005 107.822L1.00005 107.888L1.00003 107.947L1.00005 108.005L1.00005 108.072L1.00005 108.139L1.00005 108.205L1.00005 108.272L1.00005 108.339L1.00005 108.406L1.00005 108.473L1.00005 108.539L1.00005 108.606C0.985318 113.87 4.46026 119.142 11.4206 123.164C25.2534 131.157 47.6128 131.157 61.3454 123.164C68.1972 119.176 71.6138 113.959 71.5992 108.739V108.672V108.605V108.538V108.472V108.405V108.338V108.271V108.205V108.138L71.5992 108.079L71.5991 108.022V107.955V107.889V107.822V107.755V107.688V107.622V107.554V107.488V107.422V107.355V107.288V107.221V107.154V107.088V107.021V106.954V106.888V106.821V106.754V106.687L71.5992 106.629L71.5992 106.57V106.502V106.436V106.369V106.302V106.236V106.169V106.102V106.035V105.969V105.902V105.835V105.768V105.702V105.635V105.568V105.501V105.435V105.368V105.301L71.5992 105.243L71.5991 105.185V105.119V105.052V104.985V104.918V104.852V104.785V104.718V104.651V104.585V104.518V104.451V104.384V104.318V104.251V104.184V104.117V104.051V103.984V103.917V103.85L71.5992 103.792L71.5992 103.733V103.666V103.599V103.532V103.466V103.399V103.333V103.266V103.199V103.132V103.065V102.998V102.932V102.865V102.798V102.732V102.665V102.598V102.531V102.464V102.398L71.5992 102.339L71.5991 102.282V102.215V102.148V102.082V102.015V101.948V101.881V101.815V101.748V101.681V101.615V101.548V101.481V101.414V101.348V101.281V101.214V101.147V101.081V101.014V100.947L71.5992 100.889L71.5992 100.83V100.763V100.696V100.629V100.562V100.495V100.429V100.362V100.296V100.229V100.162V100.095V100.028V99.9615V99.8952V99.8285V99.7615V99.6947V99.628V99.5611V99.4946L71.5992 99.436L71.5991 99.3785V99.3118V99.2449V99.1784V99.1117V99.045V98.9781V98.9114V98.8445V98.778V98.7111V98.6445V98.578V98.5108V98.4442V98.3774V98.3105V98.244V98.1772V98.1104V98.0438L71.5992 97.9855L71.5992 97.9265V97.8594V97.7925V97.7257V97.659V97.5921V97.5256V97.4589V97.3922V97.3253V97.2588V97.1919V97.1249V97.0582V96.9917V96.9252V96.8581V96.7914V96.7246V96.6577V96.5911L71.5992 96.5325L71.5991 96.4755V96.4083V96.3416V96.2752V96.2086V96.1415V96.0748V96.008V95.9411V95.8745V95.8076V95.7412V95.6746V95.6076C71.5992 95.5858 71.5992 95.564 71.5992 95.5422Z" fill="url(#paint1_linear)"/>
<path d="M63.4238 83.4725L63.3904 93.5008C63.4071 89.4127 60.7039 85.3079 55.2976 82.1876C44.5518 75.9804 27.1816 75.9804 16.5192 82.1876C11.213 85.2746 8.5599 89.2959 8.54321 93.334L8.57659 83.3056C8.59328 79.2676 11.2464 75.2296 16.5525 72.1593C27.2316 65.9521 44.5852 65.9521 55.331 72.1593C60.7206 75.2963 63.4238 79.3844 63.4238 83.4725Z" fill="#3857CC"/>
<path d="M63.4238 83.4727L63.3904 93.5011C63.4071 89.413 60.7039 85.3082 55.2977 82.1879C54.2631 81.5872 53.1618 81.0532 52.0105 80.5693L52.0439 70.541C53.1952 71.0249 54.2965 71.5589 55.3311 72.1596C60.7207 75.2966 63.4238 79.3846 63.4238 83.4727Z" fill="#3857CC"/>
<path d="M52.044 70.5405L52.0106 80.5688C48.5732 79.1171 44.7021 78.1994 40.7141 77.7822L40.7475 67.7539C44.7354 68.1711 48.6066 69.1055 52.044 70.5405Z" fill="#3857CC"/>
<path d="M40.7308 67.7542L40.6974 77.7825C33.3054 77.015 25.4964 78.0162 19.2725 80.7694L19.3058 70.741C25.5464 68.0045 33.3555 67.0033 40.7308 67.7542Z" fill="#3857CC"/>
<path d="M19.3058 70.7578L19.2725 80.7861C18.3047 81.22 17.3703 81.6872 16.5026 82.2045C14.3835 83.4392 12.6815 84.8242 11.4133 86.3092L11.4467 76.2809C12.7149 74.7958 14.4168 73.4109 16.536 72.1761C17.4203 71.6588 18.3547 71.175 19.3058 70.7578Z" fill="#3857CC"/>
<path d="M11.4466 76.2637L11.4132 86.292C9.51101 88.5113 8.54321 90.9307 8.54321 93.3502L8.57659 83.3219C8.57659 80.9024 9.5277 78.4829 11.4466 76.2637Z" fill="#3857CC"/>
<path d="M71.9671 83.504L71.9337 92.8315C71.9171 98.1377 68.4297 103.427 61.4883 107.465C47.4887 115.608 24.7121 115.608 10.6124 107.465C3.52082 103.377 -0.0166273 97.9875 5.87538e-05 92.6313L0.033438 83.3037C0.016752 88.6766 3.5542 94.0495 10.6458 98.1376C24.7455 106.28 47.522 106.28 61.5216 98.1376C68.4631 94.0829 71.9505 88.7934 71.9671 83.504Z" fill="#96AAC9"/>
<path d="M71.9673 83.5049L71.9339 92.8324C71.9172 96.0028 70.6658 99.1898 68.1628 102.093L68.1962 92.7656C70.6991 89.8456 71.9506 86.6752 71.9673 83.5049Z" fill="#0A1D33"/>
<path d="M68.196 92.749L68.1627 102.077C66.4941 104.012 64.2581 105.831 61.4715 107.449C60.3202 108.117 59.1021 108.734 57.834 109.302L57.8673 99.9741C59.1355 99.4068 60.3536 98.7894 61.5049 98.1219C64.2915 96.5201 66.5274 94.7013 68.196 92.749Z" fill="#0A1D33"/>
<path d="M57.8674 99.9746L57.834 109.302C49.6745 112.923 39.4292 114.225 29.7346 113.223L29.768 103.896C39.4626 104.914 49.7079 103.595 57.8674 99.9746Z" fill="#132943"/>
<path d="M29.7681 103.912L29.7347 113.24C24.4953 112.706 19.406 111.488 14.9175 109.585L14.9508 100.258C19.4394 102.16 24.5287 103.361 29.7681 103.912Z" fill="#0A1D33"/>
<path d="M14.9508 100.258L14.9174 109.585C13.4157 108.951 11.9807 108.25 10.6124 107.45C3.52082 103.361 -0.0166273 97.9718 5.87538e-05 92.6156L0.033438 83.2881C0.016752 88.661 3.5542 94.0339 10.6458 98.122C11.9974 98.9229 13.4323 99.6238 14.9508 100.258Z" fill="#0A1D33"/>
<path d="M61.3372 68.6716C75.437 76.8144 75.5037 89.9964 61.504 98.1392C47.5044 106.282 24.7279 106.282 10.6282 98.1392C-3.47155 89.9964 -3.53828 76.8144 10.4613 68.6716C24.4777 60.5288 47.2542 60.5288 61.3372 68.6716Z" fill="#0A2340"/>
<path fill-rule="evenodd" clip-rule="evenodd" d="M71.2747 68.6953C71.2889 63.4313 67.814 58.1595 60.8541 54.138C47.0213 46.1454 24.6787 46.1454 10.9293 54.138C4.07644 58.1265 0.65991 63.345 0.675595 68.5658C0.675539 68.5867 0.675537 68.6076 0.67559 68.6284L0.675583 68.6972L0.675584 68.7637L0.675584 68.8304L0.675584 68.8974L0.675584 68.9642L0.675563 69.0225L0.675584 69.0807L0.675584 69.1475L0.675584 69.2143L0.675584 69.2811L0.675584 69.348L0.675583 69.4147L0.675584 69.4812L0.675584 69.5479L0.675584 69.6149L0.675584 69.6816L0.675584 69.7483L0.675584 69.8151L0.675584 69.882L0.675583 69.9487L0.675584 70.0151L0.675584 70.0819L0.675584 70.1489L0.675584 70.2156L0.675584 70.2824L0.675584 70.3492L0.675583 70.4157L0.675564 70.474L0.675584 70.5326L0.675584 70.5995L0.675583 70.6662L0.675584 70.7326L0.675584 70.7994L0.675584 70.8664L0.675584 70.9331L0.675584 70.9999L0.675584 71.0667L0.675584 71.1333L0.675584 71.2L0.675584 71.2666L0.675584 71.3334L0.675584 71.4002L0.675584 71.467L0.675584 71.5339L0.675584 71.6007L0.675583 71.6672L0.675584 71.7338L0.675584 71.8008L0.675584 71.8675L0.675563 71.9258L0.675584 71.9841L0.675584 72.0509L0.675584 72.1177L0.675584 72.1845L0.675584 72.2514L0.675584 72.3182L0.675583 72.3847L0.675584 72.4513L0.675584 72.5183L0.675584 72.5851L0.675584 72.6517L0.675584 72.7185L0.675584 72.7853L0.675584 72.852L0.675583 72.9187L0.675584 72.9853L0.675584 73.0521L0.675584 73.1189L0.675584 73.1858L0.675584 73.2526L0.675583 73.3191L0.675564 73.3774L0.675584 73.436L0.675584 73.5028L0.675584 73.5694L0.675584 73.636L0.675584 73.7028L0.675584 73.7698L0.675584 73.8365L0.675584 73.9032L0.675584 73.9699L0.675584 74.0367L0.675584 74.1035L0.675583 74.1702L0.675584 74.2368L0.675584 74.3036L0.675584 74.3704L0.675584 74.4373L0.675584 74.5041L0.675583 74.5706L0.675584 74.6372L0.675584 74.704L0.675584 74.7708L0.675563 74.8292L0.675584 74.8875L0.675584 74.9543L0.675584 75.0212L0.675584 75.088L0.675584 75.1547L0.675584 75.2213L0.675584 75.2881L0.675584 75.3548L0.675584 75.4216L0.675584 75.4884L0.675584 75.5551L0.675584 75.6219L0.675584 75.6886L0.675584 75.7554L0.675583 75.8221L0.675584 75.8887L0.675584 75.9555L0.675584 76.0223L0.675584 76.0892L0.675584 76.156L0.675584 76.2228L0.675563 76.2811L0.675584 76.3394L0.675584 76.4061L0.675584 76.4728L0.675584 76.5396L0.675584 76.6063L0.675584 76.6731L0.675584 76.7399L0.675584 76.8065L0.675584 76.8733L0.675584 76.9401L0.675584 77.0069L0.675583 77.0735L0.675584 77.1402L0.675584 77.207L0.675584 77.2737L0.675584 77.3405L0.675584 77.4073L0.675584 77.4742L0.675583 77.5409L0.675584 77.6074L0.675584 77.6741L0.675563 77.7326L0.675584 77.7909L0.675584 77.8577L0.675584 77.9245L0.675584 77.9912L0.675584 78.058L0.675584 78.1248L0.675584 78.1916L0.675584 78.2582L0.675584 78.3249L0.675584 78.3917L0.675584 78.4585L0.675584 78.5252L0.675584 78.592L0.675584 78.6588L0.675584 78.7257L0.675583 78.7924L0.675584 78.8588L0.675584 78.9256L0.675584 78.9924L0.675584 79.0592L0.675583 79.1258L0.675564 79.1841L0.675584 79.2427L0.675584 79.3095L0.675584 79.3763L0.675583 79.4429L0.675584 79.5096L0.675584 79.5763L0.675584 79.6431L0.675584 79.7101L0.675584 79.7769L0.675584 79.8435L0.675584 79.9103L0.675584 79.9771L0.675584 80.0437L0.675584 80.1103L0.675584 80.1771L0.675584 80.2439L0.675584 80.3107L0.675583 80.3773L0.675584 80.444L0.675584 80.5107L0.675584 80.5775L0.675564 80.6361L0.675583 80.6944L0.675584 80.761L0.675584 80.8278L0.675584 80.8946L0.675584 80.9614L0.675584 81.0282L0.675583 81.0948L0.675584 81.1615L0.675584 81.2282L0.675584 81.295L0.675584 81.3618L0.675584 81.4286L0.675584 81.4954L0.675584 81.5622L0.675583 81.6288L0.675584 81.6955L0.675584 81.7622C0.66086 87.0265 4.13581 92.2988 11.0962 96.3205C24.9289 104.313 47.2883 104.313 61.021 96.3205C67.8728 92.3327 71.2893 87.1152 71.2747 81.8952V81.8279V81.7615V81.6949V81.6279V81.5613V81.4944V81.4277V81.3608V81.2941V81.2274V81.1609V81.0939V81.0273V80.9604V80.8937V80.8269L71.2747 80.7688L71.2747 80.711V80.6443V80.5775V80.5108V80.4443V80.3773V80.3107V80.2438V80.1773V80.1106V80.0438V79.977V79.9104V79.8436V79.7766V79.7098V79.6431V79.5764V79.5099V79.4429V79.3763L71.2747 79.3177L71.2747 79.2589V79.1917V79.1251V79.0583V78.9914V78.925V78.8584V78.7913V78.7246V78.6579V78.591V78.5243V78.4574V78.3909V78.3242V78.2575V78.1906V78.1239V78.057V77.9903V77.9234L71.2747 77.8652L71.2747 77.8077V77.7408V77.6745V77.6078V77.5407V77.474V77.4073V77.3404V77.2738V77.207V77.1406V77.0735V77.0069V76.94V76.8735V76.8066V76.7398V76.6731V76.6062V76.5397V76.4729L71.2747 76.4147L71.2747 76.3559V76.2896V76.2227V76.1557V76.089V76.0222V75.9555V75.8891V75.822V75.7555V75.6885V75.622V75.5551V75.4883V75.4216V75.3547V75.2882V75.2215V75.1548V75.0877V75.021L71.2747 74.963L71.2747 74.9039V74.8363V74.77V74.703V74.6368V74.5699V74.5029V74.4362V74.3695V74.3027V74.2363V74.1692V74.1026V74.0357V73.9692V73.9024V73.8354V73.7686V73.702V73.6354V73.5686L71.2747 73.5098L71.2747 73.4526V73.3862V73.3193V73.2524V73.1856V73.1189V73.0521V72.9857V72.9186V72.8521V72.7851V72.7187V72.6517V72.5848V72.5182V72.4518V72.3849V72.318V72.2512V72.1845V72.1176L71.2747 72.0596L71.2747 72.0006V71.9332V71.8665V71.7997V71.7334V71.6665V71.5996V71.5328V71.4661V71.3992V71.3327V71.266V71.1993V71.1325V71.0657V70.999V70.932V70.8652V70.7988V70.7322V70.6651L71.2747 70.6065L71.2747 70.5492V70.4828V70.4159V70.3491V70.2824V70.2154V70.1487V70.0822V70.0156V69.9485V69.8818V69.8152V69.7484V69.6814V69.6147V69.5482V69.4816V69.4145V69.3478V69.2811V69.2142L71.2747 69.1562L71.2747 69.0972V69.0298V68.9631V68.8962V68.8298L71.2747 68.7665C71.2748 68.7427 71.2748 68.719 71.2747 68.6953Z" fill="url(#paint2_linear)"/>
<path d="M63.4238 56.9246L63.3904 66.953C63.4071 62.8649 60.7039 58.7601 55.2976 55.6398C44.5518 49.4326 27.1816 49.4326 16.5192 55.6398C11.213 58.7267 8.5599 62.7481 8.54321 66.7861L8.57659 56.7578C8.59328 52.7198 11.2464 48.6817 16.5525 45.6115C27.2316 39.4042 44.5852 39.4042 55.331 45.6115C60.7206 48.7318 63.4238 52.8199 63.4238 56.9246Z" fill="#3857CC"/>
<path d="M63.4238 56.9259L63.3904 66.9542C63.4071 62.8661 60.7039 58.7613 55.2977 55.641C54.2631 55.0403 53.1618 54.5064 52.0105 54.0225L52.0439 43.9941C53.1952 44.478 54.2965 45.012 55.3311 45.6127C60.7207 48.733 63.4238 52.8211 63.4238 56.9259Z" fill="#3857CC"/>
<path d="M52.0437 43.9936L52.0103 54.0219C48.573 52.5702 44.7018 51.6525 40.7139 51.2354L40.7472 41.207C44.7352 41.6075 48.6064 42.5419 52.0437 43.9936Z" fill="#3857CC"/>
<path d="M40.7305 41.207L40.6971 51.2353C33.3052 50.4678 25.4961 51.469 19.2722 54.2222L19.3056 44.1938C25.5462 41.4406 33.3553 40.4395 40.7305 41.207Z" fill="#3857CC"/>
<path d="M19.3056 44.1943L19.2722 54.2227C18.3044 54.6565 17.37 55.1237 16.5023 55.641C14.3832 56.8758 12.6812 58.2607 11.4131 59.7458L11.4465 49.7175C12.7146 48.2324 14.4166 46.8474 16.5357 45.6127C17.4201 45.0954 18.3545 44.6282 19.3056 44.1943Z" fill="#3857CC"/>
<path d="M11.4466 49.7002L11.4132 59.7285C9.51101 61.9478 8.54321 64.3673 8.54321 66.7868L8.57659 56.7584C8.57659 54.3389 9.5277 51.9194 11.4466 49.7002Z" fill="#3857CC"/>
<path d="M71.9671 56.9414L71.9337 66.269C71.9171 71.5751 68.4297 76.8646 61.4883 80.9027C47.4887 89.0455 24.7121 89.0455 10.6124 80.9027C3.52082 76.8146 -0.0166273 71.425 5.87538e-05 66.0687L0.033438 56.7412C0.016752 62.1141 3.5542 67.487 10.6458 71.5751C24.7455 79.7179 47.522 79.7179 61.5216 71.5751C68.4631 67.5371 71.9505 62.2476 71.9671 56.9414Z" fill="#96AAC9"/>
<path d="M71.9673 56.9414L71.9339 66.2689C71.9172 69.4393 70.6658 72.6263 68.1628 75.5297L68.1962 66.2022C70.6991 63.2988 71.9506 60.1284 71.9673 56.9414Z" fill="#0A1D33"/>
<path d="M68.196 66.2021L68.1627 75.5297C66.4941 77.4653 64.2581 79.284 61.4715 80.9026C60.3202 81.57 59.1021 82.1874 57.834 82.7547L57.8673 73.4272C59.1355 72.8599 60.3536 72.2425 61.5049 71.5751C64.2915 69.9565 66.5274 68.1377 68.196 66.2021Z" fill="#0A1D33"/>
<path d="M57.8674 73.4277L57.834 82.7552C49.6745 86.3761 39.4292 87.6777 29.7346 86.6765L29.768 77.349C39.4626 78.3501 49.7079 77.0486 57.8674 73.4277Z" fill="#132943"/>
<path d="M29.7681 77.3486L29.7347 86.6761C24.4953 86.1422 19.406 84.9241 14.9175 83.0218L14.9508 73.6943C19.4394 75.5965 24.5287 76.8146 29.7681 77.3486Z" fill="#0A1D33"/>
<path d="M14.9508 73.6943L14.9174 83.0218C13.4157 82.3877 11.9807 81.6869 10.6124 80.9027C3.52082 76.8146 -0.0166273 71.425 5.87538e-05 66.0687L0.033438 56.7412C0.016752 62.1141 3.5542 67.487 10.6458 71.5751C11.9974 72.3594 13.4323 73.0602 14.9508 73.6943Z" fill="#0A1D33"/>
<path d="M61.3372 42.1071C75.437 50.2499 75.5037 63.4319 61.504 71.5747C47.5044 79.7175 24.7279 79.7175 10.6282 71.5747C-3.47155 63.4319 -3.53828 50.2499 10.4613 42.1071C24.4777 33.9643 47.2542 33.9643 61.3372 42.1071Z" fill="#0A2340"/>
<path d="M141.424 129.501L141.39 139.529C141.407 135.441 138.704 131.336 133.298 128.216C122.552 122.009 105.182 122.009 94.5192 128.216C89.213 131.303 86.5599 135.324 86.5432 139.362L86.5766 129.334C86.5933 125.296 89.2463 121.258 94.5525 118.188C105.232 111.98 122.585 111.98 133.331 118.188C138.737 121.308 141.44 125.413 141.424 129.501Z" fill="#3857CC"/>
<path d="M141.424 129.501L141.39 139.529C141.407 135.441 138.704 131.337 133.298 128.216C132.263 127.616 131.162 127.082 130.01 126.598L130.044 116.569C131.195 117.053 132.297 117.587 133.331 118.188C138.737 121.308 141.44 125.413 141.424 129.501Z" fill="#3857CC"/>
<path d="M130.044 116.569L130.011 126.597C126.573 125.162 122.702 124.228 118.714 123.811L118.747 113.782C122.752 114.199 126.623 115.117 130.044 116.569Z" fill="#3857CC"/>
<path d="M118.747 113.782L118.714 123.811C111.322 123.043 103.513 124.044 97.2891 126.797L97.3224 116.769C103.546 114.016 111.372 113.015 118.747 113.782Z" fill="#3857CC"/>
<path d="M97.3225 116.785L97.2891 126.813C96.3213 127.247 95.3869 127.715 94.5192 128.232C92.4001 129.467 90.6981 130.852 89.4299 132.337L89.4633 122.308C90.7315 120.823 92.4334 119.438 94.5526 118.203C95.4369 117.67 96.3547 117.202 97.3225 116.785Z" fill="#3857CC"/>
<path d="M89.4466 122.292L89.4132 132.32C87.511 134.54 86.5432 136.959 86.5432 139.379L86.5766 129.35C86.5933 126.914 87.5444 124.495 89.4466 122.292Z" fill="#3857CC"/>
<path d="M149.983 129.518L149.95 138.845C149.933 144.151 146.446 149.441 139.504 153.479C125.505 161.622 102.728 161.622 88.6285 153.479C81.537 149.391 77.9995 144.001 78.0162 138.645L78.0496 129.317C78.0329 134.69 81.5703 140.063 88.6619 144.151C102.762 152.294 125.538 152.294 139.538 144.151C146.479 140.113 149.967 134.824 149.983 129.518Z" fill="#96AAC9"/>
<path d="M149.984 129.518L149.95 138.845C149.934 142.015 148.682 145.203 146.179 148.106L146.213 138.778C148.715 135.875 149.967 132.705 149.984 129.518Z" fill="#96AAC9"/>
<path d="M146.213 138.777L146.18 148.105C144.511 150.04 142.275 151.859 139.488 153.478C138.337 154.145 137.119 154.763 135.851 155.33L135.884 146.002C137.152 145.435 138.37 144.818 139.522 144.15C142.308 142.532 144.544 140.713 146.213 138.777Z" fill="#96AAC9"/>
<path d="M135.884 146.003L135.851 155.33C127.691 158.951 117.446 160.253 107.751 159.252L107.785 149.924C117.463 150.925 127.708 149.624 135.884 146.003Z" fill="#D9E1EE"/>
<path d="M107.785 149.94L107.751 159.268C102.512 158.734 97.4226 157.516 92.9341 155.614L92.9675 146.286C97.456 148.172 102.545 149.39 107.785 149.94Z" fill="#96AAC9"/>
<path d="M92.9508 146.286L92.9174 155.614C91.4157 154.98 89.964 154.279 88.6124 153.494C81.5208 149.406 77.9834 144.017 78.0001 138.661L78.0334 129.333C78.0167 134.706 81.5542 140.079 88.6457 144.167C90.014 144.934 91.449 145.652 92.9508 146.286Z" fill="#0A1D33"/>
<path d="M139.355 114.683C153.455 122.826 153.522 136.008 139.522 144.151C125.522 152.294 102.746 152.294 88.646 144.151C74.5463 136.008 74.4796 122.826 88.4792 114.683C102.495 106.557 125.272 106.557 139.355 114.683Z" fill="#0A2340"/>
<path fill-rule="evenodd" clip-rule="evenodd" d="M149.292 114.455C149.305 109.192 145.83 103.921 138.871 99.8999C125.038 91.924 102.695 91.924 88.9462 99.8999C82.0926 103.889 78.6761 109.108 78.6924 114.329C78.6924 114.351 78.6924 114.372 78.6925 114.393L78.6925 114.459L78.6925 114.526L78.6925 114.592L78.6925 114.659L78.6925 114.726L78.6925 114.793L78.6925 114.859L78.6925 114.926L78.6925 114.993L78.6925 115.059L78.6925 115.126L78.6925 115.193L78.6925 115.26L78.6925 115.326L78.6925 115.393L78.6925 115.46L78.6925 115.527L78.6925 115.593L78.6924 115.652L78.6925 115.71L78.6925 115.777L78.6925 115.844L78.6925 115.91L78.6925 115.977L78.6925 116.044L78.6925 116.111L78.6925 116.178L78.6925 116.244L78.6925 116.311L78.6925 116.378L78.6925 116.444L78.6925 116.511L78.6925 116.578L78.6925 116.645L78.6925 116.712L78.6925 116.778L78.6925 116.845L78.6925 116.912L78.6925 116.978L78.6925 117.045L78.6924 117.104L78.6925 117.162L78.6925 117.229L78.6925 117.295L78.6925 117.362L78.6925 117.429L78.6925 117.495L78.6925 117.562C78.6777 122.827 82.1526 128.099 89.1131 132.121C102.946 140.113 125.305 140.113 139.038 132.121C145.86 128.15 149.277 122.96 149.292 117.762V117.695V117.628V117.562V117.495V117.428V117.362V117.295L149.292 117.237L149.292 117.178V117.111V117.044V116.978V116.911V116.845V116.778V116.711V116.644V116.577V116.511V116.444V116.377V116.311V116.244V116.177V116.11V116.043V115.977V115.91V115.843L149.292 115.785L149.292 115.726V115.66V115.593V115.527V115.459V115.393V115.326V115.259V115.193V115.126V115.059V114.992V114.926V114.859V114.792V114.725V114.659V114.592V114.525C149.292 114.501 149.292 114.478 149.292 114.455Z" fill="url(#paint3_linear)"/>
<path d="M141.424 102.068L141.39 112.097C141.407 108.008 138.704 103.904 133.298 100.783C122.552 94.5761 105.182 94.5761 94.5192 100.783C89.213 103.87 86.5599 107.892 86.5432 111.93L86.5766 101.901C86.5933 97.8633 89.2463 93.8253 94.5525 90.755C105.232 84.5478 122.585 84.5478 133.331 90.755C138.737 93.8753 141.44 97.9801 141.424 102.068Z" fill="#3857CC"/>
<path d="M141.424 102.069L141.39 112.098C141.407 108.01 138.704 103.905 133.298 100.785C132.263 100.184 131.162 99.6499 130.01 99.166L130.044 89.1377C131.195 89.6216 132.297 90.1555 133.331 90.7562C138.737 93.8765 141.44 97.9813 141.424 102.069Z" fill="#3857CC"/>
<path d="M130.044 89.1372L130.011 99.1655C126.573 97.7305 122.702 96.7961 118.714 96.3789L118.747 86.3506C122.752 86.7677 126.623 87.6855 130.044 89.1372Z" fill="#3857CC"/>
<path d="M118.747 86.3506L118.714 96.3789C111.322 95.6113 103.513 96.6125 97.2891 99.3657L97.3224 89.3374C103.546 86.5842 111.372 85.583 118.747 86.3506Z" fill="#3857CC"/>
<path d="M97.3225 89.3535L97.2891 99.3818C96.3213 99.8157 95.3869 100.283 94.5192 100.8C92.4001 102.035 90.6981 103.42 89.4299 104.905L89.4633 94.8766C90.7315 93.3915 92.4334 92.0066 94.5526 90.7718C95.4369 90.2379 96.3547 89.7707 97.3225 89.3535Z" fill="#3857CC"/>
<path d="M89.4466 94.8604L89.4132 104.889C87.511 107.108 86.5432 109.527 86.5432 111.947L86.5766 101.919C86.5933 99.4824 87.5444 97.0629 89.4466 94.8604Z" fill="#3857CC"/>
<path d="M149.983 102.086L149.95 111.414C149.933 116.72 146.446 122.009 139.504 126.047C125.505 134.19 102.728 134.19 88.6285 126.047C81.537 121.959 77.9995 116.569 78.0162 111.213L78.0496 101.886C78.0329 107.259 81.5703 112.632 88.6619 116.72C102.762 124.862 125.538 124.862 139.538 116.72C146.479 112.682 149.967 107.392 149.983 102.086Z" fill="#96AAC9"/>
<path d="M149.984 102.085L149.95 111.412C149.934 114.583 148.682 117.77 146.179 120.673L146.213 111.346C148.715 108.442 149.967 105.272 149.984 102.085Z" fill="#0A1D33"/>
<path d="M146.213 111.346L146.18 120.673C144.511 122.609 142.275 124.428 139.488 126.046C138.337 126.714 137.119 127.331 135.851 127.898L135.884 118.571C137.152 118.003 138.37 117.386 139.522 116.719C142.308 115.1 144.544 113.281 146.213 111.346Z" fill="#96AAC9"/>
<path d="M135.884 118.571L135.851 127.899C127.691 131.52 117.446 132.821 107.751 131.82L107.785 122.493C117.463 123.494 127.708 122.192 135.884 118.571Z" fill="#D9E1EE"/>
<path d="M107.785 122.509L107.751 131.836C102.512 131.302 97.4226 130.084 92.9341 128.182L92.9675 118.854C97.456 120.74 102.545 121.958 107.785 122.509Z" fill="#96AAC9"/>
<path d="M92.9508 118.854L92.9174 128.182C91.4157 127.548 89.964 126.847 88.6124 126.063C81.5208 121.975 77.9834 116.585 78.0001 111.229L78.0334 101.901C78.0167 107.274 81.5542 112.647 88.6457 116.735C90.014 117.503 91.449 118.22 92.9508 118.854Z" fill="#0A1D33"/>
<path d="M139.355 87.2518C153.455 95.3946 153.522 108.577 139.522 116.719C125.522 124.862 102.746 124.862 88.646 116.719C74.5463 108.577 74.4796 95.3946 88.4792 87.2518C102.495 79.1257 125.272 79.1257 139.355 87.2518Z" fill="#0A2340"/>
<path fill-rule="evenodd" clip-rule="evenodd" d="M149.292 87.0211C149.304 81.7583 145.829 76.4879 138.871 72.4673C125.038 64.4914 102.695 64.4914 88.9462 72.4673C82.0924 76.4563 78.6758 81.6756 78.6924 86.8972C78.6924 86.918 78.6924 86.9388 78.6925 86.9596L78.6925 87.0261L78.6925 87.0927L78.6925 87.1596L78.6925 87.2264L78.6925 87.2932L78.6925 87.36L78.6925 87.4268L78.6925 87.4936L78.6925 87.5601L78.6925 87.6267L78.6925 87.6935L78.6925 87.7603L78.6925 87.8272L78.6925 87.894L78.6925 87.9608L78.6925 88.0274L78.6925 88.094L78.6925 88.1608L78.6924 88.2193L78.6925 88.2776L78.6925 88.3442L78.6925 88.4111L78.6925 88.4779L78.6925 88.5447L78.6925 88.6115L78.6925 88.6783L78.6925 88.7449L78.6925 88.8115L78.6925 88.8783L78.6925 88.945L78.6925 89.0118L78.6925 89.0787L78.6925 89.1455L78.6925 89.2122L78.6925 89.2789L78.6925 89.3455L78.6925 89.4123L78.6925 89.4791L78.6925 89.5459L78.6925 89.6127L78.6924 89.671L78.6925 89.7292L78.6925 89.7962L78.6925 89.863L78.6925 89.9297L78.6925 89.9964L78.6925 90.063L78.6925 90.1298L78.6925 90.1966L78.6925 90.2634L78.6925 90.33L78.6925 90.3968L78.6925 90.4637L78.6925 90.5304L78.6925 90.5969L78.6925 90.6636L78.6925 90.7306L78.6925 90.7974L78.6925 90.8641L78.6925 90.9308L78.6925 90.9974L78.6925 91.0642L78.6924 91.1226L78.6925 91.1812L78.6925 91.2479L78.6925 91.3144L78.6925 91.3811L78.6925 91.4481L78.6925 91.5149L78.6925 91.5816L78.6925 91.6483L78.6925 91.7149L78.6925 91.7817L78.6925 91.8484L78.6925 91.9151L78.6925 91.9821L78.6925 92.0489L78.6925 92.1156L78.6925 92.1823L78.6925 92.2487L78.6925 92.3155L78.6925 92.3825L78.6925 92.4493L78.6925 92.516L78.6924 92.5743L78.6925 92.6326L78.6925 92.6996L78.6925 92.7663L78.6925 92.8331L78.6925 92.8998L78.6925 92.9664L78.6925 93.0332L78.6925 93.1L78.6925 93.1668L78.6925 93.2334L78.6925 93.3002L78.6925 93.3671L78.6925 93.4338C78.6778 98.698 82.1527 103.97 89.1131 107.992C102.946 115.985 125.305 115.985 139.038 107.992C145.86 104.021 149.277 98.831 149.292 93.6332V93.5668V93.5002V93.4331V93.3664V93.2998V93.233V93.1661V93.0995V93.0327V92.9663V92.8992V92.8327V92.7656L149.292 92.7074L149.292 92.6487V92.5824V92.5155V92.4485V92.3817V92.3153V92.2487V92.1818V92.1152V92.0481V91.9814V91.9148V91.8479V91.7812V91.7148V91.6478V91.5812V91.5141V91.4474V91.3809V91.3143L149.292 91.2556L149.292 91.1968V91.1307V91.0636V90.9974V90.9302V90.8637V90.7966V90.7299V90.6634V90.5968V90.5297V90.463V90.3964V90.3296V90.2628V90.1961V90.1293V90.0629V89.9959V89.9293V89.8622L149.292 89.804L149.292 89.7453V89.679V89.6121V89.5453V89.4786V89.4118V89.3454V89.2784V89.2118V89.1447V89.078V89.0114V88.9446V88.8779V88.8114V88.7444V88.6778V88.6108V88.5442V88.4771V88.4106L149.292 88.3507L149.292 88.2939V88.227V88.1604V88.0939V88.0269V87.9603V87.8932V87.8265V87.7597V87.693V87.6267V87.5597V87.493V87.4263V87.3594V87.2927V87.2256V87.1591V87.0927C149.292 87.0688 149.292 87.045 149.292 87.0211Z" fill="url(#paint4_linear)"/>
<path d="M141.424 75.3377L141.39 85.3661C141.407 81.278 138.704 77.1732 133.298 74.0529C122.552 67.8457 105.182 67.8457 94.5192 74.0529C89.213 77.1398 86.5599 81.1612 86.5432 85.1992L86.5766 75.1709C86.5933 71.1328 89.2463 67.0948 94.5525 64.0246C105.232 57.8173 122.585 57.8173 133.331 64.0246C138.737 67.1615 141.44 71.2496 141.424 75.3377Z" fill="#3857CC"/>
<path d="M141.424 75.338L141.39 85.3663C141.407 81.2782 138.704 77.1735 133.298 74.0532C132.263 73.4525 131.162 72.9185 130.01 72.4346L130.044 62.4062C131.195 62.8901 132.297 63.4241 133.331 64.0248C138.737 67.1618 141.44 71.2499 141.424 75.338Z" fill="#3857CC"/>
<path d="M130.044 62.4067L130.011 72.435C126.573 71 122.702 70.0656 118.714 69.6485L118.747 59.6201C122.752 60.0373 126.623 60.9717 130.044 62.4067Z" fill="#3857CC"/>
<path d="M118.747 59.6367L118.714 69.665C111.322 68.8975 103.513 69.8987 97.2891 72.6519L97.3224 62.6235C103.546 59.8703 111.372 58.8692 118.747 59.6367Z" fill="#3857CC"/>
<path d="M97.3225 62.624L97.2891 72.6524C96.3213 73.0862 95.3869 73.5534 94.5192 74.0707C92.4001 75.3054 90.6981 76.6904 89.4299 78.1755L89.4633 68.1471C90.7315 66.6621 92.4334 65.2771 94.5526 64.0424C95.4369 63.5251 96.3547 63.0579 97.3225 62.624Z" fill="#3857CC"/>
<path d="M89.4466 68.1299L89.4132 78.1582C87.511 80.3775 86.5432 82.797 86.5432 85.2164L86.5766 75.1881C86.5933 72.7686 87.5444 70.3491 89.4466 68.1299Z" fill="#3857CC"/>
<path d="M149.983 75.3711L149.95 84.6986C149.933 90.0048 146.446 95.2943 139.504 99.3323C125.505 107.475 102.728 107.475 88.6285 99.3323C81.537 95.2442 77.9995 89.8546 78.0162 84.4984L78.0496 75.1709C78.0329 80.5438 81.5703 85.9167 88.6619 90.0048C102.762 98.1476 125.538 98.1476 139.538 90.0048C146.479 85.9668 149.967 80.6606 149.983 75.3711Z" fill="#96AAC9"/>
<path d="M149.984 75.3711L149.95 84.6986C149.934 87.869 148.682 91.056 146.179 93.9594L146.213 84.6319C148.715 81.7285 149.967 78.5414 149.984 75.3711Z" fill="#0A1D33"/>
<path d="M146.213 84.6318L146.18 93.9594C144.511 95.8949 142.275 97.7137 139.488 99.3323C138.337 99.9997 137.119 100.617 135.851 101.184L135.884 91.8569C137.152 91.2896 138.37 90.6722 139.522 90.0048C142.308 88.3862 144.544 86.5674 146.213 84.6318Z" fill="#0A1D33"/>
<path d="M135.884 91.8574L135.851 101.185C127.691 104.806 117.446 106.107 107.751 105.106L107.785 95.7786C117.463 96.7798 127.708 95.4616 135.884 91.8574Z" fill="#132943"/>
<path d="M107.785 95.7783L107.751 105.106C102.512 104.572 97.4226 103.354 92.9341 101.452L92.9675 92.124C97.456 94.0262 102.545 95.2443 107.785 95.7783Z" fill="#0A1D33"/>
<path d="M92.9508 92.124L92.9174 101.451C91.4157 100.817 89.964 100.117 88.6124 99.3323C81.5208 95.2442 77.9834 89.8546 78.0001 84.4984L78.0334 75.1709C78.0167 80.5438 81.5542 85.9167 88.6457 90.0048C90.014 90.7891 91.449 91.4899 92.9508 92.124Z" fill="#0A1D33"/>
<path d="M139.355 60.5378C153.455 68.6806 153.522 81.8626 139.522 90.0054C125.522 98.1482 102.746 98.1482 88.646 90.0054C74.5463 81.8626 74.4796 68.6806 88.4792 60.5378C102.495 52.395 125.272 52.395 139.355 60.5378Z" fill="#0A2340"/>
<path fill-rule="evenodd" clip-rule="evenodd" d="M149.292 60.5573C149.304 55.2944 145.829 50.024 138.871 46.0034C125.038 38.0275 102.695 38.0275 88.9462 46.0034C82.0924 49.9925 78.6759 55.2117 78.6924 60.4333C78.6924 60.4541 78.6924 60.4749 78.6925 60.4957L78.6925 60.5623L78.6925 60.6291L78.6925 60.6961L78.6925 60.7627L78.6925 60.8292C78.6777 66.0935 82.1527 71.3658 89.1131 75.3875C102.946 83.3801 125.305 83.3801 139.038 75.3875C145.86 71.4166 149.277 66.2267 149.292 61.029V60.9622V60.8958V60.8292V60.7621V60.6954V60.6287C149.292 60.6049 149.292 60.5811 149.292 60.5573Z" fill="url(#paint5_linear)"/>
<path d="M141.424 48.7899L141.39 58.8182C141.407 54.7301 138.704 50.6253 133.298 47.505C122.552 41.2978 105.182 41.2978 94.5192 47.505C89.213 50.592 86.5599 54.6133 86.5432 58.6513L86.5766 48.623C86.5933 44.585 89.2463 40.5469 94.5525 37.4767C105.232 31.2695 122.585 31.2695 133.331 37.4767C138.737 40.597 141.44 44.7018 141.424 48.7899Z" fill="#3857CC"/>
<path d="M141.424 48.7901L141.39 58.8184C141.407 54.7303 138.704 50.6256 133.298 47.5053C132.263 46.9046 131.162 46.3706 130.01 45.8867L130.044 35.8584C131.195 36.3423 132.297 36.8763 133.331 37.477C138.737 40.5972 141.44 44.702 141.424 48.7901Z" fill="#3857CC"/>
<path d="M130.044 35.8579L130.011 45.8862C126.573 44.4512 122.702 43.5168 118.714 43.0996L118.747 33.0713C122.752 33.4884 126.623 34.4062 130.044 35.8579Z" fill="#3857CC"/>
<path d="M118.747 33.0713L118.714 43.0996C111.322 42.332 103.513 43.3332 97.2891 46.0864L97.3224 36.0581C103.546 33.3049 111.372 32.3037 118.747 33.0713Z" fill="#3857CC"/>
<path d="M97.3225 36.0576L97.2891 46.0859C96.3213 46.5198 95.3869 46.987 94.5192 47.5043C92.4001 48.739 90.6981 50.124 89.4299 51.6091L89.4633 41.5807C90.7315 40.0956 92.4334 38.7107 94.5526 37.4759C95.4369 36.9587 96.3547 36.4915 97.3225 36.0576Z" fill="#3857CC"/>
<path d="M89.4466 41.5811L89.4132 51.6094C87.511 53.8287 86.5432 56.2481 86.5432 58.6676L86.5766 48.6393C86.5933 46.2031 87.5444 43.7836 89.4466 41.5811Z" fill="#3857CC"/>
<path d="M149.983 48.8076L149.95 58.1352C149.933 63.4413 146.446 68.7308 139.504 72.7689C125.505 80.9117 102.728 80.9117 88.6285 72.7689C81.537 68.6808 77.9995 63.2912 78.0162 57.9349L78.0496 48.6074C78.0329 53.9803 81.5703 59.3533 88.6619 63.4413C102.762 71.5842 125.538 71.5842 139.538 63.4413C146.479 59.4033 149.967 54.1138 149.983 48.8076Z" fill="#96AAC9"/>
<path d="M149.984 48.8086L149.95 58.1361C149.934 61.3065 148.682 64.4935 146.179 67.3969L146.213 58.0694C148.715 55.166 149.967 51.9956 149.984 48.8086Z" fill="#0A1D33"/>
<path d="M146.213 58.0684L146.179 67.3959C144.511 69.3315 142.275 71.1502 139.488 72.7688C138.337 73.4362 137.119 74.0536 135.851 74.621L135.884 65.2934C137.152 64.7261 138.37 64.1087 139.522 63.4413C142.308 61.8227 144.544 60.0039 146.213 58.0684Z" fill="#0A1D33"/>
<path d="M135.884 65.2939L135.851 74.6215C127.691 78.2423 117.446 79.5439 107.751 78.5427L107.785 69.2152C117.463 70.2163 127.708 68.9148 135.884 65.2939Z" fill="#132943"/>
<path d="M107.785 69.2148L107.751 78.5423C102.512 78.0084 97.4226 76.7903 92.9341 74.8881L92.9675 65.5605C97.456 67.4628 102.545 68.6808 107.785 69.2148Z" fill="#0A1D33"/>
<path d="M92.9508 65.5771L92.9174 74.9046C91.4157 74.2705 89.964 73.5697 88.6124 72.7855C81.5208 68.6974 77.9834 63.3078 78.0001 57.9515L78.0334 48.624C78.0167 53.9969 81.5542 59.3699 88.6457 63.458C90.014 64.2255 91.449 64.943 92.9508 65.5771Z" fill="#0A1D33"/>
<path d="M139.355 33.9735C153.455 42.1163 153.522 55.2983 139.522 63.4411C125.522 71.5839 102.746 71.5839 88.646 63.4411C74.5463 55.2983 74.4796 42.1163 88.4792 33.9735C102.495 25.8474 125.272 25.8474 139.355 33.9735Z" fill="#0A2340"/>
<path d="M138.871 31.4037C152.704 39.3963 152.77 52.328 139.038 60.3206C125.305 68.3132 102.946 68.3132 89.113 60.3206C75.2803 52.328 75.2135 39.3963 88.9462 31.4037C102.695 23.411 125.038 23.411 138.871 31.4037Z" fill="#A337BF"/>
<path d="M141.424 20.9242L141.39 30.9525C141.407 26.8644 138.704 22.7596 133.298 19.6393C122.552 13.4321 105.182 13.4321 94.5192 19.6393C89.213 22.7263 86.5599 26.7476 86.5432 30.7856L86.5766 20.7573C86.5933 16.7193 89.2463 12.6812 94.5525 9.61098C105.232 3.40376 122.585 3.40376 133.331 9.61098C138.737 12.7313 141.44 16.8194 141.424 20.9242Z" fill="#3857CC"/>
<path d="M141.424 20.9244L141.39 30.9527C141.407 26.8646 138.704 22.7599 133.298 19.6396C132.263 19.0389 131.162 18.5049 130.01 18.021L130.044 7.99268C131.195 8.47657 132.297 9.0105 133.331 9.6112C138.737 12.7315 141.44 16.8196 141.424 20.9244Z" fill="#3857CC"/>
<path d="M130.044 7.97603L130.011 18.0044C126.573 16.5694 122.702 15.6349 118.714 15.2178L118.747 5.18945C122.752 5.60661 126.623 6.54102 130.044 7.97603Z" fill="#3857CC"/>
<path d="M118.747 5.20604L118.714 15.2344C111.322 14.4668 103.513 15.468 97.2891 18.2212L97.3224 8.19287C103.546 5.43966 111.372 4.43848 118.747 5.20604Z" fill="#3857CC"/>
<path d="M97.3225 8.19336L97.2891 18.2217C96.3213 18.6555 95.3869 19.1227 94.5192 19.64C92.4001 20.8748 90.6981 22.2597 89.4299 23.7448L89.4633 13.7164C90.7315 12.2314 92.4334 10.8464 94.5526 9.61166C95.4369 9.09439 96.3547 8.6272 97.3225 8.19336Z" fill="#3857CC"/>
<path d="M89.4466 13.6992L89.4132 23.7275C87.511 25.9468 86.5432 28.3663 86.5432 30.7858L86.5766 20.7574C86.5933 18.3379 87.5444 15.9185 89.4466 13.6992Z" fill="#3857CC"/>
<path d="M149.984 20.9404L149.95 30.2679C149.934 33.4383 148.682 36.6253 146.179 39.5287L146.213 30.2012C148.715 27.2978 149.967 24.1108 149.984 20.9404Z" fill="#96AAC9"/>
<path d="M146.213 30.2012L146.18 39.5287C144.511 41.4643 142.275 43.2831 139.488 44.9016C138.337 45.5691 137.119 46.1864 135.851 46.7538L135.884 37.4262C137.152 36.8589 138.37 36.2415 139.522 35.5741C142.308 33.9555 144.544 32.1368 146.213 30.2012Z" fill="#96AAC9"/>
<path fill-rule="evenodd" clip-rule="evenodd" d="M149.291 32.6965C149.306 27.432 145.832 22.1594 138.871 18.1375C125.038 10.1449 102.695 10.1449 88.9462 18.1375C82.0943 22.1254 78.6778 27.3429 78.6924 32.563C78.6924 32.5853 78.6924 32.6076 78.6924 32.6299L78.6924 32.6966L78.6924 32.7632L78.6924 32.8298L78.6924 32.8967L78.6924 32.9552L78.6924 33.0136L78.6924 33.0802L78.6924 33.1469L78.6924 33.2137L78.6924 33.2804L78.6924 33.3475L78.6924 33.4141L78.6924 33.4805L78.6924 33.5473L78.6924 33.6142L78.6924 33.681L78.6924 33.7477L78.6924 33.8144L78.6924 33.8812L78.6924 33.948L78.6924 34.0146L78.6924 34.0813L78.6924 34.1481L78.6924 34.2148L78.6924 34.2819L78.6924 34.3486L78.6924 34.4068L78.6924 34.4651L78.6924 34.5319L78.6924 34.5987L78.6924 34.6653L78.6924 34.732L78.6924 34.7988L78.6924 34.8655L78.6924 34.9324L78.6924 34.9994L78.6924 35.0661L78.6924 35.1327L78.6924 35.1996L78.6924 35.2662L78.6924 35.3327L78.6924 35.3995L78.6924 35.4663L78.6924 35.5331L78.6924 35.6L78.6924 35.6666L78.6924 35.7331L78.6924 35.7999L78.6924 35.8584L78.6924 35.9168L78.6924 35.9834L78.6924 36.0503L78.6924 36.1171L78.6924 36.1839L78.6924 36.2509L78.6924 36.3177L78.6924 36.3841L78.6924 36.4507L78.6924 36.5175L78.6924 36.5842L78.6924 36.651L78.6924 36.7179L78.6924 36.7848L78.6924 36.8516L78.6924 36.9181L78.6924 36.9847L78.6924 37.0515L78.6924 37.1183L78.6924 37.1853L78.6924 37.2521L78.6924 37.3104L78.6924 37.3687L78.6924 37.4355L78.6924 37.5022L78.6924 37.569L78.6924 37.6357L78.6924 37.7023L78.6924 37.7691L78.6924 37.8359L78.6924 37.9028L78.6924 37.9696L78.6924 38.0362L78.6924 38.103L78.6924 38.1695L78.6924 38.2362L78.6924 38.3031L78.6924 38.3699L78.6924 38.4366L78.6924 38.5034L78.6924 38.5701L78.6924 38.6367L78.6924 38.7035L78.6924 38.7619L78.6924 38.8205L78.6924 38.8871L78.6924 38.9538L78.6924 39.0206L78.6924 39.0873L78.6924 39.1541L78.6924 39.2209L78.6924 39.2875L78.6924 39.3542L78.6924 39.421L78.6924 39.4878L78.6924 39.5546L78.6924 39.6213L78.6924 39.6881L78.6924 39.7549L78.6924 39.8215L78.6924 39.8882L78.6924 39.9549L78.6924 40.0217L78.6924 40.0885L78.6924 40.1553L78.6924 40.2137L78.6924 40.272L78.6924 40.3388L78.6924 40.4056L78.6924 40.4723L78.6924 40.539L78.6924 40.6056L78.6924 40.6724L78.6924 40.7392L78.6924 40.806L78.6924 40.8728L78.6924 40.9396L78.6924 41.0063L78.6924 41.073L78.6924 41.1396L78.6924 41.2064L78.6924 41.2732L78.6924 41.34L78.6924 41.4067L78.6924 41.4736L78.6924 41.5403L78.6924 41.5986L78.6924 41.657L78.6924 41.7238L78.6924 41.7905L78.6924 41.8571L78.6924 41.9239L78.6924 41.9907L78.6924 42.0574L78.6924 42.1242L78.6924 42.1911L78.6924 42.2577L78.6924 42.3243L78.6924 42.3911L78.6924 42.4579L78.6924 42.5246L78.6924 42.5914L78.6924 42.6582L78.6924 42.725L78.6924 42.7916L78.6924 42.8583L78.6924 42.925L78.6924 42.9918L78.6924 43.0501L78.6924 43.1086L78.6924 43.1753L78.6924 43.2421L78.6924 43.3089L78.6924 43.3757L78.6924 43.4424L78.6924 43.5091L78.6924 43.5757L78.6924 43.6425L78.6924 43.7093L78.6924 43.7761L78.6924 43.8429L78.6924 43.9097L78.6924 43.9764L78.6924 44.0431L78.6924 44.1097L78.6924 44.1765L78.6924 44.2433L78.6924 44.3101L78.6924 44.3768L78.6924 44.4435L78.6924 44.5019L78.6924 44.5604L78.6924 44.6271L78.6924 44.6939L78.6924 44.7605L78.6924 44.8272L78.6924 44.894L78.6924 44.9607L78.6924 45.0275L78.6924 45.0942L78.6924 45.1608L78.6924 45.2277L78.6924 45.2944L78.6924 45.3611L78.6924 45.428L78.6924 45.4947L78.6924 45.5615L78.6924 45.6283L78.6924 45.6949C78.6777 50.9592 82.1527 56.2315 89.113 60.2533C102.946 68.2459 125.305 68.2459 139.038 60.2533C145.89 56.2654 149.306 51.048 149.291 45.8279V45.7607V45.6942V45.6273V45.5607V45.4936V45.427V45.3605V45.2934V45.2268V45.1602V45.0933V45.0266V44.9597V44.8932V44.8265V44.7598V44.6929L149.292 44.6345L149.291 44.577V44.5104V44.4436V44.3768V44.3101V44.2432V44.1767V44.11V44.0432V43.9764V43.9097V43.8427V43.7761V43.7092V43.6427V43.5759V43.5092V43.4424V43.3757V43.3088V43.2421L149.292 43.1838L149.291 43.125V43.0574V42.991V42.9242V42.8576V42.7908V42.724V42.6573V42.5904V42.5238V42.4569V42.3904V42.3238V42.2568V42.19V42.1233V42.0565V41.9898V41.923V41.8566V41.7896L149.292 41.7312L149.291 41.6737V41.6073V41.5402V41.4735V41.4067V41.3399V41.2732V41.2065V41.14V41.073V41.0064V40.9394V40.8728V40.8059V40.7392V40.6724V40.606V40.539V40.4724V40.4055L149.292 40.3475L149.291 40.2883V40.2208V40.1545V40.0874V40.0209V39.9541V39.8876V39.8206V39.754V39.6871V39.6205V39.5535V39.4868V39.4201V39.3536V39.2866V39.22V39.1531V39.0865V39.0197V38.9532L149.292 38.8943L149.291 38.837V38.7702V38.7036V38.637V38.5701V38.5035V38.4365V38.3698L149.291 38.303V38.2354V38.1689V38.1022V38.0354V37.9684V37.9017V37.835V37.7682V37.7017V37.6348V37.5682V37.5012L149.292 37.443L149.291 37.3856V37.3188V37.2518V37.185V37.1184L149.291 37.0515V36.9839V36.9175V36.8505V36.7835V36.7169V36.6501V36.5835V36.5166V36.4505V36.3834V36.3165V36.2496V36.1831V36.1159V36.0495L149.292 35.9908L149.291 35.9334V35.8667L149.291 35.8001V35.7323V35.6657V35.5989V35.5321V35.4654V35.3988V35.3324V35.2651V35.1989V35.1321V35.065V34.9981V34.9314V34.8645V34.798V34.7313V34.6646V34.5977L149.292 34.5394L149.291 34.4822V34.4155V34.3482V34.2816V34.2148V34.1481V34.0816V34.0147V33.948V33.8811V33.8146V33.7477V33.6808V33.614V33.5477V33.4811V33.4138V33.3473V33.2804V33.2137V33.1472L149.292 33.0888L149.291 33.0299V32.9635V32.8966V32.8303V32.7634C149.292 32.7411 149.292 32.7188 149.291 32.6965Z" fill="url(#paint6_linear)"/>
<path d="M149.984 20.9414L149.951 30.2689C149.934 35.5751 146.447 40.8646 139.505 44.9027C125.506 53.0455 102.729 53.0455 88.6295 44.9027C81.5379 40.8146 78.0005 35.425 78.0171 30.0687L78.0506 20.7412C78.0339 26.1141 81.5713 31.487 88.6629 35.5751C102.763 43.7179 125.539 43.7179 139.539 35.5751C146.48 31.5371 149.968 26.2476 149.984 20.9414Z" fill="#132943"/>
<path d="M107.785 41.3476L107.751 50.6751C102.512 50.1412 97.4226 48.9231 92.9341 47.0209L92.9675 37.6934C97.456 39.5956 102.545 40.8137 107.785 41.3476Z" fill="#0A1D33"/>
<path d="M92.9508 37.6934L92.9174 47.0209C91.4157 46.3868 89.964 45.686 88.6124 44.8851C81.5208 40.797 77.9834 35.4074 78.0001 30.0511L78.0334 20.7236C78.0167 26.0966 81.5542 31.4695 88.6457 35.5576C90.014 36.3585 91.449 37.0593 92.9508 37.6934Z" fill="#0A1D33"/>
<path d="M139.355 6.10711C153.455 14.2499 153.522 27.4319 139.522 35.5747C125.522 43.7175 102.746 43.7175 88.646 35.5747C74.5463 27.4319 74.4796 14.2499 88.4792 6.10711C102.495 -2.0357 125.272 -2.0357 139.355 6.10711Z" fill="#0A2340"/>
<path d="M150 20.5L149.967 29.8275C149.95 32.9979 148.203 36.185 145.7 39.0884L145.733 29.7609C148.236 26.8575 149.983 23.687 150 20.5Z" fill="#0A1D33"/>
<path d="M145.702 30L145.669 39.3275C144 41.2631 141.764 43.0819 138.978 44.7004C137.826 45.3679 136.608 45.9853 135.34 46.5526L135.373 37.2251C136.642 36.6578 137.86 36.0404 139.011 35.3729C141.798 33.7544 144.034 31.9356 145.702 30Z" fill="#0A1D33"/>
<path d="M150.091 175.972L150.058 186C150.075 181.912 147.371 177.807 141.965 174.687C131.219 168.479 113.849 168.479 103.187 174.687C97.8805 177.774 95.2274 181.795 95.2107 185.833L95.244 175.805C95.2607 171.767 97.9138 167.729 103.22 164.658C113.899 158.451 131.253 158.451 141.998 164.658C147.388 167.795 150.091 171.883 150.091 175.972Z" fill="#3857CC"/>
<path d="M150.091 175.972L150.058 186C150.075 181.912 147.371 177.807 141.965 174.687C140.931 174.086 139.829 173.552 138.678 173.068L138.711 163.04C139.863 163.524 140.964 164.058 141.998 164.659C147.388 167.796 150.091 171.884 150.091 175.972Z" fill="#3857CC"/>
<path d="M138.711 163.039L138.678 173.068C135.241 171.633 131.37 170.698 127.382 170.281L127.415 160.253C131.403 160.67 135.274 161.604 138.711 163.039Z" fill="#3857CC"/>
<path d="M127.398 160.253L127.365 170.282C119.973 169.514 112.164 170.515 105.94 173.268L105.973 163.24C112.214 160.503 120.023 159.502 127.398 160.253Z" fill="#3857CC"/>
<path d="M105.99 163.257L105.957 173.285C104.989 173.719 104.054 174.186 103.187 174.704C101.068 175.938 99.3656 177.323 98.0974 178.808L98.1308 168.78C99.399 167.295 101.101 165.91 103.22 164.675C104.088 164.158 105.022 163.691 105.99 163.257Z" fill="#3857CC"/>
<path d="M98.1141 168.763L98.0807 178.791C96.1785 181.01 95.2107 183.43 95.2107 185.849L95.244 175.821C95.244 173.401 96.1952 170.982 98.1141 168.763Z" fill="#3857CC"/>
<path d="M158.635 176.005L158.601 185.332C158.585 190.639 155.097 195.928 148.156 199.966C134.156 208.109 111.38 208.109 97.2799 199.966C90.1883 195.878 86.6509 190.505 86.6675 185.132L86.7009 175.805C86.6842 181.178 90.2216 186.551 97.3132 190.639C111.413 198.781 134.189 198.781 148.189 190.639C155.131 186.584 158.618 181.294 158.635 176.005Z" fill="#96AAC9"/>
<path d="M158.635 176.005L158.601 185.332C158.584 188.503 157.333 191.69 154.83 194.593L154.863 185.266C157.366 182.346 158.618 179.175 158.635 176.005Z" fill="#0A1D33"/>
<path d="M154.864 185.249L154.83 194.577C153.162 196.512 150.926 198.331 148.139 199.949C146.988 200.617 145.77 201.234 144.501 201.802L144.535 192.474C145.803 191.907 147.021 191.289 148.172 190.622C150.959 189.02 153.195 187.201 154.864 185.249Z" fill="#0A1D33"/>
<path d="M144.535 192.491L144.501 201.819C136.342 205.44 126.097 206.741 116.402 205.74L116.436 196.412C126.13 197.414 136.375 196.095 144.535 192.491Z" fill="#132943"/>
<path d="M116.436 196.412L116.402 205.74C111.163 205.206 106.074 203.988 101.585 202.085L101.618 192.758C106.107 194.66 111.196 195.861 116.436 196.412Z" fill="#0A1D33"/>
<path d="M101.618 192.758L101.585 202.085C100.083 201.451 98.6314 200.75 97.2799 199.966C90.1883 195.878 86.6509 190.505 86.6675 185.132L86.7009 175.805C86.6842 181.178 90.2216 186.551 97.3132 190.639C98.6648 191.423 100.1 192.124 101.618 192.758Z" fill="#0A1D33"/>
<path d="M148.005 161.171C162.104 169.313 162.171 182.495 148.172 190.638C134.172 198.781 111.395 198.781 97.2957 190.638C83.1959 182.495 83.1292 169.313 97.1288 161.171C111.145 153.028 133.922 153.028 148.005 161.171Z" fill="#0A2340"/>
<path fill-rule="evenodd" clip-rule="evenodd" d="M157.942 160.945C157.957 155.68 154.482 150.408 147.522 146.386C133.689 138.393 111.346 138.393 97.5968 146.386C90.7449 150.374 87.3283 155.592 87.3431 160.812C87.343 160.834 87.343 160.856 87.3431 160.878L87.3431 160.945L87.3431 161.011L87.3431 161.078L87.343 161.137L87.3431 161.196L87.3431 161.262L87.3431 161.329L87.3431 161.395L87.3431 161.462L87.3431 161.529L87.3431 161.596L87.3431 161.662L87.3431 161.729L87.3431 161.796L87.3431 161.863L87.3431 161.929L87.3431 161.996L87.3431 162.063L87.3431 162.13L87.3431 162.196L87.3431 162.263L87.3431 162.33L87.3431 162.397L87.3431 162.464L87.3431 162.53L87.343 162.589L87.3431 162.647L87.3431 162.714L87.3431 162.781L87.3431 162.847L87.3431 162.914L87.3431 162.981L87.3431 163.048L87.3431 163.114L87.3431 163.181L87.3431 163.248L87.3431 163.315L87.3431 163.381L87.3431 163.448L87.3431 163.515L87.3431 163.581L87.3431 163.648L87.3431 163.715L87.3431 163.782L87.3431 163.849L87.3431 163.915L87.3431 163.982L87.343 164.04L87.3431 164.099L87.3431 164.165L87.3431 164.232L87.3431 164.299L87.3431 164.366L87.3431 164.433L87.3431 164.499L87.3431 164.566L87.3431 164.633L87.3431 164.699L87.3431 164.766L87.3431 164.833L87.3431 164.9L87.3431 164.966L87.3431 165.033L87.3431 165.1L87.3431 165.167L87.3431 165.233L87.3431 165.3L87.3431 165.367L87.3431 165.434L87.343 165.492L87.3431 165.55L87.3431 165.617L87.3431 165.684L87.3431 165.751L87.3431 165.818L87.3431 165.884L87.3431 165.951L87.3431 166.018L87.3431 166.084L87.3431 166.151L87.3431 166.218L87.3431 166.285L87.3431 166.352L87.3431 166.418L87.3431 166.485L87.3431 166.552L87.3431 166.618L87.3431 166.685L87.3431 166.752L87.3431 166.818L87.3431 166.885L87.343 166.944L87.3431 167.002L87.3431 167.069L87.3431 167.136L87.3431 167.202L87.3431 167.269L87.3431 167.336L87.3431 167.403L87.3431 167.469L87.3431 167.536L87.3431 167.603L87.3431 167.67L87.3431 167.736L87.3431 167.803L87.3431 167.87L87.3431 167.937L87.3431 168.003L87.3431 168.07L87.3431 168.137L87.3431 168.203L87.3431 168.27L87.343 168.329L87.3431 168.387L87.3431 168.454L87.3431 168.52L87.3431 168.587L87.3431 168.654L87.3431 168.721L87.3431 168.788L87.3431 168.854L87.3431 168.921L87.3431 168.988L87.3431 169.055L87.3431 169.121L87.3431 169.188L87.3431 169.255L87.3431 169.321L87.3431 169.388L87.3431 169.455L87.3431 169.522L87.3431 169.588L87.3431 169.655L87.3431 169.722L87.343 169.78L87.3431 169.839L87.3431 169.905L87.3431 169.972L87.3431 170.039L87.3431 170.106L87.3431 170.172L87.3431 170.239L87.3431 170.306L87.3431 170.373L87.3431 170.44L87.3431 170.506L87.3431 170.573L87.3431 170.64L87.3431 170.706L87.3431 170.773L87.3431 170.84L87.3431 170.907L87.3431 170.973L87.3431 171.04L87.3431 171.107L87.3431 171.173L87.343 171.232L87.3431 171.29L87.3431 171.357L87.3431 171.424L87.3431 171.491L87.3431 171.557L87.3431 171.624L87.3431 171.691L87.3431 171.758L87.3431 171.824L87.3431 171.891L87.3431 171.958L87.3431 172.025L87.3431 172.091L87.3431 172.158L87.3431 172.225L87.3431 172.291L87.3431 172.358L87.3431 172.425L87.3431 172.492L87.3431 172.559L87.3431 172.625L87.343 172.684L87.3431 172.742L87.3431 172.809L87.3431 172.876L87.3431 172.942L87.3431 173.009L87.3431 173.076L87.3431 173.142L87.3431 173.209L87.3431 173.276L87.3431 173.343L87.3431 173.41L87.3431 173.476L87.3431 173.543L87.3431 173.61L87.3431 173.676L87.3431 173.743L87.3431 173.81L87.3431 173.877L87.3431 173.943L87.3431 174.01C87.3282 179.275 90.8032 184.547 97.7637 188.569C111.596 196.561 133.956 196.561 147.688 188.569C154.54 184.581 157.957 179.363 157.942 174.143V174.076V174.01V173.943V173.876V173.809V173.743V173.676V173.609V173.543V173.476V173.409V173.342V173.275V173.209V173.142V173.076V173.008V172.942V172.875L157.942 172.815L157.942 172.758V172.692V172.625V172.558V172.491V172.424V172.358V172.291V172.224V172.157V172.091V172.024V171.957V171.891V171.824V171.757V171.69V171.623V171.557V171.49V171.423L157.942 171.365L157.942 171.306V171.24V171.173V171.106V171.04V170.973V170.906V170.839V170.772V170.706V170.639V170.573V170.506V170.439V170.372V170.305V170.238V170.172V170.105V170.038V169.972L157.942 169.913L157.942 169.854V169.789V169.721V169.655V169.588V169.521V169.454V169.388V169.321V169.254V169.188V169.121V169.054V168.987V168.921V168.854V168.787V168.72V168.653V168.587V168.52L157.942 168.462L157.942 168.403V168.336V168.269V168.203V168.136V168.07V168.003V167.936V167.869V167.803V167.736V167.669V167.602V167.536V167.469V167.402V167.335V167.269V167.202V167.135L157.942 167.077L157.942 167.018V166.952V166.884V166.818V166.751V166.684V166.618V166.551V166.485V166.418V166.351V166.284V166.217V166.15V166.084V166.017V165.951V165.884V165.817V165.75V165.683L157.942 165.625L157.942 165.566V165.5V165.433V165.366V165.3V165.233V165.166V165.099V165.033V164.966V164.899V164.832V164.766V164.699V164.632V164.566V164.499V164.432V164.365V164.298V164.232L157.942 164.173L157.942 164.115V164.048V163.982V163.915V163.848V163.781V163.714V163.648V163.581V163.515V163.447V163.381V163.314V163.247V163.181V163.113V163.047V162.981V162.914V162.847V162.78L157.942 162.722L157.942 162.663V162.597V162.53V162.463V162.396V162.329V162.263V162.196V162.129V162.062V161.996V161.929V161.862V161.795V161.729V161.662V161.595V161.528V161.462V161.395V161.328L157.942 161.27L157.942 161.211V161.145V161.078V161.012C157.942 160.989 157.942 160.967 157.942 160.945Z" fill="url(#paint7_linear)"/>
<path d="M150.091 148.539L150.058 158.567C150.075 154.479 147.371 150.374 141.965 147.254C131.219 141.047 113.849 141.047 103.187 147.254C97.8805 150.341 95.2274 154.362 95.2107 158.4L95.244 148.372C95.2607 144.334 97.9138 140.296 103.22 137.226C113.899 131.019 131.253 131.019 141.998 137.226C147.388 140.346 150.091 144.451 150.091 148.539Z" fill="#3857CC"/>
<path d="M150.091 148.539L150.058 158.567C150.075 154.479 147.371 150.375 141.965 147.254C140.931 146.654 139.829 146.12 138.678 145.636L138.711 135.607C139.863 136.091 140.964 136.625 141.998 137.226C147.388 140.346 150.091 144.451 150.091 148.539Z" fill="#3857CC"/>
<path d="M138.711 135.607L138.678 145.635C135.241 144.184 131.37 143.266 127.382 142.849L127.415 132.82C131.403 133.237 135.274 134.172 138.711 135.607Z" fill="#3857CC"/>
<path d="M127.398 132.821L127.365 142.849C119.973 142.081 112.164 143.083 105.94 145.836L105.973 135.807C112.214 133.071 120.023 132.07 127.398 132.821Z" fill="#3857CC"/>
<path d="M105.99 135.824L105.957 145.853C104.989 146.286 104.054 146.754 103.187 147.271C101.068 148.506 99.3656 149.891 98.0974 151.376L98.1308 141.347C99.399 139.862 101.101 138.477 103.22 137.243C104.088 136.725 105.022 136.241 105.99 135.824Z" fill="#3857CC"/>
<path d="M98.1141 141.331L98.0807 151.359C96.1785 153.579 95.2107 155.998 95.2107 158.418L95.244 148.389C95.244 145.97 96.1952 143.55 98.1141 141.331Z" fill="#3857CC"/>
<path d="M158.635 148.572L158.601 157.9C158.585 163.206 155.097 168.495 148.156 172.533C134.156 180.676 111.38 180.676 97.2799 172.533C90.1883 168.445 86.6509 163.056 86.6675 157.7L86.7009 148.372C86.6842 153.745 90.2216 159.118 97.3132 163.206C111.413 171.349 134.189 171.349 148.189 163.206C155.131 159.151 158.618 153.862 158.635 148.572Z" fill="#96AAC9"/>
<path d="M158.635 148.572L158.601 157.9C158.584 161.07 157.333 164.257 154.83 167.161L154.863 157.833C157.366 154.913 158.618 151.743 158.635 148.572Z" fill="#0A1D33"/>
<path d="M154.864 157.816L154.83 167.144C153.162 169.08 150.926 170.898 148.139 172.517C146.988 173.184 145.77 173.802 144.501 174.369L144.535 165.042C145.803 164.474 147.021 163.857 148.172 163.189C150.959 161.587 153.195 159.769 154.864 157.816Z" fill="#0A1D33"/>
<path d="M144.535 165.059L144.501 174.386C136.342 178.007 126.097 179.308 116.402 178.307L116.436 168.98C126.13 169.981 136.375 168.663 144.535 165.059Z" fill="#132943"/>
<path d="M116.436 168.979L116.402 178.307C111.163 177.773 106.074 176.555 101.585 174.653L101.618 165.325C106.107 167.227 111.196 168.429 116.436 168.979Z" fill="#0A1D33"/>
<path d="M101.618 165.325L101.585 174.653C100.083 174.019 98.6314 173.318 97.2799 172.533C90.1883 168.445 86.6509 163.056 86.6675 157.7L86.7009 148.372C86.6842 153.745 90.2216 159.118 97.3132 163.206C98.6648 163.99 100.1 164.691 101.618 165.325Z" fill="#0A1D33"/>
<path d="M148.005 133.738C162.104 141.881 162.171 155.063 148.172 163.206C134.172 171.348 111.395 171.348 97.2957 163.206C83.1959 155.063 83.1292 141.881 97.1288 133.738C111.128 125.595 133.922 125.595 148.005 133.738Z" fill="#0A2340"/>
<path fill-rule="evenodd" clip-rule="evenodd" d="M157.942 133.514C157.958 128.249 154.483 122.977 147.522 118.954C133.689 110.962 111.346 110.962 97.5968 118.954C90.7452 122.942 87.3287 128.159 87.3431 133.379C87.343 133.402 87.343 133.424 87.3431 133.447L87.3431 133.514L87.3431 133.58L87.3431 133.647L87.343 133.705L87.3431 133.764L87.3431 133.831L87.3431 133.897L87.3431 133.964L87.3431 134.031L87.3431 134.097L87.3431 134.164L87.3431 134.231L87.3431 134.298L87.3431 134.364L87.3431 134.431L87.3431 134.498L87.3431 134.565L87.3431 134.631L87.3431 134.698L87.3431 134.765L87.3431 134.832L87.3431 134.898L87.3431 134.965L87.3431 135.032L87.3431 135.099L87.343 135.157L87.3431 135.215L87.3431 135.282L87.3431 135.349L87.3431 135.416L87.3431 135.482L87.3431 135.549L87.3431 135.616L87.3431 135.683L87.3431 135.749L87.3431 135.816L87.3431 135.883L87.3431 135.95L87.3431 136.017L87.3431 136.083L87.3431 136.15L87.3431 136.217L87.3431 136.283L87.3431 136.35L87.3431 136.417L87.3431 136.484L87.3431 136.55L87.343 136.609L87.3431 136.667L87.3431 136.734L87.3431 136.8L87.3431 136.867L87.3431 136.934L87.3431 137.001L87.3431 137.068L87.3431 137.134L87.3431 137.201L87.3431 137.268L87.3431 137.335L87.3431 137.401L87.3431 137.468L87.3431 137.535L87.3431 137.602L87.3431 137.668L87.3431 137.735L87.3431 137.802L87.3431 137.868L87.3431 137.935L87.3431 138.002L87.343 138.06L87.3431 138.119L87.3431 138.186L87.3431 138.252L87.3431 138.319L87.3431 138.386L87.3431 138.453L87.3431 138.519L87.3431 138.586L87.3431 138.653L87.3431 138.72L87.3431 138.786L87.3431 138.853L87.3431 138.92L87.3431 138.987L87.3431 139.053L87.3431 139.12L87.3431 139.187L87.3431 139.254L87.3431 139.32L87.3431 139.387L87.343 139.445L87.3431 139.504L87.3431 139.571L87.3431 139.637L87.3431 139.704L87.3431 139.771L87.3431 139.837L87.3431 139.904L87.3431 139.971L87.3431 140.038L87.3431 140.104L87.3431 140.171L87.3431 140.238L87.3431 140.305L87.3431 140.371L87.3431 140.438L87.3431 140.505L87.3431 140.572L87.3431 140.638L87.3431 140.705L87.3431 140.772L87.3431 140.839L87.343 140.897L87.3431 140.956L87.3431 141.022L87.3431 141.089L87.3431 141.156L87.3431 141.223L87.3431 141.289L87.3431 141.356L87.3431 141.423L87.3431 141.489L87.3431 141.556L87.3431 141.623L87.3431 141.69L87.3431 141.756L87.3431 141.823L87.3431 141.89L87.3431 141.957L87.3431 142.023L87.3431 142.09L87.3431 142.157L87.3431 142.224L87.3431 142.29L87.343 142.349L87.3431 142.407L87.3431 142.474L87.3431 142.541L87.3431 142.607L87.3431 142.674L87.3431 142.741L87.3431 142.808L87.3431 142.874L87.3431 142.941L87.3431 143.008L87.3431 143.075L87.3431 143.141L87.3431 143.208L87.3431 143.275L87.3431 143.342L87.3431 143.408L87.3431 143.475L87.3431 143.542L87.3431 143.609L87.3431 143.675L87.3431 143.742L87.343 143.801L87.3431 143.859L87.3431 143.925L87.3431 143.992L87.3431 144.059L87.3431 144.126L87.3431 144.193L87.3431 144.259L87.3431 144.326L87.3431 144.393L87.3431 144.459L87.3431 144.526L87.3431 144.593L87.3431 144.66L87.3431 144.727L87.3431 144.793L87.3431 144.86L87.3431 144.927L87.3431 144.993L87.3431 145.06L87.3431 145.127L87.3431 145.194L87.343 145.252L87.3431 145.31L87.3431 145.377L87.3431 145.444L87.3431 145.511L87.3431 145.577L87.3431 145.644L87.3431 145.711L87.3431 145.778L87.3431 145.845L87.3431 145.911L87.3431 145.978L87.3431 146.045L87.3431 146.111L87.3431 146.178L87.3431 146.245L87.3431 146.312L87.3431 146.379L87.3431 146.445L87.3431 146.512L87.3431 146.578C87.3283 151.843 90.8032 157.115 97.7637 161.137C111.596 169.13 133.956 169.13 147.688 161.137C154.54 157.149 157.957 151.932 157.942 146.711V146.645V146.578V146.512V146.445V146.378V146.311V146.244V146.178V146.111V146.044V145.978V145.911V145.844V145.777V145.71V145.644V145.577V145.51V145.443L157.942 145.385L157.942 145.326V145.26V145.193V145.127V145.059V144.993V144.927V144.86V144.793V144.726V144.659V144.592V144.526V144.459V144.392V144.326V144.259V144.192V144.125V144.058V143.992L157.942 143.934L157.942 143.874V143.808V143.742V143.675V143.608V143.541V143.475V143.408V143.341V143.274V143.208V143.141V143.074V143.007V142.941V142.874V142.807V142.74V142.674V142.607V142.54L157.942 142.482L157.942 142.423V142.357V142.29V142.223V142.156V142.09V142.023V141.956V141.889V141.823V141.756V141.689V141.622V141.556V141.489V141.422V141.355V141.289V141.222V141.155V141.089L157.942 141.03L157.942 140.971V140.905V140.838V140.771V140.705V140.638V140.571V140.504V140.437V140.371V140.304V140.237V140.171V140.104V140.037V139.97V139.904V139.837V139.771V139.703V139.637L157.942 139.578L157.942 139.52V139.454V139.386V139.32V139.253V139.186V139.119V139.053V138.986V138.919V138.852V138.786V138.719V138.652V138.585V138.519V138.452V138.385V138.318V138.252L157.942 138.193L157.942 138.135V138.068V138.001V137.935V137.868V137.802V137.734V137.668V137.601V137.534V137.468V137.401V137.334V137.268V137.2V137.134V137.067V137V136.933V136.867V136.8L157.942 136.742L157.942 136.683V136.617V136.55V136.483V136.416V136.349V136.283V136.216V136.15V136.083V136.016V135.949V135.882V135.815V135.749V135.682V135.615V135.549V135.482V135.415V135.348L157.942 135.29L157.942 135.231V135.165V135.098V135.031V134.965V134.898V134.831V134.765V134.698V134.631V134.564V134.498V134.43V134.364V134.297V134.23V134.164V134.097V134.03V133.964V133.897L157.942 133.839L157.942 133.779V133.713V133.647V133.58C157.942 133.558 157.942 133.536 157.942 133.514Z" fill="url(#paint8_linear)"/>
<path d="M150.091 121.825L150.058 131.853C150.075 127.765 147.371 123.661 141.965 120.54C131.219 114.333 113.849 114.333 103.187 120.54C97.8805 123.627 95.2274 127.648 95.2107 131.687L95.244 121.658C95.2607 117.62 97.9138 113.582 103.22 110.512C113.899 104.305 131.253 104.305 141.998 110.512C147.388 113.632 150.091 117.737 150.091 121.825Z" fill="#3857CC"/>
<path d="M150.091 121.825L150.058 131.854C150.075 127.766 147.371 123.661 141.965 120.54C140.931 119.94 139.829 119.406 138.678 118.922L138.711 108.894C139.863 109.377 140.964 109.911 141.998 110.512C147.388 113.632 150.091 117.737 150.091 121.825Z" fill="#3857CC"/>
<path d="M138.711 108.893L138.678 118.921C135.241 117.486 131.37 116.552 127.382 116.135L127.415 106.106C131.403 106.524 135.274 107.441 138.711 108.893Z" fill="#3857CC"/>
<path d="M127.398 106.106L127.365 116.135C119.973 115.367 112.164 116.368 105.94 119.122L105.973 109.093C112.214 106.34 120.023 105.339 127.398 106.106Z" fill="#3857CC"/>
<path d="M105.99 109.093L105.957 119.121C104.989 119.555 104.054 120.022 103.187 120.539C101.068 121.774 99.3656 123.159 98.0974 124.644L98.1308 114.616C99.399 113.131 101.101 111.746 103.22 110.511C104.088 109.994 105.022 109.527 105.99 109.093Z" fill="#3857CC"/>
<path d="M98.1141 114.6L98.0807 124.628C96.1785 126.847 95.2107 129.267 95.2107 131.686L95.244 121.658C95.244 119.238 96.1952 116.819 98.1141 114.6Z" fill="#3857CC"/>
<path d="M158.635 121.841L158.601 131.168C158.585 136.475 155.097 141.764 148.156 145.802C134.156 153.945 111.38 153.945 97.2799 145.802C90.1883 141.714 86.6509 136.324 86.6675 130.968L86.7009 121.641C86.6842 127.014 90.2216 132.386 97.3132 136.475C111.413 144.617 134.189 144.617 148.189 136.475C155.131 132.437 158.618 127.147 158.635 121.841Z" fill="#96AAC9"/>
<path d="M158.635 121.842L158.601 131.169C158.584 134.34 157.333 137.527 154.83 140.43L154.863 131.103C157.366 128.199 158.618 125.029 158.635 121.842Z" fill="#0A1D33"/>
<path d="M154.864 131.102L154.83 140.429C153.162 142.365 150.926 144.183 148.139 145.802C146.988 146.469 145.77 147.087 144.501 147.654L144.535 138.327C145.803 137.759 147.021 137.142 148.172 136.475C150.959 134.856 153.195 133.037 154.864 131.102Z" fill="#0A1D33"/>
<path d="M144.535 138.327L144.501 147.655C136.342 151.276 126.097 152.577 116.402 151.576L116.436 142.248C126.13 143.25 136.375 141.948 144.535 138.327Z" fill="#132943"/>
<path d="M116.436 142.248L116.402 151.576C111.163 151.042 106.074 149.823 101.585 147.921L101.618 138.594C106.107 140.496 111.196 141.714 116.436 142.248Z" fill="#0A1D33"/>
<path d="M101.618 138.61L101.585 147.938C100.083 147.304 98.6314 146.603 97.2799 145.819C90.1883 141.731 86.6509 136.341 86.6675 130.985L86.7009 121.657C86.6842 127.03 90.2216 132.403 97.3132 136.491C98.6648 137.259 100.1 137.976 101.618 138.61Z" fill="#0A1D33"/>
<path d="M148.005 107.007C162.104 115.15 162.171 128.332 148.172 136.475C134.172 144.618 111.395 144.618 97.2957 136.475C83.1959 128.332 83.1292 115.15 97.1288 107.007C111.145 98.8647 133.922 98.8647 148.005 107.007Z" fill="#0A2340"/>
<path d="M73.3353 181.911L73.302 191.939C73.3187 187.851 70.6155 183.746 65.2092 180.626C54.4634 174.419 37.0932 174.419 26.4308 180.626C21.1246 183.713 18.4715 187.734 18.4548 191.772L18.4882 181.744C18.5049 177.706 21.158 173.668 26.4641 170.598C37.1432 164.391 54.4967 164.391 65.2426 170.598C70.6322 173.735 73.3353 177.823 73.3353 181.911Z" fill="#3857CC"/>
<path d="M73.3354 181.911L73.302 191.94C73.3187 187.851 70.6156 183.747 65.2093 180.626C64.1747 180.026 63.0735 179.492 61.9221 179.008L61.9555 168.979C63.1069 169.463 64.2081 169.997 65.2426 170.598C70.6322 173.735 73.3354 177.823 73.3354 181.911Z" fill="#3857CC"/>
<path d="M61.9556 168.979L61.9222 179.007C58.4849 177.572 54.6137 176.638 50.6257 176.221L50.6591 166.192C54.6471 166.61 58.5183 167.544 61.9556 168.979Z" fill="#3857CC"/>
<path d="M50.6421 166.193L50.6088 176.221C43.2168 175.453 35.4077 176.455 29.1838 179.208L29.2172 169.179C35.4578 166.443 43.2669 165.442 50.6421 166.193Z" fill="#3857CC"/>
<path d="M29.2341 169.196L29.2007 179.225C28.2329 179.658 27.2985 180.126 26.4308 180.643C24.3117 181.878 22.6097 183.263 21.3416 184.748L21.375 174.719C22.6431 173.234 24.3451 171.849 26.4642 170.615C27.3319 170.097 28.2663 169.63 29.2341 169.196Z" fill="#3857CC"/>
<path d="M21.3582 174.702L21.3248 184.731C19.4226 186.95 18.4548 189.369 18.4548 191.789L18.4882 181.76C18.4882 179.341 19.4393 176.921 21.3582 174.702Z" fill="#3857CC"/>
<path d="M81.8787 181.944L81.8454 191.272C81.8287 196.578 78.3413 201.868 71.3998 205.906C57.4002 214.048 34.6237 214.048 20.524 205.906C13.4324 201.818 9.89499 196.445 9.91168 191.072L9.94503 181.744C9.92835 187.117 13.4658 192.49 20.5574 196.578C34.6571 204.721 57.4336 204.721 71.4333 196.578C78.3747 192.523 81.862 187.234 81.8787 181.944Z" fill="#96AAC9"/>
<path d="M81.8786 181.944L81.8453 191.272C81.8286 194.442 80.5771 197.629 78.0742 200.533L78.1076 191.205C80.6105 188.285 81.862 185.115 81.8786 181.944Z" fill="#0A1D33"/>
<path d="M78.1077 191.188L78.0743 200.516C76.4057 202.452 74.1698 204.27 71.3832 205.889C70.2319 206.556 69.0137 207.174 67.7456 207.741L67.779 198.414C69.0472 197.846 70.2652 197.229 71.4166 196.561C74.2031 194.96 76.4391 193.141 78.1077 191.188Z" fill="#0A1D33"/>
<path d="M67.779 198.43L67.7456 207.757C59.5861 211.378 49.3409 212.68 39.6462 211.678L39.6796 202.351C49.3743 203.352 59.6195 202.034 67.779 198.43Z" fill="#132943"/>
<path d="M39.6797 202.352L39.6463 211.679C34.4069 211.145 29.3177 209.927 24.8291 208.025L24.8625 198.697C29.351 200.599 34.4403 201.801 39.6797 202.352Z" fill="#0A1D33"/>
<path d="M24.8624 198.697L24.829 208.025C23.3273 207.391 21.8756 206.69 20.524 205.906C13.4324 201.818 9.89499 196.445 9.91168 191.072L9.94503 181.744C9.92835 187.117 13.4658 192.49 20.5574 196.578C21.9089 197.362 23.344 198.063 24.8624 198.697Z" fill="#0A1D33"/>
<path d="M71.2488 167.111C85.3485 175.254 85.4153 188.436 71.4157 196.579C57.416 204.721 34.6396 204.721 20.5398 196.579C6.44008 188.436 6.37333 175.254 20.373 167.111C34.3893 158.968 57.1658 158.968 71.2488 167.111Z" fill="#0A2340"/>
<path fill-rule="evenodd" clip-rule="evenodd" d="M81.1865 166.886C81.2013 161.622 77.7264 156.349 70.766 152.327C56.9332 144.335 34.5905 144.335 20.8412 152.327C13.9889 156.316 10.5724 161.534 10.5875 166.754C10.5874 166.777 10.5874 166.799 10.5875 166.822L10.5875 166.886L10.5875 166.953L10.5875 167.02L10.5874 167.078L10.5875 167.137L10.5875 167.204L10.5875 167.27L10.5875 167.337L10.5875 167.404L10.5875 167.47L10.5875 167.537L10.5875 167.604L10.5875 167.67L10.5875 167.737L10.5875 167.804L10.5875 167.871L10.5875 167.937L10.5875 168.004L10.5875 168.071L10.5875 168.138L10.5875 168.204L10.5875 168.271L10.5875 168.338L10.5875 168.405L10.5875 168.472L10.5874 168.53L10.5875 168.588L10.5875 168.655L10.5875 168.722L10.5875 168.789L10.5875 168.855L10.5875 168.922L10.5875 168.989L10.5875 169.056L10.5875 169.122L10.5875 169.189L10.5875 169.256L10.5875 169.323L10.5875 169.389L10.5875 169.456L10.5875 169.523L10.5875 169.589L10.5875 169.656L10.5875 169.723L10.5875 169.79L10.5875 169.857L10.5875 169.923L10.5874 169.982L10.5875 170.04L10.5875 170.107L10.5875 170.173L10.5875 170.24L10.5875 170.307L10.5875 170.374L10.5875 170.441L10.5875 170.507L10.5875 170.574L10.5875 170.64L10.5875 170.707L10.5875 170.774L10.5875 170.841L10.5875 170.908L10.5875 170.975L10.5875 171.041L10.5875 171.108L10.5875 171.175L10.5875 171.241L10.5875 171.308L10.5875 171.375L10.5874 171.433L10.5875 171.492L10.5875 171.558L10.5875 171.625L10.5875 171.692L10.5875 171.759L10.5875 171.825L10.5875 171.892L10.5875 171.959L10.5875 172.026L10.5875 172.092L10.5875 172.159L10.5875 172.226L10.5875 172.293L10.5875 172.359L10.5875 172.426L10.5875 172.493L10.5875 172.56L10.5875 172.626L10.5875 172.693L10.5875 172.76L10.5875 172.827L10.5874 172.885L10.5875 172.943L10.5875 173.01L10.5875 173.077L10.5875 173.143L10.5875 173.21L10.5875 173.277L10.5875 173.344L10.5875 173.411L10.5875 173.477L10.5875 173.544L10.5875 173.611L10.5875 173.677L10.5875 173.744L10.5875 173.811L10.5875 173.878L10.5875 173.944L10.5875 174.011L10.5875 174.078L10.5875 174.145L10.5875 174.212L10.5874 174.27L10.5875 174.328L10.5875 174.395L10.5875 174.462L10.5875 174.529L10.5875 174.595L10.5875 174.662L10.5875 174.729L10.5875 174.795L10.5875 174.862L10.5875 174.929L10.5875 174.996L10.5875 175.063L10.5875 175.129L10.5875 175.196L10.5875 175.263L10.5875 175.329L10.5875 175.396L10.5875 175.463L10.5875 175.53L10.5875 175.597L10.5875 175.663L10.5874 175.722L10.5875 175.78L10.5875 175.847L10.5875 175.914L10.5875 175.98L10.5875 176.047L10.5875 176.114L10.5875 176.181L10.5875 176.247L10.5875 176.314L10.5875 176.381L10.5875 176.447L10.5875 176.514L10.5875 176.581L10.5875 176.648L10.5875 176.714L10.5875 176.781L10.5875 176.848L10.5875 176.915L10.5875 176.981L10.5875 177.048L10.5875 177.115L10.5874 177.173L10.5875 177.232L10.5875 177.298L10.5875 177.365L10.5875 177.432L10.5875 177.499L10.5875 177.566L10.5875 177.632L10.5875 177.699L10.5875 177.766L10.5875 177.832L10.5875 177.899L10.5875 177.966L10.5875 178.033L10.5875 178.099L10.5875 178.166L10.5875 178.233L10.5875 178.3L10.5875 178.366L10.5875 178.433L10.5875 178.5L10.5875 178.567L10.5874 178.625L10.5875 178.683L10.5875 178.75L10.5875 178.817L10.5875 178.884L10.5875 178.95L10.5875 179.017L10.5875 179.084L10.5875 179.151L10.5875 179.218L10.5875 179.284L10.5875 179.351L10.5875 179.418L10.5875 179.484L10.5875 179.551L10.5875 179.618L10.5875 179.685L10.5875 179.752L10.5875 179.818L10.5875 179.885L10.5875 179.951C10.5727 185.216 14.0476 190.488 21.0081 194.51C34.8408 202.503 57.2001 202.503 70.9328 194.51C77.7847 190.522 81.2012 185.304 81.1865 180.084V180.018V179.951V179.885V179.818V179.751V179.684V179.618V179.551V179.484V179.418V179.351V179.284V179.217V179.15V179.084V179.017V178.95V178.884V178.817L81.1866 178.759L81.1866 178.7V178.632V178.566V178.499V178.432V178.365V178.299V178.232V178.165V178.098V178.032V177.965V177.898V177.831V177.765V177.698V177.631V177.564V177.498V177.431V177.364L81.1866 177.306L81.1865 177.248V177.181V177.115V177.048V176.982V176.915V176.848V176.781V176.714V176.648V176.581V176.514V176.448V176.381V176.314V176.247V176.18V176.114V176.047V175.98V175.913L81.1866 175.855L81.1866 175.796V175.729V175.662V175.596V175.529V175.462V175.395V175.328V175.262V175.195V175.128V175.062V174.995V174.928V174.861V174.795V174.728V174.661V174.594V174.527V174.461L81.1866 174.403L81.1865 174.345V174.278V174.211V174.145V174.078V174.011V173.944V173.878V173.811V173.744V173.677V173.611V173.544V173.477V173.411V173.344V173.277V173.21V173.144V173.077L81.1866 173.019L81.1865 172.96V172.893V172.826V172.76V172.693V172.626V172.559V172.493V172.426V172.359V172.293V172.226V172.159V172.092V172.026V171.959V171.892V171.825V171.759V171.692V171.625L81.1866 171.567L81.1866 171.508V171.441V171.374V171.307V171.24V171.174V171.107V171.04V170.973V170.907V170.84V170.773V170.707V170.64V170.573V170.506V170.439V170.373V170.306V170.239V170.173L81.1866 170.114L81.1865 170.057V169.99V169.923V169.856V169.79V169.723V169.656V169.589V169.523V169.456V169.389V169.323V169.256V169.189V169.122V169.055V168.989V168.922V168.855V168.788V168.722L81.1866 168.664L81.1866 168.605V168.537V168.471V168.404V168.337V168.27V168.204V168.137V168.07V168.003V167.936V167.87V167.803V167.736V167.67V167.603V167.536V167.469V167.403V167.336V167.269L81.1866 167.211L81.1865 167.153V167.086V167.02V166.952C81.1866 166.93 81.1866 166.908 81.1865 166.886Z" fill="url(#paint9_linear)"/>
<path d="M73.3353 154.479L73.302 164.508C73.3187 160.42 70.6155 156.315 65.2092 153.195C54.4634 146.987 37.0932 146.987 26.4308 153.195C21.1246 156.281 18.4715 160.303 18.4548 164.341L18.4882 154.313C18.5049 150.274 21.158 146.236 26.4641 143.166C37.1432 136.959 54.4967 136.959 65.2426 143.166C70.6322 146.286 73.3353 150.391 73.3353 154.479Z" fill="#3857CC"/>
<path d="M73.3354 154.48L73.302 164.508C73.3187 160.42 70.6156 156.315 65.2093 153.195C64.1747 152.594 63.0735 152.06 61.9221 151.576L61.9555 141.548C63.1069 142.032 64.2081 142.566 65.2426 143.166C70.6322 146.287 73.3354 150.391 73.3354 154.48Z" fill="#3857CC"/>
<path d="M61.9556 141.547L61.9222 151.576C58.4849 150.124 54.6137 149.206 50.6257 148.789L50.6591 138.761C54.6471 139.178 58.5183 140.112 61.9556 141.547Z" fill="#3857CC"/>
<path d="M50.6424 138.761L50.609 148.789C43.2171 148.022 35.408 149.023 29.1841 151.776L29.2174 141.748C35.458 139.011 43.2671 138.01 50.6424 138.761Z" fill="#3857CC"/>
<path d="M29.2341 141.765L29.2007 151.793C28.2329 152.227 27.2985 152.694 26.4308 153.211C24.3117 154.446 22.6097 155.831 21.3416 157.316L21.375 147.288C22.6431 145.803 24.3451 144.418 26.4642 143.183C27.3319 142.666 28.2663 142.182 29.2341 141.765Z" fill="#3857CC"/>
<path d="M21.3582 147.271L21.3248 157.3C19.4226 159.519 18.4548 161.939 18.4548 164.358L18.4882 154.33C18.4882 151.91 19.4393 149.491 21.3582 147.271Z" fill="#3857CC"/>
<path d="M81.8787 154.513L81.8454 163.84C81.8287 169.146 78.3413 174.436 71.3998 178.474C57.4002 186.617 34.6237 186.617 20.524 178.474C13.4324 174.386 9.89499 168.996 9.91168 163.64L9.94503 154.312C9.92835 159.685 13.4658 165.058 20.5574 169.146C34.6571 177.289 57.4336 177.289 71.4333 169.146C78.3747 165.092 81.862 159.802 81.8787 154.513Z" fill="#96AAC9"/>
<path d="M81.8786 154.513L81.8453 163.84C81.8286 167.011 80.5771 170.198 78.0742 173.101L78.1076 163.773C80.6105 160.853 81.862 157.683 81.8786 154.513Z" fill="#0A1D33"/>
<path d="M78.1077 163.757L78.0743 173.084C76.4057 175.02 74.1698 176.839 71.3832 178.457C70.2319 179.125 69.0137 179.742 67.7456 180.309L67.779 170.982C69.0472 170.415 70.2652 169.797 71.4166 169.13C74.2031 167.528 76.4391 165.709 78.1077 163.757Z" fill="#0A1D33"/>
<path d="M67.779 170.998L67.7456 180.326C59.5861 183.946 49.3409 185.248 39.6462 184.247L39.6796 174.919C49.3743 175.92 59.6195 174.602 67.779 170.998Z" fill="#132943"/>
<path d="M39.6797 174.92L39.6463 184.247C34.4069 183.713 29.3177 182.495 24.8291 180.593L24.8625 171.266C29.351 173.168 34.4403 174.369 39.6797 174.92Z" fill="#0A1D33"/>
<path d="M24.8624 171.266L24.829 180.593C23.3273 179.959 21.8756 179.258 20.524 178.474C13.4324 174.386 9.89499 168.996 9.91168 163.64L9.94503 154.312C9.92835 159.685 13.4658 165.058 20.5574 169.146C21.9089 169.931 23.344 170.631 24.8624 171.266Z" fill="#0A1D33"/>
<path d="M71.2488 139.679C85.3485 147.822 85.4153 161.004 71.4157 169.147C57.416 177.29 34.6396 177.29 20.5398 169.147C6.44008 161.004 6.37333 147.822 20.373 139.679C34.3726 131.537 57.1658 131.537 71.2488 139.679Z" fill="#0A2340"/>
<defs>
<linearGradient id="paint0_linear" x1="35.9751" y1="102.052" x2="35.9751" y2="156.21" gradientUnits="userSpaceOnUse">
<stop stop-color="#0AB3EE"/>
<stop offset="1" stop-color="#A437BF"/>
</linearGradient>
<linearGradient id="paint1_linear" x1="36.2996" y1="75" x2="36.2996" y2="129.159" gradientUnits="userSpaceOnUse">
<stop stop-color="#0AB3EE"/>
<stop offset="1" stop-color="#A437BF"/>
</linearGradient>
<linearGradient id="paint2_linear" x1="35.9751" y1="48.1436" x2="35.9751" y2="102.315" gradientUnits="userSpaceOnUse">
<stop stop-color="#0AB3EE"/>
<stop offset="1" stop-color="#A437BF"/>
</linearGradient>
<linearGradient id="paint3_linear" x1="113.992" y1="93.918" x2="113.992" y2="138.115" gradientUnits="userSpaceOnUse">
<stop stop-color="#0AB3EE"/>
<stop offset="1" stop-color="#A437BF"/>
</linearGradient>
<linearGradient id="paint4_linear" x1="113.992" y1="66.4854" x2="113.992" y2="113.986" gradientUnits="userSpaceOnUse">
<stop stop-color="#0AB4EF"/>
<stop offset="1" stop-color="#A437BF"/>
</linearGradient>
<linearGradient id="paint5_linear" x1="113.992" y1="40.0215" x2="113.992" y2="81.382" gradientUnits="userSpaceOnUse">
<stop stop-color="#0AB4EF"/>
<stop offset="1" stop-color="#A437BF"/>
</linearGradient>
<linearGradient id="paint6_linear" x1="113.992" y1="12.1431" x2="113.992" y2="66.2477" gradientUnits="userSpaceOnUse">
<stop stop-color="#0AB3EE"/>
<stop offset="1" stop-color="#A437BF"/>
</linearGradient>
<linearGradient id="paint7_linear" x1="122.643" y1="140.392" x2="122.643" y2="194.563" gradientUnits="userSpaceOnUse">
<stop stop-color="#0AB3EE"/>
<stop offset="1" stop-color="#A437BF"/>
</linearGradient>
<linearGradient id="paint8_linear" x1="122.643" y1="112.96" x2="122.643" y2="167.131" gradientUnits="userSpaceOnUse">
<stop stop-color="#0AB3EE"/>
<stop offset="1" stop-color="#A437BF"/>
</linearGradient>
<linearGradient id="paint9_linear" x1="45.887" y1="146.333" x2="45.887" y2="200.504" gradientUnits="userSpaceOnUse">
<stop stop-color="#0AB3EE"/>
<stop offset="1" stop-color="#A437BF"/>
</linearGradient>
</defs>
</svg>
