<svg xmlns="http://www.w3.org/2000/svg" width="264" height="455" viewBox="0 0 264 455" fill="none">
    <path d="M262.696 342.491L263.296 385.423L150.862 455L150.262 411.993L262.696 342.491Z" fill="#18314F"/>
    <path d="M150.262 411.992L150.862 454.999L4.27814 371.012L3.67773 328.005L150.262 411.992Z" fill="#18314F"/>
    <path d="M9.23193 367.86L9.68225 338.288L144.483 415.596L144.107 445.093L9.23193 367.86Z" fill="#0A2340"/>
    <path d="M262.696 342.492L150.262 411.993L3.67773 328.006L147.635 276.442L262.696 342.492Z" fill="#0A2340"/>
    <path d="M154.09 414.846L260.444 349.472L260.894 383.022L154.54 448.396L154.09 414.846Z" fill="#0A2340"/>
    <path d="M157.167 415.671L201.825 388.126L202.276 416.722L157.617 444.343L157.167 415.671Z" fill="#06121F"/>
    <path d="M171.653 415.221L159.569 422.651L159.719 437.287L171.878 429.857L171.653 415.221Z" fill="#06121F"/>
    <path d="M185.913 406.515L173.754 413.945L173.979 428.656L186.063 421.151L185.913 406.515Z" fill="#06121F"/>
    <path d="M199.724 397.884L187.565 405.389L187.79 420.025L199.949 412.595L199.724 397.884Z" fill="#06121F"/>
    <path d="M238.077 395.18L240.854 393.454L240.404 364.257L237.627 365.983L238.077 395.18Z" fill="#06121F"/>
    <path d="M232.448 398.633L235.225 396.907L234.775 367.71L232.073 369.436L232.448 398.633Z" fill="#06121F"/>
    <path d="M226.894 402.085L229.596 400.359L229.221 371.162L226.444 372.888L226.894 402.085Z" fill="#06121F"/>
    <path d="M221.265 405.462L224.042 403.811L223.591 374.614L220.814 376.341L221.265 405.462Z" fill="#06121F"/>
    <path d="M215.636 408.915L218.413 407.264L217.962 378.067L215.26 379.794L215.636 408.915Z" fill="#06121F"/>
    <path d="M210.006 412.367L212.783 410.716L212.408 381.52L209.631 383.246L210.006 412.367Z" fill="#06121F"/>
    <path d="M204.452 415.821L207.229 414.094L206.779 384.973L204.002 386.624L204.452 415.821Z" fill="#06121F"/>
    <path fill-rule="evenodd" clip-rule="evenodd" d="M253.99 302.563L254.59 342.266L150.187 406.814L150.187 406.816L11.709 327.557L11.1836 287.852L149.587 367.111L149.587 367.111L11.1836 287.852L147.11 241.167L253.989 302.562L253.989 302.562L253.99 302.563Z" fill="#06121F"/>
    <path d="M261.42 256.254L262.02 299.186L149.661 368.763L149.061 325.756L261.42 256.254Z" fill="#18314F"/>
    <path d="M149.061 325.756L149.661 368.688L3.07727 284.701L2.47681 241.769L149.061 325.756Z" fill="#18314F"/>
    <path d="M8.03101 281.624L8.40631 252.052L143.282 329.359L142.831 358.856L8.03101 281.624Z" fill="#0A2340"/>
    <path d="M261.42 256.253L149.061 325.755L2.47681 241.768L146.359 190.204L261.42 256.253Z" fill="#0A2340"/>
    <path d="M152.814 328.607L259.168 263.233L259.693 296.783L153.339 362.157L152.814 328.607Z" fill="#0A2340"/>
    <path d="M155.966 329.432L200.624 301.887L201 330.483L156.341 358.104L155.966 329.432Z" fill="#06121F"/>
    <path d="M170.452 328.983L158.293 336.414L158.518 351.05L170.677 343.619L170.452 328.983Z" fill="#06121F"/>
    <path d="M184.637 320.274L172.478 327.705L172.703 342.341L184.863 334.91L184.637 320.274Z" fill="#06121F"/>
    <path d="M198.448 311.645L186.364 319.15L186.589 333.786L198.673 326.355L198.448 311.645Z" fill="#06121F"/>
    <path d="M236.801 308.942L239.578 307.215L239.203 278.019L236.426 279.745L236.801 308.942Z" fill="#06121F"/>
    <path d="M231.247 312.394L234.024 310.668L233.574 281.471L230.797 283.197L231.247 312.394Z" fill="#06121F"/>
    <path d="M225.618 315.772L228.395 314.12L227.945 284.924L225.168 286.65L225.618 315.772Z" fill="#06121F"/>
    <path d="M219.989 319.226L222.766 317.575L222.391 288.378L219.614 290.104L219.989 319.226Z" fill="#06121F"/>
    <path d="M214.435 322.678L217.212 321.027L216.761 291.83L213.984 293.556L214.435 322.678Z" fill="#06121F"/>
    <path d="M208.806 326.13L211.583 324.404L211.132 295.282L208.355 297.009L208.806 326.13Z" fill="#06121F"/>
    <path d="M203.176 329.582L205.953 327.856L205.578 298.734L202.801 300.386L203.176 329.582Z" fill="#06121F"/>
    <path fill-rule="evenodd" clip-rule="evenodd" d="M252.713 215.272L253.314 254.975L148.911 319.599L148.911 319.6L10.5079 240.265L9.90747 200.561L145.834 153.951L252.713 215.271L252.713 215.271L252.713 215.272Z" fill="#06121F"/>
    <path d="M260.219 170.838L260.819 213.77L148.386 283.347L147.785 240.34L260.219 170.838Z" fill="#18314F"/>
    <path d="M147.785 240.34L148.386 283.347L1.80139 199.359L1.20093 156.353L147.785 240.34Z" fill="#18314F"/>
    <path d="M6.75488 196.207L7.2052 166.635L142.006 243.942L141.63 273.439L6.75488 196.207Z" fill="#0A2340"/>
    <path d="M260.219 170.838L147.785 240.34L1.20093 156.352L113.635 86.8506L260.219 170.838Z" fill="#0A2340"/>
    <path d="M151.613 243.194L257.967 177.82L258.418 211.37L152.063 276.744L151.613 243.194Z" fill="#0A2340"/>
    <path d="M154.69 244.018L199.349 216.473L199.799 245.069L155.141 272.69L154.69 244.018Z" fill="#06121F"/>
    <path d="M169.176 243.569L157.092 251L157.242 265.636L169.401 258.205L169.176 243.569Z" fill="#06121F"/>
    <path d="M183.437 234.861L171.278 242.292L171.503 257.003L183.587 249.497L183.437 234.861Z" fill="#06121F"/>
    <path d="M197.247 226.23L185.088 233.736L185.313 248.372L197.472 240.941L197.247 226.23Z" fill="#06121F"/>
    <path d="M235.6 223.528L238.378 221.802L237.927 192.605L235.15 194.332L235.6 223.528Z" fill="#06121F"/>
    <path d="M229.971 226.981L232.748 225.254L232.373 196.058L229.596 197.784L229.971 226.981Z" fill="#06121F"/>
    <path d="M224.417 230.433L227.119 228.706L226.744 199.51L223.967 201.236L224.417 230.433Z" fill="#06121F"/>
    <path d="M218.788 233.812L221.565 232.161L221.115 202.964L218.338 204.69L218.788 233.812Z" fill="#06121F"/>
    <path d="M213.159 237.263L215.936 235.612L215.561 206.415L212.784 208.141L213.159 237.263Z" fill="#06121F"/>
    <path d="M207.605 240.716L210.307 238.99L209.931 209.868L207.154 211.594L207.605 240.716Z" fill="#06121F"/>
    <path d="M201.975 244.168L204.753 242.442L204.302 213.32L201.525 214.972L201.975 244.168Z" fill="#06121F"/>
    <path fill-rule="evenodd" clip-rule="evenodd" d="M147.11 195.683L251.512 131.135L113.109 51.8008L8.70654 116.424L147.11 195.683ZM8.70656 116.425L147.11 195.684V195.683L251.512 131.135L252.113 170.84L147.71 235.388V235.389L9.23195 156.13L8.70656 116.425Z" fill="#06121F"/>
    <path d="M258.943 84.8242L259.543 127.756L147.185 197.258L146.584 154.326L258.943 84.8242Z" fill="#18314F"/>
    <path d="M146.584 154.326L147.185 197.258L0.600461 113.271L0 70.3389L146.584 154.326Z" fill="#18314F"/>
    <path d="M5.55444 110.193L5.92969 80.6211L140.805 157.854L140.355 187.426L5.55444 110.193Z" fill="#0A2340"/>
    <path d="M258.943 84.8254L146.584 154.327L0 70.3396L112.359 0.837891L258.943 84.8254Z" fill="#0A2340"/>
    <path d="M150.412 157.179L256.691 91.8057L257.217 125.356L150.862 190.729L150.412 157.179Z" fill="#0A2340"/>
    <path d="M153.49 158.004L198.148 130.458L198.523 159.054L153.865 186.675L153.49 158.004Z" fill="#06121F"/>
    <path d="M167.975 157.479L155.816 164.985L156.041 179.621L168.2 172.19L167.975 157.479Z" fill="#06121F"/>
    <path d="M182.161 148.847L170.002 156.277L170.227 170.913L182.386 163.482L182.161 148.847Z" fill="#06121F"/>
    <path d="M195.971 140.216L183.887 147.646L184.112 162.357L196.196 154.927L195.971 140.216Z" fill="#06121F"/>
    <path d="M234.325 137.515L237.102 135.789L236.726 106.592L233.949 108.318L234.325 137.515Z" fill="#06121F"/>
    <path d="M228.771 140.892L231.548 139.241L231.097 110.044L228.32 111.77L228.771 140.892Z" fill="#06121F"/>
    <path d="M223.141 144.345L225.919 142.694L225.468 113.497L222.691 115.223L223.141 144.345Z" fill="#06121F"/>
    <path d="M217.512 147.797L220.289 146.146L219.914 116.949L217.137 118.676L217.512 147.797Z" fill="#06121F"/>
    <path d="M211.958 151.251L214.735 149.6L214.285 120.403L211.508 122.13L211.958 151.251Z" fill="#06121F"/>
    <path d="M206.329 154.703L209.106 152.977L208.656 123.855L205.878 125.582L206.329 154.703Z" fill="#06121F"/>
    <path d="M200.7 158.155L203.477 156.428L203.101 127.307L200.324 128.958L200.7 158.155Z" fill="#06121F"/>
    <defs>
        <linearGradient id="paint0_linear" x1="11.0124" y1="256.839" x2="255.297" y2="259.87" gradientUnits="userSpaceOnUse">
            <stop stop-color="#A437BF"/>
            <stop offset="1" stop-color="#0BB3EE"/>
        </linearGradient>
        <linearGradient id="paint1_linear" x1="9.73627" y1="169.623" x2="254.021" y2="172.654" gradientUnits="userSpaceOnUse">
            <stop stop-color="#A437BF"/>
            <stop offset="1" stop-color="#0BB3EE"/>
        </linearGradient>
        <linearGradient id="paint2_linear" x1="8.53534" y1="69.1699" x2="252.827" y2="71.9046" gradientUnits="userSpaceOnUse">
            <stop stop-color="#A437BF"/>
            <stop offset="1" stop-color="#0BB3EE"/>
        </linearGradient>
    </defs>
</svg>
