<svg width="39" height="42" viewBox="0 0 39 42" fill="none" xmlns="http://www.w3.org/2000/svg">
<path d="M37.4252 1.90967H22.9279H0.954774C0.427739 1.90967 0 2.33741 0 2.86444V8.06796V9.40464C0 9.63856 0.0840212 9.85243 0.223418 10.0186C0.260654 10.0634 0.302663 10.1045 0.347538 10.1417C0.371407 10.1608 0.395277 10.1799 0.421056 10.1971C0.459247 10.2229 0.500302 10.2458 0.543267 10.2658C0.668342 10.326 0.807739 10.3604 0.954774 10.3604H2.76216V12.3339H0.954774C0.427739 12.3339 0 12.7616 0 13.2887V18.4922V19.8289C0 20.0924 0.106935 20.3311 0.27975 20.5039C0.322714 20.5469 0.370453 20.586 0.421056 20.6204C0.573819 20.7235 0.757136 20.7836 0.954774 20.7836H2.76216V22.7572H19.2349H22.9289H0.954774C0.427739 22.7572 0 23.1849 0 23.7119V28.9154V30.2521C0 30.486 0.0840212 30.6999 0.223418 30.866C0.260654 30.9109 0.302663 30.952 0.347538 30.9892C0.371407 31.0083 0.395277 31.0274 0.421056 31.0446C0.459247 31.0704 0.500302 31.0933 0.543267 31.1133C0.668342 31.1735 0.807739 31.2079 0.954774 31.2079H14.4791H17.9488V35.8948C17.4972 35.9712 17.1535 36.3627 17.1535 36.8353V37.6392H16.3495C15.8693 37.6392 15.4721 37.9944 15.4062 38.4565H0V39.6977V40.9389H15.4129C15.4979 41.38 15.8846 41.7123 16.3495 41.7123H17.1535H21.2275H22.0314C22.4964 41.7123 22.884 41.3791 22.968 40.9389H38.381V39.6977V38.4565H22.9747C22.9079 37.9944 22.5117 37.6392 22.0305 37.6392H21.2265V36.8353C21.2265 36.3627 20.8819 35.9712 20.4312 35.8948V31.2079H37.4252C37.4586 31.2079 37.4911 31.2059 37.5226 31.2031C37.619 31.1935 37.7107 31.1697 37.7966 31.1334C37.9962 31.0484 38.1614 30.8985 38.2645 30.7085C38.2788 30.6818 38.2922 30.6531 38.3046 30.6254C38.3533 30.5109 38.38 30.3858 38.38 30.254V28.9173V23.7138C38.38 23.5162 38.3199 23.3329 38.2167 23.1801C38.1824 23.1295 38.1432 23.0818 38.1003 23.0388C37.9274 22.866 37.6887 22.7591 37.4252 22.7591H35.7076V20.7855H37.4252C37.4586 20.7855 37.4911 20.7836 37.5226 20.7808C37.6506 20.7674 37.7718 20.7292 37.8797 20.67C37.9609 20.6261 38.0353 20.5707 38.0993 20.5058C38.1852 20.4199 38.2559 20.3167 38.3036 20.2022C38.3523 20.0876 38.379 19.9625 38.379 19.8308V18.4941V13.2906C38.379 13.1588 38.3523 13.0328 38.3036 12.9192C38.2549 12.8046 38.1852 12.7024 38.0993 12.6155C38.0344 12.5506 37.9609 12.4952 37.8797 12.4513C37.7718 12.3921 37.6506 12.3539 37.5226 12.3406C37.4902 12.3377 37.4577 12.3358 37.4252 12.3358H35.7076V10.3623H37.4252C37.4586 10.3623 37.4911 10.3604 37.5226 10.3575C37.619 10.348 37.7107 10.3241 37.7966 10.2878C37.9962 10.2028 38.1614 10.0529 38.2645 9.86293C38.2788 9.8362 38.2922 9.80851 38.3046 9.77987C38.3533 9.6653 38.38 9.54022 38.38 9.40846V8.07178V2.86826C38.38 2.33741 37.9523 1.90967 37.4252 1.90967Z" fill="#99B9FF"/>
<path d="M35.7076 8.44971H2.76221V10.4232H35.7076V8.44971Z" fill="#8E1CAA"/>
<path d="M35.7076 10.4232H19.2349L21.1444 8.44971H35.7076V10.4232Z" fill="#A437BF"/>
<path d="M35.7076 18.8721H2.76221V20.8456H35.7076V18.8721Z" fill="#8E1CAA"/>
<path d="M35.7076 20.8456H19.2349L21.1444 18.8721H35.7076V20.8456Z" fill="#A437BF"/>
<path d="M37.4252 8.44974H0.954774C0.427739 8.44974 0 8.022 0 7.49496V0.954772C0 0.427738 0.427739 0 0.954774 0H37.4252C37.9523 0 38.38 0.427738 38.38 0.954772V7.49496C38.38 8.022 37.9523 8.44974 37.4252 8.44974Z" fill="#6697FF"/>
<path d="M14.4791 8.44974H37.4252C37.9523 8.44974 38.38 8.022 38.38 7.49496V0.954772C38.38 0.427738 37.9523 0 37.4252 0H22.9279L14.4791 8.44974Z" fill="#3374FF"/>
<path d="M37.4252 7.11297H0.954774C0.427739 7.11297 0 6.68524 0 6.1582V7.49488C0 8.02191 0.427739 8.44965 0.954774 8.44965H37.4252C37.9523 8.44965 38.38 8.02191 38.38 7.49488V6.1582C38.38 6.68524 37.9523 7.11297 37.4252 7.11297Z" fill="#3E499F"/>
<path d="M4.03297 5.56928C3.67683 5.56928 3.38849 5.28094 3.38849 4.92481V2.06049C3.38849 1.70436 3.67683 1.41602 4.03297 1.41602C4.3891 1.41602 4.67745 1.70436 4.67745 2.06049V4.92481C4.67745 5.27998 4.3891 5.56928 4.03297 5.56928Z" fill="#8E1CAA"/>
<path d="M4.03297 4.56684C3.67683 4.56684 3.38849 4.27849 3.38849 3.92236V4.92488C3.38849 5.28101 3.67683 5.56935 4.03297 5.56935C4.3891 5.56935 4.67745 5.28101 4.67745 4.92488V3.92236C4.67745 4.27754 4.3891 4.56684 4.03297 4.56684Z" fill="#A437BF"/>
<path d="M7.94757 5.56928C7.59144 5.56928 7.3031 5.28094 7.3031 4.92481V2.06049C7.3031 1.70436 7.59144 1.41602 7.94757 1.41602C8.3037 1.41602 8.59204 1.70436 8.59204 2.06049V4.92481C8.59204 5.27998 8.3037 5.56928 7.94757 5.56928Z" fill="#8E1CAA"/>
<path d="M11.8621 5.56928C11.506 5.56928 11.2177 5.28094 11.2177 4.92481V2.06049C11.2177 1.70436 11.506 1.41602 11.8621 1.41602C12.2183 1.41602 12.5066 1.70436 12.5066 2.06049V4.92481C12.5066 5.27998 12.2183 5.56928 11.8621 5.56928Z" fill="#8E1CAA"/>
<path d="M15.7767 5.56928C15.4205 5.56928 15.1322 5.28094 15.1322 4.92481V2.06049C15.1322 1.70436 15.4205 1.41602 15.7767 1.41602C16.1328 1.41602 16.4211 1.70436 16.4211 2.06049V4.92481C16.4211 5.27998 16.1328 5.56928 15.7767 5.56928Z" fill="#8E1CAA"/>
<path d="M34.4902 6.04675C35.5317 6.04675 36.3759 5.2025 36.3759 4.16107C36.3759 3.11964 35.5317 2.27539 34.4902 2.27539C33.4488 2.27539 32.6046 3.11964 32.6046 4.16107C32.6046 5.2025 33.4488 6.04675 34.4902 6.04675Z" fill="#0051FF"/>
<path d="M34.4902 5.37828C35.5317 5.37828 36.3759 4.53403 36.3759 3.49261C36.3759 2.45118 35.5317 1.60693 34.4902 1.60693C33.4488 1.60693 32.6046 2.45118 32.6046 3.49261C32.6046 4.53403 33.4488 5.37828 34.4902 5.37828Z" fill="#8E1CAA"/>
<path d="M34.4903 2.29173C35.256 2.29173 35.8881 2.81494 35.9874 3.49187C35.9959 3.43076 36.0026 3.36775 36.0026 3.30473C36.0026 2.53806 35.3257 1.9165 34.4903 1.9165C33.6548 1.9165 32.9779 2.53806 32.9779 3.30473C32.9779 3.3687 32.9846 3.43076 32.9932 3.49187C33.0925 2.81494 33.7245 2.29173 34.4903 2.29173Z" fill="#6697FF"/>
<path d="M34.4902 4.83667C33.5412 4.83667 32.7573 4.13396 32.6265 3.22119C32.6141 3.30999 32.6046 3.39973 32.6046 3.49139C32.6046 4.53305 33.4486 5.37707 34.4902 5.37707C35.5319 5.37707 36.3759 4.53305 36.3759 3.49235C36.3759 3.40069 36.3673 3.30998 36.354 3.22215C36.2231 4.13395 35.4393 4.83667 34.4902 4.83667Z" fill="#A437BF"/>
<path d="M7.94757 4.56684C7.59144 4.56684 7.3031 4.27849 7.3031 3.92236V4.92488C7.3031 5.28101 7.59144 5.56935 7.94757 5.56935C8.3037 5.56935 8.59204 5.28101 8.59204 4.92488V3.92236C8.59204 4.27754 8.3037 4.56684 7.94757 4.56684Z" fill="#A437BF"/>
<path d="M11.8621 4.56684C11.506 4.56684 11.2177 4.27849 11.2177 3.92236V4.92488C11.2177 5.28101 11.506 5.56935 11.8621 5.56935C12.2183 5.56935 12.5066 5.28101 12.5066 4.92488V3.92236C12.5066 4.27754 12.2183 4.56684 11.8621 4.56684Z" fill="#A437BF"/>
<path d="M15.7767 4.56684C15.4205 4.56684 15.1322 4.27849 15.1322 3.92236V4.92488C15.1322 5.28101 15.4205 5.56935 15.7767 5.56935C16.1328 5.56935 16.4211 5.28101 16.4211 4.92488V3.92236C16.4211 4.27754 16.1328 4.56684 15.7767 4.56684Z" fill="#A437BF"/>
<path d="M27.1356 4.37558C27.4652 4.37558 27.7323 4.10842 27.7323 3.77886C27.7323 3.44929 27.4652 3.18213 27.1356 3.18213C26.806 3.18213 26.5389 3.44929 26.5389 3.77886C26.5389 4.10842 26.806 4.37558 27.1356 4.37558Z" fill="white"/>
<path d="M24.699 4.37558C25.0286 4.37558 25.2957 4.10842 25.2957 3.77886C25.2957 3.44929 25.0286 3.18213 24.699 3.18213C24.3695 3.18213 24.1023 3.44929 24.1023 3.77886C24.1023 4.10842 24.3695 4.37558 24.699 4.37558Z" fill="#0051FF"/>
<path d="M22.2634 4.37558C22.593 4.37558 22.8601 4.10842 22.8601 3.77886C22.8601 3.44929 22.593 3.18213 22.2634 3.18213C21.9338 3.18213 21.6667 3.44929 21.6667 3.77886C21.6667 4.10842 21.9338 4.37558 22.2634 4.37558Z" fill="#0051FF"/>
<path d="M37.4252 18.8721H0.954774C0.427739 18.8721 0 18.4444 0 17.9173V11.3771C0 10.8501 0.427739 10.4224 0.954774 10.4224H37.4252C37.9523 10.4224 38.38 10.8501 38.38 11.3771V17.9173C38.38 18.4453 37.9523 18.8721 37.4252 18.8721Z" fill="#6697FF"/>
<path d="M14.4791 18.8721H37.4252C37.9523 18.8721 38.38 18.4444 38.38 17.9173V11.3771C38.38 10.8501 37.9523 10.4224 37.4252 10.4224H22.9279L14.4791 18.8721Z" fill="#3374FF"/>
<path d="M37.4252 17.5353H0.954774C0.427739 17.5353 0 17.1076 0 16.5806V17.9173C0 18.4443 0.427739 18.872 0.954774 18.872H37.4252C37.9523 18.872 38.38 18.4443 38.38 17.9173V16.5806C38.38 17.1086 37.9523 17.5353 37.4252 17.5353Z" fill="#3E499F"/>
<path d="M4.03297 15.9912C3.67683 15.9912 3.38849 15.7028 3.38849 15.3467V12.4824C3.38849 12.1262 3.67683 11.8379 4.03297 11.8379C4.3891 11.8379 4.67745 12.1262 4.67745 12.4824V15.3467C4.67745 15.7028 4.3891 15.9912 4.03297 15.9912Z" fill="#8E1CAA"/>
<path d="M4.03297 14.9887C3.67683 14.9887 3.38849 14.7004 3.38849 14.3442V15.3468C3.38849 15.7029 3.67683 15.9912 4.03297 15.9912C4.3891 15.9912 4.67745 15.7029 4.67745 15.3468V14.3442C4.67745 14.7004 4.3891 14.9887 4.03297 14.9887Z" fill="#A437BF"/>
<path d="M7.94757 15.9912C7.59144 15.9912 7.3031 15.7028 7.3031 15.3467V12.4824C7.3031 12.1262 7.59144 11.8379 7.94757 11.8379C8.3037 11.8379 8.59204 12.1262 8.59204 12.4824V15.3467C8.59204 15.7028 8.3037 15.9912 7.94757 15.9912Z" fill="#8E1CAA"/>
<path d="M11.8621 15.9912C11.506 15.9912 11.2177 15.7028 11.2177 15.3467V12.4824C11.2177 12.1262 11.506 11.8379 11.8621 11.8379C12.2183 11.8379 12.5066 12.1262 12.5066 12.4824V15.3467C12.5066 15.7028 12.2183 15.9912 11.8621 15.9912Z" fill="#8E1CAA"/>
<path d="M15.7767 15.9912C15.4205 15.9912 15.1322 15.7028 15.1322 15.3467V12.4824C15.1322 12.1262 15.4205 11.8379 15.7767 11.8379C16.1328 11.8379 16.4211 12.1262 16.4211 12.4824V15.3467C16.4211 15.7028 16.1328 15.9912 15.7767 15.9912Z" fill="#8E1CAA"/>
<path d="M34.4902 16.4686C35.5317 16.4686 36.3759 15.6244 36.3759 14.5829C36.3759 13.5415 35.5317 12.6973 34.4902 12.6973C33.4488 12.6973 32.6046 13.5415 32.6046 14.5829C32.6046 15.6244 33.4488 16.4686 34.4902 16.4686Z" fill="#0051FF"/>
<path d="M34.4902 15.8002C35.5317 15.8002 36.3759 14.9559 36.3759 13.9145C36.3759 12.8731 35.5317 12.0288 34.4902 12.0288C33.4488 12.0288 32.6046 12.8731 32.6046 13.9145C32.6046 14.9559 33.4488 15.8002 34.4902 15.8002Z" fill="#8E1CAA"/>
<path d="M34.4903 12.7136C35.256 12.7136 35.8881 13.2368 35.9874 13.9138C35.9959 13.8526 36.0026 13.7896 36.0026 13.7266C36.0026 12.9599 35.3257 12.3384 34.4903 12.3384C33.6548 12.3384 32.9779 12.9599 32.9779 13.7266C32.9779 13.7906 32.9846 13.8526 32.9932 13.9138C33.0925 13.2368 33.7245 12.7136 34.4903 12.7136Z" fill="#6697FF"/>
<path d="M34.4902 15.259C33.5412 15.259 32.7573 14.5563 32.6265 13.6436C32.6141 13.7323 32.6046 13.8221 32.6046 13.9138C32.6046 14.9554 33.4486 15.7994 34.4902 15.7994C35.5319 15.7994 36.3759 14.9564 36.3759 13.9147C36.3759 13.8231 36.3673 13.7323 36.354 13.6445C36.2231 14.5573 35.4393 15.259 34.4902 15.259Z" fill="#A437BF"/>
<path d="M7.94757 14.9887C7.59144 14.9887 7.3031 14.7004 7.3031 14.3442V15.3468C7.3031 15.7029 7.59144 15.9912 7.94757 15.9912C8.3037 15.9912 8.59204 15.7029 8.59204 15.3468V14.3442C8.59204 14.7004 8.3037 14.9887 7.94757 14.9887Z" fill="#A437BF"/>
<path d="M11.8621 14.9887C11.506 14.9887 11.2177 14.7004 11.2177 14.3442V15.3468C11.2177 15.7029 11.506 15.9912 11.8621 15.9912C12.2183 15.9912 12.5066 15.7029 12.5066 15.3468V14.3442C12.5066 14.7004 12.2183 14.9887 11.8621 14.9887Z" fill="#A437BF"/>
<path d="M15.7767 14.9887C15.4205 14.9887 15.1322 14.7004 15.1322 14.3442V15.3468C15.1322 15.7029 15.4205 15.9912 15.7767 15.9912C16.1328 15.9912 16.4211 15.7029 16.4211 15.3468V14.3442C16.4211 14.7004 16.1328 14.9887 15.7767 14.9887Z" fill="#A437BF"/>
<path d="M27.1356 14.798C27.4652 14.798 27.7323 14.5308 27.7323 14.2012C27.7323 13.8717 27.4652 13.6045 27.1356 13.6045C26.806 13.6045 26.5389 13.8717 26.5389 14.2012C26.5389 14.5308 26.806 14.798 27.1356 14.798Z" fill="white"/>
<path d="M24.699 14.798C25.0286 14.798 25.2957 14.5308 25.2957 14.2012C25.2957 13.8717 25.0286 13.6045 24.699 13.6045C24.3695 13.6045 24.1023 13.8717 24.1023 14.2012C24.1023 14.5308 24.3695 14.798 24.699 14.798Z" fill="#0051FF"/>
<path d="M22.2634 14.798C22.593 14.798 22.8601 14.5308 22.8601 14.2012C22.8601 13.8717 22.593 13.6045 22.2634 13.6045C21.9338 13.6045 21.6667 13.8717 21.6667 14.2012C21.6667 14.5308 21.9338 14.798 22.2634 14.798Z" fill="#0051FF"/>
<path d="M37.4252 29.2945H0.954774C0.427739 29.2945 0 28.8668 0 28.3397V21.7995C0 21.2725 0.427739 20.8447 0.954774 20.8447H37.4252C37.9523 20.8447 38.38 21.2725 38.38 21.7995V28.3397C38.38 28.8677 37.9523 29.2945 37.4252 29.2945Z" fill="#6697FF"/>
<path d="M14.4791 29.2945H37.4252C37.9523 29.2945 38.38 28.8668 38.38 28.3397V21.7995C38.38 21.2725 37.9523 20.8447 37.4252 20.8447H22.9279L14.4791 29.2945Z" fill="#3374FF"/>
<path d="M37.4252 27.9577H0.954774C0.427739 27.9577 0 27.53 0 27.0029V28.3396C0 28.8666 0.427739 29.2944 0.954774 29.2944H37.4252C37.9523 29.2944 38.38 28.8666 38.38 28.3396V27.0029C38.38 27.5309 37.9523 27.9577 37.4252 27.9577Z" fill="#3E499F"/>
<path d="M4.03297 26.414C3.67683 26.414 3.38849 26.1257 3.38849 25.7695V22.9052C3.38849 22.5491 3.67683 22.2607 4.03297 22.2607C4.3891 22.2607 4.67745 22.5491 4.67745 22.9052V25.7695C4.67745 26.1257 4.3891 26.414 4.03297 26.414Z" fill="#8E1CAA"/>
<path d="M4.03297 25.4116C3.67683 25.4116 3.38849 25.1232 3.38849 24.7671V25.7696C3.38849 26.1258 3.67683 26.4141 4.03297 26.4141C4.3891 26.4141 4.67745 26.1258 4.67745 25.7696V24.7671C4.67745 25.1232 4.3891 25.4116 4.03297 25.4116Z" fill="#A437BF"/>
<path d="M7.94757 26.414C7.59144 26.414 7.3031 26.1257 7.3031 25.7695V22.9052C7.3031 22.5491 7.59144 22.2607 7.94757 22.2607C8.3037 22.2607 8.59204 22.5491 8.59204 22.9052V25.7695C8.59204 26.1257 8.3037 26.414 7.94757 26.414Z" fill="#8E1CAA"/>
<path d="M11.8621 26.414C11.506 26.414 11.2177 26.1257 11.2177 25.7695V22.9052C11.2177 22.5491 11.506 22.2607 11.8621 22.2607C12.2183 22.2607 12.5066 22.5491 12.5066 22.9052V25.7695C12.5066 26.1257 12.2183 26.414 11.8621 26.414Z" fill="#8E1CAA"/>
<path d="M15.7767 26.414C15.4205 26.414 15.1322 26.1257 15.1322 25.7695V22.9052C15.1322 22.5491 15.4205 22.2607 15.7767 22.2607C16.1328 22.2607 16.4211 22.5491 16.4211 22.9052V25.7695C16.4211 26.1257 16.1328 26.414 15.7767 26.414Z" fill="#8E1CAA"/>
<path d="M34.4902 26.8915C35.5317 26.8915 36.3759 26.0472 36.3759 25.0058C36.3759 23.9644 35.5317 23.1201 34.4902 23.1201C33.4488 23.1201 32.6046 23.9644 32.6046 25.0058C32.6046 26.0472 33.4488 26.8915 34.4902 26.8915Z" fill="#0051FF"/>
<path d="M34.4902 26.2231C35.5317 26.2231 36.3759 25.3788 36.3759 24.3374C36.3759 23.2959 35.5317 22.4517 34.4902 22.4517C33.4488 22.4517 32.6046 23.2959 32.6046 24.3374C32.6046 25.3788 33.4488 26.2231 34.4902 26.2231Z" fill="#8E1CAA"/>
<path d="M34.4903 23.137C35.256 23.137 35.8881 23.6602 35.9874 24.3372C35.9959 24.276 36.0026 24.213 36.0026 24.15C36.0026 23.3833 35.3257 22.7617 34.4903 22.7617C33.6548 22.7617 32.9779 23.3833 32.9779 24.15C32.9779 24.214 32.9846 24.276 32.9932 24.3372C33.0925 23.6592 33.7245 23.137 34.4903 23.137Z" fill="#6697FF"/>
<path d="M34.4902 25.6813C33.5412 25.6813 32.7573 24.9787 32.6265 24.0659C32.6141 24.1547 32.6046 24.2445 32.6046 24.3361C32.6046 25.3777 33.4486 26.2217 34.4902 26.2217C35.5319 26.2217 36.3759 25.3787 36.3759 24.3371C36.3759 24.2454 36.3673 24.1547 36.354 24.0669C36.2231 24.9796 35.4393 25.6813 34.4902 25.6813Z" fill="#A437BF"/>
<path d="M7.94757 25.4116C7.59144 25.4116 7.3031 25.1232 7.3031 24.7671V25.7696C7.3031 26.1258 7.59144 26.4141 7.94757 26.4141C8.3037 26.4141 8.59204 26.1258 8.59204 25.7696V24.7671C8.59204 25.1232 8.3037 25.4116 7.94757 25.4116Z" fill="#A437BF"/>
<path d="M11.8621 25.4116C11.506 25.4116 11.2177 25.1232 11.2177 24.7671V25.7696C11.2177 26.1258 11.506 26.4141 11.8621 26.4141C12.2183 26.4141 12.5066 26.1258 12.5066 25.7696V24.7671C12.5066 25.1232 12.2183 25.4116 11.8621 25.4116Z" fill="#A437BF"/>
<path d="M15.7767 25.4116C15.4205 25.4116 15.1322 25.1232 15.1322 24.7671V25.7696C15.1322 26.1258 15.4205 26.4141 15.7767 26.4141C16.1328 26.4141 16.4211 26.1258 16.4211 25.7696V24.7671C16.4211 25.1232 16.1328 25.4116 15.7767 25.4116Z" fill="#A437BF"/>
<path d="M27.1356 25.2204C27.4652 25.2204 27.7323 24.9532 27.7323 24.6236C27.7323 24.294 27.4652 24.0269 27.1356 24.0269C26.806 24.0269 26.5389 24.294 26.5389 24.6236C26.5389 24.9532 26.806 25.2204 27.1356 25.2204Z" fill="white"/>
<path d="M24.699 25.2204C25.0286 25.2204 25.2957 24.9532 25.2957 24.6236C25.2957 24.294 25.0286 24.0269 24.699 24.0269C24.3695 24.0269 24.1023 24.294 24.1023 24.6236C24.1023 24.9532 24.3695 25.2204 24.699 25.2204Z" fill="#0051FF"/>
<path d="M22.2634 25.2204C22.593 25.2204 22.8601 24.9532 22.8601 24.6236C22.8601 24.294 22.593 24.0269 22.2634 24.0269C21.9338 24.0269 21.6667 24.294 21.6667 24.6236C21.6667 24.9532 21.9338 25.2204 22.2634 25.2204Z" fill="#0051FF"/>
<path d="M38.38 36.543H0V39.0254H38.38V36.543Z" fill="white"/>
<path d="M17.9485 29.2946L17.9485 39.0256L20.4309 39.0256L20.4309 29.2946L17.9485 29.2946Z" fill="#D1D3D4"/>
<path d="M18.7123 29.2946L18.7123 39.0256L19.6671 39.0256L19.6671 29.2946L18.7123 29.2946Z" fill="white"/>
<path d="M38.38 37.7842H0V39.0254H38.38V37.7842Z" fill="#D1D3D4"/>
<path d="M22.0305 39.7989H16.3495C15.8225 39.7989 15.3948 39.3711 15.3948 38.8441V36.6796C15.3948 36.1526 15.8225 35.7249 16.3495 35.7249H22.0305C22.5575 35.7249 22.9852 36.1526 22.9852 36.6796V38.8441C22.9852 39.3721 22.5575 39.7989 22.0305 39.7989Z" fill="#8E1CAA"/>
<path d="M21.2265 39.799V34.9221C21.2265 34.395 20.7987 33.9673 20.2717 33.9673H18.1072C17.5802 33.9673 17.1525 34.395 17.1525 34.9221V39.799H21.2265Z" fill="#8E1CAA"/>
<path d="M22.2319 39.0293H16.1471C15.7308 39.0293 15.3938 38.6923 15.3938 38.276V37.2477C15.3938 36.8314 15.7308 36.4944 16.1471 36.4944H22.2319C22.6482 36.4944 22.9852 36.8314 22.9852 37.2477V38.276C22.9852 38.6923 22.6482 39.0293 22.2319 39.0293Z" fill="#A437BF"/>
<path d="M20.457 39.0295V34.7206C20.457 34.3043 20.1199 33.9673 19.7037 33.9673H18.6754C18.2591 33.9673 17.9221 34.3043 17.9221 34.7206V39.0295H20.457Z" fill="#A437BF"/>
</svg>
