<svg width="68" height="58" viewBox="0 0 68 58" fill="none" xmlns="http://www.w3.org/2000/svg">
<path d="M67.2991 30.735L62.4155 22.9001C62.15 22.4752 61.6851 22.2165 61.1838 22.2165H57.19V21.6179C57.19 21.0908 56.7623 20.6631 56.2352 20.6631H41.7379L41.7293 20.6717H19.7648C19.2377 20.6717 18.81 21.0994 18.81 21.6265V26.83V28.1667C18.81 28.4006 18.894 28.6144 19.0334 28.7806C19.0707 28.8254 19.1127 28.8665 19.1575 28.9037C19.1814 28.9228 19.2053 28.9419 19.2311 28.9591C19.2692 28.9849 19.3103 29.0078 19.3533 29.0279C19.4783 29.088 19.6177 29.1224 19.7648 29.1224H21.5722V31.0959H35.3696C35.3686 31.0988 35.3677 31.1016 35.3667 31.1045H19.7648C19.2377 31.1045 18.81 31.5322 18.81 32.0593V37.2628V38.5995C18.81 38.7484 18.8453 38.8888 18.9055 39.0148C18.9198 39.0453 18.936 39.074 18.9542 39.1026C18.978 39.1418 19.0048 39.1781 19.0334 39.2134C19.2081 39.4215 19.4707 39.5542 19.7648 39.5542H21.5722V41.5278H38.0449H41.7389L41.7303 41.5364H19.7648C19.2377 41.5364 18.81 41.9641 18.81 42.4911V47.6946V49.0313C18.81 49.2948 18.9169 49.5335 19.0897 49.7064C19.1327 49.7493 19.1805 49.7885 19.2311 49.8228C19.3838 49.926 19.5671 49.9861 19.7648 49.9861H21.5722V51.9596H19.6722C19.2769 51.9596 18.9446 52.226 18.8425 52.5879C18.8406 52.5936 18.8396 52.6003 18.8377 52.606C18.831 52.6337 18.8253 52.6614 18.8205 52.6891C18.8195 52.6977 18.8176 52.7063 18.8167 52.7148C18.8129 52.7492 18.81 52.7845 18.81 52.8208C18.81 52.9402 18.8339 53.0528 18.8778 53.1569C19.0086 53.4663 19.3151 53.6839 19.6722 53.6839H21.5722V55.1476V56.7707C21.5722 57.0342 21.786 57.2481 22.0495 57.2481H27.6254C27.8889 57.2481 28.1028 57.0342 28.1028 56.7707V55.1476V53.6839H47.9869V55.1476V56.7707C47.9869 57.0342 48.2008 57.2481 48.4643 57.2481H54.0402C54.3037 57.2481 54.5176 57.0342 54.5176 56.7707V55.1476V53.6839H56.3278C56.4176 53.6839 56.5035 53.6706 56.5847 53.6448C56.6114 53.6362 56.6381 53.6267 56.6639 53.6162C56.9733 53.4853 57.191 53.1789 57.191 52.8218C57.191 52.7855 57.1881 52.7502 57.1833 52.7158C57.1824 52.7072 57.1804 52.6986 57.1795 52.69C57.1747 52.6614 57.169 52.6337 57.1623 52.606C57.1604 52.6003 57.1594 52.5936 57.1575 52.5879C57.1375 52.5182 57.1098 52.4523 57.0745 52.3902C56.9255 52.1324 56.6477 51.9587 56.3288 51.9587H54.5176V49.9851H56.2352C56.2677 49.9851 56.3011 49.9832 56.3326 49.9804C56.4606 49.967 56.5818 49.9288 56.6897 49.8696C56.7709 49.8257 56.8453 49.7703 56.9093 49.7054C56.9952 49.6195 57.0659 49.5164 57.1136 49.4018C57.1623 49.2872 57.189 49.1621 57.189 49.0304V49.0218V47.6937V44.3042L67.1779 32.4364C67.5827 31.9552 67.6314 31.2678 67.2991 30.735Z" fill="#99B9FF"/>
<path d="M54.5176 27.2119H21.5721V29.1854H54.5176V27.2119Z" fill="#8E1CAA"/>
<path d="M54.5176 29.1845H38.0449L39.9544 27.2119H54.5176V29.1845Z" fill="#A437BF"/>
<path d="M56.2352 27.212H19.7648C19.2377 27.212 18.81 26.7842 18.81 26.2572V19.717C18.81 19.1899 19.2377 18.7622 19.7648 18.7622H56.2352C56.7623 18.7622 57.19 19.1899 57.19 19.717V26.2572C57.19 26.7842 56.7623 27.212 56.2352 27.212Z" fill="#3374FF"/>
<path d="M33.2891 27.2022H56.2352C56.7622 27.2022 57.19 26.7745 57.19 26.2474V19.7072C57.19 19.1802 56.7622 18.7524 56.2352 18.7524H41.7379L33.2891 27.2022Z" fill="#0051FF"/>
<path d="M56.2352 25.8752H19.7648C19.2377 25.8752 18.81 25.4474 18.81 24.9204V26.2571C18.81 26.7841 19.2377 27.2119 19.7648 27.2119H56.2352C56.7623 27.2119 57.19 26.7841 57.19 26.2571V24.9204C57.19 25.4474 56.7623 25.8752 56.2352 25.8752Z" fill="#003199"/>
<path d="M22.843 24.33C22.4868 24.33 22.1985 24.0417 22.1985 23.6856V20.8212C22.1985 20.4651 22.4868 20.1768 22.843 20.1768C23.1991 20.1768 23.4874 20.4651 23.4874 20.8212V23.6856C23.4874 24.0417 23.1991 24.33 22.843 24.33Z" fill="#8E1CAA"/>
<path d="M22.843 23.3276C22.4868 23.3276 22.1985 23.0392 22.1985 22.6831V23.6856C22.1985 24.0417 22.4868 24.3301 22.843 24.3301C23.1991 24.3301 23.4874 24.0417 23.4874 23.6856V22.6831C23.4874 23.0392 23.1991 23.3276 22.843 23.3276Z" fill="#A437BF"/>
<path d="M26.7575 24.33C26.4014 24.33 26.113 24.0417 26.113 23.6856V20.8212C26.113 20.4651 26.4014 20.1768 26.7575 20.1768C27.1136 20.1768 27.402 20.4651 27.402 20.8212V23.6856C27.402 24.0417 27.1136 24.33 26.7575 24.33Z" fill="#8E1CAA"/>
<path d="M30.6721 24.33C30.3159 24.33 30.0276 24.0417 30.0276 23.6856V20.8212C30.0276 20.4651 30.3159 20.1768 30.6721 20.1768C31.0282 20.1768 31.3165 20.4651 31.3165 20.8212V23.6856C31.3165 24.0417 31.0282 24.33 30.6721 24.33Z" fill="#8E1CAA"/>
<path d="M26.7575 23.3276C26.4014 23.3276 26.113 23.0392 26.113 22.6831V23.6856C26.113 24.0417 26.4014 24.3301 26.7575 24.3301C27.1136 24.3301 27.402 24.0417 27.402 23.6856V22.6831C27.402 23.0392 27.1136 23.3276 26.7575 23.3276Z" fill="#A437BF"/>
<path d="M30.6721 23.3276C30.3159 23.3276 30.0276 23.0392 30.0276 22.6831V23.6856C30.0276 24.0417 30.3159 24.3301 30.6721 24.3301C31.0282 24.3301 31.3165 24.0417 31.3165 23.6856V22.6831C31.3165 23.0392 31.0282 23.3276 30.6721 23.3276Z" fill="#A437BF"/>
<path d="M54.5175 37.6426H21.5721V39.6161H54.5175V37.6426Z" fill="#8E1CAA"/>
<path d="M54.5175 39.6161H38.0448L39.9543 37.6426H54.5175V39.6161Z" fill="#A437BF"/>
<path d="M56.2352 37.6431H19.7647C19.2377 37.6431 18.8099 37.2154 18.8099 36.6883V30.1481C18.8099 29.6211 19.2377 29.1934 19.7647 29.1934H56.2352C56.7622 29.1934 57.1899 29.6211 57.1899 30.1481V36.6883C57.1899 37.2163 56.7622 37.6431 56.2352 37.6431Z" fill="#3374FF"/>
<path d="M33.2891 37.6338H56.2351C56.7622 37.6338 57.1899 37.2061 57.1899 36.6791V30.1389C57.1899 29.6118 56.7622 29.1841 56.2351 29.1841H41.7379L33.2891 37.6338Z" fill="#0051FF"/>
<path d="M56.2352 36.3058H19.7647C19.2377 36.3058 18.8099 35.8781 18.8099 35.3511V36.6878C18.8099 37.2148 19.2377 37.6425 19.7647 37.6425H56.2352C56.7622 37.6425 57.1899 37.2148 57.1899 36.6878V35.3511C57.1899 35.8791 56.7622 36.3058 56.2352 36.3058Z" fill="#003199"/>
<path d="M22.8429 34.7622C22.4868 34.7622 22.1984 34.4738 22.1984 34.1177V31.2534C22.1984 30.8972 22.4868 30.6089 22.8429 30.6089C23.199 30.6089 23.4874 30.8972 23.4874 31.2534V34.1177C23.4874 34.4738 23.199 34.7622 22.8429 34.7622Z" fill="#8E1CAA"/>
<path d="M22.8429 33.7592C22.4868 33.7592 22.1984 33.4709 22.1984 33.1147V34.1173C22.1984 34.4734 22.4868 34.7617 22.8429 34.7617C23.199 34.7617 23.4874 34.4734 23.4874 34.1173V33.1147C23.4874 33.4709 23.199 33.7592 22.8429 33.7592Z" fill="#A437BF"/>
<path d="M26.7574 34.7622C26.4013 34.7622 26.113 34.4738 26.113 34.1177V31.2534C26.113 30.8972 26.4013 30.6089 26.7574 30.6089C27.1136 30.6089 27.4019 30.8972 27.4019 31.2534V34.1177C27.4019 34.4738 27.1136 34.7622 26.7574 34.7622Z" fill="#8E1CAA"/>
<path d="M30.6721 34.7622C30.3159 34.7622 30.0276 34.4738 30.0276 34.1177V31.2534C30.0276 30.8972 30.3159 30.6089 30.6721 30.6089C31.0282 30.6089 31.3165 30.8972 31.3165 31.2534V34.1177C31.3165 34.4738 31.0282 34.7622 30.6721 34.7622Z" fill="#8E1CAA"/>
<path d="M26.7574 33.7592C26.4013 33.7592 26.113 33.4709 26.113 33.1147V34.1173C26.113 34.4734 26.4013 34.7617 26.7574 34.7617C27.1136 34.7617 27.4019 34.4734 27.4019 34.1173V33.1147C27.4019 33.4709 27.1136 33.7592 26.7574 33.7592Z" fill="#A437BF"/>
<path d="M30.6721 33.7592C30.3159 33.7592 30.0276 33.4709 30.0276 33.1147V34.1173C30.0276 34.4734 30.3159 34.7617 30.6721 34.7617C31.0282 34.7617 31.3165 34.4734 31.3165 34.1173V33.1147C31.3165 33.4709 31.0282 33.7592 30.6721 33.7592Z" fill="#A437BF"/>
<path d="M54.5175 48.0747H21.5721V50.0482H54.5175V48.0747Z" fill="#8E1CAA"/>
<path d="M54.5175 50.0482H38.0448L39.9543 48.0747H54.5175V50.0482Z" fill="#A437BF"/>
<path d="M56.2352 48.0757H19.7647C19.2377 48.0757 18.8099 47.648 18.8099 47.121V40.5808C18.8099 40.0537 19.2377 39.626 19.7647 39.626H56.2352C56.7622 39.626 57.1899 40.0537 57.1899 40.5808V47.121C57.1899 47.648 56.7622 48.0757 56.2352 48.0757Z" fill="#3374FF"/>
<path d="M33.2891 48.0664H56.2351C56.7622 48.0664 57.1899 47.6387 57.1899 47.1117V40.5715C57.1899 40.0444 56.7622 39.6167 56.2351 39.6167H41.7379L33.2891 48.0664Z" fill="#0051FF"/>
<path d="M56.2352 46.738H19.7647C19.2377 46.738 18.8099 46.3102 18.8099 45.7832V47.1199C18.8099 47.6469 19.2377 48.0747 19.7647 48.0747H56.2352C56.7622 48.0747 57.1899 47.6469 57.1899 47.1199V45.7832C57.1899 46.3102 56.7622 46.738 56.2352 46.738Z" fill="#003199"/>
<path d="M22.8429 45.1943C22.4868 45.1943 22.1984 44.9059 22.1984 44.5498V41.6855C22.1984 41.3294 22.4868 41.041 22.8429 41.041C23.199 41.041 23.4874 41.3294 23.4874 41.6855V44.5498C23.4874 44.905 23.199 45.1943 22.8429 45.1943Z" fill="#8E1CAA"/>
<path d="M22.8429 44.1918C22.4868 44.1918 22.1984 43.9035 22.1984 43.5474V44.5499C22.1984 44.906 22.4868 45.1943 22.8429 45.1943C23.199 45.1943 23.4874 44.906 23.4874 44.5499V43.5474C23.4874 43.9025 23.199 44.1918 22.8429 44.1918Z" fill="#A437BF"/>
<path d="M26.7574 45.1943C26.4013 45.1943 26.113 44.9059 26.113 44.5498V41.6855C26.113 41.3294 26.4013 41.041 26.7574 41.041C27.1136 41.041 27.4019 41.3294 27.4019 41.6855V44.5498C27.4019 44.905 27.1136 45.1943 26.7574 45.1943Z" fill="#8E1CAA"/>
<path d="M30.6721 45.1943C30.3159 45.1943 30.0276 44.9059 30.0276 44.5498V41.6855C30.0276 41.3294 30.3159 41.041 30.6721 41.041C31.0282 41.041 31.3165 41.3294 31.3165 41.6855V44.5498C31.3165 44.905 31.0282 45.1943 30.6721 45.1943Z" fill="#8E1CAA"/>
<path d="M26.7574 44.1918C26.4013 44.1918 26.113 43.9035 26.113 43.5474V44.5499C26.113 44.906 26.4013 45.1943 26.7574 45.1943C27.1136 45.1943 27.4019 44.906 27.4019 44.5499V43.5474C27.4019 43.9025 27.1136 44.1918 26.7574 44.1918Z" fill="#A437BF"/>
<path d="M30.6721 44.1918C30.3159 44.1918 30.0276 43.9035 30.0276 43.5474V44.5499C30.0276 44.906 30.3159 45.1943 30.6721 45.1943C31.0282 45.1943 31.3165 44.906 31.3165 44.5499V43.5474C31.3165 43.9025 31.0282 44.1918 30.6721 44.1918Z" fill="#A437BF"/>
<path d="M56.3278 51.7722H19.6721C19.1957 51.7722 18.8099 51.3864 18.8099 50.91C18.8099 50.4336 19.1957 50.0479 19.6721 50.0479H56.3278C56.8042 50.0479 57.1899 50.4336 57.1899 50.91C57.1899 51.3855 56.8042 51.7722 56.3278 51.7722Z" fill="#79ABDC"/>
<path d="M56.3278 50.9101H19.6721C19.3532 50.9101 19.0754 50.7363 18.9264 50.4785C18.8529 50.6055 18.8099 50.7525 18.8099 50.9101C18.8099 51.3865 19.1957 51.7722 19.6721 51.7722H56.3278C56.8042 51.7722 57.1899 51.3865 57.1899 50.9101C57.1899 50.7525 57.147 50.6055 57.0735 50.4785C56.9245 50.7363 56.6467 50.9101 56.3278 50.9101Z" fill="#0051FF"/>
<path d="M27.6244 55.3366H22.0486C21.785 55.3366 21.5712 55.1228 21.5712 54.8592V51.7725H28.1018V54.8592C28.1018 55.1228 27.888 55.3366 27.6244 55.3366Z" fill="#8E1CAA"/>
<path d="M54.0401 55.3366H48.4643C48.2007 55.3366 47.9869 55.1228 47.9869 54.8592V51.7725H54.5175V54.8592C54.5175 55.1228 54.3037 55.3366 54.0401 55.3366Z" fill="#8E1CAA"/>
<path d="M28.1028 51.7725H21.5721V53.2361H28.1028V51.7725Z" fill="#A437BF"/>
<path d="M54.5175 51.7725H47.9869V53.2361H54.5175V51.7725Z" fill="#A437BF"/>
<path d="M38.908 36.3064H56.2352C56.7623 36.3064 57.19 35.8796 57.19 35.3517V30.1481C57.19 29.6211 56.7623 29.1934 56.2352 29.1934H36.4905L35.53 30.7344C35.1977 31.2681 35.2464 31.9555 35.6513 32.4358L38.908 36.3064Z" fill="#0051FF"/>
<path d="M56.2352 37.643H40.0337H56.2352C56.4262 37.643 56.6028 37.5867 56.7518 37.4902C56.6028 37.5867 56.4262 37.643 56.2352 37.643Z" fill="#0051FF"/>
<path d="M51.4146 48.4539C50.9868 48.4539 50.5801 48.2648 50.3042 47.9373L35.6513 30.527C35.2464 30.0458 35.1977 29.3584 35.53 28.8256L40.4146 20.9907C40.6791 20.5659 41.145 20.3071 41.6453 20.3071H61.1838C61.6851 20.3071 62.15 20.5659 62.4155 20.9907L67.2991 28.8256C67.6314 29.3593 67.5827 30.0468 67.1779 30.527L52.524 47.9373C52.249 48.2648 51.8423 48.4539 51.4146 48.4539Z" fill="white"/>
<path d="M60.991 21.6733H55.3215H51.4146H47.5077H41.8382L37.0491 29.5846L51.4146 47.1658L65.7801 29.5846L60.991 21.6733Z" fill="#D1D3D4"/>
<path d="M38.191 29.7734L51.4146 45.4842L46.0201 29.7734H38.191Z" fill="#8E1CAA"/>
<path d="M51.4146 45.4842L64.6382 29.7734H56.809L51.4146 45.4842Z" fill="#8E1CAA"/>
<path d="M46.0201 29.7734L51.4146 45.4842L56.8091 29.7734H46.0201Z" fill="#A437BF"/>
<path d="M47.818 22.7036H42.5992L38.191 29.7737H46.0201L47.818 22.7036Z" fill="#A437BF"/>
<path d="M55.0112 22.7036L56.8091 29.7737H64.6382L60.23 22.7036H55.0112Z" fill="#A437BF"/>
<path d="M56.8091 29.7737L55.0112 22.7036H51.4146H47.818L46.0201 29.7737H56.8091Z" fill="#8E1CAA"/>
<path d="M64.2095 30.2829H38.6197L38.191 29.774L38.507 29.2651H64.3212L64.6382 29.774L64.2095 30.2829Z" fill="white"/>
<path d="M64.2095 30.2823L64.6382 29.7734H38.191L38.6197 30.2823H64.2095Z" fill="#D1D3D4"/>
<path d="M48.386 22.7036H47.2508L45.0195 29.2648H46.1547L48.386 22.7036Z" fill="white"/>
<path d="M47.8132 22.7036L45.5818 29.2648H46.1547L48.386 22.7036H47.8132Z" fill="#D1D3D4"/>
<path d="M54.4841 22.7036H55.6194L57.8507 29.2648H56.7154L54.4841 22.7036Z" fill="white"/>
<path d="M54.4841 22.7036L56.7154 29.2648H57.2883L55.057 22.7036H54.4841Z" fill="#D1D3D4"/>
<path d="M51.4145 45.4846L51.805 45.0206L46.1786 30.2827H45.0433L50.3757 44.2501L51.4145 45.4846Z" fill="white"/>
<path d="M51.701 45.1447L51.8051 45.0206L46.1786 30.2827H45.6162L51.0298 45.0282L51.701 45.1447Z" fill="#D1D3D4"/>
<path d="M51.4146 45.4846L52.4696 44.23L57.7944 30.2827H56.6591L51.0298 45.0282L51.4146 45.4846Z" fill="white"/>
<path d="M57.232 30.2827H56.6591L51.0298 45.0282L51.4146 45.4846L51.701 45.1447L57.232 30.2827Z" fill="#D1D3D4"/>
</svg>
