<svg width="60" height="55" viewBox="0 0 60 55" fill="none" xmlns="http://www.w3.org/2000/svg">
<path d="M58.7273 35.904C59.2214 35.904 59.6465 35.6157 59.8478 35.1996C59.9269 35.0356 59.9733 34.8525 59.9733 34.658V33.8281V31.0829C59.9733 30.3954 59.4159 29.838 58.7284 29.838H53.3273C52.5517 21.2145 46.9934 13.9478 39.3309 10.7198V10.401C39.3309 9.71352 38.7735 9.15611 38.0861 9.15611H37.2924V8.32621H38.0861C38.5802 8.32621 39.0053 8.03789 39.2066 7.62181C39.2857 7.45787 39.3321 7.2747 39.3321 7.08023V6.25033V3.5051C39.3321 2.81767 38.7746 2.26025 38.0872 2.26025H23.0178C22.3304 2.26025 21.773 2.81767 21.773 3.5051V6.25033V7.08023C21.773 7.3448 21.8555 7.58902 21.9957 7.79028C22.2207 8.11365 22.5939 8.32508 23.0178 8.32508H23.8116V9.15498H23.0178C22.3304 9.15498 21.773 9.71239 21.773 10.3998V10.6248C13.993 13.8031 8.33179 21.1263 7.54825 29.8358H1.24485C0.557413 29.8358 0 30.3932 0 31.0806V33.8258V34.6557C0 34.9203 0.082537 35.1645 0.222738 35.3658C0.447738 35.6891 0.820855 35.9006 1.24485 35.9006H2.03857V36.7305H1.24485C0.557413 36.7305 0 37.2879 0 37.9753V40.7206V41.5505C0 41.8196 0.0859298 42.0672 0.230653 42.2707C0.317714 42.3928 0.425125 42.4991 0.549497 42.5827C0.748492 42.7173 0.988191 42.7953 1.24598 42.7953H2.0397V43.6252H1.24598C0.558543 43.6252 0.0011309 44.1826 0.0011309 44.8701V47.6153V48.4452C0.0011309 48.7143 0.0870598 48.9619 0.231784 49.1654C0.318844 49.2875 0.426257 49.3938 0.550629 49.4775C0.749624 49.612 0.989323 49.69 1.24711 49.69H15.8936C19.8588 52.9395 24.9253 54.8922 30.4395 54.8922C35.9537 54.8922 41.0201 52.9395 44.9853 49.69H58.7273C58.8132 49.69 58.8969 49.681 58.9783 49.6652C59.019 49.6572 59.0586 49.6471 59.0981 49.6346C59.1762 49.6109 59.2508 49.5781 59.3209 49.5408C59.3559 49.5216 59.391 49.5012 59.4238 49.4786C59.5889 49.3667 59.7268 49.2163 59.8229 49.0399C59.919 48.8635 59.9733 48.6611 59.9733 48.4463V47.6164V44.8712C59.9733 44.1837 59.4159 43.6263 58.7284 43.6263H57.9347V42.7964H58.7284C58.8144 42.7964 58.898 42.7874 58.9794 42.7716C59.0201 42.7636 59.0597 42.7535 59.0993 42.741C59.1773 42.7173 59.2519 42.6845 59.322 42.6472C59.3571 42.628 59.3921 42.6076 59.4249 42.585C59.59 42.4731 59.7279 42.3227 59.824 42.1463C59.9201 41.9699 59.9744 41.7675 59.9744 41.5527V40.7228V37.9776C59.9744 37.2902 59.417 36.7327 58.7296 36.7327H57.9358V35.9028H58.7273V35.904ZM17.5579 46.3727V44.8746C17.5579 44.1871 17.0005 43.6297 16.3131 43.6297H15.5194V42.7998H16.3131C16.399 42.7998 16.4827 42.7908 16.5641 42.775C16.6048 42.767 16.6444 42.7569 16.6839 42.7444C16.7619 42.7207 16.8366 42.6879 16.9067 42.6506C16.9417 42.6314 16.9768 42.611 17.0096 42.5884C17.1746 42.4765 17.3126 42.3261 17.4087 42.1497C17.5048 41.9733 17.5591 41.7709 17.5591 41.5561V40.7262V37.981C17.5591 37.2935 17.0016 36.7361 16.3142 36.7361H15.5205V35.9062H16.3142C16.8083 35.9062 17.2334 35.6179 17.4347 35.2018C17.5138 35.0379 17.5602 34.8547 17.5602 34.6603V33.8304V31.0851C17.5602 30.3977 17.0028 29.8403 16.3153 29.8403H11.1776C11.8979 23.1084 16.0802 17.3974 21.9042 14.5267C21.9336 14.5866 21.9675 14.6443 22.007 14.6997C22.0941 14.8218 22.2015 14.9281 22.3259 15.0118C22.5249 15.1463 22.7646 15.2243 23.0224 15.2243H23.8161V16.0542H23.0224C22.3349 16.0542 21.7775 16.6116 21.7775 17.2991V20.0443V20.8742C21.7775 21.1433 21.8635 21.3909 22.0082 21.5944C22.1416 21.781 22.3236 21.9314 22.5385 22.0218C22.6877 22.0851 22.8516 22.1202 23.0235 22.1202H38.0906C38.1765 22.1202 38.2602 22.1111 38.3416 22.0953C38.3823 22.0874 38.4219 22.0772 38.4614 22.0648C38.7927 21.9619 39.063 21.7245 39.2111 21.4169C39.2902 21.253 39.3366 21.0698 39.3366 20.8753V20.0454V17.3002C39.3366 16.6128 38.7792 16.0554 38.0917 16.0554H37.298V15.2255H38.0917C38.1777 15.2255 38.2613 15.2164 38.3427 15.2006C38.3834 15.1927 38.423 15.1825 38.4626 15.1701C38.5406 15.1463 38.6152 15.1135 38.6853 15.0762C38.7204 15.057 38.7554 15.0366 38.7882 15.014C38.9397 14.9111 39.0664 14.7766 39.1602 14.6183C44.8904 17.5173 48.9935 23.1796 49.7069 29.8425H43.667C42.9795 29.8425 42.4221 30.4 42.4221 31.0874V33.8326V34.6625C42.4221 34.9271 42.5047 35.1713 42.6449 35.3726C42.8699 35.6959 43.243 35.9074 43.667 35.9074H44.4607V36.7373H43.667C42.9795 36.7373 42.4221 37.2947 42.4221 37.9821V40.7273V41.5572C42.4221 41.8263 42.5081 42.0739 42.6528 42.2775C42.7398 42.3996 42.8473 42.5059 42.9716 42.5895C43.1706 42.7241 43.4103 42.8021 43.6681 42.8021H44.4618V43.632H43.6681C42.9807 43.632 42.4233 44.1894 42.4233 44.8768V47.1336C39.1251 49.7353 34.9632 51.2899 30.4462 51.2899C25.4974 51.2876 20.9838 49.4277 17.5579 46.3727Z" fill="#99B9FF"/>
<path d="M30.4372 52.6363C17.7637 52.6363 7.45325 42.3259 7.45325 29.6524C7.45325 16.9789 17.7637 6.66846 30.4372 6.66846C43.1107 6.66846 53.4211 16.9789 53.4211 29.6524C53.4211 42.3259 43.1107 52.6363 30.4372 52.6363ZM30.4372 10.2775C19.7548 10.2775 11.0634 18.9688 11.0634 29.6512C11.0634 40.3337 19.7548 49.025 30.4372 49.025C41.1196 49.025 49.8109 40.3337 49.8109 29.6512C49.8109 18.9688 41.1207 10.2775 30.4372 10.2775Z" fill="white"/>
<path d="M30.4372 8.47314C18.7406 8.47314 9.25781 17.9548 9.25781 29.6525C9.25781 41.3503 18.7395 50.8319 30.4372 50.8319C42.1349 50.8319 51.6166 41.3503 51.6166 29.6525C51.6166 17.9548 42.1338 8.47314 30.4372 8.47314ZM30.4372 49.0263C19.7548 49.0263 11.0635 40.335 11.0635 29.6525C11.0635 18.9701 19.7548 10.2788 30.4372 10.2788C41.1196 10.2788 49.8109 18.9701 49.8109 29.6525C49.8109 40.335 41.1207 49.0263 30.4372 49.0263Z" fill="#D1D3D4"/>
<path d="M2.03878 34.4717L15.5184 34.4717L15.5184 33.6418L2.03878 33.6418L2.03878 34.4717Z" fill="#003199"/>
<path d="M2.03878 41.3682L15.5184 41.3682L15.5184 40.5382L2.03878 40.5382L2.03878 41.3682Z" fill="#003199"/>
<path d="M1.24485 33.6425H16.3119C16.9994 33.6425 17.5568 33.0851 17.5568 32.3976V28.8225C17.5568 28.1351 16.9994 27.5776 16.3119 27.5776H1.24485C0.557412 27.5776 0 28.1351 0 28.8225V32.3976C0 33.0851 0.557412 33.6425 1.24485 33.6425Z" fill="#3374FF"/>
<path d="M1.24485 32.8117H16.3119C16.9994 32.8117 17.5568 32.2543 17.5568 31.5669V32.3968C17.5568 33.0842 16.9994 33.6416 16.3119 33.6416H1.24485C0.557412 33.6416 0 33.0842 0 32.3968V31.5669C0 32.2543 0.557412 32.8117 1.24485 32.8117Z" fill="#0051FF"/>
<path d="M2.85031 31.0136C3.25683 31.0136 3.58637 30.6841 3.58637 30.2776C3.58637 29.871 3.25683 29.5415 2.85031 29.5415C2.4438 29.5415 2.11426 29.871 2.11426 30.2776C2.11426 30.6841 2.4438 31.0136 2.85031 31.0136Z" fill="white"/>
<path d="M2.85031 30.6225C3.18951 30.6225 3.4733 30.393 3.55923 30.082C3.57619 30.1442 3.58637 30.2098 3.58637 30.2776C3.58637 30.6836 3.25735 31.0137 2.85031 31.0137C2.44441 31.0137 2.11426 30.6847 2.11426 30.2776C2.11426 30.2098 2.12443 30.1442 2.14139 30.082C2.22732 30.3941 2.51225 30.6225 2.85031 30.6225Z" fill="#D1D3D4"/>
<path d="M14.5823 29.9175L15.8475 29.9175L15.8475 28.6523L14.5823 28.6523L14.5823 29.9175Z" fill="#8E1CAA"/>
<path d="M12.2062 29.9175L13.4714 29.9175L13.4714 28.6523L12.2062 28.6523L12.2062 29.9175Z" fill="#8E1CAA"/>
<path d="M9.8311 29.9175L11.0963 29.9175L11.0963 28.6523L9.8311 28.6523L9.8311 29.9175Z" fill="#8E1CAA"/>
<path d="M14.5823 29.1372L15.8475 29.1372L15.8475 28.6533L14.5823 28.6533L14.5823 29.1372Z" fill="#A437BF"/>
<path d="M12.2062 29.1372L13.4714 29.1372L13.4714 28.6533L12.2062 28.6533L12.2062 29.1372Z" fill="#A437BF"/>
<path d="M9.8311 29.1372L11.0963 29.1372L11.0963 28.6533L9.8311 28.6533L9.8311 29.1372Z" fill="#A437BF"/>
<path d="M14.5823 31.8721L15.8475 31.8721L15.8475 30.6069L14.5823 30.6069L14.5823 31.8721Z" fill="#8E1CAA"/>
<path d="M12.2062 31.8721L13.4714 31.8721L13.4714 30.6069L12.2062 30.6069L12.2062 31.8721Z" fill="#8E1CAA"/>
<path d="M9.8311 31.8721L11.0963 31.8721L11.0963 30.6069L9.8311 30.6069L9.8311 31.8721Z" fill="#8E1CAA"/>
<path d="M14.5823 31.0942L15.8475 31.0942L15.8475 30.6103L14.5823 30.6103L14.5823 31.0942Z" fill="#A437BF"/>
<path d="M12.2062 31.0942L13.4714 31.0942L13.4714 30.6103L12.2062 30.6103L12.2062 31.0942Z" fill="#A437BF"/>
<path d="M9.8311 31.0942L11.0963 31.0942L11.0963 30.6103L9.8311 30.6103L9.8311 31.0942Z" fill="#A437BF"/>
<path d="M1.24485 40.5385H16.3119C16.9994 40.5385 17.5568 39.9811 17.5568 39.2936V35.7185C17.5568 35.031 16.9994 34.4736 16.3119 34.4736H1.24485C0.557412 34.4736 0 35.031 0 35.7185V39.2936C0 39.9811 0.557412 40.5385 1.24485 40.5385Z" fill="#3374FF"/>
<path d="M1.24485 39.7077H16.3119C16.9994 39.7077 17.5568 39.1503 17.5568 38.4629V39.2928C17.5568 39.9802 16.9994 40.5376 16.3119 40.5376H1.24485C0.557412 40.5376 0 39.9802 0 39.2928V38.4629C0 39.1503 0.557412 39.7077 1.24485 39.7077Z" fill="#0051FF"/>
<path d="M2.85031 37.9096C3.25683 37.9096 3.58637 37.58 3.58637 37.1735C3.58637 36.767 3.25683 36.4375 2.85031 36.4375C2.4438 36.4375 2.11426 36.767 2.11426 37.1735C2.11426 37.58 2.4438 37.9096 2.85031 37.9096Z" fill="white"/>
<path d="M2.85031 37.5185C3.18951 37.5185 3.4733 37.289 3.55923 36.978C3.57619 37.0402 3.58637 37.1058 3.58637 37.1736C3.58637 37.5795 3.25735 37.9097 2.85031 37.9097C2.44441 37.9097 2.11426 37.5807 2.11426 37.1736C2.11426 37.1058 2.12443 37.0402 2.14139 36.978C2.22732 37.2901 2.51225 37.5185 2.85031 37.5185Z" fill="#D1D3D4"/>
<path d="M14.5823 36.8135L15.8475 36.8135L15.8475 35.5483L14.5823 35.5483L14.5823 36.8135Z" fill="#8E1CAA"/>
<path d="M12.2062 36.8135L13.4714 36.8135L13.4714 35.5483L12.2062 35.5483L12.2062 36.8135Z" fill="#8E1CAA"/>
<path d="M9.8311 36.8135L11.0963 36.8135L11.0963 35.5483L9.8311 35.5483L9.8311 36.8135Z" fill="#8E1CAA"/>
<path d="M14.5823 36.0332L15.8475 36.0332L15.8475 35.5492L14.5823 35.5492L14.5823 36.0332Z" fill="#A437BF"/>
<path d="M12.2062 36.0332L13.4714 36.0332L13.4714 35.5492L12.2062 35.5492L12.2062 36.0332Z" fill="#A437BF"/>
<path d="M9.8311 36.0332L11.0963 36.0332L11.0963 35.5492L9.8311 35.5492L9.8311 36.0332Z" fill="#A437BF"/>
<path d="M14.5823 38.7681L15.8475 38.7681L15.8475 37.5028L14.5823 37.5028L14.5823 38.7681Z" fill="#8E1CAA"/>
<path d="M12.2062 38.7681L13.4714 38.7681L13.4714 37.5028L12.2062 37.5028L12.2062 38.7681Z" fill="#8E1CAA"/>
<path d="M9.8311 38.7681L11.0963 38.7681L11.0963 37.5028L9.8311 37.5028L9.8311 38.7681Z" fill="#8E1CAA"/>
<path d="M14.5823 37.9897L15.8475 37.9897L15.8475 37.5058L14.5823 37.5058L14.5823 37.9897Z" fill="#A437BF"/>
<path d="M12.2062 37.9897L13.4714 37.9897L13.4714 37.5058L12.2062 37.5058L12.2062 37.9897Z" fill="#A437BF"/>
<path d="M9.8311 37.9897L11.0963 37.9897L11.0963 37.5058L9.8311 37.5058L9.8311 37.9897Z" fill="#A437BF"/>
<path d="M1.24485 47.434H16.3119C16.9994 47.434 17.5568 46.8766 17.5568 46.1891V42.614C17.5568 41.9266 16.9994 41.3691 16.3119 41.3691H1.24485C0.557412 41.3691 0 41.9266 0 42.614V46.1891C0 46.8754 0.557412 47.434 1.24485 47.434Z" fill="#3374FF"/>
<path d="M1.24485 46.6032H16.3119C16.9994 46.6032 17.5568 46.0458 17.5568 45.3584V46.1883C17.5568 46.8757 16.9994 47.4332 16.3119 47.4332H1.24485C0.557412 47.4332 0 46.8757 0 46.1883V45.3584C0 46.0458 0.557412 46.6032 1.24485 46.6032Z" fill="#0051FF"/>
<path d="M2.85031 44.8051C3.25683 44.8051 3.58637 44.4756 3.58637 44.0691C3.58637 43.6626 3.25683 43.333 2.85031 43.333C2.4438 43.333 2.11426 43.6626 2.11426 44.0691C2.11426 44.4756 2.4438 44.8051 2.85031 44.8051Z" fill="white"/>
<path d="M2.85031 44.4145C3.18951 44.4145 3.4733 44.185 3.55923 43.874C3.57619 43.9362 3.58637 44.0018 3.58637 44.0696C3.58637 44.4755 3.25735 44.8057 2.85031 44.8057C2.44441 44.8057 2.11426 44.4767 2.11426 44.0696C2.11426 44.0018 2.12443 43.9362 2.14139 43.874C2.22732 44.1861 2.51225 44.4145 2.85031 44.4145Z" fill="#D1D3D4"/>
<path d="M14.5823 43.7095L15.8475 43.7095L15.8475 42.4443L14.5823 42.4443L14.5823 43.7095Z" fill="#8E1CAA"/>
<path d="M12.2062 43.7095L13.4714 43.7095L13.4714 42.4443L12.2062 42.4443L12.2062 43.7095Z" fill="#8E1CAA"/>
<path d="M9.8311 43.7095L11.0963 43.7095L11.0963 42.4443L9.8311 42.4443L9.8311 43.7095Z" fill="#8E1CAA"/>
<path d="M14.5823 42.9287L15.8475 42.9287L15.8475 42.4448L14.5823 42.4448L14.5823 42.9287Z" fill="#A437BF"/>
<path d="M12.2062 42.9287L13.4714 42.9287L13.4714 42.4448L12.2062 42.4448L12.2062 42.9287Z" fill="#A437BF"/>
<path d="M9.8311 42.9287L11.0963 42.9287L11.0963 42.4448L9.8311 42.4448L9.8311 42.9287Z" fill="#A437BF"/>
<path d="M14.5823 45.6636L15.8475 45.6636L15.8475 44.3984L14.5823 44.3984L14.5823 45.6636Z" fill="#8E1CAA"/>
<path d="M12.2062 45.6636L13.4714 45.6636L13.4714 44.3984L12.2062 44.3984L12.2062 45.6636Z" fill="#8E1CAA"/>
<path d="M9.8311 45.6636L11.0963 45.6636L11.0963 44.3984L9.8311 44.3984L9.8311 45.6636Z" fill="#8E1CAA"/>
<path d="M14.5823 44.8853L15.8475 44.8853L15.8475 44.4013L14.5823 44.4013L14.5823 44.8853Z" fill="#A437BF"/>
<path d="M12.2062 44.8853L13.4714 44.8853L13.4714 44.4013L12.2062 44.4013L12.2062 44.8853Z" fill="#A437BF"/>
<path d="M9.8311 44.8853L11.0963 44.8853L11.0963 44.4013L9.8311 44.4013L9.8311 44.8853Z" fill="#A437BF"/>
<path d="M44.4537 34.4717L57.9333 34.4717L57.9333 33.6418L44.4537 33.6418L44.4537 34.4717Z" fill="#003199"/>
<path d="M44.4537 41.3682L57.9333 41.3682L57.9333 40.5382L44.4537 40.5382L44.4537 41.3682Z" fill="#003199"/>
<path d="M43.6603 33.6425H58.7273C59.4148 33.6425 59.9722 33.0851 59.9722 32.3976V28.8225C59.9722 28.1351 59.4148 27.5776 58.7273 27.5776H43.6603C42.9728 27.5776 42.4154 28.1351 42.4154 28.8225V32.3976C42.4143 33.0851 42.9717 33.6425 43.6603 33.6425Z" fill="#3374FF"/>
<path d="M43.6603 32.8117H58.7273C59.4148 32.8117 59.9722 32.2543 59.9722 31.5669V32.3968C59.9722 33.0842 59.4148 33.6416 58.7273 33.6416H43.6603C42.9728 33.6416 42.4154 33.0842 42.4154 32.3968V31.5669C42.4143 32.2543 42.9717 32.8117 43.6603 32.8117Z" fill="#0051FF"/>
<path d="M45.2657 31.0136C45.6722 31.0136 46.0018 30.6841 46.0018 30.2776C46.0018 29.871 45.6722 29.5415 45.2657 29.5415C44.8592 29.5415 44.5297 29.871 44.5297 30.2776C44.5297 30.6841 44.8592 31.0136 45.2657 31.0136Z" fill="white"/>
<path d="M45.2657 30.6225C45.6049 30.6225 45.8887 30.393 45.9746 30.082C45.9916 30.1442 46.0018 30.2098 46.0018 30.2776C46.0018 30.6836 45.6728 31.0137 45.2657 31.0137C44.8598 31.0137 44.5297 30.6847 44.5297 30.2776C44.5297 30.2098 44.5398 30.1442 44.5568 30.082C44.6427 30.3941 44.9265 30.6225 45.2657 30.6225Z" fill="#D1D3D4"/>
<path d="M56.9971 29.9175L58.2623 29.9175L58.2623 28.6523L56.9971 28.6523L56.9971 29.9175Z" fill="#8E1CAA"/>
<path d="M54.6221 29.9175L55.8873 29.9175L55.8873 28.6523L54.6221 28.6523L54.6221 29.9175Z" fill="#8E1CAA"/>
<path d="M52.246 29.9175L53.5112 29.9175L53.5112 28.6523L52.246 28.6523L52.246 29.9175Z" fill="#8E1CAA"/>
<path d="M56.9971 29.1372L58.2623 29.1372L58.2623 28.6533L56.9971 28.6533L56.9971 29.1372Z" fill="#A437BF"/>
<path d="M54.6221 29.1372L55.8873 29.1372L55.8873 28.6533L54.6221 28.6533L54.6221 29.1372Z" fill="#A437BF"/>
<path d="M52.246 29.1372L53.5112 29.1372L53.5112 28.6533L52.246 28.6533L52.246 29.1372Z" fill="#A437BF"/>
<path d="M56.9971 31.8721L58.2623 31.8721L58.2623 30.6069L56.9971 30.6069L56.9971 31.8721Z" fill="#8E1CAA"/>
<path d="M54.6221 31.8721L55.8873 31.8721L55.8873 30.6069L54.6221 30.6069L54.6221 31.8721Z" fill="#8E1CAA"/>
<path d="M52.246 31.8721L53.5112 31.8721L53.5112 30.6069L52.246 30.6069L52.246 31.8721Z" fill="#8E1CAA"/>
<path d="M56.9971 31.0942L58.2623 31.0942L58.2623 30.6103L56.9971 30.6103L56.9971 31.0942Z" fill="#A437BF"/>
<path d="M54.6221 31.0942L55.8873 31.0942L55.8873 30.6103L54.6221 30.6103L54.6221 31.0942Z" fill="#A437BF"/>
<path d="M52.246 31.0942L53.5112 31.0942L53.5112 30.6103L52.246 30.6103L52.246 31.0942Z" fill="#A437BF"/>
<path d="M43.6603 40.5385H58.7273C59.4148 40.5385 59.9722 39.9811 59.9722 39.2936V35.7185C59.9722 35.031 59.4148 34.4736 58.7273 34.4736H43.6603C42.9728 34.4736 42.4154 35.031 42.4154 35.7185V39.2936C42.4143 39.9811 42.9717 40.5385 43.6603 40.5385Z" fill="#3374FF"/>
<path d="M43.6603 39.7077H58.7273C59.4148 39.7077 59.9722 39.1503 59.9722 38.4629V39.2928C59.9722 39.9802 59.4148 40.5376 58.7273 40.5376H43.6603C42.9728 40.5376 42.4154 39.9802 42.4154 39.2928V38.4629C42.4143 39.1503 42.9717 39.7077 43.6603 39.7077Z" fill="#0051FF"/>
<path d="M45.2657 37.9096C45.6722 37.9096 46.0018 37.58 46.0018 37.1735C46.0018 36.767 45.6722 36.4375 45.2657 36.4375C44.8592 36.4375 44.5297 36.767 44.5297 37.1735C44.5297 37.58 44.8592 37.9096 45.2657 37.9096Z" fill="white"/>
<path d="M45.2657 37.5185C45.6049 37.5185 45.8887 37.289 45.9746 36.978C45.9916 37.0402 46.0018 37.1058 46.0018 37.1736C46.0018 37.5795 45.6728 37.9097 45.2657 37.9097C44.8598 37.9097 44.5297 37.5807 44.5297 37.1736C44.5297 37.1058 44.5398 37.0402 44.5568 36.978C44.6427 37.2901 44.9265 37.5185 45.2657 37.5185Z" fill="#D1D3D4"/>
<path d="M56.9971 36.8135L58.2623 36.8135L58.2623 35.5483L56.9971 35.5483L56.9971 36.8135Z" fill="#8E1CAA"/>
<path d="M54.6221 36.8135L55.8873 36.8135L55.8873 35.5483L54.6221 35.5483L54.6221 36.8135Z" fill="#8E1CAA"/>
<path d="M52.246 36.8135L53.5112 36.8135L53.5112 35.5483L52.246 35.5483L52.246 36.8135Z" fill="#8E1CAA"/>
<path d="M56.9971 36.0332L58.2623 36.0332L58.2623 35.5492L56.9971 35.5492L56.9971 36.0332Z" fill="#A437BF"/>
<path d="M54.6221 36.0332L55.8873 36.0332L55.8873 35.5492L54.6221 35.5492L54.6221 36.0332Z" fill="#A437BF"/>
<path d="M52.246 36.0332L53.5112 36.0332L53.5112 35.5492L52.246 35.5492L52.246 36.0332Z" fill="#A437BF"/>
<path d="M56.9971 38.7681L58.2623 38.7681L58.2623 37.5028L56.9971 37.5028L56.9971 38.7681Z" fill="#8E1CAA"/>
<path d="M54.6221 38.7681L55.8873 38.7681L55.8873 37.5028L54.6221 37.5028L54.6221 38.7681Z" fill="#8E1CAA"/>
<path d="M52.246 38.7681L53.5112 38.7681L53.5112 37.5028L52.246 37.5028L52.246 38.7681Z" fill="#8E1CAA"/>
<path d="M56.9971 37.9897L58.2623 37.9897L58.2623 37.5058L56.9971 37.5058L56.9971 37.9897Z" fill="#A437BF"/>
<path d="M54.6221 37.9897L55.8873 37.9897L55.8873 37.5058L54.6221 37.5058L54.6221 37.9897Z" fill="#A437BF"/>
<path d="M52.246 37.9897L53.5112 37.9897L53.5112 37.5058L52.246 37.5058L52.246 37.9897Z" fill="#A437BF"/>
<path d="M43.6603 47.434H58.7273C59.4148 47.434 59.9722 46.8766 59.9722 46.1891V42.614C59.9722 41.9266 59.4148 41.3691 58.7273 41.3691H43.6603C42.9728 41.3691 42.4154 41.9266 42.4154 42.614V46.1891C42.4143 46.8754 42.9717 47.434 43.6603 47.434Z" fill="#3374FF"/>
<path d="M43.6603 46.6032H58.7273C59.4148 46.6032 59.9722 46.0458 59.9722 45.3584V46.1883C59.9722 46.8757 59.4148 47.4332 58.7273 47.4332H43.6603C42.9728 47.4332 42.4154 46.8757 42.4154 46.1883V45.3584C42.4143 46.0458 42.9717 46.6032 43.6603 46.6032Z" fill="#0051FF"/>
<path d="M45.2657 44.8051C45.6722 44.8051 46.0018 44.4756 46.0018 44.0691C46.0018 43.6626 45.6722 43.333 45.2657 43.333C44.8592 43.333 44.5297 43.6626 44.5297 44.0691C44.5297 44.4756 44.8592 44.8051 45.2657 44.8051Z" fill="white"/>
<path d="M45.2657 44.4145C45.6049 44.4145 45.8887 44.185 45.9746 43.874C45.9916 43.9362 46.0018 44.0018 46.0018 44.0696C46.0018 44.4755 45.6728 44.8057 45.2657 44.8057C44.8598 44.8057 44.5297 44.4767 44.5297 44.0696C44.5297 44.0018 44.5398 43.9362 44.5568 43.874C44.6427 44.1861 44.9265 44.4145 45.2657 44.4145Z" fill="#D1D3D4"/>
<path d="M56.9971 43.7095L58.2623 43.7095L58.2623 42.4443L56.9971 42.4443L56.9971 43.7095Z" fill="#8E1CAA"/>
<path d="M54.6221 43.7095L55.8873 43.7095L55.8873 42.4443L54.6221 42.4443L54.6221 43.7095Z" fill="#8E1CAA"/>
<path d="M52.246 43.7095L53.5112 43.7095L53.5112 42.4443L52.246 42.4443L52.246 43.7095Z" fill="#8E1CAA"/>
<path d="M56.9971 42.9287L58.2623 42.9287L58.2623 42.4448L56.9971 42.4448L56.9971 42.9287Z" fill="#A437BF"/>
<path d="M54.6221 42.9287L55.8873 42.9287L55.8873 42.4448L54.6221 42.4448L54.6221 42.9287Z" fill="#A437BF"/>
<path d="M52.246 42.9287L53.5112 42.9287L53.5112 42.4448L52.246 42.4448L52.246 42.9287Z" fill="#A437BF"/>
<path d="M56.9971 45.6636L58.2623 45.6636L58.2623 44.3984L56.9971 44.3984L56.9971 45.6636Z" fill="#8E1CAA"/>
<path d="M54.6221 45.6636L55.8873 45.6636L55.8873 44.3984L54.6221 44.3984L54.6221 45.6636Z" fill="#8E1CAA"/>
<path d="M52.246 45.6636L53.5112 45.6636L53.5112 44.3984L52.246 44.3984L52.246 45.6636Z" fill="#8E1CAA"/>
<path d="M56.9971 44.8853L58.2623 44.8853L58.2623 44.4013L56.9971 44.4013L56.9971 44.8853Z" fill="#A437BF"/>
<path d="M54.6221 44.8853L55.8873 44.8853L55.8873 44.4013L54.6221 44.4013L54.6221 44.8853Z" fill="#A437BF"/>
<path d="M52.246 44.8853L53.5112 44.8853L53.5112 44.4013L52.246 44.4013L52.246 44.8853Z" fill="#A437BF"/>
<path d="M23.8115 6.89551L37.2911 6.89551L37.2911 6.06561L23.8115 6.06561L23.8115 6.89551Z" fill="#003199"/>
<path d="M23.8115 13.791L37.2911 13.791L37.2911 12.9611L23.8115 12.9611L23.8115 13.791Z" fill="#003199"/>
<path d="M23.0178 6.06482H38.0849C38.7723 6.06482 39.3298 5.50741 39.3298 4.81997V1.24485C39.3298 0.557413 38.7723 0 38.0849 0H23.0178C22.3304 0 21.773 0.557413 21.773 1.24485V4.81997C21.7718 5.50741 22.3304 6.06482 23.0178 6.06482Z" fill="#3374FF"/>
<path d="M23.0178 5.23508H38.0849C38.7723 5.23508 39.3298 4.67767 39.3298 3.99023V4.82013C39.3298 5.50757 38.7723 6.06498 38.0849 6.06498H23.0178C22.3304 6.06498 21.773 5.50757 21.773 4.82013V3.99023C21.7718 4.67767 22.3304 5.23508 23.0178 5.23508Z" fill="#0051FF"/>
<path d="M24.6234 3.43598C25.0299 3.43598 25.3594 3.10643 25.3594 2.69992C25.3594 2.29341 25.0299 1.96387 24.6234 1.96387C24.2169 1.96387 23.8873 2.29341 23.8873 2.69992C23.8873 3.10643 24.2169 3.43598 24.6234 3.43598Z" fill="white"/>
<path d="M24.6234 3.04582C24.9626 3.04582 25.2464 2.8163 25.3323 2.50537C25.3493 2.56756 25.3594 2.63313 25.3594 2.70097C25.3594 3.10688 25.0304 3.43703 24.6234 3.43703C24.2175 3.43703 23.8873 3.10801 23.8873 2.70097C23.8873 2.63313 23.8975 2.56756 23.9145 2.50537C24.0004 2.8163 24.2842 3.04582 24.6234 3.04582Z" fill="#D1D3D4"/>
<path d="M36.3551 2.33984L37.6202 2.33984L37.6202 1.07464L36.3551 1.07464L36.3551 2.33984Z" fill="#8E1CAA"/>
<path d="M33.9801 2.33984L35.2454 2.33984L35.2454 1.07464L33.9801 1.07464L33.9801 2.33984Z" fill="#8E1CAA"/>
<path d="M31.6039 2.33984L32.8691 2.33984L32.8691 1.07464L31.6039 1.07464L31.6039 2.33984Z" fill="#8E1CAA"/>
<path d="M36.3551 1.55957L37.6202 1.55957L37.6202 1.07565L36.3551 1.07565L36.3551 1.55957Z" fill="#A437BF"/>
<path d="M33.9801 1.55957L35.2454 1.55957L35.2454 1.07565L33.9801 1.07565L33.9801 1.55957Z" fill="#A437BF"/>
<path d="M31.6039 1.55957L32.8691 1.55957L32.8691 1.07565L31.6039 1.07565L31.6039 1.55957Z" fill="#A437BF"/>
<path d="M36.3551 4.29541L37.6202 4.29541L37.6202 3.03021L36.3551 3.03021L36.3551 4.29541Z" fill="#8E1CAA"/>
<path d="M33.9801 4.29541L35.2454 4.29541L35.2454 3.03021L33.9801 3.03021L33.9801 4.29541Z" fill="#8E1CAA"/>
<path d="M31.6039 4.29541L32.8691 4.29541L32.8691 3.03021L31.6039 3.03021L31.6039 4.29541Z" fill="#8E1CAA"/>
<path d="M36.3551 3.51611L37.6202 3.51611L37.6202 3.03219L36.3551 3.03219L36.3551 3.51611Z" fill="#A437BF"/>
<path d="M33.9801 3.51611L35.2454 3.51611L35.2454 3.03219L33.9801 3.03219L33.9801 3.51611Z" fill="#A437BF"/>
<path d="M31.6039 3.51611L32.8691 3.51611L32.8691 3.03219L31.6039 3.03219L31.6039 3.51611Z" fill="#A437BF"/>
<path d="M23.0178 12.9603H38.0849C38.7723 12.9603 39.3298 12.4029 39.3298 11.7155V8.14036C39.3298 7.45292 38.7723 6.89551 38.0849 6.89551H23.0178C22.3304 6.89551 21.773 7.45292 21.773 8.14036V11.7155C21.7718 12.4029 22.3304 12.9603 23.0178 12.9603Z" fill="#3374FF"/>
<path d="M23.0178 12.1306H38.0849C38.7723 12.1306 39.3298 11.5732 39.3298 10.8857V11.7156C39.3298 12.4031 38.7723 12.9605 38.0849 12.9605H23.0178C22.3304 12.9605 21.773 12.4031 21.773 11.7156V10.8857C21.7718 11.5732 22.3304 12.1306 23.0178 12.1306Z" fill="#0051FF"/>
<path d="M24.6234 10.3315C25.0299 10.3315 25.3594 10.0019 25.3594 9.59543C25.3594 9.18892 25.0299 8.85938 24.6234 8.85938C24.2169 8.85938 23.8873 9.18892 23.8873 9.59543C23.8873 10.0019 24.2169 10.3315 24.6234 10.3315Z" fill="white"/>
<path d="M24.6234 9.94133C24.9626 9.94133 25.2464 9.71181 25.3323 9.40088C25.3493 9.46306 25.3594 9.52864 25.3594 9.59648C25.3594 10.0024 25.0304 10.3325 24.6234 10.3325C24.2175 10.3325 23.8873 10.0035 23.8873 9.59648C23.8873 9.52864 23.8975 9.46306 23.9145 9.40088C24.0004 9.71181 24.2842 9.94133 24.6234 9.94133Z" fill="#D1D3D4"/>
<path d="M36.3551 9.23682L37.6202 9.23682L37.6202 7.9716L36.3551 7.9716L36.3551 9.23682Z" fill="#8E1CAA"/>
<path d="M33.9801 9.23682L35.2454 9.23682L35.2454 7.9716L33.9801 7.9716L33.9801 9.23682Z" fill="#8E1CAA"/>
<path d="M31.6039 9.23682L32.8691 9.23682L32.8691 7.9716L31.6039 7.9716L31.6039 9.23682Z" fill="#8E1CAA"/>
<path d="M36.3551 8.45605L37.6202 8.45605L37.6202 7.97214L36.3551 7.97214L36.3551 8.45605Z" fill="#A437BF"/>
<path d="M33.9801 8.45605L35.2454 8.45605L35.2454 7.97214L33.9801 7.97214L33.9801 8.45605Z" fill="#A437BF"/>
<path d="M31.6039 8.45605L32.8691 8.45605L32.8691 7.97214L31.6039 7.97214L31.6039 8.45605Z" fill="#A437BF"/>
<path d="M36.3551 11.1914L37.6202 11.1914L37.6202 9.92621L36.3551 9.92621L36.3551 11.1914Z" fill="#8E1CAA"/>
<path d="M33.9801 11.1914L35.2454 11.1914L35.2454 9.92621L33.9801 9.92621L33.9801 11.1914Z" fill="#8E1CAA"/>
<path d="M31.6039 11.1914L32.8691 11.1914L32.8691 9.92621L31.6039 9.92621L31.6039 11.1914Z" fill="#8E1CAA"/>
<path d="M36.3551 10.4116L37.6202 10.4116L37.6202 9.9277L36.3551 9.9277L36.3551 10.4116Z" fill="#A437BF"/>
<path d="M33.9801 10.4116L35.2454 10.4116L35.2454 9.9277L33.9801 9.9277L33.9801 10.4116Z" fill="#A437BF"/>
<path d="M31.6039 10.4116L32.8691 10.4116L32.8691 9.9277L31.6039 9.9277L31.6039 10.4116Z" fill="#A437BF"/>
<path d="M23.0178 19.8563H38.0849C38.7723 19.8563 39.3298 19.2989 39.3298 18.6115V15.0363C39.3298 14.3489 38.7723 13.7915 38.0849 13.7915H23.0178C22.3304 13.7915 21.773 14.3489 21.773 15.0363V18.6115C21.7718 19.2989 22.3304 19.8563 23.0178 19.8563Z" fill="#3374FF"/>
<path d="M23.0178 19.0266H38.0849C38.7723 19.0266 39.3298 18.4692 39.3298 17.7817V18.6116C39.3298 19.2991 38.7723 19.8565 38.0849 19.8565H23.0178C22.3304 19.8565 21.773 19.2991 21.773 18.6116V17.7817C21.7718 18.4692 22.3304 19.0266 23.0178 19.0266Z" fill="#0051FF"/>
<path d="M24.6234 17.2275C25.0299 17.2275 25.3594 16.8979 25.3594 16.4914C25.3594 16.0849 25.0299 15.7554 24.6234 15.7554C24.2169 15.7554 23.8873 16.0849 23.8873 16.4914C23.8873 16.8979 24.2169 17.2275 24.6234 17.2275Z" fill="white"/>
<path d="M24.6234 16.8373C24.9626 16.8373 25.2464 16.6078 25.3323 16.2969C25.3493 16.3591 25.3594 16.4246 25.3594 16.4925C25.3594 16.8984 25.0304 17.2285 24.6234 17.2285C24.2175 17.2285 23.8873 16.8995 23.8873 16.4925C23.8873 16.4246 23.8975 16.3591 23.9145 16.2969C24.0004 16.6078 24.2842 16.8373 24.6234 16.8373Z" fill="#D1D3D4"/>
<path d="M36.3551 16.1328L37.6202 16.1328L37.6202 14.8676L36.3551 14.8676L36.3551 16.1328Z" fill="#8E1CAA"/>
<path d="M33.9801 16.1328L35.2454 16.1328L35.2454 14.8676L33.9801 14.8676L33.9801 16.1328Z" fill="#8E1CAA"/>
<path d="M31.6039 16.1328L32.8691 16.1328L32.8691 14.8676L31.6039 14.8676L31.6039 16.1328Z" fill="#8E1CAA"/>
<path d="M36.3551 15.3521L37.6202 15.3521L37.6202 14.8681L36.3551 14.8681L36.3551 15.3521Z" fill="#A437BF"/>
<path d="M33.9801 15.3521L35.2454 15.3521L35.2454 14.8681L33.9801 14.8681L33.9801 15.3521Z" fill="#A437BF"/>
<path d="M31.6039 15.3521L32.8691 15.3521L32.8691 14.8681L31.6039 14.8681L31.6039 15.3521Z" fill="#A437BF"/>
<path d="M36.3551 18.0874L37.6202 18.0874L37.6202 16.8222L36.3551 16.8222L36.3551 18.0874Z" fill="#8E1CAA"/>
<path d="M33.9801 18.0874L35.2454 18.0874L35.2454 16.8222L33.9801 16.8222L33.9801 18.0874Z" fill="#8E1CAA"/>
<path d="M31.6039 18.0874L32.8691 18.0874L32.8691 16.8222L31.6039 16.8222L31.6039 18.0874Z" fill="#8E1CAA"/>
<path d="M36.3551 17.3076L37.6202 17.3076L37.6202 16.8237L36.3551 16.8237L36.3551 17.3076Z" fill="#A437BF"/>
<path d="M33.9801 17.3076L35.2454 17.3076L35.2454 16.8237L33.9801 16.8237L33.9801 17.3076Z" fill="#A437BF"/>
<path d="M31.6039 17.3076L32.8691 17.3076L32.8691 16.8237L31.6039 16.8237L31.6039 17.3076Z" fill="#A437BF"/>
</svg>
