<svg width="42" height="39" viewBox="0 0 42 39" fill="none" xmlns="http://www.w3.org/2000/svg">
<path d="M37.7638 30.1129H2.23621C1.02176 30.1129 0.0377197 29.1288 0.0377197 27.9144V5.05005C0.0377197 3.83561 1.02176 2.85156 2.23621 2.85156H37.7638C38.9783 2.85156 39.9623 3.83561 39.9623 5.05005V27.9144C39.9623 29.1288 38.9783 30.1129 37.7638 30.1129Z" fill="#3374FF"/>
<path d="M25.6282 36.5329H14.3719L16.0867 30.1133H23.9133L25.6282 36.5329Z" fill="#003199"/>
<path d="M28.6472 38.7601H11.353C10.7374 38.7601 10.2388 38.2615 10.2388 37.6459C10.2388 37.0304 10.7374 36.5317 11.353 36.5317H28.6481C29.2637 36.5317 29.7623 37.0304 29.7623 37.6459C29.7614 38.2615 29.2628 38.7601 28.6472 38.7601Z" fill="#3374FF"/>
<path d="M28.6472 37.8366H11.353C10.9027 37.8366 10.5158 37.5693 10.3399 37.1841C10.2757 37.3248 10.2388 37.4804 10.2388 37.6458C10.2388 38.2613 10.7374 38.76 11.353 38.76H28.6481C29.2637 38.76 29.7623 38.2613 29.7623 37.6458C29.7623 37.4804 29.7254 37.3248 29.6612 37.1841C29.4844 37.5693 29.0975 37.8366 28.6472 37.8366Z" fill="#0051FF"/>
<path d="M39.9623 24.9244V5.05005C39.9623 3.83561 38.9783 2.85156 37.7638 2.85156H2.23621C1.02176 2.85156 0.0377197 3.83561 0.0377197 5.05005V24.9244H39.9623Z" fill="#8E1CAA"/>
<path d="M6.48633 30.7579H3.64325C3.40054 30.7579 3.20355 30.5609 3.20355 30.3182V30.1133H6.92603V30.3182C6.92603 30.5609 6.72904 30.7579 6.48633 30.7579Z" fill="#8E1CAA"/>
<path d="M9.30834 30.7579H8.32605C8.08334 30.7579 7.88635 30.5609 7.88635 30.3182V30.1133H9.74804V30.3182C9.74804 30.5609 9.55105 30.7579 9.30834 30.7579Z" fill="#8E1CAA"/>
<path d="M37.7639 2.85156H36.152L14.0791 24.9244H39.9624V5.05005C39.9624 3.83561 38.9783 2.85156 37.7639 2.85156Z" fill="#A437BF"/>
<path d="M24.4885 32.2678L23.9134 30.1133H16.0867L15.5116 32.2678H24.4885Z" fill="#002066"/>
<path d="M9.50618 26.1626H3.44539C3.31172 26.1626 3.20355 26.2708 3.20355 26.4044V26.6463C3.20355 26.7799 3.31172 26.8881 3.44539 26.8881H9.50618C9.63985 26.8881 9.74801 26.7799 9.74801 26.6463V26.4044C9.74801 26.2708 9.63985 26.1626 9.50618 26.1626Z" fill="#002066"/>
<path d="M9.5862 26.5259H3.36448C3.30468 26.5259 3.25368 26.4529 3.22554 26.3447C3.21147 26.3984 3.20355 26.4599 3.20355 26.5259C3.20355 26.7264 3.27566 26.8882 3.36448 26.8882H9.5862C9.67502 26.8882 9.74713 26.7255 9.74713 26.5259C9.74713 26.4591 9.73834 26.3984 9.72515 26.3447C9.69701 26.452 9.646 26.5259 9.5862 26.5259Z" fill="#0051FF"/>
<path d="M9.50618 27.7676H3.44539C3.31172 27.7676 3.20355 27.8757 3.20355 28.0094V28.2513C3.20355 28.3849 3.31172 28.4931 3.44539 28.4931H9.50618C9.63985 28.4931 9.74801 28.3849 9.74801 28.2513V28.0094C9.74801 27.8757 9.63985 27.7676 9.50618 27.7676Z" fill="#002066"/>
<path d="M9.5862 28.1309H3.36448C3.30468 28.1309 3.25368 28.0579 3.22554 27.9497C3.21147 28.0034 3.20355 28.0649 3.20355 28.1309C3.20355 28.3314 3.27566 28.4932 3.36448 28.4932H9.5862C9.67502 28.4932 9.74713 28.3305 9.74713 28.1309C9.74713 28.064 9.73834 28.0034 9.72515 27.9497C9.69701 28.057 9.646 28.1309 9.5862 28.1309Z" fill="#0051FF"/>
<path d="M21.4071 30.1128H37.7639C38.9783 30.1128 39.9624 29.1287 39.9624 27.9143V24.9243H26.5955L21.4071 30.1128Z" fill="#0051FF"/>
<path d="M35.3016 29.4718C36.1811 29.4718 36.8942 28.7588 36.8942 27.8792C36.8942 26.9997 36.1811 26.2866 35.3016 26.2866C34.422 26.2866 33.709 26.9997 33.709 27.8792C33.709 28.7588 34.422 29.4718 35.3016 29.4718Z" fill="#003199"/>
<path d="M35.3016 29.0323C36.1811 29.0323 36.8942 28.3193 36.8942 27.4398C36.8942 26.5602 36.1811 25.8472 35.3016 25.8472C34.422 25.8472 33.709 26.5602 33.709 27.4398C33.709 28.3193 34.422 29.0323 35.3016 29.0323Z" fill="#8E1CAA"/>
<path d="M35.3016 28.6215C34.6491 28.6215 34.1188 28.0912 34.1188 27.4387C34.1188 26.787 34.6491 26.2559 35.3016 26.2559C35.9541 26.2559 36.4844 26.7861 36.4844 27.4387C36.4844 28.0912 35.9541 28.6215 35.3016 28.6215ZM35.3016 26.6964C34.8918 26.6964 34.5585 27.0297 34.5585 27.4395C34.5585 27.8493 34.8918 28.1826 35.3016 28.1826C35.7114 28.1826 36.0447 27.8493 36.0447 27.4395C36.0447 27.0297 35.7114 26.6964 35.3016 26.6964Z" fill="#A437BF"/>
<path d="M35.3016 27.6595C35.1802 27.6595 35.0817 27.561 35.0817 27.4396V26.4767C35.0817 26.3553 35.1802 26.2568 35.3016 26.2568C35.4229 26.2568 35.5214 26.3553 35.5214 26.4767V27.4396C35.5214 27.561 35.4229 27.6595 35.3016 27.6595Z" fill="#A437BF"/>
<path d="M9.73395 22.1585H3.2827C3.0778 22.1585 2.91248 21.9923 2.91248 21.7883V21.3565C2.91248 21.1517 3.07868 20.9863 3.2827 20.9863H9.73395C9.93885 20.9863 10.1042 21.1525 10.1042 21.3565V21.7883C10.1042 21.9923 9.93885 22.1585 9.73395 22.1585Z" fill="#D1D3D4"/>
<path d="M9.73395 21.7191H3.2827C3.0778 21.7191 2.91248 21.5529 2.91248 21.3489V20.9171C2.91248 20.7122 3.07868 20.5469 3.2827 20.5469H9.73395C9.93885 20.5469 10.1042 20.7131 10.1042 20.9171V21.3489C10.1042 21.5529 9.93885 21.7191 9.73395 21.7191Z" fill="white"/>
<path d="M9.73395 19.8134H3.2827C3.0778 19.8134 2.91248 19.6471 2.91248 19.4431V19.0113C2.91248 18.8064 3.07868 18.6411 3.2827 18.6411H9.73395C9.93885 18.6411 10.1042 18.8073 10.1042 19.0113V19.4431C10.1042 19.648 9.93885 19.8134 9.73395 19.8134Z" fill="#D1D3D4"/>
<path d="M9.73395 19.3734H3.2827C3.0778 19.3734 2.91248 19.2072 2.91248 19.0032V18.5714C2.91248 18.3665 3.07868 18.2012 3.2827 18.2012H9.73395C9.93885 18.2012 10.1042 18.3674 10.1042 18.5714V19.0032C10.1042 19.2081 9.93885 19.3734 9.73395 19.3734Z" fill="white"/>
<path d="M18.6739 22.1585H12.2226C12.0177 22.1585 11.8524 21.9923 11.8524 21.7883V21.3565C11.8524 21.1517 12.0186 20.9863 12.2226 20.9863H18.6739C18.8788 20.9863 19.0441 21.1525 19.0441 21.3565V21.7883C19.0441 21.9923 18.8788 22.1585 18.6739 22.1585Z" fill="#D1D3D4"/>
<path d="M18.6739 21.7191H12.2226C12.0177 21.7191 11.8524 21.5529 11.8524 21.3489V20.9171C11.8524 20.7122 12.0186 20.5469 12.2226 20.5469H18.6739C18.8788 20.5469 19.0441 20.7131 19.0441 20.9171V21.3489C19.0441 21.5529 18.8788 21.7191 18.6739 21.7191Z" fill="white"/>
<path d="M18.6739 19.8134H12.2226C12.0177 19.8134 11.8524 19.6471 11.8524 19.4431V19.0113C11.8524 18.8064 12.0186 18.6411 12.2226 18.6411H18.6739C18.8788 18.6411 19.0441 18.8073 19.0441 19.0113V19.4431C19.0441 19.648 18.8788 19.8134 18.6739 19.8134Z" fill="#D1D3D4"/>
<path d="M18.6739 19.3734H12.2226C12.0177 19.3734 11.8524 19.2072 11.8524 19.0032V18.5714C11.8524 18.3665 12.0186 18.2012 12.2226 18.2012H18.6739C18.8788 18.2012 19.0441 18.3674 19.0441 18.5714V19.0032C19.0441 19.2081 18.8788 19.3734 18.6739 19.3734Z" fill="white"/>
<path d="M27.6956 22.1585H21.2444C21.0395 22.1585 20.8741 21.9923 20.8741 21.7883V21.3565C20.8741 21.1517 21.0404 20.9863 21.2444 20.9863H27.6956C27.9005 20.9863 28.0658 21.1525 28.0658 21.3565V21.7883C28.0658 21.9923 27.8996 22.1585 27.6956 22.1585Z" fill="#D1D3D4"/>
<path d="M27.6956 21.7191H21.2444C21.0395 21.7191 20.8741 21.5529 20.8741 21.3489V20.9171C20.8741 20.7122 21.0404 20.5469 21.2444 20.5469H27.6956C27.9005 20.5469 28.0658 20.7131 28.0658 20.9171V21.3489C28.0658 21.5529 27.8996 21.7191 27.6956 21.7191Z" fill="white"/>
<path d="M27.6956 19.8134H21.2444C21.0395 19.8134 20.8741 19.6471 20.8741 19.4431V19.0113C20.8741 18.8064 21.0404 18.6411 21.2444 18.6411H27.6956C27.9005 18.6411 28.0658 18.8073 28.0658 19.0113V19.4431C28.0658 19.648 27.8996 19.8134 27.6956 19.8134Z" fill="#D1D3D4"/>
<path d="M27.6956 19.3734H21.2444C21.0395 19.3734 20.8741 19.2072 20.8741 19.0032V18.5714C20.8741 18.3665 21.0404 18.2012 21.2444 18.2012H27.6956C27.9005 18.2012 28.0658 18.3674 28.0658 18.5714V19.0032C28.0658 19.2081 27.8996 19.3734 27.6956 19.3734Z" fill="white"/>
<path d="M27.846 10.2754H3.35217C3.10946 10.2754 2.91248 10.0784 2.91248 9.83571V7.19751C2.91248 6.9548 3.10946 6.75781 3.35217 6.75781H27.846C28.0887 6.75781 28.2857 6.9548 28.2857 7.19751V9.83571C28.2857 10.0784 28.0887 10.2754 27.846 10.2754Z" fill="#D1D3D4"/>
<path d="M27.846 9.39651H3.35217C3.10946 9.39651 2.91248 9.19953 2.91248 8.95681V6.31861C2.91248 6.07589 3.10946 5.87891 3.35217 5.87891H27.846C28.0887 5.87891 28.2857 6.07589 28.2857 6.31861V8.95681C28.2857 9.19953 28.0887 9.39651 27.846 9.39651Z" fill="white"/>
<path d="M9.64685 16.4317H3.37061C3.11823 16.4317 2.91333 16.2347 2.91333 15.992V13.3538C2.91333 13.111 3.11823 12.9141 3.37061 12.9141H9.64773C9.90012 12.9141 10.105 13.111 10.105 13.3538V15.992C10.1041 16.2347 9.90012 16.4317 9.64685 16.4317Z" fill="#D1D3D4"/>
<path d="M9.64685 15.5523H3.37061C3.11823 15.5523 2.91333 15.3553 2.91333 15.1126V12.4744C2.91333 12.2317 3.11823 12.0347 3.37061 12.0347H9.64773C9.90012 12.0347 10.105 12.2317 10.105 12.4744V15.1126C10.1041 15.3553 9.90012 15.5523 9.64685 15.5523Z" fill="white"/>
<path d="M18.5868 16.4317H12.3097C12.0573 16.4317 11.8524 16.2347 11.8524 15.992V13.3538C11.8524 13.111 12.0573 12.9141 12.3097 12.9141H18.5868C18.8392 12.9141 19.0441 13.111 19.0441 13.3538V15.992C19.0441 16.2347 18.8401 16.4317 18.5868 16.4317Z" fill="#D1D3D4"/>
<path d="M18.5868 15.5523H12.3097C12.0573 15.5523 11.8524 15.3553 11.8524 15.1126V12.4744C11.8524 12.2317 12.0573 12.0347 12.3097 12.0347H18.5868C18.8392 12.0347 19.0441 12.2317 19.0441 12.4744V15.1126C19.0441 15.3553 18.8401 15.5523 18.5868 15.5523Z" fill="white"/>
<path d="M27.6085 16.4317H21.3314C21.079 16.4317 20.8741 16.2347 20.8741 15.992V13.3538C20.8741 13.111 21.079 12.9141 21.3314 12.9141H27.6085C27.8609 12.9141 28.0658 13.111 28.0658 13.3538V15.992C28.0658 16.2347 27.8609 16.4317 27.6085 16.4317Z" fill="#D1D3D4"/>
<path d="M27.6085 15.5523H21.3314C21.079 15.5523 20.8741 15.3553 20.8741 15.1126V12.4744C20.8741 12.2317 21.079 12.0347 21.3314 12.0347H27.6085C27.8609 12.0347 28.0658 12.2317 28.0658 12.4744V15.1126C28.0658 15.3553 27.8609 15.5523 27.6085 15.5523Z" fill="white"/>
<path d="M35.5378 19.3889L32.5742 22.2126C32.3113 22.4632 31.8751 22.3049 31.8338 21.9444L31.3703 17.8772C31.3554 17.7418 31.3712 17.6054 31.4178 17.4779L37.5111 0.679678C37.6765 0.223271 38.1812 -0.0124081 38.6376 0.152919L41.3242 1.12729C41.7806 1.29262 42.0163 1.79739 41.8509 2.2538L35.7576 19.0521C35.7119 19.1805 35.6363 19.2957 35.5378 19.3889Z" fill="#D1D3D4"/>
<path d="M34.4661 18.9998L32.3837 22.1437C32.199 22.4225 31.9871 22.3459 32.024 22.0135L32.4417 18.2664C32.4558 18.1424 32.4866 18.0105 32.5332 17.883L38.6265 1.08477C38.7918 0.62836 39.1058 0.323209 39.3283 0.404113L40.6333 0.877229C40.8549 0.957255 40.9006 1.39344 40.7353 1.84984L34.642 18.6481C34.5945 18.7747 34.5347 18.8961 34.4661 18.9998Z" fill="white"/>
<path d="M40.924 4.81738L36.5836 3.24316L36.0738 4.64858L40.4141 6.22279L40.924 4.81738Z" fill="#0051FF"/>
<path d="M39.821 4.41706L37.6856 3.64258L37.1758 5.04798L39.3112 5.82246L39.821 4.41706Z" fill="#3374FF"/>
<path d="M31.3697 17.6812C31.3627 17.7462 31.3618 17.8122 31.3697 17.8781L31.8332 21.9453C31.8745 22.3059 32.3107 22.4642 32.5736 22.2136L35.5372 19.3898C35.5847 19.3441 35.6269 19.2931 35.6629 19.2386L31.3697 17.6812Z" fill="#0051FF"/>
<path d="M32.4743 18.0811C32.4593 18.1435 32.4488 18.2059 32.4417 18.2657L32.024 22.0128C31.9871 22.3452 32.199 22.4226 32.3837 22.143L34.4661 18.9991C34.4995 18.9481 34.5311 18.8936 34.5602 18.8365L32.4743 18.0811Z" fill="#3374FF"/>
</svg>
