<svg width="44" height="46" viewBox="0 0 44 46" fill="none" xmlns="http://www.w3.org/2000/svg">
<path d="M42.6984 15.9039L42.0387 15.4562L41.9594 15.4027L40.1311 14.1615C39.6947 13.8655 39.1009 13.9791 38.8049 14.4155L37.5226 16.305V10.9296V9.9748C37.5226 8.65626 36.4542 7.58787 35.1357 7.58787H22.9031L20.7234 3.66374C20.2632 2.83596 19.3915 2.32324 18.4443 2.32324H3.0849C1.6451 2.32324 0.477417 3.49093 0.477417 4.93073V9.83254H0.482191C0.479327 9.88028 0.477417 9.92802 0.477417 9.97575V10.9305V42.2471V43.2019C0.477417 44.5204 1.54581 45.5888 2.86435 45.5888H35.1357C36.4542 45.5888 37.5226 44.5204 37.5226 43.2019V42.2471V26.1849V25.2302L42.9524 17.2301C43.2484 16.7938 43.1348 16.1999 42.6984 15.9039Z" fill="#6697FF"/>
<path d="M18.4444 0.413086H3.0849C1.64511 0.413086 0.477417 1.58078 0.477417 3.02057V7.92238H24.1501L20.7234 1.75454C20.2642 0.926754 19.3915 0.413086 18.4444 0.413086Z" fill="#A437BF"/>
<path d="M35.1357 43.6776H2.86435C1.54581 43.6776 0.477417 42.6092 0.477417 41.2906V9.01926C0.477417 7.70072 1.54581 6.63232 2.86435 6.63232H35.1357C36.4542 6.63232 37.5226 7.70072 37.5226 9.01926V41.2906C37.5226 42.6092 36.4542 43.6776 35.1357 43.6776Z" fill="#A437BF"/>
<path d="M35.1357 42.723H2.86435C1.54581 42.723 0.477417 41.6546 0.477417 40.336V8.06467C0.477417 6.74613 1.54581 5.67773 2.86435 5.67773H35.1357C36.4542 5.67773 37.5226 6.74613 37.5226 8.06467V40.336C37.5226 41.6546 36.4542 42.723 35.1357 42.723Z" fill="#8E1CAA"/>
<path d="M33.4161 14.748H4.58386C4.05683 14.748 3.62909 15.1758 3.62909 15.7028V38.3625C3.62909 38.8895 4.05683 39.3172 4.58386 39.3172H33.4171C33.9441 39.3172 34.3719 38.8895 34.3719 38.3625V15.7028C34.3709 15.1758 33.9441 14.748 33.4161 14.748Z" fill="white"/>
<path d="M33.4161 38.3625H4.58386C4.05683 38.3625 3.62909 37.9347 3.62909 37.4077V38.3625C3.62909 38.8895 4.05683 39.3173 4.58386 39.3173H33.4171C33.9441 39.3173 34.3719 38.8895 34.3719 38.3625V37.4077C34.3709 37.9357 33.9441 38.3625 33.4161 38.3625Z" fill="#D1D3D4"/>
<path d="M25.206 8.64893H5.53864C4.48361 8.64893 3.62909 9.50345 3.62909 10.5585V11.0359C3.62909 12.0909 4.48361 12.9454 5.53864 12.9454H25.206C26.2611 12.9454 27.1156 12.0909 27.1156 11.0359V10.5585C27.1156 9.5044 26.2611 8.64893 25.206 8.64893Z" fill="white"/>
<path d="M25.206 11.9907H5.53864C4.56477 11.9907 3.76371 11.2612 3.64532 10.3198C3.63577 10.3981 3.62909 10.4774 3.62909 10.5585V11.0359C3.62909 12.0909 4.48361 12.9454 5.53864 12.9454H25.206C26.2611 12.9454 27.1156 12.0909 27.1156 11.0359V10.5585C27.1156 10.4774 27.1089 10.3981 27.0993 10.3198C26.981 11.2622 26.1799 11.9907 25.206 11.9907Z" fill="#D1D3D4"/>
<path d="M32.4614 8.64893H31.0617C30.0067 8.64893 29.1522 9.50345 29.1522 10.5585V11.0359C29.1522 12.0909 30.0067 12.9454 31.0617 12.9454H32.4614C33.5164 12.9454 34.371 12.0909 34.371 11.0359V10.5585C34.371 9.5044 33.5164 8.64893 32.4614 8.64893Z" fill="#3374FF"/>
<path d="M32.4614 11.9907H31.0617C30.0878 11.9907 29.2868 11.2612 29.1684 10.3198C29.1588 10.3981 29.1522 10.4774 29.1522 10.5585V11.0359C29.1522 12.0909 30.0067 12.9454 31.0617 12.9454H32.4614C33.5164 12.9454 34.371 12.0909 34.371 11.0359V10.5585C34.371 10.4774 34.3643 10.3981 34.3547 10.3198C34.2373 11.2622 33.4353 11.9907 32.4614 11.9907Z" fill="#0051FF"/>
<path d="M13.6218 25.2598H6.68344C6.41992 25.2598 6.20605 25.0459 6.20605 24.7824V17.8441C6.20605 17.5806 6.41992 17.3667 6.68344 17.3667H13.6218C13.8853 17.3667 14.0992 17.5806 14.0992 17.8441V24.7824C14.0992 25.0459 13.8853 25.2598 13.6218 25.2598ZM7.16083 24.305H13.1444V18.3215H7.16083V24.305Z" fill="#3374FF"/>
<path d="M30.1289 20.4737H16.8461C16.1195 20.4737 15.5314 19.8846 15.5314 19.159C15.5314 18.4324 16.1205 17.8442 16.8461 17.8442H30.1289C30.8555 17.8442 31.4436 18.4333 31.4436 19.159C31.4436 19.8855 30.8555 20.4737 30.1289 20.4737Z" fill="#3374FF"/>
<path d="M30.1289 24.792H16.8461C16.1195 24.792 15.5314 24.2029 15.5314 23.4773C15.5314 22.7507 16.1205 22.1626 16.8461 22.1626H30.1289C30.8555 22.1626 31.4436 22.7517 31.4436 23.4773C31.4436 24.2039 30.8555 24.792 30.1289 24.792Z" fill="#3374FF"/>
<path d="M10.451 23.4647C10.2371 23.4284 10.0433 23.31 9.91155 23.1334L7.8206 20.3158C7.54085 19.9387 7.61914 19.4059 7.99628 19.1262C8.37341 18.8464 8.90618 18.9257 9.18593 19.3019L10.6085 21.2181L13.2571 17.8C13.5445 17.4286 14.0791 17.3608 14.4506 17.6482C14.822 17.9356 14.8897 18.4703 14.6024 18.8417L11.2673 23.1467C11.1041 23.3568 10.852 23.479 10.5856 23.4761C10.5408 23.4761 10.4959 23.4723 10.451 23.4647Z" fill="#003199"/>
<path d="M14.4601 17.6572L10.5952 22.6459L8.45647 19.7635C8.29034 19.5391 8.06406 19.3863 7.81677 19.308C7.6029 19.6011 7.59336 20.0098 7.82155 20.3163L9.9125 23.1338C10.0443 23.3114 10.2381 23.4288 10.452 23.4651C10.4959 23.4727 10.5407 23.4766 10.5866 23.4775C10.853 23.4804 11.105 23.3582 11.2683 23.1481L14.6033 18.8431C14.8878 18.4745 14.8229 17.9465 14.4601 17.6572Z" fill="#6697FF"/>
<path d="M13.6218 27.9009H6.68347V34.8392H13.6218V27.9009Z" fill="#D1D3D4"/>
<path d="M30.1289 30.5313H16.8461C16.1195 30.5313 15.5314 29.9422 15.5314 29.2166C15.5314 28.49 16.1205 27.9019 16.8461 27.9019H30.1289C30.8555 27.9019 31.4436 28.4909 31.4436 29.2166C31.4436 29.9422 30.8555 30.5313 30.1289 30.5313Z" fill="#D1D3D4"/>
<path d="M30.1289 34.8497H16.8461C16.1195 34.8497 15.5314 34.2606 15.5314 33.5349C15.5314 32.8084 16.1205 32.2202 16.8461 32.2202H30.1289C30.8555 32.2202 31.4436 32.8093 31.4436 33.5349C31.4436 34.2606 30.8555 34.8497 30.1289 34.8497Z" fill="#D1D3D4"/>
<path d="M37.1426 15.9101L36.2308 17.2525L34.3709 19.9927V28.9189L37.5226 24.2758V15.3506L37.1426 15.9101Z" fill="#A437BF"/>
<path d="M34.3709 19.9922L27.909 29.5123C27.8661 29.5753 27.8317 29.6421 27.8059 29.7128C27.8059 29.7137 27.8059 29.7137 27.805 29.7147C27.7925 29.7471 27.782 29.7805 27.7734 29.8149C27.7649 29.8493 27.7582 29.8846 27.7524 29.9199L27.1548 34.3243C27.128 34.52 27.2187 34.6881 27.36 34.7836C27.5004 34.879 27.6904 34.901 27.8622 34.8046L31.7348 32.6229C31.7663 32.6057 31.7959 32.5857 31.8255 32.5647C31.8532 32.5446 31.8799 32.5227 31.9057 32.4988C31.9067 32.4978 31.9076 32.4978 31.9076 32.4969C31.963 32.4463 32.0136 32.389 32.0556 32.3269L34.37 28.9174V19.9922H34.3709Z" fill="#D1D3D4"/>
<path d="M31.7362 31.6694L27.8636 33.8511C27.5199 34.0449 27.1036 33.7613 27.1561 33.3708L27.7538 28.9664C27.7739 28.8204 27.8273 28.681 27.9104 28.5587L38.8063 12.5061C39.1022 12.0698 39.6961 11.9562 40.1324 12.2522L42.6998 13.9946C43.1361 14.2906 43.2498 14.8845 42.9538 15.3208L32.057 31.3734C31.9749 31.4956 31.8641 31.5968 31.7362 31.6694Z" fill="#6697FF"/>
<path d="M30.7113 30.9744L27.6808 33.727C27.4116 33.9714 27.2092 33.8339 27.3371 33.494L28.7769 29.6616C28.8247 29.5346 28.8925 29.4047 28.9755 29.2825L39.8714 13.2299C40.1674 12.7936 40.5798 12.5568 40.7908 12.7L42.0378 13.5469C42.2497 13.691 42.181 14.1608 41.885 14.5971L30.9901 30.6497C30.908 30.772 30.8125 30.8827 30.7113 30.9744Z" fill="#003199"/>
<path d="M41.29 17.7697L37.1426 14.9546L36.2311 16.2976L40.3784 19.1127L41.29 17.7697Z" fill="#0051FF"/>
<path d="M40.2362 17.0544L38.1957 15.6694L37.2841 17.0124L39.3246 18.3974L40.2362 17.0544Z" fill="#3374FF"/>
<path d="M27.8059 28.7593C27.7811 28.8261 27.763 28.8949 27.7534 28.9665L27.1557 33.3708C27.1023 33.7613 27.5195 34.0449 27.8632 33.8511L31.7358 31.6694C31.7978 31.6341 31.8561 31.5921 31.9086 31.5443L27.8059 28.7593Z" fill="#0051FF"/>
<path d="M28.8609 29.4751C28.8284 29.5372 28.8008 29.5992 28.7778 29.6613L27.338 33.4937C27.2101 33.8336 27.4125 33.9711 27.6818 33.7267L30.7122 30.9741C30.7609 30.9292 30.8086 30.8805 30.8545 30.828L28.8609 29.4751Z" fill="#3374FF"/>
</svg>
