<svg width="46" height="50" viewBox="0 0 46 50" fill="none" xmlns="http://www.w3.org/2000/svg">
<path d="M23 7.19648C24.5945 7.19648 25.8871 5.9039 25.8871 4.30942C25.8871 2.71494 24.5945 1.42236 23 1.42236C21.4055 1.42236 20.1129 2.71494 20.1129 4.30942C20.1129 5.9039 21.4055 7.19648 23 7.19648Z" fill="white"/>
<path d="M23 47.7805C24.5945 47.7805 25.8871 46.4879 25.8871 44.8934C25.8871 43.2989 24.5945 42.0063 23 42.0063C21.4055 42.0063 20.1129 43.2989 20.1129 44.8934C20.1129 46.4879 21.4055 47.7805 23 47.7805Z" fill="white"/>
<path d="M23 8.85956C25.0728 8.85956 26.7532 7.17916 26.7532 5.10629C26.7532 3.03342 25.0728 1.35303 23 1.35303C20.9271 1.35303 19.2467 3.03342 19.2467 5.10629C19.2467 7.17916 20.9271 8.85956 23 8.85956Z" fill="#D1D3D4"/>
<path d="M23 8.06268C25.0728 8.06268 26.7532 6.38228 26.7532 4.30941C26.7532 2.23655 25.0728 0.556152 23 0.556152C20.9271 0.556152 19.2467 2.23655 19.2467 4.30941C19.2467 6.38228 20.9271 8.06268 23 8.06268Z" fill="white"/>
<path d="M23 49.4435C25.0728 49.4435 26.7532 47.7632 26.7532 45.6903C26.7532 43.6174 25.0728 41.937 23 41.937C20.9271 41.937 19.2467 43.6174 19.2467 45.6903C19.2467 47.7632 20.9271 49.4435 23 49.4435Z" fill="#D1D3D4"/>
<path d="M23 48.6467C25.0728 48.6467 26.7532 46.9663 26.7532 44.8934C26.7532 42.8205 25.0728 41.1401 23 41.1401C20.9271 41.1401 19.2467 42.8205 19.2467 44.8934C19.2467 46.9663 20.9271 48.6467 23 48.6467Z" fill="white"/>
<path d="M5.42697 19.0051C7.49984 19.0051 9.18024 17.3247 9.18024 15.2518C9.18024 13.1789 7.49984 11.4985 5.42697 11.4985C3.3541 11.4985 1.67371 13.1789 1.67371 15.2518C1.67371 17.3247 3.3541 19.0051 5.42697 19.0051Z" fill="#D1D3D4"/>
<path d="M5.42697 18.2091C7.49984 18.2091 9.18024 16.5288 9.18024 14.4559C9.18024 12.383 7.49984 10.7026 5.42697 10.7026C3.3541 10.7026 1.67371 12.383 1.67371 14.4559C1.67371 16.5288 3.3541 18.2091 5.42697 18.2091Z" fill="white"/>
<path d="M40.5738 39.2971C42.6467 39.2971 44.3271 37.6167 44.3271 35.5438C44.3271 33.4709 42.6467 31.7905 40.5738 31.7905C38.501 31.7905 36.8206 33.4709 36.8206 35.5438C36.8206 37.6167 38.501 39.2971 40.5738 39.2971Z" fill="#D1D3D4"/>
<path d="M40.5738 38.5011C42.6467 38.5011 44.3271 36.8207 44.3271 34.7479C44.3271 32.675 42.6467 30.9946 40.5738 30.9946C38.501 30.9946 36.8206 32.675 36.8206 34.7479C36.8206 36.8207 38.501 38.5011 40.5738 38.5011Z" fill="white"/>
<path d="M5.42697 39.2971C7.49984 39.2971 9.18024 37.6167 9.18024 35.5438C9.18024 33.4709 7.49984 31.7905 5.42697 31.7905C3.3541 31.7905 1.67371 33.4709 1.67371 35.5438C1.67371 37.6167 3.3541 39.2971 5.42697 39.2971Z" fill="#D1D3D4"/>
<path d="M5.42697 38.5011C7.49984 38.5011 9.18024 36.8207 9.18024 34.7479C9.18024 32.675 7.49984 30.9946 5.42697 30.9946C3.3541 30.9946 1.67371 32.675 1.67371 34.7479C1.67371 36.8207 3.3541 38.5011 5.42697 38.5011Z" fill="white"/>
<path d="M40.5738 19.0051C42.6467 19.0051 44.3271 17.3247 44.3271 15.2518C44.3271 13.1789 42.6467 11.4985 40.5738 11.4985C38.501 11.4985 36.8206 13.1789 36.8206 15.2518C36.8206 17.3247 38.501 19.0051 40.5738 19.0051Z" fill="#D1D3D4"/>
<path d="M40.5738 18.2091C42.6467 18.2091 44.3271 16.5288 44.3271 14.4559C44.3271 12.383 42.6467 10.7026 40.5738 10.7026C38.501 10.7026 36.8206 12.383 36.8206 14.4559C36.8206 16.5288 38.501 18.2091 40.5738 18.2091Z" fill="white"/>
<path d="M24.5918 4.30908H21.4075V44.8933H24.5918V4.30908Z" fill="white"/>
<path d="M6.22178 13.0783L4.62964 15.8359L39.7755 36.1281L41.3676 33.3705L6.22178 13.0783Z" fill="white"/>
<path d="M39.7762 13.0768L4.63013 33.3687L6.22229 36.1262L41.3683 15.8344L39.7762 13.0768Z" fill="white"/>
<path d="M33.3268 16.8005L24.5918 21.8439V12.0843C24.0694 12.0228 23.5382 11.9902 22.9992 11.9902C22.4601 11.9902 21.929 12.0228 21.4066 12.0843V21.8439L12.6715 16.8005C11.9882 17.6131 11.3982 18.5074 10.9198 19.4669L19.814 24.6017L10.0931 30.2149C10.4088 31.2499 10.845 32.2322 11.3867 33.1459L21.4075 27.3603V39.6754C21.9298 39.737 22.461 39.7695 23.0001 39.7695C23.5391 39.7695 24.0703 39.737 24.5926 39.6754V27.3603L34.6134 33.1459C35.1542 32.2331 35.5913 31.2508 35.907 30.2149L26.1852 24.6017L35.0795 19.4669C34.6002 18.5074 34.011 17.6131 33.3268 16.8005Z" fill="#D1D3D4"/>
<path d="M23 38.8889C30.4508 38.8889 36.4908 32.8488 36.4908 25.3981C36.4908 17.9473 30.4508 11.9072 23 11.9072C15.5492 11.9072 9.50916 17.9473 9.50916 25.3981C9.50916 32.8488 15.5492 38.8889 23 38.8889Z" fill="#0051FF"/>
<path d="M23 38.0925C30.4508 38.0925 36.4908 32.0525 36.4908 24.6017C36.4908 17.1509 30.4508 11.1108 23 11.1108C15.5492 11.1108 9.50916 17.1509 9.50916 24.6017C9.50916 32.0525 15.5492 38.0925 23 38.0925Z" fill="#3374FF"/>
<path d="M23 35.4991C29.0185 35.4991 33.8975 30.6201 33.8975 24.6016C33.8975 18.5831 29.0185 13.7041 23 13.7041C16.9815 13.7041 12.1025 18.5831 12.1025 24.6016C12.1025 30.6201 16.9815 35.4991 23 35.4991Z" fill="#003199"/>
<path d="M23.0001 32.7103C17.4537 32.7103 12.8756 28.5674 12.1905 23.2075C12.1325 23.6639 12.1017 24.13 12.1017 24.6022C12.1017 30.6208 16.9806 35.4997 22.9992 35.4997C29.0178 35.4997 33.8967 30.6208 33.8967 24.6022C33.8967 24.13 33.8668 23.6639 33.8078 23.2075C33.1245 28.5666 28.5464 32.7103 23.0001 32.7103Z" fill="#002066"/>
<path d="M23 29.4814C19.7216 29.4814 16.6059 30.1559 14.4127 31.3124C14.8067 31.8162 15.2446 32.2832 15.7195 32.7106C17.6146 31.8268 20.2264 31.3176 23 31.3176C25.7736 31.3176 28.3846 31.8268 30.2805 32.7106C30.7554 32.2841 31.1933 31.8162 31.5873 31.3124C29.3941 30.1559 26.2784 29.4814 23 29.4814Z" fill="#3374FF"/>
<path d="M15.0363 32.0403C15.2543 32.2733 15.4821 32.4967 15.7195 32.7104C17.6147 31.8266 20.2265 31.3174 23.0001 31.3174C25.7737 31.3174 28.3846 31.8266 30.2806 32.7104C30.5181 32.4976 30.7458 32.2733 30.9639 32.0403C28.8243 31.0703 25.9795 30.5137 23.0001 30.5137C20.0216 30.5137 17.1767 31.0712 15.0363 32.0403Z" fill="#0051FF"/>
<path d="M23 19.7228C26.2784 19.7228 29.3941 19.0483 31.5873 17.8919C31.1933 17.388 30.7554 16.921 30.2805 16.4937C28.3854 17.3774 25.7736 17.8866 23 17.8866C20.2264 17.8866 17.6155 17.3774 15.7195 16.4937C15.2446 16.9202 14.8067 17.388 14.4127 17.8919C16.6059 19.0483 19.7216 19.7228 23 19.7228Z" fill="#3374FF"/>
<path d="M23 18.8047C19.9863 18.8047 17.1107 18.2348 14.9623 17.2446C14.7715 17.453 14.5877 17.6694 14.4127 17.8919C16.6051 19.0483 19.7216 19.7228 23 19.7228C26.2784 19.7228 29.3941 19.0483 31.5873 17.8919C31.4123 17.6685 31.2285 17.453 31.0377 17.2446C28.8893 18.2348 26.0137 18.8047 23 18.8047Z" fill="#0051FF"/>
<path d="M22.0819 13.7428V35.4604C22.3844 35.4859 22.6905 35.4991 23 35.4991C23.3095 35.4991 23.6156 35.4859 23.9181 35.4604V13.7428C23.6156 13.7173 23.3095 13.7041 23 13.7041C22.6905 13.7041 22.3844 13.7182 22.0819 13.7428Z" fill="#3374FF"/>
<path d="M12.1412 23.6831C12.1157 23.9856 12.1025 24.2917 12.1025 24.6012V24.6021C12.1025 24.9116 12.1157 25.2177 12.1412 25.5202H33.8588C33.8843 25.2177 33.8975 24.9116 33.8975 24.6021V24.6012C33.8975 24.2917 33.8843 23.9856 33.8588 23.6831H12.1412Z" fill="#3374FF"/>
<path d="M33.8588 24.6016H12.1412C12.1289 24.4495 12.1192 24.2965 12.1122 24.1426C12.1061 24.2947 12.1025 24.4477 12.1025 24.6016V24.6025C12.1025 24.912 12.1157 25.2181 12.1412 25.5206H33.8588C33.8843 25.2181 33.8975 24.912 33.8975 24.6025V24.6016C33.8975 24.4477 33.894 24.2947 33.8878 24.1426C33.8817 24.2965 33.8711 24.4495 33.8588 24.6016Z" fill="#0051FF"/>
<path d="M19.5124 33.3303C18.4158 31.0139 17.8125 27.9141 17.8125 24.6014C17.8125 21.2887 18.4166 18.1888 19.5124 15.8725C19.8773 15.1021 20.2818 14.4549 20.711 13.9448C19.7217 14.1559 18.7834 14.5015 17.9136 14.9614C17.8934 15.0036 17.8732 15.0441 17.853 15.0872C16.6429 17.6436 15.9763 21.0222 15.9763 24.6014C15.9763 28.1805 16.6429 31.5592 17.853 34.1156C17.8732 34.1578 17.8934 34.1991 17.9136 34.2413C18.7834 34.7013 19.7226 35.0469 20.711 35.2579C20.2827 34.7479 19.8773 34.1006 19.5124 33.3303Z" fill="#3374FF"/>
<path d="M17.8125 24.6014C17.8125 21.2887 18.4166 18.1888 19.5124 15.8725C19.8773 15.1021 20.2818 14.4549 20.711 13.9448C20.3117 14.0301 19.9213 14.1374 19.5405 14.2649C19.2046 14.7169 18.8862 15.2551 18.5943 15.8725C17.4977 18.1888 16.8944 21.2887 16.8944 24.6014C16.8944 27.9141 17.4986 31.0139 18.5943 33.3303C18.8862 33.9476 19.2046 34.4858 19.5405 34.9378C19.9222 35.0653 20.3126 35.1726 20.711 35.2579C20.2818 34.7479 19.8764 34.1006 19.5124 33.3303C18.4166 31.0139 17.8125 27.9141 17.8125 24.6014Z" fill="#0051FF"/>
<path d="M26.4877 15.8739C27.5843 18.1903 28.1876 21.2901 28.1876 24.6028C28.1876 27.9155 27.5834 31.0154 26.4877 33.3317C26.1227 34.1021 25.7182 34.7493 25.2891 35.2594C26.2784 35.0483 27.2167 34.7027 28.0864 34.2428C28.1066 34.2006 28.1269 34.1601 28.1471 34.117C29.3572 31.5606 30.0237 28.182 30.0237 24.6028C30.0237 21.0237 29.3572 17.645 28.1471 15.0886C28.1269 15.0464 28.1066 15.0051 28.0864 14.9629C27.2167 14.5029 26.2775 14.1573 25.2891 13.9463C25.7173 14.4555 26.1227 15.1036 26.4877 15.8739Z" fill="#3374FF"/>
<path d="M25.2882 35.2579C25.6875 35.1726 26.0779 35.0653 26.4587 34.9378C26.7946 34.4858 27.113 33.9476 27.4049 33.3303C28.5015 31.0139 29.1048 27.9141 29.1048 24.6014C29.1048 21.2887 28.5006 18.1888 27.4049 15.8725C27.113 15.2551 26.7946 14.7169 26.4587 14.2649C26.077 14.1374 25.6866 14.0301 25.2882 13.9448C25.7174 14.4549 26.1228 15.1021 26.4868 15.8725C27.5834 18.1888 28.1867 21.2887 28.1867 24.6014C28.1867 27.9141 27.5826 31.0139 26.4868 33.3303C26.1228 34.1006 25.7174 34.7479 25.2882 35.2579Z" fill="#0051FF"/>
<path d="M23 6.18637C24.0365 6.18637 24.8767 5.34617 24.8767 4.30974C24.8767 3.2733 24.0365 2.43311 23 2.43311C21.9636 2.43311 21.1234 3.2733 21.1234 4.30974C21.1234 5.34617 21.9636 6.18637 23 6.18637Z" fill="#8E1CAA"/>
<path d="M23 5.38989C22.1004 5.38989 21.3485 4.75672 21.1665 3.91162C21.1384 4.04001 21.1234 4.1728 21.1234 4.30999C21.1234 5.34592 21.9632 6.18662 23 6.18662C24.036 6.18662 24.8767 5.3468 24.8767 4.30999C24.8767 4.17368 24.8617 4.04001 24.8336 3.91162C24.6516 4.75672 23.8997 5.38989 23 5.38989Z" fill="#A437BF"/>
<path d="M40.5739 16.3324C41.6103 16.3324 42.4505 15.4922 42.4505 14.4557C42.4505 13.4193 41.6103 12.5791 40.5739 12.5791C39.5375 12.5791 38.6973 13.4193 38.6973 14.4557C38.6973 15.4922 39.5375 16.3324 40.5739 16.3324Z" fill="#8E1CAA"/>
<path d="M40.5739 15.5359C39.6743 15.5359 38.9224 14.9027 38.7404 14.0576C38.7122 14.186 38.6973 14.3188 38.6973 14.456C38.6973 15.4919 39.5371 16.3326 40.5739 16.3326C41.6098 16.3326 42.4505 15.4928 42.4505 14.456C42.4505 14.3197 42.4356 14.186 42.4074 14.0576C42.2245 14.9027 41.4735 15.5359 40.5739 15.5359Z" fill="#A437BF"/>
<path d="M5.42619 16.3324C6.46263 16.3324 7.30283 15.4922 7.30283 14.4557C7.30283 13.4193 6.46263 12.5791 5.42619 12.5791C4.38976 12.5791 3.54956 13.4193 3.54956 14.4557C3.54956 15.4922 4.38976 16.3324 5.42619 16.3324Z" fill="#8E1CAA"/>
<path d="M5.42619 15.5359C4.52657 15.5359 3.77469 14.9027 3.59265 14.0576C3.56451 14.186 3.54956 14.3188 3.54956 14.456C3.54956 15.4919 4.38938 16.3326 5.42619 16.3326C6.463 16.3326 7.30283 15.4928 7.30283 14.456C7.30283 14.3197 7.28787 14.186 7.25973 14.0576C7.0777 14.9027 6.32669 15.5359 5.42619 15.5359Z" fill="#A437BF"/>
<path d="M40.5739 36.6244C41.6103 36.6244 42.4505 35.7842 42.4505 34.7477C42.4505 33.7113 41.6103 32.8711 40.5739 32.8711C39.5375 32.8711 38.6973 33.7113 38.6973 34.7477C38.6973 35.7842 39.5375 36.6244 40.5739 36.6244Z" fill="#8E1CAA"/>
<path d="M40.5739 35.8279C39.6743 35.8279 38.9224 35.1947 38.7404 34.3496C38.7122 34.478 38.6973 34.6108 38.6973 34.748C38.6973 35.7839 39.5371 36.6246 40.5739 36.6246C41.6098 36.6246 42.4505 35.7848 42.4505 34.748C42.4505 34.6117 42.4356 34.478 42.4074 34.3496C42.2245 35.1947 41.4735 35.8279 40.5739 35.8279Z" fill="#A437BF"/>
<path d="M5.42619 36.6244C6.46263 36.6244 7.30283 35.7842 7.30283 34.7477C7.30283 33.7113 6.46263 32.8711 5.42619 32.8711C4.38976 32.8711 3.54956 33.7113 3.54956 34.7477C3.54956 35.7842 4.38976 36.6244 5.42619 36.6244Z" fill="#8E1CAA"/>
<path d="M5.42619 35.8279C4.52657 35.8279 3.77469 35.1947 3.59265 34.3496C3.56451 34.478 3.54956 34.6108 3.54956 34.748C3.54956 35.7839 4.38938 36.6246 5.42619 36.6246C6.463 36.6246 7.30283 35.7848 7.30283 34.748C7.30283 34.6117 7.28787 34.478 7.25973 34.3496C7.0777 35.1947 6.32669 35.8279 5.42619 35.8279Z" fill="#A437BF"/>
<path d="M23 46.7704C24.0365 46.7704 24.8767 45.9302 24.8767 44.8937C24.8767 43.8573 24.0365 43.0171 23 43.0171C21.9636 43.0171 21.1234 43.8573 21.1234 44.8937C21.1234 45.9302 21.9636 46.7704 23 46.7704Z" fill="#8E1CAA"/>
<path d="M23 45.9744C22.1004 45.9744 21.3485 45.3412 21.1665 44.4961C21.1384 44.6245 21.1234 44.7573 21.1234 44.8945C21.1234 45.9304 21.9632 46.7711 23 46.7711C24.036 46.7711 24.8767 45.9313 24.8767 44.8945C24.8767 44.7582 24.8617 44.6245 24.8336 44.4961C24.6516 45.3412 23.8997 45.9744 23 45.9744Z" fill="#A437BF"/>
<path d="M33.1852 44.0291C34.2217 44.0291 35.0619 43.1889 35.0619 42.1525C35.0619 41.1161 34.2217 40.2759 33.1852 40.2759C32.1488 40.2759 31.3086 41.1161 31.3086 42.1525C31.3086 43.1889 32.1488 44.0291 33.1852 44.0291Z" fill="#8E1CAA"/>
<path d="M12.8149 8.92806C13.8513 8.92806 14.6915 8.08786 14.6915 7.05143C14.6915 6.015 13.8513 5.1748 12.8149 5.1748C11.7784 5.1748 10.9382 6.015 10.9382 7.05143C10.9382 8.08786 11.7784 8.92806 12.8149 8.92806Z" fill="#8E1CAA"/>
<path d="M43.2922 26.8763C44.3286 26.8763 45.1688 26.0361 45.1688 24.9997C45.1688 23.9632 44.3286 23.123 43.2922 23.123C42.2557 23.123 41.4155 23.9632 41.4155 24.9997C41.4155 26.0361 42.2557 26.8763 43.2922 26.8763Z" fill="#D1D3D4"/>
<path d="M43.2922 26.4784C44.3286 26.4784 45.1688 25.6382 45.1688 24.6017C45.1688 23.5653 44.3286 22.7251 43.2922 22.7251C42.2557 22.7251 41.4155 23.5653 41.4155 24.6017C41.4155 25.6382 42.2557 26.4784 43.2922 26.4784Z" fill="white"/>
<path d="M2.70793 26.8763C3.74437 26.8763 4.58456 26.0361 4.58456 24.9997C4.58456 23.9632 3.74437 23.123 2.70793 23.123C1.6715 23.123 0.831299 23.9632 0.831299 24.9997C0.831299 26.0361 1.6715 26.8763 2.70793 26.8763Z" fill="#D1D3D4"/>
<path d="M2.70793 26.4784C3.74437 26.4784 4.58456 25.6382 4.58456 24.6017C4.58456 23.5653 3.74437 22.7251 2.70793 22.7251C1.6715 22.7251 0.831299 23.5653 0.831299 24.6017C0.831299 25.6382 1.6715 26.4784 2.70793 26.4784Z" fill="white"/>
<path d="M33.1852 44.4271C34.2217 44.4271 35.0619 43.5869 35.0619 42.5505C35.0619 41.514 34.2217 40.6738 33.1852 40.6738C32.1488 40.6738 31.3086 41.514 31.3086 42.5505C31.3086 43.5869 32.1488 44.4271 33.1852 44.4271Z" fill="#D1D3D4"/>
<path d="M33.1852 44.0291C34.2217 44.0291 35.0619 43.1889 35.0619 42.1525C35.0619 41.1161 34.2217 40.2759 33.1852 40.2759C32.1488 40.2759 31.3086 41.1161 31.3086 42.1525C31.3086 43.1889 32.1488 44.0291 33.1852 44.0291Z" fill="white"/>
<path d="M12.8149 9.32553C13.8513 9.32553 14.6915 8.48533 14.6915 7.4489C14.6915 6.41246 13.8513 5.57227 12.8149 5.57227C11.7784 5.57227 10.9382 6.41246 10.9382 7.4489C10.9382 8.48533 11.7784 9.32553 12.8149 9.32553Z" fill="#D1D3D4"/>
<path d="M12.8149 8.92806C13.8513 8.92806 14.6915 8.08786 14.6915 7.05143C14.6915 6.015 13.8513 5.1748 12.8149 5.1748C11.7784 5.1748 10.9382 6.015 10.9382 7.05143C10.9382 8.08786 11.7784 8.92806 12.8149 8.92806Z" fill="white"/>
<path d="M12.8149 44.4271C13.8513 44.4271 14.6915 43.5869 14.6915 42.5505C14.6915 41.514 13.8513 40.6738 12.8149 40.6738C11.7784 40.6738 10.9382 41.514 10.9382 42.5505C10.9382 43.5869 11.7784 44.4271 12.8149 44.4271Z" fill="#D1D3D4"/>
<path d="M12.8149 44.0291C13.8513 44.0291 14.6915 43.1889 14.6915 42.1525C14.6915 41.1161 13.8513 40.2759 12.8149 40.2759C11.7784 40.2759 10.9382 41.1161 10.9382 42.1525C10.9382 43.1889 11.7784 44.0291 12.8149 44.0291Z" fill="white"/>
<path d="M33.1852 9.32553C34.2217 9.32553 35.0619 8.48533 35.0619 7.4489C35.0619 6.41246 34.2217 5.57227 33.1852 5.57227C32.1488 5.57227 31.3086 6.41246 31.3086 7.4489C31.3086 8.48533 32.1488 9.32553 33.1852 9.32553Z" fill="#D1D3D4"/>
<path d="M33.1852 8.92806C34.2217 8.92806 35.0619 8.08786 35.0619 7.05143C35.0619 6.015 34.2217 5.1748 33.1852 5.1748C32.1488 5.1748 31.3086 6.015 31.3086 7.05143C31.3086 8.08786 32.1488 8.92806 33.1852 8.92806Z" fill="white"/>
</svg>
