<svg width="42" height="50" viewBox="0 0 42 50" fill="none" xmlns="http://www.w3.org/2000/svg">
<path d="M20.37 0H2.95624C1.32387 0 0 1.34947 0 3.01342V8.67833H26.8389L22.9539 1.55029C22.4332 0.593635 21.4438 0 20.37 0Z" fill="#0051FF"/>
<path d="M39.2938 49.9999H2.70619C1.21129 49.9999 0 48.7652 0 47.2413V9.94603C0 8.42222 1.21129 7.1875 2.70619 7.1875H39.2938C40.7887 7.1875 42 8.42222 42 9.94603V47.2413C42 48.7652 40.7887 49.9999 39.2938 49.9999Z" fill="#0051FF"/>
<path d="M39.2938 48.8968H2.70619C1.21129 48.8968 0 47.6621 0 46.1383V8.843C0 7.31919 1.21129 6.08447 2.70619 6.08447H39.2938C40.7887 6.08447 42 7.31919 42 8.843V46.1383C42 47.6621 40.7887 48.8968 39.2938 48.8968Z" fill="#3374FF"/>
<path d="M37.3443 16.5669H4.65572C4.05819 16.5669 3.57324 17.0612 3.57324 17.6703V43.8576C3.57324 44.4667 4.05819 44.961 4.65572 44.961H37.3453C37.9429 44.961 38.4278 44.4667 38.4278 43.8576V17.6703C38.4267 17.0612 37.9429 16.5669 37.3443 16.5669Z" fill="white"/>
<path d="M37.3443 43.8573H4.65572C4.05819 43.8573 3.57324 43.363 3.57324 42.7539V43.8573C3.57324 44.4664 4.05819 44.9607 4.65572 44.9607H37.3453C37.9429 44.9607 38.4278 44.4664 38.4278 43.8573V42.7539C38.4267 43.3641 37.9429 43.8573 37.3443 43.8573Z" fill="#D1D3D4"/>
<path d="M28.0361 9.51904H5.73819C4.54206 9.51904 3.57324 10.5066 3.57324 11.7259V12.2776C3.57324 13.4968 4.54206 14.4844 5.73819 14.4844H28.0361C29.2322 14.4844 30.201 13.4968 30.201 12.2776V11.7259C30.201 10.5066 29.2322 9.51904 28.0361 9.51904Z" fill="white"/>
<path d="M28.0361 13.3812H5.73819C4.63407 13.3812 3.72587 12.5382 3.59164 11.4502C3.58082 11.5407 3.57324 11.6323 3.57324 11.726V12.2778C3.57324 13.497 4.54206 14.4846 5.73819 14.4846H28.0361C29.2322 14.4846 30.201 13.497 30.201 12.2778V11.726C30.201 11.6323 30.1934 11.5407 30.1826 11.4502C30.0484 12.5382 29.1402 13.3812 28.0361 13.3812Z" fill="#D1D3D4"/>
<path d="M36.2618 9.51904H34.6749C33.4788 9.51904 32.5099 10.5066 32.5099 11.7259V12.2776C32.5099 13.4968 33.4788 14.4844 34.6749 14.4844H36.2618C37.4579 14.4844 38.4268 13.4968 38.4268 12.2776V11.7259C38.4268 10.5066 37.4579 9.51904 36.2618 9.51904Z" fill="#003199"/>
<path d="M36.2618 13.3812H34.6749C33.5708 13.3812 32.6626 12.5382 32.5284 11.4502C32.5175 11.5407 32.5099 11.6323 32.5099 11.726V12.2778C32.5099 13.497 33.4788 14.4846 34.6749 14.4846H36.2618C37.4579 14.4846 38.4268 13.497 38.4268 12.2778V11.726C38.4268 11.6323 38.4192 11.5407 38.4083 11.4502C38.2752 12.5382 37.3659 13.3812 36.2618 13.3812Z" fill="#002066"/>
<path d="M21 41.9253C27.1063 41.9253 32.0564 36.8794 32.0564 30.655C32.0564 24.4306 27.1063 19.3848 21 19.3848C14.8937 19.3848 9.9436 24.4306 9.9436 30.655C9.9436 36.8794 14.8937 41.9253 21 41.9253Z" fill="#D1D3D4"/>
<path d="M21 40.9365C27.1063 40.9365 32.0564 35.8906 32.0564 29.6662C32.0564 23.4419 27.1063 18.396 21 18.396C14.8937 18.396 9.9436 23.4419 9.9436 29.6662C9.9436 35.8906 14.8937 40.9365 21 40.9365Z" fill="#8E1CAA"/>
<path d="M21 39.2581C26.197 39.2581 30.41 34.9637 30.41 29.6662C30.41 24.3687 26.197 20.0742 21 20.0742C15.8031 20.0742 11.5901 24.3687 11.5901 29.6662C11.5901 34.9637 15.8031 39.2581 21 39.2581Z" fill="#A437BF"/>
<path d="M21 38.4319C25.7492 38.4319 29.5992 34.5074 29.5992 29.6664C29.5992 24.8253 25.7492 20.9009 21 20.9009C16.2508 20.9009 12.4008 24.8253 12.4008 29.6664C12.4008 34.5074 16.2508 38.4319 21 38.4319Z" fill="white"/>
<path d="M21 21.8895C25.5864 21.8895 29.334 25.5496 29.5851 30.1607C29.5938 29.9974 29.5992 29.8319 29.5992 29.6664C29.5992 24.8246 25.7488 20.9009 21 20.9009C16.2512 20.9009 12.4008 24.8257 12.4008 29.6664C12.4008 29.8319 12.4062 29.9974 12.4149 30.1607C12.666 25.5496 16.4135 21.8895 21 21.8895Z" fill="#D1D3D4"/>
<path d="M16.826 24.1118C15.0507 25.3818 14.1089 27.8038 14.1089 30.1828H14.6231H14.8472C14.858 29.801 14.9056 29.4281 14.9868 29.0694C15.041 28.83 15.1102 28.5972 15.1936 28.3721C15.2347 28.2595 15.2802 28.1481 15.3289 28.0389C15.6926 27.2201 16.2436 26.5128 16.9255 25.9744C17.0165 25.9027 17.1096 25.8342 17.2048 25.768C17.3477 25.6698 17.496 25.5782 17.6476 25.4955L16.826 24.1118Z" fill="#D1D3D4"/>
<path d="M25.174 24.1118L24.2853 25.6125L23.7809 26.5029C23.9108 26.6408 24.032 26.7854 24.1478 26.9365C24.2106 27.0182 24.2702 27.1021 24.3275 27.187C24.3654 27.2422 24.4022 27.2985 24.4379 27.3558C24.4899 27.4397 24.5408 27.5258 24.5884 27.6129C24.6685 27.7575 24.7421 27.9053 24.8081 28.0576C25.0939 28.7075 25.2628 29.4247 25.2834 30.1817H27.3769H27.89C27.891 27.8027 26.9493 25.3818 25.174 24.1118Z" fill="#D1D3D4"/>
<path d="M23.0026 25.8219L23.0729 25.6973L23.8426 24.3379L24.2604 23.5544C23.3316 23.0789 22.1106 23.1583 21 23.1583C19.8894 23.1583 18.6683 23.0789 17.7396 23.5544L18.1574 24.3379L18.5882 25.0981C18.6304 25.0849 18.6727 25.0738 18.7149 25.0617C18.8588 25.022 19.005 24.9867 19.1533 24.9591C19.2594 24.9392 19.3665 24.9227 19.4748 24.9105C19.6685 24.8874 19.8666 24.8752 20.0658 24.8752C20.3386 24.8752 20.606 24.8973 20.8668 24.9392C20.9978 24.9602 21.1266 24.9867 21.2533 25.0176C21.3659 25.0451 21.4763 25.0771 21.5856 25.1113C21.6159 25.1213 21.6462 25.1312 21.6754 25.1411C22.1517 25.3033 22.5977 25.5328 23.0026 25.8219Z" fill="#D1D3D4"/>
<path d="M16.826 24.1118C14.9522 25.4536 13.7258 27.6714 13.7258 30.1828H14.5052C14.5625 28.0311 15.7467 26.1752 17.4625 25.2351L16.826 24.1118Z" fill="#3374FF"/>
<path d="M25.174 24.1118L23.9357 26.2977C24.8828 27.3029 25.4814 28.6689 25.5226 30.1817H28.2742C28.2742 27.6714 27.0478 25.4525 25.174 24.1118Z" fill="#3374FF"/>
<path d="M24.2604 23.5543C23.2797 23.0523 22.1724 22.7676 21 22.7676C19.8277 22.7676 18.7203 23.0523 17.7396 23.5543L18.4541 24.8155C18.9487 24.6632 19.4727 24.5805 20.0139 24.5805C21.1635 24.5805 22.2308 24.9501 23.113 25.5802L24.2604 23.5543Z" fill="#003199"/>
<path d="M27.7319 30.1828C27.7384 28.8598 27.3703 27.5213 26.5942 26.3385C26.1287 25.6301 25.5561 25.0386 24.9131 24.5708L23.9346 26.2976C24.8817 27.3029 25.4803 28.6689 25.5215 30.1817H27.7319V30.1828Z" fill="#0051FF"/>
<path d="M24.0006 24.0135C22.1518 23.0767 19.9273 23.0326 17.9994 24.0146L18.454 24.8168C18.9487 24.6645 19.4726 24.5818 20.0139 24.5818C21.1635 24.5818 22.2308 24.9514 23.113 25.5815L24.0006 24.0135Z" fill="#002066"/>
<path d="M17.4625 25.2348L17.088 24.5728C15.251 25.909 14.2627 28.0264 14.2692 30.1814H14.5063C14.5636 28.0308 15.7479 26.1738 17.4625 25.2348Z" fill="#0051FF"/>
<path d="M24.6284 27.1992C24.6425 27.2224 24.6576 27.2456 24.6717 27.2698C24.6576 27.2456 24.6425 27.2224 24.6284 27.1992Z" fill="#3374FF"/>
<path d="M25.5225 30.1823C25.515 29.8987 25.4879 29.6196 25.4424 29.3481C25.4868 29.6196 25.5139 29.8976 25.5225 30.1823Z" fill="#3374FF"/>
<path d="M26.5801 26.317C26.723 26.2453 26.8638 26.1758 26.9991 26.1085C27.0196 26.0986 27.0413 26.0909 27.0608 26.0853C26.5574 25.314 25.9166 24.6432 25.1729 24.1113L24.4628 25.3659L24.9131 24.5703C25.5496 25.0338 26.1168 25.6175 26.5801 26.317Z" fill="#8E1CAA"/>
<path d="M27.4602 26.7739C27.4602 26.7783 27.4602 26.7816 27.4602 26.7828C27.4634 26.8799 27.4428 26.9825 27.3519 27.0652C27.274 27.1358 27.1939 27.2076 27.1138 27.2815C27.5349 28.2106 27.7373 29.2003 27.7319 30.1824H28.2742C28.2742 28.9532 27.9797 27.7946 27.4602 26.7739Z" fill="#8E1CAA"/>
<path d="M24.4628 25.3662L23.9346 26.2975C24.1933 26.5722 24.4249 26.8746 24.6274 27.199C24.4249 26.8746 24.1933 26.5722 23.9346 26.2975L24.4628 25.3662Z" fill="#0051FF"/>
<path d="M25.3429 28.8785C25.3819 29.033 25.4154 29.1886 25.4425 29.3474C25.4879 29.6189 25.515 29.8981 25.5226 30.1816H27.733C27.7373 29.1996 27.536 28.2098 27.1149 27.2808C26.5661 27.7762 25.9545 28.329 25.3429 28.8785Z" fill="#A437BF"/>
<path d="M26.5801 26.3175C26.1179 25.6179 25.5496 25.0342 24.9131 24.5708L24.4628 25.3664L23.9346 26.2976C24.1933 26.5724 24.4249 26.8747 24.6274 27.1991C24.6414 27.2223 24.6566 27.2455 24.6707 27.2697C25.3266 26.9409 25.9826 26.6143 26.5801 26.3175Z" fill="#A437BF"/>
<path d="M27.4624 26.3932C27.4526 26.2001 27.2719 26.0258 27.0608 26.0842C27.2058 26.306 27.339 26.5355 27.4591 26.7728C27.4602 26.7121 27.4624 26.3932 27.4624 26.3932Z" fill="#A437BF"/>
<path d="M25.2227 28.4656C25.187 28.3586 25.1491 28.2527 25.108 28.1489C25.0452 27.9912 24.977 27.8367 24.9023 27.6866C24.8655 27.6138 24.8276 27.541 24.7886 27.4704C24.7508 27.403 24.7129 27.3357 24.6728 27.2695C22.6248 28.2946 20.5789 29.3318 20.2996 29.5227C19.8753 29.8129 19.6794 30.3194 19.7584 30.8015C19.7086 31.1127 19.7681 31.4415 19.9532 31.724C20.3408 32.3143 21.1234 32.4721 21.7025 32.0771C21.9775 31.8895 23.6564 30.3955 25.344 28.8783C25.3385 28.8562 25.3342 28.8342 25.3277 28.8121C25.2963 28.6951 25.2606 28.5793 25.2227 28.4656Z" fill="#D1D3D4"/>
<path d="M24.6718 27.2695C24.7118 27.3357 24.7497 27.4019 24.7876 27.4704C24.7497 27.4019 24.7118 27.3346 24.6718 27.2695Z" fill="#A437BF"/>
<path d="M25.2227 28.4653C25.2606 28.5801 25.2963 28.6959 25.3277 28.8129C25.2963 28.6948 25.2606 28.579 25.2227 28.4653Z" fill="#A437BF"/>
<path d="M26.5801 26.3172C26.5845 26.3238 26.5899 26.3315 26.5942 26.3381C26.7945 26.6427 26.9666 26.9582 27.1138 27.2815C27.195 27.2087 27.2751 27.1359 27.3519 27.0653C27.4429 26.9825 27.4624 26.8799 27.4602 26.7828C27.4602 26.7817 27.4602 26.7784 27.4602 26.774C27.339 26.5367 27.2058 26.3061 27.0618 26.0854C27.0413 26.091 27.0207 26.0987 27.0001 26.1086C26.8637 26.1759 26.723 26.2454 26.5801 26.3172Z" fill="#A437BF"/>
<path d="M24.9012 27.6855C24.9759 27.8356 25.0452 27.9901 25.1069 28.1479C25.0452 27.9901 24.9759 27.8367 24.9012 27.6855Z" fill="#A437BF"/>
<path d="M25.1069 28.1479C25.148 28.2517 25.1859 28.3576 25.2216 28.4646C25.187 28.3587 25.148 28.2528 25.1069 28.1479Z" fill="#A437BF"/>
<path d="M24.7876 27.4692C24.8266 27.5399 24.8644 27.6127 24.9012 27.6855C24.8644 27.6127 24.8266 27.541 24.7876 27.4692Z" fill="#A437BF"/>
<path d="M26.5942 26.3383C26.5899 26.3306 26.5845 26.324 26.5802 26.3174C25.9826 26.6142 25.3267 26.9419 24.6718 27.2696C24.7118 27.3358 24.7497 27.402 24.7876 27.4704C24.8265 27.5411 24.8644 27.6139 24.9012 27.6867C24.9759 27.8368 25.0452 27.9913 25.1069 28.149C25.148 28.2528 25.1859 28.3587 25.2217 28.4657C25.2595 28.5805 25.2953 28.6963 25.3267 28.8133C25.3321 28.8354 25.3364 28.8574 25.3429 28.8795C25.9545 28.33 26.5672 27.7772 27.1138 27.2818C26.9677 26.9585 26.7945 26.6429 26.5942 26.3383Z" fill="#003199"/>
<path d="M21.7014 31.6689C21.1223 32.0639 20.3397 31.905 19.9521 31.3158C19.5646 30.7266 19.7205 29.9277 20.2985 29.5327C20.6871 29.2679 24.5245 27.349 26.999 26.1198C27.2015 26.0194 27.4623 25.9863 27.4623 25.9863C27.4623 25.9863 27.4591 26.3516 27.4602 26.3758C27.4634 26.4729 27.4429 26.5756 27.3519 26.6583C25.2941 28.5198 22.09 31.4041 21.7014 31.6689Z" fill="#0051FF"/>
<path d="M21.7014 31.2505C21.1223 31.6456 20.3397 31.4867 19.9521 30.8975C19.5646 30.3082 19.7205 29.5094 20.2985 29.1143C20.6871 28.8495 24.5245 26.9307 26.9991 25.7015C27.3346 25.5349 27.6312 25.9873 27.3519 26.24C25.2942 28.1003 22.09 30.9846 21.7014 31.2505Z" fill="#3374FF"/>
<path d="M21 32.2789C21.8274 32.2789 22.4981 31.5951 22.4981 30.7517C22.4981 29.9083 21.8274 29.2246 21 29.2246C20.1726 29.2246 19.5018 29.9083 19.5018 30.7517C19.5018 31.5951 20.1726 32.2789 21 32.2789Z" fill="#A437BF"/>
<path d="M22.497 30.1426H19.5018V30.7506H22.497V30.1426Z" fill="#A437BF"/>
<path d="M21 31.6812C21.8274 31.6812 22.4981 30.9975 22.4981 30.1541C22.4981 29.3107 21.8274 28.627 21 28.627C20.1726 28.627 19.5018 29.3107 19.5018 30.1541C19.5018 30.9975 20.1726 31.6812 21 31.6812Z" fill="#8E1CAA"/>
</svg>
