<svg width="40" height="56" viewBox="0 0 40 56" fill="none" xmlns="http://www.w3.org/2000/svg">
<path d="M38.3638 2.01025H38.3377H23.5035H1.00503C0.450251 2.01025 0 2.46051 0 3.01528V8.32282V9.69266C0 10.2334 0.43819 10.6716 0.978894 10.6716H1.00503H2.83116V12.6947H19.7176H23.5035H1.00503C0.450251 12.6947 0 13.1449 0 13.6997V19.0072V20.3771C0 20.9178 0.43819 21.356 0.978894 21.356H1.00503H18.4834C18.4834 23.5278 20.2502 25.2947 22.4221 25.2947H28.9457C29.6151 25.2947 30.1598 25.8394 30.1598 26.5087C30.1598 27.1781 29.6151 27.7228 28.9457 27.7228H19.7166H19.4884H10.2593C8.48141 27.7228 7.03517 29.169 7.03517 30.9469C7.03517 32.7248 8.48141 34.1711 10.2593 34.1711H16.8221C17.8643 34.1711 18.7116 35.0183 18.7116 36.0605H16.6553H15.7015C14.3136 36.0605 13.1889 37.1851 13.1889 38.5731V45.6736V48.9309C13.1889 52.5108 16.0915 55.4133 19.6714 55.4133C23.2513 55.4133 26.1538 52.5108 26.1538 48.9309V45.6736V38.5731C26.1538 37.1851 25.0291 36.0605 23.6412 36.0605H22.6874H20.7226C20.7226 35.3218 20.5156 34.6293 20.1568 34.0404C20.0593 33.8796 19.9497 33.7268 19.8301 33.5821C19.7508 33.4856 19.6663 33.3932 19.5779 33.3047C19.3568 33.0836 19.1106 32.8897 18.8422 32.7268C18.7347 32.6615 18.6241 32.6012 18.5106 32.5469C17.999 32.2997 17.4261 32.162 16.8211 32.162H10.2583C9.58894 32.162 9.04422 31.6173 9.04422 30.9479C9.04422 30.2786 9.58894 29.7339 10.2583 29.7339H19.4874H19.7156H28.9447C30.7226 29.7339 32.1688 28.2876 32.1688 26.5098C32.1688 24.7319 30.7226 23.2856 28.9447 23.2856H22.4211C21.3578 23.2856 20.4925 22.4203 20.4925 21.357H38.3357H38.3618C38.9025 21.357 39.3407 20.9188 39.3407 20.3781V20.352V19.0082V13.7007V13.6746C39.3407 13.1339 38.9025 12.6957 38.3618 12.6957H36.601V10.6716H38.3357H38.3618C38.9025 10.6716 39.3407 10.2334 39.3407 9.69266V9.66653V8.32282V3.01528V2.98915C39.3427 2.44844 38.9045 2.01025 38.3638 2.01025Z" fill="#99B9FF"/>
<path d="M36.603 8.66113H2.83118V10.6842H36.603V8.66113Z" fill="#8E1CAA"/>
<path d="M36.603 10.6832H19.7175L21.6743 8.66113H36.603V10.6832Z" fill="#A437BF"/>
<path d="M38.3377 8.66131H1.00503C0.450251 8.66131 0 8.21105 0 7.65628V1.00503C0 0.450251 0.450251 0 1.00503 0H38.3377C38.8925 0 39.3427 0.450251 39.3427 1.00503V7.65628C39.3427 8.21105 38.8925 8.66131 38.3377 8.66131Z" fill="#3374FF"/>
<path d="M14.8422 8.66131H38.3638C38.9045 8.66131 39.3427 8.22311 39.3427 7.68241V0.978893C39.3427 0.43819 38.9045 0 38.3638 0H23.5035L14.8422 8.66131Z" fill="#0051FF"/>
<path d="M38.3638 7.29042H0.978894C0.43819 7.29042 0 6.85223 0 6.31152V7.68137C0 8.22208 0.43819 8.66027 0.978894 8.66027H38.3638C38.9045 8.66027 39.3427 8.22208 39.3427 7.68137V6.31152C39.3427 6.85223 38.9045 7.29042 38.3638 7.29042Z" fill="#003199"/>
<path d="M4.44726 5.70748H3.82113C3.62917 5.70748 3.47339 5.5517 3.47339 5.35974V1.79793C3.47339 1.60597 3.62917 1.4502 3.82113 1.4502H4.44726C4.63922 1.4502 4.795 1.60597 4.795 1.79793V5.35974C4.795 5.5517 4.63922 5.70748 4.44726 5.70748Z" fill="#8E1CAA"/>
<path d="M4.13467 4.67935C3.76984 4.67935 3.47437 4.38387 3.47437 4.01904V5.04718C3.47437 5.41201 3.76984 5.70749 4.13467 5.70749C4.49949 5.70749 4.79497 5.41201 4.79497 5.04718V4.01904C4.79497 4.38387 4.49949 4.67935 4.13467 4.67935Z" fill="#A437BF"/>
<path d="M8.46032 5.70748H7.83419C7.64223 5.70748 7.48645 5.5517 7.48645 5.35974V1.79793C7.48645 1.60597 7.64223 1.4502 7.83419 1.4502H8.46032C8.65228 1.4502 8.80806 1.60597 8.80806 1.79793V5.35974C8.80806 5.5517 8.65228 5.70748 8.46032 5.70748Z" fill="#8E1CAA"/>
<path d="M12.4724 5.70748H11.8463C11.6543 5.70748 11.4985 5.5517 11.4985 5.35974V1.79793C11.4985 1.60597 11.6543 1.4502 11.8463 1.4502H12.4724C12.6644 1.4502 12.8201 1.60597 12.8201 1.79793V5.35974C12.8201 5.5517 12.6644 5.70748 12.4724 5.70748Z" fill="#8E1CAA"/>
<path d="M16.4855 5.70748H15.8593C15.6674 5.70748 15.5116 5.5517 15.5116 5.35974V1.79793C15.5116 1.60597 15.6674 1.4502 15.8593 1.4502H16.4855C16.6774 1.4502 16.8332 1.60597 16.8332 1.79793V5.35974C16.8332 5.5517 16.6774 5.70748 16.4855 5.70748Z" fill="#8E1CAA"/>
<path d="M8.14675 4.67935C7.78193 4.67935 7.48645 4.38387 7.48645 4.01904V5.04718C7.48645 5.41201 7.78193 5.70749 8.14675 5.70749C8.51157 5.70749 8.80705 5.41201 8.80705 5.04718V4.01904C8.80806 4.38387 8.51157 4.67935 8.14675 4.67935Z" fill="#A437BF"/>
<path d="M12.1598 4.67935C11.795 4.67935 11.4995 4.38387 11.4995 4.01904V5.04718C11.4995 5.41201 11.795 5.70749 12.1598 5.70749C12.5246 5.70749 12.8201 5.41201 12.8201 5.04718V4.01904C12.8201 4.38387 12.5246 4.67935 12.1598 4.67935Z" fill="#A437BF"/>
<path d="M16.1729 4.67935C15.8081 4.67935 15.5126 4.38387 15.5126 4.01904V5.04718C15.5126 5.41201 15.8081 5.70749 16.1729 5.70749C16.5377 5.70749 16.8332 5.41201 16.8332 5.04718V4.01904C16.8332 4.38387 16.5377 4.67935 16.1729 4.67935Z" fill="#A437BF"/>
<path d="M34.7186 4.92848C35.302 4.92848 35.7749 4.45557 35.7749 3.8722C35.7749 3.28883 35.302 2.81592 34.7186 2.81592C34.1353 2.81592 33.6624 3.28883 33.6624 3.8722C33.6624 4.45557 34.1353 4.92848 34.7186 4.92848Z" fill="white"/>
<path d="M30.4041 4.92848C30.9874 4.92848 31.4603 4.45557 31.4603 3.8722C31.4603 3.28883 30.9874 2.81592 30.4041 2.81592C29.8207 2.81592 29.3478 3.28883 29.3478 3.8722C29.3478 4.45557 29.8207 4.92848 30.4041 4.92848Z" fill="#002066"/>
<path d="M26.0905 4.92848C26.6738 4.92848 27.1467 4.45557 27.1467 3.8722C27.1467 3.28883 26.6738 2.81592 26.0905 2.81592C25.5071 2.81592 25.0342 3.28883 25.0342 3.8722C25.0342 4.45557 25.5071 4.92848 26.0905 4.92848Z" fill="#002066"/>
<path d="M38.3377 19.3449H1.00503C0.450251 19.3449 0 18.8946 0 18.3399V11.6886C0 11.1338 0.450251 10.6836 1.00503 10.6836H38.3377C38.8925 10.6836 39.3427 11.1338 39.3427 11.6886V18.3399C39.3427 18.8946 38.8925 19.3449 38.3377 19.3449Z" fill="#3374FF"/>
<path d="M14.8422 19.3449H38.3638C38.9045 19.3449 39.3427 18.9067 39.3427 18.366V11.6625C39.3427 11.1218 38.9045 10.6836 38.3638 10.6836H23.5035L14.8422 19.3449Z" fill="#0051FF"/>
<path d="M38.3638 17.975H0.978894C0.43819 17.975 0 17.5368 0 16.9961V18.3659C0 18.9066 0.43819 19.3448 0.978894 19.3448H38.3638C38.9045 19.3448 39.3427 18.9066 39.3427 18.3659V16.9961C39.3427 17.5368 38.9045 17.975 38.3638 17.975Z" fill="#003199"/>
<path d="M4.44726 16.3921H3.82113C3.62917 16.3921 3.47339 16.2363 3.47339 16.0443V12.4825C3.47339 12.2905 3.62917 12.1348 3.82113 12.1348H4.44726C4.63922 12.1348 4.795 12.2905 4.795 12.4825V16.0443C4.795 16.2363 4.63922 16.3921 4.44726 16.3921Z" fill="#8E1CAA"/>
<path d="M4.13467 15.3639C3.76984 15.3639 3.47437 15.0684 3.47437 14.7036V15.7318C3.47437 16.0966 3.76984 16.3921 4.13467 16.3921C4.49949 16.3921 4.79497 16.0966 4.79497 15.7318V14.7036C4.79497 15.0684 4.49949 15.3639 4.13467 15.3639Z" fill="#A437BF"/>
<path d="M8.46032 16.3921H7.83419C7.64223 16.3921 7.48645 16.2363 7.48645 16.0443V12.4825C7.48645 12.2905 7.64223 12.1348 7.83419 12.1348H8.46032C8.65228 12.1348 8.80806 12.2905 8.80806 12.4825V16.0443C8.80806 16.2363 8.65228 16.3921 8.46032 16.3921Z" fill="#8E1CAA"/>
<path d="M12.4724 16.3921H11.8463C11.6543 16.3921 11.4985 16.2363 11.4985 16.0443V12.4825C11.4985 12.2905 11.6543 12.1348 11.8463 12.1348H12.4724C12.6644 12.1348 12.8201 12.2905 12.8201 12.4825V16.0443C12.8201 16.2363 12.6644 16.3921 12.4724 16.3921Z" fill="#8E1CAA"/>
<path d="M16.4855 16.3921H15.8593C15.6674 16.3921 15.5116 16.2363 15.5116 16.0443V12.4825C15.5116 12.2905 15.6674 12.1348 15.8593 12.1348H16.4855C16.6774 12.1348 16.8332 12.2905 16.8332 12.4825V16.0443C16.8332 16.2363 16.6774 16.3921 16.4855 16.3921Z" fill="#8E1CAA"/>
<path d="M8.14675 15.3639C7.78193 15.3639 7.48645 15.0684 7.48645 14.7036V15.7318C7.48645 16.0966 7.78193 16.3921 8.14675 16.3921C8.51157 16.3921 8.80705 16.0966 8.80705 15.7318V14.7036C8.80806 15.0684 8.51157 15.3639 8.14675 15.3639Z" fill="#A437BF"/>
<path d="M12.1598 15.3639C11.795 15.3639 11.4995 15.0684 11.4995 14.7036V15.7318C11.4995 16.0966 11.795 16.3921 12.1598 16.3921C12.5246 16.3921 12.8201 16.0966 12.8201 15.7318V14.7036C12.8201 15.0684 12.5246 15.3639 12.1598 15.3639Z" fill="#A437BF"/>
<path d="M16.1729 15.3639C15.8081 15.3639 15.5126 15.0684 15.5126 14.7036V15.7318C15.5126 16.0966 15.8081 16.3921 16.1729 16.3921C16.5377 16.3921 16.8332 16.0966 16.8332 15.7318V14.7036C16.8332 15.0684 16.5377 15.3639 16.1729 15.3639Z" fill="#A437BF"/>
<path d="M34.7186 15.6131C35.302 15.6131 35.7749 15.1401 35.7749 14.5568C35.7749 13.9734 35.302 13.5005 34.7186 13.5005C34.1353 13.5005 33.6624 13.9734 33.6624 14.5568C33.6624 15.1401 34.1353 15.6131 34.7186 15.6131Z" fill="white"/>
<path d="M30.4041 15.6131C30.9874 15.6131 31.4603 15.1401 31.4603 14.5568C31.4603 13.9734 30.9874 13.5005 30.4041 13.5005C29.8207 13.5005 29.3478 13.9734 29.3478 14.5568C29.3478 15.1401 29.8207 15.6131 30.4041 15.6131Z" fill="#002066"/>
<path d="M26.0905 15.6131C26.6738 15.6131 27.1467 15.1401 27.1467 14.5568C27.1467 13.9734 26.6738 13.5005 26.0905 13.5005C25.5071 13.5005 25.0342 13.9734 25.0342 14.5568C25.0342 15.1401 25.5071 15.6131 26.0905 15.6131Z" fill="#002066"/>
<path d="M13.189 46.9211V36.5633C13.189 35.1754 14.3136 34.0508 15.7015 34.0508H23.6402C25.0282 34.0508 26.1528 35.1754 26.1528 36.5633V46.9211C26.1528 50.501 23.2503 53.4035 19.6704 53.4035C16.0915 53.4025 13.189 50.501 13.189 46.9211Z" fill="#D1D3D4"/>
<path d="M13.189 43.6638V36.5633C13.189 35.1754 14.3136 34.0508 15.7015 34.0508H23.6402C25.0282 34.0508 26.1528 35.1754 26.1528 36.5633V43.6638C26.1528 47.2437 23.2503 50.1463 19.6704 50.1463C16.0915 50.1453 13.189 47.2437 13.189 43.6638Z" fill="#D1D3D4"/>
<path d="M14.7467 45.2211V35.9598C14.7467 34.9055 15.601 34.0513 16.6552 34.0513H22.6864C23.7407 34.0513 24.5949 34.9055 24.5949 35.9598V45.2211C24.5949 47.9407 22.3899 50.1457 19.6703 50.1457C16.9517 50.1457 14.7467 47.9407 14.7467 45.2211Z" fill="white"/>
<path d="M20.3746 36.893L20.3746 34.0508L18.9686 34.0508L18.9686 36.893L20.3746 36.893Z" fill="#D1D3D4"/>
<path d="M18.4653 41.2485V37.6635C18.4653 36.9972 19.005 36.4575 19.6714 36.4575C20.3377 36.4575 20.8774 36.9972 20.8774 37.6635V41.2485C20.8774 41.9148 20.3377 42.4545 19.6714 42.4545C19.005 42.4545 18.4653 41.9138 18.4653 41.2485Z" fill="#3374FF"/>
<path d="M20.7226 34.0511H18.7125C18.7125 33.0089 17.8653 32.1616 16.8231 32.1616H10.2603C8.48236 32.1616 7.03613 30.7154 7.03613 28.9375C7.03613 27.1596 8.48236 25.7134 10.2603 25.7134H19.7175V27.7234H10.2603C9.59091 27.7234 9.04618 28.2682 9.04618 28.9375C9.04618 29.6068 9.59091 30.1516 10.2603 30.1516H16.8231C18.9728 30.1516 20.7226 31.9003 20.7226 34.0511Z" fill="white"/>
<path d="M16.8221 30.1519H10.2593C9.58991 30.1519 9.04519 29.6072 9.04519 28.9378C9.04519 28.2685 9.58991 27.7238 10.2593 27.7238H19.7165V26.7188H10.2593C9.03313 26.7188 8.04016 27.7127 8.04016 28.9378C8.04016 30.164 9.03413 31.1569 10.2593 31.1569H16.8221C18.4211 31.1569 19.7165 32.4534 19.7165 34.0514H20.7216C20.7226 31.9007 18.9728 30.1519 16.8221 30.1519Z" fill="#D1D3D4"/>
<path d="M28.9467 27.7226H19.4894V25.7125H28.9467C29.616 25.7125 30.1608 25.1678 30.1608 24.4985C30.1608 23.8291 29.616 23.2844 28.9467 23.2844H22.4231C20.2512 23.2844 18.4844 21.5176 18.4844 19.3457H20.4944C20.4944 20.409 21.3598 21.2743 22.4231 21.2743H28.9467C30.7246 21.2743 32.1708 22.7206 32.1708 24.4985C32.1708 26.2764 30.7246 27.7226 28.9467 27.7226Z" fill="white"/>
<path d="M32.1709 24.4985C32.1709 22.7206 30.7247 21.2743 28.9468 21.2743H22.4232C21.3599 21.2743 20.4945 20.409 20.4945 19.3457H19.4895C19.4895 20.9658 20.8031 22.2794 22.4232 22.2794H28.9468C30.1729 22.2794 31.1659 23.2733 31.1659 24.4985C31.1659 25.7236 30.1719 26.7176 28.9468 26.7176H19.4895V27.7226H28.9468C30.7247 27.7226 32.1709 26.2764 32.1709 24.4985Z" fill="#D1D3D4"/>
</svg>
