<svg width="56" height="49" viewBox="0 0 56 49" fill="none" xmlns="http://www.w3.org/2000/svg">
<path d="M45.6278 14.8738C45.3079 7.79659 39.4503 2.13721 32.2954 2.13721C29.5623 2.13721 26.9349 2.95822 24.696 4.51156C23.2114 5.5418 21.965 6.84406 21.0145 8.34659C20.7564 8.32765 20.4973 8.31869 20.2373 8.31869C15.7586 8.31869 11.817 11.0806 10.2118 15.1179C7.83348 15.8433 5.6873 17.2272 4.03333 19.1273C1.92102 21.5545 0.757263 24.6651 0.757263 27.8864C0.757263 35.2456 6.74445 41.2328 14.1036 41.2328H15.1159C17.8002 45.7593 22.7352 48.7942 28.3786 48.7942C34.0221 48.7942 38.9561 45.7593 41.6403 41.2328H42.6526C50.0118 41.2328 55.999 35.2456 55.999 27.8864C55.999 21.5495 51.5602 16.2299 45.6278 14.8738Z" fill="#99B9FF"/>
<path d="M45.6278 12.8811C45.3079 5.80391 39.4503 0.144531 32.2954 0.144531C29.5623 0.144531 26.9349 0.96554 24.696 2.51888C23.2114 3.54913 21.965 4.85138 21.0145 6.35391C20.7564 6.33498 20.4973 6.32601 20.2373 6.32601C15.7586 6.32601 11.817 9.08795 10.2118 13.1252C7.83348 13.8506 5.6873 15.2346 4.03333 17.1346C1.92102 19.5618 0.757263 22.6725 0.757263 25.8937C0.757263 33.2529 6.74445 39.2401 14.1036 39.2401H42.6536C50.0128 39.2401 56 33.2529 56 25.8937C55.999 19.5568 51.5602 14.2372 45.6278 12.8811Z" fill="#D1D3D4"/>
<path d="M42.6526 36.2511C48.3728 36.2511 53.0099 31.614 53.0099 25.8939C53.0099 20.1737 48.3728 15.5366 42.6526 15.5366C36.9325 15.5366 32.2953 20.1737 32.2953 25.8939C32.2953 31.614 36.9325 36.2511 42.6526 36.2511Z" fill="white"/>
<path d="M14.1026 36.2511C19.8228 36.2511 24.4599 31.614 24.4599 25.8939C24.4599 20.1737 19.8228 15.5366 14.1026 15.5366C8.38247 15.5366 3.74536 20.1737 3.74536 25.8939C3.74536 31.614 8.38247 36.2511 14.1026 36.2511Z" fill="white"/>
<path d="M20.2362 24.9166C24.5444 24.9166 28.0368 21.4242 28.0368 17.116C28.0368 12.8079 24.5444 9.31543 20.2362 9.31543C15.9281 9.31543 12.4357 12.8079 12.4357 17.116C12.4357 21.4242 15.9281 24.9166 20.2362 24.9166Z" fill="white"/>
<path d="M32.2953 23.8493C38.0155 23.8493 42.6526 19.2122 42.6526 13.492C42.6526 7.77187 38.0155 3.13477 32.2953 3.13477C26.5752 3.13477 21.938 7.77187 21.938 13.492C21.938 19.2122 26.5752 23.8493 32.2953 23.8493Z" fill="white"/>
<path d="M14.1026 36.2515L42.6526 36.2515L42.6526 20.6055L14.1026 20.6055L14.1026 36.2515Z" fill="white"/>
<path d="M42.5012 38.3832C41.9512 38.3832 41.5048 37.9368 41.5048 37.3868C41.5048 36.8368 41.9512 36.3904 42.5012 36.3904C48.2343 36.3904 52.8983 31.7264 52.8983 25.9933C52.8983 20.2602 48.2343 15.5962 42.5012 15.5962C40.8741 15.5962 39.3168 15.9609 37.872 16.6813C37.3798 16.9264 36.781 16.7261 36.5359 16.2339C36.2908 15.7417 36.4911 15.1429 36.9833 14.8978C38.707 14.0389 40.5632 13.6045 42.5012 13.6045C49.3323 13.6045 54.891 19.1622 54.891 25.9943C54.891 32.8264 49.3323 38.3832 42.5012 38.3832Z" fill="#D1D3D4"/>
<path d="M13.5855 38.3832C6.75443 38.3832 1.19568 32.8255 1.19568 25.9934C1.19568 19.1613 6.75343 13.6035 13.5855 13.6035C15.5235 13.6035 17.3797 14.0389 19.1034 14.8968C19.5956 15.1419 19.7959 15.7407 19.5508 16.2329C19.3057 16.7251 18.7079 16.9254 18.2147 16.6803C16.7699 15.9609 15.2126 15.5953 13.5855 15.5953C7.85242 15.5953 3.18842 20.2593 3.18842 25.9924C3.18842 31.7255 7.85342 36.3905 13.5855 36.3905C14.1355 36.3905 14.5819 36.8369 14.5819 37.3869C14.5819 37.9369 14.1365 38.3832 13.5855 38.3832Z" fill="#D1D3D4"/>
<path d="M42.1824 39.2399C43.2086 37.1754 43.7875 34.8499 43.7875 32.3879C43.7875 23.8769 36.8887 16.978 28.3777 16.978C19.8667 16.978 12.9678 23.8769 12.9678 32.3879C12.9678 34.8499 13.5457 37.1754 14.573 39.2399H42.1824Z" fill="#D1D3D4"/>
<path d="M28.3777 46.8016C36.8883 46.8016 43.7875 39.9024 43.7875 31.3918C43.7875 22.8812 36.8883 15.9819 28.3777 15.9819C19.8671 15.9819 12.9678 22.8812 12.9678 31.3918C12.9678 39.9024 19.8671 46.8016 28.3777 46.8016Z" fill="#3374FF"/>
<path d="M28.3777 44.5058C35.6204 44.5058 41.4919 38.6343 41.4919 31.3916C41.4919 24.1488 35.6204 18.2773 28.3777 18.2773C21.1349 18.2773 15.2634 24.1488 15.2634 31.3916C15.2634 38.6343 21.1349 44.5058 28.3777 44.5058Z" fill="#0051FF"/>
<path d="M28.3777 43.3769C34.997 43.3769 40.363 38.0109 40.363 31.3916C40.363 24.7723 34.997 19.4062 28.3777 19.4062C21.7583 19.4062 16.3923 24.7723 16.3923 31.3916C16.3923 38.0109 21.7583 43.3769 28.3777 43.3769Z" fill="#8E1CAA"/>
<path d="M28.3777 20.7588C34.7704 20.7588 39.9933 25.7635 40.344 32.0686C40.356 31.8444 40.363 31.6192 40.363 31.393C40.363 24.7742 34.9965 19.4077 28.3777 19.4077C21.7588 19.4077 16.3923 24.7732 16.3923 31.392C16.3923 31.6192 16.3993 31.8444 16.4113 32.0676C16.762 25.7635 21.985 20.7588 28.3777 20.7588Z" fill="#A437BF"/>
<path d="M24.8475 27.7722C24.8466 27.7952 24.8466 27.8181 24.8475 27.842C24.8475 27.8529 24.8485 27.8639 24.8485 27.8749C24.8495 27.8978 24.8515 27.9217 24.8545 27.9456C24.8555 27.9556 24.8565 27.9655 24.8575 27.9765C24.8615 28.0104 24.8675 28.0442 24.8744 28.0781C24.9731 28.5564 25.3059 28.8682 25.6187 28.7736C25.6377 28.7676 25.6556 28.7606 25.6735 28.7527C25.6795 28.7497 25.6855 28.7467 25.6915 28.7427C25.7034 28.7367 25.7144 28.7307 25.7253 28.7238C25.7323 28.7198 25.7383 28.7148 25.7453 28.7098C25.7483 28.7078 25.7523 28.7048 25.7552 28.7028C25.8758 29.0207 26.0272 29.3276 26.2046 29.6095C26.2674 29.7092 26.3341 29.8058 26.4039 29.8995C26.4736 29.9931 26.5464 30.0818 26.6211 30.1665C26.6589 30.2084 26.6968 30.2502 26.7367 30.2901C26.8542 30.4096 26.9768 30.5192 27.1053 30.6159C27.2339 30.7125 27.3674 30.7962 27.5049 30.865C27.5965 30.9108 27.6912 30.9497 27.7858 30.9815C27.8337 30.9975 27.8815 31.0114 27.9303 31.0234C28.028 31.0473 28.1266 31.0642 28.2262 31.0732C28.2761 31.0772 28.3269 31.0792 28.3777 31.0792C28.4285 31.0792 28.4783 31.0772 28.5291 31.0732C28.6288 31.0652 28.7284 31.0483 28.825 31.0234C28.8739 31.0114 28.9217 30.9975 28.9695 30.9815C29.0652 30.9497 29.1588 30.9108 29.2505 30.865C29.2963 30.8421 29.3422 30.8171 29.387 30.7912C29.6122 30.6607 29.8234 30.4903 30.0187 30.2901C30.0576 30.2502 30.0964 30.2084 30.1343 30.1665C30.497 29.759 30.7949 29.2469 31.0001 28.7038C31.0031 28.7068 31.0071 28.7088 31.0101 28.7108C31.0171 28.7158 31.023 28.7208 31.03 28.7248C31.041 28.7317 31.0519 28.7377 31.0639 28.7437C31.0699 28.7467 31.0758 28.7507 31.0818 28.7537C31.0998 28.7616 31.1177 28.7686 31.1366 28.7746C31.1755 28.7865 31.2153 28.7915 31.2542 28.7915C31.3329 28.7905 31.4096 28.7666 31.4834 28.7228C31.5202 28.7009 31.5551 28.674 31.589 28.6421C31.7235 28.5165 31.8321 28.3183 31.8809 28.0791C31.8879 28.0452 31.8929 28.0114 31.8978 27.9775C31.8988 27.9675 31.8998 27.9576 31.9008 27.9466C31.9028 27.9227 31.9058 27.8988 31.9068 27.8759C31.9078 27.8649 31.9078 27.8539 31.9078 27.843C31.9088 27.8201 31.9088 27.7962 31.9078 27.7732C31.9078 27.7633 31.9078 27.7543 31.9068 27.7443C31.9058 27.7164 31.9028 27.6885 31.8998 27.6616C31.8998 27.6587 31.8998 27.6557 31.8988 27.6517C31.8988 27.6517 31.8988 27.6517 31.8988 27.6527C31.861 27.3498 31.7115 27.1057 31.4953 27.0409C31.4345 27.023 31.3738 27.02 31.313 27.0299H31.314C31.3309 25.2205 30.0107 23.7798 28.3787 23.7798C26.7576 23.7798 25.4424 25.2335 25.4424 27.027H25.4434C25.4434 27.028 25.4434 27.0299 25.4434 27.0309C25.3826 27.02 25.3218 27.023 25.261 27.0419C25.0448 27.1077 24.8954 27.3508 24.8575 27.6537C24.8575 27.6567 24.8575 27.6596 24.8565 27.6626C24.8535 27.6895 24.8505 27.7174 24.8495 27.7463C24.8485 27.7523 24.8485 27.7623 24.8475 27.7722Z" fill="#A437BF"/>
<path d="M34.9428 37.7601L34.9069 37.4213L34.5114 33.7387C34.4675 33.3272 34.2344 32.9924 33.9225 32.8918L31.4615 32.0987C31.2971 32.0459 31.1307 32.1704 31.0839 32.3807C30.766 33.7905 30.1841 35.0868 29.3821 36.1469L28.8988 33.7367L29.3571 33.112C29.3741 33.0921 29.388 33.0701 29.402 33.0482C29.406 33.0403 29.41 33.0323 29.4139 33.0253C29.4219 33.0094 29.4299 32.9944 29.4359 32.9775C29.4398 32.9675 29.4428 32.9576 29.4468 32.9476C29.4518 32.9326 29.4568 32.9177 29.4598 32.9018C29.4628 32.8908 29.4648 32.8788 29.4667 32.8679C29.4697 32.8529 29.4717 32.838 29.4727 32.823C29.4737 32.8111 29.4757 32.7991 29.4757 32.7862C29.4767 32.7712 29.4757 32.7563 29.4757 32.7413C29.4757 32.7294 29.4757 32.7164 29.4747 32.7045C29.4737 32.6885 29.4707 32.6716 29.4677 32.6557C29.4648 32.6357 29.4598 32.6168 29.4548 32.5969C29.4508 32.5829 29.4478 32.568 29.4428 32.554V32.555C29.4319 32.5241 29.4189 32.4932 29.402 32.4644L28.9965 31.8954C28.9257 31.7749 28.8151 31.7031 28.6976 31.7031H28.0579C27.9403 31.7031 27.8297 31.7739 27.759 31.8954L27.3534 32.4644C27.3365 32.4932 27.3236 32.5231 27.3126 32.555V32.554C27.3076 32.568 27.3046 32.5829 27.3006 32.5969C27.2957 32.6158 27.2907 32.6357 27.2877 32.6557C27.2847 32.6716 27.2817 32.6875 27.2807 32.7045C27.2797 32.7164 27.2797 32.7294 27.2797 32.7413C27.2797 32.7563 27.2787 32.7712 27.2797 32.7862C27.2807 32.7981 27.2817 32.8101 27.2827 32.823C27.2847 32.838 27.2867 32.8529 27.2887 32.8689C27.2907 32.8808 27.2927 32.8918 27.2957 32.9028C27.2996 32.9187 27.3036 32.9336 27.3086 32.9486C27.3116 32.9586 27.3156 32.9685 27.3196 32.9785C27.3255 32.9944 27.3335 33.0104 27.3415 33.0263C27.3455 33.0343 27.3495 33.0422 27.3534 33.0492C27.3664 33.0721 27.3813 33.0931 27.3983 33.113L27.8566 33.7377L27.4003 36.0134L27.3734 36.1479C26.5713 35.0878 25.9894 33.7915 25.6716 32.3817C25.6247 32.1714 25.4574 32.0469 25.2939 32.0997L22.8329 32.8928C22.5211 32.9934 22.2879 33.3282 22.2441 33.7397L21.8166 37.7202L21.8126 37.7611C21.8086 37.7989 21.8057 37.8378 21.8057 37.8747C21.8017 38.063 21.8375 38.2413 21.9043 38.3958C21.998 38.612 22.1514 38.7814 22.3367 38.8641C22.3895 38.888 22.4453 38.9039 22.5031 38.9119C22.532 38.9159 22.5619 38.9179 22.5908 38.9179H34.1626C34.1925 38.9179 34.2214 38.9159 34.2503 38.9119C34.6548 38.8541 34.9597 38.4007 34.9488 37.8747C34.9488 37.8368 34.9468 37.7979 34.9428 37.7601Z" fill="#A437BF"/>
<path d="M29.3571 32.6125L28.6317 33.6009C28.4883 33.7723 28.2671 33.7723 28.1236 33.6009L27.3982 32.6125C27.2568 32.4431 27.2368 32.1622 27.3534 31.9629L27.7589 31.394C27.8297 31.2734 27.9403 31.2017 28.0578 31.2017H28.6975C28.8151 31.2017 28.9257 31.2724 28.9964 31.394L29.4019 31.9629C29.5185 32.1622 29.4986 32.4431 29.3571 32.6125Z" fill="white"/>
<path d="M29.3571 32.2066L28.6317 33.1951C28.4882 33.3664 28.2671 33.3664 28.1236 33.1951L27.3982 32.2066C27.3614 32.1618 27.3325 32.11 27.3125 32.0542C27.2458 32.2415 27.2767 32.4687 27.3982 32.6142L28.1236 33.6026C28.2671 33.774 28.4882 33.774 28.6317 33.6026L29.3571 32.6142C29.4786 32.4687 29.5095 32.2415 29.4428 32.0542C29.4228 32.11 29.3939 32.1618 29.3571 32.2066Z" fill="#D1D3D4"/>
<path d="M25.5565 28.2901C25.8772 28.2472 26.0845 27.8185 26.0195 27.3325C25.9545 26.8465 25.6418 26.4873 25.3211 26.5302C25.0003 26.5731 24.7931 27.0019 24.8581 27.4879C24.9231 27.9739 25.2357 28.333 25.5565 28.2901Z" fill="white"/>
<path d="M25.6187 27.9589C25.3068 28.0535 24.974 27.7417 24.8744 27.2634C24.8664 27.2266 24.8604 27.1887 24.8565 27.1519C24.8395 27.2854 24.8445 27.4308 24.8744 27.5783C24.973 28.0565 25.3068 28.3684 25.6187 28.2737C25.9066 28.1871 26.075 27.7845 26.0222 27.3471C25.9843 27.65 25.8349 27.8931 25.6187 27.9589Z" fill="#D1D3D4"/>
<path d="M31.8962 27.481C31.9612 26.995 31.754 26.5663 31.4332 26.5234C31.1125 26.4805 30.7998 26.8396 30.7348 27.3256C30.6698 27.8116 30.8771 28.2403 31.1978 28.2832C31.5185 28.3261 31.8312 27.967 31.8962 27.481Z" fill="white"/>
<path d="M31.8808 27.2634C31.7822 27.7417 31.4484 28.0535 31.1366 27.9589C30.9204 27.8931 30.7709 27.65 30.733 27.3471C30.6802 27.7845 30.8496 28.1861 31.1366 28.2737C31.4484 28.3684 31.7812 28.0565 31.8808 27.5783C31.9107 27.4318 31.9157 27.2864 31.8988 27.1519C31.8938 27.1887 31.8888 27.2266 31.8808 27.2634Z" fill="#D1D3D4"/>
<path d="M31.314 26.5899C31.314 28.3834 29.9998 30.5774 28.3777 30.5774C26.7556 30.5774 25.4414 28.3834 25.4414 26.5899C25.4414 24.7965 26.7556 23.3428 28.3777 23.3428C29.9998 23.3418 31.314 24.7965 31.314 26.5899Z" fill="white"/>
<path d="M28.3777 29.9475C26.8513 29.9475 25.5968 28.0026 25.4554 26.2778C25.4464 26.3805 25.4414 26.4841 25.4414 26.5887C25.4414 28.3822 26.7556 30.5762 28.3777 30.5762C29.9998 30.5762 31.314 28.3822 31.314 26.5887C31.314 26.4841 31.309 26.3805 31.3001 26.2778C31.1586 28.0026 29.9042 29.9475 28.3777 29.9475Z" fill="#D1D3D4"/>
<path d="M29.7616 37.5457H26.9937L28.006 32.4951H28.7493L29.7616 37.5457Z" fill="white"/>
<path d="M29.7616 37.5461L29.2514 35.0015C29.1797 35.0911 29.106 35.1798 29.0312 35.2665L28.5859 35.7776C28.4663 35.9151 28.2869 35.9151 28.1674 35.7776L27.722 35.2665C27.6473 35.1798 27.5735 35.0921 27.5018 35.0015L26.9937 37.5461H29.7616Z" fill="#D1D3D4"/>
<path d="M27.5666 25.0404C27.5666 25.0404 27.9771 25.8046 29.1519 26.1962C29.7876 26.4084 30.6534 26.4792 31.314 26.529C31.3309 24.7196 30.0107 23.2788 28.3787 23.2788C26.7576 23.2788 25.4424 24.7325 25.4424 26.526C25.4424 26.526 26.094 26.4204 26.6719 26.0447C27.2498 25.6691 27.5666 25.0404 27.5666 25.0404Z" fill="#002066"/>
<path d="M28.8978 32.873H27.8566V33.2377H28.8978V32.873Z" fill="#D1D3D4"/>
<path d="M34.5103 33.2395C34.4665 32.828 34.2333 32.4933 33.9215 32.3926L31.4604 31.5995C31.296 31.5467 31.1296 31.6713 31.0828 31.8815C30.7211 33.4896 30.0147 34.9483 29.0313 36.0792L28.5859 36.5903C28.4663 36.7278 28.287 36.7278 28.1674 36.5903L27.7221 36.0792C26.7386 34.9483 26.0332 33.4886 25.6705 31.8815C25.6237 31.6713 25.4563 31.5467 25.2929 31.5995L22.8319 32.3926C22.52 32.4933 22.2869 32.828 22.243 33.2395L21.8116 37.2609C21.7458 37.8727 22.1135 38.4177 22.5907 38.4177H34.1626C34.6399 38.4177 35.0075 37.8717 34.9418 37.2609L34.5103 33.2395Z" fill="#003199"/>
<path d="M34.9058 36.9224C34.7992 37.3149 34.5103 37.6039 34.1635 37.6039H22.5917C22.244 37.6039 21.955 37.3149 21.8494 36.9224L21.8135 37.2611C21.7478 37.8729 22.1154 38.4179 22.5927 38.4179H34.1645C34.6418 38.4179 35.0095 37.8719 34.9437 37.2611L34.9058 36.9224Z" fill="#002066"/>
</svg>
