<svg width="47" height="44" viewBox="0 0 47 44" fill="none" xmlns="http://www.w3.org/2000/svg">
<path d="M19.1785 33.9458H11.7494H0.954773C0.427738 33.9458 0 34.3735 0 34.9006V37.1013V37.3209V37.7869C0 38.0571 0.218643 38.2757 0.488843 38.2757H0.954773H1.41497V39.2868H0.954773C0.427738 39.2868 0 39.7145 0 40.2416V42.4423V42.6619V43.1279C0 43.3981 0.218643 43.6167 0.488843 43.6167H0.954773H7.41954H18.7126H19.1785C19.4487 43.6167 19.6674 43.3981 19.6674 43.1279V42.6619V42.4423V40.2416V39.7756C19.6674 39.5054 19.4487 39.2868 19.1785 39.2868H18.7126H18.2982V38.2757H18.7126H19.1785C19.4487 38.2757 19.6674 38.0571 19.6674 37.7869V37.3209V37.1013V34.9006V34.4346C19.6674 34.1654 19.4487 33.9458 19.1785 33.9458Z" fill="#99B9FF"/>
<path d="M46.0344 33.9458H38.6053H27.8116C27.2845 33.9458 26.8568 34.3735 26.8568 34.9006V37.1013V37.3209V37.7869C26.8568 38.0571 27.0755 38.2757 27.3457 38.2757H27.8116H28.2718V39.2868H27.8116C27.2845 39.2868 26.8568 39.7145 26.8568 40.2416V42.4423V42.6619V43.1279C26.8568 43.3981 27.0755 43.6167 27.3457 43.6167H27.8116H34.2763H45.5694H46.0353C46.3055 43.6167 46.5242 43.3981 46.5242 43.1279V42.4433V39.7766C46.5242 39.5064 46.3055 39.2878 46.0353 39.2878H45.5694H45.155V38.2767H45.5694H46.0353C46.3055 38.2767 46.5242 38.058 46.5242 37.7878V37.1032V34.4366C46.5242 34.1654 46.3046 33.9458 46.0344 33.9458Z" fill="#99B9FF"/>
<path d="M34.1341 30.5128C34.6611 30.5128 35.0889 30.9405 35.0889 31.4676V33.9471H35.0927H36.3339H37.5751V30.4173C37.5751 29.0988 36.5067 28.0304 35.1882 28.0304H27.0459C26.979 27.5683 26.5828 27.2131 26.1016 27.2131H25.2977V26.4092C25.2977 25.9366 24.953 25.5451 24.5023 25.4687V20.7817H41.4964C41.9251 20.7817 42.2869 20.4991 42.4082 20.1105C42.4359 20.0208 42.4512 19.9253 42.4512 19.827V18.4903V13.2868C42.4512 13.1875 42.4359 13.0929 42.4082 13.0032C42.2869 12.6146 41.9251 12.332 41.4964 12.332H39.7797V10.3594H41.4973C41.9919 10.3594 42.3986 9.98323 42.4473 9.50203C42.4502 9.46957 42.4521 9.4371 42.4521 9.40464V8.06796V2.86444C42.4521 2.75369 42.4321 2.64771 42.3977 2.54841C42.3862 2.51499 42.3719 2.48158 42.3566 2.44911C42.3423 2.41856 42.3261 2.38992 42.3079 2.36128C42.2841 2.32213 42.2573 2.28585 42.2287 2.25052C42.054 2.04238 41.7914 1.90967 41.4973 1.90967H27H5.02686C4.49982 1.90967 4.07208 2.33741 4.07208 2.86444V8.06796V9.40464C4.07208 9.66816 4.17902 9.90685 4.35183 10.0797C4.35374 10.0816 4.35565 10.0835 4.35756 10.0854C4.41198 10.1389 4.47404 10.1856 4.54088 10.2257C4.56475 10.2401 4.58957 10.2534 4.61535 10.2658C4.74042 10.326 4.87982 10.3604 5.02686 10.3604H6.83425V12.3339H5.02686C4.49982 12.3339 4.07208 12.7616 4.07208 13.2887V18.4922V19.8289C4.07208 20.3559 4.49982 20.7836 5.02686 20.7836H18.5512H22.0209V25.4706C21.5693 25.547 21.2256 25.9385 21.2256 26.4111V27.215H20.4216C19.9414 27.215 19.5442 27.5702 19.4783 28.0323H11.336C10.0175 28.0323 8.94907 29.1007 8.94907 30.4192V33.949H10.1903H11.4315H11.4353V31.4695C11.4353 30.9424 11.863 30.5147 12.3901 30.5147H19.4841C19.569 30.9558 19.9557 31.2881 20.4216 31.2881H26.1026C26.5675 31.2881 26.9552 30.9548 27.0401 30.5147H34.1341V30.5128Z" fill="#99B9FF"/>
<path d="M39.7797 8.44971H6.83423V10.4232H39.7797V8.44971Z" fill="#734ECC"/>
<path d="M39.7797 10.4232H23.3069L25.2165 8.44971H39.7797V10.4232Z" fill="#A437BF"/>
<path d="M41.4973 8.44976H5.02686C4.49982 8.44976 4.07208 8.02202 4.07208 7.49499V0.954776C4.07208 0.427739 4.49982 0 5.02686 0H41.4973C42.0244 0 42.4521 0.427739 42.4521 0.954776V7.49499C42.4521 8.02202 42.0244 8.44976 41.4973 8.44976Z" fill="#6697FF"/>
<path d="M18.5513 8.44976H41.4974C42.0244 8.44976 42.4522 8.02202 42.4522 7.49499V0.954776C42.4522 0.427739 42.0244 0 41.4974 0H27.0001L18.5513 8.44976Z" fill="#3374FF"/>
<path d="M41.4973 7.11298H5.02686C4.49982 7.11298 4.07208 6.68524 4.07208 6.1582V7.49489C4.07208 8.02193 4.49982 8.44967 5.02686 8.44967H41.4973C42.0244 8.44967 42.4521 8.02193 42.4521 7.49489V6.1582C42.4521 6.68524 42.0244 7.11298 41.4973 7.11298Z" fill="#3E499F"/>
<path d="M8.10505 5.56832C7.74892 5.56832 7.46057 5.27998 7.46057 4.92385V2.05951C7.46057 1.70338 7.74892 1.41504 8.10505 1.41504C8.46118 1.41504 8.74953 1.70338 8.74953 2.05951V4.92385C8.74953 5.27998 8.46118 5.56832 8.10505 5.56832Z" fill="#734ECC"/>
<path d="M8.10505 4.56587C7.74892 4.56587 7.46057 4.27752 7.46057 3.92139V4.92391C7.46057 5.28004 7.74892 5.56839 8.10505 5.56839C8.46118 5.56839 8.74953 5.28004 8.74953 4.92391V3.92139C8.74953 4.27752 8.46118 4.56587 8.10505 4.56587Z" fill="#A437BF"/>
<path d="M12.0197 5.56832C11.6635 5.56832 11.3752 5.27998 11.3752 4.92385V2.05951C11.3752 1.70338 11.6635 1.41504 12.0197 1.41504C12.3758 1.41504 12.6641 1.70338 12.6641 2.05951V4.92385C12.6641 5.27998 12.3758 5.56832 12.0197 5.56832Z" fill="#734ECC"/>
<path d="M15.9342 5.56832C15.5781 5.56832 15.2897 5.27998 15.2897 4.92385V2.05951C15.2897 1.70338 15.5781 1.41504 15.9342 1.41504C16.2903 1.41504 16.5787 1.70338 16.5787 2.05951V4.92385C16.5787 5.27998 16.2903 5.56832 15.9342 5.56832Z" fill="#734ECC"/>
<path d="M19.8488 5.56832C19.4926 5.56832 19.2043 5.27998 19.2043 4.92385V2.05951C19.2043 1.70338 19.4926 1.41504 19.8488 1.41504C20.2049 1.41504 20.4932 1.70338 20.4932 2.05951V4.92385C20.4932 5.27998 20.2049 5.56832 19.8488 5.56832Z" fill="#734ECC"/>
<path d="M38.5624 5.37731C39.6038 5.37731 40.4481 4.53307 40.4481 3.49164C40.4481 2.4502 39.6038 1.60596 38.5624 1.60596C37.5209 1.60596 36.6767 2.4502 36.6767 3.49164C36.6767 4.53307 37.5209 5.37731 38.5624 5.37731Z" fill="#734ECC"/>
<path d="M38.5624 2.29124C39.3281 2.29124 39.9602 2.81446 40.0595 3.49139C40.0681 3.43029 40.0748 3.36727 40.0748 3.30426C40.0748 2.53757 39.3978 1.91602 38.5624 1.91602C37.7269 1.91602 37.05 2.53757 37.05 3.30426C37.05 3.36823 37.0567 3.43029 37.0653 3.49139C37.1646 2.81446 37.7966 2.29124 38.5624 2.29124Z" fill="#6697FF"/>
<path d="M38.5624 4.83666C37.6133 4.83666 36.8295 4.13395 36.6987 3.22119C36.6862 3.30998 36.6767 3.39973 36.6767 3.49139C36.6767 4.53304 37.5207 5.37706 38.5624 5.37706C39.604 5.37706 40.4481 4.53304 40.4481 3.49139C40.4481 3.39973 40.4395 3.30903 40.4261 3.22119C40.2953 4.13395 39.5114 4.83666 38.5624 4.83666Z" fill="#A437BF"/>
<path d="M12.0197 4.56587C11.6635 4.56587 11.3752 4.27752 11.3752 3.92139V4.92391C11.3752 5.28004 11.6635 5.56839 12.0197 5.56839C12.3758 5.56839 12.6641 5.28004 12.6641 4.92391V3.92139C12.6641 4.27752 12.3758 4.56587 12.0197 4.56587Z" fill="#A437BF"/>
<path d="M15.9342 4.56587C15.5781 4.56587 15.2897 4.27752 15.2897 3.92139V4.92391C15.2897 5.28004 15.5781 5.56839 15.9342 5.56839C16.2903 5.56839 16.5787 5.28004 16.5787 4.92391V3.92139C16.5787 4.27752 16.2903 4.56587 15.9342 4.56587Z" fill="#A437BF"/>
<path d="M19.8488 4.56587C19.4926 4.56587 19.2043 4.27752 19.2043 3.92139V4.92391C19.2043 5.28004 19.4926 5.56839 19.8488 5.56839C20.2049 5.56839 20.4932 5.28004 20.4932 4.92391V3.92139C20.4932 4.27752 20.2049 4.56587 19.8488 4.56587Z" fill="#A437BF"/>
<path d="M31.2077 4.37462C31.5373 4.37462 31.8044 4.10745 31.8044 3.77789C31.8044 3.44832 31.5373 3.18115 31.2077 3.18115C30.8782 3.18115 30.611 3.44832 30.611 3.77789C30.611 4.10745 30.8782 4.37462 31.2077 4.37462Z" fill="white"/>
<path d="M28.7712 4.37462C29.1007 4.37462 29.3679 4.10745 29.3679 3.77789C29.3679 3.44832 29.1007 3.18115 28.7712 3.18115C28.4416 3.18115 28.1744 3.44832 28.1744 3.77789C28.1744 4.10745 28.4416 4.37462 28.7712 4.37462Z" fill="#0051FF"/>
<path d="M26.3355 4.37462C26.6651 4.37462 26.9322 4.10745 26.9322 3.77789C26.9322 3.44832 26.6651 3.18115 26.3355 3.18115C26.0059 3.18115 25.7388 3.44832 25.7388 3.77789C25.7388 4.10745 26.0059 4.37462 26.3355 4.37462Z" fill="#0051FF"/>
<path d="M41.4973 18.8721H5.02686C4.49982 18.8721 4.07208 18.4444 4.07208 17.9173V11.3771C4.07208 10.8501 4.49982 10.4224 5.02686 10.4224H41.4973C42.0244 10.4224 42.4521 10.8501 42.4521 11.3771V17.9173C42.4521 18.4444 42.0244 18.8721 41.4973 18.8721Z" fill="#6697FF"/>
<path d="M18.5513 18.8721H41.4974C42.0244 18.8721 42.4522 18.4444 42.4522 17.9173V11.3771C42.4522 10.8501 42.0244 10.4224 41.4974 10.4224H27.0001L18.5513 18.8721Z" fill="#3374FF"/>
<path d="M41.4973 17.5353H5.02686C4.49982 17.5353 4.07208 17.1076 4.07208 16.5806V17.9173C4.07208 18.4443 4.49982 18.872 5.02686 18.872H41.4973C42.0244 18.872 42.4521 18.4443 42.4521 17.9173V16.5806C42.4521 17.1076 42.0244 17.5353 41.4973 17.5353Z" fill="#3E499F"/>
<path d="M8.10505 15.9912C7.74892 15.9912 7.46057 15.7028 7.46057 15.3467V12.4824C7.46057 12.1262 7.74892 11.8379 8.10505 11.8379C8.46118 11.8379 8.74953 12.1262 8.74953 12.4824V15.3467C8.74953 15.7019 8.46118 15.9912 8.10505 15.9912Z" fill="#734ECC"/>
<path d="M8.10505 14.9887C7.74892 14.9887 7.46057 14.7004 7.46057 14.3442V15.3468C7.46057 15.7029 7.74892 15.9912 8.10505 15.9912C8.46118 15.9912 8.74953 15.7029 8.74953 15.3468V14.3442C8.74953 14.6994 8.46118 14.9887 8.10505 14.9887Z" fill="#A437BF"/>
<path d="M12.0197 15.9912C11.6635 15.9912 11.3752 15.7028 11.3752 15.3467V12.4824C11.3752 12.1262 11.6635 11.8379 12.0197 11.8379C12.3758 11.8379 12.6641 12.1262 12.6641 12.4824V15.3467C12.6641 15.7019 12.3758 15.9912 12.0197 15.9912Z" fill="#734ECC"/>
<path d="M15.9342 15.9912C15.5781 15.9912 15.2897 15.7028 15.2897 15.3467V12.4824C15.2897 12.1262 15.5781 11.8379 15.9342 11.8379C16.2903 11.8379 16.5787 12.1262 16.5787 12.4824V15.3467C16.5787 15.7019 16.2903 15.9912 15.9342 15.9912Z" fill="#734ECC"/>
<path d="M19.8488 15.9912C19.4926 15.9912 19.2043 15.7028 19.2043 15.3467V12.4824C19.2043 12.1262 19.4926 11.8379 19.8488 11.8379C20.2049 11.8379 20.4932 12.1262 20.4932 12.4824V15.3467C20.4932 15.7019 20.2049 15.9912 19.8488 15.9912Z" fill="#734ECC"/>
<path d="M38.5624 15.8002C39.6038 15.8002 40.4481 14.9559 40.4481 13.9145C40.4481 12.8731 39.6038 12.0288 38.5624 12.0288C37.5209 12.0288 36.6767 12.8731 36.6767 13.9145C36.6767 14.9559 37.5209 15.8002 38.5624 15.8002Z" fill="#734ECC"/>
<path d="M38.5624 12.7136C39.3281 12.7136 39.9602 13.2368 40.0595 13.9138C40.0681 13.8526 40.0748 13.7896 40.0748 13.7266C40.0748 12.9599 39.3978 12.3384 38.5624 12.3384C37.7269 12.3384 37.05 12.9599 37.05 13.7266C37.05 13.7906 37.0567 13.8526 37.0653 13.9138C37.1646 13.2368 37.7966 12.7136 38.5624 12.7136Z" fill="#6697FF"/>
<path d="M38.5624 15.259C37.6133 15.259 36.8295 14.5563 36.6987 13.6436C36.6862 13.7323 36.6767 13.8221 36.6767 13.9138C36.6767 14.9554 37.5207 15.7994 38.5624 15.7994C39.604 15.7994 40.4481 14.9554 40.4481 13.9147C40.4481 13.8231 40.4395 13.7323 40.4261 13.6445C40.2953 14.5563 39.5114 15.259 38.5624 15.259Z" fill="#A437BF"/>
<path d="M12.0197 14.9887C11.6635 14.9887 11.3752 14.7004 11.3752 14.3442V15.3468C11.3752 15.7029 11.6635 15.9912 12.0197 15.9912C12.3758 15.9912 12.6641 15.7029 12.6641 15.3468V14.3442C12.6641 14.6994 12.3758 14.9887 12.0197 14.9887Z" fill="#A437BF"/>
<path d="M15.9342 14.9887C15.5781 14.9887 15.2897 14.7004 15.2897 14.3442V15.3468C15.2897 15.7029 15.5781 15.9912 15.9342 15.9912C16.2903 15.9912 16.5787 15.7029 16.5787 15.3468V14.3442C16.5787 14.6994 16.2903 14.9887 15.9342 14.9887Z" fill="#A437BF"/>
<path d="M19.8488 14.9887C19.4926 14.9887 19.2043 14.7004 19.2043 14.3442V15.3468C19.2043 15.7029 19.4926 15.9912 19.8488 15.9912C20.2049 15.9912 20.4932 15.7029 20.4932 15.3468V14.3442C20.4932 14.6994 20.2049 14.9887 19.8488 14.9887Z" fill="#A437BF"/>
<path d="M31.2077 14.798C31.5373 14.798 31.8044 14.5308 31.8044 14.2012C31.8044 13.8717 31.5373 13.6045 31.2077 13.6045C30.8782 13.6045 30.611 13.8717 30.611 14.2012C30.611 14.5308 30.8782 14.798 31.2077 14.798Z" fill="white"/>
<path d="M28.7712 14.798C29.1007 14.798 29.3679 14.5308 29.3679 14.2012C29.3679 13.8717 29.1007 13.6045 28.7712 13.6045C28.4416 13.6045 28.1744 13.8717 28.1744 14.2012C28.1744 14.5308 28.4416 14.798 28.7712 14.798Z" fill="#0051FF"/>
<path d="M26.3355 14.798C26.6651 14.798 26.9322 14.5308 26.9322 14.2012C26.9322 13.8717 26.6651 13.6045 26.3355 13.6045C26.0059 13.6045 25.7388 13.8717 25.7388 14.2012C25.7388 14.5308 26.0059 14.798 26.3355 14.798Z" fill="#0051FF"/>
<path d="M18.2982 36.3662H1.41589V37.3773H18.2982V36.3662Z" fill="#734ECC"/>
<path d="M18.2983 37.3773H9.85712L10.8358 36.3662H18.2983V37.3773Z" fill="#A437BF"/>
<path d="M18.7126 36.3666H0.954773C0.427738 36.3666 0 35.9388 0 35.4118V32.9914C0 32.4644 0.427738 32.0366 0.954773 32.0366H18.7126C19.2396 32.0366 19.6674 32.4644 19.6674 32.9914V35.4118C19.6674 35.9398 19.2406 36.3666 18.7126 36.3666Z" fill="#6697FF"/>
<path d="M7.41956 36.3665H19.1786C19.4488 36.3665 19.6674 36.1479 19.6674 35.8777V32.5264C19.6674 32.2562 19.4488 32.0376 19.1786 32.0376H11.7495L7.41956 36.3665Z" fill="#3374FF"/>
<path d="M19.1785 35.6817H0.489761C0.21956 35.6817 0.000915527 35.4631 0.000915527 35.1929V35.8774C0.000915527 36.1476 0.21956 36.3663 0.489761 36.3663H19.1785C19.4487 36.3663 19.6673 36.1476 19.6673 35.8774V35.1929C19.6673 35.4621 19.4487 35.6817 19.1785 35.6817Z" fill="#3E499F"/>
<path d="M2.06711 34.8904C1.88474 34.8904 1.73676 34.7424 1.73676 34.56V33.0926C1.73676 32.9102 1.88474 32.7622 2.06711 32.7622C2.24947 32.7622 2.39746 32.9102 2.39746 33.0926V34.56C2.39746 34.7424 2.24947 34.8904 2.06711 34.8904Z" fill="#734ECC"/>
<path d="M2.06711 34.3767C1.88474 34.3767 1.73676 34.2287 1.73676 34.0464V34.56C1.73676 34.7424 1.88474 34.8904 2.06711 34.8904C2.24947 34.8904 2.39746 34.7424 2.39746 34.56V34.0464C2.39746 34.2287 2.24947 34.3767 2.06711 34.3767Z" fill="#A437BF"/>
<path d="M4.07304 34.8904C3.89067 34.8904 3.74268 34.7424 3.74268 34.56V33.0926C3.74268 32.9102 3.89067 32.7622 4.07304 32.7622C4.2554 32.7622 4.40339 32.9102 4.40339 33.0926V34.56C4.40339 34.7424 4.2554 34.8904 4.07304 34.8904Z" fill="#734ECC"/>
<path d="M6.07902 34.8904C5.89665 34.8904 5.74866 34.7424 5.74866 34.56V33.0926C5.74866 32.9102 5.89665 32.7622 6.07902 32.7622C6.26138 32.7622 6.40937 32.9102 6.40937 33.0926V34.56C6.40937 34.7424 6.26138 34.8904 6.07902 34.8904Z" fill="#734ECC"/>
<path d="M8.08505 34.8904C7.90269 34.8904 7.7547 34.7424 7.7547 34.56V33.0926C7.7547 32.9102 7.90269 32.7622 8.08505 32.7622C8.26741 32.7622 8.4154 32.9102 8.4154 33.0926V34.56C8.4154 34.7424 8.26741 34.8904 8.08505 34.8904Z" fill="#734ECC"/>
<path d="M4.07304 34.3767C3.89067 34.3767 3.74268 34.2287 3.74268 34.0464V34.56C3.74268 34.7424 3.89067 34.8904 4.07304 34.8904C4.2554 34.8904 4.40339 34.7424 4.40339 34.56V34.0464C4.40339 34.2287 4.2554 34.3767 4.07304 34.3767Z" fill="#A437BF"/>
<path d="M6.07902 34.3767C5.89665 34.3767 5.74866 34.2287 5.74866 34.0464V34.56C5.74866 34.7424 5.89665 34.8904 6.07902 34.8904C6.26138 34.8904 6.40937 34.7424 6.40937 34.56V34.0464C6.40937 34.2287 6.26138 34.3767 6.07902 34.3767Z" fill="#A437BF"/>
<path d="M8.08505 34.3767C7.90269 34.3767 7.7547 34.2287 7.7547 34.0464V34.56C7.7547 34.7424 7.90269 34.8904 8.08505 34.8904C8.26741 34.8904 8.4154 34.7424 8.4154 34.56V34.0464C8.4154 34.2287 8.26741 34.3767 8.08505 34.3767Z" fill="#A437BF"/>
<path d="M17.3559 34.5008C17.6475 34.5008 17.8839 34.2644 17.8839 33.9728C17.8839 33.6812 17.6475 33.4448 17.3559 33.4448C17.0643 33.4448 16.8279 33.6812 16.8279 33.9728C16.8279 34.2644 17.0643 34.5008 17.3559 34.5008Z" fill="white"/>
<path d="M15.1991 34.5008C15.4907 34.5008 15.7271 34.2644 15.7271 33.9728C15.7271 33.6812 15.4907 33.4448 15.1991 33.4448C14.9075 33.4448 14.6711 33.6812 14.6711 33.9728C14.6711 34.2644 14.9075 34.5008 15.1991 34.5008Z" fill="#0051FF"/>
<path d="M13.0431 34.5008C13.3347 34.5008 13.5711 34.2644 13.5711 33.9728C13.5711 33.6812 13.3347 33.4448 13.0431 33.4448C12.7515 33.4448 12.5151 33.6812 12.5151 33.9728C12.5151 34.2644 12.7515 34.5008 13.0431 34.5008Z" fill="#0051FF"/>
<path d="M18.7126 41.7073H0.954773C0.427738 41.7073 0 41.2796 0 40.7526V38.3322C0 37.8052 0.427738 37.3774 0.954773 37.3774H18.7126C19.2396 37.3774 19.6674 37.8052 19.6674 38.3322V40.7526C19.6674 41.2796 19.2406 41.7073 18.7126 41.7073Z" fill="#6697FF"/>
<path d="M7.41956 41.7074H19.1786C19.4488 41.7074 19.6674 41.4887 19.6674 41.2185V37.8673C19.6674 37.5971 19.4488 37.3784 19.1786 37.3784H11.7495L7.41956 41.7074Z" fill="#3374FF"/>
<path d="M19.1785 41.0225H0.489761C0.21956 41.0225 0.000915527 40.8039 0.000915527 40.5337V41.2183C0.000915527 41.4885 0.21956 41.7071 0.489761 41.7071H19.1785C19.4487 41.7071 19.6673 41.4885 19.6673 41.2183V40.5337C19.6673 40.8029 19.4487 41.0225 19.1785 41.0225Z" fill="#3E499F"/>
<path d="M2.06711 40.2312C1.88474 40.2312 1.73676 40.0832 1.73676 39.9009V38.4334C1.73676 38.251 1.88474 38.103 2.06711 38.103C2.24947 38.103 2.39746 38.251 2.39746 38.4334V39.9009C2.39746 40.0832 2.24947 40.2312 2.06711 40.2312Z" fill="#734ECC"/>
<path d="M2.06711 39.7176C1.88474 39.7176 1.73676 39.5696 1.73676 39.3872V39.9009C1.73676 40.0832 1.88474 40.2312 2.06711 40.2312C2.24947 40.2312 2.39746 40.0832 2.39746 39.9009V39.3872C2.39746 39.5696 2.24947 39.7176 2.06711 39.7176Z" fill="#A437BF"/>
<path d="M4.07304 40.2312C3.89067 40.2312 3.74268 40.0832 3.74268 39.9009V38.4334C3.74268 38.251 3.89067 38.103 4.07304 38.103C4.2554 38.103 4.40339 38.251 4.40339 38.4334V39.9009C4.40339 40.0832 4.2554 40.2312 4.07304 40.2312Z" fill="#734ECC"/>
<path d="M6.07902 40.2312C5.89665 40.2312 5.74866 40.0832 5.74866 39.9009V38.4334C5.74866 38.251 5.89665 38.103 6.07902 38.103C6.26138 38.103 6.40937 38.251 6.40937 38.4334V39.9009C6.40937 40.0832 6.26138 40.2312 6.07902 40.2312Z" fill="#734ECC"/>
<path d="M8.08505 40.2312C7.90269 40.2312 7.7547 40.0832 7.7547 39.9009V38.4334C7.7547 38.251 7.90269 38.103 8.08505 38.103C8.26741 38.103 8.4154 38.251 8.4154 38.4334V39.9009C8.4154 40.0832 8.26741 40.2312 8.08505 40.2312Z" fill="#734ECC"/>
<path d="M4.07304 39.7176C3.89067 39.7176 3.74268 39.5696 3.74268 39.3872V39.9009C3.74268 40.0832 3.89067 40.2312 4.07304 40.2312C4.2554 40.2312 4.40339 40.0832 4.40339 39.9009V39.3872C4.40339 39.5696 4.2554 39.7176 4.07304 39.7176Z" fill="#A437BF"/>
<path d="M6.07902 39.7176C5.89665 39.7176 5.74866 39.5696 5.74866 39.3872V39.9009C5.74866 40.0832 5.89665 40.2312 6.07902 40.2312C6.26138 40.2312 6.40937 40.0832 6.40937 39.9009V39.3872C6.40937 39.5696 6.26138 39.7176 6.07902 39.7176Z" fill="#A437BF"/>
<path d="M8.08505 39.7176C7.90269 39.7176 7.7547 39.5696 7.7547 39.3872V39.9009C7.7547 40.0832 7.90269 40.2312 8.08505 40.2312C8.26741 40.2312 8.4154 40.0832 8.4154 39.9009V39.3872C8.4154 39.5696 8.26741 39.7176 8.08505 39.7176Z" fill="#A437BF"/>
<path d="M17.3559 39.8416C17.6475 39.8416 17.8839 39.6052 17.8839 39.3136C17.8839 39.022 17.6475 38.7856 17.3559 38.7856C17.0643 38.7856 16.8279 39.022 16.8279 39.3136C16.8279 39.6052 17.0643 39.8416 17.3559 39.8416Z" fill="white"/>
<path d="M15.1991 39.8416C15.4907 39.8416 15.7271 39.6052 15.7271 39.3136C15.7271 39.022 15.4907 38.7856 15.1991 38.7856C14.9075 38.7856 14.6711 39.022 14.6711 39.3136C14.6711 39.6052 14.9075 39.8416 15.1991 39.8416Z" fill="#0051FF"/>
<path d="M13.0431 39.8416C13.3347 39.8416 13.5711 39.6052 13.5711 39.3136C13.5711 39.022 13.3347 38.7856 13.0431 38.7856C12.7515 38.7856 12.5151 39.022 12.5151 39.3136C12.5151 39.6052 12.7515 39.8416 13.0431 39.8416Z" fill="#0051FF"/>
<path d="M45.1542 36.3662H28.2718V37.3773H45.1542V36.3662Z" fill="#734ECC"/>
<path d="M45.1542 37.3773H36.713L37.6916 36.3662H45.1542V37.3773Z" fill="#A437BF"/>
<path d="M45.5694 36.3666H27.8116C27.2845 36.3666 26.8568 35.9388 26.8568 35.4118V32.9914C26.8568 32.4644 27.2845 32.0366 27.8116 32.0366H45.5694C46.0964 32.0366 46.5242 32.4644 46.5242 32.9914V35.4118C46.5242 35.9398 46.0964 36.3666 45.5694 36.3666Z" fill="#6697FF"/>
<path d="M34.2764 36.3665H46.0354C46.3056 36.3665 46.5242 36.1479 46.5242 35.8777V32.5264C46.5242 32.2562 46.3056 32.0376 46.0354 32.0376H38.6063L34.2764 36.3665Z" fill="#3374FF"/>
<path d="M46.0344 35.6817H27.3457C27.0755 35.6817 26.8568 35.4631 26.8568 35.1929V35.8774C26.8568 36.1476 27.0755 36.3663 27.3457 36.3663H46.0344C46.3046 36.3663 46.5232 36.1476 46.5232 35.8774V35.1929C46.5242 35.4621 46.3046 35.6817 46.0344 35.6817Z" fill="#3E499F"/>
<path d="M28.923 34.8904C28.7406 34.8904 28.5926 34.7424 28.5926 34.56V33.0926C28.5926 32.9102 28.7406 32.7622 28.923 32.7622C29.1053 32.7622 29.2533 32.9102 29.2533 33.0926V34.56C29.2533 34.7424 29.1053 34.8904 28.923 34.8904Z" fill="#734ECC"/>
<path d="M28.923 34.3767C28.7406 34.3767 28.5926 34.2287 28.5926 34.0464V34.56C28.5926 34.7424 28.7406 34.8904 28.923 34.8904C29.1053 34.8904 29.2533 34.7424 29.2533 34.56V34.0464C29.2533 34.2287 29.1053 34.3767 28.923 34.3767Z" fill="#A437BF"/>
<path d="M30.9289 34.8904C30.7466 34.8904 30.5986 34.7424 30.5986 34.56V33.0926C30.5986 32.9102 30.7466 32.7622 30.9289 32.7622C31.1113 32.7622 31.2593 32.9102 31.2593 33.0926V34.56C31.2593 34.7424 31.1113 34.8904 30.9289 34.8904Z" fill="#734ECC"/>
<path d="M32.9349 34.8904C32.7526 34.8904 32.6046 34.7424 32.6046 34.56V33.0926C32.6046 32.9102 32.7526 32.7622 32.9349 32.7622C33.1173 32.7622 33.2653 32.9102 33.2653 33.0926V34.56C33.2653 34.7424 33.1173 34.8904 32.9349 34.8904Z" fill="#734ECC"/>
<path d="M34.9409 34.8904C34.7585 34.8904 34.6105 34.7424 34.6105 34.56V33.0926C34.6105 32.9102 34.7585 32.7622 34.9409 32.7622C35.1233 32.7622 35.2713 32.9102 35.2713 33.0926V34.56C35.2713 34.7424 35.1233 34.8904 34.9409 34.8904Z" fill="#734ECC"/>
<path d="M30.9289 34.3767C30.7466 34.3767 30.5986 34.2287 30.5986 34.0464V34.56C30.5986 34.7424 30.7466 34.8904 30.9289 34.8904C31.1113 34.8904 31.2593 34.7424 31.2593 34.56V34.0464C31.2593 34.2287 31.1113 34.3767 30.9289 34.3767Z" fill="#A437BF"/>
<path d="M32.9349 34.3767C32.7526 34.3767 32.6046 34.2287 32.6046 34.0464V34.56C32.6046 34.7424 32.7526 34.8904 32.9349 34.8904C33.1173 34.8904 33.2653 34.7424 33.2653 34.56V34.0464C33.2653 34.2287 33.1173 34.3767 32.9349 34.3767Z" fill="#A437BF"/>
<path d="M34.9409 34.3767C34.7585 34.3767 34.6105 34.2287 34.6105 34.0464V34.56C34.6105 34.7424 34.7585 34.8904 34.9409 34.8904C35.1233 34.8904 35.2713 34.7424 35.2713 34.56V34.0464C35.2713 34.2287 35.1233 34.3767 34.9409 34.3767Z" fill="#A437BF"/>
<path d="M44.2127 34.5008C44.5043 34.5008 44.7407 34.2644 44.7407 33.9728C44.7407 33.6812 44.5043 33.4448 44.2127 33.4448C43.9211 33.4448 43.6847 33.6812 43.6847 33.9728C43.6847 34.2644 43.9211 34.5008 44.2127 34.5008Z" fill="white"/>
<path d="M42.0559 34.5008C42.3475 34.5008 42.5839 34.2644 42.5839 33.9728C42.5839 33.6812 42.3475 33.4448 42.0559 33.4448C41.7642 33.4448 41.5278 33.6812 41.5278 33.9728C41.5278 34.2644 41.7642 34.5008 42.0559 34.5008Z" fill="#0051FF"/>
<path d="M39.8991 34.5008C40.1906 34.5008 40.427 34.2644 40.427 33.9728C40.427 33.6812 40.1906 33.4448 39.8991 33.4448C39.6075 33.4448 39.3711 33.6812 39.3711 33.9728C39.3711 34.2644 39.6075 34.5008 39.8991 34.5008Z" fill="#0051FF"/>
<path d="M45.5694 41.7073H27.8116C27.2845 41.7073 26.8568 41.2796 26.8568 40.7526V38.3322C26.8568 37.8052 27.2845 37.3774 27.8116 37.3774H45.5694C46.0964 37.3774 46.5242 37.8052 46.5242 38.3322V40.7526C46.5242 41.2796 46.0964 41.7073 45.5694 41.7073Z" fill="#6697FF"/>
<path d="M34.2764 41.7074H46.0354C46.3056 41.7074 46.5242 41.4887 46.5242 41.2185V37.8673C46.5242 37.5971 46.3056 37.3784 46.0354 37.3784H38.6063L34.2764 41.7074Z" fill="#3374FF"/>
<path d="M46.0344 41.0225H27.3457C27.0755 41.0225 26.8568 40.8039 26.8568 40.5337V41.2183C26.8568 41.4885 27.0755 41.7071 27.3457 41.7071H46.0344C46.3046 41.7071 46.5232 41.4885 46.5232 41.2183V40.5337C46.5242 40.8029 46.3046 41.0225 46.0344 41.0225Z" fill="#3E499F"/>
<path d="M28.923 40.2312C28.7406 40.2312 28.5926 40.0832 28.5926 39.9009V38.4334C28.5926 38.251 28.7406 38.103 28.923 38.103C29.1053 38.103 29.2533 38.251 29.2533 38.4334V39.9009C29.2533 40.0832 29.1053 40.2312 28.923 40.2312Z" fill="#734ECC"/>
<path d="M28.923 39.7176C28.7406 39.7176 28.5926 39.5696 28.5926 39.3872V39.9009C28.5926 40.0832 28.7406 40.2312 28.923 40.2312C29.1053 40.2312 29.2533 40.0832 29.2533 39.9009V39.3872C29.2533 39.5696 29.1053 39.7176 28.923 39.7176Z" fill="#A437BF"/>
<path d="M30.9289 40.2312C30.7466 40.2312 30.5986 40.0832 30.5986 39.9009V38.4334C30.5986 38.251 30.7466 38.103 30.9289 38.103C31.1113 38.103 31.2593 38.251 31.2593 38.4334V39.9009C31.2593 40.0832 31.1113 40.2312 30.9289 40.2312Z" fill="#734ECC"/>
<path d="M32.9349 40.2312C32.7526 40.2312 32.6046 40.0832 32.6046 39.9009V38.4334C32.6046 38.251 32.7526 38.103 32.9349 38.103C33.1173 38.103 33.2653 38.251 33.2653 38.4334V39.9009C33.2653 40.0832 33.1173 40.2312 32.9349 40.2312Z" fill="#734ECC"/>
<path d="M34.9409 40.2312C34.7585 40.2312 34.6105 40.0832 34.6105 39.9009V38.4334C34.6105 38.251 34.7585 38.103 34.9409 38.103C35.1233 38.103 35.2713 38.251 35.2713 38.4334V39.9009C35.2713 40.0832 35.1233 40.2312 34.9409 40.2312Z" fill="#734ECC"/>
<path d="M30.9289 39.7176C30.7466 39.7176 30.5986 39.5696 30.5986 39.3872V39.9009C30.5986 40.0832 30.7466 40.2312 30.9289 40.2312C31.1113 40.2312 31.2593 40.0832 31.2593 39.9009V39.3872C31.2593 39.5696 31.1113 39.7176 30.9289 39.7176Z" fill="#A437BF"/>
<path d="M32.9349 39.7176C32.7526 39.7176 32.6046 39.5696 32.6046 39.3872V39.9009C32.6046 40.0832 32.7526 40.2312 32.9349 40.2312C33.1173 40.2312 33.2653 40.0832 33.2653 39.9009V39.3872C33.2653 39.5696 33.1173 39.7176 32.9349 39.7176Z" fill="#A437BF"/>
<path d="M34.9409 39.7176C34.7585 39.7176 34.6105 39.5696 34.6105 39.3872V39.9009C34.6105 40.0832 34.7585 40.2312 34.9409 40.2312C35.1233 40.2312 35.2713 40.0832 35.2713 39.9009V39.3872C35.2713 39.5696 35.1233 39.7176 34.9409 39.7176Z" fill="#A437BF"/>
<path d="M44.2127 39.8416C44.5043 39.8416 44.7407 39.6052 44.7407 39.3136C44.7407 39.022 44.5043 38.7856 44.2127 38.7856C43.9211 38.7856 43.6847 39.022 43.6847 39.3136C43.6847 39.6052 43.9211 39.8416 44.2127 39.8416Z" fill="white"/>
<path d="M42.0559 39.8416C42.3475 39.8416 42.5839 39.6052 42.5839 39.3136C42.5839 39.022 42.3475 38.7856 42.0559 38.7856C41.7642 38.7856 41.5278 39.022 41.5278 39.3136C41.5278 39.6052 41.7642 39.8416 42.0559 39.8416Z" fill="#0051FF"/>
<path d="M39.8991 39.8416C40.1906 39.8416 40.427 39.6052 40.427 39.3136C40.427 39.022 40.1906 38.7856 39.8991 38.7856C39.6075 38.7856 39.3711 39.022 39.3711 39.3136C39.3711 39.6052 39.6075 39.8416 39.8991 39.8416Z" fill="#0051FF"/>
<path d="M8.9491 28.5075V32.0373H11.4315V28.603H35.0927V32.0373H37.5751V28.5075C37.5751 27.189 36.5067 26.1206 35.1882 26.1206H11.336C10.0175 26.1206 8.9491 27.189 8.9491 28.5075Z" fill="white"/>
<path d="M22.0211 18.872L22.0211 28.603L24.5035 28.603L24.5035 18.872L22.0211 18.872Z" fill="#D1D3D4"/>
<path d="M22.7849 18.872L22.7849 28.603L23.7397 28.603L23.7397 18.872L22.7849 18.872Z" fill="white"/>
<path d="M10.1903 28.794V32.0373H11.4353V29.5578C11.4353 29.0308 11.8631 28.603 12.3901 28.603H34.1341C34.6611 28.603 35.0889 29.0308 35.0889 29.5578V32.0373H36.3339V28.794C36.3339 28.0034 35.6923 27.3618 34.9017 27.3618H11.6225C10.831 27.3618 10.1903 28.0025 10.1903 28.794Z" fill="#D1D3D4"/>
<path d="M26.1025 29.3768H20.4216C19.8946 29.3768 19.4669 28.949 19.4669 28.422V26.2575C19.4669 25.7305 19.8946 25.3027 20.4216 25.3027H26.1025C26.6296 25.3027 27.0573 25.7305 27.0573 26.2575V28.422C27.0573 28.949 26.6296 29.3768 26.1025 29.3768Z" fill="#734ECC"/>
<path d="M25.2987 29.3762V24.4992C25.2987 23.9722 24.8709 23.5444 24.3439 23.5444H22.1794C21.6524 23.5444 21.2246 23.9722 21.2246 24.4992V29.3762H25.2987Z" fill="#734ECC"/>
<path d="M26.304 28.6072H20.2193C19.803 28.6072 19.4659 28.2702 19.4659 27.8539V26.8256C19.4659 26.4093 19.803 26.0723 20.2193 26.0723H26.304C26.7203 26.0723 27.0574 26.4093 27.0574 26.8256V27.8539C27.0574 28.2702 26.7203 28.6072 26.304 28.6072Z" fill="#A437BF"/>
<path d="M24.5291 28.6066V24.2977C24.5291 23.8815 24.1921 23.5444 23.7758 23.5444H22.7475C22.3312 23.5444 21.9942 23.8815 21.9942 24.2977V28.6066H24.5291Z" fill="#A437BF"/>
<path d="M24.5033 18.8721H22.0209V20.7816H24.5033V18.8721Z" fill="#D1D3D4"/>
</svg>
