<svg width="38" height="32" viewBox="0 0 38 32" fill="none" xmlns="http://www.w3.org/2000/svg">
<path d="M31.0227 7.83447H3.00806V9.51263H31.0227V7.83447Z" fill="#8E1CAA"/>
<path d="M31.0227 9.51181H17.0154L18.6391 7.83447H31.0227V9.51181Z" fill="#A437BF"/>
<path d="M32.4833 7.83503H1.47118C1.02302 7.83503 0.659302 7.47131 0.659302 7.02315V1.46178C0.659302 1.01362 1.02302 0.649902 1.47118 0.649902H32.4833C32.9315 0.649902 33.2952 1.01362 33.2952 1.46178V7.02315C33.2952 7.47131 32.9315 7.83503 32.4833 7.83503Z" fill="#3374FF"/>
<path d="M12.9714 7.82673H32.4833C32.9315 7.82673 33.2952 7.46301 33.2952 7.01485V1.45348C33.2952 1.00532 32.9315 0.641602 32.4833 0.641602H20.1558L12.9714 7.82673Z" fill="#0051FF"/>
<path d="M32.4833 6.69811H1.47112C1.02296 6.69811 0.659241 6.33439 0.659241 5.88623V7.02286C0.659241 7.47102 1.02296 7.83474 1.47112 7.83474H32.4833C32.9314 7.83474 33.2951 7.47102 33.2951 7.02286V5.88623C33.2951 6.33439 32.9314 6.69811 32.4833 6.69811Z" fill="#003199"/>
<path d="M4.08861 5.3847C3.78578 5.3847 3.54059 5.13951 3.54059 4.83668V2.40105C3.54059 2.09821 3.78578 1.85303 4.08861 1.85303C4.39144 1.85303 4.63662 2.09821 4.63662 2.40105V4.83668C4.63662 5.13951 4.39144 5.3847 4.08861 5.3847Z" fill="#8E1CAA"/>
<path d="M4.08861 4.5319C3.78578 4.5319 3.54059 4.28672 3.54059 3.98389V4.83636C3.54059 5.13919 3.78578 5.38438 4.08861 5.38438C4.39144 5.38438 4.63662 5.13919 4.63662 4.83636V3.98389C4.63662 4.28672 4.39144 4.5319 4.08861 4.5319Z" fill="#A437BF"/>
<path d="M7.41734 5.3847C7.11451 5.3847 6.86932 5.13951 6.86932 4.83668V2.40105C6.86932 2.09821 7.11451 1.85303 7.41734 1.85303C7.72017 1.85303 7.96536 2.09821 7.96536 2.40105V4.83668C7.96536 5.13951 7.72017 5.3847 7.41734 5.3847Z" fill="#8E1CAA"/>
<path d="M10.7461 5.3847C10.4432 5.3847 10.1981 5.13951 10.1981 4.83668V2.40105C10.1981 2.09821 10.4432 1.85303 10.7461 1.85303C11.0489 1.85303 11.2941 2.09821 11.2941 2.40105V4.83668C11.2941 5.13951 11.0489 5.3847 10.7461 5.3847Z" fill="#8E1CAA"/>
<path d="M7.41734 4.5319C7.11451 4.5319 6.86932 4.28672 6.86932 3.98389V4.83636C6.86932 5.13919 7.11451 5.38438 7.41734 5.38438C7.72017 5.38438 7.96536 5.13919 7.96536 4.83636V3.98389C7.96536 4.28672 7.72017 4.5319 7.41734 4.5319Z" fill="#A437BF"/>
<path d="M10.7461 4.5319C10.4432 4.5319 10.1981 4.28672 10.1981 3.98389V4.83636C10.1981 5.13919 10.4432 5.38438 10.7461 5.38438C11.0489 5.38438 11.2941 5.13919 11.2941 4.83636V3.98389C11.2941 4.28672 11.0489 4.5319 10.7461 4.5319Z" fill="#A437BF"/>
<path d="M31.0227 16.7041H3.00806V18.3823H31.0227V16.7041Z" fill="#8E1CAA"/>
<path d="M31.0228 18.3823H17.0154L18.6392 16.7041H31.0228V18.3823Z" fill="#A437BF"/>
<path d="M32.4833 16.7042H1.47118C1.02302 16.7042 0.659302 16.3404 0.659302 15.8923V10.3309C0.659302 9.88276 1.02302 9.51904 1.47118 9.51904H32.4833C32.9315 9.51904 33.2952 9.88276 33.2952 10.3309V15.8923C33.2952 16.3413 32.9315 16.7042 32.4833 16.7042Z" fill="#3374FF"/>
<path d="M12.9715 16.6968H32.4834C32.9315 16.6968 33.2953 16.3331 33.2953 15.885V10.3236C33.2953 9.87544 32.9315 9.51172 32.4834 9.51172H20.1558L12.9715 16.6968Z" fill="#0051FF"/>
<path d="M32.4833 15.5677H1.47118C1.02302 15.5677 0.659302 15.204 0.659302 14.7559V15.8925C0.659302 16.3406 1.02302 16.7044 1.47118 16.7044H32.4833C32.9315 16.7044 33.2952 16.3406 33.2952 15.8925V14.7559C33.2952 15.2048 32.9315 15.5677 32.4833 15.5677Z" fill="#003199"/>
<path d="M4.08867 14.2548C3.78584 14.2548 3.54065 14.0096 3.54065 13.7068V11.2712C3.54065 10.9683 3.78584 10.7231 4.08867 10.7231C4.3915 10.7231 4.63669 10.9683 4.63669 11.2712V13.7068C4.63669 14.0096 4.3915 14.2548 4.08867 14.2548Z" fill="#8E1CAA"/>
<path d="M4.08867 13.402C3.78584 13.402 3.54065 13.1568 3.54065 12.854V13.7065C3.54065 14.0093 3.78584 14.2545 4.08867 14.2545C4.3915 14.2545 4.63669 14.0093 4.63669 13.7065V12.854C4.63669 13.1568 4.3915 13.402 4.08867 13.402Z" fill="#A437BF"/>
<path d="M7.41734 14.2548C7.11451 14.2548 6.86932 14.0096 6.86932 13.7068V11.2712C6.86932 10.9683 7.11451 10.7231 7.41734 10.7231C7.72017 10.7231 7.96536 10.9683 7.96536 11.2712V13.7068C7.96536 14.0096 7.72017 14.2548 7.41734 14.2548Z" fill="#8E1CAA"/>
<path d="M10.7461 14.2548C10.4432 14.2548 10.1981 14.0096 10.1981 13.7068V11.2712C10.1981 10.9683 10.4432 10.7231 10.7461 10.7231C11.0489 10.7231 11.2941 10.9683 11.2941 11.2712V13.7068C11.2941 14.0096 11.0489 14.2548 10.7461 14.2548Z" fill="#8E1CAA"/>
<path d="M7.41734 13.402C7.11451 13.402 6.86932 13.1568 6.86932 12.854V13.7065C6.86932 14.0093 7.11451 14.2545 7.41734 14.2545C7.72017 14.2545 7.96536 14.0093 7.96536 13.7065V12.854C7.96536 13.1568 7.72017 13.402 7.41734 13.402Z" fill="#A437BF"/>
<path d="M10.7461 13.402C10.4432 13.402 10.1981 13.1568 10.1981 12.854V13.7065C10.1981 14.0093 10.4432 14.2545 10.7461 14.2545C11.0489 14.2545 11.2941 14.0093 11.2941 13.7065V12.854C11.2941 13.1568 11.0489 13.402 10.7461 13.402Z" fill="#A437BF"/>
<path d="M31.0227 25.5752H3.00806V27.2534H31.0227V25.5752Z" fill="#8E1CAA"/>
<path d="M31.0228 27.2534H17.0154L18.6392 25.5752H31.0228V27.2534Z" fill="#A437BF"/>
<path d="M32.4833 25.5758H1.47118C1.02302 25.5758 0.659302 25.212 0.659302 24.7639V19.2025C0.659302 18.7543 1.02302 18.3906 1.47118 18.3906H32.4833C32.9315 18.3906 33.2952 18.7543 33.2952 19.2025V24.7639C33.2952 25.212 32.9315 25.5758 32.4833 25.5758Z" fill="#3374FF"/>
<path d="M12.9715 25.5684H32.4834C32.9315 25.5684 33.2953 25.2047 33.2953 24.7565V19.1952C33.2953 18.747 32.9315 18.3833 32.4834 18.3833H20.1558L12.9715 25.5684Z" fill="#0051FF"/>
<path d="M32.4833 24.4393H1.47118C1.02302 24.4393 0.659302 24.0756 0.659302 23.6274V24.7641C0.659302 25.2122 1.02302 25.576 1.47118 25.576H32.4833C32.9315 25.576 33.2952 25.2122 33.2952 24.7641V23.6274C33.2952 24.0756 32.9315 24.4393 32.4833 24.4393Z" fill="#003199"/>
<path d="M4.08873 23.1264C3.7859 23.1264 3.54071 22.8812 3.54071 22.5784V20.1427C3.54071 19.8399 3.7859 19.5947 4.08873 19.5947C4.39156 19.5947 4.63675 19.8399 4.63675 20.1427V22.5784C4.63675 22.8804 4.39156 23.1264 4.08873 23.1264Z" fill="#8E1CAA"/>
<path d="M4.08873 22.2736C3.7859 22.2736 3.54071 22.0284 3.54071 21.7256V22.5781C3.54071 22.8809 3.7859 23.1261 4.08873 23.1261C4.39156 23.1261 4.63675 22.8809 4.63675 22.5781V21.7256C4.63675 22.0276 4.39156 22.2736 4.08873 22.2736Z" fill="#A437BF"/>
<path d="M7.4174 23.1264C7.11457 23.1264 6.86938 22.8812 6.86938 22.5784V20.1427C6.86938 19.8399 7.11457 19.5947 7.4174 19.5947C7.72023 19.5947 7.96542 19.8399 7.96542 20.1427V22.5784C7.96542 22.8804 7.72023 23.1264 7.4174 23.1264Z" fill="#8E1CAA"/>
<path d="M10.7461 23.1264C10.4433 23.1264 10.1981 22.8812 10.1981 22.5784V20.1427C10.1981 19.8399 10.4433 19.5947 10.7461 19.5947C11.049 19.5947 11.2942 19.8399 11.2942 20.1427V22.5784C11.2942 22.8804 11.049 23.1264 10.7461 23.1264Z" fill="#8E1CAA"/>
<path d="M7.4174 22.2736C7.11457 22.2736 6.86938 22.0284 6.86938 21.7256V22.5781C6.86938 22.8809 7.11457 23.1261 7.4174 23.1261C7.72023 23.1261 7.96542 22.8809 7.96542 22.5781V21.7256C7.96542 22.0276 7.72023 22.2736 7.4174 22.2736Z" fill="#A437BF"/>
<path d="M10.7461 22.2736C10.4433 22.2736 10.1981 22.0284 10.1981 21.7256V22.5781C10.1981 22.8809 10.4433 23.1261 10.7461 23.1261C11.049 23.1261 11.2942 22.8809 11.2942 22.5781V21.7256C11.2942 22.0276 11.049 22.2736 10.7461 22.2736Z" fill="#A437BF"/>
<path d="M32.5621 28.7197H1.39243C0.987301 28.7197 0.659302 28.3917 0.659302 27.9865C0.659302 27.5814 0.987301 27.2534 1.39243 27.2534H32.5621C32.9672 27.2534 33.2952 27.5814 33.2952 27.9865C33.2952 28.3909 32.9672 28.7197 32.5621 28.7197Z" fill="#79ABDC"/>
<path d="M32.5621 27.9861H1.39243C1.12126 27.9861 0.885004 27.8383 0.758351 27.6191C0.695836 27.7271 0.659302 27.8521 0.659302 27.9861C0.659302 28.3912 0.987301 28.7192 1.39243 28.7192H32.5621C32.9672 28.7192 33.2952 28.3912 33.2952 27.9861C33.2952 27.8521 33.2587 27.7271 33.1962 27.6191C33.0695 27.8383 32.8332 27.9861 32.5621 27.9861Z" fill="#0051FF"/>
<path d="M8.15451 31.75H3.41314C3.18906 31.75 3.0072 31.5681 3.0072 31.344V28.7192H8.56045V31.344C8.56045 31.5681 8.37859 31.75 8.15451 31.75Z" fill="#8E1CAA"/>
<path d="M30.6168 31.75H25.8754C25.6513 31.75 25.4695 31.5681 25.4695 31.344V28.7192H31.0227V31.344C31.0227 31.5681 30.8409 31.75 30.6168 31.75Z" fill="#8E1CAA"/>
<path d="M8.56131 28.7192H3.00806V29.9639H8.56131V28.7192Z" fill="#A437BF"/>
<path d="M31.0227 28.7192H25.4695V29.9639H31.0227V28.7192Z" fill="#A437BF"/>
<path d="M36.1441 19.2906L30.1419 25.1954C29.4566 25.8693 28.3582 25.8693 27.6737 25.1954L21.6715 19.2906C20.4837 18.1223 19.8148 16.5254 19.8148 14.8594V5.4424C19.8148 4.50955 20.3514 3.65951 21.1933 3.25844C26.0735 0.934034 31.7413 0.934034 36.6215 3.25844C37.4634 3.65951 38 4.50955 38 5.4424V14.8594C38.0008 16.5254 37.3319 18.1223 36.1441 19.2906Z" fill="white"/>
<path d="M36.986 14.3782V6.14409C36.986 5.32815 36.5094 4.58528 35.7609 4.23455C31.4254 2.20242 26.3902 2.20242 22.0539 4.23455C21.3054 4.58528 20.8288 5.32815 20.8288 6.14409V14.3782C20.8288 15.8347 21.4231 17.2311 22.4785 18.2525L27.811 23.4152C28.4191 24.0046 29.3957 24.0046 30.0038 23.4152L35.3363 18.2525C36.3917 17.2303 36.986 15.8347 36.986 14.3782Z" fill="#D1D3D4"/>
<path d="M34.7882 17.9011L29.9104 22.6993C29.3535 23.2465 28.4612 23.2465 27.9043 22.6993L23.0273 17.9011C22.062 16.9512 21.5189 15.6538 21.5189 14.3004V6.64763C21.5189 5.88934 21.9548 5.19924 22.6393 4.87287C26.6053 2.98444 31.2111 2.98444 35.1771 4.87287C35.8615 5.19924 36.2975 5.88934 36.2975 6.64763V14.3004C36.2975 15.6538 35.7535 16.9512 34.7882 17.9011Z" fill="#8E1CAA"/>
<path d="M35.1771 4.87287C31.2111 2.98444 26.6053 2.98444 22.6393 4.87287C21.9548 5.19924 21.5189 5.88934 21.5189 6.64763V7.70308C21.5189 6.94478 21.9548 6.25468 22.6393 5.92831C26.6053 4.03988 31.2111 4.03988 35.1771 5.92831C35.8615 6.25468 36.2975 6.94478 36.2975 7.70308V6.64763C36.2975 5.88934 35.8615 5.19843 35.1771 4.87287Z" fill="#A437BF"/>
<path d="M32.1764 11.4701V10.3238C32.1764 8.51083 30.7013 7.03564 28.8883 7.03564C27.0754 7.03564 25.6002 8.51083 25.6002 10.3238V11.4693C25.4801 11.5132 25.3591 11.5586 25.2397 11.6065V12.1618V12.7594V16.244V16.8415V17.3968C25.4931 17.4991 25.748 17.5901 26.0045 17.6704C26.2408 17.7451 26.4795 17.8101 26.7182 17.8653H26.719C27.3173 18.0049 27.9206 18.0861 28.5254 18.1089H28.5262C28.7682 18.1178 29.0101 18.1178 29.2512 18.1089H29.2521C29.8569 18.0853 30.4609 18.0041 31.0585 17.8653H31.0593C31.298 17.8093 31.5359 17.7443 31.7729 17.6704C32.0295 17.5901 32.2844 17.4991 32.5369 17.3968V16.8415V16.244V12.7602V12.1618V11.6065C32.4176 11.5594 32.2974 11.514 32.1764 11.4701ZM28.8883 8.18932C30.0656 8.18932 31.0228 9.14653 31.0228 10.3238V11.1291C29.6109 10.806 28.1658 10.806 26.7539 11.1291V10.3229C26.7539 9.14734 27.7111 8.18932 28.8883 8.18932Z" fill="#A437BF"/>
<path d="M32.1764 13.35H31.0227V9.51223C31.0227 8.33501 30.0655 7.3778 28.8883 7.3778C27.711 7.3778 26.7538 8.33501 26.7538 9.51223V13.35H25.6002V9.51223C25.6002 7.69931 27.0753 6.22412 28.8883 6.22412C30.7012 6.22412 32.1764 7.69931 32.1764 9.51223V13.35Z" fill="#3374FF"/>
<path d="M28.8883 6.88916C27.4489 6.88916 26.2781 7.92512 26.2781 9.19814V13.3501H26.7539V9.51234C26.7539 8.33512 27.7111 7.37791 28.8883 7.37791C30.0656 7.37791 31.0228 8.33512 31.0228 9.51234V13.3501H31.4985V9.19814C31.4985 7.92512 30.3278 6.88916 28.8883 6.88916Z" fill="#0051FF"/>
<path d="M32.5369 16.5865C30.1621 17.5469 27.6136 17.5469 25.2389 16.5865V10.7953C27.4618 9.89658 29.8374 9.83894 32.0806 10.6232C32.2332 10.6768 32.3859 10.7336 32.5369 10.7953V16.5865Z" fill="#D1D3D4"/>
<path d="M26.0037 10.5219V16.8602C27.8986 17.4545 29.8779 17.4545 31.7729 16.8602V10.5219C29.8779 9.9276 27.8986 9.9276 26.0037 10.5219Z" fill="white"/>
<path d="M28.8883 13.8311C29.4327 13.8311 29.8739 13.3898 29.8739 12.8455C29.8739 12.3011 29.4327 11.8599 28.8883 11.8599C28.344 11.8599 27.9027 12.3011 27.9027 12.8455C27.9027 13.3898 28.344 13.8311 28.8883 13.8311Z" fill="#3374FF"/>
<path d="M29.088 15.2878H28.6886C28.4759 15.2878 28.3038 15.1157 28.3038 14.903V12.8359H29.4729V14.903C29.4729 15.1157 29.3008 15.2878 29.088 15.2878Z" fill="#3374FF"/>
<path d="M28.9435 15.0449H28.8331C28.7316 15.0449 28.6488 14.9629 28.6488 14.8606V13.1118H29.127V14.8606C29.1278 14.9621 29.045 15.0449 28.9435 15.0449Z" fill="#002066"/>
<path d="M28.8883 13.4298C29.2112 13.4298 29.4729 13.1681 29.4729 12.8453C29.4729 12.5225 29.2112 12.2607 28.8883 12.2607C28.5655 12.2607 28.3038 12.5225 28.3038 12.8453C28.3038 13.1681 28.5655 13.4298 28.8883 13.4298Z" fill="#002066"/>
<path d="M32.5369 11.3515C32.4167 11.3045 32.2966 11.259 32.1756 11.2168C29.8942 10.4187 27.4984 10.4658 25.2389 11.3515V11.9491C25.2746 11.9491 25.312 11.9426 25.3469 11.928C27.5057 11.0552 29.8008 10.9968 31.9848 11.7607C32.1326 11.8127 32.2819 11.8687 32.4281 11.928C32.4638 11.9426 32.5003 11.9491 32.5361 11.9491V11.3515H32.5369Z" fill="#D1D3D4"/>
<path d="M25.2397 16.0315C25.3598 16.0785 25.4808 16.124 25.601 16.1662C26.6808 16.5438 27.7857 16.7321 28.8899 16.7321C30.1191 16.7321 31.3474 16.4975 32.5377 16.0315V15.4339C32.5019 15.4339 32.4646 15.4404 32.4297 15.4542C30.2709 16.327 27.9749 16.3854 25.7918 15.6215C25.644 15.5695 25.4946 15.5135 25.3485 15.4542C25.3128 15.4396 25.2762 15.4331 25.2405 15.4331V16.0315H25.2397Z" fill="#D1D3D4"/>
</svg>
