<svg width="39" height="44" viewBox="0 0 39 44" fill="none" xmlns="http://www.w3.org/2000/svg">
<path d="M17.6687 41.1072H15.1865V36.8138L11.7205 33.3469V24.3936H14.2027V32.3193L17.6687 35.7853V41.1072Z" fill="#734ECC"/>
<path d="M17.6687 41.1072V35.7853L14.2027 32.3193V24.3936H12.9615V32.8331L16.4276 36.2991V41.1072H17.6687Z" fill="#A437BF"/>
<path d="M5.79045 36.805H3.30823V31.4831L6.77424 28.0171V20.4224H9.25646V29.0448L5.79045 32.5116V36.805Z" fill="#6697FF"/>
<path d="M5.79037 32.5116L9.25638 29.0448V20.4224H8.01526V28.531L4.54926 31.997V36.805H5.79037V32.5116Z" fill="#3374FF"/>
<path d="M24.3276 36.805H21.8454V32.5116L18.3794 29.0448V20.4224H20.8616V28.0171L24.3276 31.4831V36.805Z" fill="#6697FF"/>
<path d="M19.6205 28.531V20.4224H18.3794V29.0448L21.8454 32.5116V36.805H23.0865V31.997L19.6205 28.531Z" fill="#3374FF"/>
<path d="M33.2214 40.2411H30.7392V35.9476L27.2723 32.4816V23.8584H29.7546V31.4532L33.2214 34.9192V40.2411Z" fill="#734ECC"/>
<path d="M28.5135 23.8584H27.2724V32.4816L30.7392 35.9476V40.2411H31.9803V35.433L28.5135 31.967V23.8584Z" fill="#A437BF"/>
<path d="M31.9339 42.5724C33.3825 42.5724 34.5568 41.3981 34.5568 39.9495C34.5568 38.501 33.3825 37.3267 31.9339 37.3267C30.4853 37.3267 29.311 38.501 29.311 39.9495C29.311 41.3981 30.4853 42.5724 31.9339 42.5724Z" fill="#D1D3D4"/>
<path d="M31.9339 42.9699C33.3825 42.9699 34.5568 41.7956 34.5568 40.347C34.5568 38.8984 33.3825 37.7241 31.9339 37.7241C30.4853 37.7241 29.311 38.8984 29.311 40.347C29.311 41.7956 30.4853 42.9699 31.9339 42.9699Z" fill="white"/>
<path d="M31.9339 41.9546C32.8218 41.9546 33.5416 41.2348 33.5416 40.3469C33.5416 39.459 32.8218 38.7393 31.9339 38.7393C31.0461 38.7393 30.3263 39.459 30.3263 40.3469C30.3263 41.2348 31.0461 41.9546 31.9339 41.9546Z" fill="#3E499F"/>
<path d="M23.0865 39.2292C24.5351 39.2292 25.7094 38.0549 25.7094 36.6063C25.7094 35.1577 24.5351 33.9834 23.0865 33.9834C21.6379 33.9834 20.4636 35.1577 20.4636 36.6063C20.4636 38.0549 21.6379 39.2292 23.0865 39.2292Z" fill="#D1D3D4"/>
<path d="M23.0865 39.6261C24.5351 39.6261 25.7094 38.4518 25.7094 37.0033C25.7094 35.5547 24.5351 34.3804 23.0865 34.3804C21.6379 34.3804 20.4636 35.5547 20.4636 37.0033C20.4636 38.4518 21.6379 39.6261 23.0865 39.6261Z" fill="white"/>
<path d="M23.0865 38.6108C23.9744 38.6108 24.6942 37.891 24.6942 37.0032C24.6942 36.1153 23.9744 35.3955 23.0865 35.3955C22.1987 35.3955 21.4789 36.1153 21.4789 37.0032C21.4789 37.891 22.1987 38.6108 23.0865 38.6108Z" fill="#3E499F"/>
<path d="M16.4276 43.5314C17.8761 43.5314 19.0505 42.3571 19.0505 40.9085C19.0505 39.4599 17.8761 38.2856 16.4276 38.2856C14.979 38.2856 13.8047 39.4599 13.8047 40.9085C13.8047 42.3571 14.979 43.5314 16.4276 43.5314Z" fill="#D1D3D4"/>
<path d="M16.4276 43.9284C17.8761 43.9284 19.0505 42.7541 19.0505 41.3055C19.0505 39.8569 17.8761 38.6826 16.4276 38.6826C14.979 38.6826 13.8047 39.8569 13.8047 41.3055C13.8047 42.7541 14.979 43.9284 16.4276 43.9284Z" fill="white"/>
<path d="M16.4276 42.9131C17.3155 42.9131 18.0352 42.1933 18.0352 41.3054C18.0352 40.4175 17.3155 39.6978 16.4276 39.6978C15.5397 39.6978 14.8199 40.4175 14.8199 41.3054C14.8199 42.1933 15.5397 42.9131 16.4276 42.9131Z" fill="#3E499F"/>
<path d="M4.54927 39.2292C5.99785 39.2292 7.17215 38.0549 7.17215 36.6063C7.17215 35.1577 5.99785 33.9834 4.54927 33.9834C3.10069 33.9834 1.92639 35.1577 1.92639 36.6063C1.92639 38.0549 3.10069 39.2292 4.54927 39.2292Z" fill="#D1D3D4"/>
<path d="M4.54927 39.6261C5.99785 39.6261 7.17215 38.4518 7.17215 37.0033C7.17215 35.5547 5.99785 34.3804 4.54927 34.3804C3.10069 34.3804 1.92639 35.5547 1.92639 37.0033C1.92639 38.4518 3.10069 39.6261 4.54927 39.6261Z" fill="white"/>
<path d="M4.5493 38.6108C5.43718 38.6108 6.15695 37.891 6.15695 37.0032C6.15695 36.1153 5.43718 35.3955 4.5493 35.3955C3.66142 35.3955 2.94165 36.1153 2.94165 37.0032C2.94165 37.891 3.66142 38.6108 4.5493 38.6108Z" fill="#3E499F"/>
<path d="M31.8115 9.22912C31.5898 4.32425 27.5297 0.402344 22.5719 0.402344C20.6779 0.402344 18.8568 0.9716 17.3054 2.04723C16.2761 2.76128 15.4131 3.66315 14.7537 4.70486C14.575 4.69162 14.3954 4.68583 14.2151 4.68583C11.1106 4.68583 8.37936 6.60045 7.26732 9.39791C5.61913 9.90015 4.13145 10.8599 2.98549 12.1763C1.52098 13.8585 0.715088 16.0147 0.715088 18.2462C0.715088 23.3463 4.86453 27.4958 9.96467 27.4958H29.7505C34.8506 27.4958 39 23.3463 39 18.2462C38.9992 13.8552 35.9221 10.1691 31.8115 9.22912Z" fill="#D1D3D4"/>
<path d="M29.7497 25.4244C33.7138 25.4244 36.9274 22.2108 36.9274 18.2466C36.9274 14.2824 33.7138 11.0688 29.7497 11.0688C25.7855 11.0688 22.5719 14.2824 22.5719 18.2466C22.5719 22.2108 25.7855 25.4244 29.7497 25.4244Z" fill="white"/>
<path d="M9.96303 25.4244C13.9272 25.4244 17.1408 22.2108 17.1408 18.2466C17.1408 14.2824 13.9272 11.0688 9.96303 11.0688C5.99887 11.0688 2.78528 14.2824 2.78528 18.2466C2.78528 22.2108 5.99887 25.4244 9.96303 25.4244Z" fill="white"/>
<path d="M14.2143 17.5699C17.2001 17.5699 19.6205 15.1494 19.6205 12.1636C19.6205 9.1778 17.2001 6.75732 14.2143 6.75732C11.2285 6.75732 8.80798 9.1778 8.80798 12.1636C8.80798 15.1494 11.2285 17.5699 14.2143 17.5699Z" fill="white"/>
<path d="M22.5711 16.8291C26.5352 16.8291 29.7488 13.6156 29.7488 9.65139C29.7488 5.68722 26.5352 2.47363 22.5711 2.47363C18.6069 2.47363 15.3933 5.68722 15.3933 9.65139C15.3933 13.6156 18.6069 16.8291 22.5711 16.8291Z" fill="white"/>
<path d="M9.96379 25.4248L29.7496 25.4248L29.7496 14.5816L9.96379 14.5816L9.96379 25.4248Z" fill="white"/>
<path d="M29.6446 26.9023C29.2632 26.9023 28.9537 26.5929 28.9537 26.2114C28.9537 25.83 29.2632 25.5206 29.6446 25.5206C33.6178 25.5206 36.8497 22.2879 36.8497 18.3155C36.8497 14.3431 33.617 11.1104 29.6446 11.1104C28.5169 11.1104 27.4379 11.3636 26.4359 11.8625C26.0951 12.0322 25.6797 11.894 25.5101 11.5523C25.3405 11.2106 25.4786 10.796 25.8204 10.6264C27.0143 10.0315 28.3009 9.72949 29.6446 9.72949C34.3791 9.72949 38.2306 13.5811 38.2306 18.3155C38.2306 23.0499 34.3791 26.9023 29.6446 26.9023Z" fill="#D1D3D4"/>
<path d="M9.6048 26.902C4.87038 26.902 1.0188 23.0504 1.0188 18.316C1.0188 13.5816 4.87038 9.72998 9.6048 9.72998C10.9477 9.72998 12.2343 10.032 13.4291 10.6269C13.7708 10.7973 13.909 11.2119 13.7394 11.5528C13.5689 11.8936 13.1552 12.0327 12.8135 11.863C11.8123 11.3641 10.7326 11.1109 9.6048 11.1109C5.63159 11.1109 2.39974 14.3436 2.39974 18.316C2.39974 22.2884 5.63242 25.521 9.6048 25.521C9.98624 25.521 10.2957 25.8305 10.2957 26.2119C10.2957 26.5925 9.98624 26.902 9.6048 26.902Z" fill="#D1D3D4"/>
</svg>
