<svg width="24" height="24" viewBox="0 0 24 24" fill="none" xmlns="http://www.w3.org/2000/svg">
<path fill-rule="evenodd" clip-rule="evenodd" d="M11.575 21.2008C6.17501 21.2008 2.85001 17.4008 2.85001 12.5758C2.85001 6.87578 7.37501 3.05078 12.525 3.05078C17.45 3.05078 21.125 6.07578 21.125 10.8508C21.125 15.2008 18.825 16.9258 16.525 16.9258C15.4 16.9258 14.475 16.4008 14.075 15.6508C13.3 16.4008 12.125 16.8758 11 16.8758C8.25001 16.8758 6.85001 14.9258 6.85001 12.5758C6.85001 9.55078 9.05001 7.10078 12.275 7.10078C13.2 7.10078 13.95 7.35078 14.525 7.77578L14.625 7.35078H17L15.825 12.8508C15.6 13.9508 15.85 14.8258 16.925 14.8258C18.25 14.8258 19.025 13.7258 19.025 10.8008C19.025 6.90078 15.95 5.07578 12.5 5.07578C8.62501 5.07578 5.05001 7.75078 5.05001 12.5758C5.05001 16.5258 7.57501 19.1008 11.575 19.1008C13.075 19.1008 14.625 18.7758 15.975 18.0758L16.8 20.1008C15.25 20.8008 13.2 21.2008 11.575 21.2008ZM11.4 14.5258C12.05 14.5258 12.7 14.3508 13.225 13.8258L14.025 10.1258C13.575 9.65078 12.925 9.42578 12.3 9.42578C10.65 9.42578 9.45001 10.7008 9.45001 12.3758C9.45001 13.6758 10.075 14.5258 11.4 14.5258Z" fill="#272727"/>
</svg>
