<svg width="271" height="256" viewBox="0 0 271 256" fill="none" xmlns="http://www.w3.org/2000/svg">
<path d="M118.011 137.635L117.977 147.663C117.994 143.575 115.291 139.471 109.885 136.35C99.1387 130.143 81.7685 130.143 71.1061 136.35C65.7999 139.437 63.1468 143.459 63.1301 147.497L63.1635 137.468C63.1802 133.43 65.8333 129.392 71.1395 126.322C81.8185 120.115 99.1721 120.115 109.918 126.322C115.308 129.442 118.011 133.547 118.011 137.635Z" fill="#3857CC"/>
<path d="M118.011 137.635L117.977 147.664C117.994 143.576 115.291 139.471 109.884 136.35C108.85 135.75 107.749 135.216 106.597 134.732L106.631 124.704C107.782 125.188 108.883 125.721 109.918 126.322C115.307 129.442 118.011 133.547 118.011 137.635Z" fill="#3857CC"/>
<path d="M106.631 124.704L106.597 134.732C103.16 133.28 99.2889 132.362 95.3009 131.945L95.3343 121.917C99.3222 122.334 103.193 123.252 106.631 124.704Z" fill="#3857CC"/>
<path d="M95.3176 121.917L95.2842 131.945C87.8922 131.178 80.0832 132.179 73.8593 134.932L73.8926 124.904C80.1332 122.151 87.9423 121.149 95.3176 121.917Z" fill="#3857CC"/>
<path d="M73.8926 124.904L73.8593 134.933C72.8915 135.366 71.9571 135.834 71.0894 136.351C68.9702 137.586 67.2683 138.971 66.0001 140.456L66.0335 130.427C67.3016 128.942 69.0036 127.557 71.1228 126.323C72.0071 125.805 72.9415 125.338 73.8926 124.904Z" fill="#3857CC"/>
<path d="M66.0335 130.41L66.0001 140.438C64.0979 142.658 63.1301 145.077 63.1301 147.497L63.1635 137.468C63.1635 135.049 64.1146 132.629 66.0335 130.41Z" fill="#3857CC"/>
<path d="M126.554 137.652L126.521 146.98C126.504 152.286 123.017 157.576 116.075 161.614C102.076 169.756 79.2991 169.756 65.1993 161.614C58.1077 157.526 54.5703 152.136 54.587 146.78L54.6204 137.452C54.6037 142.825 58.1411 148.198 65.2327 152.286C79.3324 160.429 102.109 160.429 116.109 152.286C123.05 148.248 126.537 142.959 126.554 137.652Z" fill="#96AAC9"/>
<path d="M126.554 137.652L126.521 146.98C126.504 150.15 125.253 153.337 122.75 156.241L122.783 146.913C125.286 144.01 126.537 140.839 126.554 137.652Z" fill="#96AAC9"/>
<path d="M122.783 146.913L122.75 156.241C121.081 158.176 118.845 159.995 116.058 161.614C114.907 162.281 113.689 162.898 112.421 163.466L112.454 154.138C113.722 153.571 114.94 152.953 116.092 152.286C118.878 150.667 121.114 148.849 122.783 146.913Z" fill="#96AAC9"/>
<path d="M112.454 154.139L112.421 163.466C104.261 167.087 94.0161 168.389 84.3215 167.387L84.3549 158.06C94.0495 159.061 104.295 157.76 112.454 154.139Z" fill="#D9E1EE"/>
<path d="M84.355 158.06L84.3216 167.387C79.0822 166.853 73.993 165.635 69.5044 163.733L69.5377 154.405C74.0263 156.307 79.1156 157.526 84.355 158.06Z" fill="#96AAC9"/>
<path d="M69.5377 154.422L69.5043 163.749C68.0026 163.115 66.5676 162.414 65.1993 161.63C58.1077 157.542 54.5703 152.152 54.587 146.796L54.6204 137.469C54.6037 142.842 58.1411 148.215 65.2327 152.303C66.5843 153.07 68.0193 153.788 69.5377 154.422Z" fill="#0A1D33"/>
<path d="M115.924 122.818C130.024 130.961 130.091 144.143 116.091 152.286C102.091 160.428 79.3148 160.428 65.2151 152.286C51.1154 144.143 51.0486 130.961 65.0483 122.818C79.0646 114.675 101.841 114.675 115.924 122.818Z" fill="#072342"/>
<path fill-rule="evenodd" clip-rule="evenodd" d="M125.862 122.592C125.876 117.327 122.401 112.055 115.441 108.034C101.608 100.058 79.2657 100.058 65.5164 108.034C58.6636 112.022 55.247 117.241 55.2626 122.461C55.2626 122.482 55.2626 122.503 55.2626 122.524L55.2626 122.593L55.2626 122.659L55.2626 122.726L55.2626 122.793L55.2626 122.859L55.2626 122.926L55.2626 122.993L55.2626 123.06L55.2626 123.127L55.2626 123.193L55.2626 123.26L55.2626 123.327L55.2626 123.393L55.2626 123.452L55.2626 123.51L55.2626 123.577L55.2626 123.644L55.2626 123.711L55.2626 123.777L55.2626 123.844L55.2626 123.911L55.2626 123.977L55.2626 124.044L55.2626 124.111L55.2626 124.178L55.2626 124.244L55.2626 124.311L55.2626 124.378L55.2626 124.445L55.2626 124.511L55.2626 124.578L55.2626 124.645L55.2626 124.712L55.2626 124.778L55.2626 124.845L55.2626 124.903L55.2626 124.962L55.2626 125.029L55.2626 125.096L55.2626 125.162L55.2626 125.229L55.2626 125.296L55.2626 125.363L55.2626 125.429L55.2626 125.496L55.2626 125.563L55.2626 125.629L55.2626 125.696L55.2626 125.763L55.2626 125.83L55.2626 125.896L55.2626 125.963L55.2626 126.03L55.2626 126.096L55.2626 126.163L55.2626 126.23L55.2626 126.297L55.2626 126.355L55.2626 126.414L55.2626 126.48L55.2626 126.547L55.2626 126.614L55.2626 126.681L55.2626 126.747L55.2626 126.814L55.2626 126.881L55.2626 126.948L55.2626 127.014L55.2626 127.081L55.2626 127.148L55.2626 127.215L55.2626 127.281L55.2626 127.348L55.2626 127.415L55.2626 127.482L55.2626 127.548L55.2626 127.615L55.2626 127.682L55.2626 127.748L55.2626 127.807L55.2626 127.865L55.2626 127.932L55.2626 127.999L55.2626 128.065L55.2626 128.132L55.2626 128.199L55.2626 128.266L55.2626 128.333L55.2626 128.399L55.2626 128.466L55.2626 128.533L55.2626 128.599L55.2626 128.666L55.2626 128.733L55.2626 128.8L55.2626 128.867L55.2626 128.933L55.2626 129L55.2626 129.066L55.2626 129.133L55.2626 129.2L55.2626 129.258L55.2626 129.317L55.2626 129.384L55.2626 129.45L55.2626 129.517L55.2626 129.584L55.2626 129.651L55.2626 129.717L55.2626 129.784L55.2626 129.851L55.2626 129.918L55.2626 129.984L55.2626 130.051L55.2626 130.118L55.2626 130.185L55.2626 130.251L55.2626 130.318L55.2626 130.385L55.2626 130.452L55.2626 130.518L55.2626 130.585L55.2626 130.652L55.2626 130.71L55.2626 130.769L55.2626 130.836L55.2626 130.902L55.2626 130.969L55.2626 131.035L55.2626 131.102L55.2626 131.169L55.2626 131.236L55.2626 131.303L55.2626 131.369L55.2626 131.436L55.2626 131.503L55.2626 131.569L55.2626 131.636L55.2626 131.703L55.2626 131.77L55.2626 131.837L55.2626 131.903L55.2626 131.97L55.2626 132.037L55.2626 132.104L55.2626 132.162L55.2626 132.22L55.2626 132.287L55.2626 132.354L55.2626 132.421L55.2626 132.487L55.2626 132.554L55.2626 132.621L55.2626 132.687L55.2626 132.754L55.2626 132.821L55.2626 132.888L55.2626 132.955L55.2626 133.021L55.2626 133.088L55.2626 133.155L55.2626 133.221L55.2626 133.288L55.2626 133.355L55.2626 133.422L55.2626 133.489L55.2626 133.547L55.2626 133.605L55.2626 133.672L55.2626 133.739L55.2626 133.806L55.2626 133.872L55.2626 133.939L55.2626 134.006L55.2626 134.072L55.2626 134.139L55.2626 134.206L55.2626 134.273L55.2626 134.34L55.2626 134.406L55.2626 134.473L55.2626 134.54L55.2626 134.606L55.2626 134.673L55.2626 134.74L55.2626 134.807L55.2626 134.874L55.2626 134.94L55.2626 134.998L55.2626 135.057L55.2626 135.124L55.2626 135.19L55.2626 135.257L55.2626 135.324L55.2626 135.391L55.2626 135.458L55.2626 135.524L55.2626 135.591L55.2626 135.658C55.2479 140.922 58.7228 146.194 65.6832 150.216C79.516 158.208 101.875 158.208 115.608 150.216C122.46 146.228 125.876 141.011 125.862 135.791V135.723V135.657V135.59V135.524V135.456V135.39V135.323V135.256V135.19L125.862 135.131L125.862 135.074V135.007V134.941V134.873V134.807V134.74V134.673V134.606V134.54V134.473V134.406V134.34V134.273V134.206V134.139V134.072V134.006V133.939V133.872V133.806V133.739L125.862 133.681L125.862 133.622V133.554V133.488V133.421V133.354V133.287V133.221V133.154V133.087V133.02V132.954V132.887V132.82V132.753V132.687V132.62V132.553V132.486V132.42V132.353L125.862 132.294L125.862 132.237V132.17V132.103V132.037V131.97V131.903V131.837V131.77V131.703V131.636V131.57V131.503V131.436V131.369V131.303V131.236V131.169V131.102V131.036V130.969V130.902L125.862 130.844L125.862 130.785V130.718V130.651V130.584V130.517V130.451V130.384V130.318V130.251V130.184V130.117V130.05V129.984V129.917V129.85V129.783V129.717V129.65V129.583V129.516V129.45L125.862 129.391L125.862 129.334V129.267V129.2V129.133V129.067V129V128.933V128.866V128.8V128.733V128.666V128.599V128.533V128.466V128.4V128.332V128.266V128.199V128.132V128.066V127.999L125.862 127.941L125.862 127.882V127.814V127.748V127.681V127.614V127.547V127.481V127.414V127.347V127.28V127.214V127.147V127.08V127.014V126.947V126.88V126.814V126.747V126.68V126.613V126.546L125.862 126.488L125.862 126.43V126.364V126.297V126.23V126.164V126.097V126.03V125.963V125.896V125.83V125.763V125.696V125.63V125.563V125.496V125.429V125.362V125.296V125.229V125.162V125.095L125.862 125.037L125.862 124.978V124.911V124.844V124.777V124.711V124.644V124.577V124.511V124.444V124.377V124.31V124.244V124.177V124.11V124.043V123.977V123.91V123.843V123.776V123.709V123.643L125.862 123.584L125.862 123.527V123.46V123.393V123.327V123.26V123.193V123.126V123.06V122.993V122.926V122.859V122.793V122.726L125.862 122.663C125.862 122.639 125.862 122.615 125.862 122.592Z" fill="url(#paint0_linear)"/>
<path d="M118.011 110.203L117.977 120.231C117.994 116.143 115.291 112.038 109.885 108.918C99.1387 102.711 81.7685 102.711 71.1061 108.918C65.7999 112.005 63.1468 116.026 63.1301 120.064L63.1635 110.036C63.1802 105.998 65.8333 101.96 71.1395 98.8898C81.8185 92.6826 99.1721 92.6826 109.918 98.8898C115.308 102.01 118.011 106.115 118.011 110.203Z" fill="#3857CC"/>
<path d="M118.011 110.203L117.977 120.232C117.994 116.143 115.291 112.039 109.884 108.918C108.85 108.318 107.749 107.784 106.597 107.3L106.631 97.2715C107.782 97.7554 108.883 98.2893 109.918 98.89C115.307 102.01 118.011 106.115 118.011 110.203Z" fill="#3857CC"/>
<path d="M106.631 97.2715L106.597 107.3C103.16 105.848 99.2889 104.93 95.3009 104.513L95.3343 94.4849C99.3222 94.902 103.193 95.8198 106.631 97.2715Z" fill="#3857CC"/>
<path d="M95.3176 94.4849L95.2842 104.513C87.8922 103.746 80.0832 104.747 73.8593 107.5L73.8926 97.4717C80.1332 94.7185 87.9423 93.7173 95.3176 94.4849Z" fill="#3857CC"/>
<path d="M73.8926 97.4712L73.8593 107.5C72.8915 107.933 71.9571 108.401 71.0894 108.918C68.9702 110.153 67.2683 111.538 66.0001 113.023L66.0335 102.994C67.3016 101.509 69.0036 100.124 71.1228 98.8895C72.0071 98.3723 72.9415 97.905 73.8926 97.4712Z" fill="#3857CC"/>
<path d="M66.0335 102.978L66.0001 113.006C64.0979 115.226 63.1301 117.645 63.1301 120.065L63.1635 110.036C63.1635 107.617 64.1146 105.197 66.0335 102.978Z" fill="#3857CC"/>
<path d="M126.554 110.22L126.521 119.547C126.504 124.853 123.017 130.143 116.075 134.181C102.076 142.324 79.2991 142.324 65.1993 134.181C58.1077 130.093 54.5703 124.703 54.587 119.347L54.6204 110.02C54.6037 115.392 58.1411 120.765 65.2327 124.853C79.3324 132.996 102.109 132.996 116.109 124.853C123.05 120.815 126.537 115.526 126.554 110.22Z" fill="#96AAC9"/>
<path d="M126.554 110.22L126.521 119.548C126.504 122.718 125.253 125.905 122.75 128.809L122.783 119.481C125.286 116.578 126.537 113.407 126.554 110.22Z" fill="#0A1D33"/>
<path d="M122.783 119.48L122.75 128.808C121.081 130.744 118.845 132.562 116.058 134.181C114.907 134.848 113.689 135.466 112.421 136.033L112.454 126.706C113.722 126.138 114.94 125.521 116.092 124.853C118.878 123.235 121.114 121.416 122.783 119.48Z" fill="#0A1D33"/>
<path d="M112.454 126.706L112.421 136.033C104.261 139.654 94.0161 140.955 84.3215 139.954L84.3549 130.627C94.0495 131.628 104.295 130.326 112.454 126.706Z" fill="#132943"/>
<path d="M84.355 130.627L84.3216 139.954C79.0822 139.42 73.993 138.202 69.5044 136.3L69.5377 126.973C74.0263 128.875 79.1156 130.093 84.355 130.627Z" fill="#0A1D33"/>
<path d="M69.5377 126.989L69.5043 136.316C68.0026 135.682 66.5676 134.981 65.1993 134.197C58.1077 130.109 54.5703 124.719 54.587 119.363L54.6204 110.036C54.6037 115.409 58.1411 120.781 65.2327 124.87C66.5843 125.637 68.0193 126.355 69.5377 126.989Z" fill="#0A1D33"/>
<path d="M115.924 95.3859C130.024 103.529 130.091 116.711 116.091 124.854C102.091 132.996 79.3148 132.996 65.2151 124.854C51.1154 116.711 51.0486 103.529 65.0483 95.3859C79.0646 87.2431 101.841 87.2431 115.924 95.3859Z" fill="#0A2340"/>
<path fill-rule="evenodd" clip-rule="evenodd" d="M126.186 95.5422C126.202 90.2773 122.727 85.0042 115.765 80.982C101.933 73.006 79.59 73.006 65.8407 80.982C58.9892 84.9697 55.5726 90.1869 55.587 95.4067C55.5869 95.4292 55.5869 95.4517 55.587 95.4742L55.587 95.541L55.587 95.6076L55.587 95.6741L55.587 95.7409L55.587 95.8077L55.587 95.8745L55.587 95.9413L55.587 96.008L55.587 96.075L55.587 96.1416L55.587 96.2081L55.587 96.2749L55.587 96.3418L55.5869 96.4001L55.587 96.4584L55.587 96.5252L55.587 96.592L55.587 96.6588L55.587 96.7255L55.587 96.7925L55.587 96.8591L55.587 96.9256L55.587 96.9924L55.587 97.0593L55.587 97.1261L55.587 97.1928L55.587 97.2595L55.587 97.3263L55.587 97.393L55.587 97.4596L55.587 97.5264L55.587 97.5931L55.587 97.6599L55.587 97.7269L55.587 97.7935L55.5869 97.8518L55.587 97.9102L55.587 97.9769L55.587 98.0437L55.587 98.1104L55.587 98.1771L55.587 98.2439L55.587 98.3106L55.587 98.3774L55.587 98.4444L55.587 98.511L55.587 98.5776L55.587 98.6444L55.587 98.7111L55.587 98.7779L55.587 98.8446L55.587 98.9114L55.587 98.9782L55.587 99.0448L55.587 99.1115L55.587 99.1783L55.587 99.245L55.5869 99.3035L55.587 99.3619L55.587 99.4286L55.587 99.4953L55.587 99.5621L55.587 99.6289L55.587 99.6959L55.587 99.7625L55.587 99.829L55.587 99.8958L55.587 99.9625L55.587 100.029L55.587 100.096L55.587 100.163L55.587 100.23L55.587 100.296L55.587 100.363L55.587 100.43L55.587 100.497L55.587 100.563L55.587 100.63L55.587 100.697L55.5869 100.755L55.587 100.814L55.587 100.88L55.587 100.947L55.587 101.014L55.587 101.08L55.587 101.147L55.587 101.214L55.587 101.281L55.587 101.348L55.587 101.415L55.587 101.481L55.587 101.548L55.587 101.614L55.587 101.681L55.587 101.748L55.587 101.815L55.587 101.882L55.587 101.948L55.587 102.015L55.587 102.082L55.587 102.148L55.5869 102.207L55.587 102.265L55.587 102.332L55.587 102.399L55.587 102.466L55.587 102.532L55.587 102.599L55.587 102.666L55.587 102.732L55.587 102.799L55.587 102.866L55.587 102.933L55.587 103L55.587 103.066L55.587 103.133L55.587 103.2L55.587 103.266L55.587 103.333L55.587 103.4L55.587 103.467L55.587 103.533L55.587 103.6L55.5869 103.659L55.587 103.717L55.587 103.784L55.587 103.851L55.587 103.917L55.587 103.984L55.587 104.051L55.587 104.117L55.587 104.184L55.587 104.251L55.587 104.318L55.587 104.385L55.587 104.451L55.587 104.518L55.587 104.585L55.587 104.651L55.587 104.718L55.587 104.785L55.587 104.852L55.587 104.918L55.587 104.985L55.587 105.052L55.5869 105.11L55.587 105.169L55.587 105.235L55.587 105.302L55.587 105.369L55.587 105.436L55.587 105.502L55.587 105.569L55.587 105.636L55.587 105.703L55.587 105.769L55.587 105.836L55.587 105.903L55.587 105.97L55.587 106.036L55.587 106.103L55.587 106.17L55.587 106.237L55.587 106.303L55.587 106.37L55.587 106.437L55.5869 106.495L55.587 106.554L55.587 106.62L55.587 106.687L55.587 106.754L55.587 106.82L55.587 106.887L55.587 106.954L55.587 107.021L55.587 107.088L55.587 107.154L55.587 107.221L55.587 107.288L55.587 107.354L55.587 107.421L55.587 107.488L55.587 107.555L55.587 107.622L55.587 107.688L55.587 107.755L55.587 107.822L55.587 107.888L55.5869 107.947L55.587 108.005L55.587 108.072L55.587 108.139L55.587 108.205L55.587 108.272L55.587 108.339L55.587 108.406L55.587 108.473L55.587 108.539L55.587 108.606C55.5722 113.87 59.0472 119.142 66.0076 123.164C79.8403 131.157 102.2 131.157 115.932 123.164C122.784 119.176 126.201 113.959 126.186 108.739V108.672V108.605V108.538V108.472V108.405V108.338V108.271V108.205V108.138L126.186 108.079L126.186 108.022V107.955V107.889V107.822V107.755V107.688V107.622V107.554V107.488V107.422V107.355V107.288V107.221V107.154V107.088V107.021V106.954V106.888V106.821V106.754V106.687L126.186 106.629L126.186 106.57V106.502V106.436V106.369V106.302V106.236V106.169V106.102V106.035V105.969V105.902V105.835V105.768V105.702V105.635V105.568V105.501V105.435V105.368V105.301L126.186 105.243L126.186 105.185V105.119V105.052V104.985V104.918V104.852V104.785V104.718V104.651V104.585V104.518V104.451V104.384V104.318V104.251V104.184V104.117V104.051V103.984V103.917V103.85L126.186 103.792L126.186 103.733V103.666V103.599V103.532V103.466V103.399V103.333V103.266V103.199V103.132V103.065V102.998V102.932V102.865V102.798V102.732V102.665V102.598V102.531V102.464V102.398L126.186 102.339L126.186 102.282V102.215V102.148V102.082V102.015V101.948V101.881V101.815V101.748V101.681V101.615V101.548V101.481V101.414V101.348V101.281V101.214V101.147V101.081V101.014V100.947L126.186 100.889L126.186 100.83V100.763V100.696V100.629V100.562V100.495V100.429V100.362V100.296V100.229V100.162V100.095V100.028V99.9615V99.8952V99.8285V99.7615V99.6947V99.628V99.5611V99.4946L126.186 99.436L126.186 99.3785V99.3118V99.2449V99.1784V99.1117V99.045V98.9781V98.9114V98.8445V98.778V98.7111V98.6445V98.578V98.5108V98.4442V98.3774V98.3105V98.244V98.1772V98.1104V98.0438L126.186 97.9855L126.186 97.9265V97.8594V97.7925V97.7257V97.659V97.5921V97.5256V97.4589V97.3922V97.3253V97.2588V97.1919V97.1249V97.0582V96.9917V96.9252V96.8581V96.7914V96.7246V96.6577V96.5911L126.186 96.5325L126.186 96.4755V96.4083V96.3416V96.2752V96.2086V96.1415V96.0748V96.008V95.9411V95.8745V95.8076V95.7412V95.6746V95.6076C126.186 95.5858 126.186 95.564 126.186 95.5422Z" fill="url(#paint1_linear)"/>
<path d="M118.011 83.472L117.977 93.5003C117.994 89.4122 115.291 85.3075 109.885 82.1872C99.1387 75.9799 81.7685 75.9799 71.1061 82.1872C65.7999 85.2741 63.1468 89.2954 63.1301 93.3335L63.1635 83.3051C63.1802 79.2671 65.8333 75.2291 71.1395 72.1588C81.8185 65.9516 99.1721 65.9516 109.918 72.1588C115.308 75.2958 118.011 79.3839 118.011 83.472Z" fill="#3857CC"/>
<path d="M118.011 83.4722L117.977 93.5006C117.994 89.4125 115.291 85.3077 109.885 82.1874C108.85 81.5867 107.749 81.0527 106.597 80.5689L106.631 70.5405C107.782 71.0244 108.883 71.5584 109.918 72.1591C115.308 75.2961 118.011 79.3842 118.011 83.4722Z" fill="#3857CC"/>
<path d="M106.631 70.541L106.597 80.5693C103.16 79.1176 99.2889 78.1999 95.3009 77.7827L95.3343 67.7544C99.3222 68.1715 103.193 69.106 106.631 70.541Z" fill="#3857CC"/>
<path d="M95.3176 67.7542L95.2842 77.7825C87.8922 77.015 80.0832 78.0162 73.8593 80.7694L73.8926 70.741C80.1332 68.0045 87.9423 67.0033 95.3176 67.7542Z" fill="#3857CC"/>
<path d="M73.8926 70.7578L73.8593 80.7861C72.8915 81.22 71.9571 81.6872 71.0894 82.2045C68.9702 83.4392 67.2683 84.8242 66.0001 86.3092L66.0335 76.2809C67.3016 74.7958 69.0036 73.4109 71.1228 72.1761C72.0071 71.6588 72.9415 71.175 73.8926 70.7578Z" fill="#3857CC"/>
<path d="M66.0335 76.2637L66.0001 86.292C64.0979 88.5113 63.1301 90.9307 63.1301 93.3502L63.1635 83.3219C63.1635 80.9024 64.1146 78.4829 66.0335 76.2637Z" fill="#3857CC"/>
<path d="M126.554 83.5049L126.521 92.8325C126.504 98.1386 123.017 103.428 116.075 107.466C102.076 115.609 79.2991 115.609 65.1993 107.466C58.1077 103.378 54.5703 97.9885 54.587 92.6322L54.6204 83.3047C54.6037 88.6776 58.1411 94.0505 65.2327 98.1386C79.3324 106.281 102.109 106.281 116.109 98.1386C123.05 94.0839 126.537 88.7944 126.554 83.5049Z" fill="#96AAC9"/>
<path d="M126.554 83.5049L126.521 92.8324C126.504 96.0028 125.253 99.1898 122.75 102.093L122.783 92.7656C125.286 89.8456 126.537 86.6752 126.554 83.5049Z" fill="#0A1D33"/>
<path d="M122.783 92.749L122.75 102.077C121.081 104.012 118.845 105.831 116.058 107.449C114.907 108.117 113.689 108.734 112.421 109.302L112.454 99.9741C113.722 99.4068 114.94 98.7894 116.092 98.1219C118.878 96.5201 121.114 94.7013 122.783 92.749Z" fill="#0A1D33"/>
<path d="M112.454 99.9746L112.421 109.302C104.261 112.923 94.0161 114.225 84.3215 113.223L84.3549 103.896C94.0495 104.914 104.295 103.595 112.454 99.9746Z" fill="#132943"/>
<path d="M84.355 103.913L84.3216 113.24C79.0822 112.706 73.993 111.488 69.5044 109.586L69.5377 100.258C74.0263 102.161 79.1156 103.362 84.355 103.913Z" fill="#0A1D33"/>
<path d="M69.5377 100.258L69.5043 109.586C68.0026 108.952 66.5676 108.251 65.1993 107.45C58.1077 103.362 54.5703 97.9723 54.587 92.6161L54.6204 83.2886C54.6037 88.6615 58.1411 94.0344 65.2327 98.1225C66.5843 98.9234 68.0193 99.6242 69.5377 100.258Z" fill="#0A1D33"/>
<path d="M115.924 68.6716C130.024 76.8144 130.091 89.9964 116.091 98.1392C102.091 106.282 79.3148 106.282 65.2151 98.1392C51.1154 89.9964 51.0486 76.8144 65.0483 68.6716C79.0646 60.5288 101.841 60.5288 115.924 68.6716Z" fill="#0A2340"/>
<path fill-rule="evenodd" clip-rule="evenodd" d="M125.862 68.6953C125.876 63.4313 122.401 58.1595 115.441 54.138C101.608 46.1454 79.2657 46.1454 65.5164 54.138C58.6635 58.1265 55.2469 63.345 55.2626 68.5658C55.2626 68.5867 55.2626 68.6076 55.2626 68.6284L55.2626 68.6972L55.2626 68.7637L55.2626 68.8304L55.2626 68.8974L55.2626 68.9642L55.2626 69.0225L55.2626 69.0807L55.2626 69.1475L55.2626 69.2143L55.2626 69.2811L55.2626 69.348L55.2626 69.4147L55.2626 69.4812L55.2626 69.5479L55.2626 69.6149L55.2626 69.6816L55.2626 69.7483L55.2626 69.8151L55.2626 69.882L55.2626 69.9487L55.2626 70.0151L55.2626 70.0819L55.2626 70.1489L55.2626 70.2156L55.2626 70.2824L55.2626 70.3492L55.2626 70.4157L55.2626 70.474L55.2626 70.5326L55.2626 70.5995L55.2626 70.6662L55.2626 70.7326L55.2626 70.7994L55.2626 70.8664L55.2626 70.9331L55.2626 70.9999L55.2626 71.0667L55.2626 71.1333L55.2626 71.2L55.2626 71.2666L55.2626 71.3334L55.2626 71.4002L55.2626 71.467L55.2626 71.5339L55.2626 71.6007L55.2626 71.6672L55.2626 71.7338L55.2626 71.8008L55.2626 71.8675L55.2626 71.9258L55.2626 71.9841L55.2626 72.0509L55.2626 72.1177L55.2626 72.1845L55.2626 72.2514L55.2626 72.3182L55.2626 72.3847L55.2626 72.4513L55.2626 72.5183L55.2626 72.5851L55.2626 72.6517L55.2626 72.7185L55.2626 72.7853L55.2626 72.852L55.2626 72.9187L55.2626 72.9853L55.2626 73.0521L55.2626 73.1189L55.2626 73.1858L55.2626 73.2526L55.2626 73.3191L55.2626 73.3774L55.2626 73.436L55.2626 73.5028L55.2626 73.5694L55.2626 73.636L55.2626 73.7028L55.2626 73.7698L55.2626 73.8365L55.2626 73.9032L55.2626 73.9699L55.2626 74.0367L55.2626 74.1035L55.2626 74.1702L55.2626 74.2368L55.2626 74.3036L55.2626 74.3704L55.2626 74.4373L55.2626 74.5041L55.2626 74.5706L55.2626 74.6372L55.2626 74.704L55.2626 74.7708L55.2626 74.8292L55.2626 74.8875L55.2626 74.9543L55.2626 75.0212L55.2626 75.088L55.2626 75.1547L55.2626 75.2213L55.2626 75.2881L55.2626 75.3548L55.2626 75.4216L55.2626 75.4884L55.2626 75.5551L55.2626 75.6219L55.2626 75.6886L55.2626 75.7554L55.2626 75.8221L55.2626 75.8887L55.2626 75.9555L55.2626 76.0223L55.2626 76.0892L55.2626 76.156L55.2626 76.2228L55.2626 76.2811L55.2626 76.3394L55.2626 76.4061L55.2626 76.4728L55.2626 76.5396L55.2626 76.6063L55.2626 76.6731L55.2626 76.7399L55.2626 76.8065L55.2626 76.8733L55.2626 76.9401L55.2626 77.0069L55.2626 77.0735L55.2626 77.1402L55.2626 77.207L55.2626 77.2737L55.2626 77.3405L55.2626 77.4073L55.2626 77.4742L55.2626 77.5409L55.2626 77.6074L55.2626 77.6741L55.2626 77.7326L55.2626 77.7909L55.2626 77.8577L55.2626 77.9245L55.2626 77.9912L55.2626 78.058L55.2626 78.1248L55.2626 78.1916L55.2626 78.2582L55.2626 78.3249L55.2626 78.3917L55.2626 78.4585L55.2626 78.5252L55.2626 78.592L55.2626 78.6588L55.2626 78.7257L55.2626 78.7924L55.2626 78.8588L55.2626 78.9256L55.2626 78.9924L55.2626 79.0592L55.2626 79.1258L55.2626 79.1841L55.2626 79.2427L55.2626 79.3095L55.2626 79.3763L55.2626 79.4429L55.2626 79.5096L55.2626 79.5763L55.2626 79.6431L55.2626 79.7101L55.2626 79.7769L55.2626 79.8435L55.2626 79.9103L55.2626 79.9771L55.2626 80.0437L55.2626 80.1103L55.2626 80.1771L55.2626 80.2439L55.2626 80.3107L55.2626 80.3773L55.2626 80.444L55.2626 80.5107L55.2626 80.5775L55.2626 80.6361L55.2626 80.6944L55.2626 80.761L55.2626 80.8278L55.2626 80.8946L55.2626 80.9614L55.2626 81.0282L55.2626 81.0948L55.2626 81.1615L55.2626 81.2282L55.2626 81.295L55.2626 81.3618L55.2626 81.4286L55.2626 81.4954L55.2626 81.5622L55.2626 81.6288L55.2626 81.6955L55.2626 81.7622C55.2479 87.0265 58.7228 92.2988 65.6832 96.3205C79.516 104.313 101.875 104.313 115.608 96.3205C122.46 92.3327 125.876 87.1152 125.862 81.8952V81.8279V81.7615V81.6949V81.6279V81.5613V81.4944V81.4277V81.3608V81.2941V81.2274V81.1609V81.0939V81.0273V80.9604V80.8937V80.8269L125.862 80.7688L125.862 80.711V80.6443V80.5775V80.5108V80.4443V80.3773V80.3107V80.2438V80.1773V80.1106V80.0438V79.977V79.9104V79.8436V79.7766V79.7098V79.6431V79.5764V79.5099V79.4429V79.3763L125.862 79.3177L125.862 79.2589V79.1917V79.1251V79.0583V78.9914V78.925V78.8584V78.7913V78.7246V78.6579V78.591V78.5243V78.4574V78.3909V78.3242V78.2575V78.1906V78.1239V78.057V77.9903V77.9234L125.862 77.8652L125.862 77.8077V77.7408V77.6745V77.6078V77.5407V77.474V77.4073V77.3404V77.2738V77.207V77.1406V77.0735V77.0069V76.94V76.8735V76.8066V76.7398V76.6731V76.6062V76.5397V76.4729L125.862 76.4147L125.862 76.3559V76.2896V76.2227V76.1557V76.089V76.0222V75.9555V75.8891V75.822V75.7555V75.6885V75.622V75.5551V75.4883V75.4216V75.3547V75.2882V75.2215V75.1548V75.0877V75.021L125.862 74.963L125.862 74.9039V74.8363V74.77V74.703V74.6368V74.5699V74.5029V74.4362V74.3695V74.3027V74.2363V74.1692V74.1026V74.0357V73.9692V73.9024V73.8354V73.7686V73.702V73.6354V73.5686L125.862 73.5098L125.862 73.4526V73.3862V73.3193V73.2524V73.1856V73.1189V73.0521V72.9857V72.9186V72.8521V72.7851V72.7187V72.6517V72.5848V72.5182V72.4518V72.3849V72.318V72.2512V72.1845V72.1176L125.862 72.0596L125.862 72.0006V71.9332V71.8665V71.7997V71.7334V71.6665V71.5996V71.5328V71.4661V71.3992V71.3327V71.266V71.1993V71.1325V71.0657V70.999V70.932V70.8652V70.7988V70.7322V70.6651L125.862 70.6065L125.862 70.5492V70.4828V70.4159V70.3491V70.2824V70.2154V70.1487V70.0822V70.0156V69.9485V69.8818V69.8152V69.7484V69.6814V69.6147V69.5482V69.4816V69.4145V69.3478V69.2811V69.2142L125.862 69.1562L125.862 69.0972V69.0298V68.9631V68.8962V68.8298L125.862 68.7665C125.862 68.7427 125.862 68.719 125.862 68.6953Z" fill="url(#paint2_linear)"/>
<path d="M118.011 56.9241L117.977 66.9525C117.994 62.8644 115.291 58.7596 109.885 55.6393C99.1387 49.4321 81.7685 49.4321 71.1061 55.6393C65.7999 58.7262 63.1468 62.7476 63.1301 66.7856L63.1635 56.7573C63.1802 52.7193 65.8333 48.6812 71.1395 45.611C81.8185 39.4038 99.1721 39.4038 109.918 45.611C115.308 48.7313 118.011 52.8194 118.011 56.9241Z" fill="#3857CC"/>
<path d="M118.011 56.9244L117.977 66.9527C117.994 62.8646 115.291 58.7599 109.884 55.6396C108.85 55.0389 107.749 54.5049 106.597 54.021L106.631 43.9927C107.782 44.4766 108.883 45.0105 109.918 45.6112C115.307 48.7315 118.011 52.8196 118.011 56.9244Z" fill="#3857CC"/>
<path d="M106.631 43.9926L106.597 54.021C103.16 52.5693 99.2889 51.6515 95.3009 51.2344L95.3343 41.2061C99.3222 41.6065 103.193 42.5409 106.631 43.9926Z" fill="#3857CC"/>
<path d="M95.3176 41.206L95.2842 51.2344C87.8922 50.4668 80.0832 51.468 73.8593 54.2212L73.8926 44.1928C80.1332 41.4396 87.9423 40.4385 95.3176 41.206Z" fill="#3857CC"/>
<path d="M73.8926 44.1934L73.8593 54.2217C72.8915 54.6556 71.9571 55.1227 71.0894 55.64C68.9702 56.8748 67.2683 58.2597 66.0001 59.7448L66.0335 49.7165C67.3016 48.2314 69.0036 46.8465 71.1228 45.6117C72.0071 45.0944 72.9415 44.6272 73.8926 44.1934Z" fill="#3857CC"/>
<path d="M66.0335 49.6992L66.0001 59.7276C64.0979 61.9468 63.1301 64.3663 63.1301 66.7858L63.1635 56.7574C63.1635 54.338 64.1146 51.9185 66.0335 49.6992Z" fill="#3857CC"/>
<path d="M126.554 56.9409L126.521 66.2685C126.504 71.5747 123.017 76.8641 116.075 80.9022C102.076 89.045 79.2991 89.045 65.1993 80.9022C58.1077 76.8141 54.5703 71.4245 54.587 66.0682L54.6204 56.7407C54.6037 62.1136 58.1411 67.4866 65.2327 71.5746C79.3324 79.7175 102.109 79.7175 116.109 71.5746C123.05 67.5366 126.537 62.2471 126.554 56.9409Z" fill="#96AAC9"/>
<path d="M126.554 56.9409L126.521 66.2685C126.504 69.4388 125.253 72.6259 122.75 75.5292L122.783 66.2017C125.286 63.2983 126.537 60.128 126.554 56.9409Z" fill="#0A1D33"/>
<path d="M122.783 66.2017L122.75 75.5292C121.081 77.4648 118.845 79.2835 116.058 80.9021C114.907 81.5695 113.689 82.1869 112.421 82.7543L112.454 73.4267C113.722 72.8594 114.94 72.242 116.092 71.5746C118.878 69.956 121.114 68.1372 122.783 66.2017Z" fill="#0A1D33"/>
<path d="M112.454 73.4268L112.421 82.7543C104.261 86.3752 94.0161 87.6767 84.3215 86.6755L84.3549 77.348C94.0495 78.3492 104.295 77.0476 112.454 73.4268Z" fill="#132943"/>
<path d="M84.355 77.3481L84.3216 86.6756C79.0822 86.1417 73.993 84.9236 69.5044 83.0214L69.5377 73.6938C74.0263 75.5961 79.1156 76.8141 84.355 77.3481Z" fill="#0A1D33"/>
<path d="M69.5377 73.6938L69.5043 83.0213C68.0026 82.3872 66.5676 81.6864 65.1993 80.9022C58.1077 76.8141 54.5703 71.4245 54.587 66.0682L54.6204 56.7407C54.6037 62.1136 58.1411 67.4866 65.2327 71.5746C66.5843 72.3589 68.0193 73.0597 69.5377 73.6938Z" fill="#0A1D33"/>
<path d="M115.924 42.1071C130.024 50.2499 130.091 63.4319 116.091 71.5747C102.091 79.7175 79.3148 79.7175 65.2151 71.5747C51.1154 63.4319 51.0486 50.2499 65.0483 42.1071C79.0646 33.9643 101.841 33.9643 115.924 42.1071Z" fill="#0A2340"/>
<path d="M196.011 129.5L195.977 139.528C195.994 135.44 193.291 131.335 187.885 128.215C177.139 122.008 159.769 122.008 149.106 128.215C143.8 131.302 141.147 135.323 141.13 139.361L141.164 129.333C141.18 125.295 143.833 121.257 149.14 118.187C159.819 111.979 177.172 111.979 187.918 118.187C193.324 121.307 196.027 125.412 196.011 129.5Z" fill="#3857CC"/>
<path d="M196.011 129.5L195.977 139.528C195.994 135.44 193.291 131.336 187.885 128.215C186.85 127.615 185.749 127.081 184.597 126.597L184.631 116.568C185.782 117.052 186.883 117.586 187.918 118.187C193.324 121.307 196.027 125.412 196.011 129.5Z" fill="#3857CC"/>
<path d="M184.631 116.568L184.598 126.597C181.16 125.162 177.289 124.227 173.301 123.81L173.335 113.782C177.339 114.199 181.21 115.117 184.631 116.568Z" fill="#3857CC"/>
<path d="M173.334 113.782L173.301 123.81C165.909 123.042 158.1 124.044 151.876 126.797L151.909 116.769C158.133 114.015 165.959 113.014 173.334 113.782Z" fill="#3857CC"/>
<path d="M151.91 116.785L151.876 126.813C150.908 127.247 149.974 127.715 149.106 128.232C146.987 129.467 145.285 130.852 144.017 132.337L144.05 122.308C145.319 120.823 147.02 119.438 149.14 118.203C150.024 117.67 150.942 117.202 151.91 116.785Z" fill="#3857CC"/>
<path d="M144.034 122.292L144 132.32C142.098 134.539 141.13 136.959 141.13 139.378L141.164 129.35C141.18 126.914 142.131 124.494 144.034 122.292Z" fill="#3857CC"/>
<path d="M204.57 129.517L204.537 138.845C204.52 144.151 201.033 149.44 194.091 153.478C180.092 161.621 157.315 161.621 143.216 153.478C136.124 149.39 132.587 144.001 132.603 138.644L132.637 129.317C132.62 134.69 136.157 140.063 143.249 144.151C157.349 152.294 180.125 152.294 194.125 144.151C201.066 140.113 204.554 134.823 204.57 129.517Z" fill="#96AAC9"/>
<path d="M204.571 129.517L204.537 138.845C204.521 142.015 203.269 145.202 200.766 148.105L200.8 138.778C203.303 135.875 204.554 132.704 204.571 129.517Z" fill="#96AAC9"/>
<path d="M200.8 138.777L200.766 148.105C199.098 150.04 196.862 151.859 194.075 153.478C192.924 154.145 191.706 154.763 190.438 155.33L190.471 146.002C191.739 145.435 192.957 144.818 194.109 144.15C196.895 142.532 199.131 140.713 200.8 138.777Z" fill="#96AAC9"/>
<path d="M190.471 146.003L190.438 155.33C182.278 158.951 172.033 160.253 162.338 159.252L162.372 149.924C172.05 150.925 182.295 149.624 190.471 146.003Z" fill="#D9E1EE"/>
<path d="M162.372 149.94L162.338 159.268C157.099 158.734 152.01 157.516 147.521 155.614L147.554 146.286C152.043 148.172 157.132 149.39 162.372 149.94Z" fill="#96AAC9"/>
<path d="M147.538 146.286L147.504 155.614C146.003 154.98 144.551 154.279 143.199 153.494C136.108 149.406 132.57 144.017 132.587 138.661L132.62 129.333C132.604 134.706 136.141 140.079 143.233 144.167C144.601 144.934 146.036 145.652 147.538 146.286Z" fill="#0A1D33"/>
<path d="M193.942 114.683C208.042 122.826 208.109 136.008 194.109 144.151C180.109 152.293 157.333 152.293 143.233 144.151C129.133 136.008 129.067 122.826 143.066 114.683C157.083 106.557 179.859 106.557 193.942 114.683Z" fill="#0A2340"/>
<path fill-rule="evenodd" clip-rule="evenodd" d="M203.878 114.454C203.892 109.191 200.417 103.92 193.458 99.8994C179.625 91.9235 157.282 91.9235 143.533 99.8994C136.679 103.888 133.263 109.107 133.279 114.329C133.279 114.35 133.279 114.372 133.279 114.393L133.279 114.459L133.279 114.525L133.279 114.592L133.279 114.658L133.279 114.725L133.279 114.792L133.279 114.859L133.279 114.926L133.279 114.992L133.279 115.059L133.279 115.126L133.279 115.192L133.279 115.259L133.279 115.326L133.279 115.393L133.279 115.46L133.279 115.526L133.279 115.593L133.279 115.651L133.279 115.71L133.279 115.776L133.279 115.843L133.279 115.91L133.279 115.977L133.279 116.043L133.279 116.11L133.279 116.177L133.279 116.244L133.279 116.31L133.279 116.377L133.279 116.444L133.279 116.511L133.279 116.577L133.279 116.644L133.279 116.711L133.279 116.778L133.279 116.844L133.279 116.911L133.279 116.978L133.279 117.045L133.279 117.103L133.279 117.161L133.279 117.228L133.279 117.295L133.279 117.362L133.279 117.429L133.279 117.495L133.279 117.562C133.265 122.826 136.74 128.098 143.7 132.12C157.533 140.113 179.892 140.113 193.625 132.12C200.447 128.149 203.864 122.959 203.878 117.762V117.695V117.628V117.562V117.495V117.428V117.361V117.294L203.878 117.236L203.878 117.177V117.111V117.044V116.977V116.91V116.844V116.777V116.71V116.644V116.577V116.51V116.443V116.376V116.31V116.243V116.176V116.11V116.043V115.976V115.91V115.843L203.878 115.784L203.878 115.725V115.659V115.592V115.526V115.459V115.392V115.325V115.259V115.192V115.125V115.059V114.992V114.925V114.858V114.791V114.725V114.658V114.592V114.524C203.878 114.501 203.878 114.478 203.878 114.454Z" fill="url(#paint3_linear)"/>
<path d="M196.011 102.068L195.977 112.097C195.994 108.008 193.291 103.904 187.885 100.783C177.139 94.5761 159.769 94.5761 149.106 100.783C143.8 103.87 141.147 107.892 141.13 111.93L141.164 101.901C141.18 97.8633 143.833 93.8253 149.14 90.755C159.819 84.5478 177.172 84.5478 187.918 90.755C193.324 93.8753 196.027 97.9801 196.011 102.068Z" fill="#3857CC"/>
<path d="M196.011 102.068L195.977 112.097C195.994 108.009 193.291 103.904 187.885 100.784C186.85 100.183 185.749 99.649 184.597 99.1651L184.631 89.1367C185.782 89.6206 186.883 90.1546 187.918 90.7553C193.324 93.8756 196.027 97.9803 196.011 102.068Z" fill="#3857CC"/>
<path d="M184.631 89.1367L184.598 99.165C181.16 97.73 177.289 96.7956 173.301 96.3784L173.335 86.3501C177.339 86.7672 181.21 87.685 184.631 89.1367Z" fill="#3857CC"/>
<path d="M173.334 86.3501L173.301 96.3784C165.909 95.6109 158.1 96.612 151.876 99.3652L151.909 89.3369C158.133 86.5837 165.959 85.5825 173.334 86.3501Z" fill="#3857CC"/>
<path d="M151.909 89.3535L151.876 99.3818C150.908 99.8157 149.974 100.283 149.106 100.8C146.987 102.035 145.285 103.42 144.017 104.905L144.05 94.8766C145.318 93.3915 147.02 92.0066 149.139 90.7718C150.024 90.2379 150.942 89.7707 151.909 89.3535Z" fill="#3857CC"/>
<path d="M144.034 94.8599L144 104.888C142.098 107.107 141.13 109.527 141.13 111.946L141.164 101.918C141.18 99.4819 142.131 97.0624 144.034 94.8599Z" fill="#3857CC"/>
<path d="M204.57 102.085L204.537 111.413C204.52 116.719 201.033 122.008 194.092 126.046C180.092 134.189 157.315 134.189 143.216 126.046C136.124 121.958 132.587 116.569 132.603 111.212L132.637 101.885C132.62 107.258 136.157 112.631 143.249 116.719C157.349 124.862 180.125 124.862 194.125 116.719C201.066 112.681 204.554 107.391 204.57 102.085Z" fill="#96AAC9"/>
<path d="M204.571 102.085L204.537 111.412C204.521 114.583 203.269 117.77 200.766 120.673L200.8 111.346C203.303 108.442 204.554 105.272 204.571 102.085Z" fill="#0A1D33"/>
<path d="M200.8 111.345L200.766 120.673C199.098 122.608 196.862 124.427 194.075 126.046C192.924 126.713 191.706 127.33 190.438 127.898L190.471 118.57C191.739 118.003 192.957 117.386 194.109 116.718C196.895 115.1 199.131 113.281 200.8 111.345Z" fill="#96AAC9"/>
<path d="M190.471 118.57L190.438 127.898C182.278 131.519 172.033 132.82 162.338 131.819L162.372 122.492C172.05 123.493 182.295 122.191 190.471 118.57Z" fill="#D9E1EE"/>
<path d="M162.372 122.509L162.338 131.836C157.099 131.302 152.01 130.084 147.521 128.182L147.554 118.854C152.043 120.74 157.132 121.958 162.372 122.509Z" fill="#96AAC9"/>
<path d="M147.538 118.854L147.504 128.181C146.003 127.547 144.551 126.847 143.199 126.062C136.108 121.974 132.57 116.585 132.587 111.228L132.62 101.901C132.604 107.274 136.141 112.647 143.233 116.735C144.601 117.502 146.036 118.22 147.538 118.854Z" fill="#0A1D33"/>
<path d="M193.942 87.2513C208.042 95.3941 208.109 108.576 194.109 116.719C180.109 124.862 157.333 124.862 143.233 116.719C129.133 108.576 129.067 95.3941 143.066 87.2513C157.083 79.1252 179.859 79.1252 193.942 87.2513Z" fill="#0A2340"/>
<path fill-rule="evenodd" clip-rule="evenodd" d="M203.878 87.0211C203.891 81.7583 200.416 76.4879 193.458 72.4673C179.625 64.4914 157.282 64.4914 143.533 72.4673C136.679 76.4563 133.263 81.6756 133.279 86.8972C133.279 86.918 133.279 86.9388 133.279 86.9596L133.279 87.0261L133.279 87.0927L133.279 87.1596L133.279 87.2264L133.279 87.2932L133.279 87.36L133.279 87.4268L133.279 87.4936L133.279 87.5601L133.279 87.6267L133.279 87.6935L133.279 87.7603L133.279 87.8272L133.279 87.894L133.279 87.9608L133.279 88.0274L133.279 88.094L133.279 88.1608L133.279 88.2193L133.279 88.2776L133.279 88.3442L133.279 88.4111L133.279 88.4779L133.279 88.5447L133.279 88.6115L133.279 88.6783L133.279 88.7449L133.279 88.8115L133.279 88.8783L133.279 88.945L133.279 89.0118L133.279 89.0787L133.279 89.1455L133.279 89.2122L133.279 89.2789L133.279 89.3455L133.279 89.4123L133.279 89.4791L133.279 89.5459L133.279 89.6127L133.279 89.671L133.279 89.7292L133.279 89.7962L133.279 89.863L133.279 89.9297L133.279 89.9964L133.279 90.063L133.279 90.1298L133.279 90.1966L133.279 90.2634L133.279 90.33L133.279 90.3968L133.279 90.4637L133.279 90.5304L133.279 90.5969L133.279 90.6636L133.279 90.7306L133.279 90.7974L133.279 90.8641L133.279 90.9308L133.279 90.9974L133.279 91.0642L133.279 91.1226L133.279 91.1812L133.279 91.2479L133.279 91.3144L133.279 91.3811L133.279 91.4481L133.279 91.5149L133.279 91.5816L133.279 91.6483L133.279 91.7149L133.279 91.7817L133.279 91.8484L133.279 91.9151L133.279 91.9821L133.279 92.0489L133.279 92.1156L133.279 92.1823L133.279 92.2487L133.279 92.3155L133.279 92.3825L133.279 92.4493L133.279 92.516L133.279 92.5743L133.279 92.6326L133.279 92.6996L133.279 92.7663L133.279 92.8331L133.279 92.8998L133.279 92.9664L133.279 93.0332L133.279 93.1L133.279 93.1668L133.279 93.2334L133.279 93.3002L133.279 93.3671L133.279 93.4338C133.265 98.698 136.74 103.97 143.7 107.992C157.533 115.985 179.892 115.985 193.625 107.992C200.447 104.021 203.864 98.831 203.878 93.6332V93.5668V93.5002V93.4331V93.3664V93.2998V93.233V93.1661V93.0995V93.0327V92.9663V92.8992V92.8327V92.7656L203.878 92.7074L203.878 92.6487V92.5824V92.5155V92.4485V92.3817V92.3153V92.2487V92.1818V92.1152V92.0481V91.9814V91.9148V91.8479V91.7812V91.7148V91.6478V91.5812V91.5141V91.4474V91.3809V91.3143L203.878 91.2556L203.878 91.1968V91.1307V91.0636V90.9974V90.9302V90.8637V90.7966V90.7299V90.6634V90.5968V90.5297V90.463V90.3964V90.3296V90.2628V90.1961V90.1293V90.0629V89.9959V89.9293V89.8622L203.878 89.804L203.878 89.7453V89.679V89.6121V89.5453V89.4786V89.4118V89.3454V89.2784V89.2118V89.1447V89.078V89.0114V88.9446V88.8779V88.8114V88.7444V88.6778V88.6108V88.5442V88.4771V88.4106L203.878 88.3507L203.878 88.2939V88.227V88.1604V88.0939V88.0269V87.9603V87.8932V87.8265V87.7597V87.693V87.6267V87.5597V87.493V87.4263V87.3594V87.2927V87.2256V87.1591V87.0927C203.879 87.0688 203.878 87.045 203.878 87.0211Z" fill="url(#paint4_linear)"/>
<path d="M196.011 75.3377L195.977 85.3661C195.994 81.278 193.291 77.1732 187.885 74.0529C177.139 67.8457 159.769 67.8457 149.106 74.0529C143.8 77.1398 141.147 81.1612 141.13 85.1992L141.164 75.1709C141.18 71.1328 143.833 67.0948 149.14 64.0246C159.819 57.8173 177.172 57.8173 187.918 64.0246C193.324 67.1615 196.027 71.2496 196.011 75.3377Z" fill="#3857CC"/>
<path d="M196.011 75.338L195.977 85.3663C195.994 81.2782 193.291 77.1735 187.885 74.0532C186.85 73.4525 185.749 72.9185 184.597 72.4346L184.631 62.4062C185.782 62.8901 186.883 63.4241 187.918 64.0248C193.324 67.1618 196.027 71.2499 196.011 75.338Z" fill="#3857CC"/>
<path d="M184.631 62.4062L184.598 72.4346C181.16 70.9995 177.289 70.0651 173.301 69.648L173.335 59.6196C177.339 60.0368 181.21 60.9712 184.631 62.4062Z" fill="#3857CC"/>
<path d="M173.334 59.6362L173.301 69.6645C165.909 68.897 158.1 69.8982 151.876 72.6514L151.909 62.623C158.133 59.8698 165.959 58.8687 173.334 59.6362Z" fill="#3857CC"/>
<path d="M151.909 62.623L151.876 72.6514C150.908 73.0852 149.974 73.5524 149.106 74.0697C146.987 75.3045 145.285 76.6894 144.017 78.1745L144.05 68.1461C145.318 66.6611 147.02 65.2761 149.139 64.0414C150.024 63.5241 150.942 63.0569 151.909 62.623Z" fill="#3857CC"/>
<path d="M144.034 68.1294L144 78.1577C142.098 80.377 141.13 82.7965 141.13 85.216L141.164 75.1876C141.18 72.7681 142.131 70.3486 144.034 68.1294Z" fill="#3857CC"/>
<path d="M204.57 75.3711L204.537 84.6986C204.52 90.0048 201.033 95.2943 194.091 99.3323C180.092 107.475 157.315 107.475 143.216 99.3323C136.124 95.2442 132.587 89.8546 132.603 84.4984L132.637 75.1709C132.62 80.5438 136.157 85.9167 143.249 90.0048C157.349 98.1476 180.125 98.1476 194.125 90.0048C201.066 85.9668 204.554 80.6606 204.57 75.3711Z" fill="#96AAC9"/>
<path d="M204.571 75.3711L204.537 84.6986C204.521 87.869 203.269 91.056 200.766 93.9594L200.8 84.6319C203.303 81.7285 204.554 78.5414 204.571 75.3711Z" fill="#0A1D33"/>
<path d="M200.8 84.6318L200.766 93.9594C199.098 95.8949 196.862 97.7137 194.075 99.3323C192.924 99.9997 191.706 100.617 190.438 101.184L190.471 91.8569C191.739 91.2896 192.957 90.6722 194.109 90.0048C196.895 88.3862 199.131 86.5674 200.8 84.6318Z" fill="#0A1D33"/>
<path d="M190.471 91.8569L190.438 101.184C182.278 104.805 172.033 106.107 162.338 105.106L162.372 95.7781C172.05 96.7793 182.295 95.4611 190.471 91.8569Z" fill="#132943"/>
<path d="M162.372 95.7783L162.338 105.106C157.099 104.572 152.01 103.354 147.521 101.452L147.554 92.124C152.043 94.0262 157.132 95.2443 162.372 95.7783Z" fill="#0A1D33"/>
<path d="M147.538 92.124L147.504 101.451C146.003 100.817 144.551 100.117 143.199 99.3323C136.108 95.2442 132.57 89.8546 132.587 84.4984L132.62 75.1709C132.604 80.5438 136.141 85.9167 143.233 90.0048C144.601 90.7891 146.036 91.4899 147.538 92.124Z" fill="#0A1D33"/>
<path d="M193.942 60.5373C208.042 68.6801 208.109 81.8621 194.109 90.0049C180.109 98.1477 157.333 98.1477 143.233 90.0049C129.133 81.8621 129.067 68.6801 143.066 60.5373C157.083 52.3945 179.859 52.3945 193.942 60.5373Z" fill="#0A2340"/>
<path fill-rule="evenodd" clip-rule="evenodd" d="M203.878 60.5573C203.891 55.2944 200.416 50.024 193.458 46.0034C179.625 38.0275 157.282 38.0275 143.533 46.0034C136.679 49.9925 133.263 55.2117 133.279 60.4333C133.279 60.4541 133.279 60.4749 133.279 60.4957L133.279 60.5623L133.279 60.6291L133.279 60.6961L133.279 60.7627L133.279 60.8292C133.265 66.0935 136.74 71.3658 143.7 75.3875C157.533 83.3801 179.892 83.3801 193.625 75.3875C200.447 71.4166 203.864 66.2267 203.878 61.029V60.9622V60.8958V60.8292V60.7621V60.6954V60.6287C203.879 60.6049 203.878 60.5811 203.878 60.5573Z" fill="url(#paint5_linear)"/>
<path d="M196.011 48.7899L195.977 58.8182C195.994 54.7301 193.291 50.6253 187.885 47.505C177.139 41.2978 159.769 41.2978 149.106 47.505C143.8 50.592 141.147 54.6133 141.13 58.6513L141.164 48.623C141.18 44.585 143.833 40.5469 149.14 37.4767C159.819 31.2695 177.172 31.2695 187.918 37.4767C193.324 40.597 196.027 44.7018 196.011 48.7899Z" fill="#3857CC"/>
<path d="M196.011 48.7901L195.977 58.8184C195.994 54.7303 193.291 50.6256 187.885 47.5053C186.85 46.9046 185.749 46.3706 184.597 45.8867L184.631 35.8584C185.782 36.3423 186.883 36.8763 187.918 37.477C193.324 40.5972 196.027 44.702 196.011 48.7901Z" fill="#3857CC"/>
<path d="M184.631 35.8584L184.598 45.8867C181.16 44.4517 177.289 43.5173 173.301 43.1001L173.335 33.0718C177.339 33.4889 181.21 34.4067 184.631 35.8584Z" fill="#3857CC"/>
<path d="M173.334 33.0718L173.301 43.1001C165.909 42.3325 158.1 43.3337 151.876 46.0869L151.909 36.0586C158.133 33.3054 165.959 32.3042 173.334 33.0718Z" fill="#3857CC"/>
<path d="M151.91 36.0586L151.876 46.0869C150.908 46.5208 149.974 46.988 149.106 47.5052C146.987 48.74 145.285 50.125 144.017 51.61L144.05 41.5817C145.319 40.0966 147.02 38.7117 149.14 37.4769C150.024 36.9597 150.942 36.4924 151.91 36.0586Z" fill="#3857CC"/>
<path d="M144.034 41.5815L144 51.6099C142.098 53.8291 141.13 56.2486 141.13 58.6681L141.164 48.6397C141.18 46.2036 142.131 43.7841 144.034 41.5815Z" fill="#3857CC"/>
<path d="M204.57 48.8072L204.537 58.1347C204.52 63.4408 201.033 68.7303 194.092 72.7684C180.092 80.9112 157.315 80.9112 143.216 72.7684C136.124 68.6803 132.587 63.2907 132.603 57.9344L132.637 48.6069C132.62 53.9799 136.157 59.3528 143.249 63.4409C157.349 71.5837 180.125 71.5837 194.125 63.4409C201.066 59.4028 204.554 54.1133 204.57 48.8072Z" fill="#96AAC9"/>
<path d="M204.571 48.8071L204.537 58.1346C204.521 61.305 203.269 64.492 200.766 67.3954L200.8 58.0679C203.303 55.1645 204.554 51.9942 204.571 48.8071Z" fill="#0A1D33"/>
<path d="M200.8 58.0674L200.766 67.3949C199.098 69.3305 196.862 71.1493 194.075 72.7678C192.924 73.4353 191.706 74.0526 190.438 74.62L190.471 65.2925C191.739 64.7251 192.957 64.1077 194.109 63.4403C196.895 61.8218 199.131 60.003 200.8 58.0674Z" fill="#0A1D33"/>
<path d="M190.471 65.293L190.438 74.6205C182.278 78.2414 172.033 79.5429 162.338 78.5417L162.372 69.2142C172.05 70.2153 182.295 68.9138 190.471 65.293Z" fill="#132943"/>
<path d="M162.372 69.2138L162.338 78.5413C157.099 78.0074 152.01 76.7893 147.521 74.8871L147.554 65.5596C152.043 67.4618 157.132 68.6798 162.372 69.2138Z" fill="#0A1D33"/>
<path d="M147.538 65.5761L147.504 74.9036C146.003 74.2696 144.551 73.5687 143.199 72.7845C136.108 68.6964 132.57 63.3068 132.587 57.9506L132.62 48.623C132.604 53.996 136.141 59.3689 143.233 63.457C144.601 64.2245 146.036 64.942 147.538 65.5761Z" fill="#0A1D33"/>
<path d="M193.942 33.973C208.042 42.1158 208.109 55.2978 194.109 63.4406C180.109 71.5834 157.333 71.5834 143.233 63.4406C129.133 55.2978 129.067 42.1158 143.066 33.973C157.083 25.8469 179.859 25.8469 193.942 33.973Z" fill="#0A2340"/>
<path d="M193.458 31.4032C207.291 39.3958 207.357 52.3275 193.625 60.3201C179.892 68.3128 157.533 68.3128 143.7 60.3201C129.867 52.3275 129.8 39.3958 143.533 31.4032C157.282 23.4105 179.625 23.4105 193.458 31.4032Z" fill="#A337BF"/>
<path d="M196.011 20.9242L195.977 30.9525C195.994 26.8644 193.291 22.7596 187.885 19.6393C177.139 13.4321 159.769 13.4321 149.106 19.6393C143.8 22.7263 141.147 26.7476 141.13 30.7856L141.164 20.7573C141.18 16.7193 143.833 12.6812 149.14 9.61098C159.819 3.40376 177.172 3.40376 187.918 9.61098C193.324 12.7313 196.027 16.8194 196.011 20.9242Z" fill="#3857CC"/>
<path d="M196.011 20.9244L195.977 30.9527C195.994 26.8646 193.291 22.7599 187.885 19.6396C186.85 19.0389 185.749 18.5049 184.597 18.021L184.631 7.99268C185.782 8.47657 186.883 9.0105 187.918 9.6112C193.324 12.7315 196.027 16.8196 196.011 20.9244Z" fill="#3857CC"/>
<path d="M184.631 7.97603L184.598 18.0044C181.16 16.5694 177.289 15.6349 173.301 15.2178L173.335 5.18945C177.339 5.60661 181.21 6.54102 184.631 7.97603Z" fill="#3857CC"/>
<path d="M173.334 5.20604L173.301 15.2344C165.909 14.4668 158.1 15.468 151.876 18.2212L151.909 8.19287C158.133 5.43966 165.959 4.43848 173.334 5.20604Z" fill="#3857CC"/>
<path d="M151.909 8.19336L151.876 18.2217C150.908 18.6555 149.974 19.1227 149.106 19.64C146.987 20.8748 145.285 22.2597 144.017 23.7448L144.05 13.7164C145.318 12.2314 147.02 10.8464 149.139 9.61166C150.024 9.09439 150.942 8.6272 151.909 8.19336Z" fill="#3857CC"/>
<path d="M144.034 13.6992L144 23.7275C142.098 25.9468 141.13 28.3663 141.13 30.7858L141.164 20.7574C141.18 18.3379 142.131 15.9185 144.034 13.6992Z" fill="#3857CC"/>
<path d="M204.571 20.9404L204.537 30.2679C204.521 33.4383 203.269 36.6253 200.766 39.5287L200.8 30.2012C203.303 27.2978 204.554 24.1108 204.571 20.9404Z" fill="#96AAC9"/>
<path d="M200.8 30.2017L200.766 39.5292C199.098 41.4648 196.862 43.2835 194.075 44.9021C192.924 45.5695 191.706 46.1869 190.438 46.7543L190.471 37.4267C191.739 36.8594 192.957 36.242 194.109 35.5746C196.895 33.956 199.131 32.1372 200.8 30.2017Z" fill="#96AAC9"/>
<path fill-rule="evenodd" clip-rule="evenodd" d="M133.279 34.1348L133.279 34.1481L133.279 34.2148L133.279 34.2818L133.279 34.3486L133.279 34.4068L133.279 34.4651L133.279 34.5319L133.279 34.5987V34.6653V34.732L133.279 34.7988L133.279 34.8655L133.279 34.9324L133.279 34.9994L133.279 35.0661L133.279 35.1327L133.279 35.1996L133.279 35.2662L133.279 35.3327L133.279 35.3995L133.279 35.4663L133.279 35.5331L133.279 35.6L133.279 35.6666L133.279 35.7331L133.279 35.7999L133.279 35.8584L133.279 35.9168V35.9834L133.279 36.0503L133.279 36.1171L133.279 36.1839L133.279 36.2509L133.279 36.3177L133.279 36.3841L133.279 36.4507L133.279 36.5175L133.279 36.5842L133.279 36.651L133.279 36.7179L133.279 36.7848L133.279 36.8516L133.279 36.9181L133.279 36.9847L133.279 37.0515L133.279 37.1183L133.279 37.1853L133.279 37.2521L133.279 37.3104L133.279 37.3687L133.279 37.4355L133.279 37.5022L133.279 37.569L133.279 37.6357L133.279 37.7023L133.279 37.7691L133.279 37.8359L133.279 37.9027L133.279 37.9696L133.279 38.0362L133.279 38.103L133.279 38.1695L133.279 38.2362L133.279 38.3031L133.279 38.3699L133.279 38.4366L133.279 38.5034L133.279 38.5701L133.279 38.6367L133.279 38.7035L133.279 38.7619L133.279 38.8205L133.279 38.8871L133.279 38.9538L133.279 39.0206L133.279 39.0873L133.279 39.1541L133.279 39.2209L133.279 39.2875L133.279 39.3542L133.279 39.421L133.279 39.4878L133.279 39.5546L133.279 39.6213L133.279 39.6881L133.279 39.7549L133.279 39.8215L133.279 39.8882L133.279 39.955L133.279 40.0217L133.279 40.0885L133.279 40.1553L133.279 40.2137L133.279 40.272L133.279 40.3388L133.279 40.4056L133.279 40.4723L133.279 40.539L133.279 40.6056L133.279 40.6724L133.279 40.7392L133.279 40.806L133.279 40.8728L133.279 40.9396L133.279 41.0063L133.279 41.073L133.279 41.1396L133.279 41.2064L133.279 41.2732L133.279 41.34L133.279 41.4067V41.4736L133.279 41.5403L133.279 41.5986L133.279 41.657L133.279 41.7238L133.279 41.7905L133.279 41.8571L133.279 41.9239L133.279 41.9907L133.279 42.0574L133.279 42.1242L133.279 42.1911L133.279 42.2577L133.279 42.3243L133.279 42.3911L133.279 42.4579L133.279 42.5247L133.279 42.5914L133.279 42.6582L133.279 42.725L133.279 42.7916L133.279 42.8583L133.279 42.925L133.279 42.9918L133.279 43.0501L133.279 43.1086L133.279 43.1753L133.279 43.2421L133.279 43.3089L133.279 43.3757L133.279 43.4424L133.279 43.5091V43.5757L133.279 43.6425L133.279 43.7093L133.279 43.7761L133.279 43.8429L133.279 43.9097L133.279 43.9764L133.279 44.0431L133.279 44.1097L133.279 44.1765L133.279 44.2433L133.279 44.3101L133.279 44.3768V44.4435L133.279 44.5019L133.279 44.5604L133.279 44.6271L133.279 44.6939L133.279 44.7605L133.279 44.8272L133.279 44.894L133.279 44.9608L133.279 45.0275L133.279 45.0942L133.279 45.1608L133.279 45.2277L133.279 45.2944L133.279 45.3611V45.428L133.279 45.4947L133.279 45.5615L133.279 45.6283V45.6949C133.265 50.9592 136.74 56.2315 143.7 60.2533C157.533 68.2459 179.892 68.2459 193.625 60.2533C200.476 56.2654 203.893 51.048 203.878 45.8279V45.7607V45.6942V45.6273V45.5607V45.4936V45.427V45.3605V45.2934V45.2268V45.1602V45.0933V45.0266V44.9598V44.8932V44.8265V44.7598V44.6929L203.878 44.6345L203.878 44.577V44.5104V44.4436V44.3768V44.3101V44.2432V44.1767V44.11V44.0432V43.9764V43.9097V43.8427V43.7761V43.7092V43.6427V43.5759V43.5092V43.4424V43.3757V43.3088V43.2421L203.878 43.1838L203.878 43.125V43.0574V42.991V42.9242V42.8576V42.7908V42.724V42.6573V42.5904V42.5238V42.4569V42.3904V42.3238V42.2568V42.19V42.1233V42.0565V41.9898V41.923V41.8566V41.7896L203.878 41.7312L203.878 41.6737V41.6073V41.5402V41.4735V41.4067V41.3399V41.2732V41.2065V41.14V41.073V41.0064V40.9394V40.8728V40.8059V40.7392V40.6725V40.606V40.539V40.4724V40.4055L203.878 40.3475L203.878 40.2883V40.2209V40.1545V40.0875V40.0209V39.9541V39.8876V39.8206V39.754V39.6871V39.6205V39.5535V39.4868V39.4201V39.3536V39.2866V39.22V39.1531V39.0865V39.0197V38.9532L203.878 38.8943L203.878 38.837V38.7702V38.7036V38.637V38.5701V38.5035V38.4365V38.3698L203.878 38.303V38.2354V38.1689V38.1022V38.0354V37.9684V37.9017V37.835V37.7682V37.7017V37.6348V37.5682V37.5012L203.878 37.443L203.878 37.3856V37.3188V37.2518V37.185V37.1184L203.878 37.0515V36.9839V36.9175V36.8505V36.7835V36.7169V36.6501V36.5835V36.5166V36.4505V36.3834V36.3165V36.2496V36.1831V36.1159V36.0495L203.878 35.9908L203.878 35.9335V35.8667L203.878 35.8001V35.7323V35.6657V35.5989V35.5321V35.4654V35.3988V35.3324V35.2651V35.1989V35.1321V35.065V34.9981V34.9314V34.8645V34.798V34.7313V34.6646V34.5977L203.878 34.5394L203.878 34.4822V34.4155V34.3482V34.2816V34.2151C204.314 32.9134 204.534 31.5916 204.538 30.2687L204.571 20.9517C204.562 23.1637 203.95 25.3727 202.736 27.4892C201.197 24.0643 198.104 20.8223 193.458 18.1375C179.625 10.1449 157.282 10.1449 143.533 18.1375C138.998 20.7773 135.967 23.9558 134.441 27.3173C133.232 25.1858 132.631 22.9634 132.637 20.741L132.604 30.0685C132.6 31.4291 132.825 32.7918 133.279 34.1348Z" fill="url(#paint6_linear)"/>
<path d="M162.372 41.3476L162.338 50.6751C157.099 50.1412 152.01 48.9231 147.521 47.0209L147.554 37.6934C152.043 39.5956 157.132 40.8137 162.372 41.3476Z" fill="#0A1D33"/>
<path d="M147.538 37.6934L147.504 47.0209C146.003 46.3868 144.551 45.686 143.199 44.8851C136.108 40.797 132.57 35.4074 132.587 30.0511L132.62 20.7236C132.604 26.0966 136.141 31.4695 143.233 35.5576C144.601 36.3585 146.036 37.0593 147.538 37.6934Z" fill="#0A1D33"/>
<path d="M193.942 6.10711C208.042 14.2499 208.109 27.4319 194.109 35.5747C180.109 43.7175 157.333 43.7175 143.233 35.5747C129.133 27.4319 129.067 14.2499 143.066 6.10711C157.083 -2.0357 179.859 -2.0357 193.942 6.10711Z" fill="#0A2340"/>
<path d="M204.587 20.5L204.554 29.8275C204.537 32.9979 202.79 36.185 200.287 39.0884L200.32 29.7609C202.823 26.8575 204.57 23.687 204.587 20.5Z" fill="#0A1D33"/>
<path d="M200.289 30L200.256 39.3275C198.587 41.2631 196.351 43.0819 193.565 44.7004C192.413 45.3679 191.195 45.9853 189.927 46.5526L189.96 37.2251C191.229 36.6578 192.447 36.0404 193.598 35.3729C196.385 33.7544 198.62 31.9356 200.289 30Z" fill="#0A1D33"/>
<path d="M189.928 37.4268L189.894 46.7543C181.735 50.3752 171.49 51.6767 161.795 50.6755L161.828 41.348C171.506 42.3491 181.752 41.0476 189.928 37.4268Z" fill="#132943"/>
<path d="M204.678 175.972L204.645 186C204.661 181.912 201.958 177.807 196.552 174.687C185.806 168.479 168.436 168.479 157.774 174.687C152.467 177.774 149.814 181.795 149.798 185.833L149.831 175.805C149.848 171.767 152.501 167.729 157.807 164.658C168.486 158.451 185.84 158.451 196.585 164.658C201.975 167.795 204.678 171.883 204.678 175.972Z" fill="#3857CC"/>
<path d="M204.678 175.972L204.645 186C204.661 181.912 201.958 177.807 196.552 174.687C195.517 174.086 194.416 173.552 193.265 173.068L193.298 163.04C194.45 163.524 195.551 164.058 196.585 164.659C201.975 167.796 204.678 171.884 204.678 175.972Z" fill="#3857CC"/>
<path d="M193.298 163.039L193.265 173.068C189.828 171.633 185.956 170.698 181.968 170.281L182.002 160.253C185.99 160.67 189.861 161.604 193.298 163.039Z" fill="#3857CC"/>
<path d="M181.985 160.253L181.952 170.282C174.56 169.514 166.751 170.515 160.527 173.268L160.56 163.24C166.801 160.503 174.61 159.502 181.985 160.253Z" fill="#3857CC"/>
<path d="M160.577 163.257L160.543 173.285C159.576 173.719 158.641 174.186 157.773 174.704C155.654 175.938 153.952 177.323 152.684 178.808L152.718 168.78C153.986 167.295 155.688 165.91 157.807 164.675C158.675 164.158 159.609 163.691 160.577 163.257Z" fill="#3857CC"/>
<path d="M152.701 168.763L152.668 178.791C150.765 181.01 149.798 183.43 149.798 185.849L149.831 175.821C149.831 173.401 150.782 170.982 152.701 168.763Z" fill="#3857CC"/>
<path d="M213.221 176.005L213.188 185.332C213.171 190.639 209.684 195.928 202.743 199.966C188.743 208.109 165.967 208.109 151.867 199.966C144.775 195.878 141.238 190.505 141.254 185.132L141.288 175.805C141.271 181.178 144.809 186.551 151.9 190.639C166 198.781 188.776 198.781 202.776 190.639C209.717 186.584 213.205 181.294 213.221 176.005Z" fill="#96AAC9"/>
<path d="M213.222 176.005L213.188 185.332C213.171 188.503 211.92 191.69 209.417 194.593L209.451 185.266C211.953 182.346 213.205 179.175 213.222 176.005Z" fill="#0A1D33"/>
<path d="M209.45 185.249L209.417 194.577C207.748 196.512 205.513 198.331 202.726 199.949C201.575 200.617 200.357 201.234 199.088 201.802L199.122 192.474C200.39 191.907 201.608 191.289 202.759 190.622C205.546 189.02 207.782 187.201 209.45 185.249Z" fill="#0A1D33"/>
<path d="M199.122 192.491L199.088 201.819C190.929 205.44 180.684 206.741 170.989 205.74L171.022 196.412C180.717 197.414 190.962 196.095 199.122 192.491Z" fill="#132943"/>
<path d="M171.022 196.412L170.989 205.74C165.75 205.206 160.66 203.988 156.172 202.085L156.205 192.758C160.694 194.66 165.783 195.861 171.022 196.412Z" fill="#0A1D33"/>
<path d="M156.205 192.758L156.172 202.085C154.67 201.451 153.218 200.75 151.867 199.966C144.775 195.878 141.238 190.505 141.254 185.132L141.288 175.805C141.271 181.178 144.809 186.551 151.9 190.639C153.252 191.423 154.687 192.124 156.205 192.758Z" fill="#0A1D33"/>
<path d="M202.591 161.171C216.691 169.313 216.758 182.495 202.758 190.638C188.759 198.781 165.982 198.781 151.882 190.638C137.783 182.495 137.716 169.313 151.716 161.171C165.732 153.028 188.508 153.028 202.591 161.171Z" fill="#0A2340"/>
<path fill-rule="evenodd" clip-rule="evenodd" d="M212.529 160.946C212.544 155.681 209.069 150.409 202.109 146.387C188.276 138.394 165.933 138.394 152.184 146.387C145.332 150.375 141.915 155.593 141.93 160.813C141.93 160.835 141.93 160.857 141.93 160.879L141.93 160.946L141.93 161.012L141.93 161.079L141.93 161.138L141.93 161.197L141.93 161.263L141.93 161.33L141.93 161.396L141.93 161.463L141.93 161.53L141.93 161.597L141.93 161.663L141.93 161.73L141.93 161.797L141.93 161.864L141.93 161.93L141.93 161.997L141.93 162.064L141.93 162.131L141.93 162.197L141.93 162.264L141.93 162.331L141.93 162.398L141.93 162.465L141.93 162.531L141.93 162.59L141.93 162.648L141.93 162.715L141.93 162.782L141.93 162.848L141.93 162.915L141.93 162.981L141.93 163.049L141.93 163.115L141.93 163.182L141.93 163.249L141.93 163.316L141.93 163.382L141.93 163.449L141.93 163.515L141.93 163.582L141.93 163.649L141.93 163.716L141.93 163.783L141.93 163.85L141.93 163.916L141.93 163.983L141.93 164.041L141.93 164.1L141.93 164.166L141.93 164.233L141.93 164.3L141.93 164.367L141.93 164.434L141.93 164.5L141.93 164.567L141.93 164.634L141.93 164.7L141.93 164.767L141.93 164.834L141.93 164.901L141.93 164.967L141.93 165.034L141.93 165.101L141.93 165.168L141.93 165.234L141.93 165.301L141.93 165.368L141.93 165.435L141.93 165.493L141.93 165.551L141.93 165.618L141.93 165.685L141.93 165.752L141.93 165.819L141.93 165.885L141.93 165.952L141.93 166.018L141.93 166.085L141.93 166.152L141.93 166.219L141.93 166.286L141.93 166.353L141.93 166.419L141.93 166.486L141.93 166.552L141.93 166.619L141.93 166.686L141.93 166.753L141.93 166.819L141.93 166.886L141.93 166.945L141.93 167.003L141.93 167.07L141.93 167.137L141.93 167.203L141.93 167.27L141.93 167.337L141.93 167.404L141.93 167.47L141.93 167.537L141.93 167.604L141.93 167.671L141.93 167.737L141.93 167.804L141.93 167.871L141.93 167.937L141.93 168.004L141.93 168.071L141.93 168.138L141.93 168.204L141.93 168.271L141.93 168.33L141.93 168.388L141.93 168.455L141.93 168.521L141.93 168.588L141.93 168.655L141.93 168.722L141.93 168.788L141.93 168.855L141.93 168.922L141.93 168.989L141.93 169.056L141.93 169.122L141.93 169.189L141.93 169.256L141.93 169.322L141.93 169.389L141.93 169.456L141.93 169.523L141.93 169.589L141.93 169.656L141.93 169.723L141.93 169.781L141.93 169.84L141.93 169.906L141.93 169.973L141.93 170.04L141.93 170.107L141.93 170.173L141.93 170.24L141.93 170.307L141.93 170.374L141.93 170.44L141.93 170.507L141.93 170.574L141.93 170.64L141.93 170.707L141.93 170.774L141.93 170.841L141.93 170.908L141.93 170.974L141.93 171.041L141.93 171.108L141.93 171.174L141.93 171.233L141.93 171.291L141.93 171.358L141.93 171.425L141.93 171.491L141.93 171.558L141.93 171.625L141.93 171.692L141.93 171.759L141.93 171.825L141.93 171.892L141.93 171.959L141.93 172.026L141.93 172.092L141.93 172.159L141.93 172.226L141.93 172.292L141.93 172.359L141.93 172.426L141.93 172.493L141.93 172.56L141.93 172.626L141.93 172.685L141.93 172.743L141.93 172.81L141.93 172.877L141.93 172.943L141.93 173.01L141.93 173.077L141.93 173.143L141.93 173.21L141.93 173.277L141.93 173.344L141.93 173.411L141.93 173.477L141.93 173.544L141.93 173.611L141.93 173.677L141.93 173.744L141.93 173.811L141.93 173.878L141.93 173.944L141.93 174.011C141.915 179.276 145.39 184.548 152.351 188.57C166.183 196.562 188.543 196.562 202.275 188.57C209.127 184.582 212.544 179.364 212.529 174.144V174.077V174.011V173.944V173.877V173.81V173.744V173.677V173.61V173.544V173.477V173.41V173.343V173.276V173.21V173.143V173.077V173.009V172.943V172.876L212.529 172.816L212.529 172.759V172.693V172.625V172.559V172.492V172.425V172.359V172.292V172.225V172.158V172.092V172.025V171.958V171.892V171.825V171.758V171.691V171.624V171.558V171.491V171.424L212.529 171.366L212.529 171.307V171.241V171.174V171.107V171.041V170.974V170.907V170.84V170.773V170.707V170.64V170.574V170.507V170.44V170.373V170.306V170.239V170.173V170.106V170.039V169.973L212.529 169.914L212.529 169.855V169.79V169.722V169.656V169.589V169.522V169.455V169.389V169.322V169.255V169.189V169.122V169.055V168.988V168.922V168.855V168.788V168.721V168.654V168.588V168.521L212.529 168.463L212.529 168.404V168.337V168.27V168.204V168.137V168.071V168.004V167.937V167.87V167.804V167.737V167.67V167.603V167.536V167.47V167.403V167.336V167.27V167.203V167.136L212.529 167.077L212.529 167.019V166.953V166.885V166.819V166.752V166.685V166.619V166.552V166.486V166.419V166.352V166.285V166.218V166.151V166.085V166.018V165.952V165.885V165.818V165.751V165.684L212.529 165.626L212.529 165.567V165.501V165.434V165.367V165.301V165.234V165.167V165.1V165.034V164.967V164.9V164.833V164.767V164.7V164.633V164.567V164.5V164.433V164.366V164.299V164.233L212.529 164.174L212.529 164.115V164.049V163.983V163.916V163.849V163.782V163.715V163.649V163.582V163.516V163.448V163.382V163.315V163.248V163.182V163.114V163.048V162.982V162.915V162.848V162.781L212.529 162.723L212.529 162.664V162.598V162.531V162.464V162.397V162.33V162.264V162.197V162.13V162.063V161.997V161.93V161.863V161.796V161.73V161.663V161.596V161.529V161.463V161.396V161.329L212.529 161.271L212.529 161.212V161.146V161.079V161.012C212.529 160.99 212.529 160.968 212.529 160.946Z" fill="url(#paint7_linear)"/>
<path d="M204.678 148.539L204.645 158.568C204.661 154.48 201.958 150.375 196.552 147.255C185.806 141.047 168.436 141.047 157.774 147.255C152.467 150.341 149.814 154.363 149.798 158.401L149.831 148.373C149.848 144.335 152.501 140.296 157.807 137.226C168.486 131.019 185.84 131.019 196.585 137.226C201.975 140.347 204.678 144.451 204.678 148.539Z" fill="#3857CC"/>
<path d="M204.678 148.539L204.645 158.567C204.661 154.479 201.958 150.375 196.552 147.254C195.517 146.654 194.416 146.12 193.265 145.636L193.298 135.607C194.45 136.091 195.551 136.625 196.585 137.226C201.975 140.346 204.678 144.451 204.678 148.539Z" fill="#3857CC"/>
<path d="M193.298 135.608L193.265 145.636C189.828 144.184 185.956 143.267 181.969 142.85L182.002 132.821C185.99 133.238 189.861 134.173 193.298 135.608Z" fill="#3857CC"/>
<path d="M181.985 132.821L181.952 142.849C174.56 142.082 166.751 143.083 160.527 145.836L160.56 135.808C166.801 133.071 174.61 132.07 181.985 132.821Z" fill="#3857CC"/>
<path d="M160.577 135.825L160.543 145.853C159.576 146.287 158.641 146.754 157.773 147.271C155.654 148.506 153.952 149.891 152.684 151.376L152.718 141.348C153.986 139.863 155.688 138.478 157.807 137.243C158.675 136.726 159.609 136.242 160.577 135.825Z" fill="#3857CC"/>
<path d="M152.701 141.331L152.668 151.359C150.765 153.579 149.798 155.998 149.798 158.418L149.831 148.389C149.831 145.97 150.782 143.55 152.701 141.331Z" fill="#3857CC"/>
<path d="M213.221 148.573L213.188 157.901C213.171 163.207 209.684 168.496 202.743 172.534C188.743 180.677 165.967 180.677 151.867 172.534C144.775 168.446 141.238 163.057 141.254 157.701L141.288 148.373C141.271 153.746 144.809 159.119 151.9 163.207C166 171.35 188.776 171.35 202.776 163.207C209.717 159.152 213.205 153.863 213.221 148.573Z" fill="#96AAC9"/>
<path d="M213.222 148.573L213.188 157.901C213.171 161.071 211.92 164.258 209.417 167.162L209.451 157.834C211.953 154.914 213.205 151.744 213.222 148.573Z" fill="#0A1D33"/>
<path d="M209.45 157.817L209.417 167.145C207.748 169.081 205.513 170.899 202.726 172.518C201.575 173.185 200.357 173.803 199.088 174.37L199.122 165.042C200.39 164.475 201.608 163.858 202.759 163.19C205.546 161.588 207.782 159.77 209.45 157.817Z" fill="#0A1D33"/>
<path d="M199.122 165.06L199.088 174.387C190.929 178.008 180.684 179.309 170.989 178.308L171.022 168.981C180.717 169.982 190.962 168.664 199.122 165.06Z" fill="#132943"/>
<path d="M171.022 168.98L170.989 178.308C165.75 177.774 160.66 176.556 156.172 174.654L156.205 165.326C160.694 167.228 165.783 168.43 171.022 168.98Z" fill="#0A1D33"/>
<path d="M156.205 165.326L156.172 174.654C154.67 174.02 153.218 173.319 151.867 172.534C144.775 168.446 141.238 163.057 141.254 157.701L141.288 148.373C141.271 153.746 144.809 159.119 151.9 163.207C153.252 163.991 154.687 164.692 156.205 165.326Z" fill="#0A1D33"/>
<path d="M202.591 133.739C216.691 141.882 216.758 155.064 202.758 163.207C188.759 171.349 165.982 171.349 151.882 163.207C137.783 155.064 137.716 141.882 151.716 133.739C165.715 125.596 188.508 125.596 202.591 133.739Z" fill="#0A2340"/>
<path fill-rule="evenodd" clip-rule="evenodd" d="M212.529 133.515C212.545 128.25 209.07 122.977 202.109 118.955C188.276 110.962 165.933 110.962 152.184 118.955C145.332 122.943 141.916 128.16 141.93 133.38C141.93 133.402 141.93 133.425 141.93 133.447L141.93 133.514L141.93 133.581L141.93 133.647L141.93 133.706L141.93 133.764L141.93 133.831L141.93 133.898L141.93 133.964L141.93 134.031L141.93 134.098L141.93 134.165L141.93 134.231L141.93 134.298L141.93 134.365L141.93 134.432L141.93 134.498L141.93 134.565L141.93 134.632L141.93 134.699L141.93 134.766L141.93 134.832L141.93 134.899L141.93 134.966L141.93 135.032L141.93 135.099L141.93 135.157L141.93 135.216L141.93 135.283L141.93 135.349L141.93 135.416L141.93 135.483L141.93 135.55L141.93 135.616L141.93 135.683L141.93 135.75L141.93 135.817L141.93 135.883L141.93 135.95L141.93 136.017L141.93 136.084L141.93 136.15L141.93 136.217L141.93 136.284L141.93 136.351L141.93 136.417L141.93 136.484L141.93 136.551L141.93 136.609L141.93 136.668L141.93 136.734L141.93 136.801L141.93 136.868L141.93 136.935L141.93 137.001L141.93 137.068L141.93 137.135L141.93 137.202L141.93 137.268L141.93 137.335L141.93 137.402L141.93 137.469L141.93 137.535L141.93 137.602L141.93 137.669L141.93 137.736L141.93 137.802L141.93 137.869L141.93 137.936L141.93 138.003L141.93 138.061L141.93 138.119L141.93 138.186L141.93 138.253L141.93 138.32L141.93 138.386L141.93 138.453L141.93 138.52L141.93 138.586L141.93 138.653L141.93 138.72L141.93 138.787L141.93 138.854L141.93 138.92L141.93 138.987L141.93 139.054L141.93 139.12L141.93 139.187L141.93 139.254L141.93 139.321L141.93 139.387L141.93 139.446L141.93 139.504L141.93 139.571L141.93 139.638L141.93 139.705L141.93 139.771L141.93 139.838L141.93 139.905L141.93 139.972L141.93 140.038L141.93 140.105L141.93 140.172L141.93 140.239L141.93 140.305L141.93 140.372L141.93 140.439L141.93 140.505L141.93 140.572L141.93 140.639L141.93 140.706L141.93 140.772L141.93 140.839L141.93 140.898L141.93 140.956L141.93 141.022L141.93 141.089L141.93 141.156L141.93 141.223L141.93 141.29L141.93 141.356L141.93 141.423L141.93 141.49L141.93 141.556L141.93 141.623L141.93 141.69L141.93 141.757L141.93 141.824L141.93 141.89L141.93 141.957L141.93 142.024L141.93 142.091L141.93 142.157L141.93 142.224L141.93 142.291L141.93 142.349L141.93 142.408L141.93 142.474L141.93 142.541L141.93 142.608L141.93 142.675L141.93 142.741L141.93 142.808L141.93 142.875L141.93 142.942L141.93 143.008L141.93 143.075L141.93 143.142L141.93 143.208L141.93 143.275L141.93 143.342L141.93 143.409L141.93 143.476L141.93 143.542L141.93 143.609L141.93 143.676L141.93 143.743L141.93 143.801L141.93 143.859L141.93 143.926L141.93 143.993L141.93 144.06L141.93 144.126L141.93 144.193L141.93 144.26L141.93 144.327L141.93 144.393L141.93 144.46L141.93 144.527L141.93 144.593L141.93 144.66L141.93 144.727L141.93 144.794L141.93 144.86L141.93 144.927L141.93 144.994L141.93 145.061L141.93 145.128L141.93 145.194L141.93 145.253L141.93 145.311L141.93 145.378L141.93 145.445L141.93 145.511L141.93 145.578L141.93 145.645L141.93 145.711L141.93 145.778L141.93 145.845L141.93 145.912L141.93 145.979L141.93 146.045L141.93 146.112L141.93 146.179L141.93 146.245L141.93 146.312L141.93 146.379L141.93 146.446L141.93 146.512L141.93 146.579C141.915 151.843 145.39 157.116 152.351 161.137C166.183 169.13 188.543 169.13 202.275 161.137C209.127 157.15 212.544 151.932 212.529 146.712V146.645V146.579V146.512V146.445V146.379V146.311V146.245V146.178V146.112V146.045V145.978V145.911V145.845V145.777V145.711V145.645V145.578V145.511V145.444L212.529 145.386L212.529 145.327V145.261V145.194V145.127V145.06V144.993V144.927V144.86V144.793V144.726V144.66V144.593V144.526V144.46V144.393V144.326V144.259V144.193V144.126V144.059V143.992L212.529 143.934L212.529 143.875V143.809V143.742V143.675V143.609V143.542V143.475V143.408V143.341V143.275V143.208V143.141V143.075V143.008V142.941V142.874V142.808V142.741V142.674V142.607V142.541L212.529 142.482L212.529 142.424V142.357V142.29V142.224V142.157V142.09V142.023V141.957V141.89V141.823V141.756V141.689V141.623V141.556V141.489V141.423V141.356V141.289V141.222V141.155V141.089L212.529 141.031L212.529 140.972V140.906V140.838V140.772V140.705V140.638V140.572V140.505V140.438V140.372V140.305V140.238V140.171V140.104V140.038V139.971V139.904V139.837V139.771V139.704V139.637L212.529 139.579L212.529 139.52V139.454V139.387V139.32V139.253V139.187V139.12V139.054V138.986V138.92V138.853V138.786V138.719V138.653V138.586V138.52V138.452V138.386V138.319V138.252L212.529 138.194L212.529 138.135V138.069V138.002V137.935V137.868V137.802V137.735V137.668V137.601V137.535V137.468V137.401V137.334V137.268V137.201V137.134V137.067V137.001V136.934V136.867V136.801L212.529 136.742L212.529 136.683V136.617V136.55V136.484V136.417V136.35V136.283V136.217V136.15V136.083V136.016V135.95V135.883V135.816V135.749V135.682V135.616V135.549V135.482V135.416V135.349L212.529 135.29L212.529 135.232V135.166V135.098V135.032V134.965V134.899V134.832V134.765V134.698V134.631V134.565V134.498V134.431V134.365V134.298V134.231V134.164V134.097V134.031V133.964V133.897L212.529 133.839L212.529 133.78V133.714V133.647V133.58C212.529 133.558 212.529 133.536 212.529 133.515Z" fill="url(#paint8_linear)"/>
<path d="M204.678 121.825L204.645 131.853C204.661 127.765 201.958 123.661 196.552 120.54C185.806 114.333 168.436 114.333 157.774 120.54C152.467 123.627 149.814 127.648 149.798 131.687L149.831 121.658C149.848 117.62 152.501 113.582 157.807 110.512C168.486 104.305 185.84 104.305 196.585 110.512C201.975 113.632 204.678 117.737 204.678 121.825Z" fill="#3857CC"/>
<path d="M204.678 121.825L204.645 131.854C204.661 127.766 201.958 123.661 196.552 120.54C195.518 119.94 194.416 119.406 193.265 118.922L193.298 108.894C194.45 109.377 195.551 109.911 196.585 110.512C201.975 113.632 204.678 117.737 204.678 121.825Z" fill="#3857CC"/>
<path d="M193.298 108.894L193.265 118.922C189.828 117.487 185.957 116.552 181.969 116.135L182.002 106.107C185.99 106.524 189.861 107.442 193.298 108.894Z" fill="#3857CC"/>
<path d="M181.985 106.107L181.952 116.135C174.56 115.368 166.751 116.369 160.527 119.122L160.56 109.094C166.801 106.341 174.61 105.339 181.985 106.107Z" fill="#3857CC"/>
<path d="M160.577 109.093L160.544 119.122C159.576 119.555 158.641 120.023 157.774 120.54C155.654 121.775 153.952 123.16 152.684 124.645L152.718 114.616C153.986 113.131 155.688 111.746 157.807 110.512C158.675 109.994 159.609 109.527 160.577 109.093Z" fill="#3857CC"/>
<path d="M152.701 114.6L152.668 124.628C150.766 126.848 149.798 129.267 149.798 131.687L149.831 121.658C149.831 119.239 150.782 116.819 152.701 114.6Z" fill="#3857CC"/>
<path d="M213.221 121.841L213.188 131.169C213.171 136.475 209.684 141.765 202.743 145.803C188.743 153.945 165.967 153.945 151.867 145.803C144.775 141.714 141.238 136.325 141.254 130.969L141.288 121.641C141.271 127.014 144.809 132.387 151.9 136.475C166 144.618 188.776 144.618 202.776 136.475C209.717 132.437 213.205 127.148 213.221 121.841Z" fill="#96AAC9"/>
<path d="M213.222 121.841L213.188 131.169C213.171 134.339 211.92 137.526 209.417 140.43L209.451 131.102C211.953 128.199 213.205 125.028 213.222 121.841Z" fill="#0A1D33"/>
<path d="M209.45 131.102L209.417 140.43C207.748 142.365 205.513 144.184 202.726 145.803C201.575 146.47 200.357 147.087 199.088 147.655L199.122 138.327C200.39 137.76 201.608 137.142 202.759 136.475C205.546 134.856 207.782 133.038 209.45 131.102Z" fill="#0A1D33"/>
<path d="M199.122 138.327L199.088 147.655C190.929 151.276 180.684 152.577 170.989 151.576L171.022 142.248C180.717 143.25 190.962 141.948 199.122 138.327Z" fill="#132943"/>
<path d="M171.022 142.248L170.989 151.576C165.75 151.042 160.66 149.823 156.172 147.921L156.205 138.594C160.694 140.496 165.783 141.714 171.022 142.248Z" fill="#0A1D33"/>
<path d="M156.205 138.61L156.172 147.938C154.67 147.304 153.218 146.603 151.867 145.819C144.775 141.731 141.238 136.341 141.254 130.985L141.288 121.657C141.271 127.03 144.809 132.403 151.9 136.491C153.252 137.259 154.687 137.976 156.205 138.61Z" fill="#0A1D33"/>
<path d="M202.591 107.008C216.691 115.151 216.758 128.333 202.758 136.476C188.759 144.618 165.982 144.618 151.882 136.476C137.783 128.333 137.716 115.151 151.716 107.008C165.732 98.8652 188.508 98.8652 202.591 107.008Z" fill="#0A2340"/>
<path d="M127.922 181.911L127.889 191.939C127.906 187.851 125.203 183.746 119.796 180.626C109.05 174.419 91.6802 174.419 81.0178 180.626C75.7116 183.713 73.0586 187.734 73.0419 191.772L73.0752 181.744C73.0919 177.706 75.745 173.668 81.0512 170.598C91.7303 164.391 109.084 164.391 119.83 170.598C125.219 173.735 127.922 177.823 127.922 181.911Z" fill="#3857CC"/>
<path d="M127.922 181.911L127.889 191.94C127.906 187.851 125.202 183.747 119.796 180.626C118.762 180.026 117.66 179.492 116.509 179.008L116.542 168.979C117.694 169.463 118.795 169.997 119.83 170.598C125.219 173.735 127.922 177.823 127.922 181.911Z" fill="#3857CC"/>
<path d="M116.543 168.979L116.509 179.007C113.072 177.572 109.201 176.638 105.213 176.221L105.246 166.192C109.234 166.61 113.105 167.544 116.543 168.979Z" fill="#3857CC"/>
<path d="M105.229 166.193L105.196 176.221C97.804 175.453 89.9949 176.455 83.771 179.208L83.8043 169.179C90.0449 166.443 97.854 165.442 105.229 166.193Z" fill="#3857CC"/>
<path d="M83.821 169.196L83.7876 179.225C82.8199 179.658 81.8854 180.126 81.0178 180.643C78.8986 181.878 77.1966 183.263 75.9285 184.748L75.9619 174.719C77.23 173.234 78.932 171.849 81.0511 170.615C81.9188 170.097 82.8532 169.63 83.821 169.196Z" fill="#3857CC"/>
<path d="M75.9452 174.702L75.9119 184.731C74.0097 186.95 73.0419 189.369 73.0419 191.789L73.0752 181.76C73.0752 179.341 74.0263 176.921 75.9452 174.702Z" fill="#3857CC"/>
<path d="M136.466 181.944L136.432 191.272C136.416 196.578 132.928 201.868 125.987 205.906C111.987 214.048 89.2107 214.048 75.1109 205.906C68.0193 201.818 64.4819 196.445 64.4986 191.072L64.5319 181.744C64.5153 187.117 68.0527 192.49 75.1443 196.578C89.244 204.721 112.021 204.721 126.02 196.578C132.962 192.523 136.449 187.234 136.466 181.944Z" fill="#96AAC9"/>
<path d="M136.466 181.944L136.432 191.272C136.416 194.442 135.164 197.629 132.661 200.533L132.695 191.205C135.197 188.285 136.449 185.115 136.466 181.944Z" fill="#0A1D33"/>
<path d="M132.695 191.188L132.661 200.516C130.993 202.452 128.757 204.27 125.97 205.889C124.819 206.556 123.601 207.174 122.333 207.741L122.366 198.414C123.634 197.846 124.852 197.229 126.003 196.561C128.79 194.96 131.026 193.141 132.695 191.188Z" fill="#0A1D33"/>
<path d="M122.366 198.43L122.333 207.757C114.173 211.378 103.928 212.68 94.2332 211.678L94.2666 202.351C103.961 203.352 114.206 202.034 122.366 198.43Z" fill="#132943"/>
<path d="M94.2666 202.352L94.2332 211.679C88.9938 211.145 83.9046 209.927 79.416 208.025L79.4494 198.697C83.9379 200.599 89.0272 201.801 94.2666 202.352Z" fill="#0A1D33"/>
<path d="M79.4493 198.697L79.416 208.025C77.9142 207.391 76.4625 206.69 75.1109 205.906C68.0193 201.818 64.4819 196.445 64.4986 191.072L64.5319 181.744C64.5153 187.117 68.0527 192.49 75.1443 196.578C76.4958 197.362 77.9309 198.063 79.4493 198.697Z" fill="#0A1D33"/>
<path d="M125.836 167.111C139.935 175.254 140.002 188.436 126.002 196.579C112.003 204.721 89.2264 204.721 75.1266 196.579C61.0269 188.436 60.9601 175.254 74.9597 167.111C88.9761 158.968 111.753 158.968 125.836 167.111Z" fill="#0A2340"/>
<path fill-rule="evenodd" clip-rule="evenodd" d="M135.773 166.886C135.788 161.622 132.313 156.349 125.353 152.327C111.52 144.335 89.1773 144.335 75.428 152.327C68.5757 156.316 65.1592 161.534 65.1742 166.754C65.1742 166.777 65.1742 166.799 65.1742 166.822L65.1743 166.886L65.1743 166.953L65.1743 167.02L65.1742 167.078L65.1743 167.137L65.1743 167.204L65.1743 167.27L65.1743 167.337L65.1743 167.404L65.1743 167.47L65.1743 167.537L65.1743 167.604L65.1743 167.67L65.1743 167.737L65.1743 167.804L65.1743 167.871L65.1743 167.937L65.1743 168.004L65.1743 168.071L65.1743 168.138L65.1743 168.204L65.1743 168.271L65.1743 168.338L65.1743 168.405L65.1743 168.472L65.1742 168.53L65.1743 168.588L65.1743 168.655L65.1743 168.722L65.1743 168.789L65.1743 168.855L65.1743 168.922L65.1743 168.989L65.1743 169.056L65.1743 169.122L65.1743 169.189L65.1743 169.256L65.1743 169.323L65.1743 169.389L65.1743 169.456L65.1743 169.523L65.1743 169.589L65.1743 169.656L65.1743 169.723L65.1743 169.79L65.1743 169.857L65.1743 169.923L65.1742 169.982L65.1743 170.04L65.1743 170.107L65.1743 170.173L65.1743 170.24L65.1743 170.307L65.1743 170.374L65.1743 170.441L65.1743 170.507L65.1743 170.574L65.1743 170.64L65.1743 170.707L65.1743 170.774L65.1743 170.841L65.1743 170.908L65.1743 170.975L65.1743 171.041L65.1743 171.108L65.1743 171.175L65.1743 171.241L65.1743 171.308L65.1743 171.375L65.1742 171.433L65.1743 171.492L65.1743 171.558L65.1743 171.625L65.1743 171.692L65.1743 171.759L65.1743 171.825L65.1743 171.892L65.1743 171.959L65.1743 172.026L65.1743 172.092L65.1743 172.159L65.1743 172.226L65.1743 172.293L65.1743 172.359L65.1743 172.426L65.1743 172.493L65.1743 172.56L65.1743 172.626L65.1743 172.693L65.1743 172.76L65.1743 172.827L65.1742 172.885L65.1743 172.943L65.1743 173.01L65.1743 173.077L65.1743 173.143L65.1743 173.21L65.1743 173.277L65.1743 173.344L65.1743 173.411L65.1743 173.477L65.1743 173.544L65.1743 173.611L65.1743 173.677L65.1743 173.744L65.1743 173.811L65.1743 173.878L65.1743 173.944L65.1743 174.011L65.1743 174.078L65.1743 174.145L65.1743 174.212L65.1742 174.27L65.1743 174.328L65.1743 174.395L65.1743 174.462L65.1743 174.529L65.1743 174.595L65.1743 174.662L65.1743 174.729L65.1743 174.795L65.1743 174.862L65.1743 174.929L65.1743 174.996L65.1743 175.063L65.1743 175.129L65.1743 175.196L65.1743 175.263L65.1743 175.329L65.1743 175.396L65.1743 175.463L65.1743 175.53L65.1743 175.597L65.1743 175.663L65.1742 175.722L65.1743 175.78L65.1743 175.847L65.1743 175.914L65.1743 175.98L65.1743 176.047L65.1743 176.114L65.1743 176.181L65.1743 176.247L65.1743 176.314L65.1743 176.381L65.1743 176.447L65.1743 176.514L65.1743 176.581L65.1743 176.648L65.1743 176.714L65.1743 176.781L65.1743 176.848L65.1743 176.915L65.1743 176.981L65.1743 177.048L65.1743 177.115L65.1742 177.173L65.1743 177.232L65.1743 177.298L65.1743 177.365L65.1743 177.432L65.1743 177.499L65.1743 177.566L65.1743 177.632L65.1743 177.699L65.1743 177.766L65.1743 177.832L65.1743 177.899L65.1743 177.966L65.1743 178.033L65.1743 178.099L65.1743 178.166L65.1743 178.233L65.1743 178.3L65.1743 178.366L65.1743 178.433L65.1743 178.5L65.1743 178.567L65.1742 178.625L65.1743 178.683L65.1743 178.75L65.1743 178.817L65.1743 178.884L65.1743 178.95L65.1743 179.017L65.1743 179.084L65.1743 179.151L65.1743 179.218L65.1743 179.284L65.1743 179.351L65.1743 179.418L65.1743 179.484L65.1743 179.551L65.1743 179.618L65.1743 179.685L65.1743 179.752L65.1743 179.818L65.1743 179.885L65.1743 179.951C65.1595 185.216 68.6344 190.488 75.5949 194.51C89.4276 202.503 111.787 202.503 125.52 194.51C132.371 190.522 135.788 185.304 135.773 180.084V180.018V179.951V179.885V179.818V179.751V179.684V179.618V179.551V179.484V179.418V179.351V179.284V179.217V179.15V179.084V179.017V178.95V178.884V178.817L135.773 178.759L135.773 178.7V178.632V178.566V178.499V178.432V178.365V178.299V178.232V178.165V178.098V178.032V177.965V177.898V177.831V177.765V177.698V177.631V177.564V177.498V177.431V177.364L135.773 177.306L135.773 177.248V177.181V177.115V177.048V176.982V176.915V176.848V176.781V176.714V176.648V176.581V176.514V176.448V176.381V176.314V176.247V176.18V176.114V176.047V175.98V175.913L135.773 175.855L135.773 175.796V175.729V175.662V175.596V175.529V175.462V175.395V175.328V175.262V175.195V175.128V175.062V174.995V174.928V174.861V174.795V174.728V174.661V174.594V174.527V174.461L135.773 174.403L135.773 174.345V174.278V174.211V174.145V174.078V174.011V173.944V173.878V173.811V173.744V173.677V173.611V173.544V173.477V173.411V173.344V173.277V173.21V173.144V173.077L135.773 173.019L135.773 172.96V172.893V172.826V172.76V172.693V172.626V172.559V172.493V172.426V172.359V172.293V172.226V172.159V172.092V172.026V171.959V171.892V171.825V171.759V171.692V171.625L135.773 171.567L135.773 171.508V171.441V171.374V171.307V171.24V171.174V171.107V171.04V170.973V170.907V170.84V170.773V170.707V170.64V170.573V170.506V170.439V170.373V170.306V170.239V170.173L135.773 170.114L135.773 170.057V169.99V169.923V169.856V169.79V169.723V169.656V169.589V169.523V169.456V169.389V169.323V169.256V169.189V169.122V169.055V168.989V168.922V168.855V168.788V168.722L135.773 168.664L135.773 168.605V168.537V168.471V168.404V168.337V168.27V168.204V168.137V168.07V168.003V167.936V167.87V167.803V167.736V167.67V167.603V167.536V167.469V167.403V167.336V167.269L135.773 167.211L135.773 167.153V167.086V167.02V166.952C135.773 166.93 135.773 166.908 135.773 166.886Z" fill="url(#paint9_linear)"/>
<path d="M127.922 154.479L127.889 164.508C127.906 160.42 125.203 156.315 119.796 153.195C109.05 146.987 91.6802 146.987 81.0178 153.195C75.7116 156.281 73.0586 160.303 73.0419 164.341L73.0752 154.313C73.0919 150.274 75.745 146.236 81.0512 143.166C91.7303 136.959 109.084 136.959 119.83 143.166C125.219 146.286 127.922 150.391 127.922 154.479Z" fill="#3857CC"/>
<path d="M127.922 154.48L127.889 164.508C127.906 160.42 125.203 156.315 119.796 153.195C118.762 152.594 117.66 152.06 116.509 151.576L116.543 141.548C117.694 142.032 118.795 142.566 119.83 143.166C125.219 146.287 127.922 150.391 127.922 154.48Z" fill="#3857CC"/>
<path d="M116.543 141.547L116.509 151.576C113.072 150.124 109.201 149.206 105.213 148.789L105.246 138.761C109.234 139.178 113.105 140.112 116.543 141.547Z" fill="#3857CC"/>
<path d="M105.229 138.761L105.196 148.789C97.8041 148.022 89.995 149.023 83.7711 151.776L83.8045 141.748C90.0451 139.011 97.8541 138.01 105.229 138.761Z" fill="#3857CC"/>
<path d="M83.8211 141.765L83.7878 151.793C82.82 152.227 81.8856 152.694 81.0179 153.211C78.8987 154.446 77.1967 155.831 75.9286 157.316L75.962 147.288C77.2301 145.803 78.9321 144.418 81.0512 143.183C81.9189 142.666 82.8533 142.182 83.8211 141.765Z" fill="#3857CC"/>
<path d="M75.9454 147.271L75.912 157.3C74.0098 159.519 73.042 161.939 73.042 164.358L73.0753 154.33C73.0753 151.91 74.0265 149.491 75.9454 147.271Z" fill="#3857CC"/>
<path d="M136.466 154.513L136.432 163.84C136.416 169.146 132.928 174.436 125.987 178.474C111.987 186.617 89.2107 186.617 75.1109 178.474C68.0193 174.386 64.4819 168.996 64.4986 163.64L64.5319 154.312C64.5153 159.685 68.0527 165.058 75.1443 169.146C89.244 177.289 112.021 177.289 126.02 169.146C132.962 165.092 136.449 159.802 136.466 154.513Z" fill="#96AAC9"/>
<path d="M136.466 154.513L136.432 163.84C136.416 167.011 135.164 170.198 132.661 173.101L132.695 163.773C135.197 160.853 136.449 157.683 136.466 154.513Z" fill="#0A1D33"/>
<path d="M132.695 163.757L132.661 173.084C130.993 175.02 128.757 176.839 125.97 178.457C124.819 179.125 123.601 179.742 122.333 180.309L122.366 170.982C123.634 170.415 124.852 169.797 126.003 169.13C128.79 167.528 131.026 165.709 132.695 163.757Z" fill="#0A1D33"/>
<path d="M122.366 170.998L122.333 180.326C114.173 183.946 103.928 185.248 94.2332 184.247L94.2666 174.919C103.961 175.92 114.206 174.602 122.366 170.998Z" fill="#132943"/>
<path d="M94.2666 174.92L94.2332 184.247C88.9938 183.713 83.9046 182.495 79.416 180.593L79.4494 171.266C83.9379 173.168 89.0272 174.369 94.2666 174.92Z" fill="#0A1D33"/>
<path d="M79.4493 171.266L79.416 180.593C77.9142 179.959 76.4625 179.258 75.1109 178.474C68.0193 174.386 64.4819 168.996 64.4986 163.64L64.5319 154.312C64.5153 159.685 68.0527 165.058 75.1443 169.146C76.4958 169.931 77.9309 170.631 79.4493 171.266Z" fill="#0A1D33"/>
<path d="M125.836 139.679C139.935 147.822 140.002 161.004 126.002 169.147C112.003 177.29 89.2264 177.29 75.1266 169.147C61.0269 161.004 60.9601 147.822 74.9597 139.679C88.9594 131.537 111.753 131.537 125.836 139.679Z" fill="#0A2340"/>
<defs>
<linearGradient id="paint0_linear" x1="90.5622" y1="102.052" x2="90.5622" y2="156.21" gradientUnits="userSpaceOnUse">
<stop stop-color="#0AB3EE"/>
<stop offset="1" stop-color="#A437BF"/>
</linearGradient>
<linearGradient id="paint1_linear" x1="90.8865" y1="75" x2="90.8865" y2="129.159" gradientUnits="userSpaceOnUse">
<stop stop-color="#0AB3EE"/>
<stop offset="1" stop-color="#A437BF"/>
</linearGradient>
<linearGradient id="paint2_linear" x1="90.5622" y1="48.1436" x2="90.5622" y2="102.315" gradientUnits="userSpaceOnUse">
<stop stop-color="#0AB3EE"/>
<stop offset="1" stop-color="#A437BF"/>
</linearGradient>
<linearGradient id="paint3_linear" x1="168.579" y1="93.9175" x2="168.579" y2="138.115" gradientUnits="userSpaceOnUse">
<stop stop-color="#0AB3EE"/>
<stop offset="1" stop-color="#A437BF"/>
</linearGradient>
<linearGradient id="paint4_linear" x1="168.579" y1="66.4854" x2="168.579" y2="113.986" gradientUnits="userSpaceOnUse">
<stop stop-color="#0AB4EF"/>
<stop offset="1" stop-color="#A437BF"/>
</linearGradient>
<linearGradient id="paint5_linear" x1="168.579" y1="40.0215" x2="168.579" y2="81.382" gradientUnits="userSpaceOnUse">
<stop stop-color="#0AB4EF"/>
<stop offset="1" stop-color="#A437BF"/>
</linearGradient>
<linearGradient id="paint6_linear" x1="168.588" y1="12.1431" x2="168.588" y2="66.2477" gradientUnits="userSpaceOnUse">
<stop stop-color="#0AB3EE"/>
<stop offset="1" stop-color="#A437BF"/>
</linearGradient>
<linearGradient id="paint7_linear" x1="177.23" y1="140.393" x2="177.23" y2="194.564" gradientUnits="userSpaceOnUse">
<stop stop-color="#0AB3EE"/>
<stop offset="1" stop-color="#A437BF"/>
</linearGradient>
<linearGradient id="paint8_linear" x1="177.23" y1="112.96" x2="177.23" y2="167.132" gradientUnits="userSpaceOnUse">
<stop stop-color="#0AB3EE"/>
<stop offset="1" stop-color="#A437BF"/>
</linearGradient>
<linearGradient id="paint9_linear" x1="100.474" y1="146.333" x2="100.474" y2="200.504" gradientUnits="userSpaceOnUse">
<stop stop-color="#0AB3EE"/>
<stop offset="1" stop-color="#A437BF"/>
</linearGradient>
</defs>
</svg>
