<svg width="24" height="24" viewBox="0 0 24 24" fill="none" xmlns="http://www.w3.org/2000/svg">
<path d="M8.9813 18.1819C8.90488 18.589 9.17296 18.981 9.58006 19.0574C9.98716 19.1338 10.3791 18.8657 10.4556 18.4586L8.9813 18.1819ZM9.73776 18.2172L10.4749 18.3556L10.4749 18.3556L9.73776 18.2172ZM14.2622 18.2172L13.5251 18.3556L13.5251 18.3556L14.2622 18.2172ZM13.5445 18.4586C13.6209 18.8657 14.0128 19.1338 14.4199 19.0574C14.827 18.9809 15.0951 18.589 15.0187 18.1819L13.5445 18.4586ZM14.669 20.8741C14.847 20.5001 14.6881 20.0526 14.3141 19.8746C13.94 19.6966 13.4925 19.8555 13.3146 20.2295L14.669 20.8741ZM13.1978 20.4749C13.0198 20.849 13.1787 21.2964 13.5527 21.4744C13.9267 21.6524 14.3742 21.4935 14.5522 21.1195L13.1978 20.4749ZM10.6854 20.2295C10.5075 19.8555 10.06 19.6966 9.68594 19.8746C9.31192 20.0526 9.15301 20.5001 9.331 20.8741L10.6854 20.2295ZM9.44778 21.1195C9.62577 21.4935 10.0733 21.6524 10.4473 21.4744C10.8213 21.2964 10.9802 20.8489 10.8022 20.4749L9.44778 21.1195ZM11.3611 16.4425L11.1605 15.7198L11.1605 15.7198L11.3611 16.4425ZM12.6389 16.4425L12.8395 15.7198L12.8395 15.7198L12.6389 16.4425ZM10.4556 18.4586L10.4749 18.3556L9.00064 18.0788L8.9813 18.1819L10.4556 18.4586ZM13.5251 18.3556L13.5445 18.4586L15.0187 18.1819L14.9994 18.0788L13.5251 18.3556ZM13.3146 20.2295L13.1978 20.4749L14.5522 21.1195L14.669 20.8741L13.3146 20.2295ZM9.331 20.8741L9.44778 21.1195L10.8022 20.4749L10.6854 20.2295L9.331 20.8741ZM11.5616 17.1652C11.8485 17.0856 12.1515 17.0856 12.4384 17.1652L12.8395 15.7198C12.2901 15.5674 11.7099 15.5674 11.1605 15.7198L11.5616 17.1652ZM14.9994 18.0788C14.7865 16.9449 13.9504 16.028 12.8395 15.7198L12.4384 17.1652C12.9935 17.3192 13.417 17.7794 13.5251 18.3556L14.9994 18.0788ZM10.4749 18.3556C10.583 17.7794 11.0065 17.3192 11.5616 17.1652L11.1605 15.7198C10.0496 16.028 9.21349 16.9449 9.00064 18.0788L10.4749 18.3556Z" fill="#A437BF"/>
<path d="M20.04 9.71903C20.04 9.30482 19.7042 8.96903 19.29 8.96903C18.8758 8.96903 18.54 9.30482 18.54 9.71903H20.04ZM5.45999 9.71903C5.45999 9.30482 5.12421 8.96903 4.70999 8.96903C4.29578 8.96903 3.95999 9.30482 3.95999 9.71903H5.45999ZM14.5132 20.7071L14.3408 19.9772L14.5132 20.7071ZM9.48673 20.7071L9.65916 19.9772L9.48673 20.7071ZM14.8284 5.01423L14.2962 5.54267L14.8284 5.01423ZM20.4678 11.7582C20.7596 12.0521 21.2345 12.0538 21.5284 11.7619C21.8224 11.4701 21.8241 10.9952 21.5322 10.7013L20.4678 11.7582ZM9.17157 5.01423L9.70378 5.54267L9.17157 5.01423ZM2.46779 10.7013C2.17594 10.9952 2.17762 11.4701 2.47155 11.7619C2.76548 12.0538 3.24035 12.0521 3.53221 11.7582L2.46779 10.7013ZM18.54 9.71903V14.6374H20.04V9.71903H18.54ZM5.45999 14.6374V9.71903H3.95999V14.6374H5.45999ZM14.3408 19.9772C12.8011 20.3409 11.1988 20.3409 9.65916 19.9772L9.3143 21.437C11.0808 21.8543 12.9192 21.8543 14.6857 21.437L14.3408 19.9772ZM9.65916 19.9772C7.2026 19.3969 5.45999 17.1877 5.45999 14.6374H3.95999C3.95999 17.8765 6.17421 20.6952 9.3143 21.437L9.65916 19.9772ZM14.6857 21.437C17.8258 20.6952 20.04 17.8765 20.04 14.6374H18.54C18.54 17.1877 16.7974 19.3969 14.3408 19.9772L14.6857 21.437ZM14.2962 5.54267L20.4678 11.7582L21.5322 10.7013L15.3606 4.48578L14.2962 5.54267ZM8.63937 4.48578L2.46779 10.7013L3.53221 11.7582L9.70378 5.54267L8.63937 4.48578ZM15.3606 4.48578C14.7089 3.82945 14.1681 3.28246 13.6818 2.90885C13.1785 2.52211 12.6458 2.25 12 2.25V3.75C12.1827 3.75 12.3974 3.81359 12.7679 4.09826C13.1555 4.39606 13.6146 4.85618 14.2962 5.54267L15.3606 4.48578ZM9.70378 5.54267C10.3854 4.85618 10.8445 4.39606 11.2321 4.09826C11.6026 3.81359 11.8173 3.75 12 3.75V2.25C11.3542 2.25 10.8215 2.52211 10.3182 2.90885C9.83194 3.28246 9.29106 3.82945 8.63937 4.48578L9.70378 5.54267Z" fill="#0051FF"/>
</svg>
