<svg width="181" height="179" viewBox="0 0 181 179" fill="none" xmlns="http://www.w3.org/2000/svg">
<g style="mix-blend-mode:overlay" opacity="0.6">
<path d="M124.226 66.9959L112.119 74.0226C111.848 74.175 111.459 74.2427 111.087 74.175C110.02 73.9718 109.072 73.6163 108.293 73.176C107.395 72.6511 106.701 72.0077 106.278 71.2797C105.922 70.6532 105.313 70.0775 104.432 69.5865C101.097 67.6563 95.4585 67.8933 92.6817 70.2638C91.0054 71.7199 91.0054 73.6671 92.6986 75.1232C93.0034 75.3772 93.3251 75.6142 93.6976 75.8174C94.5442 76.3084 95.5431 76.664 96.6098 76.8672C97.8628 77.1211 98.9972 77.5275 99.9116 78.0524C100.69 78.5096 101.3 79.0344 101.656 79.6609C101.757 79.881 101.656 80.1011 101.385 80.2705L90.1758 86.7892L79.5764 80.6768C78.7637 80.2027 77.4938 80.1011 76.5457 80.4736C75.0557 81.0493 73.9551 81.9128 73.3625 82.9288C72.8545 83.7923 71.8555 84.605 70.3655 85.1807C67.8596 86.1458 64.4902 86.1458 61.9674 85.1638C61.5271 84.9944 61.1377 84.8082 60.7821 84.605C57.8021 82.878 57.7852 80.0842 60.7483 78.3572C61.6118 77.8661 62.5938 77.5106 63.6775 77.2905C65.4214 76.9518 66.9114 76.3084 67.8766 75.4618C68.4861 74.9031 68.3168 74.175 67.4871 73.7009L55.9227 67.0298L89.9556 47.2534L124.226 66.9959ZM70.6703 106.752C69.8237 106.261 68.8247 105.905 67.775 105.702C66.522 105.448 65.3706 105.059 64.4733 104.534C64.1177 104.331 63.796 104.11 63.5251 103.856C62.8986 103.298 63.0679 102.57 63.8806 102.096L74.3953 95.9832L62.6108 89.1766C62.3399 89.0242 61.9504 88.9565 61.5949 89.0242C59.2921 89.4644 57.5989 90.5989 56.7862 91.9365C56.2783 92.8 55.2793 93.6127 53.7893 94.1884C51.2834 95.1535 47.897 95.1535 45.3911 94.1715C44.9509 94.0022 44.5614 93.8159 44.2059 93.6127C41.2259 91.8857 41.2089 89.0919 44.172 87.3649C45.0186 86.8739 46.0176 86.5183 47.1012 86.2982C49.4378 85.841 51.3511 84.859 52.0961 83.5214C52.2146 83.3182 52.0961 83.0981 51.8252 82.9288L40.1592 76.2068L6.12622 95.9832L40.3793 115.76L51.876 109.088C52.6718 108.631 53.9586 108.513 54.9068 108.885C55.3301 109.055 55.7364 109.241 56.092 109.444C56.9894 109.952 57.6667 110.595 58.09 111.306C58.4455 111.933 59.0551 112.526 59.9186 113.017C63.2542 114.947 68.9094 114.727 71.6862 112.322C73.3794 110.883 73.3625 108.919 71.6693 107.463C71.3645 107.192 71.0428 106.955 70.6703 106.752ZM141.395 76.901L129.898 83.5891C129.085 84.0632 127.815 84.1648 126.85 83.8092C126.427 83.6399 126.02 83.4536 125.665 83.2505C124.767 82.7425 124.09 82.0822 123.667 81.371C123.294 80.7446 122.685 80.1689 121.821 79.6609C118.486 77.7307 112.847 77.9677 110.088 80.3551C108.394 81.7943 108.394 83.7584 110.088 85.2145C110.392 85.4685 110.714 85.7056 111.087 85.9088C111.933 86.3998 112.949 86.7553 113.999 86.9585C115.252 87.1956 116.369 87.6019 117.267 88.1099C117.622 88.3131 117.961 88.5501 118.232 88.7872C118.875 89.3459 118.723 90.074 117.893 90.5481L107.362 96.6605L118.655 103.179C118.926 103.332 119.332 103.399 119.688 103.332C121.991 102.891 123.684 101.757 124.48 100.419C125.005 99.5389 126.02 98.7431 127.493 98.1674C129.999 97.2023 133.369 97.2023 135.892 98.1674C136.315 98.3367 136.704 98.523 137.06 98.7261C140.057 100.453 140.091 103.264 137.128 104.991C136.264 105.482 135.265 105.838 134.198 106.041C131.862 106.498 129.949 107.497 129.204 108.818C129.102 109.038 129.204 109.258 129.475 109.427L141.632 116.454L175.664 96.6774L141.395 76.901ZM114.219 118.977C113.406 118.519 113.237 117.774 113.846 117.216C114.828 116.352 116.302 115.726 118.029 115.37C119.112 115.15 120.128 114.811 120.975 114.303C123.938 112.576 123.921 109.783 120.924 108.056C120.568 107.852 120.179 107.666 119.739 107.48C117.233 106.498 113.863 106.498 111.357 107.463C109.867 108.056 108.852 108.851 108.361 109.732C107.751 110.731 106.667 111.611 105.194 112.17C104.229 112.543 102.959 112.441 102.147 111.967L91.5472 105.854L80.3384 112.373C80.0844 112.526 79.9489 112.746 80.0675 112.966C80.423 113.575 81.0326 114.117 81.8114 114.574C82.7258 115.099 83.8771 115.506 85.1301 115.76C86.1798 115.963 87.1788 116.318 88.0254 116.809C88.381 117.013 88.7196 117.25 89.0075 117.504C90.7006 118.96 90.7006 120.924 89.0244 122.363C86.2645 124.75 80.6093 124.97 77.2737 123.04C76.4271 122.549 75.8006 121.957 75.4281 121.347C75.0049 120.636 74.3106 119.976 73.4302 119.468C72.6344 119.01 71.6862 118.655 70.6195 118.452C70.2639 118.384 69.8576 118.452 69.5867 118.621L57.4974 125.648L91.7504 145.424L125.766 125.648L114.219 118.977Z" fill="#3A0155"/>
</g>
<path d="M112.119 59.8197C111.848 59.9721 111.459 60.0398 111.087 59.9721C110.02 59.7689 109.072 59.4133 108.293 58.9731C107.395 58.4482 106.701 57.8048 106.278 57.0767C105.922 56.4502 105.313 55.8746 104.432 55.3835C101.097 53.4533 95.4585 53.6904 92.6817 56.0608C91.852 56.7889 91.4287 57.6355 91.4287 58.4821V60.3784C91.4287 59.5318 91.852 58.6852 92.6817 57.9572C95.4585 55.5867 101.097 55.3497 104.432 57.2799C105.296 57.7709 105.905 58.3635 106.278 58.9731C106.701 59.7012 107.395 60.3446 108.293 60.8694C109.072 61.3266 110.02 61.6822 111.087 61.8684C111.442 61.9362 111.848 61.8854 112.119 61.716L124.226 54.6893V52.793L112.119 59.8197Z" fill="url(#paint0_linear)"/>
<path d="M67.5041 59.4641L55.9397 52.793V54.6893L67.5041 61.3605C67.9952 61.6483 68.2491 62.0208 68.2491 62.3933V60.497C68.2491 60.1245 67.9782 59.7519 67.5041 59.4641Z" fill="#811A99"/>
<path d="M79.5936 66.4405C78.7809 65.9664 77.511 65.8648 76.5628 66.2373C75.0728 66.813 73.9722 67.6765 73.3796 68.6924C72.8717 69.556 71.8727 70.3687 70.3827 70.9444C67.8768 71.9095 64.5074 71.9095 61.9845 70.9444C61.5443 70.7751 61.1549 70.5888 60.7993 70.3856C59.2924 69.5221 58.5474 68.3877 58.5474 67.2532V69.1496C58.5474 70.284 59.2924 71.4185 60.7993 72.282C61.1549 72.4852 61.5443 72.6714 61.9845 72.8407C64.5074 73.8058 67.8768 73.8228 70.3827 72.8577C71.8727 72.282 72.8717 71.4862 73.3796 70.6057C73.9722 69.5898 75.0728 68.7263 76.5628 68.1506C77.511 67.795 78.7809 67.8797 79.5936 68.3538L90.1929 74.4662V72.5698L79.5936 66.4405Z" fill="#811A99"/>
<path d="M101.402 66.0506L90.1929 72.5693V74.4657L101.402 67.9469C101.605 67.8284 101.707 67.676 101.707 67.5067V65.6104C101.707 65.7797 101.588 65.9321 101.402 66.0506Z" fill="#76118E"/>
<path d="M89.9727 33L55.9397 52.7764L67.5041 59.4475C68.3169 59.9216 68.4862 60.6497 67.8936 61.2084C66.9284 62.055 65.4385 62.6984 63.6945 63.0371C62.6278 63.2402 61.6288 63.5958 60.7653 64.1038C57.8022 65.8308 57.8022 68.6246 60.7991 70.3516C61.1547 70.5548 61.5441 70.741 61.9844 70.9103C64.5072 71.8755 67.8766 71.8924 70.3825 70.9103C71.8725 70.3347 72.8715 69.5389 73.3795 68.6584C73.9721 67.6425 75.0727 66.779 76.5627 66.2033C77.5108 65.8477 78.7807 65.9324 79.5935 66.4065L90.1928 72.5189L101.402 66.0001C101.673 65.8477 101.774 65.6107 101.673 65.3906C101.317 64.781 100.707 64.2392 99.9286 63.782C99.0142 63.2572 97.8798 62.8508 96.6269 62.5968C95.5602 62.3767 94.5612 62.0381 93.7146 61.547C93.359 61.3439 93.0204 61.1068 92.7156 60.8528C91.0224 59.3967 91.0394 57.4495 92.6987 55.9934C95.4755 53.623 101.114 53.3859 104.449 55.3161C105.313 55.8072 105.922 56.3998 106.295 57.0093C106.718 57.7374 107.412 58.3808 108.31 58.9057C109.089 59.3628 110.037 59.7184 111.104 59.9047C111.459 59.9724 111.865 59.9216 112.136 59.7523L124.243 52.7256L89.9727 33Z" fill="#8E1CAA"/>
<path d="M52.0963 69.3187C51.3513 70.6563 49.438 71.6384 47.1014 72.0956C46.0347 72.2987 45.0188 72.6712 44.1722 73.1623C42.6991 74.0258 41.9541 75.1433 41.9541 76.2608V78.1571C41.9541 77.0396 42.6991 75.9052 44.1722 75.0586C45.0188 74.5676 46.0177 74.212 47.1014 73.9919C49.438 73.5348 51.3513 72.5527 52.0963 71.2151C52.1301 71.1643 52.1471 71.1135 52.1471 71.0458V69.1494C52.1471 69.2171 52.1301 69.2679 52.0963 69.3187Z" fill="#5B126C"/>
<path d="M63.8807 87.8756C63.4066 88.1634 63.1357 88.5359 63.1357 88.8915V90.7878C63.1357 90.4153 63.3897 90.0428 63.8807 89.7719L74.3954 83.6596V81.7632L63.8807 87.8756Z" fill="#5B126C"/>
<path d="M6.12622 81.7808V83.6771L40.3624 103.453L40.3793 101.54L6.12622 81.7808Z" fill="#811A99"/>
<path d="M71.6863 98.1017C68.9095 100.489 63.2543 100.726 59.9187 98.7959C59.0721 98.3048 58.4626 97.7122 58.0901 97.0858C57.6668 96.3746 56.9726 95.7312 56.0921 95.2232C55.7196 95.0201 55.3302 94.8169 54.9069 94.6645C53.9587 94.3089 52.6719 94.4105 51.8761 94.8677L40.3794 101.539V103.435L51.8761 96.764C52.6719 96.3069 53.9587 96.1884 54.9069 96.5609C55.3302 96.7302 55.7366 96.9164 56.0921 97.1196C56.9895 97.6276 57.6668 98.271 58.0901 98.9821C58.4456 99.6086 59.0552 100.201 59.9187 100.692C63.2543 102.622 68.9095 102.402 71.6863 99.998C72.516 99.2869 72.9393 98.4403 72.9393 97.5937V95.6973C72.9393 96.527 72.516 97.3736 71.6863 98.1017Z" fill="url(#paint1_linear)"/>
<path d="M70.6703 92.5494C69.8237 92.0584 68.8247 91.7028 67.775 91.4996C66.522 91.2456 65.3706 90.8562 64.4733 90.3313C64.1177 90.1281 63.796 89.908 63.5251 89.6541C62.8986 89.0953 63.0679 88.3672 63.8807 87.8931L74.3953 81.7808L62.6108 74.9742C62.3399 74.8218 61.9504 74.7541 61.5949 74.8218C59.2921 75.262 57.5989 76.3964 56.7862 77.734C56.2783 78.5976 55.2793 79.4103 53.7893 79.986C51.2834 80.9511 47.897 80.9511 45.3911 79.9691C44.9509 79.7997 44.5614 79.6135 44.2059 79.4103C41.2259 77.6833 41.2089 74.8895 44.172 73.1625C45.0186 72.6714 46.0176 72.3159 47.1012 72.0958C49.4378 71.6386 51.3511 70.6566 52.0961 69.3189C52.2146 69.1158 52.0961 68.8956 51.8252 68.7263L40.1592 62.0044L6.12622 81.7808L40.3793 101.557L51.876 94.886C52.6718 94.4288 53.9586 94.3103 54.9068 94.6828C55.3301 94.8521 55.7364 95.0384 56.092 95.2416C56.9894 95.7495 57.6667 96.3929 58.09 97.104C58.4455 97.7305 59.0551 98.3231 59.9186 98.8142C63.2542 100.744 68.9094 100.524 71.6862 98.12C73.3794 96.6808 73.3625 94.7167 71.6693 93.2605C71.3645 92.9896 71.0428 92.7526 70.6703 92.5494Z" fill="#8E1CAA"/>
<path d="M118.232 74.6016C117.944 74.3476 117.622 74.1275 117.267 73.9243C116.369 73.4164 115.252 73.01 113.999 72.773C112.949 72.5698 111.933 72.2142 111.087 71.7232C110.731 71.52 110.393 71.283 110.088 71.029C109.241 70.3009 108.818 69.4543 108.818 68.5908V70.4872C108.818 71.3338 109.241 72.1973 110.088 72.9254C110.393 73.1793 110.714 73.4164 111.087 73.6196C111.933 74.1106 112.949 74.4662 113.999 74.6693C115.252 74.9064 116.369 75.3128 117.267 75.8207C117.622 76.0239 117.961 76.2609 118.232 76.498C118.503 76.735 118.621 76.989 118.621 77.2599V75.3635C118.621 75.0926 118.486 74.8217 118.232 74.6016Z" fill="#0042DB"/>
<path d="M137.043 84.5401C136.688 84.3369 136.298 84.1507 135.875 83.9814C133.352 83.0163 129.983 82.9993 127.477 83.9645C125.987 84.5571 124.988 85.3359 124.463 86.2164C123.684 87.5709 121.974 88.6884 119.671 89.1286C119.316 89.1964 118.909 89.1456 118.638 88.9763L107.345 82.4575V84.3539L118.638 90.8726C118.909 91.025 119.316 91.0927 119.671 91.025C121.974 90.5848 123.667 89.4504 124.463 88.1127C124.988 87.2323 126.004 86.4365 127.477 85.8608C129.983 84.8957 133.352 84.8957 135.875 85.8777C136.298 86.0471 136.688 86.2333 137.043 86.4365C138.55 87.3169 139.312 88.4514 139.312 89.6027V87.7064C139.312 86.555 138.55 85.4036 137.043 84.5401Z" fill="#0042DB"/>
<path d="M129.441 95.2249C129.238 95.1064 129.136 94.954 129.136 94.7847V96.681C129.136 96.8503 129.238 97.0027 129.441 97.1213L141.598 104.148V102.252L129.441 95.2249Z" fill="#0042DB"/>
<path d="M141.598 102.251V104.148L175.631 84.3715L175.648 82.4751L141.598 102.251Z" fill="#0449E7"/>
<path d="M141.395 62.6987L129.898 69.3699C129.086 69.844 127.816 69.9455 126.851 69.59C126.427 69.4207 126.021 69.2344 125.665 69.0312C124.768 68.5233 124.091 67.8629 123.667 67.1518C123.295 66.5253 122.685 65.9496 121.822 65.4417C118.486 63.5115 112.848 63.7485 110.088 66.1359C108.395 67.5751 108.395 69.5392 110.088 70.9953C110.393 71.2493 110.715 71.4863 111.087 71.6895C111.934 72.1805 112.95 72.5361 113.999 72.7393C115.252 72.9763 116.37 73.3827 117.267 73.8907C117.623 74.0938 117.961 74.3309 118.232 74.5679C118.876 75.1267 118.723 75.8548 117.894 76.3288L107.362 82.4412L118.656 88.96C118.926 89.1124 119.333 89.1801 119.688 89.1124C121.991 88.6721 123.684 87.5377 124.48 86.2001C125.005 85.3196 126.021 84.5238 127.494 83.9482C130 82.983 133.369 82.9831 135.892 83.9651C136.315 84.1344 136.705 84.3207 137.06 84.5238C140.057 86.2509 140.091 89.0616 137.128 90.7886C136.265 91.2796 135.266 91.6352 134.199 91.8384C131.862 92.2955 129.949 93.2945 129.204 94.6152C129.103 94.8353 129.204 95.0554 129.475 95.2247L141.632 102.251L175.665 82.4751L141.395 62.6987Z" fill="#0051FF"/>
<path d="M120.975 100.1C120.112 100.591 119.113 100.946 118.029 101.166C116.302 101.505 114.829 102.148 113.847 103.012C113.593 103.232 113.474 103.486 113.474 103.74V105.636C113.474 105.382 113.593 105.128 113.847 104.908C114.829 104.045 116.302 103.418 118.029 103.063C119.113 102.842 120.129 102.504 120.975 101.996C122.448 101.149 123.176 100.032 123.193 98.8973V97.001C123.193 98.1354 122.448 99.2529 120.975 100.1Z" fill="#5B126C"/>
<path d="M89.0247 103.3C88.72 103.046 88.3982 102.809 88.0427 102.606C87.1961 102.115 86.1971 101.776 85.1473 101.556C83.8775 101.302 82.7261 100.896 81.8287 100.371C81.0498 99.9139 80.4403 99.3721 80.0847 98.7626C80.0509 98.7118 80.0339 98.661 80.0339 98.5933V100.49C80.0339 100.54 80.0509 100.591 80.0847 100.659C80.4403 101.268 81.0498 101.81 81.8287 102.267C82.743 102.792 83.8944 103.199 85.1473 103.453C86.1971 103.656 87.1961 104.011 88.0427 104.502C88.3982 104.706 88.7369 104.943 89.0247 105.197C89.8713 105.925 90.2946 106.788 90.2946 107.652V105.755C90.2946 104.892 89.8713 104.045 89.0247 103.3Z" fill="#5B126C"/>
<path d="M57.5146 111.445V113.341L91.7677 133.118V131.221L57.5146 111.445Z" fill="#811A99"/>
<path d="M91.7676 131.221V133.118L125.784 113.341V111.445L91.7676 131.221Z" fill="#5B126C"/>
<path d="M114.219 104.756C113.406 104.299 113.237 103.554 113.847 102.996C114.829 102.132 116.302 101.506 118.029 101.15C119.112 100.93 120.128 100.591 120.975 100.083C123.938 98.3562 123.921 95.5625 120.924 93.8354C120.569 93.6322 120.179 93.446 119.739 93.2597C117.233 92.2777 113.864 92.2777 111.358 93.2428C109.868 93.8354 108.852 94.6312 108.361 95.5117C107.751 96.5106 106.668 97.3911 105.194 97.9498C104.229 98.3223 102.959 98.2208 102.147 97.7467L91.5474 91.6343L80.3386 98.153C80.0846 98.3054 79.9491 98.5255 80.0677 98.7456C80.4232 99.3552 81.0328 99.897 81.8116 100.354C82.726 100.879 83.8773 101.285 85.1303 101.539C86.1801 101.743 87.179 102.098 88.0256 102.589C88.3812 102.792 88.7198 103.029 89.0077 103.283C90.7008 104.739 90.7009 106.704 89.0246 108.143C86.2647 110.53 80.6095 110.75 77.2739 108.82C76.4273 108.329 75.8009 107.736 75.4284 107.127C75.0051 106.416 74.3109 105.755 73.4304 105.247C72.6346 104.79 71.6864 104.435 70.6197 104.232C70.2641 104.164 69.8578 104.248 69.5869 104.401L57.4976 111.428L91.7676 131.221L125.784 111.444L114.219 104.756Z" fill="#8E1CAA"/>
<defs>
<linearGradient id="paint0_linear" x1="112.308" y1="57.3371" x2="109.868" y2="57.3371" gradientUnits="userSpaceOnUse">
<stop stop-color="#76118E"/>
<stop offset="0.6436" stop-color="#5F1771"/>
<stop offset="1" stop-color="#5B126C"/>
</linearGradient>
<linearGradient id="paint1_linear" x1="61.108" y1="98.935" x2="58.6855" y2="98.935" gradientUnits="userSpaceOnUse">
<stop stop-color="#76118E"/>
<stop offset="0.6436" stop-color="#5F1771"/>
<stop offset="1" stop-color="#5B126C"/>
</linearGradient>
</defs>
</svg>
