<svg width="48" height="48" viewBox="0 0 48 48" fill="none" xmlns="http://www.w3.org/2000/svg">
<g id="Iconly/Curved/Work">
<g id="Work">
<path id="Stroke 1" d="M23.9224 33.0333V27.7773" stroke="#A437BF" stroke-width="2.5" stroke-linecap="round" stroke-linejoin="round"/>
<path id="Stroke 2" d="M42.179 22.9551L42.121 22.9971C37.277 25.9811 30.881 27.7831 23.913 27.7831C16.945 27.7831 10.567 25.9811 5.72504 22.9971L5.66504 22.9551" stroke="#A437BF" stroke-width="2.5" stroke-linecap="round" stroke-linejoin="round"/>
<path id="Stroke 4" fill-rule="evenodd" clip-rule="evenodd" d="M5.50049 26.7009C5.50049 14.3969 10.1065 10.2949 23.9225 10.2949C37.7405 10.2949 42.3445 14.3969 42.3445 26.7009C42.3445 39.0049 37.7405 43.1069 23.9225 43.1069C10.1065 43.1069 5.50049 39.0049 5.50049 26.7009Z" stroke="#0051FF" stroke-width="2.5" stroke-linecap="round" stroke-linejoin="round"/>
<path id="Stroke 6" d="M30.4477 10.7384V9.47839C30.4477 6.95039 28.6017 4.90039 26.3277 4.90039H21.5177C19.2437 4.90039 17.3977 6.95039 17.3977 9.47839V10.7384" stroke="#0051FF" stroke-width="2.5" stroke-linecap="round" stroke-linejoin="round"/>
</g>
</g>
</svg>
