<svg width="48" height="48" viewBox="0 0 48 48" fill="none" xmlns="http://www.w3.org/2000/svg">
<path d="M6.70576 30.0991L5.48879 30.3846L6.70576 30.0991ZM6.70576 17.9009L5.48879 17.6154L6.70576 17.9009ZM41.2943 17.9009L40.0773 18.1863L41.2943 17.9009ZM41.2943 30.0991L40.0773 29.8137L41.2943 30.0991ZM30.0991 41.2943L29.8137 40.0773L30.0991 41.2943ZM17.9009 41.2943L17.6154 42.5112L17.9009 41.2943ZM17.9009 6.70575L17.6154 5.48879L17.9009 6.70575ZM30.0991 6.70575L29.8137 7.92272L30.0991 6.70575ZM7.92272 29.8137C7.02576 25.9898 7.02576 22.0102 7.92272 18.1863L5.48879 17.6154C4.50374 21.8148 4.50374 26.1852 5.48879 30.3846L7.92272 29.8137ZM40.0773 18.1863C40.9742 22.0102 40.9742 25.9898 40.0773 29.8137L42.5112 30.3846C43.4963 26.1852 43.4963 21.8148 42.5112 17.6154L40.0773 18.1863ZM29.8137 40.0773C25.9898 40.9742 22.0102 40.9742 18.1863 40.0773L17.6154 42.5112C21.8148 43.4963 26.1852 43.4963 30.3846 42.5112L29.8137 40.0773ZM18.1863 7.92272C22.0102 7.02576 25.9898 7.02576 29.8137 7.92272L30.3846 5.48878C26.1852 4.50374 21.8148 4.50374 17.6154 5.48879L18.1863 7.92272ZM18.1863 40.0773C13.0937 38.8827 9.1173 34.9063 7.92272 29.8137L5.48879 30.3846C6.9002 36.4017 11.5984 41.0998 17.6154 42.5112L18.1863 40.0773ZM30.3846 42.5112C36.4017 41.0998 41.0998 36.4017 42.5112 30.3846L40.0773 29.8137C38.8827 34.9063 34.9063 38.8827 29.8137 40.0773L30.3846 42.5112ZM29.8137 7.92272C34.9063 9.11729 38.8827 13.0937 40.0773 18.1863L42.5112 17.6154C41.0998 11.5984 36.4017 6.90019 30.3846 5.48878L29.8137 7.92272ZM17.6154 5.48879C11.5984 6.90019 6.9002 11.5984 5.48879 17.6154L7.92272 18.1863C9.1173 13.0937 13.0937 9.11729 18.1863 7.92272L17.6154 5.48879Z" fill="#0051FF"/>
<path d="M15.5215 17.9154C15.0333 17.4273 14.2418 17.4273 13.7537 17.9154C13.2655 18.4036 13.2655 19.195 13.7537 19.6832L15.5215 17.9154ZM16.7181 20.8798L15.8342 21.7637C16.0687 21.9981 16.3866 22.1298 16.7181 22.1298C17.0496 22.1298 17.3676 21.9981 17.602 21.7637L16.7181 20.8798ZM21.7631 17.6026C22.2512 17.1145 22.2512 16.323 21.7631 15.8349C21.2749 15.3467 20.4835 15.3467 19.9953 15.8349L21.7631 17.6026ZM26.0806 18.5896C25.3902 18.5896 24.8306 19.1492 24.8306 19.8396C24.8306 20.5299 25.3902 21.0896 26.0806 21.0896V18.5896ZM33.3625 21.0896C34.0528 21.0896 34.6125 20.5299 34.6125 19.8396C34.6125 19.1492 34.0528 18.5896 33.3625 18.5896V21.0896ZM15.5215 28.3181C15.0333 27.83 14.2418 27.83 13.7537 28.3181C13.2655 28.8063 13.2655 29.5978 13.7537 30.0859L15.5215 28.3181ZM16.7181 31.2826L15.8342 32.1665C16.3224 32.6546 17.1138 32.6546 17.602 32.1665L16.7181 31.2826ZM21.7631 28.0054C22.2512 27.5172 22.2512 26.7257 21.7631 26.2376C21.2749 25.7494 20.4835 25.7494 19.9953 26.2376L21.7631 28.0054ZM26.0806 28.9923C25.3902 28.9923 24.8306 29.5519 24.8306 30.2423C24.8306 30.9327 25.3902 31.4923 26.0806 31.4923V28.9923ZM33.3625 31.4923C34.0528 31.4923 34.6125 30.9327 34.6125 30.2423C34.6125 29.5519 34.0528 28.9923 33.3625 28.9923V31.4923ZM13.7537 19.6832L15.8342 21.7637L17.602 19.996L15.5215 17.9154L13.7537 19.6832ZM17.602 21.7637L21.7631 17.6026L19.9953 15.8349L15.8342 19.996L17.602 21.7637ZM26.0806 21.0896H33.3625V18.5896H26.0806V21.0896ZM13.7537 30.0859L15.8342 32.1665L17.602 30.3987L15.5215 28.3181L13.7537 30.0859ZM17.602 32.1665L21.7631 28.0054L19.9953 26.2376L15.8342 30.3987L17.602 32.1665ZM26.0806 31.4923H33.3625V28.9923H26.0806V31.4923Z" fill="#A437BF"/>
</svg>
