<svg width="48" height="48" viewBox="0 0 48 48" fill="none" xmlns="http://www.w3.org/2000/svg">
<g id="Iconly/Curved/Password">
<g id="Password">
<path id="Stroke 1" fill-rule="evenodd" clip-rule="evenodd" d="M21.3776 24.0009C21.3776 26.0469 19.7196 27.7049 17.6736 27.7049C15.6276 27.7049 13.9696 26.0469 13.9696 24.0009C13.9696 21.9549 15.6276 20.2969 17.6736 20.2969H17.6796C19.7236 20.2989 21.3776 21.9569 21.3776 24.0009Z" stroke="#A437BF" stroke-width="2.5" stroke-linecap="round" stroke-linejoin="round"/>
<path id="Stroke 3" d="M21.3835 24H34.0195V27.704" stroke="#A437BF" stroke-width="2.5" stroke-linecap="round" stroke-linejoin="round"/>
<path id="Stroke 5" d="M28.364 27.704V24" stroke="#A437BF" stroke-width="2.5" stroke-linecap="round" stroke-linejoin="round"/>
<path id="Stroke 7" fill-rule="evenodd" clip-rule="evenodd" d="M5.49976 24C5.49976 10.126 10.1258 5.5 23.9998 5.5C37.8738 5.5 42.4998 10.126 42.4998 24C42.4998 37.874 37.8738 42.5 23.9998 42.5C10.1258 42.5 5.49976 37.874 5.49976 24Z" stroke="#0051FF" stroke-width="2.5" stroke-linecap="round" stroke-linejoin="round"/>
</g>
</g>
</svg>
