<svg width="48" height="48" viewBox="0 0 48 48" fill="none" xmlns="http://www.w3.org/2000/svg">
<path d="M15.6409 28.9201C16.8017 29.7479 18.1406 30.3573 19.5951 30.6878M32.3591 28.9201C31.1983 29.7479 29.8594 30.3573 28.4049 30.6878M28.4049 30.6878C25.5076 31.346 22.4924 31.346 19.5951 30.6878M28.4049 30.6878C32.4168 29.7763 35.5492 26.7425 36.4903 22.857C37.1699 20.0509 37.1699 17.1305 36.4903 14.3245C35.5492 10.4389 32.4168 7.40508 28.4049 6.49366C25.5076 5.83545 22.4924 5.83545 19.5951 6.49366C15.5832 7.40508 12.4508 10.4389 11.5097 14.3245C10.8301 17.1305 10.8301 20.0509 11.5097 22.857C12.4508 26.7425 15.5832 29.7763 19.5951 30.6878" stroke="#0051FF" stroke-width="2.5"/>
<path d="M13.3472 37.9336C12.6585 40.6399 15.5534 42.889 18.1318 41.6508L21.9974 39.7943C23.2591 39.1883 24.7408 39.1883 26.0026 39.7943L29.8682 41.6508C32.4465 42.889 35.3415 40.6399 34.6528 37.9336" stroke="#A437BF" stroke-width="2.5" stroke-linecap="round"/>
</svg>
