<svg width="48" height="48" viewBox="0 0 48 48" fill="none" xmlns="http://www.w3.org/2000/svg">
<g id="Iconly/Curved/3 User">
<g id="3 User">
<path id="Stroke 1" fill-rule="evenodd" clip-rule="evenodd" d="M23.945 40.7362C17.467 40.7362 11.933 39.7562 11.933 35.8322C11.933 31.9082 17.431 28.4922 23.945 28.4922C30.423 28.4922 35.957 31.8762 35.957 35.7982C35.957 39.7202 30.459 40.7362 23.945 40.7362Z" stroke="#0051FF" stroke-width="2.5" stroke-linecap="round" stroke-linejoin="round"/>
<path id="Stroke 3" fill-rule="evenodd" clip-rule="evenodd" d="M23.945 22.898C28.197 22.898 31.645 19.452 31.645 15.2C31.645 10.948 28.197 7.5 23.945 7.5C19.693 7.5 16.245 10.948 16.245 15.2C16.233 19.436 19.653 22.884 23.891 22.898H23.945Z" stroke="#0051FF" stroke-width="2.5" stroke-linecap="round" stroke-linejoin="round"/>
<path id="Stroke 5" d="M36.7245 20.784C39.1985 20.122 41.0225 17.866 41.0225 15.18C41.0225 12.378 39.0365 10.038 36.3925 9.49805" stroke="#A437BF" stroke-width="2.5" stroke-linecap="round" stroke-linejoin="round"/>
<path id="Stroke 7" d="M37.8865 27.0898C41.3945 27.0898 44.3905 29.4678 44.3905 31.5918C44.3905 32.8418 43.3565 34.2038 41.7885 34.5718" stroke="#A437BF" stroke-width="2.5" stroke-linecap="round" stroke-linejoin="round"/>
<path id="Stroke 9" d="M11.1677 20.784C8.69168 20.122 6.86768 17.866 6.86768 15.18C6.86768 12.378 8.85568 10.038 11.4977 9.49805" stroke="#A437BF" stroke-width="2.5" stroke-linecap="round" stroke-linejoin="round"/>
<path id="Stroke 11" d="M10.0036 27.0898C6.49563 27.0898 3.49963 29.4678 3.49963 31.5918C3.49963 32.8418 4.53363 34.2038 6.10363 34.5718" stroke="#A437BF" stroke-width="2.5" stroke-linecap="round" stroke-linejoin="round"/>
</g>
</g>
</svg>
