<svg width="24" height="24" viewBox="0 0 24 24" fill="none" xmlns="http://www.w3.org/2000/svg">
<path d="M20 2H4C2.89543 2 2 2.89543 2 4V20C2 21.1046 2.89543 22 4 22H20C21.1046 22 22 21.1046 22 20V4C22 2.89543 21.1046 2 20 2Z" fill="#1569BF"/>
<path d="M6.70701 5.03711C7.62303 5.03786 8.37852 5.79444 8.37655 6.71503C8.37435 7.67897 7.57441 8.4055 6.69573 8.38456C5.8045 8.4026 5.02128 7.65821 5.02145 6.70866C5.02145 5.78773 5.77988 5.03641 6.70701 5.03711Z" fill="white"/>
<path d="M7.68018 18.961H5.71758C5.46287 18.961 5.25639 18.7545 5.25639 18.4998V10.1272C5.25639 9.8725 5.46287 9.66602 5.71758 9.66602H7.68018C7.93489 9.66602 8.14137 9.8725 8.14137 10.1272V18.4998C8.14133 18.7545 7.93489 18.961 7.68018 18.961Z" fill="white"/>
<path d="M18.9786 12.6059C18.9786 10.8507 17.5557 9.42773 15.8004 9.42773H15.2971C14.3368 9.42773 13.4884 9.90688 12.9781 10.6392C12.9224 10.7191 12.8709 10.802 12.8236 10.8875C12.8072 10.8851 12.7975 10.8838 12.7973 10.8843V9.85654C12.7973 9.75082 12.7116 9.66507 12.6058 9.66507H10.1572C10.0515 9.66507 9.96577 9.75078 9.96577 9.85654V18.7687C9.96577 18.8744 10.0514 18.9601 10.1572 18.9602L12.6591 18.9608C12.7649 18.9608 12.8506 18.8751 12.8506 18.7693V13.6205C12.8506 12.7305 13.5605 11.9915 14.4504 11.9815C14.9047 11.9763 15.3166 12.1584 15.6134 12.4554C15.9064 12.7482 16.0875 13.153 16.0875 13.5999V18.77C16.0875 18.8757 16.1732 18.9614 16.2789 18.9614L18.787 18.962C18.8928 18.9621 18.9785 18.8763 18.9785 18.7706V12.6059H18.9786Z" fill="white"/>
</svg>
