<svg width="128" height="124" viewBox="0 0 128 124" fill="none" xmlns="http://www.w3.org/2000/svg">
<mask id="mask0" mask-type="alpha" maskUnits="userSpaceOnUse" x="0" y="0" width="128" height="124">
<rect width="128" height="124" rx="32" fill="url(#paint0_linear)"/>
</mask>
<g mask="url(#mask0)">
<rect width="128" height="124" rx="32" fill="url(#paint1_linear)"/>
<path opacity="0.1" d="M69.3344 247.702C67.3148 247.029 65.744 245.458 64.1732 243.888C63.5 243.214 62.6024 242.541 61.9292 241.868C59.2364 239.4 56.3192 236.707 54.0752 233.341C50.2604 227.506 49.5872 220.999 51.8312 212.92C53.402 207.31 55.8704 201.7 58.1144 196.315C58.7876 194.744 59.4608 193.173 60.134 191.602C63.5 183.3 67.5392 173.65 69.11 163.552C70.4564 155.025 67.988 146.274 62.6024 139.99C57.6656 134.156 50.7092 131.014 43.304 130.79H42.6308H41.7332H40.8356C39.0404 130.79 37.2452 130.79 35.2256 130.341C30.962 129.668 28.2692 126.975 27.1472 122.712C26.474 120.468 26.2496 117.999 26.2496 115.755C26.2496 109.248 26.0252 103.189 25.1276 97.13C23.108 84.1148 16.376 75.3632 4.03401 69.9776C1.11681 68.8556 -1.3516 67.7336 -4.0444 66.836C-8.308 65.0408 -12.796 63.2456 -17.0596 61.226C-27.6064 56.0648 -36.1336 48.4352 -42.1924 38.5616C-43.09 37.2152 -43.9876 35.6444 -44.8852 34.298C-47.1292 30.4832 -49.3732 26.444 -52.2904 22.8536C-56.1052 17.468 -60.3688 14.9996 -65.3056 14.9996C-68.4472 14.9996 -72.0376 16.1216 -75.8524 18.3656C-90.6628 26.8928 -99.19 40.3568 -101.658 58.5332C-102.78 67.2848 -102.107 76.0364 -100.088 85.6856C-99.8632 87.2564 -99.4144 88.6028 -98.9656 90.1736C-98.068 94.2128 -97.1704 98.252 -96.4972 102.516C-95.5996 108.574 -96.0484 115.082 -97.3948 122.263C-99.8632 134.156 -103.005 143.356 -107.493 150.986C-112.878 160.186 -120.508 165.572 -130.157 166.918C-133.299 167.367 -136.44 167.592 -139.582 167.592C-150.802 167.592 -162.022 164.899 -173.915 159.289C-175.71 158.616 -177.281 157.718 -178.852 156.82C-184.013 154.352 -189.399 151.659 -195.009 150.088C-199.497 148.742 -203.985 148.069 -208.922 147.844C-209.819 147.844 -210.717 147.62 -211.39 147.62C-212.512 147.396 -213.634 147.396 -214.756 147.396C-214.98 147.396 -215.205 147.396 -215.654 146.947V123.609C-215.429 123.385 -215.205 123.385 -214.98 123.385C-214.532 123.385 -214.307 123.385 -213.858 123.609C-213.634 123.609 -213.41 123.834 -213.185 123.834C-198.15 126.751 -185.584 132.361 -174.364 140.888C-168.754 145.152 -163.817 148.742 -158.656 151.435C-152.148 155.025 -145.641 156.82 -138.909 157.045C-138.46 157.045 -138.011 157.045 -137.338 157.045C-127.24 157.045 -119.386 152.781 -114.225 144.254C-109.288 135.727 -106.595 125.853 -106.146 115.082C-105.922 107.901 -107.268 101.169 -108.839 94.6616C-111.308 84.788 -112.205 76.4852 -111.981 68.6312C-111.308 56.9624 -109.961 43.274 -103.902 30.932C-101.434 25.7708 -98.2924 20.834 -93.58 15.224C-92.0092 13.2044 -90.4384 11.4092 -88.8676 9.38961C-83.9308 3.33081 -78.994 -2.9524 -73.384 -8.5624C-70.2424 -12.3772 -67.3252 -15.07 -64.408 -17.0896C-57.9004 -21.802 -52.5148 -27.8608 -47.3536 -35.4904C-41.7436 -44.0176 -35.6848 -51.1984 -29.4016 -57.706C-25.138 -61.9696 -20.2012 -65.7844 -15.4888 -69.3748L-13.2448 -71.17C-7.8592 -75.2092 -4.2688 -79.9216 -2.2492 -85.5316C-2.0248 -85.9804 -1.576 -86.4292 -1.1272 -86.878H25.8008C26.2496 -86.4292 26.6984 -85.9804 26.9228 -85.0828C28.4936 -78.3508 32.3084 -73.414 35.8988 -69.3748C45.0992 -59.0524 51.6068 -48.5056 56.3192 -36.8368C59.2364 -29.4316 62.8268 -21.5776 67.988 -15.07C72.476 -9.46 77.8616 -4.2988 83.4716 -0.0351962L87.2864 2.88201C93.1208 7.37001 99.1796 12.0824 105.238 16.1216C109.726 19.0388 114.214 20.6096 118.927 20.834C119.151 20.834 119.6 20.834 119.824 20.834C125.21 20.834 129.922 18.59 133.962 14.3264C137.328 10.736 140.245 6.248 143.386 -0.0351962C146.528 -6.3184 148.996 -13.0504 151.689 -19.558C152.587 -21.802 153.484 -24.2704 154.382 -26.5144C156.85 -33.022 159.319 -38.1832 161.787 -42.8956C164.48 -48.0568 165.378 -52.7692 164.48 -57.706C163.134 -65.56 162.909 -73.6384 162.685 -80.3704C162.685 -81.268 162.685 -82.1656 162.909 -83.2876C163.134 -84.1852 163.134 -85.0828 163.134 -85.9804C163.134 -86.4292 163.358 -86.6536 163.582 -86.878H187.144C187.818 -86.4292 188.266 -85.9804 188.715 -84.8584C190.51 -80.8192 191.857 -77.902 193.652 -75.4336C198.813 -67.804 206.218 -63.5404 216.092 -62.194C218.336 -61.7452 220.356 -61.7452 222.6 -61.7452C223.946 -61.7452 225.292 -61.7452 226.639 -61.7452C229.107 -61.5208 231.576 -61.5208 233.82 -61.2964C239.205 -61.072 244.591 -60.8476 249.976 -59.7256C259.626 -57.4816 265.909 -50.0764 267.031 -39.754C267.704 -33.4708 267.704 -28.534 267.031 -23.8216C265.011 -11.4796 256.933 -2.728 245.488 -0.483996C242.796 -0.0351958 240.327 0.413603 237.634 0.413603C231.8 0.413603 225.741 -0.932798 219.907 -3.85C216.092 -5.8696 212.277 -8.1136 208.462 -10.582C206.892 -11.4796 205.545 -12.3772 203.974 -13.2748C201.73 -14.6212 199.038 -15.9676 196.345 -17.0896C193.652 -18.2116 190.735 -18.8848 187.818 -18.8848C183.554 -18.8848 179.066 -17.5384 174.578 -14.8456C169.417 -11.704 164.929 -7.216 160.665 -0.483996C156.85 5.5748 153.484 12.3068 150.567 18.59C149.67 20.3852 148.772 22.4048 147.874 24.2C146.079 27.7904 144.284 30.7076 142.04 33.4004C138.674 37.2152 134.41 39.2348 128.127 39.6836C127.454 39.6836 126.781 39.6836 126.108 39.6836C117.132 39.6836 108.829 36.0932 100.526 28.688C96.4868 25.0976 92.4476 21.5072 88.4084 17.6924C81.2276 11.1848 74.0468 4.6772 66.866 -1.8304C59.6852 -8.338 53.402 -16.6408 48.6896 -26.5144L48.4652 -26.9632C45.0992 -33.6952 41.7332 -40.6516 36.1232 -45.8128C28.9424 -52.7692 21.986 -56.1352 14.3564 -56.3596H13.6832C8.2976 -56.3596 3.8096 -53.8912 -0.454003 -48.9544C-2.4736 -46.486 -4.49319 -43.7932 -6.51279 -39.9784C-12.5716 -30.1048 -19.528 -20.2312 -27.8308 -10.1332C-32.0944 -5.1964 -34.5628 0.413598 -35.6848 6.248C-36.8068 12.7556 -36.1336 19.4876 -33.4408 27.3416C-29.4016 39.2348 -21.0988 47.3132 -8.08359 52.25C-3.81999 53.8208 0.219197 55.1672 4.2584 56.2892C7.1756 57.1868 10.0928 58.0844 13.01 58.982C22.2104 62.1236 29.3912 68.6312 35.0012 78.9536C36.572 81.6464 37.9184 84.5636 39.2648 87.4808C39.938 89.5004 41.06 91.52 41.9576 93.5396C45.548 100.496 50.7092 106.555 58.3388 112.614C67.0904 119.794 73.3736 125.629 78.7592 131.688C84.5936 138.42 89.9792 145.6 95.5892 153.903C98.9552 159.289 102.097 161.533 105.912 161.533C108.829 161.533 111.746 160.186 115.561 158.391C122.742 154.801 128.352 148.518 133.064 139.542C138.001 130.117 141.591 122.038 144.284 114.409C146.977 106.779 148.548 98.9252 148.996 90.8468C149.221 87.032 149.221 83.2172 149.445 79.4024C149.445 76.0364 149.67 72.6704 149.894 69.3044C150.118 65.9384 150.343 61.8992 151.465 58.0844C153.26 51.5768 157.748 47.5376 164.48 46.64C167.846 46.1912 170.988 45.7424 173.905 45.7424C181.534 45.7424 187.818 47.5376 193.652 51.128C200.16 55.1672 205.77 61.226 210.258 68.8556C216.092 78.9536 219.682 90.398 220.58 102.516L220.804 105.433C221.253 111.94 221.926 118.448 224.17 124.731C225.966 130.117 228.658 135.951 234.717 139.317C236.737 140.439 238.532 141.112 240.327 141.561C241 141.786 241.898 141.786 242.571 141.786C246.162 141.786 249.079 139.542 250.65 135.727C252.445 131.463 253.118 126.975 253.791 122.487L254.24 121.365C255.811 112.838 257.606 102.964 262.318 93.9884C265.909 87.032 269.724 81.1976 274.212 76.2608C278.7 71.5484 283.412 66.836 288.124 62.5724C289.471 61.4504 290.817 60.104 291.939 58.982C297.325 53.8208 302.486 48.2108 308.769 40.1324C315.95 30.932 322.009 23.5268 328.965 16.7948C332.556 13.4288 336.37 9.614 341.532 5.3504C341.756 5.126 341.98 4.9016 342.205 4.9016C342.654 4.4528 342.878 4.22841 343.102 4.22841V46.1912C341.307 49.5572 338.39 52.0256 335.473 54.0452C329.414 58.5332 322.682 62.1236 316.399 65.2652C314.828 66.1628 313.033 66.836 311.462 67.7336C304.73 71.0996 297.774 74.4656 291.266 78.7292C279.373 86.8076 271.968 96.9056 268.602 109.248C267.48 113.736 266.806 117.775 266.806 121.814V124.058C266.806 128.097 266.806 132.361 267.704 136.4C269.275 144.927 273.987 150.986 281.617 154.352C285.88 156.372 290.593 157.494 294.856 158.84C296.203 159.289 297.549 159.513 298.671 159.962C305.403 161.982 314.379 164.899 322.906 169.387C333.004 174.997 338.839 183.748 340.634 196.539C341.756 205.066 340.41 212.92 336.37 220.101C334.126 224.365 330.312 227.506 324.702 229.975C320.662 231.77 316.399 232.892 312.36 234.014C311.238 234.238 310.34 234.463 309.218 234.912H308.994C305.852 235.809 302.486 236.707 299.344 238.053C295.978 239.624 293.061 242.092 290.368 245.907C289.92 246.58 289.471 247.254 288.798 247.702H271.519C270.846 247.029 270.846 246.132 270.621 245.01V244.336C270.172 240.073 269.275 236.707 268.153 233.79C267.031 230.424 264.787 228.404 261.421 227.506C257.606 226.384 253.791 225.936 249.976 225.711C244.142 225.038 238.083 224.589 232.698 224.14C230.678 223.916 228.658 223.916 226.863 223.916C215.868 223.916 207.565 226.833 200.384 232.892C196.569 236.034 193.652 240.297 190.735 245.907C190.286 246.805 189.837 247.478 189.164 247.927H170.763C170.539 247.702 170.539 247.254 170.988 246.356C173.232 240.522 175.476 236.258 178.617 232.892C188.042 222.121 198.364 215.389 210.258 212.247C212.95 211.574 215.868 211.125 219.682 211.125C220.356 211.125 221.029 211.125 221.702 211.125C223.048 211.125 224.17 211.125 225.517 211.125C226.863 211.125 227.985 211.125 229.332 211.125C231.8 211.125 234.942 211.125 238.083 210.676C242.122 210.003 246.61 209.106 249.752 205.066C250.874 203.72 251.996 201.925 252.445 199.905C254.016 192.724 256.035 174.548 240.776 164.001L238.308 162.206C234.717 159.738 230.902 157.269 227.536 154.352C218.56 146.947 212.95 136.849 210.931 124.731C210.033 119.121 209.809 113.287 209.584 108.126C209.809 100.72 209.36 92.642 206.892 85.0124C203.974 76.0364 199.486 69.3044 193.428 64.8164C189.164 61.4504 184.676 59.8796 179.964 59.8796C178.393 59.8796 177.046 60.104 175.476 60.3284C169.641 61.6748 165.378 65.4896 162.909 71.7728C160.89 76.7096 160.441 81.8708 160.216 85.91C159.319 100.945 157.524 114.633 155.055 127.873C153.933 133.707 153.484 139.766 152.811 145.6L152.587 148.069C151.465 159.513 148.099 168.489 142.04 175.894C140.02 178.363 137.776 180.607 135.532 182.626C134.186 183.973 132.84 185.319 131.493 186.89C126.781 192.051 123.415 198.11 121.62 205.291C120.946 207.759 120.498 210.003 119.824 212.472C118.927 215.838 118.254 219.428 117.132 223.018C115.561 229.077 113.317 234.912 111.297 240.522C110.624 242.317 109.951 244.112 109.278 245.907C109.053 246.58 108.604 247.029 108.156 247.254H69.3344V247.702ZM69.3344 248.6C82.574 248.6 95.5892 248.6 108.829 248.6C109.726 248.151 110.175 247.478 110.624 246.58C113.317 238.951 116.458 231.546 118.478 223.467C120.049 217.633 121.395 211.574 122.742 205.74C124.537 198.783 127.454 192.724 132.391 187.788C135.981 183.973 139.572 180.607 142.938 176.792C149.67 168.714 152.811 159.064 153.709 148.518C154.382 141.786 154.831 135.054 155.953 128.322C158.646 114.409 160.216 100.272 161.114 86.3588C161.338 81.6464 162.012 76.934 163.807 72.446C166.051 66.836 169.866 62.7968 175.7 61.4504C177.046 61.226 178.617 61.0016 179.964 61.0016C184.676 61.0016 188.94 62.7968 192.979 65.714C199.486 70.6508 203.301 77.6072 205.994 85.4612C208.462 92.642 208.911 100.272 209.136 107.901C209.36 113.511 209.584 119.121 210.482 124.731C212.502 137.073 218.112 147.171 227.536 155.025C231.8 158.616 236.288 161.533 240.776 164.674C252.894 173.202 254.689 187.563 251.996 199.681C251.547 201.476 250.65 203.047 249.528 204.393C246.61 208.208 242.571 209.106 238.308 209.779C235.39 210.228 232.473 210.228 229.556 210.228C227.088 210.228 224.395 210.228 221.926 210.228C221.253 210.228 220.58 210.228 219.907 210.228C216.765 210.228 213.399 210.676 210.258 211.35C197.467 214.716 186.92 222.121 178.168 232.219C174.578 236.258 172.334 240.97 170.539 246.132C170.09 247.254 169.866 248.151 170.763 248.824C177.046 248.824 183.33 248.824 189.613 248.824C190.735 248.376 191.184 247.254 191.632 246.356C194.101 241.419 197.018 237.156 201.057 233.565C208.911 227.058 217.663 224.814 227.088 224.814C228.883 224.814 230.902 224.814 232.698 225.038C238.532 225.487 244.366 225.936 249.976 226.609C253.791 227.058 257.606 227.506 261.196 228.404C264.114 229.302 266.133 231.097 267.255 234.014C268.377 237.38 269.05 240.97 269.499 244.336C269.724 245.907 269.724 247.478 270.846 248.6C276.904 248.6 282.963 248.6 288.798 248.6C289.695 247.927 290.368 247.029 290.817 246.356C293.061 243.214 295.754 240.522 299.344 238.951C302.486 237.604 305.852 236.707 309.218 235.809C314.379 234.463 319.765 233.116 324.702 230.872C329.638 228.628 334.126 225.711 336.819 220.55C340.858 212.92 342.205 204.842 341.083 196.315C339.288 183.973 333.453 174.548 322.906 168.714C315.726 164.226 307.423 161.308 299.12 158.84C293.286 157.045 287.451 155.698 282.066 153.23C274.66 149.864 270.172 144.254 268.602 135.727C267.704 131.014 267.704 126.302 267.704 121.59C267.704 117.326 268.377 113.287 269.499 109.248C273.09 96.008 281.168 86.5832 291.939 79.4024C299.793 74.0168 308.32 70.202 316.848 65.9384C323.58 62.5724 330.087 58.982 335.922 54.494C339.063 52.25 341.98 49.7816 344 46.1912C344 31.8296 344 17.6924 344 3.33081C343.776 3.10641 343.327 3.1064 343.102 3.1064C342.205 3.1064 341.532 4.004 340.858 4.6772C336.595 8.492 332.331 12.3068 328.292 16.346C320.887 23.5268 314.379 31.6052 308.096 39.908C302.935 46.64 297.549 52.9232 291.49 58.5332C285.432 64.1432 279.148 69.7532 273.538 75.812C268.602 81.1976 264.787 87.032 261.421 93.5396C256.933 102.291 254.913 111.716 253.342 121.141C252.445 125.853 251.772 130.79 249.976 135.278C248.63 138.868 245.937 140.664 242.796 140.664C242.122 140.664 241.449 140.664 240.776 140.439C238.756 139.99 237.186 139.317 235.39 138.195C230.005 135.278 227.312 129.892 225.292 124.058C222.824 117.102 222.375 109.472 221.702 102.067C220.804 89.7248 217.214 78.5048 211.155 68.1824C206.892 60.7772 201.282 54.494 194.101 50.2304C187.593 46.1912 180.861 44.8448 173.905 44.8448C170.763 44.8448 167.622 45.0692 164.256 45.7424C157.748 46.64 152.587 50.4548 150.567 57.86C149.445 61.6748 148.996 65.4896 148.772 69.3044C148.323 76.4852 148.323 83.666 147.874 90.8468C147.426 98.9252 145.855 106.779 143.162 114.184C140.02 122.936 136.206 131.014 131.942 139.093C127.903 146.947 122.517 153.679 114.888 157.718C111.297 159.738 108.38 160.86 105.687 160.86C102.321 160.86 99.404 158.84 96.038 153.679C90.8768 145.825 85.2668 138.42 79.208 131.239C72.9248 124.058 65.9684 117.999 58.7876 111.94C52.28 106.779 46.67 100.945 42.6308 93.3152C40.1624 88.3784 38.1428 83.4416 35.45 78.5048C30.2888 68.8556 23.108 61.6748 13.01 58.0844C6.05361 55.8404 -0.902802 54.0452 -7.8592 51.3524C-19.3036 46.8644 -28.504 39.6836 -32.7676 26.8928C-35.0116 20.1608 -36.358 13.4288 -35.0116 6.248C-33.6652 0.189198 -30.9724 -4.972 -27.1576 -9.6844C-19.3036 -19.3336 -12.1228 -29.2072 -5.61519 -39.9784C-3.81999 -43.12 -2.0248 -46.0372 0.443596 -48.73C4.034 -52.9936 8.2976 -55.6864 13.9076 -55.6864C14.132 -55.6864 14.3564 -55.6864 14.5808 -55.6864C22.8836 -55.462 29.84 -51.1984 35.6744 -45.364C41.2844 -39.9784 44.6504 -33.022 48.0164 -26.29C52.7288 -16.8652 58.7876 -8.338 66.4172 -1.3816C77.6372 8.7164 88.8572 18.8144 100.077 28.9124C107.707 35.6444 116.234 40.1324 126.332 40.1324C127.005 40.1324 127.678 40.1324 128.576 40.1324C134.186 39.908 139.123 38.3372 143.162 33.6248C145.63 30.7076 147.426 27.566 149.221 24.2C153.26 15.8972 156.85 7.37 162.012 -0.483996C165.602 -6.094 169.866 -11.0308 175.7 -14.3968C179.739 -16.8652 184.003 -18.436 188.491 -18.436C191.184 -18.436 193.876 -17.9872 196.569 -16.6408C199.262 -15.5188 201.73 -14.1724 204.199 -12.826C209.36 -9.6844 214.521 -6.094 220.131 -3.4012C225.966 -0.483998 232.024 1.0868 238.083 1.0868C240.776 1.0868 243.244 0.862404 245.937 0.189204C257.83 -2.2792 266.133 -11.2552 268.153 -24.046C269.05 -29.4316 268.826 -34.8172 268.153 -40.2028C267.031 -51.1984 260.074 -58.828 250.425 -60.8476C242.571 -62.6428 234.717 -62.194 226.863 -62.8672C223.273 -63.0916 219.907 -62.8672 216.316 -63.316C207.565 -64.6624 199.935 -68.4772 194.55 -76.3312C192.53 -79.2484 190.959 -82.39 189.613 -85.756C189.164 -86.6536 188.491 -87.3268 187.593 -88C179.515 -88 171.436 -88 163.358 -88C162.909 -87.5512 162.46 -86.878 162.46 -86.2048C162.46 -84.4096 162.012 -82.39 162.012 -80.5948C162.012 -72.9652 162.46 -65.3356 163.807 -57.706C164.704 -52.7692 163.582 -48.2812 161.338 -43.7932C158.421 -38.4076 155.953 -33.022 153.709 -27.1876C150.118 -18.436 146.977 -9.2356 142.713 -0.708396C140.245 4.4528 137.328 9.1652 133.288 13.4288C129.474 17.468 124.986 19.712 119.824 19.712C119.6 19.712 119.151 19.712 118.927 19.712C114.214 19.4876 109.951 17.6924 105.687 15.224C98.0576 10.2872 91.1012 4.6772 83.9204 -0.932795C78.3104 -5.1964 73.1492 -10.1332 68.6612 -15.7432C63.5 -22.2508 60.134 -29.656 56.9924 -37.2856C52.28 -49.852 45.0992 -60.6232 36.572 -70.2724C32.7572 -74.7604 29.1668 -79.4728 27.8204 -85.5316C27.596 -86.6536 26.9228 -87.3268 26.2496 -88C17.0492 -88 7.8488 -88 -1.3516 -88C-2.0248 -87.3268 -2.698 -86.6536 -3.1468 -85.756C-5.3908 -79.9216 -9.20559 -75.4336 -13.918 -71.8432C-19.528 -67.5796 -25.138 -63.316 -30.0748 -58.3792C-36.8068 -51.6472 -42.8656 -44.0176 -48.2512 -35.9392C-52.7392 -28.9828 -58.1248 -22.924 -64.8568 -17.9872C-68.2228 -15.2944 -71.3644 -12.3772 -74.0572 -9.46C-81.238 -1.8304 -87.5212 6.4724 -94.2532 14.3264C-98.2924 19.4876 -102.107 24.6488 -104.8 30.4832C-110.634 42.3764 -112.205 55.3916 -112.878 68.6312C-113.327 77.6072 -111.981 86.3588 -109.961 95.1104C-108.166 101.618 -106.82 108.126 -107.044 115.082C-107.268 125.404 -109.961 135.278 -115.347 144.03C-120.732 152.781 -128.362 156.372 -137.562 156.372C-138.011 156.372 -138.46 156.372 -139.133 156.372C-145.865 156.147 -152.373 154.128 -158.432 150.762C-164.042 147.844 -168.978 144.03 -174.14 140.215C-185.808 131.014 -199.048 125.629 -213.185 122.936C-213.858 122.936 -214.532 122.487 -215.205 122.487C-215.878 122.487 -216.551 122.712 -217 123.16C-217 131.239 -217 139.317 -217 147.396C-216.551 147.844 -216.102 148.293 -215.205 148.293C-215.205 148.293 -215.205 148.293 -214.98 148.293C-212.961 148.293 -211.166 148.742 -209.146 148.742C-204.434 148.966 -199.946 149.64 -195.458 150.986C-188.052 153.006 -181.32 156.82 -174.364 159.962C-163.144 165.123 -151.7 168.265 -139.582 168.265C-136.44 168.265 -133.299 168.04 -129.933 167.592C-119.61 166.245 -111.981 160.635 -106.595 151.435C-101.434 142.459 -98.5168 132.585 -96.4972 122.487C-95.1508 115.98 -94.702 109.248 -95.5996 102.516C-96.4972 96.9056 -97.8436 91.2956 -99.19 85.6856C-101.21 76.7096 -101.883 67.958 -100.761 58.7576C-98.5168 41.03 -89.9896 27.7904 -75.628 19.2632C-72.0376 17.2436 -68.6716 16.1216 -65.53 16.1216C-61.042 16.1216 -57.0028 18.3656 -53.188 23.7512C-49.3732 28.688 -46.456 34.0736 -43.3144 39.4592C-36.8068 49.7816 -28.2796 57.1868 -17.7328 62.348C-10.7764 65.714 -3.5956 68.1824 3.3608 71.0996C14.5808 76.0364 21.986 84.5636 24.0056 97.5788C24.9032 103.862 25.352 109.921 25.1276 116.204C25.1276 118.672 25.352 120.916 26.0252 123.385C27.1472 128.097 30.0644 131.014 34.7768 131.688C36.7964 131.912 38.5916 132.136 40.3868 132.136C41.06 132.136 41.7332 132.136 42.4064 132.136C42.6308 132.136 42.8552 132.136 43.0796 132.136C58.7876 132.136 70.4564 147.171 67.988 163.777C66.4172 173.65 62.8268 182.626 59.2364 191.827C56.3192 198.783 53.1776 205.74 50.9336 213.145C48.6896 220.55 48.6896 227.731 53.1776 234.463C55.4216 237.829 58.3388 240.522 61.256 242.99C63.9488 244.561 65.9684 247.478 69.3344 248.6Z" fill="#8CA3F3"/>
<path opacity="0.1" d="M-96.9461 247.7C-96.2729 242.09 -94.7021 236.48 -91.7849 229.524C-88.4189 221.445 -83.9309 213.816 -79.6673 206.41C-78.3209 204.166 -76.9745 201.922 -75.6281 199.678L-75.1793 198.781C-71.5889 192.498 -67.7741 185.99 -63.5105 179.931C-53.6369 166.692 -42.4169 159.511 -29.1773 157.491C-27.1577 157.267 -25.3625 157.042 -23.5673 157.042C-15.9377 157.042 -9.65445 159.735 -4.71765 165.121C-1.57605 168.487 -0.00526508 172.975 1.34113 177.238C4.03393 184.868 5.38034 192.722 6.95114 200.576L7.39995 202.371C9.64395 214.264 13.0099 224.811 17.7223 234.685C19.7419 238.948 21.0883 243.212 21.9859 247.7H2.68754C2.23874 247.251 1.78995 246.578 1.78995 245.905L1.56554 244.558C0.44354 236.256 -0.902863 227.728 -1.35166 219.426L-1.57605 216.284C-2.02485 210.674 -2.24926 205.064 -3.14686 199.23C-4.26886 192.049 -6.06405 183.746 -11.2253 176.79C-15.2645 171.404 -20.6501 168.262 -27.3821 167.814C-28.0553 167.814 -28.7285 167.814 -29.4017 167.814C-36.8069 167.814 -43.7633 170.955 -50.7197 177.463C-56.5541 182.848 -60.5933 189.805 -63.9593 196.537C-67.1009 202.371 -70.2425 207.981 -73.3841 213.591C-75.4037 217.182 -77.1989 220.772 -79.2185 224.138C-83.4821 231.992 -85.9505 238.275 -87.2969 244.783C-87.5213 246.129 -87.7457 246.802 -88.4189 247.251H-96.9461V247.7ZM-97.8437 248.598C-94.7021 248.598 -91.5605 248.598 -88.4189 248.598C-87.0725 247.924 -86.8481 246.802 -86.6237 245.456C-85.0529 238.275 -82.1357 231.543 -78.7697 225.26C-73.6085 215.835 -68.4473 206.859 -63.5105 197.434C-59.9201 190.478 -56.1053 183.746 -50.2709 178.585C-44.2121 172.75 -37.4801 168.936 -29.4017 168.936C-28.7285 168.936 -28.0553 168.936 -27.3821 168.936C-21.0989 169.384 -15.7133 172.077 -11.6741 177.463C-6.73726 183.97 -4.94205 191.6 -3.82005 199.454C-2.92245 205.962 -2.47366 212.694 -2.02486 219.201C-1.35166 228.177 -0.229649 236.929 1.11675 245.905C1.34115 247.027 1.78994 247.7 2.46314 248.373C9.41954 248.373 16.3759 248.373 23.3323 248.373C22.4347 243.436 20.8639 238.724 18.6199 234.236C13.6831 224.138 10.5415 213.367 8.29754 202.147C6.72674 193.62 5.15594 185.092 2.46314 177.014C0.892339 172.526 -0.678455 168.038 -3.82005 164.672C-9.43006 158.613 -16.1621 156.369 -23.3429 156.369C-25.1381 156.369 -27.1577 156.594 -29.1773 156.818C-43.5389 158.838 -54.9833 167.365 -63.9593 179.707C-68.6717 185.766 -72.4865 192.498 -76.3013 199.23C-81.9113 209.103 -88.1945 218.528 -92.4581 229.075C-95.1509 235.358 -97.1705 241.641 -97.8437 248.598Z" fill="#8CA3F3"/>
<path opacity="0.1" d="M109.951 247.704C110.624 245.685 111.522 243.441 112.195 241.421C115.112 233.118 118.254 224.591 120.273 215.615C121.395 210.229 122.742 204.619 124.761 199.458C126.108 195.643 128.352 192.277 131.044 189.36C133.064 187.341 135.084 185.097 137.103 183.077C138.225 181.955 139.572 180.609 140.694 179.487C148.099 171.857 152.362 162.657 153.26 151.885C154.606 137.973 156.85 123.611 158.87 111.493C159.768 105.883 160.216 100.049 160.665 94.6634L160.89 91.073C161.338 85.463 161.787 78.9554 163.807 73.121C166.275 65.7158 172.783 60.779 179.964 60.779C180.861 60.779 181.759 60.779 182.656 61.0034C191.408 62.5742 197.916 67.9598 203.301 78.0578C206.892 84.5654 208.687 92.195 209.136 101.844C209.136 103.864 209.36 106.108 209.36 108.127C209.584 113.962 209.809 120.245 210.931 126.079C213.624 139.095 220.131 149.641 230.454 157.047C231.8 157.944 233.146 159.066 234.717 159.964C237.41 161.759 239.878 163.779 242.571 165.574C249.079 170.735 252.669 177.467 253.118 185.994C253.567 190.707 253.342 194.521 252.669 197.887C251.772 203.273 248.63 206.863 243.469 208.659C240.776 209.556 237.634 210.005 233.595 210.005C232.698 210.005 232.024 210.005 231.127 210.005C230.005 210.005 228.658 210.005 227.536 210.005C226.414 210.005 225.068 210.005 223.946 210.005C221.702 210.005 219.009 210.005 216.092 210.454C208.687 211.127 201.282 214.044 193.652 218.981C185.798 224.142 179.964 229.528 175.924 235.811C173.232 239.85 171.436 243.889 170.314 247.704H148.772C148.323 247.255 148.323 246.807 148.323 245.909V245.46C148.323 244.114 148.323 242.992 148.323 241.645C148.323 239.177 148.323 236.709 147.874 234.24V233.791C147.65 231.996 147.201 229.977 144.957 229.079C144.508 228.855 144.06 228.855 143.611 228.855C141.816 228.855 140.469 230.201 139.347 231.323C135.532 235.362 132.84 239.626 131.044 244.338L130.82 245.011C130.371 246.133 129.922 247.255 129.249 247.704H109.951ZM108.604 248.602C115.336 248.602 122.068 248.602 128.8 248.602C130.371 247.704 130.82 246.133 131.269 244.563C133.064 239.85 135.981 235.587 139.572 231.996C140.469 230.874 141.816 229.752 143.162 229.752C143.386 229.752 143.835 229.752 144.284 229.977C146.304 230.65 146.304 232.669 146.752 234.465C147.426 238.279 146.977 241.87 147.201 245.685C147.201 246.807 147.201 248.153 148.099 248.826C155.728 248.826 163.134 248.826 170.763 248.826C171.885 244.338 173.905 240.299 176.373 236.484C180.861 229.528 187.144 224.367 193.876 219.879C200.608 215.391 207.789 212.249 215.868 211.351C218.56 211.127 221.029 211.127 223.722 211.127C226.19 211.127 228.434 211.127 230.902 211.127C231.8 211.127 232.473 211.127 233.371 211.127C236.737 211.127 240.327 210.678 243.469 209.781C248.854 207.985 252.22 204.395 253.342 198.336C254.016 194.297 254.016 190.258 253.791 186.219C253.118 177.243 249.528 170.286 242.796 165.125C238.981 161.983 234.717 159.291 230.678 156.373C220.356 148.968 214.072 138.87 211.604 125.855C210.033 117.777 210.258 109.698 209.809 101.62C209.36 92.8682 207.789 84.7898 203.75 77.3846C199.038 68.4086 192.53 61.6766 182.432 59.8814C181.534 59.657 180.412 59.657 179.515 59.657C171.885 59.657 164.929 64.8182 162.46 72.4478C160.665 78.2822 159.992 84.5654 159.543 90.6242C159.094 97.3562 158.646 104.313 157.524 111.045C155.28 124.509 153.26 137.973 151.914 151.437C151.016 161.983 146.752 171.184 139.572 178.365C136.43 181.731 133.064 184.872 130.147 188.238C127.454 191.155 125.21 194.746 123.639 198.785C121.62 204.171 120.498 209.556 119.151 215.166C116.907 226.835 112.419 237.606 108.604 248.602Z" fill="#8CA3F3"/>
<path opacity="0.1" d="M120.049 19.712C118.478 19.712 116.683 19.4876 114.888 19.0388C111.297 18.1412 107.707 16.5704 103.892 13.8776C94.916 7.5944 85.4912 0.8624 77.1884 -6.7672C70.4564 -12.826 65.5196 -19.3336 61.9292 -26.7388C60.5828 -29.656 59.2364 -32.7976 57.89 -35.7148C55.8704 -40.2028 53.8508 -44.9152 51.3824 -49.4032C48.2408 -55.0132 44.426 -60.6232 39.4892 -66.4576C37.0208 -69.1504 34.328 -72.5164 31.8596 -76.1068C29.84 -79.024 28.2692 -82.6144 27.3716 -87.1024H55.1972C55.8704 -86.6536 56.0948 -85.9804 56.3192 -84.8584V-84.4096C58.7876 -71.17 62.378 -57.0328 66.866 -41.3248C69.3344 -33.022 73.1492 -25.6168 78.086 -20.0068C81.2276 -16.4164 84.818 -13.2748 88.8572 -10.8064C96.2624 -6.3184 102.77 -3.85 109.278 -2.9524C109.951 -2.9524 110.4 -2.9524 111.073 -2.9524C116.907 -2.9524 121.62 -7.216 122.517 -13.4992C123.19 -17.7628 122.966 -22.0264 122.517 -26.0656L122.293 -28.3096C120.946 -44.0176 122.293 -57.706 126.781 -70.048C128.352 -74.7604 131.044 -78.7996 133.513 -83.0632C133.737 -83.512 133.962 -83.9608 134.186 -84.4096C134.859 -85.5316 135.308 -86.6536 136.43 -87.3268H162.46C162.46 -86.2048 162.46 -85.3072 162.236 -84.1852C162.236 -83.2876 162.012 -82.1656 162.012 -81.268C162.012 -72.5164 162.46 -64.8868 163.807 -57.9304C164.704 -53.218 163.807 -48.73 161.563 -44.4664C157.524 -37.0612 154.382 -29.2072 151.465 -21.3532L151.016 -20.2312L150.118 -17.9872C146.752 -9.46 143.386 -0.483998 138.225 7.37C135.532 11.4092 133.064 14.102 130.147 16.346C127.005 18.59 123.639 19.712 120.049 19.712ZM120.049 20.6096C123.864 20.6096 127.454 19.4876 130.82 17.0192C134.186 14.5508 136.879 11.4092 139.123 7.8188C144.733 -0.708398 148.323 -10.3576 151.914 -19.7824C155.055 -27.8608 158.197 -35.9392 162.236 -43.5688C164.704 -48.0568 165.602 -52.5448 164.704 -57.706C163.358 -65.3356 162.909 -73.1896 162.909 -81.0436C162.909 -83.2876 163.358 -85.756 163.358 -88C154.382 -88 145.182 -88 136.206 -88C134.41 -86.878 133.737 -85.0828 132.84 -83.512C130.147 -79.2484 127.454 -74.9848 125.883 -70.2724C121.171 -56.584 120.273 -42.4468 121.395 -28.0852C121.844 -23.1484 122.293 -18.436 121.62 -13.4992C120.722 -7.4404 116.458 -3.6256 111.073 -3.6256C110.624 -3.6256 109.951 -3.6256 109.502 -3.6256C102.321 -4.5232 95.5892 -7.6648 89.306 -11.4796C85.2668 -13.948 81.9008 -16.8652 78.7592 -20.4556C73.598 -26.5144 70.0076 -33.6952 67.7636 -41.5492C63.7244 -55.6864 59.9096 -70.048 57.2168 -84.4096C56.768 -85.9804 56.768 -87.3268 55.1972 -88C45.548 -88 35.6744 -88 26.0252 -88C26.9228 -83.512 28.4936 -79.2484 30.962 -75.658C33.4304 -72.292 35.8988 -69.1504 38.5916 -66.0088C43.0796 -60.8476 47.1188 -55.2376 50.2604 -49.1788C54.2996 -41.7736 57.2168 -33.9196 60.8072 -26.5144C64.622 -18.6604 70.0076 -11.9284 76.2908 -6.3184C84.818 1.3112 94.0184 8.04321 103.219 14.5508C106.585 17.0192 110.4 18.8144 114.439 19.712C116.458 20.3852 118.254 20.6096 120.049 20.6096Z" fill="#8CA3F3"/>
<path opacity="0.1" d="M102.321 106.554C102.097 106.554 102.097 106.554 101.872 106.554C98.7307 106.329 95.3647 105.432 91.5499 103.412C84.5935 99.5974 78.3103 95.1094 72.7003 89.4994C67.5391 84.3382 63.4999 77.3818 60.1339 68.6302C55.8703 56.737 49.5871 45.2926 41.5087 34.9702C39.7135 32.7262 38.5915 30.2578 37.4695 27.565C36.3475 24.8722 35.8987 23.077 37.2451 21.0574C38.3671 19.2622 40.1623 18.3646 42.6307 18.3646C42.8551 18.3646 43.0795 18.3646 43.3039 18.3646C47.5675 18.589 51.8311 20.1598 56.5435 22.8526C64.1731 27.3406 70.0075 33.8482 74.9443 39.6826C83.9203 50.6782 91.5499 59.2054 98.7307 66.6106C100.077 67.957 101.424 69.3035 102.77 70.6499C105.238 73.1183 107.707 75.5866 110.175 78.055C112.644 80.7478 114.439 83.6651 115.561 87.0311C116.907 90.8459 116.234 95.3338 114.214 98.9242C112.195 102.515 108.829 104.983 105.238 105.881H104.79C104.116 106.329 103.219 106.554 102.321 106.554ZM102.321 107.451C103.443 107.451 104.341 107.227 105.463 106.778C113.766 104.983 119.151 95.1094 116.458 86.8066C115.336 83.2162 113.317 80.0746 110.848 77.3818C107.258 73.3426 103.219 69.7522 99.4039 65.9374C91.1011 57.4102 83.2471 48.4342 75.6175 39.2338C70.2319 32.5018 64.3975 26.443 56.9923 22.1794C52.7287 19.711 48.2407 17.6914 43.5283 17.467C43.3039 17.467 43.0795 17.467 42.6307 17.467C40.1623 17.467 38.1427 18.1402 36.5719 20.3842C34.7767 22.8526 35.6743 25.321 36.7963 27.7894C37.9183 30.4822 39.2647 32.9506 41.0599 35.1946C48.9139 45.2926 55.1971 56.2882 59.4607 68.6302C62.3779 76.4842 66.1927 83.8894 72.2515 89.9482C77.8615 95.5582 84.3691 100.271 91.3255 104.085C94.6915 105.881 98.2819 107.227 102.097 107.451C102.097 107.451 102.321 107.451 102.321 107.451Z" fill="#8CA3F3"/>
</g>
<defs>
<linearGradient id="paint0_linear" x1="9.50001" y1="-34.1849" x2="188.045" y2="62.0289" gradientUnits="userSpaceOnUse">
<stop stop-color="#374DBF"/>
<stop offset="1" stop-color="#377EBF"/>
</linearGradient>
<linearGradient id="paint1_linear" x1="9.50001" y1="-34.1849" x2="188.045" y2="62.0289" gradientUnits="userSpaceOnUse">
<stop stop-color="#374DBF"/>
<stop offset="1" stop-color="#377EBF"/>
</linearGradient>
</defs>
</svg>
