<svg width="64" height="64" viewBox="0 0 64 64" fill="none" xmlns="http://www.w3.org/2000/svg">
<path d="M23.4062 17.9375C23.4062 19.2297 24.4578 20.2812 25.75 20.2812C27.0422 20.2812 28.0938 19.2297 28.0938 17.9375C28.0938 16.6453 27.0422 15.5938 25.75 15.5938C24.4578 15.5938 23.4062 16.6453 23.4062 17.9375ZM25.75 17.1562C26.1805 17.1562 26.5312 17.507 26.5312 17.9375C26.5312 18.368 26.1805 18.7188 25.75 18.7188C25.3195 18.7188 24.9688 18.368 24.9688 17.9375C24.9688 17.507 25.3195 17.1562 25.75 17.1562Z" fill="#0051FF"/>
<path d="M39.0312 15.5938H40.5938V20.2812H39.0312V15.5938Z" fill="#0051FF"/>
<path d="M35.9062 15.5938H37.4688V20.2812H35.9062V15.5938Z" fill="#0051FF"/>
<path d="M38.25 24.9688C36.9578 24.9688 35.9062 26.0203 35.9062 27.3125C35.9062 28.6047 36.9578 29.6562 38.25 29.6562C39.5422 29.6562 40.5938 28.6047 40.5938 27.3125C40.5938 26.0203 39.5422 24.9688 38.25 24.9688ZM38.25 28.0938C37.8195 28.0938 37.4688 27.743 37.4688 27.3125C37.4688 26.882 37.8195 26.5312 38.25 26.5312C38.6805 26.5312 39.0312 26.882 39.0312 27.3125C39.0312 27.743 38.6805 28.0938 38.25 28.0938Z" fill="#0051FF"/>
<path d="M23.4062 24.9688H24.9688V29.6562H23.4062V24.9688Z" fill="#0051FF"/>
<path d="M26.5312 24.9688H28.0938V29.6562H26.5312V24.9688Z" fill="#0051FF"/>
<path d="M10.9062 40.7375V32H9.34375V40.7375C8.43672 41.0609 7.78125 41.9203 7.78125 42.9375C7.78125 44.2297 8.83281 45.2812 10.125 45.2812C11.4172 45.2812 12.4688 44.2297 12.4688 42.9375C12.4688 41.9203 11.8133 41.0609 10.9062 40.7375ZM10.125 43.7188C9.69453 43.7188 9.34375 43.368 9.34375 42.9375C9.34375 42.507 9.69453 42.1562 10.125 42.1562C10.5555 42.1562 10.9062 42.507 10.9062 42.9375C10.9062 43.368 10.5555 43.7188 10.125 43.7188Z" fill="#A437BF"/>
<path d="M15.5938 32.7812V36.8312C14.6867 37.1547 14.0312 38.0141 14.0312 39.0312C14.0312 40.3234 15.0828 41.375 16.375 41.375C17.6672 41.375 18.7188 40.3234 18.7188 39.0312C18.7188 38.0141 18.0633 37.1547 17.1562 36.8312V32.7812H15.5938ZM16.375 39.8125C15.9445 39.8125 15.5938 39.4617 15.5938 39.0312C15.5938 38.6008 15.9445 38.25 16.375 38.25C16.8055 38.25 17.1562 38.6008 17.1562 39.0312C17.1562 39.4617 16.8055 39.8125 16.375 39.8125Z" fill="#A437BF"/>
<path d="M54.6562 37.325C55.5633 37.0016 56.2188 36.1422 56.2188 35.125C56.2188 33.8328 55.1672 32.7812 53.875 32.7812C52.5828 32.7812 51.5312 33.8328 51.5312 35.125C51.5312 36.1422 52.1867 37.0016 53.0938 37.325V43.3453C51.9758 42.5953 50.632 42.1562 49.1875 42.1562C49.1469 42.1562 49.1062 42.1562 49.0648 42.157C48.943 41.3062 48.7125 40.493 48.4062 39.7188V32.6375C49.3133 32.3141 49.9688 31.4547 49.9688 30.4375C49.9688 29.1453 48.9172 28.0938 47.625 28.0938C46.3328 28.0938 45.2812 29.1453 45.2812 30.4375C45.2812 31.4547 45.9367 32.3141 46.8438 32.6375V36.9898C45.9844 35.8953 44.9234 34.9695 43.7188 34.2672V26.5312H50.75C52.0422 26.5312 53.0938 25.4797 53.0938 24.1875V12.325C54.0008 12.0016 54.6562 11.1422 54.6562 10.125C54.6562 8.83281 53.6047 7.78125 52.3125 7.78125C51.0203 7.78125 49.9688 8.83281 49.9688 10.125C49.9688 11.1422 50.6242 12.0016 51.5312 12.325V24.1875C51.5312 24.618 51.1805 24.9688 50.75 24.9688H43.7188V21.8438H46.0625C47.3547 21.8438 48.4062 20.7922 48.4062 19.5V18.575C49.3133 18.2516 49.9688 17.3922 49.9688 16.375C49.9688 15.0828 48.9172 14.0312 47.625 14.0312C46.3328 14.0312 45.2812 15.0828 45.2812 16.375C45.2812 17.3922 45.9367 18.2516 46.8438 18.575V19.5C46.8438 19.9305 46.493 20.2812 46.0625 20.2812H43.7188V16.375C43.7188 14.2211 41.9664 12.4688 39.8125 12.4688H34.7039C32.6539 9.53359 29.3477 7.78125 25.75 7.78125C20.3047 7.78125 15.6984 11.8398 14.9352 17.157C14.8937 17.1563 14.8531 17.1562 14.8125 17.1562C10.9359 17.1562 7.78125 20.3109 7.78125 24.1875C7.78125 28.0641 10.9359 31.2188 14.8125 31.2188H20.2812V41.2789C20.1336 41.5664 20.0039 41.8656 19.8953 42.1766C19.7641 42.1688 19.6336 42.1562 19.5 42.1562C15.6234 42.1562 12.4688 45.3109 12.4688 49.1875C12.4688 53.0641 15.6234 56.2188 19.5 56.2188H49.1875C53.0641 56.2188 56.2188 53.0641 56.2188 49.1875C56.2188 47.5188 55.6313 45.9852 54.6562 44.7781V37.325ZM47.625 29.6562C48.0555 29.6562 48.4062 30.007 48.4062 30.4375C48.4062 30.868 48.0555 31.2188 47.625 31.2188C47.1945 31.2188 46.8438 30.868 46.8438 30.4375C46.8438 30.007 47.1945 29.6562 47.625 29.6562ZM52.3125 9.34375C52.743 9.34375 53.0938 9.69453 53.0938 10.125C53.0938 10.5555 52.743 10.9062 52.3125 10.9062C51.882 10.9062 51.5312 10.5555 51.5312 10.125C51.5312 9.69453 51.882 9.34375 52.3125 9.34375ZM47.625 15.5938C48.0555 15.5938 48.4062 15.9445 48.4062 16.375C48.4062 16.8055 48.0555 17.1562 47.625 17.1562C47.1945 17.1562 46.8438 16.8055 46.8438 16.375C46.8438 15.9445 47.1945 15.5938 47.625 15.5938ZM53.875 34.3438C54.3055 34.3438 54.6562 34.6945 54.6562 35.125C54.6562 35.5555 54.3055 35.9062 53.875 35.9062C53.4445 35.9062 53.0938 35.5555 53.0938 35.125C53.0938 34.6945 53.4445 34.3438 53.875 34.3438ZM38.25 32.7812C34.4641 32.7812 30.9727 34.7336 28.9781 37.9172C28.6312 37.7883 28.275 37.6797 27.9055 37.6062C28.0266 37.3234 28.0938 37.0133 28.0938 36.6875C28.0938 35.3953 27.0422 34.3438 25.75 34.3438C24.4578 34.3438 23.4062 35.3953 23.4062 36.6875C23.4062 37.1797 23.5602 37.6359 23.8203 38.0133C23.0938 38.3156 22.4258 38.7359 21.8438 39.2562V32.7812H38.25H42.1562V33.5102C40.9391 33.0398 39.6211 32.7812 38.25 32.7812ZM24.9688 36.6875C24.9688 36.257 25.3195 35.9062 25.75 35.9062C26.1805 35.9062 26.5312 36.257 26.5312 36.6875C26.5312 37.118 26.1805 37.4688 25.75 37.4688C25.3195 37.4688 24.9688 37.118 24.9688 36.6875ZM21.8438 23.4062H42.1562V31.2188H21.8438V23.4062ZM42.1562 16.375V21.8438H21.8438V16.375C21.8438 15.0828 22.8953 14.0312 24.1875 14.0312H39.8125C41.1047 14.0312 42.1562 15.0828 42.1562 16.375ZM14.8125 29.6562C11.7969 29.6562 9.34375 27.2031 9.34375 24.1875C9.34375 21.1719 11.7969 18.7188 14.8125 18.7188C15.025 18.7188 15.2523 18.7352 15.5289 18.7719L16.3508 18.8789L16.4094 18.0516C16.7539 13.1687 20.8563 9.34375 25.75 9.34375C28.4492 9.34375 30.9563 10.4969 32.7203 12.4688H24.1875C22.0336 12.4688 20.2812 14.2211 20.2812 16.375V29.6562H14.8125ZM49.1875 54.6562H19.5C16.4844 54.6562 14.0312 52.2031 14.0312 49.1875C14.0312 46.1719 16.4844 43.7188 19.5 43.7188C22.5156 43.7188 24.9688 46.1719 24.9688 49.1875H26.5312C26.5312 45.9953 24.3906 43.2977 21.4719 42.443C22.2969 40.4031 24.2719 39.0312 26.5312 39.0312C29.5469 39.0312 32 41.4844 32 44.5H33.5625C33.5625 42.0508 32.3023 39.893 30.3977 38.6336C32.1195 35.9789 35.0547 34.3438 38.25 34.3438C43.1437 34.3438 47.2461 38.1687 47.5906 43.0516L47.6492 43.8789L48.4711 43.7719C48.7477 43.7352 48.975 43.7188 49.1875 43.7188C52.2031 43.7188 54.6562 46.1719 54.6562 49.1875C54.6562 52.2031 52.2031 54.6562 49.1875 54.6562V54.6562Z" fill="#0051FF"/>
<path d="M38.25 35.9062V37.4688C41.6961 37.4688 44.5 40.2727 44.5 43.7188H46.0625C46.0625 39.4109 42.5578 35.9062 38.25 35.9062Z" fill="#0051FF"/>
<path d="M17.1562 49.1875C17.1562 47.8953 18.2078 46.8438 19.5 46.8438V45.2812C17.3461 45.2812 15.5938 47.0336 15.5938 49.1875C15.5938 51.3414 17.3461 53.0938 19.5 53.0938H30.4375V51.5312H19.5C18.2078 51.5312 17.1562 50.4797 17.1562 49.1875Z" fill="#0051FF"/>
<path d="M32 51.5312H33.5625V53.0938H32V51.5312Z" fill="#0051FF"/>
<path d="M35.125 51.5312H36.6875V53.0938H35.125V51.5312Z" fill="#0051FF"/>
<path d="M49.9688 46.0625V47.625C50.8305 47.625 51.5312 48.3258 51.5312 49.1875H53.0938C53.0938 47.4641 51.6922 46.0625 49.9688 46.0625Z" fill="#0051FF"/>
<path d="M12.4688 24.1875H10.9062C10.9062 26.3414 12.6586 28.0938 14.8125 28.0938H15.5938V26.5312H14.8125C13.5203 26.5312 12.4688 25.4797 12.4688 24.1875Z" fill="#0051FF"/>
<path d="M17.1562 26.5312H18.7188V28.0938H17.1562V26.5312Z" fill="#0051FF"/>
</svg>
