<svg width="181" height="179" viewBox="0 0 181 179" fill="none" xmlns="http://www.w3.org/2000/svg">
<path opacity="0.2" d="M55.7393 118.342C39.29 108.834 39.2025 93.3913 55.5351 83.8834C71.8823 74.3755 98.5686 74.3755 115.018 83.8834C131.467 93.3767 131.555 108.834 115.207 118.342C98.8748 127.836 72.1885 127.836 55.7393 118.342Z" fill="#DB4DFF"/>
<g opacity="0.6">
<g style="mix-blend-mode:overlay" opacity="0.6">
<path d="M174.603 146.444L132.123 121.916C131.263 121.42 129.878 121.42 129.017 121.916L128.769 122.061L119.859 116.914C133.494 106.939 132.298 92.3419 116.33 83.1256C99.1519 73.2094 71.2844 73.2094 54.2226 83.1256C37.1609 93.0419 37.263 109.185 54.4414 119.101C70.3511 128.288 95.4333 128.944 112.597 121.099L121.522 126.247L121.274 126.392C120.413 126.888 120.413 127.69 121.274 128.186L163.753 152.714C164.613 153.21 165.999 153.21 166.859 152.714L174.617 148.237C175.463 147.741 175.463 146.939 174.603 146.444ZM55.7392 118.343C39.29 108.835 39.2025 93.3918 55.5351 83.8839C71.8823 74.376 98.5685 74.376 115.018 83.8839C131.467 93.3772 131.555 108.835 115.207 118.343C98.8748 127.836 72.1885 127.836 55.7392 118.343Z" fill="#3A0155"/>
</g>
<path opacity="0.6" d="M113.603 96.542C117.73 105.423 108.601 114.552 93.2167 116.929C77.832 119.306 62.0244 114.041 57.9121 105.16C53.7998 96.2796 62.914 87.1508 78.2987 84.7738C93.6834 82.3969 109.491 87.6612 113.603 96.542Z" fill="#3A0155"/>
<path opacity="0.6" d="M51.8165 134.136C63.5267 134.136 73.0197 128.658 73.0197 121.901C73.0197 115.144 63.5267 109.666 51.8165 109.666C40.1063 109.666 30.6133 115.144 30.6133 121.901C30.6133 128.658 40.1063 134.136 51.8165 134.136Z" fill="#3A0155"/>
</g>
<path d="M33.7489 78.2402V102.797C33.7343 103.395 34.1281 103.993 34.9301 104.46C36.4905 105.364 39.0424 105.364 40.6028 104.46C41.3757 104.008 41.7694 103.424 41.784 102.841V78.284L33.7489 78.2402Z" fill="#6D00BA"/>
<path d="M40.5885 76.5925C39.9615 76.2279 39.2615 76.0237 38.3865 75.9362C36.6366 75.7758 35.0034 76.2571 34.2013 77.1758C33.3993 78.0799 33.7055 79.1444 34.945 79.859C35.8783 80.3985 37.0887 80.6319 38.4011 80.5152C39.7136 80.3985 40.7343 79.9611 41.3322 79.2757C42.1343 78.3716 41.828 77.3216 40.5885 76.5925Z" fill="#8A18ED"/>
<path d="M26.4574 85.9111V106.998C26.4428 107.596 26.8366 108.193 27.6386 108.66C29.199 109.564 31.7509 109.564 33.3113 108.66C34.0842 108.208 34.4779 107.625 34.4925 107.041V85.9549L26.4574 85.9111Z" fill="#0051FF"/>
<path d="M33.2824 84.277C32.6553 83.9125 31.9553 83.7083 31.0804 83.6208C29.3305 83.4604 27.6972 83.9416 26.8952 84.8603C26.0931 85.7645 26.3993 86.829 27.6389 87.5436C28.5722 88.0831 29.7825 88.3164 31.095 88.1998C32.4074 88.0831 33.4282 87.6456 34.0261 86.9603C34.8281 86.0415 34.5365 84.9916 33.2824 84.277Z" fill="#175FFC"/>
<path d="M19.1513 93.4795V111.227C19.1367 111.824 19.5304 112.422 20.3325 112.889C21.8928 113.793 24.4448 113.793 26.0051 112.889C26.778 112.437 27.1717 111.854 27.1863 111.27V93.5232L19.1513 93.4795Z" fill="#6D00BA"/>
<path d="M25.9762 91.8312C25.3492 91.4667 24.6492 91.2625 23.7742 91.175C22.0243 91.0146 20.3911 91.4958 19.589 92.4145C18.787 93.3187 19.0932 94.3832 20.3327 95.0978C21.266 95.6373 22.4764 95.8706 23.7888 95.754C25.1013 95.6373 26.122 95.1998 26.7199 94.5145C27.522 93.6103 27.2303 92.5604 25.9762 91.8312Z" fill="#8A18ED"/>
<path d="M11.7289 102.259V115.514C11.7143 116.112 12.1081 116.71 12.9101 117.177C14.4704 118.081 17.0224 118.081 18.5828 117.177C19.3556 116.725 19.7494 116.141 19.764 115.558V102.303L11.7289 102.259Z" fill="#AA1DCD"/>
<path d="M18.568 100.611C17.941 100.246 17.241 100.042 16.366 99.9543C14.6161 99.7939 12.9829 100.275 12.1808 101.194C11.3788 102.098 11.685 103.162 12.9245 103.877C13.8578 104.417 15.0682 104.65 16.3806 104.533C17.6931 104.417 18.7138 103.979 19.3117 103.294C20.1138 102.39 19.8221 101.325 18.568 100.611Z" fill="#9E15BF"/>
<path d="M4.32119 110.526V119.786C4.30661 120.384 4.70034 120.982 5.50239 121.448C7.06273 122.352 9.6147 122.352 11.175 121.448C11.9479 120.996 12.3417 120.413 12.3562 119.83V110.57L4.32119 110.526Z" fill="#8E1CAA"/>
<path d="M11.1457 108.878C10.5186 108.514 9.81863 108.309 8.94367 108.222C7.19375 108.061 5.56049 108.543 4.75844 109.461C3.9564 110.366 4.26263 111.43 5.50216 112.145C6.43545 112.684 7.64581 112.918 8.95825 112.801C10.2707 112.684 11.2915 112.247 11.8894 111.561C12.6914 110.657 12.3998 109.607 11.1457 108.878Z" fill="#7D1597"/>
<path d="M57.6347 65.0425V99.5451C57.5618 103.759 60.3179 107.974 65.8739 111.182C76.8693 117.526 94.6747 117.526 105.67 111.182C111.095 108.047 113.851 103.949 113.909 99.8513V65.3341L57.6347 65.0425Z" fill="#6D00BA"/>
<path d="M59.2972 65.0571L57.6202 65.0425V99.5451C57.591 101.455 58.1598 103.351 59.2972 105.174V65.0571Z" fill="#6D00BA"/>
<path d="M107.566 65.3049L77.7734 65.1445V115.251C87.3397 116.884 98.1017 115.528 105.655 111.167C106.326 110.774 106.953 110.38 107.551 109.957V65.3049H107.566Z" fill="#0041CC"/>
<path d="M103.045 65.2759V112.495C103.95 112.086 104.824 111.649 105.656 111.168C111.08 108.032 113.837 103.935 113.895 99.8368V65.3342L103.045 65.2759Z" fill="#7D43C8"/>
<path d="M85.7647 65.0576L103.016 78.007C95.6372 81.3027 86.8438 82.2506 77.8755 80.7194L85.7647 65.0576Z" fill="#1859E4"/>
<path d="M105.612 53.5076C112.699 57.6053 115.82 63.7447 112.816 69.6944C111.066 73.1505 107.931 75.8191 103.002 78.0065L85.7505 65.0571L72.4803 63.9488L58.6851 60.4344C63.0453 51.7869 78.6925 46.8433 93.6397 49.3953C98.3208 50.1974 102.375 51.641 105.612 53.5076Z" fill="#9E5BF4"/>
<path d="M85.7646 65.0576L77.8754 80.7194C73.1506 79.9174 69.0966 78.532 65.8593 76.6654C62.9719 74.9884 60.7262 72.9323 59.2388 70.5261L85.7646 65.0576Z" fill="#8A18ED"/>
<path d="M85.7649 65.0578L59.2245 70.5263C57.1245 67.1285 56.9496 63.8912 58.6995 60.4351L85.7649 65.0578Z" fill="#8A18ED"/>
<path d="M51.335 106.37V132.692C56.8035 132.794 62.3303 131.642 66.5155 129.236C70.482 126.946 72.4798 123.957 72.5382 120.953V106.472L51.335 106.37Z" fill="#0051FF"/>
<path d="M36.0229 106.297V128.332C36.4604 128.653 36.9417 128.959 37.4521 129.25C42.3081 132.05 48.9724 133.144 55.2575 132.561V106.399L36.0229 106.297Z" fill="#0051FF"/>
<path d="M70.2192 106.473V126.291C71.7067 124.629 72.4941 122.791 72.5233 120.954V106.473H70.2192Z" fill="#0051FF"/>
<path d="M37.6125 106.297L31.4441 106.268V120.749C31.4003 123.826 33.3981 126.903 37.4667 129.25C37.5105 129.28 37.5688 129.309 37.6271 129.338V106.297H37.6125Z" fill="#6D00BA"/>
<path d="M51.9764 106.225L55.2429 117.934C48.5495 118.547 42.3518 117.38 37.5396 114.61L51.9764 106.225Z" fill="#175FFC"/>
<path d="M66.3988 97.8398C72.8152 101.544 74.3172 106.939 70.2486 111.606L51.9766 106.225L66.3988 97.8398Z" fill="#175FFC"/>
<path d="M70.2486 111.606C67.1863 115.105 61.9365 117.322 55.2431 117.934L51.9766 106.225L70.2486 111.606Z" fill="#175FFC"/>
<path d="M51.9764 106.225L37.5396 114.61C31.1232 110.906 29.6212 105.51 33.7043 100.844L51.9764 106.225Z" fill="#8A18ED"/>
<path d="M55.1119 94.5148L51.9767 106.225L33.7046 100.844C37.7877 96.1772 46.1728 93.6981 55.1119 94.5148Z" fill="#9E5BF4"/>
<path d="M66.3988 97.84L51.9619 106.225L55.0972 94.5151C59.5887 94.9235 63.2052 95.988 66.3988 97.84Z" fill="#9E5BF4"/>
<path d="M72.4217 107.259C72.3488 107.595 72.2467 108.105 71.9842 108.688C71.5176 109.899 70.4093 111.415 68.7323 112.83C67.0553 114.259 64.7366 115.44 62.1118 116.271C59.4869 117.103 56.5558 117.555 53.6247 117.7C50.6935 117.875 47.7333 117.671 45.0355 117.103C42.3377 116.534 39.8878 115.673 37.9629 114.609C36.0088 113.588 34.5505 112.422 33.6756 111.474C32.786 110.526 32.436 109.855 32.436 109.855C32.436 109.855 32.7423 110.54 33.5881 111.547C34.4193 112.553 35.8046 113.851 37.7733 114.959C39.7128 116.096 42.1627 117.103 44.9188 117.7C47.6603 118.313 50.679 118.546 53.6684 118.4C56.6578 118.225 59.6327 117.73 62.3159 116.855C64.9991 115.98 67.3178 114.624 69.0094 113.122C70.701 111.62 71.7072 109.957 72.1155 108.718C72.3342 108.105 72.4217 107.595 72.4655 107.245C72.5092 106.895 72.5092 106.72 72.5092 106.72C72.5092 106.72 72.48 106.909 72.4217 107.259Z" fill="#0038B3"/>
<path d="M127.427 52.5449L127.398 61.6153C127.413 55.3302 123.286 49.0451 115.003 44.2765C98.539 34.7686 71.8673 34.7686 55.5202 44.2765C47.3976 49.0013 43.3436 55.1844 43.3145 61.382L43.3436 52.3116C43.3582 46.114 47.4268 39.9309 55.5493 35.2061C71.8965 25.6982 98.5828 25.6982 115.032 35.2061C123.3 39.9747 127.442 46.2598 127.427 52.5449Z" fill="url(#paint0_linear)"/>
<path d="M55.5347 40.631C71.8819 31.1231 98.5681 31.1231 115.017 40.631C122.615 45.0204 126.713 50.6639 127.325 56.4241C128.04 49.6723 123.942 42.7747 115.017 37.627C98.5681 28.1191 71.8819 28.1191 55.5347 37.627C46.7413 42.7455 42.7019 49.5848 43.4165 56.2928C44.029 50.5764 48.0538 44.9913 55.5347 40.631Z" fill="#80079D"/>
<path opacity="0.2" d="M55.7389 75.0898C72.1881 84.5831 98.8744 84.5831 115.222 75.0898C131.569 65.5819 131.481 50.1388 115.032 40.6309C98.5828 31.123 71.8965 31.123 55.5493 40.6309C39.2021 50.1388 39.2896 65.5965 55.7389 75.0898Z" fill="url(#paint1_linear)"/>
<path d="M129.279 52.5453L129.25 61.6157C129.236 68.0904 124.992 74.5505 116.505 79.4795C99.4431 89.3957 71.5756 89.3957 54.4118 79.4795C45.7643 74.4922 41.4479 67.9154 41.4624 61.3678L41.4916 52.2974C41.477 58.8596 45.7935 65.4218 54.441 70.409C71.6194 80.3253 99.4723 80.3253 116.534 70.409C125.007 65.4801 129.25 59.02 129.279 52.5453Z" fill="url(#paint2_linear)"/>
<path d="M116.33 34.4481C133.509 44.3643 133.596 60.5073 116.52 70.4235C99.458 80.3398 71.5905 80.3398 54.4267 70.4235C37.2483 60.5073 37.1608 44.3643 54.2226 34.4481C71.2989 24.5173 99.1518 24.5173 116.33 34.4481ZM55.7392 69.6507C72.1884 79.144 98.8747 79.144 115.222 69.6507C131.569 60.1428 131.482 44.6997 115.032 35.1918C98.583 25.6839 71.8968 25.6839 55.5496 35.1918C39.2024 44.6997 39.2899 60.1573 55.7392 69.6507Z" fill="#B420D9"/>
<path d="M124.423 83.6792C124.423 85.9249 125.998 86.8437 127.952 85.7208C129.906 84.5979 131.481 81.8564 131.481 79.6107C131.481 77.3649 129.906 76.4462 127.952 77.5691C125.998 78.6919 124.423 81.4189 124.423 83.6792Z" fill="#8712BA"/>
<path d="M130.475 77.3354L119.057 70.744C118.415 70.3648 117.526 70.4086 116.534 70.9773C114.58 72.1002 113.005 74.8417 113.005 77.0874C113.005 78.1957 113.384 78.9832 114.011 79.3623L125.429 85.9537C124.802 85.5746 124.423 84.8017 124.423 83.6788C124.423 81.4331 125.998 78.6915 127.952 77.5687C128.944 76.9999 129.833 76.9416 130.475 77.3354Z" fill="url(#paint3_linear)"/>
<path d="M165.867 110.452C165.867 114.288 168.55 115.833 171.875 113.923C175.186 112.013 177.883 107.346 177.883 103.526C177.883 101.003 176.717 99.4717 174.981 99.2676C174.077 99.1509 173.013 99.4134 171.875 100.07C168.55 101.965 165.867 106.632 165.867 110.452Z" fill="#003199"/>
<path d="M176.148 99.6615L133.246 74.8855C132.152 74.2293 130.635 74.3168 128.958 75.2792C125.648 77.1896 122.95 81.856 122.95 85.6767C122.95 87.5724 123.606 88.8995 124.671 89.5411L167.588 114.317C166.523 113.675 165.867 112.348 165.867 110.453C165.867 106.617 168.55 101.966 171.875 100.055C173.552 99.0928 175.069 99.0052 176.148 99.6615Z" fill="#003199"/>
<path d="M165.867 110.453C167.369 103.103 172.313 99.2243 174.981 99.2534C171.554 98.0722 165.109 104.212 165.867 110.453Z" fill="#00236C"/>
<defs>
<linearGradient id="paint0_linear" x1="43.3174" y1="44.8472" x2="127.421" y2="44.8472" gradientUnits="userSpaceOnUse">
<stop stop-color="#BF29E3"/>
<stop offset="1" stop-color="#A517C8"/>
</linearGradient>
<linearGradient id="paint1_linear" x1="43.3408" y1="57.8621" x2="127.423" y2="57.8621" gradientUnits="userSpaceOnUse">
<stop stop-color="#F5F5F5"/>
<stop offset="1" stop-color="#CA35EF"/>
</linearGradient>
<linearGradient id="paint2_linear" x1="41.4655" y1="69.609" x2="129.273" y2="69.609" gradientUnits="userSpaceOnUse">
<stop stop-color="#8E1CAA"/>
<stop offset="1" stop-color="#9C18BD"/>
</linearGradient>
<linearGradient id="paint3_linear" x1="123.504" y1="73.3076" x2="118.516" y2="81.9478" gradientUnits="userSpaceOnUse">
<stop stop-color="#C72DED"/>
<stop offset="0.5172" stop-color="#B824DC"/>
<stop offset="0.7797" stop-color="#BB23DF"/>
<stop offset="1" stop-color="#9C15BC"/>
</linearGradient>
</defs>
</svg>
