<svg xmlns="http://www.w3.org/2000/svg" width="381" height="230" viewBox="0 0 381 230" fill="none" style="&#10;    width: 700px;&#10;    height: 700px;&#10;">
    <path d="M324.594 32.2865C399.165 75.3352 399.541 145.12 325.471 188.169C251.401 231.218 130.9 231.218 56.3292 188.169C-18.2418 145.12 -18.6177 75.3352 55.4521 32.2865C129.522 -10.7622 250.023 -10.7622 324.594 32.2865Z" fill="#0A2340" style="&#10;    transform: translate(0px, 1px);&#10;"/>
    <path d="M291.694 45.1658C264.607 29.5299 228.8 20.9102 190.888 20.9102C152.976 20.9102 117.244 29.5299 90.3323 45.1908C62.2429 61.5283 46.7825 83.654 46.8326 107.509C46.8326 108.06 46.8326 108.611 46.8577 109.137C47.5843 132.516 63.1951 154.166 90.9838 170.202C118.071 185.838 153.878 194.458 191.79 194.458C229.702 194.458 265.434 185.838 292.371 170.177C319.733 154.291 335.093 132.842 335.845 109.689C335.87 109.087 335.87 108.461 335.87 107.859C335.82 83.8544 320.134 61.5784 291.694 45.1658ZM321.237 111.368C321.262 129.81 308.382 147.45 285.004 161.056C259.345 175.966 225.592 183.433 191.765 183.433C157.962 183.433 124.085 175.966 98.2505 161.056C74.496 147.35 61.416 129.559 61.391 110.967C61.391 110.365 61.416 109.739 61.416 109.137C61.391 108.586 61.391 108.035 61.391 107.484C61.3659 89.0413 74.2454 71.4009 97.6491 57.7947C123.308 42.8855 157.06 35.4434 190.888 35.4434C224.715 35.4434 258.568 42.9106 284.402 57.8198C308.157 71.5262 321.237 89.317 321.262 107.91C321.262 108.486 321.237 109.062 321.237 109.664V109.714C321.237 110.24 321.237 110.816 321.237 111.368Z" fill="#06121F"/>
    <path d="M335.82 109.714C335.094 86.3356 319.483 64.6859 291.694 48.6492C264.607 33.0133 228.8 24.3936 190.888 24.3936C152.976 24.3936 117.244 33.0133 90.3324 48.6742C62.9697 64.5606 47.5845 85.9848 46.8578 109.138C46.8327 109.764 46.8327 110.366 46.8327 110.992C46.8578 135.022 62.5437 157.273 90.9839 173.711C118.071 189.347 153.878 197.967 191.79 197.967C229.702 197.967 265.434 189.347 292.371 173.711C320.46 157.373 335.896 135.248 335.87 111.393C335.845 110.817 335.82 110.265 335.82 109.714ZM61.4412 109.138C62.243 91.3471 75.0223 74.4333 97.6492 61.2781C123.308 46.3689 157.06 38.9018 190.888 38.9018C224.716 38.9018 258.568 46.3689 284.402 61.2781C307.405 74.5585 320.41 91.6728 321.237 109.639V109.689C321.262 110.265 321.262 110.817 321.262 111.393C321.287 129.835 308.407 147.476 285.029 161.082C259.37 175.991 225.618 183.458 191.79 183.458C157.988 183.458 124.11 175.991 98.2757 161.082C74.5212 147.376 61.4412 129.585 61.4162 110.992C61.3911 110.341 61.4161 109.739 61.4412 109.138Z" fill="url(#paint0_linear)"/>
    <path d="M380.773 110.791L380.623 120.163C380.548 148.202 362.131 176.191 325.321 197.565C251.251 240.614 130.75 240.614 56.179 197.565C18.668 175.891 -0.0749471 147.475 0.000225217 119.085L0.150564 109.714C0.0753914 138.104 18.8184 166.544 56.3294 188.194C130.9 231.242 251.377 231.242 325.471 188.194C362.256 166.795 380.673 138.806 380.773 110.791Z" fill="#06121F"/>
    <path fill-rule="evenodd" clip-rule="evenodd" d="M78.9563 208.816L78.9563 208.816C102.754 218.836 129.631 225.274 157.361 228.132L157.361 228.135C208.629 233.422 262.828 226.506 306.027 207.362L306.177 197.991C262.985 217.106 208.797 224.048 157.536 218.766L157.536 218.763C129.773 215.907 102.911 209.467 79.1066 199.444L79.1066 199.445C71.1384 196.087 63.5209 192.353 56.3294 188.194C18.8184 166.544 0.0753915 138.104 0.150564 109.714L0.000225217 119.085C-0.0749471 147.475 18.668 175.891 56.179 197.565C63.3705 201.725 70.988 205.458 78.9563 208.816ZM380.773 110.791L380.746 112.465C380.763 111.907 380.772 111.349 380.773 110.791ZM380.746 112.465C380.273 128.717 373.619 144.903 360.828 159.753V159.753C351.982 170.001 340.18 179.623 325.472 188.193C319.358 191.751 312.918 195.033 306.202 197.99L306.052 207.362C312.767 204.38 319.207 201.122 325.321 197.564C340.055 188.995 351.832 179.372 360.677 169.124V169.125C373.933 153.764 380.573 136.976 380.623 120.162L380.746 112.465Z" fill="#0A1D33"/>
    <mask id="mask0" mask-type="alpha" maskUnits="userSpaceOnUse" x="159" y="26" width="49" height="22">
        <path opacity="0.9" d="M192.176 29.2072C188.457 27.0235 183.854 26.4333 178.719 27.4956C175.532 28.1448 172.168 29.5023 168.686 31.509C165.322 33.4566 162.076 35.8764 159.066 38.7094L173.939 47.3852C177.008 44.5523 180.195 42.1325 183.559 40.1848C187.041 38.1782 190.464 36.8207 193.592 36.1715C198.727 35.1092 203.33 35.6994 207.049 37.8831L192.176 29.2072Z" fill="url(#paint1_linear)"/>
    </mask>
    <g mask="url(#mask0)">
        <path d="M192.176 29.2072C188.457 27.0235 183.854 26.4333 178.719 27.4956C175.532 28.1448 172.168 29.5023 168.686 31.509C165.322 33.4566 162.076 35.8764 159.066 38.7094L173.939 47.3852C177.008 44.5523 180.195 42.1325 183.559 40.1848C187.041 38.1782 190.464 36.8207 193.592 36.1715C198.727 35.1092 203.33 35.6994 207.049 37.8831L192.176 29.2072Z" fill="url(#paint2_linear)"/>
    </g>
    <mask id="mask1" mask-type="alpha" maskUnits="userSpaceOnUse" x="40" y="18" width="124" height="156">
        <path d="M148.324 20.5898C144.016 18.111 138.704 17.3437 132.743 18.5831C129.084 19.3504 125.13 20.8849 121.116 23.2457C114.388 27.141 108.073 32.8069 102.584 39.4761C92.4916 51.8112 85.1732 67.6285 83.4616 82.3834C80.3926 83.0916 77.1465 84.3901 73.8414 86.2787C68.0575 89.6428 62.5687 94.5414 57.8471 100.266C47.6957 112.601 40.8493 129.068 40.9083 143.351C40.9674 153.738 44.6266 161.116 50.5286 164.539L65.4016 173.215C59.4407 169.791 55.7814 162.414 55.7814 152.027C55.7224 137.744 62.5686 121.277 72.72 108.942C77.4416 103.158 82.9304 98.3187 88.7143 94.9546C92.0784 93.0069 95.3245 91.7085 98.3345 91.0593C100.105 76.3043 107.365 60.4871 117.516 48.152C123.005 41.4828 129.32 35.8169 136.048 31.9216C140.121 29.5608 144.016 28.0263 147.675 27.259C153.636 26.0196 158.948 26.7278 163.256 29.2657L148.324 20.5898Z" fill="url(#paint3_linear)"/>
    </mask>
    <g mask="url(#mask1)">
        <path d="M148.324 20.5898C144.016 18.111 138.704 17.3437 132.743 18.5831C129.084 19.3504 125.13 20.8849 121.116 23.2457C114.388 27.141 108.073 32.8069 102.584 39.4761C92.4916 51.8112 85.1732 67.6285 83.4616 82.3834C80.3926 83.0916 77.1465 84.3901 73.8414 86.2787C68.0575 89.6428 62.5687 94.5414 57.8471 100.266C47.6957 112.601 40.8493 129.068 40.9083 143.351C40.9674 153.738 44.6266 161.116 50.5286 164.539L65.4016 173.215C59.4407 169.791 55.7814 162.414 55.7814 152.027C55.7224 137.744 62.5686 121.277 72.72 108.942C77.4416 103.158 82.9304 98.3187 88.7143 94.9546C92.0784 93.0069 95.3245 91.7085 98.3345 91.0593C100.105 76.3043 107.365 60.4871 117.516 48.152C123.005 41.4828 129.32 35.8169 136.048 31.9216C140.121 29.5608 144.016 28.0263 147.675 27.259C153.636 26.0196 158.948 26.7278 163.256 29.2657L148.324 20.5898Z" fill="url(#paint4_linear)"/>
    </g>
    <path d="M135.989 31.8629C155.17 20.8262 171.047 27.8495 173.88 47.385C176.949 44.5521 180.136 42.1323 183.5 40.1846C201.737 29.6201 216.61 38.1189 216.669 59.0709C216.728 80.0819 201.973 105.637 183.677 116.143L88.7733 170.972C70.5362 181.537 55.6633 173.038 55.6043 152.086C55.5453 131.075 70.3002 105.519 88.5963 94.9548C91.9604 93.0072 95.2065 91.7088 98.2165 91.0595C100.99 68.278 116.808 42.9585 135.989 31.8629Z" fill="url(#paint5_linear)" style="&#10;    transform: translate(-1px, -1px);&#10;"/>
    <mask id="mask2" mask-type="alpha" maskUnits="userSpaceOnUse" x="274" y="22" width="49" height="22">
        <path d="M307.176 25.2072C303.457 23.0235 298.854 22.4333 293.719 23.4956C290.532 24.1448 287.168 25.5023 283.686 27.509C280.322 29.4566 277.076 31.8764 274.066 34.7094L288.939 43.3852C292.008 40.5523 295.195 38.1325 298.559 36.1848C302.041 34.1782 305.464 32.8207 308.592 32.1715C313.727 31.1092 318.33 31.6994 322.049 33.8831L307.176 25.2072Z" fill="url(#paint6_linear)"/>
    </mask>
    <g mask="url(#mask2)">
        <path d="M307.176 25.2072C303.457 23.0235 298.854 22.4333 293.719 23.4956C290.532 24.1448 287.168 25.5023 283.686 27.509C280.322 29.4566 277.076 31.8764 274.066 34.7094L288.939 43.3852C292.008 40.5523 295.195 38.1325 298.559 36.1848C302.041 34.1782 305.464 32.8207 308.592 32.1715C313.727 31.1092 318.33 31.6994 322.049 33.8831L307.176 25.2072Z" fill="url(#paint7_linear)"/>
    </g>
    <mask id="mask3" mask-type="alpha" maskUnits="userSpaceOnUse" x="155" y="14" width="124" height="156">
        <path d="M263.324 16.5898C259.016 14.111 253.704 13.3437 247.743 14.5831C244.084 15.3504 240.13 16.8849 236.116 19.2457C229.388 23.141 223.073 28.8069 217.584 35.4761C207.492 47.8112 200.173 63.6285 198.462 78.3834C195.393 79.0916 192.146 80.3901 188.841 82.2787C183.057 85.6428 177.569 90.5414 172.847 96.2663C162.696 108.601 155.849 125.068 155.908 139.351C155.967 149.738 159.627 157.116 165.529 160.539L180.402 169.215C174.441 165.791 170.781 158.414 170.781 148.027C170.722 133.744 177.569 117.277 187.72 104.942C192.442 99.1583 197.93 94.3187 203.714 90.9546C207.078 89.0069 210.325 87.7085 213.335 87.0593C215.105 72.3043 222.365 56.4871 232.516 44.152C238.005 37.4828 244.32 31.8169 251.048 27.9216C255.121 25.5608 259.016 24.0263 262.675 23.259C268.636 22.0196 273.948 22.7278 278.256 25.2657L263.324 16.5898Z" fill="url(#paint8_linear)"/>
    </mask>
    <g mask="url(#mask3)">
        <path d="M263.324 16.5898C259.016 14.111 253.704 13.3437 247.743 14.5831C244.084 15.3504 240.13 16.8849 236.116 19.2457C229.388 23.141 223.073 28.8069 217.584 35.4761C207.492 47.8112 200.173 63.6285 198.462 78.3834C195.393 79.0916 192.146 80.3901 188.841 82.2787C183.057 85.6428 177.569 90.5414 172.847 96.2663C162.696 108.601 155.849 125.068 155.908 139.351C155.967 149.738 159.627 157.116 165.529 160.539L180.402 169.215C174.441 165.791 170.781 158.414 170.781 148.027C170.722 133.744 177.569 117.277 187.72 104.942C192.442 99.1583 197.93 94.3187 203.714 90.9546C207.078 89.0069 210.325 87.7085 213.335 87.0593C215.105 72.3043 222.365 56.4871 232.516 44.152C238.005 37.4828 244.32 31.8169 251.048 27.9216C255.121 25.5608 259.016 24.0263 262.675 23.259C268.636 22.0196 273.948 22.7278 278.256 25.2657L263.324 16.5898Z" fill="url(#paint9_linear)"/>
    </g>
    <path d="M250.989 27.8629C270.17 16.8262 286.047 23.8495 288.88 43.385C291.949 40.5521 295.136 38.1323 298.5 36.1846C316.737 25.6201 331.61 34.1189 331.669 55.0709C331.728 76.0819 316.973 101.637 298.677 112.143L203.773 166.972C185.536 177.537 170.663 169.038 170.604 148.086C170.545 127.075 185.3 101.519 203.596 90.9548C206.96 89.0072 210.206 87.7088 213.216 87.0595C215.99 64.278 231.808 38.9585 250.989 27.8629Z" fill="url(#paint10_linear)" style="&#10;    transform: translate(-1px, -1px);&#10;"/>
    <defs>
        <linearGradient id="paint0_linear" x1="191.352" y1="24.3936" x2="191.352" y2="197.967" gradientUnits="userSpaceOnUse">
            <stop stop-color="#0AB4EF"/>
            <stop offset="1" stop-color="#A437BF"/>
        </linearGradient>
        <linearGradient id="paint1_linear" x1="205.981" y1="58.1551" x2="179.183" y2="34.9651" gradientUnits="userSpaceOnUse">
            <stop offset="0.2347" stop-color="white"/>
            <stop offset="0.4175" stop-color="#FBFBFB"/>
            <stop offset="0.589" stop-color="#F0F0F0"/>
            <stop offset="0.7561" stop-color="#DDDDDD"/>
            <stop offset="0.9195" stop-color="#C2C2C2"/>
            <stop offset="1" stop-color="#B3B3B3"/>
        </linearGradient>
        <linearGradient id="paint2_linear" x1="194.418" y1="35.709" x2="176.078" y2="56.937" gradientUnits="userSpaceOnUse">
            <stop stop-color="#0BB3EE"/>
            <stop offset="1" stop-color="#8DE1FF"/>
        </linearGradient>
        <linearGradient id="paint3_linear" x1="130.123" y1="119.574" x2="81.1663" y2="72.6782" gradientUnits="userSpaceOnUse">
            <stop offset="0.2347" stop-color="white"/>
            <stop offset="0.4175" stop-color="#FBFBFB"/>
            <stop offset="0.589" stop-color="#F0F0F0"/>
            <stop offset="0.7561" stop-color="#DDDDDD"/>
            <stop offset="0.9195" stop-color="#C2C2C2"/>
            <stop offset="1" stop-color="#B3B3B3"/>
        </linearGradient>
        <linearGradient id="paint4_linear" x1="131.05" y1="84.3915" x2="35.95" y2="121.288" gradientUnits="userSpaceOnUse">
            <stop stop-color="#0BB3EE"/>
            <stop offset="1" stop-color="#8DE1FF"/>
        </linearGradient>
        <linearGradient id="paint5_linear" x1="174.271" y1="90.3163" x2="62.0505" y2="150.071" gradientUnits="userSpaceOnUse">
            <stop stop-color="#0BB3EE"/>
            <stop offset="1" stop-color="#8DE1FF"/>
        </linearGradient>
        <linearGradient id="paint6_linear" x1="320.981" y1="54.1551" x2="294.183" y2="30.9651" gradientUnits="userSpaceOnUse">
            <stop offset="0.2347" stop-color="white"/>
            <stop offset="0.4175" stop-color="#FBFBFB"/>
            <stop offset="0.589" stop-color="#F0F0F0"/>
            <stop offset="0.7561" stop-color="#DDDDDD"/>
            <stop offset="0.9195" stop-color="#C2C2C2"/>
            <stop offset="1" stop-color="#B3B3B3"/>
        </linearGradient>
        <linearGradient id="paint7_linear" x1="309.418" y1="31.709" x2="291.078" y2="52.937" gradientUnits="userSpaceOnUse">
            <stop stop-color="#0BB3EE"/>
            <stop offset="1" stop-color="#8DE1FF"/>
        </linearGradient>
        <linearGradient id="paint8_linear" x1="245.123" y1="115.574" x2="196.166" y2="68.6782" gradientUnits="userSpaceOnUse">
            <stop offset="0.2347" stop-color="white"/>
            <stop offset="0.4175" stop-color="#FBFBFB"/>
            <stop offset="0.589" stop-color="#F0F0F0"/>
            <stop offset="0.7561" stop-color="#DDDDDD"/>
            <stop offset="0.9195" stop-color="#C2C2C2"/>
            <stop offset="1" stop-color="#B3B3B3"/>
        </linearGradient>
        <linearGradient id="paint9_linear" x1="246.05" y1="80.3915" x2="150.95" y2="117.288" gradientUnits="userSpaceOnUse">
            <stop stop-color="#0BB3EE"/>
            <stop offset="1" stop-color="#8DE1FF"/>
        </linearGradient>
        <linearGradient id="paint10_linear" x1="289.271" y1="86.3163" x2="177.051" y2="146.071" gradientUnits="userSpaceOnUse">
            <stop stop-color="#0BB3EE"/>
            <stop offset="1" stop-color="#8DE1FF"/>
        </linearGradient>
    </defs>
</svg>
