<svg xmlns="http://www.w3.org/2000/svg" width="259" height="455" viewBox="0 0 259 455" fill="none">
    <path d="M258.854 343.982V386.914L145.444 454.69L145.519 411.758L258.854 343.982Z" fill="#18314F"/>
    <path d="M145.52 411.758L145.444 454.69L0.13623 368.526V325.519L145.52 411.758Z" fill="#18314F"/>
    <path d="M5.16504 365.45L5.99066 335.953L139.665 415.212L138.84 444.784L5.16504 365.45Z" fill="#0A2340"/>
    <path d="M258.854 343.981L145.52 411.757L0.13623 325.518L144.769 276.131L258.854 343.981Z" fill="#0A2340"/>
    <path d="M149.272 414.608L256.527 350.886V384.436L149.272 448.233V414.608Z" fill="#0A2340"/>
    <path d="M152.35 415.51L197.383 388.64V417.236L152.35 444.181V415.51Z" fill="#06121F"/>
    <path d="M166.835 415.284L154.601 422.489V437.2L166.835 429.92V415.284Z" fill="#06121F"/>
    <path d="M181.171 406.802L168.937 414.082V428.718L181.171 421.438V406.802Z" fill="#06121F"/>
    <path d="M195.132 398.396L182.897 405.677V420.313L195.132 413.032V398.396Z" fill="#06121F"/>
    <path d="M233.56 396.22L236.337 394.569V365.372L233.56 367.098V396.22Z" fill="#06121F"/>
    <path d="M227.856 399.596L230.633 397.945V368.748L227.856 370.399V399.596Z" fill="#06121F"/>
    <path d="M222.227 402.976L225.004 401.325V372.128L222.227 373.779V402.976Z" fill="#06121F"/>
    <path d="M216.597 406.353L219.375 404.627V375.505L216.597 377.156V406.353Z" fill="#06121F"/>
    <path d="M210.893 409.656L213.67 408.005V378.883L210.893 380.534V409.656Z" fill="#06121F"/>
    <path d="M205.264 413.032L208.041 411.381V382.185L205.264 383.836V413.032Z" fill="#06121F"/>
    <path d="M199.635 416.409L202.412 414.757V385.561L199.635 387.212V416.409Z" fill="#06121F"/>
    <path fill-rule="evenodd" clip-rule="evenodd" d="M145.444 406.579V366.874L8.16724 285.438V325.143L145.444 406.579ZM250.823 343.608V303.903L145.445 366.875V406.58L250.823 343.608Z" fill="#06121F"/>
    <path d="M250.823 303.903L145.444 366.874L8.16724 285.439L144.769 240.855L250.823 303.903Z" fill="url(#paint1_linear)"/>
    <path d="M258.854 257.668V300.675L145.444 368.45L145.519 325.518L258.854 257.668Z" fill="#18314F"/>
    <path d="M145.52 325.518L145.444 368.45L0.13623 282.211V239.279L145.52 325.518Z" fill="#18314F"/>
    <path d="M5.16504 279.21L5.99066 249.638L139.665 328.972L138.84 358.544L5.16504 279.21Z" fill="#0A2340"/>
    <path d="M258.854 257.667L145.52 325.518L0.13623 239.278L144.769 189.892L258.854 257.667Z" fill="#0A2340"/>
    <path d="M149.272 328.371L256.527 264.648V298.198L149.272 361.921V328.371Z" fill="#0A2340"/>
    <path d="M152.35 329.271L197.383 302.401V330.998L152.35 357.943V329.271Z" fill="#06121F"/>
    <path d="M166.835 328.972L154.601 336.252V350.963L166.835 343.683V328.972Z" fill="#06121F"/>
    <path d="M181.171 320.489L168.937 327.77V342.481L181.171 335.2V320.489Z" fill="#06121F"/>
    <path d="M195.132 312.159L182.897 319.44V334.076L195.132 326.795V312.159Z" fill="#06121F"/>
    <path d="M233.56 309.981L236.337 308.33V279.133L233.56 280.784V309.981Z" fill="#06121F"/>
    <path d="M227.856 313.359L230.633 311.707V282.511L227.856 284.162V313.359Z" fill="#06121F"/>
    <path d="M222.227 316.736L225.004 315.009V285.888L222.227 287.539V316.736Z" fill="#06121F"/>
    <path d="M216.597 320.039L219.375 318.387V289.266L216.597 290.917V320.039Z" fill="#06121F"/>
    <path d="M210.893 323.415L213.67 321.764V292.567L210.893 294.219V323.415Z" fill="#06121F"/>
    <path d="M205.264 326.793L208.041 325.142V295.945L205.264 297.597V326.793Z" fill="#06121F"/>
    <path d="M199.635 330.171L202.412 328.445V299.323L199.635 300.974V330.171Z" fill="#06121F"/>
    <path fill-rule="evenodd" clip-rule="evenodd" d="M145.444 319.288V279.583L8.16724 198.223V237.927L145.444 319.288ZM250.823 256.316V216.611L145.445 279.583V319.288L250.823 256.316Z" fill="#06121F"/>
    <path d="M250.823 216.612L145.444 279.583L8.16724 198.223L144.769 153.64L250.823 216.612Z" fill="url(#paint3_linear)"/>
    <path d="M258.854 172.252V215.259L145.444 283.034L145.519 240.103L258.854 172.252Z" fill="#18314F"/>
    <path d="M145.52 240.105L145.444 283.036L0.13623 196.797V153.865L145.52 240.105Z" fill="#18314F"/>
    <path d="M5.16504 193.794L5.99066 164.222L139.665 243.556L138.84 273.128L5.16504 193.794Z" fill="#0A2340"/>
    <path d="M258.854 172.253L145.52 240.104L0.13623 153.864L113.546 86.0889L258.854 172.253Z" fill="#0A2340"/>
    <path d="M149.272 242.955L256.527 179.232V212.782L149.272 276.505V242.955Z" fill="#0A2340"/>
    <path d="M152.35 243.856L197.383 216.985V245.582L152.35 272.452V243.856Z" fill="#06121F"/>
    <path d="M166.835 243.555L154.601 250.835V265.546L166.835 258.266V243.555Z" fill="#06121F"/>
    <path d="M181.171 235.073L168.937 242.354V257.065L181.171 249.784V235.073Z" fill="#06121F"/>
    <path d="M195.132 226.743L182.897 234.023V248.659L195.132 241.379V226.743Z" fill="#06121F"/>
    <path d="M233.56 224.565L236.337 222.914V193.717L233.56 195.368V224.565Z" fill="#06121F"/>
    <path d="M227.856 227.942L230.633 226.29V197.094L227.856 198.745V227.942Z" fill="#06121F"/>
    <path d="M222.227 231.319L225.004 229.592V200.471L222.227 202.122V231.319Z" fill="#06121F"/>
    <path d="M216.597 234.622L219.375 232.971V203.774L216.597 205.501V234.622Z" fill="#06121F"/>
    <path d="M210.893 238L213.67 236.349V207.152L210.893 208.804V238Z" fill="#06121F"/>
    <path d="M205.264 241.378L208.041 239.727V210.53L205.264 212.182V241.378Z" fill="#06121F"/>
    <path d="M199.635 244.754L202.412 243.028V213.906L199.635 215.557V244.754Z" fill="#06121F"/>
    <path fill-rule="evenodd" clip-rule="evenodd" d="M145.444 235.15V195.445L8.16724 114.01V153.714L145.444 235.15ZM250.823 172.179V132.4L145.445 195.447V235.151L250.823 172.179Z" fill="#06121F"/>
    <path d="M250.823 132.4L145.444 195.447L8.16724 114.011L113.546 51.0391L250.823 132.4Z" fill="url(#paint5_linear)"/>
    <path d="M258.854 86.2393V129.171L145.444 197.022L145.519 154.015L258.854 86.2393Z" fill="#18314F"/>
    <path d="M145.52 154.016L145.444 197.023L0.13623 110.784V67.8516L145.52 154.016Z" fill="#18314F"/>
    <path d="M5.16504 107.779L5.99066 78.207L139.665 157.541L138.84 187.038L5.16504 107.779Z" fill="#0A2340"/>
    <path d="M258.854 86.2393L145.52 154.015L0.13623 67.8506L113.546 0L258.854 86.2393Z" fill="#0A2340"/>
    <path d="M149.272 156.941L256.527 93.2188V126.769L149.272 190.491V156.941Z" fill="#0A2340"/>
    <path d="M152.35 157.842L197.383 130.972V159.568L152.35 186.438V157.842Z" fill="#06121F"/>
    <path d="M166.835 157.543L154.601 164.823V179.459L166.835 172.254V157.543Z" fill="#06121F"/>
    <path d="M181.171 149.061L168.937 156.341V170.977L181.171 163.772V149.061Z" fill="#06121F"/>
    <path d="M195.132 140.654L182.897 147.935V162.646L195.132 155.365V140.654Z" fill="#06121F"/>
    <path d="M233.56 138.551L236.337 136.9V107.703L233.56 109.354V138.551Z" fill="#06121F"/>
    <path d="M227.856 141.854L230.633 140.203V111.081L227.856 112.732V141.854Z" fill="#06121F"/>
    <path d="M222.227 145.231L225.004 143.58V114.383L222.227 116.109V145.231Z" fill="#06121F"/>
    <path d="M216.597 148.61L219.375 146.958V117.762L216.597 119.413V148.61Z" fill="#06121F"/>
    <path d="M210.893 151.987L213.67 150.335V121.139L210.893 122.79V151.987Z" fill="#06121F"/>
    <path d="M205.264 155.288L208.041 153.637V124.516L205.264 126.167V155.288Z" fill="#06121F"/>
    <path d="M199.635 158.665L202.412 157.014V127.817L199.635 129.544V158.665Z" fill="#06121F"/>
    <defs>
        <linearGradient id="paint0_linear" x1="7.99656" y1="296.9" x2="251.495" y2="301.018" gradientUnits="userSpaceOnUse">
            <stop stop-color="#A437BF"/>
            <stop offset="1" stop-color="#0BB3EE"/>
        </linearGradient>
        <linearGradient id="paint1_linear" x1="7.99656" y1="252.778" x2="251.501" y2="256.737" gradientUnits="userSpaceOnUse">
            <stop stop-color="#A437BF"/>
            <stop offset="1" stop-color="#0BB3EE"/>
        </linearGradient>
        <linearGradient id="paint2_linear" x1="7.99656" y1="209.677" x2="251.495" y2="213.797" gradientUnits="userSpaceOnUse">
            <stop stop-color="#A437BF"/>
            <stop offset="1" stop-color="#0BB3EE"/>
        </linearGradient>
        <linearGradient id="paint3_linear" x1="7.99656" y1="165.555" x2="251.501" y2="169.516" gradientUnits="userSpaceOnUse">
            <stop stop-color="#A437BF"/>
            <stop offset="1" stop-color="#0BB3EE"/>
        </linearGradient>
        <linearGradient id="paint4_linear" x1="7.99656" y1="125.471" x2="251.496" y2="129.589" gradientUnits="userSpaceOnUse">
            <stop stop-color="#A437BF"/>
            <stop offset="1" stop-color="#0BB3EE"/>
        </linearGradient>
        <linearGradient id="paint5_linear" x1="7.99656" y1="64.7014" x2="251.516" y2="68.1564" gradientUnits="userSpaceOnUse">
            <stop stop-color="#A437BF"/>
            <stop offset="1" stop-color="#0BB3EE"/>
        </linearGradient>
    </defs>
</svg>
