<svg width="17" height="13" viewBox="0 0 17 13" fill="none" xmlns="http://www.w3.org/2000/svg">
<path d="M6.45489 0L7.41353 1.19014C5.41103 2.18701 4.11153 3.05164 3.51504 3.78404C2.91855 4.49609 2.6203 5.28952 2.6203 6.16432C2.6203 6.87637 2.78008 7.36463 3.09962 7.62911C3.41917 7.87324 3.86654 8.01565 4.44173 8.05634C6.25251 8.23944 7.16855 9.00235 7.18985 10.3451C7.18985 11.0978 6.91291 11.7285 6.35902 12.2371C5.82644 12.7457 5.08083 13 4.12218 13C2.9718 12.9593 2.00251 12.5117 1.21429 11.6573C0.426065 10.7825 0.0213033 9.47027 0 7.72066C0 5.84898 0.617795 4.25196 1.85338 2.92958C3.08897 1.6072 4.62281 0.630673 6.45489 0ZM16.0414 0L17 1.19014C14.9975 2.18701 13.698 3.05164 13.1015 3.78404C12.505 4.49609 12.2068 5.28952 12.2068 6.16432C12.2068 6.87637 12.3665 7.36463 12.6861 7.62911C13.0056 7.87324 13.453 8.01565 14.0282 8.05634C15.839 8.23944 16.755 9.00235 16.7763 10.3451C16.7763 11.0978 16.4994 11.7285 15.9455 12.2371C15.4129 12.7457 14.6673 13 13.7086 13C12.5583 12.9593 11.589 12.5117 10.8008 11.6573C10.0125 10.7825 9.60777 9.47027 9.58647 7.72066C9.58647 5.84898 10.2043 4.25196 11.4398 2.92958C12.6754 1.6072 14.2093 0.630673 16.0414 0Z" fill="#272727"/>
</svg>
