<svg width="64" height="64" viewBox="0 0 64 64" fill="none" xmlns="http://www.w3.org/2000/svg">
<g clip-path="url(#clip0)">
<path d="M9.50005 33.6666C10.1632 33.6677 10.7995 33.4047 11.2684 32.9358C11.3334 32.8708 15.3334 28.8783 15.3334 28.8783L17.3859 30.9324C18.1674 31.7146 19.2277 32.154 20.3334 32.154C21.439 32.154 22.4994 31.7146 23.2809 30.9324L35.5075 18.7016L39.2259 22.4216C40.8548 24.0477 43.4928 24.0477 45.1217 22.4216L52.565 14.9682L53.1834 15.5866C53.7341 16.1367 54.5547 16.3158 55.2844 16.0451C56.0142 15.7744 56.5196 15.1036 56.5784 14.3274L56.995 8.95992V8.95158C57.0312 8.42535 56.8379 7.9092 56.4651 7.53606C56.0923 7.16292 55.5763 6.96925 55.05 7.00492L49.6775 7.42158C48.9016 7.47708 48.2296 7.98049 47.9582 8.7095C47.6868 9.43851 47.866 10.2589 48.4167 10.8082L49.035 11.4282L42.1725 18.2941L38.455 14.5741C37.6735 13.7919 36.6132 13.3525 35.5075 13.3525C34.4019 13.3525 33.3415 13.7919 32.56 14.5741L20.3334 26.8058L18.2825 24.7499C16.6538 23.1233 14.0154 23.1233 12.3867 24.7499L7.74088 29.4083C7.0269 30.1207 6.81245 31.193 7.19755 32.1252C7.58265 33.0574 8.49144 33.6658 9.50005 33.6666V33.6666ZM8.91671 30.5833L13.5659 25.9241C14.0348 25.4546 14.6711 25.1909 15.3346 25.1909C15.9982 25.1909 16.6345 25.4546 17.1034 25.9241L19.7442 28.5666C19.9005 28.7231 20.1126 28.811 20.3338 28.811C20.555 28.811 20.7671 28.7231 20.9234 28.5666L33.7384 15.7499C34.7282 14.8041 36.2869 14.8041 37.2767 15.7499L40.995 19.4699C41.6546 20.0999 42.693 20.0999 43.3525 19.4699L50.8034 12.0149C51.1281 11.6896 51.1281 11.1627 50.8034 10.8374L49.5925 9.62658C49.501 9.54161 49.472 9.40858 49.52 9.29325C49.5621 9.17073 49.6748 9.08642 49.8042 9.08075L55.1734 8.66658C55.2154 8.66469 55.2561 8.68111 55.285 8.71158C55.3181 8.7432 55.3357 8.7876 55.3334 8.83325L54.9167 14.1999C54.9076 14.327 54.8252 14.4372 54.7058 14.4818C54.5864 14.5265 54.452 14.4974 54.3617 14.4074L53.1542 13.1983C52.8234 12.8855 52.3059 12.8855 51.975 13.1983L43.9425 21.2424C42.952 22.1856 41.3956 22.1856 40.405 21.2424L36.6867 17.5224C36.3748 17.2084 35.9502 17.0322 35.5075 17.0332C35.0657 17.0327 34.6419 17.2085 34.33 17.5216L22.1034 29.7541C21.1134 30.6995 19.555 30.6995 18.565 29.7541L16.5125 27.6999C15.8618 27.0498 14.8075 27.0498 14.1567 27.6999L10.0875 31.7624C9.76104 32.0819 9.23905 32.0819 8.91255 31.7624C8.75492 31.6093 8.66599 31.3989 8.66599 31.1791C8.66599 30.9593 8.75492 30.7489 8.91255 30.5958L8.91671 30.5833Z" fill="#0051FF"/>
<path d="M40.3333 38.6666C40.3407 34.7426 37.6094 31.3451 33.7755 30.5091C29.9416 29.673 26.0438 31.6249 24.4168 35.1958C22.7897 38.7666 23.8743 42.9887 27.0208 45.3333H27C26.012 45.3289 25.1149 45.9093 24.714 46.8123C24.313 47.7153 24.4841 48.77 25.15 49.5C24.2833 50.4421 24.2833 51.8912 25.15 52.8333C24.4841 53.5632 24.313 54.6179 24.714 55.5209C25.1149 56.4239 26.012 57.0043 27 57H37C37.988 57.0043 38.8851 56.4239 39.286 55.5209C39.687 54.6179 39.5159 53.5632 38.85 52.8333C39.7167 51.8912 39.7167 50.4421 38.85 49.5C39.5159 48.77 39.687 47.7153 39.286 46.8123C38.8851 45.9093 37.988 45.3289 37 45.3333H36.9792C39.0873 43.7654 40.3308 41.2938 40.3333 38.6666ZM37.8333 51.1666C37.8333 51.6269 37.4602 52 37 52H27C26.5398 52 26.1667 51.6269 26.1667 51.1666C26.1667 50.7064 26.5398 50.3333 27 50.3333H37C37.4602 50.3333 37.8333 50.7064 37.8333 51.1666ZM37 55.3333H27C26.5398 55.3333 26.1667 54.9602 26.1667 54.5C26.1667 54.0397 26.5398 53.6666 27 53.6666H37C37.4602 53.6666 37.8333 54.0397 37.8333 54.5C37.8333 54.9602 37.4602 55.3333 37 55.3333ZM37 47C37.4602 47 37.8333 47.3731 37.8333 47.8333C37.8333 48.2935 37.4602 48.6666 37 48.6666H27C26.5398 48.6666 26.1667 48.2935 26.1667 47.8333C26.1667 47.3731 26.5398 47 27 47H37ZM25.3333 38.6666C25.3333 34.9847 28.3181 32 32 32C35.6819 32 38.6667 34.9847 38.6667 38.6666C38.6667 42.3485 35.6819 45.3333 32 45.3333C28.3198 45.3292 25.3375 42.3468 25.3333 38.6666Z" fill="#0051FF"/>
<path fill-rule="evenodd" clip-rule="evenodd" d="M32 37.8332C31.5957 37.8328 31.25 37.5422 31.18 37.144C31.1101 36.7458 31.3361 36.3548 31.716 36.2167C32.096 36.0785 32.5203 36.233 32.7225 36.5832C32.8664 36.8506 33.1444 37.0186 33.4481 37.0216C33.7518 37.0245 34.0331 36.862 34.1822 36.5975C34.3314 36.3329 34.3248 36.0081 34.165 35.7498C33.8629 35.2429 33.3912 34.8591 32.8333 34.6665V34.4998C32.8333 34.0396 32.4602 33.6665 32 33.6665C31.5397 33.6665 31.1666 34.0396 31.1666 34.4998V34.6532C30.0195 35.0572 29.3311 36.2297 29.5372 37.4283C29.7432 38.6269 30.7838 39.5021 32 39.4998C32.4043 39.5002 32.75 39.7908 32.8199 40.189C32.8899 40.5872 32.6639 40.9782 32.2839 41.1163C31.904 41.2545 31.4796 41.1 31.2775 40.7498C31.0405 40.3668 30.542 40.2414 30.1519 40.4667C29.7619 40.692 29.6215 41.1865 29.835 41.5832C30.1375 42.0904 30.6099 42.4742 31.1683 42.6665V42.8332C31.1683 43.2934 31.5414 43.6665 32.0016 43.6665C32.4619 43.6665 32.835 43.2934 32.835 42.8332V42.6798C33.9824 42.2757 34.6709 41.1027 34.4643 39.9039C34.2578 38.705 33.2165 37.83 32 37.8332Z" fill="#A437BF"/>
<path d="M48.6666 23.6665C45.0768 23.6625 41.8888 25.9606 40.7579 29.3676C39.6269 32.7747 40.8078 36.523 43.6875 38.6665H43.6666C42.6786 38.6621 41.7816 39.2425 41.3806 40.1456C40.9797 41.0486 41.1508 42.1032 41.8166 42.8332C40.9499 43.7753 40.9499 45.2244 41.8166 46.1665C40.9499 47.1086 40.9499 48.5578 41.8166 49.4998C40.9499 50.4419 40.9499 51.8911 41.8166 52.8332C41.1508 53.5631 40.9797 54.6178 41.3806 55.5208C41.7816 56.4238 42.6786 57.0042 43.6666 56.9998H53.6666C54.6546 57.0042 55.5517 56.4238 55.9527 55.5208C56.3536 54.6178 56.1825 53.5631 55.5166 52.8332C56.3833 51.8911 56.3833 50.4419 55.5166 49.4998C56.3833 48.5578 56.3833 47.1086 55.5166 46.1665C56.3833 45.2244 56.3833 43.7753 55.5166 42.8332C56.1825 42.1032 56.3536 41.0486 55.9527 40.1456C55.5517 39.2425 54.6546 38.6621 53.6666 38.6665H53.645C56.5256 36.5236 57.7073 32.775 56.5764 29.3675C55.4455 25.96 52.2569 23.6618 48.6666 23.6665ZM54.5 44.4998C54.5 44.9601 54.1269 45.3332 53.6666 45.3332H43.6666C43.2064 45.3332 42.8333 44.9601 42.8333 44.4998C42.8333 44.0396 43.2064 43.6665 43.6666 43.6665H53.6666C54.1269 43.6665 54.5 44.0396 54.5 44.4998ZM54.5 47.8332C54.5 48.2934 54.1269 48.6665 53.6666 48.6665H43.6666C43.2064 48.6665 42.8333 48.2934 42.8333 47.8332C42.8333 47.3729 43.2064 46.9998 43.6666 46.9998H53.6666C54.1269 46.9998 54.5 47.3729 54.5 47.8332ZM54.5 51.1665C54.5 51.6268 54.1269 51.9998 53.6666 51.9998H43.6666C43.2064 51.9998 42.8333 51.6268 42.8333 51.1665C42.8333 50.7063 43.2064 50.3332 43.6666 50.3332H53.6666C54.1269 50.3332 54.5 50.7063 54.5 51.1665ZM53.6666 55.3332H43.6666C43.2064 55.3332 42.8333 54.9601 42.8333 54.4998C42.8333 54.0396 43.2064 53.6665 43.6666 53.6665H53.6666C54.1269 53.6665 54.5 54.0396 54.5 54.4998C54.5 54.9601 54.1269 55.3332 53.6666 55.3332ZM53.6666 40.3332C54.1269 40.3332 54.5 40.7063 54.5 41.1665C54.5 41.6268 54.1269 41.9998 53.6666 41.9998H43.6666C43.2064 41.9998 42.8333 41.6268 42.8333 41.1665C42.8333 40.7063 43.2064 40.3332 43.6666 40.3332H53.6666ZM48.6666 38.6665C44.9847 38.6665 42 35.6817 42 31.9998C42 28.3179 44.9847 25.3332 48.6666 25.3332C52.3485 25.3332 55.3333 28.3179 55.3333 31.9998C55.3292 35.68 52.3468 38.6624 48.6666 38.6665Z" fill="#0051FF"/>
<path fill-rule="evenodd" clip-rule="evenodd" d="M48.6666 31.1664C48.2623 31.166 47.9166 30.8755 47.8467 30.4773C47.7767 30.079 48.0027 29.6881 48.3827 29.5499C48.7627 29.4118 49.187 29.5663 49.3891 29.9164C49.6261 30.2995 50.1246 30.4249 50.5147 30.1996C50.9047 29.9742 51.0451 29.4797 50.8316 29.0831C50.5299 28.5758 50.0581 28.1919 49.5 27.9998V27.8331C49.5 27.3729 49.1269 26.9998 48.6666 26.9998C48.2064 26.9998 47.8333 27.3729 47.8333 27.8331V27.9864C46.6862 28.3905 45.9977 29.563 46.2038 30.7616C46.4099 31.9602 47.4504 32.8354 48.6666 32.8331C49.0709 32.8335 49.4166 33.124 49.4866 33.5222C49.5565 33.9205 49.3306 34.3114 48.9506 34.4496C48.5706 34.5877 48.1463 34.4332 47.9441 34.0831C47.7071 33.7 47.2086 33.5746 46.8186 33.7999C46.4286 34.0253 46.2882 34.5198 46.5016 34.9164C46.8038 35.424 47.2763 35.8079 47.835 35.9998V36.1664C47.835 36.6267 48.2081 36.9998 48.6683 36.9998C49.1285 36.9998 49.5016 36.6267 49.5016 36.1664V36.0131C50.6491 35.6089 51.3375 34.436 51.131 33.2371C50.9245 32.0383 49.8832 31.1633 48.6666 31.1664V31.1664Z" fill="#A437BF"/>
<path d="M10.3541 52H10.3333C8.95259 52 7.8333 53.1192 7.8333 54.5C7.8333 55.8807 8.95259 57 10.3333 57H20.3333C21.714 57 22.8333 55.8807 22.8333 54.5C22.8333 53.1192 21.714 52 20.3333 52H20.3125C23.1925 49.8539 24.3736 46.104 23.2431 42.6948C22.1126 39.2857 18.925 36.9844 15.3333 36.9844C11.7416 36.9844 8.55398 39.2857 7.4235 42.6948C6.29302 46.104 7.47405 49.8539 10.3541 52V52ZM20.3333 53.6666C20.7935 53.6666 21.1666 54.0397 21.1666 54.5C21.1666 54.9602 20.7935 55.3333 20.3333 55.3333H10.3333C9.87306 55.3333 9.49996 54.9602 9.49996 54.5C9.49996 54.0397 9.87306 53.6666 10.3333 53.6666H20.3333ZM15.3333 38.6666C19.0152 38.6666 22 41.6514 22 45.3333C22 49.0152 19.0152 52 15.3333 52C11.6514 52 8.66663 49.0152 8.66663 45.3333C8.67076 41.6531 11.6531 38.6707 15.3333 38.6666Z" fill="#0051FF"/>
<path fill-rule="evenodd" clip-rule="evenodd" d="M15.3333 46.1666C15.7376 46.167 16.0833 46.4575 16.1533 46.8557C16.2232 47.254 15.9972 47.6449 15.6173 47.7831C15.2373 47.9213 14.813 47.7667 14.6108 47.4166C14.4669 47.1491 14.1889 46.9812 13.8852 46.9782C13.5815 46.9752 13.3002 47.1377 13.1511 47.4023C13.0019 47.6669 13.0085 47.9916 13.1683 48.2499C13.4708 48.7572 13.9432 49.141 14.5017 49.3333V49.4999C14.5017 49.9602 14.8748 50.3333 15.335 50.3333C15.7952 50.3333 16.1683 49.9602 16.1683 49.4999V49.3466C17.3158 48.9424 18.0042 47.7695 17.7977 46.5706C17.5911 45.3718 16.5498 44.4968 15.3333 44.4999C14.929 44.4995 14.5833 44.209 14.5134 43.8108C14.4434 43.4125 14.6694 43.0216 15.0494 42.8834C15.4293 42.7453 15.8537 42.8998 16.0558 43.2499C16.1998 43.5174 16.4778 43.6853 16.7815 43.6883C17.0852 43.6913 17.3665 43.5288 17.5156 43.2642C17.6647 42.9996 17.6581 42.6749 17.4983 42.4166C17.1962 41.9096 16.7245 41.5259 16.1667 41.3333V41.1666C16.1667 40.7063 15.7936 40.3333 15.3333 40.3333C14.8731 40.3333 14.5 40.7063 14.5 41.1666V41.3199C13.3529 41.724 12.6644 42.8965 12.8705 44.0951C13.0766 45.2937 14.1171 46.1689 15.3333 46.1666Z" fill="#A437BF"/>
</g>
<defs>
<clipPath id="clip0">
<rect width="50" height="50" fill="white" transform="translate(7 7)"/>
</clipPath>
</defs>
</svg>
