<svg width="64" height="64" viewBox="0 0 64 64" fill="none" xmlns="http://www.w3.org/2000/svg">
<g clip-path="url(#clip0)">
<path d="M41.483 52.6078H55.4352V53.8727H8.56484V52.6078H41.483ZM55.7793 50.943H41.483H8.2207C7.49233 50.943 6.9 51.5353 6.9 52.2637V54.2168C6.9 54.9452 7.49233 55.5375 8.2207 55.5375H55.7793C56.5077 55.5375 57.1 54.9452 57.1 54.2168V52.2637C57.1 51.5353 56.5077 50.943 55.7793 50.943Z" fill="#0051FF" stroke="#0051FF" stroke-width="0.2"/>
<path d="M52.9938 40.0224V48.0133H49.7758V33.0766H52.9938V40.0224ZM54.6586 40.0224V32.7324C54.6586 32.004 54.0663 31.4117 53.3379 31.4117H49.4316C48.7033 31.4117 48.1109 32.004 48.1109 32.7324V48.3574C48.1109 49.0858 48.7033 49.6781 49.4316 49.6781H53.3379C54.0663 49.6781 54.6586 49.0858 54.6586 48.3574V40.0224Z" fill="#0051FF" stroke="#0051FF" stroke-width="0.2"/>
<path d="M54.6586 21.0137C54.6586 20.2853 54.0663 19.693 53.3379 19.693H49.4316C48.7033 19.693 48.1109 20.2853 48.1109 21.0137V22.9668C48.1109 23.6952 48.7033 24.2875 49.4316 24.2875H53.3379C54.0663 24.2875 54.6586 23.6952 54.6586 22.9668V21.0137ZM52.9938 22.6227H49.7758V21.3578H52.9938V22.6227Z" fill="#A437BF" stroke="#A437BF" stroke-width="0.2"/>
<path d="M54.6586 26.873C54.6586 26.1447 54.0663 25.5523 53.3379 25.5523H49.4316C48.7033 25.5523 48.1109 26.1447 48.1109 26.873V28.8262C48.1109 29.5545 48.7033 30.1469 49.4316 30.1469H53.3379C54.0663 30.1469 54.6586 29.5545 54.6586 28.8262V26.873ZM52.9938 28.482H49.7758V27.2172H52.9938V28.482Z" fill="#A437BF" stroke="#A437BF" stroke-width="0.2"/>
<path d="M40.6426 49.6781H44.5488C45.2772 49.6781 45.8695 49.0858 45.8695 48.3574V33.6113C45.8695 32.883 45.2772 32.2906 44.5488 32.2906H40.6426C39.9142 32.2906 39.3219 32.883 39.3219 33.6113V48.3574C39.3219 49.0858 39.9142 49.6781 40.6426 49.6781ZM40.9867 33.9555H44.2047V48.0133H40.9867V33.9555Z" fill="#0051FF" stroke="#0051FF" stroke-width="0.2"/>
<path d="M32.1977 45.2833V39.2289H35.4156V48.0133H32.1977V45.2833ZM30.5328 45.2833V48.3574C30.5328 49.0858 31.1251 49.6781 31.8535 49.6781H35.7598C36.4881 49.6781 37.0805 49.0858 37.0805 48.3574V38.8848C37.0805 38.1564 36.4881 37.5641 35.7598 37.5641H31.8535C31.1251 37.5641 30.5328 38.1564 30.5328 38.8848V45.2833Z" fill="#0051FF" stroke="#0051FF" stroke-width="0.2"/>
<path d="M23.0645 40.1031C22.3361 40.1031 21.7437 40.6955 21.7437 41.4238V48.3574C21.7437 49.0858 22.3361 49.6781 23.0645 49.6781H26.9707C27.6991 49.6781 28.2914 49.0858 28.2914 48.3574V41.4238C28.2914 40.6955 27.6991 40.1031 26.9707 40.1031H23.0645ZM26.6266 48.0133H23.4086V41.768H26.6266V48.0133Z" fill="#0051FF" stroke="#0051FF" stroke-width="0.2"/>
<path d="M18.1816 43.0328H14.2754C13.547 43.0328 12.9547 43.6251 12.9547 44.3535V48.3574C12.9547 49.0858 13.547 49.6781 14.2754 49.6781H18.1816C18.91 49.6781 19.5023 49.0858 19.5023 48.3574V44.3535C19.5023 43.6251 18.91 43.0328 18.1816 43.0328ZM17.8375 48.0133H14.6195V44.6977H17.8375V48.0133Z" fill="#0051FF" stroke="#0051FF" stroke-width="0.2"/>
<path d="M56.6163 17.5236L56.6163 17.5236C56.9431 16.9576 56.9431 16.2806 56.6163 15.7147L56.5297 15.7646L56.6163 15.7146L52.9515 9.36699L52.9515 9.36698C52.6246 8.801 52.0384 8.4625 51.3848 8.4625C50.7312 8.4625 50.145 8.80099 49.8182 9.36699C49.8182 9.36699 49.8182 9.36699 49.8182 9.367L46.1534 15.7146L46.1534 15.7147C45.8266 16.2806 45.8266 16.9576 46.1534 17.5236C46.4801 18.0896 47.0665 18.4281 47.72 18.4281H55.0496C55.7031 18.4281 56.2895 18.0896 56.6163 17.5236ZM47.5951 16.5471L47.5951 16.5471L51.26 10.1994L51.26 10.1994C51.2962 10.1367 51.3505 10.1273 51.3848 10.1273C51.4191 10.1273 51.4734 10.1367 51.5096 10.1994L51.5096 10.1994L55.1745 16.5471L55.1745 16.5471C55.2107 16.6098 55.1916 16.6615 55.1745 16.6912C55.1573 16.7209 55.122 16.7633 55.0495 16.7633H47.7199C47.6475 16.7633 47.6122 16.7209 47.595 16.6912C47.5779 16.6616 47.5589 16.6098 47.5951 16.5471Z" fill="#A437BF" stroke="#A437BF" stroke-width="0.2"/>
<path d="M13.7268 19.6561L13.7268 19.6561C13.3599 19.7094 13.0744 19.9502 12.9598 20.3026C12.8453 20.6551 12.9348 21.0177 13.2003 21.2765C13.2003 21.2765 13.2003 21.2765 13.2003 21.2765L13.8272 21.8875L17.2366 25.2108L17.1668 25.2824L17.2366 25.2108C17.8529 25.8116 18.1341 26.6768 17.9886 27.5252L17.0358 33.0804L16.9372 33.0635L17.0358 33.0805C16.9731 33.4458 17.1138 33.7918 17.4137 34.0097C17.7135 34.2275 18.086 34.2544 18.4141 34.0819L23.403 31.4591L23.403 31.4591C24.1649 31.0587 25.0746 31.0587 25.8365 31.4591L25.8365 31.4591L30.8255 34.082L30.8255 34.082C31.1535 34.2545 31.5261 34.2275 31.826 34.0097L13.7268 19.6561ZM13.7268 19.6561L19.3046 18.8456L19.3046 18.8456M13.7268 19.6561L19.3046 18.8456M19.3046 18.8456C20.1564 18.7217 20.8924 18.1871 21.2734 17.4152L23.7678 12.3608L23.6781 12.3166M19.3046 18.8456L23.6781 12.3166M23.6781 12.3166L23.7678 12.3608C23.9318 12.0285 24.2491 11.8313 24.6197 11.8313C24.9905 11.8313 25.3076 12.0285 25.4716 12.3608L25.5613 12.3166L25.4716 12.3608L27.9661 17.4152L28.0557 17.371L27.9661 17.4152C28.3471 18.1871 29.083 18.7217 29.9349 18.8456L29.9493 18.7466L29.9349 18.8456L35.5128 19.6561C35.8796 19.7095 36.1651 19.9502 36.2796 20.3026L36.2796 20.3027M23.6781 12.3166L36.2796 20.3027M36.2796 20.3027C36.3942 20.6551 36.3046 21.0178 36.0392 21.2764L36.0392 21.2764M36.2796 20.3027L36.0392 21.2764M36.0392 21.2764L32.003 25.2108M36.0392 21.2764L32.003 25.2108M32.003 25.2108C31.3867 25.8116 31.1056 26.6768 31.251 27.5252M32.003 25.2108L31.251 27.5252M31.251 27.5252L32.2039 33.0804M31.251 27.5252L32.2039 33.0804M32.2039 33.0804C32.2665 33.4457 32.1257 33.7918 31.826 34.0097L32.2039 33.0804ZM16.3477 27.2438L15.3952 32.7975C15.188 33.8154 15.6718 34.7598 16.4333 35.3203C17.1954 35.8812 18.2483 36.0672 19.1896 35.5552C19.1898 35.5551 19.19 35.555 19.1902 35.5549L24.1777 32.9327C24.4546 32.7873 24.7852 32.7872 25.0619 32.9327L25.1085 32.8442L25.062 32.9327L30.0485 35.5543C30.9035 36.064 31.9631 35.8983 32.7479 35.3526C33.5345 34.8057 34.0651 33.8631 33.8445 32.7974L32.8921 27.2438L32.8921 27.2438C32.8392 26.9356 32.9414 26.6212 33.1653 26.4029L37.2005 22.4696C37.9686 21.7586 38.1302 20.7095 37.8416 19.8101C37.5529 18.9102 36.809 18.1457 35.7515 18.0084C35.7512 18.0084 35.751 18.0083 35.7507 18.0083L30.1746 17.198C30.1745 17.198 30.1745 17.198 30.1745 17.198C29.865 17.1529 29.5975 16.9587 29.4592 16.6783L29.3695 16.7225L29.4592 16.6783L26.9657 11.6258C26.9655 11.6255 26.9654 11.6251 26.9652 11.6248C26.0657 9.70161 23.1876 9.72279 22.2748 11.6243C22.2748 11.6245 22.2747 11.6247 22.2746 11.6249L19.7804 16.6784L19.7804 16.6784C19.6421 16.9588 19.3747 17.153 19.0651 17.1981C19.0651 17.1981 19.0651 17.1981 19.0651 17.1981L13.4889 18.0084C12.4567 18.1259 11.7081 18.8778 11.4104 19.7751C11.1124 20.6733 11.2609 21.7321 12.0387 22.4692C12.0389 22.4694 12.0391 22.4696 12.0392 22.4697L12.6652 23.0798C12.6652 23.0798 12.6652 23.0798 12.6652 23.0798L16.0744 26.4028C16.2984 26.6212 16.4006 26.9355 16.3477 27.2438Z" fill="#0051FF" stroke="#0051FF" stroke-width="0.2"/>
</g>
<defs>
<clipPath id="clip0">
<rect width="50" height="50" fill="white" transform="translate(7 7)"/>
</clipPath>
</defs>
</svg>
