<svg width="64" height="64" viewBox="0 0 64 64" fill="none" xmlns="http://www.w3.org/2000/svg">
<path d="M18.7188 32.7812H21.0625V34.3438H18.7188V32.7812Z" fill="#0051FF"/>
<path d="M24.1875 36.6875H26.5312V38.25H24.1875V36.6875Z" fill="#0051FF"/>
<path d="M18.7188 36.6875H22.625V38.25H18.7188V36.6875Z" fill="#0051FF"/>
<path d="M12.4688 36.6875H17.1562V38.25H12.4688V36.6875Z" fill="#0051FF"/>
<path d="M17.1562 40.5938H26.5312V42.1562H17.1562V40.5938Z" fill="#0051FF"/>
<path d="M12.4688 40.5938H15.5938V42.1562H12.4688V40.5938Z" fill="#0051FF"/>
<path d="M21.8438 44.5H26.5312V46.0625H21.8438V44.5Z" fill="#0051FF"/>
<path d="M12.4688 44.5H20.2812V46.0625H12.4688V44.5Z" fill="#0051FF"/>
<path d="M17.1562 48.4062H21.8438V49.9688H17.1562V48.4062Z" fill="#0051FF"/>
<path d="M12.4688 48.4062H15.5938V49.9688H12.4688V48.4062Z" fill="#0051FF"/>
<path d="M53.875 30.4375C53.875 30.2303 53.7927 30.0316 53.6462 29.8851C53.4997 29.7386 53.301 29.6563 53.0938 29.6563H48.4063C48.1991 29.6563 48.0003 29.7386 47.8538 29.8851C47.7073 30.0316 47.625 30.2303 47.625 30.4375V34.3438H43.7188C43.5116 34.3438 43.3128 34.4261 43.1663 34.5726C43.0198 34.7191 42.9375 34.9178 42.9375 35.125V39.0313H39.0313C38.8241 39.0313 38.6253 39.1136 38.4788 39.2601C38.3323 39.4066 38.25 39.6053 38.25 39.8125V43.7188H34.3438C34.1366 43.7188 33.9378 43.8011 33.7913 43.9476C33.6448 44.0941 33.5625 44.2928 33.5625 44.5V49.1875H27.9594C27.7751 48.6662 27.4124 48.2269 26.9356 47.9472C26.4587 47.6674 25.8982 47.5653 25.3533 47.6588C24.8084 47.7523 24.3141 48.0354 23.9577 48.4581C23.6014 48.8808 23.4059 49.4159 23.4059 49.9688C23.4059 50.5216 23.6014 51.0567 23.9577 51.4794C24.3141 51.9021 24.8084 52.1853 25.3533 52.2788C25.8982 52.3722 26.4587 52.2701 26.9356 51.9903C27.4124 51.7106 27.7751 51.2713 27.9594 50.75H28.875V53.0938C28.8748 53.3009 28.7924 53.4995 28.6459 53.6459C28.4995 53.7924 28.3009 53.8748 28.0938 53.875H10.9063C10.6991 53.8748 10.5006 53.7924 10.3541 53.6459C10.2076 53.4995 10.1252 53.3009 10.125 53.0938V35.125H14.0313C14.6526 35.1243 15.2484 34.8771 15.6878 34.4378C16.1271 33.9984 16.3743 33.4026 16.375 32.7813V28.875H28.0938C28.3009 28.8752 28.4995 28.9576 28.6459 29.1041C28.7924 29.2506 28.8748 29.4491 28.875 29.6563V30.4375H30.4375V29.6563C30.4368 29.0349 30.1896 28.4391 29.7503 27.9998C29.3109 27.5604 28.7151 27.3132 28.0938 27.3125H16.2409C15.933 27.3117 15.628 27.3719 15.3435 27.4898C15.059 27.6076 14.8008 27.7807 14.5836 27.999L9.24896 33.3337C9.03064 33.5508 8.85756 33.8091 8.73973 34.0936C8.6219 34.378 8.56166 34.6831 8.56251 34.991V53.0938C8.56322 53.7151 8.81038 54.3109 9.24976 54.7503C9.68915 55.1896 10.2849 55.4368 10.9063 55.4375H28.0938C28.7151 55.4368 29.3109 55.1896 29.7503 54.7503C30.1896 54.3109 30.4368 53.7151 30.4375 53.0938V50.75H55.4375V49.1875H53.875V30.4375ZM14.8125 29.9799V32.7813C14.8123 32.9884 14.7299 33.187 14.5834 33.3334C14.437 33.4799 14.2384 33.5623 14.0313 33.5625H11.2299L14.8125 29.9799ZM25.75 50.75C25.5955 50.75 25.4444 50.7042 25.316 50.6183C25.1875 50.5325 25.0874 50.4105 25.0282 50.2677C24.9691 50.125 24.9536 49.9679 24.9838 49.8163C25.0139 49.6648 25.0883 49.5256 25.1976 49.4163C25.3068 49.3071 25.446 49.2327 25.5976 49.2025C25.7491 49.1724 25.9062 49.1878 26.049 49.247C26.1917 49.3061 26.3138 49.4062 26.3996 49.5347C26.4854 49.6632 26.5313 49.8142 26.5313 49.9688C26.531 50.1759 26.4486 50.3745 26.3022 50.5209C26.1557 50.6674 25.9571 50.7498 25.75 50.75ZM35.125 45.2813H38.25V49.1875H35.125V45.2813ZM39.8125 40.5938H42.9375V49.1875H39.8125V40.5938ZM44.5 35.9063H47.625V49.1875H44.5V35.9063ZM49.1875 49.1875V31.2188H52.3125V49.1875H49.1875Z" fill="#0051FF"/>
<path d="M10.9062 28.0937C11.3022 28.0938 11.6917 27.9936 12.0384 27.8024C12.3851 27.6112 12.6777 27.3352 12.8888 27.0003C13.1 26.6654 13.2229 26.2825 13.246 25.8872C13.2691 25.492 13.1917 25.0973 13.021 24.7401L15.3652 22.3959C15.6616 22.5376 15.9846 22.6154 16.3131 22.6241C16.6417 22.6329 16.9683 22.5724 17.2719 22.4466C17.5755 22.3209 17.8493 22.1326 18.0754 21.8942C18.3015 21.6557 18.4749 21.3723 18.5844 21.0625H21.9781C22.1512 21.5522 22.4822 21.9706 22.9189 22.2518C23.3557 22.5331 23.8735 22.6612 24.391 22.6161C24.9085 22.571 25.3964 22.3552 25.7779 22.0027C26.1594 21.6501 26.4129 21.1808 26.4987 20.6684L30.9107 16.8867C31.4002 17.1437 31.9648 17.2193 32.5046 17.1003C33.0445 16.9813 33.525 16.6753 33.861 16.2363C34.1971 15.7973 34.3672 15.2537 34.3413 14.7015C34.3153 14.1493 34.095 13.624 33.7193 13.2184C33.3435 12.8129 32.8365 12.5533 32.2879 12.4854C31.7392 12.4175 31.1842 12.5457 30.721 12.8475C30.2577 13.1492 29.916 13.6049 29.7563 14.1342C29.5965 14.6634 29.629 15.2321 29.8479 15.7397L26.1103 18.9434C25.8643 18.5893 25.5254 18.31 25.1308 18.1362C24.7363 17.9624 24.3014 17.9009 23.8741 17.9584C23.4468 18.016 23.0437 18.1903 22.7091 18.4623C22.3746 18.7343 22.1217 19.0934 21.9781 19.5H18.5844C18.4783 19.1999 18.3123 18.9246 18.0965 18.6908C17.8806 18.457 17.6193 18.2696 17.3287 18.1401C17.038 18.0105 16.724 17.9416 16.4058 17.9373C16.0876 17.9331 15.7719 17.9937 15.4779 18.1155C15.1839 18.2373 14.9178 18.4177 14.6958 18.6457C14.4738 18.8736 14.3005 19.1444 14.1866 19.4416C14.0727 19.7387 14.0204 20.0559 14.0331 20.3739C14.0458 20.6919 14.1231 21.0039 14.2603 21.291L11.9161 23.6352C11.5987 23.4836 11.2512 23.4055 10.8994 23.4065C10.5477 23.4075 10.2006 23.4876 9.88408 23.6411C9.56752 23.7945 9.28956 24.0172 9.0708 24.2926C8.85205 24.5681 8.69811 24.8893 8.6204 25.2324C8.54269 25.5754 8.54321 25.9316 8.62192 26.2745C8.70062 26.6173 8.8555 26.938 9.07506 27.2129C9.29461 27.4877 9.57322 27.7096 9.89022 27.8621C10.2072 28.0146 10.5545 28.0937 10.9062 28.0937ZM32 14.0312C32.1545 14.0312 32.3056 14.077 32.434 14.1629C32.5625 14.2487 32.6627 14.3707 32.7218 14.5135C32.7809 14.6562 32.7964 14.8133 32.7662 14.9649C32.7361 15.1164 32.6617 15.2556 32.5524 15.3649C32.4432 15.4741 32.304 15.5485 32.1524 15.5787C32.0009 15.6088 31.8438 15.5934 31.701 15.5342C31.5583 15.4751 31.4363 15.375 31.3504 15.2465C31.2646 15.118 31.2188 14.967 31.2188 14.8125C31.219 14.6053 31.3014 14.4067 31.4478 14.2603C31.5943 14.1138 31.7929 14.0314 32 14.0312ZM24.1875 19.5C24.342 19.5 24.4931 19.5458 24.6215 19.6316C24.75 19.7175 24.8502 19.8395 24.9093 19.9822C24.9684 20.125 24.9839 20.2821 24.9537 20.4336C24.9236 20.5852 24.8492 20.7244 24.7399 20.8336C24.6307 20.9429 24.4915 21.0173 24.3399 21.0474C24.1884 21.0776 24.0313 21.0621 23.8885 21.003C23.7458 20.9439 23.6238 20.8437 23.5379 20.7152C23.4521 20.5868 23.4063 20.4357 23.4063 20.2812C23.4065 20.0741 23.4889 19.8755 23.6353 19.729C23.7818 19.5826 23.9804 19.5002 24.1875 19.5ZM16.375 19.5C16.5295 19.5 16.6806 19.5458 16.809 19.6316C16.9375 19.7175 17.0377 19.8395 17.0968 19.9822C17.1559 20.125 17.1714 20.2821 17.1412 20.4336C17.1111 20.5852 17.0367 20.7244 16.9274 20.8336C16.8182 20.9429 16.679 21.0173 16.5274 21.0474C16.3759 21.0776 16.2188 21.0621 16.076 21.003C15.9333 20.9439 15.8113 20.8437 15.7254 20.7152C15.6396 20.5868 15.5938 20.4357 15.5938 20.2812C15.594 20.0741 15.6764 19.8755 15.8228 19.729C15.9693 19.5826 16.1679 19.5002 16.375 19.5ZM10.9062 24.9687C11.0608 24.9687 11.2118 25.0145 11.3403 25.1004C11.4688 25.1862 11.5689 25.3082 11.628 25.451C11.6872 25.5937 11.7026 25.7508 11.6725 25.9024C11.6423 26.0539 11.5679 26.1931 11.4587 26.3024C11.3494 26.4116 11.2102 26.486 11.0587 26.5162C10.9071 26.5463 10.75 26.5309 10.6073 26.4717C10.4645 26.4126 10.3425 26.3125 10.2567 26.184C10.1708 26.0555 10.125 25.9045 10.125 25.75C10.1252 25.5428 10.2076 25.3442 10.3541 25.1978C10.5005 25.0513 10.6991 24.9689 10.9062 24.9687Z" fill="#A437BF"/>
<path d="M39.1841 26.836L34.0202 32H27.1781C26.9938 31.4787 26.6312 31.0394 26.1543 30.7597C25.6774 30.4799 25.117 30.3778 24.572 30.4712C24.0271 30.5647 23.5328 30.8479 23.1764 31.2706C22.8201 31.6933 22.6246 32.2284 22.6246 32.7812C22.6246 33.3341 22.8201 33.8692 23.1764 34.2919C23.5328 34.7146 24.0271 34.9977 24.572 35.0912C25.117 35.1847 25.6774 35.0826 26.1543 34.8028C26.6312 34.5231 26.9938 34.0837 27.1781 33.5625H28.875V47.625H30.4375V33.5625H34.3437C34.551 33.5625 34.7497 33.4802 34.8962 33.3337L40.5347 27.6952C42.8592 28.9289 45.571 29.2149 48.1018 28.4932C50.6325 27.7716 52.7856 26.0982 54.1098 23.824C55.434 21.5498 55.8264 18.8513 55.2048 16.2942C54.5832 13.737 52.9958 11.5197 50.7755 10.1071C48.5551 8.69456 45.8741 8.19633 43.2945 8.71689C40.7148 9.23745 38.4369 10.7364 36.9381 12.8995C35.4393 15.0626 34.836 17.7219 35.2547 20.32C35.6734 22.9181 37.0816 25.2533 39.1841 26.836L39.1841 26.836ZM24.9687 33.5625C24.8142 33.5625 24.6632 33.5167 24.5347 33.4308C24.4062 33.345 24.3061 33.223 24.247 33.0802C24.1878 32.9375 24.1724 32.7804 24.2025 32.6288C24.2326 32.4773 24.3071 32.3381 24.4163 32.2288C24.5256 32.1196 24.6648 32.0451 24.8163 32.015C24.9679 31.9849 25.125 32.0003 25.2677 32.0595C25.4105 32.1186 25.5325 32.2187 25.6183 32.3472C25.7042 32.4757 25.75 32.6267 25.75 32.7812C25.7498 32.9884 25.6674 33.1869 25.5209 33.3334C25.3744 33.4799 25.1759 33.5623 24.9687 33.5625ZM51.5479 24.5927L47.021 19.5H53.8391C53.6658 21.4059 52.8591 23.1988 51.5479 24.5927ZM53.8391 17.9375H46.0625V10.1609C48.0624 10.3463 49.9345 11.2251 51.3547 12.6453C52.7748 14.0655 53.6537 15.9376 53.8391 17.9375ZM44.5 10.1609V18.7187C44.4999 18.91 44.5704 19.0946 44.698 19.2372L44.6973 19.2378L50.3806 25.6315C49.3139 26.4185 48.0796 26.948 46.7742 27.1786C45.4688 27.4092 44.1278 27.3346 42.856 26.9607C41.5842 26.5868 40.4162 25.9237 39.4433 25.0233C38.4705 24.1228 37.7191 23.0095 37.2481 21.7704C36.7771 20.5313 36.5992 19.2 36.7283 17.8807C36.8574 16.5614 37.2901 15.2899 37.9923 14.1656C38.6946 13.0413 39.6475 12.0948 40.7765 11.4C41.9054 10.7053 43.1798 10.2812 44.5 10.1609Z" fill="#0051FF"/>
</svg>
