<svg width="64" height="64" viewBox="0 0 64 64" fill="none" xmlns="http://www.w3.org/2000/svg">
<g clip-path="url(#clip0)">
<path d="M15.0386 19.9063C15.3801 20.1505 15.6667 20.5059 15.6667 20.9257V21.1111C15.6667 21.5407 16.0149 21.8889 16.4444 21.8889C16.874 21.8889 17.2222 21.5407 17.2222 21.1111V20.9257C17.2222 20.5059 17.5088 20.1505 17.8503 19.9063C18.4107 19.5055 18.7778 18.8541 18.7778 18.1136C18.7778 17.2673 18.308 16.5067 17.5504 16.1279L16.0346 15.3696C15.8074 15.2568 15.6667 15.0289 15.6667 14.7753C15.6667 14.409 15.9653 14.1111 16.3309 14.1111H16.5572C16.9236 14.1111 17.2222 14.409 17.2222 14.7753C17.2222 14.838 17.2731 14.8889 17.3358 14.8889H18.6642C18.7269 14.8889 18.7778 14.838 18.7778 14.7753C18.7778 14.0348 18.4107 13.3834 17.8503 12.9826C17.5088 12.7384 17.2222 12.383 17.2222 11.9632V11.7778C17.2222 11.3482 16.874 11 16.4444 11C16.0149 11 15.6667 11.3482 15.6667 11.7778V11.9632C15.6667 12.383 15.3801 12.7384 15.0386 12.9826C14.4782 13.3834 14.1111 14.0348 14.1111 14.7753C14.1111 15.6216 14.5809 16.3822 15.3384 16.761L16.8543 17.5193C17.0814 17.6321 17.2222 17.86 17.2222 18.1136C17.2222 18.4799 16.9236 18.7778 16.558 18.7778H16.3317C15.9653 18.7778 15.6667 18.4799 15.6667 18.1136V18C15.6667 17.5704 15.3184 17.2222 14.8889 17.2222C14.4593 17.2222 14.1111 17.5704 14.1111 18V18.1136C14.1111 18.8541 14.4782 19.5055 15.0386 19.9063Z" fill="#A437BF"/>
<path d="M17.8503 44.0937C17.5088 43.8495 17.2222 43.4941 17.2222 43.0743V42.8889C17.2222 42.4593 16.874 42.1111 16.4444 42.1111C16.0149 42.1111 15.6667 42.4593 15.6667 42.8889V43.0743C15.6667 43.4941 15.3801 43.8495 15.0386 44.0937C14.4782 44.4944 14.1111 45.1459 14.1111 45.8864C14.1111 46.7326 14.5809 47.4925 15.3384 47.8721L16.8543 48.6304C17.0814 48.7432 17.2222 48.9711 17.2222 49.2246C17.2222 49.5902 16.9236 49.8889 16.558 49.8889H16.3317C15.9653 49.8889 15.6667 49.5902 15.6667 49.2246V49.1111C15.6667 48.6815 15.3184 48.3333 14.8889 48.3333C14.4593 48.3333 14.1111 48.6815 14.1111 49.1111V49.2246C14.1111 49.9655 14.478 50.617 15.0382 51.0175C15.3798 51.2618 15.6667 51.6171 15.6667 52.0371V52.2222C15.6667 52.6518 16.0149 53 16.4444 53C16.874 53 17.2222 52.6517 17.2222 52.2222V52.0368C17.2222 51.6169 17.5088 51.2616 17.8503 51.0174C18.4107 50.6166 18.7778 49.9651 18.7778 49.2246C18.7778 48.3784 18.308 47.6185 17.5504 47.239L16.0346 46.4806C15.8074 46.3679 15.6667 46.14 15.6667 45.8864C15.6667 45.5209 15.9653 45.2222 16.3309 45.2222H16.5572C16.9236 45.2222 17.2222 45.5209 17.2222 45.8864C17.2222 45.9491 17.2731 46 17.3358 46H18.6642C18.7269 46 18.7778 45.9491 18.7778 45.8864C18.7778 45.1459 18.4107 44.4944 17.8503 44.0937Z" fill="#A437BF"/>
<path d="M44.8209 22.0384L53.2895 28.3898L50.5309 28.8497L50.4816 28.8579L50.4898 28.9072L50.7449 30.4418L50.7531 30.4911L50.8024 30.4829L56.236 29.5768L56.2853 29.5686L56.2771 29.5193L55.3718 24.0857L55.3635 24.0364L55.3142 24.0446L53.7797 24.3005L53.7303 24.3087L53.7386 24.358L54.1769 26.9875L45.8236 20.7225C45.9685 20.361 46.05 19.968 46.05 19.5556C46.05 17.8122 44.6323 16.3945 42.8889 16.3945C41.2538 16.3945 39.9212 17.6461 39.7597 19.238L36.4233 19.794C35.9227 18.7083 34.8287 17.95 33.5556 17.95C32.3968 17.95 31.3946 18.5833 30.8445 19.5136L24.9186 17.8977C25 17.4251 25.05 16.9409 25.05 16.4445C25.05 11.6996 21.1893 7.83892 16.4444 7.83892C11.6996 7.83892 7.83889 11.6996 7.83889 16.4445C7.83889 21.1893 11.6996 25.05 16.4444 25.05C20.1149 25.05 23.246 22.7357 24.4808 19.4944L30.3945 21.1071C30.3945 21.1084 30.3944 21.1098 30.3944 21.1111C30.3944 22.8545 31.8122 24.2722 33.5556 24.2722C35.1906 24.2722 36.5232 23.0206 36.6848 21.4287L40.0211 20.8728C40.5217 21.9585 41.6157 22.7167 42.8889 22.7167C43.6208 22.7167 44.2853 22.4569 44.8209 22.0384ZM42.8889 18.05C43.7192 18.05 44.3944 18.7253 44.3944 19.5556C44.3944 20.3859 43.7192 21.0611 42.8889 21.0611C42.0586 21.0611 41.3833 20.3859 41.3833 19.5556C41.3833 18.7253 42.0586 18.05 42.8889 18.05ZM33.5556 19.6056C34.3858 19.6056 35.0611 20.2809 35.0611 21.1111C35.0611 21.9414 34.3858 22.6167 33.5556 22.6167C32.7253 22.6167 32.05 21.9414 32.05 21.1111C32.05 20.2809 32.7253 19.6056 33.5556 19.6056ZM16.4444 9.49447C20.2769 9.49447 23.3944 12.6127 23.3944 16.4445C23.3944 20.2762 20.2769 23.3945 16.4444 23.3945C12.6119 23.3945 9.49444 20.2762 9.49444 16.4445C9.49444 12.6127 12.6119 9.49447 16.4444 9.49447Z" fill="#0051FF" stroke="#0051FF" stroke-width="0.1"/>
<path d="M21.9389 28.1611V33.1263C22.8614 33.6447 23.4944 34.6223 23.4944 35.7551C23.4944 36.564 23.1796 37.3249 22.6079 37.8959L21.9389 28.1611ZM21.9389 28.1611H26.5056V54.5055H22.0171C23.8578 53.0722 25.05 50.8427 25.05 48.3333C25.05 46.6518 24.4943 44.9839 23.4844 43.6367L23.4844 43.6367L20.6482 39.8556L22.6079 37.8959L21.9389 28.1611ZM20.2833 55.5331V56.1111V56.1611H20.3333H28.1111H28.1611V56.1111V26.5555V26.5055H28.1111H20.3333H20.2833V26.5555V32.7278H18.4933C18.0139 31.8082 17.0609 31.1722 15.9529 31.1722H13.8249C12.2394 31.1722 10.95 32.4616 10.95 34.0471C10.95 34.3138 10.9872 34.5798 11.0608 34.8363L12.4244 39.6105L9.40444 43.6367L9.40443 43.6367C8.39462 44.9839 7.83889 46.6518 7.83889 48.3333C7.83889 52.6496 11.3504 56.1611 15.6667 56.1611H17.2222C18.3084 56.1611 19.3423 55.9353 20.2833 55.5331ZM17.1722 35.8889V35.9389H17.2222H18.7778H18.8278V35.8889V34.3833H20.4671C21.2235 34.3833 21.8389 34.9987 21.8389 35.7551C21.8389 36.116 21.6925 36.4704 21.4374 36.7254L19.2128 38.95H13.9583L12.6526 34.381L12.6526 34.3809C12.6212 34.2727 12.6056 34.1599 12.6056 34.0471C12.6056 33.3747 13.1525 32.8278 13.8249 32.8278H15.9529C16.6253 32.8278 17.1722 33.3747 17.1722 34.0471V35.8889ZM15.6667 54.5055C12.2635 54.5055 9.49444 51.7365 9.49444 48.3333C9.49444 47.0071 9.93271 45.6916 10.7289 44.6292C10.7289 44.6292 10.7289 44.6292 10.7289 44.6292L13.7472 40.6055H19.1417L22.16 44.6292C22.16 44.6292 22.16 44.6292 22.16 44.6292C22.9562 45.6916 23.3944 47.0071 23.3944 48.3333C23.3944 51.7365 20.6254 54.5055 17.2222 54.5055H15.6667Z" fill="#0051FF" stroke="#0051FF" stroke-width="0.1"/>
<path d="M29.6167 56.1112V56.1612H29.6667H37.4444H37.4944V56.1112V31.2223V31.1723H37.4444H29.6667H29.6167V31.2223V56.1112ZM31.2722 32.8278H35.8389V54.5056H31.2722V32.8278Z" fill="#0051FF" stroke="#0051FF" stroke-width="0.1"/>
<path d="M38.95 56.1112V56.1611H39H46.7778H46.8278V56.1112V27.3334V27.2834H46.7778H39H38.95V27.3334V56.1112ZM40.6056 28.9389H45.1722V54.5056H40.6056V28.9389Z" fill="#0051FF" stroke="#0051FF" stroke-width="0.1"/>
<path d="M48.2833 56.1112V56.1611H48.3333H56.1111H56.1611V56.1112V34.3334V34.2834H56.1111H48.3333H48.2833V34.3334V56.1112ZM49.9389 35.9389H54.5055V54.5056H49.9389V35.9389Z" fill="#0051FF" stroke="#0051FF" stroke-width="0.1"/>
</g>
<defs>
<clipPath id="clip0">
<rect width="49.7778" height="49.7778" fill="white" transform="translate(7.11111 7.11108)"/>
</clipPath>
</defs>
</svg>
