<svg width="64" height="64" viewBox="0 0 64 64" fill="none" xmlns="http://www.w3.org/2000/svg">
<path d="M28.0938 15.5938H29.6563V17.1562H28.0938V15.5938Z" fill="#0051FF"/>
<path d="M48.4062 34.3438H49.9688V35.9062H48.4062V34.3438Z" fill="#0051FF"/>
<path d="M34.3438 46.8438H35.9063V48.4062H34.3438V46.8438Z" fill="#0051FF"/>
<path d="M28.0938 49.1875H29.6563V50.75H28.0938V49.1875Z" fill="#0051FF"/>
<path d="M15.5938 31.2188H17.1563V32.7812H15.5938V31.2188Z" fill="#0051FF"/>
<path d="M34.3438 15.5938H35.9063V17.1562H34.3438V15.5938Z" fill="#0051FF"/>
<path d="M46.8438 28.0938H48.4062V29.6562H46.8438V28.0938Z" fill="#0051FF"/>
<path d="M42.9375 20.2812H44.5V21.8438H42.9375V20.2812Z" fill="#0051FF"/>
<path d="M19.5 20.2812H21.0625V21.8438H19.5V20.2812Z" fill="#0051FF"/>
<path d="M42.9375 42.1562H44.5V43.7188H42.9375V42.1562Z" fill="#0051FF"/>
<path d="M19.5 42.1562H21.0625V43.7188H19.5V42.1562Z" fill="#0051FF"/>
<path d="M31.9078 31.2187C31.3614 31.2364 30.8385 31.4448 30.4298 31.8079C30.0211 32.1709 29.7525 32.6657 29.6706 33.2062C29.5887 33.7467 29.6987 34.2988 29.9815 34.7667C30.2644 35.2345 30.7021 35.5885 31.2188 35.7672V37.4687H32.7813V35.7617C33.3106 35.5763 33.7556 35.2069 34.0352 34.7207C34.3149 34.2346 34.4105 33.6641 34.3046 33.1134C34.1987 32.5626 33.8984 32.0683 33.4584 31.7205C33.0184 31.3727 32.4681 31.1946 31.9078 31.2187ZM32.7813 33.532C32.7853 33.6345 32.7692 33.7369 32.7337 33.8332C32.6982 33.9295 32.6441 34.0179 32.5744 34.0932C32.5048 34.1686 32.421 34.2295 32.3278 34.2725C32.2346 34.3155 32.1338 34.3397 32.0313 34.3437C31.9286 34.3477 31.8261 34.3314 31.7297 34.2958C31.6333 34.2601 31.5449 34.2058 31.4695 34.1359C31.356 34.0311 31.2761 33.8949 31.2399 33.7446C31.2037 33.5944 31.213 33.4367 31.2664 33.2917C31.3198 33.1467 31.4151 33.0208 31.5401 32.9299C31.6651 32.839 31.8143 32.7873 31.9688 32.7812H32C32.2019 32.7811 32.396 32.8591 32.5417 32.9989C32.6873 33.1387 32.7732 33.3295 32.7813 33.5312V33.532Z" fill="#A437BF"/>
<path d="M35.9063 29.0188V28.0938C35.9063 27.0577 35.4947 26.0642 34.7621 25.3316C34.0296 24.5991 33.036 24.1875 32 24.1875C30.964 24.1875 29.9704 24.5991 29.2379 25.3316C28.5053 26.0642 28.0938 27.0577 28.0938 28.0938V29.0188C27.6384 29.1798 27.2438 29.4775 26.9641 29.8713C26.6844 30.2651 26.5333 30.7357 26.5313 31.2188V37.4688C26.5313 38.0904 26.7782 38.6865 27.2177 39.126C27.6573 39.5656 28.2534 39.8125 28.875 39.8125H35.125C35.7466 39.8125 36.3427 39.5656 36.7823 39.126C37.2218 38.6865 37.4688 38.0904 37.4688 37.4688V31.2188C37.4667 30.7357 37.3156 30.2651 37.0359 29.8713C36.7562 29.4775 36.3616 29.1798 35.9063 29.0188ZM29.6563 28.0938C29.6563 27.4721 29.9032 26.876 30.3427 26.4365C30.7823 25.9969 31.3784 25.75 32 25.75C32.6216 25.75 33.2177 25.9969 33.6573 26.4365C34.0968 26.876 34.3438 27.4721 34.3438 28.0938V28.875H29.6563V28.0938ZM35.9063 37.4688C35.9063 37.676 35.8239 37.8747 35.6774 38.0212C35.5309 38.1677 35.3322 38.25 35.125 38.25H28.875C28.6678 38.25 28.4691 38.1677 28.3226 38.0212C28.1761 37.8747 28.0938 37.676 28.0938 37.4688V31.2188C28.0938 31.0115 28.1761 30.8128 28.3226 30.6663C28.4691 30.5198 28.6678 30.4375 28.875 30.4375H35.125C35.3322 30.4375 35.5309 30.5198 35.6774 30.6663C35.8239 30.8128 35.9063 31.0115 35.9063 31.2188V37.4688Z" fill="#A437BF"/>
<mask id="path-14-outside-1" maskUnits="userSpaceOnUse" x="7.5625" y="7.5625" width="48" height="49" fill="black">
<rect fill="white" x="7.5625" y="7.5625" width="48" height="49"/>
<path d="M53.0937 39.0312C52.7457 39.0326 52.4025 39.1127 52.0898 39.2656L50.293 37.4688H42.9375V35.9062H46.8437V34.3438H42.9375V32.7813H47.0281L51.4711 30.5594C51.8605 30.9323 52.3668 31.1593 52.9043 31.2019C53.4418 31.2445 53.9775 31.1001 54.4208 30.7931C54.8641 30.4861 55.1877 30.0354 55.3368 29.5172C55.486 28.9991 55.4516 28.4453 55.2393 27.9496C55.0271 27.4539 54.6502 27.0468 54.1723 26.7971C53.6944 26.5474 53.1449 26.4704 52.6168 26.5793C52.0887 26.6881 51.6145 26.9761 51.2743 27.3944C50.9341 27.8128 50.7489 28.3358 50.75 28.875C50.7537 28.97 50.7633 29.0648 50.7789 29.1586L46.6594 31.2188H42.9375V29.6563H45.2812V28.0938H42.9375V26.5313H46.3859L48.9641 23.9531C49.2769 24.1061 49.6204 24.1863 49.9687 24.1875C50.4323 24.1875 50.8854 24.05 51.2709 23.7925C51.6563 23.535 51.9567 23.1689 52.1341 22.7407C52.3115 22.3124 52.3579 21.8412 52.2675 21.3865C52.177 20.9319 51.9538 20.5142 51.626 20.1865C51.2982 19.8587 50.8806 19.6355 50.426 19.545C49.9713 19.4546 49.5001 19.501 49.0718 19.6784C48.6436 19.8558 48.2775 20.1562 48.02 20.5416C47.7625 20.9271 47.625 21.3802 47.625 21.8438C47.6263 22.1918 47.7065 22.535 47.8594 22.8477L45.7391 24.9688H42.9375C42.9363 23.9331 42.5243 22.9403 41.792 22.208C41.0597 21.4757 40.0669 21.0637 39.0312 21.0625V19.0422L43.4961 14.5781C43.8087 14.731 44.152 14.8112 44.5 14.8125C44.9635 14.8125 45.4167 14.675 45.8021 14.4175C46.1875 14.16 46.4879 13.7939 46.6653 13.3657C46.8427 12.9374 46.8891 12.4662 46.7987 12.0115C46.7083 11.5569 46.4851 11.1392 46.1573 10.8115C45.8295 10.4837 45.4119 10.2605 44.9572 10.17C44.5026 10.0796 44.0313 10.126 43.6031 10.3034C43.1748 10.4808 42.8088 10.7812 42.5512 11.1666C42.2937 11.5521 42.1562 12.0052 42.1562 12.4688C42.1576 12.8168 42.2377 13.16 42.3906 13.4727L37.4687 18.3945V21.0625H35.9062V18.7188H34.3437V21.0625H32.7812V15.45C33.3025 15.2657 33.7418 14.9031 34.0216 14.4262C34.3013 13.9493 34.4035 13.3889 34.31 12.844C34.2165 12.299 33.9334 11.8047 33.5107 11.4484C33.088 11.092 32.5529 10.8965 32 10.8965C31.4471 10.8965 30.912 11.092 30.4893 11.4484C30.0666 11.8047 29.7835 12.299 29.69 12.844C29.5965 13.3889 29.6987 13.9493 29.9784 14.4262C30.2582 14.9031 30.6975 15.2657 31.2187 15.45V21.0625H29.6562V18.7188H28.0937V21.0625H26.5312V15.2703L23.1719 11.9109C23.3249 11.598 23.405 11.2546 23.4062 10.9063C23.4062 10.4427 23.2688 9.98956 23.0113 9.60413C22.7537 9.21871 22.3877 8.9183 21.9594 8.74091C21.5311 8.56352 21.0599 8.5171 20.6053 8.60754C20.1506 8.69797 19.733 8.92119 19.4052 9.24897C19.0774 9.57675 18.8542 9.99437 18.7638 10.449C18.6733 10.9037 18.7198 11.3749 18.8972 11.8032C19.0745 12.2314 19.375 12.5975 19.7604 12.855C20.1458 13.1125 20.5989 13.25 21.0625 13.25C21.4105 13.2487 21.7537 13.1685 22.0664 13.0156L24.9687 15.9172V21.0625C23.9331 21.0637 22.9403 21.4757 22.208 22.208C21.4757 22.9403 21.0637 23.9331 21.0625 24.9688H18.2609L16.1406 22.8477C16.2935 22.535 16.3737 22.1918 16.375 21.8438C16.375 21.3802 16.2375 20.9271 15.98 20.5416C15.7225 20.1562 15.3564 19.8558 14.9282 19.6784C14.4999 19.501 14.0286 19.4546 13.574 19.545C13.1194 19.6355 12.7017 19.8587 12.374 20.1865C12.0462 20.5142 11.823 20.9319 11.7325 21.3865C11.6421 21.8412 11.6885 22.3124 11.8659 22.7407C12.0433 23.1689 12.3437 23.535 12.7291 23.7925C13.1146 24.05 13.5677 24.1875 14.0312 24.1875C14.3793 24.1862 14.7225 24.106 15.0352 23.9531L17.6133 26.5313H21.0625V28.0938H16.0922L12 31.5031C11.6646 31.3191 11.2888 31.2214 10.9063 31.2188C10.4427 31.2188 9.98956 31.3562 9.60413 31.6137C9.21871 31.8713 8.9183 32.2373 8.74091 32.6656C8.56352 33.0939 8.5171 33.5651 8.60754 34.0197C8.69797 34.4744 8.92119 34.892 9.24897 35.2198C9.57675 35.5476 9.99436 35.7708 10.449 35.8612C10.9037 35.9517 11.3749 35.9052 11.8032 35.7278C12.2314 35.5504 12.5975 35.25 12.855 34.8646C13.1125 34.4792 13.25 34.0261 13.25 33.5625C13.2505 33.249 13.1875 32.9385 13.0648 32.65L16.6578 29.6563H21.0625V31.2188H18.7187V32.7813H21.0625V34.3438H14.0312V35.9062H21.0625V37.4688H16.7383L13.5898 42.1906C13.4776 42.1708 13.364 42.1593 13.25 42.1562C12.7065 42.1513 12.1778 42.3336 11.7529 42.6726C11.3281 43.0116 11.0329 43.4865 10.917 44.0176C10.8012 44.5486 10.8717 45.1033 11.1168 45.5885C11.3619 46.0736 11.7666 46.4596 12.2628 46.6814C12.759 46.9032 13.3165 46.9474 13.8414 46.8066C14.3664 46.6657 14.8268 46.3483 15.1453 45.9078C15.4638 45.4674 15.6209 44.9307 15.5901 44.388C15.5594 43.8453 15.3427 43.3298 14.9766 42.9281L17.5742 39.0312H21.0625C21.0637 40.0669 21.4757 41.0597 22.208 41.792C22.9403 42.5243 23.9331 42.9363 24.9687 42.9375V48.0828L22.0664 50.9844C21.7537 50.8315 21.4105 50.7513 21.0625 50.75C20.5989 50.75 20.1458 50.8875 19.7604 51.145C19.375 51.4025 19.0745 51.7686 18.8972 52.1968C18.7198 52.6251 18.6733 53.0963 18.7638 53.551C18.8542 54.0056 19.0774 54.4233 19.4052 54.751C19.733 55.0788 20.1506 55.302 20.6053 55.3925C21.0599 55.4829 21.5311 55.4365 21.9594 55.2591C22.3877 55.0817 22.7537 54.7813 23.0113 54.3959C23.2688 54.0104 23.4062 53.5573 23.4062 53.0938C23.4049 52.7457 23.3248 52.4025 23.1719 52.0898L26.5312 48.7305V42.9375H28.0937V47.625H29.6562V42.9375H31.2187V49.6203L35.9641 52.5891C35.8365 53.1364 35.907 53.7112 36.1629 54.2116C36.4188 54.712 36.8437 55.1055 37.3621 55.3225C37.8806 55.5394 38.4591 55.5658 38.9951 55.3968C39.5311 55.2278 39.99 54.8745 40.2903 54.3994C40.5906 53.9244 40.713 53.3583 40.6357 52.8017C40.5584 52.245 40.2865 51.7337 39.8681 51.3584C39.4497 50.9831 38.912 50.7682 38.3502 50.7516C37.7884 50.7351 37.239 50.918 36.7992 51.268L32.7812 48.7547V42.9375H34.3437V45.2812H35.9062V42.9375H37.4687V49.1875H43.0812C43.2655 49.7088 43.6282 50.1481 44.1051 50.4278C44.5819 50.7076 45.1424 50.8097 45.6873 50.7162C46.2322 50.6228 46.7265 50.3396 47.0829 49.9169C47.4392 49.4942 47.6347 48.9591 47.6347 48.4062C47.6347 47.8534 47.4392 47.3183 47.0829 46.8956C46.7265 46.4729 46.2322 46.1897 45.6873 46.0963C45.1424 46.0028 44.5819 46.1049 44.1051 46.3847C43.6282 46.6644 43.2655 47.1037 43.0812 47.625H39.0312V42.9375C40.0669 42.9363 41.0597 42.5243 41.792 41.792C42.5243 41.0597 42.9363 40.0669 42.9375 39.0312H49.6453L50.9844 40.3711C50.8315 40.6838 50.7513 41.027 50.75 41.375C50.75 41.8386 50.8875 42.2917 51.145 42.6771C51.4025 43.0625 51.7686 43.3629 52.1968 43.5403C52.6251 43.7177 53.0963 43.7641 53.551 43.6737C54.0056 43.5833 54.4232 43.3601 54.751 43.0323C55.0788 42.7045 55.302 42.2869 55.3925 41.8322C55.4829 41.3776 55.4365 40.9064 55.2591 40.4781C55.0817 40.0498 54.7813 39.6838 54.3959 39.4262C54.0104 39.1687 53.5573 39.0312 53.0937 39.0312ZM53.0937 28.0938C53.2483 28.0938 53.3993 28.1396 53.5278 28.2254C53.6563 28.3113 53.7564 28.4333 53.8155 28.576C53.8746 28.7188 53.8901 28.8759 53.86 29.0274C53.8298 29.179 53.7554 29.3182 53.6462 29.4274C53.5369 29.5367 53.3977 29.6111 53.2462 29.6412C53.0946 29.6714 52.9375 29.6559 52.7948 29.5968C52.652 29.5377 52.53 29.4375 52.4442 29.309C52.3583 29.1806 52.3125 29.0295 52.3125 28.875C52.3125 28.6678 52.3948 28.4691 52.5413 28.3226C52.6878 28.1761 52.8865 28.0938 53.0937 28.0938ZM49.9687 21.0625C50.1233 21.0625 50.2743 21.1083 50.4028 21.1942C50.5313 21.28 50.6314 21.402 50.6905 21.5448C50.7496 21.6875 50.7651 21.8446 50.735 21.9962C50.7048 22.1477 50.6304 22.2869 50.5212 22.3962C50.4119 22.5054 50.2727 22.5798 50.1212 22.61C49.9696 22.6401 49.8125 22.6247 49.6698 22.5655C49.527 22.5064 49.405 22.4063 49.3192 22.2778C49.2333 22.1493 49.1875 21.9983 49.1875 21.8438C49.1875 21.6366 49.2698 21.4378 49.4163 21.2913C49.5628 21.1448 49.7615 21.0625 49.9687 21.0625ZM44.5 11.6875C44.6545 11.6875 44.8056 11.7333 44.934 11.8192C45.0625 11.905 45.1626 12.027 45.2218 12.1698C45.2809 12.3125 45.2964 12.4696 45.2662 12.6212C45.2361 12.7727 45.1617 12.9119 45.0524 13.0212C44.9432 13.1304 44.804 13.2048 44.6524 13.235C44.5009 13.2651 44.3438 13.2497 44.201 13.1905C44.0583 13.1314 43.9362 13.0313 43.8504 12.9028C43.7646 12.7743 43.7187 12.6233 43.7187 12.4688C43.7187 12.2616 43.8011 12.0628 43.9476 11.9163C44.0941 11.7698 44.2928 11.6875 44.5 11.6875ZM32 12.4688C32.1545 12.4688 32.3056 12.5146 32.434 12.6004C32.5625 12.6863 32.6626 12.8083 32.7218 12.951C32.7809 13.0938 32.7964 13.2509 32.7662 13.4024C32.7361 13.554 32.6617 13.6932 32.5524 13.8024C32.4432 13.9117 32.304 13.9861 32.1524 14.0162C32.0009 14.0464 31.8438 14.0309 31.701 13.9718C31.5583 13.9127 31.4363 13.8125 31.3504 13.684C31.2646 13.5556 31.2187 13.4045 31.2187 13.25C31.2187 13.0428 31.3011 12.8441 31.4476 12.6976C31.5941 12.5511 31.7928 12.4688 32 12.4688ZM20.2812 10.9063C20.2812 10.7517 20.3271 10.6007 20.4129 10.4722C20.4988 10.3437 20.6208 10.2436 20.7635 10.1845C20.9063 10.1253 21.0634 10.1099 21.2149 10.14C21.3665 10.1702 21.5057 10.2446 21.6149 10.3538C21.7242 10.4631 21.7986 10.6023 21.8287 10.7538C21.8589 10.9054 21.8434 11.0625 21.7843 11.2052C21.7251 11.348 21.625 11.47 21.4965 11.5558C21.3681 11.6417 21.217 11.6875 21.0625 11.6875C20.8553 11.6875 20.6566 11.6052 20.5101 11.4587C20.3636 11.3122 20.2812 11.1135 20.2812 10.9063ZM13.25 21.8438C13.25 21.6892 13.2958 21.5382 13.3817 21.4097C13.4675 21.2812 13.5895 21.1811 13.7323 21.122C13.875 21.0628 14.0321 21.0474 14.1837 21.0775C14.3352 21.1077 14.4744 21.1821 14.5837 21.2913C14.6929 21.4006 14.7673 21.5398 14.7975 21.6913C14.8276 21.8429 14.8122 22 14.753 22.1427C14.6939 22.2855 14.5938 22.4075 14.4653 22.4933C14.3368 22.5792 14.1858 22.625 14.0312 22.625C13.824 22.625 13.6253 22.5427 13.4788 22.3962C13.3323 22.2497 13.25 22.051 13.25 21.8438ZM10.9063 34.3438C10.7517 34.3438 10.6007 34.2979 10.4722 34.2121C10.3437 34.1262 10.2436 34.0042 10.1845 33.8615C10.1253 33.7187 10.1099 33.5616 10.14 33.4101C10.1702 33.2585 10.2446 33.1193 10.3538 33.0101C10.4631 32.9008 10.6023 32.8264 10.7538 32.7963C10.9054 32.7661 11.0625 32.7816 11.2052 32.8407C11.348 32.8999 11.47 33 11.5558 33.1285C11.6417 33.2569 11.6875 33.408 11.6875 33.5625C11.6875 33.7697 11.6052 33.9684 11.4587 34.1149C11.3122 34.2614 11.1135 34.3438 10.9063 34.3438ZM13.25 45.2812C13.0955 45.2812 12.9444 45.2354 12.816 45.1496C12.6875 45.0637 12.5874 44.9417 12.5282 44.799C12.4691 44.6562 12.4536 44.4991 12.4838 44.3476C12.5139 44.196 12.5883 44.0568 12.6976 43.9476C12.8068 43.8383 12.946 43.7639 13.0976 43.7338C13.2491 43.7036 13.4062 43.7191 13.549 43.7782C13.6917 43.8374 13.8137 43.9375 13.8996 44.066C13.9854 44.1944 14.0312 44.3455 14.0312 44.5C14.0312 44.7072 13.9489 44.9059 13.8024 45.0524C13.6559 45.1989 13.4572 45.2812 13.25 45.2812ZM21.0625 53.875C20.908 53.875 20.7569 53.8292 20.6285 53.7433C20.5 53.6575 20.3998 53.5355 20.3407 53.3927C20.2816 53.25 20.2661 53.0929 20.2963 52.9413C20.3264 52.7898 20.4008 52.6506 20.5101 52.5413C20.6193 52.4321 20.7585 52.3577 20.9101 52.3275C21.0616 52.2974 21.2187 52.3128 21.3615 52.372C21.5042 52.4311 21.6262 52.5312 21.7121 52.6597C21.7979 52.7882 21.8437 52.9392 21.8437 53.0938C21.8437 53.3009 21.7614 53.4997 21.6149 53.6462C21.4684 53.7927 21.2697 53.875 21.0625 53.875ZM38.25 52.3125C38.4045 52.3125 38.5556 52.3583 38.684 52.4442C38.8125 52.53 38.9126 52.652 38.9718 52.7948C39.0309 52.9375 39.0464 53.0946 39.0162 53.2462C38.9861 53.3977 38.9117 53.5369 38.8024 53.6462C38.6932 53.7554 38.554 53.8298 38.4024 53.86C38.2509 53.8901 38.0938 53.8747 37.951 53.8155C37.8083 53.7564 37.6863 53.6563 37.6004 53.5278C37.5146 53.3993 37.4687 53.2483 37.4687 53.0938C37.4687 52.8866 37.5511 52.6878 37.6976 52.5413C37.8441 52.3948 38.0428 52.3125 38.25 52.3125ZM45.2812 47.625C45.4358 47.625 45.5868 47.6708 45.7153 47.7567C45.8438 47.8425 45.9439 47.9645 46.003 48.1073C46.0622 48.25 46.0776 48.4071 46.0475 48.5587C46.0173 48.7102 45.9429 48.8494 45.8337 48.9587C45.7244 49.0679 45.5852 49.1423 45.4337 49.1725C45.2821 49.2026 45.125 49.1872 44.9823 49.128C44.8395 49.0689 44.7175 48.9688 44.6317 48.8403C44.5458 48.7118 44.5 48.5608 44.5 48.4062C44.5 48.1991 44.5823 48.0003 44.7288 47.8538C44.8753 47.7073 45.074 47.625 45.2812 47.625ZM41.375 39.0312C41.375 39.6529 41.1281 40.249 40.6885 40.6885C40.249 41.1281 39.6528 41.375 39.0312 41.375H24.9687C24.3471 41.375 23.751 41.1281 23.3115 40.6885C22.8719 40.249 22.625 39.6529 22.625 39.0312V24.9688C22.625 24.3472 22.8719 23.751 23.3115 23.3115C23.751 22.8719 24.3471 22.625 24.9687 22.625H39.0312C39.6528 22.625 40.249 22.8719 40.6885 23.3115C41.1281 23.751 41.375 24.3472 41.375 24.9688V39.0312ZM53.0937 42.1562C52.9392 42.1562 52.7882 42.1104 52.6597 42.0246C52.5312 41.9387 52.4311 41.8167 52.372 41.674C52.3128 41.5312 52.2974 41.3741 52.3275 41.2226C52.3576 41.071 52.4321 40.9318 52.5413 40.8226C52.6506 40.7133 52.7898 40.6389 52.9413 40.6088C53.0929 40.5786 53.25 40.5941 53.3927 40.6532C53.5355 40.7124 53.6575 40.8125 53.7433 40.941C53.8292 41.0694 53.875 41.2205 53.875 41.375C53.875 41.5822 53.7927 41.7809 53.6462 41.9274C53.4997 42.0739 53.3009 42.1562 53.0937 42.1562Z"/>
</mask>
<path d="M53.0937 39.0312C52.7457 39.0326 52.4025 39.1127 52.0898 39.2656L50.293 37.4688H42.9375V35.9062H46.8437V34.3438H42.9375V32.7813H47.0281L51.4711 30.5594C51.8605 30.9323 52.3668 31.1593 52.9043 31.2019C53.4418 31.2445 53.9775 31.1001 54.4208 30.7931C54.8641 30.4861 55.1877 30.0354 55.3368 29.5172C55.486 28.9991 55.4516 28.4453 55.2393 27.9496C55.0271 27.4539 54.6502 27.0468 54.1723 26.7971C53.6944 26.5474 53.1449 26.4704 52.6168 26.5793C52.0887 26.6881 51.6145 26.9761 51.2743 27.3944C50.9341 27.8128 50.7489 28.3358 50.75 28.875C50.7537 28.97 50.7633 29.0648 50.7789 29.1586L46.6594 31.2188H42.9375V29.6563H45.2812V28.0938H42.9375V26.5313H46.3859L48.9641 23.9531C49.2769 24.1061 49.6204 24.1863 49.9687 24.1875C50.4323 24.1875 50.8854 24.05 51.2709 23.7925C51.6563 23.535 51.9567 23.1689 52.1341 22.7407C52.3115 22.3124 52.3579 21.8412 52.2675 21.3865C52.177 20.9319 51.9538 20.5142 51.626 20.1865C51.2982 19.8587 50.8806 19.6355 50.426 19.545C49.9713 19.4546 49.5001 19.501 49.0718 19.6784C48.6436 19.8558 48.2775 20.1562 48.02 20.5416C47.7625 20.9271 47.625 21.3802 47.625 21.8438C47.6263 22.1918 47.7065 22.535 47.8594 22.8477L45.7391 24.9688H42.9375C42.9363 23.9331 42.5243 22.9403 41.792 22.208C41.0597 21.4757 40.0669 21.0637 39.0312 21.0625V19.0422L43.4961 14.5781C43.8087 14.731 44.152 14.8112 44.5 14.8125C44.9635 14.8125 45.4167 14.675 45.8021 14.4175C46.1875 14.16 46.4879 13.7939 46.6653 13.3657C46.8427 12.9374 46.8891 12.4662 46.7987 12.0115C46.7083 11.5569 46.4851 11.1392 46.1573 10.8115C45.8295 10.4837 45.4119 10.2605 44.9572 10.17C44.5026 10.0796 44.0313 10.126 43.6031 10.3034C43.1748 10.4808 42.8088 10.7812 42.5512 11.1666C42.2937 11.5521 42.1562 12.0052 42.1562 12.4688C42.1576 12.8168 42.2377 13.16 42.3906 13.4727L37.4687 18.3945V21.0625H35.9062V18.7188H34.3437V21.0625H32.7812V15.45C33.3025 15.2657 33.7418 14.9031 34.0216 14.4262C34.3013 13.9493 34.4035 13.3889 34.31 12.844C34.2165 12.299 33.9334 11.8047 33.5107 11.4484C33.088 11.092 32.5529 10.8965 32 10.8965C31.4471 10.8965 30.912 11.092 30.4893 11.4484C30.0666 11.8047 29.7835 12.299 29.69 12.844C29.5965 13.3889 29.6987 13.9493 29.9784 14.4262C30.2582 14.9031 30.6975 15.2657 31.2187 15.45V21.0625H29.6562V18.7188H28.0937V21.0625H26.5312V15.2703L23.1719 11.9109C23.3249 11.598 23.405 11.2546 23.4062 10.9063C23.4062 10.4427 23.2688 9.98956 23.0113 9.60413C22.7537 9.21871 22.3877 8.9183 21.9594 8.74091C21.5311 8.56352 21.0599 8.5171 20.6053 8.60754C20.1506 8.69797 19.733 8.92119 19.4052 9.24897C19.0774 9.57675 18.8542 9.99437 18.7638 10.449C18.6733 10.9037 18.7198 11.3749 18.8972 11.8032C19.0745 12.2314 19.375 12.5975 19.7604 12.855C20.1458 13.1125 20.5989 13.25 21.0625 13.25C21.4105 13.2487 21.7537 13.1685 22.0664 13.0156L24.9687 15.9172V21.0625C23.9331 21.0637 22.9403 21.4757 22.208 22.208C21.4757 22.9403 21.0637 23.9331 21.0625 24.9688H18.2609L16.1406 22.8477C16.2935 22.535 16.3737 22.1918 16.375 21.8438C16.375 21.3802 16.2375 20.9271 15.98 20.5416C15.7225 20.1562 15.3564 19.8558 14.9282 19.6784C14.4999 19.501 14.0286 19.4546 13.574 19.545C13.1194 19.6355 12.7017 19.8587 12.374 20.1865C12.0462 20.5142 11.823 20.9319 11.7325 21.3865C11.6421 21.8412 11.6885 22.3124 11.8659 22.7407C12.0433 23.1689 12.3437 23.535 12.7291 23.7925C13.1146 24.05 13.5677 24.1875 14.0312 24.1875C14.3793 24.1862 14.7225 24.106 15.0352 23.9531L17.6133 26.5313H21.0625V28.0938H16.0922L12 31.5031C11.6646 31.3191 11.2888 31.2214 10.9063 31.2188C10.4427 31.2188 9.98956 31.3562 9.60413 31.6137C9.21871 31.8713 8.9183 32.2373 8.74091 32.6656C8.56352 33.0939 8.5171 33.5651 8.60754 34.0197C8.69797 34.4744 8.92119 34.892 9.24897 35.2198C9.57675 35.5476 9.99436 35.7708 10.449 35.8612C10.9037 35.9517 11.3749 35.9052 11.8032 35.7278C12.2314 35.5504 12.5975 35.25 12.855 34.8646C13.1125 34.4792 13.25 34.0261 13.25 33.5625C13.2505 33.249 13.1875 32.9385 13.0648 32.65L16.6578 29.6563H21.0625V31.2188H18.7187V32.7813H21.0625V34.3438H14.0312V35.9062H21.0625V37.4688H16.7383L13.5898 42.1906C13.4776 42.1708 13.364 42.1593 13.25 42.1562C12.7065 42.1513 12.1778 42.3336 11.7529 42.6726C11.3281 43.0116 11.0329 43.4865 10.917 44.0176C10.8012 44.5486 10.8717 45.1033 11.1168 45.5885C11.3619 46.0736 11.7666 46.4596 12.2628 46.6814C12.759 46.9032 13.3165 46.9474 13.8414 46.8066C14.3664 46.6657 14.8268 46.3483 15.1453 45.9078C15.4638 45.4674 15.6209 44.9307 15.5901 44.388C15.5594 43.8453 15.3427 43.3298 14.9766 42.9281L17.5742 39.0312H21.0625C21.0637 40.0669 21.4757 41.0597 22.208 41.792C22.9403 42.5243 23.9331 42.9363 24.9687 42.9375V48.0828L22.0664 50.9844C21.7537 50.8315 21.4105 50.7513 21.0625 50.75C20.5989 50.75 20.1458 50.8875 19.7604 51.145C19.375 51.4025 19.0745 51.7686 18.8972 52.1968C18.7198 52.6251 18.6733 53.0963 18.7638 53.551C18.8542 54.0056 19.0774 54.4233 19.4052 54.751C19.733 55.0788 20.1506 55.302 20.6053 55.3925C21.0599 55.4829 21.5311 55.4365 21.9594 55.2591C22.3877 55.0817 22.7537 54.7813 23.0113 54.3959C23.2688 54.0104 23.4062 53.5573 23.4062 53.0938C23.4049 52.7457 23.3248 52.4025 23.1719 52.0898L26.5312 48.7305V42.9375H28.0937V47.625H29.6562V42.9375H31.2187V49.6203L35.9641 52.5891C35.8365 53.1364 35.907 53.7112 36.1629 54.2116C36.4188 54.712 36.8437 55.1055 37.3621 55.3225C37.8806 55.5394 38.4591 55.5658 38.9951 55.3968C39.5311 55.2278 39.99 54.8745 40.2903 54.3994C40.5906 53.9244 40.713 53.3583 40.6357 52.8017C40.5584 52.245 40.2865 51.7337 39.8681 51.3584C39.4497 50.9831 38.912 50.7682 38.3502 50.7516C37.7884 50.7351 37.239 50.918 36.7992 51.268L32.7812 48.7547V42.9375H34.3437V45.2812H35.9062V42.9375H37.4687V49.1875H43.0812C43.2655 49.7088 43.6282 50.1481 44.1051 50.4278C44.5819 50.7076 45.1424 50.8097 45.6873 50.7162C46.2322 50.6228 46.7265 50.3396 47.0829 49.9169C47.4392 49.4942 47.6347 48.9591 47.6347 48.4062C47.6347 47.8534 47.4392 47.3183 47.0829 46.8956C46.7265 46.4729 46.2322 46.1897 45.6873 46.0963C45.1424 46.0028 44.5819 46.1049 44.1051 46.3847C43.6282 46.6644 43.2655 47.1037 43.0812 47.625H39.0312V42.9375C40.0669 42.9363 41.0597 42.5243 41.792 41.792C42.5243 41.0597 42.9363 40.0669 42.9375 39.0312H49.6453L50.9844 40.3711C50.8315 40.6838 50.7513 41.027 50.75 41.375C50.75 41.8386 50.8875 42.2917 51.145 42.6771C51.4025 43.0625 51.7686 43.3629 52.1968 43.5403C52.6251 43.7177 53.0963 43.7641 53.551 43.6737C54.0056 43.5833 54.4232 43.3601 54.751 43.0323C55.0788 42.7045 55.302 42.2869 55.3925 41.8322C55.4829 41.3776 55.4365 40.9064 55.2591 40.4781C55.0817 40.0498 54.7813 39.6838 54.3959 39.4262C54.0104 39.1687 53.5573 39.0312 53.0937 39.0312ZM53.0937 28.0938C53.2483 28.0938 53.3993 28.1396 53.5278 28.2254C53.6563 28.3113 53.7564 28.4333 53.8155 28.576C53.8746 28.7188 53.8901 28.8759 53.86 29.0274C53.8298 29.179 53.7554 29.3182 53.6462 29.4274C53.5369 29.5367 53.3977 29.6111 53.2462 29.6412C53.0946 29.6714 52.9375 29.6559 52.7948 29.5968C52.652 29.5377 52.53 29.4375 52.4442 29.309C52.3583 29.1806 52.3125 29.0295 52.3125 28.875C52.3125 28.6678 52.3948 28.4691 52.5413 28.3226C52.6878 28.1761 52.8865 28.0938 53.0937 28.0938ZM49.9687 21.0625C50.1233 21.0625 50.2743 21.1083 50.4028 21.1942C50.5313 21.28 50.6314 21.402 50.6905 21.5448C50.7496 21.6875 50.7651 21.8446 50.735 21.9962C50.7048 22.1477 50.6304 22.2869 50.5212 22.3962C50.4119 22.5054 50.2727 22.5798 50.1212 22.61C49.9696 22.6401 49.8125 22.6247 49.6698 22.5655C49.527 22.5064 49.405 22.4063 49.3192 22.2778C49.2333 22.1493 49.1875 21.9983 49.1875 21.8438C49.1875 21.6366 49.2698 21.4378 49.4163 21.2913C49.5628 21.1448 49.7615 21.0625 49.9687 21.0625ZM44.5 11.6875C44.6545 11.6875 44.8056 11.7333 44.934 11.8192C45.0625 11.905 45.1626 12.027 45.2218 12.1698C45.2809 12.3125 45.2964 12.4696 45.2662 12.6212C45.2361 12.7727 45.1617 12.9119 45.0524 13.0212C44.9432 13.1304 44.804 13.2048 44.6524 13.235C44.5009 13.2651 44.3438 13.2497 44.201 13.1905C44.0583 13.1314 43.9362 13.0313 43.8504 12.9028C43.7646 12.7743 43.7187 12.6233 43.7187 12.4688C43.7187 12.2616 43.8011 12.0628 43.9476 11.9163C44.0941 11.7698 44.2928 11.6875 44.5 11.6875ZM32 12.4688C32.1545 12.4688 32.3056 12.5146 32.434 12.6004C32.5625 12.6863 32.6626 12.8083 32.7218 12.951C32.7809 13.0938 32.7964 13.2509 32.7662 13.4024C32.7361 13.554 32.6617 13.6932 32.5524 13.8024C32.4432 13.9117 32.304 13.9861 32.1524 14.0162C32.0009 14.0464 31.8438 14.0309 31.701 13.9718C31.5583 13.9127 31.4363 13.8125 31.3504 13.684C31.2646 13.5556 31.2187 13.4045 31.2187 13.25C31.2187 13.0428 31.3011 12.8441 31.4476 12.6976C31.5941 12.5511 31.7928 12.4688 32 12.4688ZM20.2812 10.9063C20.2812 10.7517 20.3271 10.6007 20.4129 10.4722C20.4988 10.3437 20.6208 10.2436 20.7635 10.1845C20.9063 10.1253 21.0634 10.1099 21.2149 10.14C21.3665 10.1702 21.5057 10.2446 21.6149 10.3538C21.7242 10.4631 21.7986 10.6023 21.8287 10.7538C21.8589 10.9054 21.8434 11.0625 21.7843 11.2052C21.7251 11.348 21.625 11.47 21.4965 11.5558C21.3681 11.6417 21.217 11.6875 21.0625 11.6875C20.8553 11.6875 20.6566 11.6052 20.5101 11.4587C20.3636 11.3122 20.2812 11.1135 20.2812 10.9063ZM13.25 21.8438C13.25 21.6892 13.2958 21.5382 13.3817 21.4097C13.4675 21.2812 13.5895 21.1811 13.7323 21.122C13.875 21.0628 14.0321 21.0474 14.1837 21.0775C14.3352 21.1077 14.4744 21.1821 14.5837 21.2913C14.6929 21.4006 14.7673 21.5398 14.7975 21.6913C14.8276 21.8429 14.8122 22 14.753 22.1427C14.6939 22.2855 14.5938 22.4075 14.4653 22.4933C14.3368 22.5792 14.1858 22.625 14.0312 22.625C13.824 22.625 13.6253 22.5427 13.4788 22.3962C13.3323 22.2497 13.25 22.051 13.25 21.8438ZM10.9063 34.3438C10.7517 34.3438 10.6007 34.2979 10.4722 34.2121C10.3437 34.1262 10.2436 34.0042 10.1845 33.8615C10.1253 33.7187 10.1099 33.5616 10.14 33.4101C10.1702 33.2585 10.2446 33.1193 10.3538 33.0101C10.4631 32.9008 10.6023 32.8264 10.7538 32.7963C10.9054 32.7661 11.0625 32.7816 11.2052 32.8407C11.348 32.8999 11.47 33 11.5558 33.1285C11.6417 33.2569 11.6875 33.408 11.6875 33.5625C11.6875 33.7697 11.6052 33.9684 11.4587 34.1149C11.3122 34.2614 11.1135 34.3438 10.9063 34.3438ZM13.25 45.2812C13.0955 45.2812 12.9444 45.2354 12.816 45.1496C12.6875 45.0637 12.5874 44.9417 12.5282 44.799C12.4691 44.6562 12.4536 44.4991 12.4838 44.3476C12.5139 44.196 12.5883 44.0568 12.6976 43.9476C12.8068 43.8383 12.946 43.7639 13.0976 43.7338C13.2491 43.7036 13.4062 43.7191 13.549 43.7782C13.6917 43.8374 13.8137 43.9375 13.8996 44.066C13.9854 44.1944 14.0312 44.3455 14.0312 44.5C14.0312 44.7072 13.9489 44.9059 13.8024 45.0524C13.6559 45.1989 13.4572 45.2812 13.25 45.2812ZM21.0625 53.875C20.908 53.875 20.7569 53.8292 20.6285 53.7433C20.5 53.6575 20.3998 53.5355 20.3407 53.3927C20.2816 53.25 20.2661 53.0929 20.2963 52.9413C20.3264 52.7898 20.4008 52.6506 20.5101 52.5413C20.6193 52.4321 20.7585 52.3577 20.9101 52.3275C21.0616 52.2974 21.2187 52.3128 21.3615 52.372C21.5042 52.4311 21.6262 52.5312 21.7121 52.6597C21.7979 52.7882 21.8437 52.9392 21.8437 53.0938C21.8437 53.3009 21.7614 53.4997 21.6149 53.6462C21.4684 53.7927 21.2697 53.875 21.0625 53.875ZM38.25 52.3125C38.4045 52.3125 38.5556 52.3583 38.684 52.4442C38.8125 52.53 38.9126 52.652 38.9718 52.7948C39.0309 52.9375 39.0464 53.0946 39.0162 53.2462C38.9861 53.3977 38.9117 53.5369 38.8024 53.6462C38.6932 53.7554 38.554 53.8298 38.4024 53.86C38.2509 53.8901 38.0938 53.8747 37.951 53.8155C37.8083 53.7564 37.6863 53.6563 37.6004 53.5278C37.5146 53.3993 37.4687 53.2483 37.4687 53.0938C37.4687 52.8866 37.5511 52.6878 37.6976 52.5413C37.8441 52.3948 38.0428 52.3125 38.25 52.3125ZM45.2812 47.625C45.4358 47.625 45.5868 47.6708 45.7153 47.7567C45.8438 47.8425 45.9439 47.9645 46.003 48.1073C46.0622 48.25 46.0776 48.4071 46.0475 48.5587C46.0173 48.7102 45.9429 48.8494 45.8337 48.9587C45.7244 49.0679 45.5852 49.1423 45.4337 49.1725C45.2821 49.2026 45.125 49.1872 44.9823 49.128C44.8395 49.0689 44.7175 48.9688 44.6317 48.8403C44.5458 48.7118 44.5 48.5608 44.5 48.4062C44.5 48.1991 44.5823 48.0003 44.7288 47.8538C44.8753 47.7073 45.074 47.625 45.2812 47.625ZM41.375 39.0312C41.375 39.6529 41.1281 40.249 40.6885 40.6885C40.249 41.1281 39.6528 41.375 39.0312 41.375H24.9687C24.3471 41.375 23.751 41.1281 23.3115 40.6885C22.8719 40.249 22.625 39.6529 22.625 39.0312V24.9688C22.625 24.3472 22.8719 23.751 23.3115 23.3115C23.751 22.8719 24.3471 22.625 24.9687 22.625H39.0312C39.6528 22.625 40.249 22.8719 40.6885 23.3115C41.1281 23.751 41.375 24.3472 41.375 24.9688V39.0312ZM53.0937 42.1562C52.9392 42.1562 52.7882 42.1104 52.6597 42.0246C52.5312 41.9387 52.4311 41.8167 52.372 41.674C52.3128 41.5312 52.2974 41.3741 52.3275 41.2226C52.3576 41.071 52.4321 40.9318 52.5413 40.8226C52.6506 40.7133 52.7898 40.6389 52.9413 40.6088C53.0929 40.5786 53.25 40.5941 53.3927 40.6532C53.5355 40.7124 53.6575 40.8125 53.7433 40.941C53.8292 41.0694 53.875 41.2205 53.875 41.375C53.875 41.5822 53.7927 41.7809 53.6462 41.9274C53.4997 42.0739 53.3009 42.1562 53.0937 42.1562Z" fill="#0051FF"/>
<path d="M53.0937 39.0312C52.7457 39.0326 52.4025 39.1127 52.0898 39.2656L50.293 37.4688H42.9375V35.9062H46.8437V34.3438H42.9375V32.7813H47.0281L51.4711 30.5594C51.8605 30.9323 52.3668 31.1593 52.9043 31.2019C53.4418 31.2445 53.9775 31.1001 54.4208 30.7931C54.8641 30.4861 55.1877 30.0354 55.3368 29.5172C55.486 28.9991 55.4516 28.4453 55.2393 27.9496C55.0271 27.4539 54.6502 27.0468 54.1723 26.7971C53.6944 26.5474 53.1449 26.4704 52.6168 26.5793C52.0887 26.6881 51.6145 26.9761 51.2743 27.3944C50.9341 27.8128 50.7489 28.3358 50.75 28.875C50.7537 28.97 50.7633 29.0648 50.7789 29.1586L46.6594 31.2188H42.9375V29.6563H45.2812V28.0938H42.9375V26.5313H46.3859L48.9641 23.9531C49.2769 24.1061 49.6204 24.1863 49.9687 24.1875C50.4323 24.1875 50.8854 24.05 51.2709 23.7925C51.6563 23.535 51.9567 23.1689 52.1341 22.7407C52.3115 22.3124 52.3579 21.8412 52.2675 21.3865C52.177 20.9319 51.9538 20.5142 51.626 20.1865C51.2982 19.8587 50.8806 19.6355 50.426 19.545C49.9713 19.4546 49.5001 19.501 49.0718 19.6784C48.6436 19.8558 48.2775 20.1562 48.02 20.5416C47.7625 20.9271 47.625 21.3802 47.625 21.8438C47.6263 22.1918 47.7065 22.535 47.8594 22.8477L45.7391 24.9688H42.9375C42.9363 23.9331 42.5243 22.9403 41.792 22.208C41.0597 21.4757 40.0669 21.0637 39.0312 21.0625V19.0422L43.4961 14.5781C43.8087 14.731 44.152 14.8112 44.5 14.8125C44.9635 14.8125 45.4167 14.675 45.8021 14.4175C46.1875 14.16 46.4879 13.7939 46.6653 13.3657C46.8427 12.9374 46.8891 12.4662 46.7987 12.0115C46.7083 11.5569 46.4851 11.1392 46.1573 10.8115C45.8295 10.4837 45.4119 10.2605 44.9572 10.17C44.5026 10.0796 44.0313 10.126 43.6031 10.3034C43.1748 10.4808 42.8088 10.7812 42.5512 11.1666C42.2937 11.5521 42.1562 12.0052 42.1562 12.4688C42.1576 12.8168 42.2377 13.16 42.3906 13.4727L37.4687 18.3945V21.0625H35.9062V18.7188H34.3437V21.0625H32.7812V15.45C33.3025 15.2657 33.7418 14.9031 34.0216 14.4262C34.3013 13.9493 34.4035 13.3889 34.31 12.844C34.2165 12.299 33.9334 11.8047 33.5107 11.4484C33.088 11.092 32.5529 10.8965 32 10.8965C31.4471 10.8965 30.912 11.092 30.4893 11.4484C30.0666 11.8047 29.7835 12.299 29.69 12.844C29.5965 13.3889 29.6987 13.9493 29.9784 14.4262C30.2582 14.9031 30.6975 15.2657 31.2187 15.45V21.0625H29.6562V18.7188H28.0937V21.0625H26.5312V15.2703L23.1719 11.9109C23.3249 11.598 23.405 11.2546 23.4062 10.9063C23.4062 10.4427 23.2688 9.98956 23.0113 9.60413C22.7537 9.21871 22.3877 8.9183 21.9594 8.74091C21.5311 8.56352 21.0599 8.5171 20.6053 8.60754C20.1506 8.69797 19.733 8.92119 19.4052 9.24897C19.0774 9.57675 18.8542 9.99437 18.7638 10.449C18.6733 10.9037 18.7198 11.3749 18.8972 11.8032C19.0745 12.2314 19.375 12.5975 19.7604 12.855C20.1458 13.1125 20.5989 13.25 21.0625 13.25C21.4105 13.2487 21.7537 13.1685 22.0664 13.0156L24.9687 15.9172V21.0625C23.9331 21.0637 22.9403 21.4757 22.208 22.208C21.4757 22.9403 21.0637 23.9331 21.0625 24.9688H18.2609L16.1406 22.8477C16.2935 22.535 16.3737 22.1918 16.375 21.8438C16.375 21.3802 16.2375 20.9271 15.98 20.5416C15.7225 20.1562 15.3564 19.8558 14.9282 19.6784C14.4999 19.501 14.0286 19.4546 13.574 19.545C13.1194 19.6355 12.7017 19.8587 12.374 20.1865C12.0462 20.5142 11.823 20.9319 11.7325 21.3865C11.6421 21.8412 11.6885 22.3124 11.8659 22.7407C12.0433 23.1689 12.3437 23.535 12.7291 23.7925C13.1146 24.05 13.5677 24.1875 14.0312 24.1875C14.3793 24.1862 14.7225 24.106 15.0352 23.9531L17.6133 26.5313H21.0625V28.0938H16.0922L12 31.5031C11.6646 31.3191 11.2888 31.2214 10.9063 31.2188C10.4427 31.2188 9.98956 31.3562 9.60413 31.6137C9.21871 31.8713 8.9183 32.2373 8.74091 32.6656C8.56352 33.0939 8.5171 33.5651 8.60754 34.0197C8.69797 34.4744 8.92119 34.892 9.24897 35.2198C9.57675 35.5476 9.99436 35.7708 10.449 35.8612C10.9037 35.9517 11.3749 35.9052 11.8032 35.7278C12.2314 35.5504 12.5975 35.25 12.855 34.8646C13.1125 34.4792 13.25 34.0261 13.25 33.5625C13.2505 33.249 13.1875 32.9385 13.0648 32.65L16.6578 29.6563H21.0625V31.2188H18.7187V32.7813H21.0625V34.3438H14.0312V35.9062H21.0625V37.4688H16.7383L13.5898 42.1906C13.4776 42.1708 13.364 42.1593 13.25 42.1562C12.7065 42.1513 12.1778 42.3336 11.7529 42.6726C11.3281 43.0116 11.0329 43.4865 10.917 44.0176C10.8012 44.5486 10.8717 45.1033 11.1168 45.5885C11.3619 46.0736 11.7666 46.4596 12.2628 46.6814C12.759 46.9032 13.3165 46.9474 13.8414 46.8066C14.3664 46.6657 14.8268 46.3483 15.1453 45.9078C15.4638 45.4674 15.6209 44.9307 15.5901 44.388C15.5594 43.8453 15.3427 43.3298 14.9766 42.9281L17.5742 39.0312H21.0625C21.0637 40.0669 21.4757 41.0597 22.208 41.792C22.9403 42.5243 23.9331 42.9363 24.9687 42.9375V48.0828L22.0664 50.9844C21.7537 50.8315 21.4105 50.7513 21.0625 50.75C20.5989 50.75 20.1458 50.8875 19.7604 51.145C19.375 51.4025 19.0745 51.7686 18.8972 52.1968C18.7198 52.6251 18.6733 53.0963 18.7638 53.551C18.8542 54.0056 19.0774 54.4233 19.4052 54.751C19.733 55.0788 20.1506 55.302 20.6053 55.3925C21.0599 55.4829 21.5311 55.4365 21.9594 55.2591C22.3877 55.0817 22.7537 54.7813 23.0113 54.3959C23.2688 54.0104 23.4062 53.5573 23.4062 53.0938C23.4049 52.7457 23.3248 52.4025 23.1719 52.0898L26.5312 48.7305V42.9375H28.0937V47.625H29.6562V42.9375H31.2187V49.6203L35.9641 52.5891C35.8365 53.1364 35.907 53.7112 36.1629 54.2116C36.4188 54.712 36.8437 55.1055 37.3621 55.3225C37.8806 55.5394 38.4591 55.5658 38.9951 55.3968C39.5311 55.2278 39.99 54.8745 40.2903 54.3994C40.5906 53.9244 40.713 53.3583 40.6357 52.8017C40.5584 52.245 40.2865 51.7337 39.8681 51.3584C39.4497 50.9831 38.912 50.7682 38.3502 50.7516C37.7884 50.7351 37.239 50.918 36.7992 51.268L32.7812 48.7547V42.9375H34.3437V45.2812H35.9062V42.9375H37.4687V49.1875H43.0812C43.2655 49.7088 43.6282 50.1481 44.1051 50.4278C44.5819 50.7076 45.1424 50.8097 45.6873 50.7162C46.2322 50.6228 46.7265 50.3396 47.0829 49.9169C47.4392 49.4942 47.6347 48.9591 47.6347 48.4062C47.6347 47.8534 47.4392 47.3183 47.0829 46.8956C46.7265 46.4729 46.2322 46.1897 45.6873 46.0963C45.1424 46.0028 44.5819 46.1049 44.1051 46.3847C43.6282 46.6644 43.2655 47.1037 43.0812 47.625H39.0312V42.9375C40.0669 42.9363 41.0597 42.5243 41.792 41.792C42.5243 41.0597 42.9363 40.0669 42.9375 39.0312H49.6453L50.9844 40.3711C50.8315 40.6838 50.7513 41.027 50.75 41.375C50.75 41.8386 50.8875 42.2917 51.145 42.6771C51.4025 43.0625 51.7686 43.3629 52.1968 43.5403C52.6251 43.7177 53.0963 43.7641 53.551 43.6737C54.0056 43.5833 54.4232 43.3601 54.751 43.0323C55.0788 42.7045 55.302 42.2869 55.3925 41.8322C55.4829 41.3776 55.4365 40.9064 55.2591 40.4781C55.0817 40.0498 54.7813 39.6838 54.3959 39.4262C54.0104 39.1687 53.5573 39.0312 53.0937 39.0312ZM53.0937 28.0938C53.2483 28.0938 53.3993 28.1396 53.5278 28.2254C53.6563 28.3113 53.7564 28.4333 53.8155 28.576C53.8746 28.7188 53.8901 28.8759 53.86 29.0274C53.8298 29.179 53.7554 29.3182 53.6462 29.4274C53.5369 29.5367 53.3977 29.6111 53.2462 29.6412C53.0946 29.6714 52.9375 29.6559 52.7948 29.5968C52.652 29.5377 52.53 29.4375 52.4442 29.309C52.3583 29.1806 52.3125 29.0295 52.3125 28.875C52.3125 28.6678 52.3948 28.4691 52.5413 28.3226C52.6878 28.1761 52.8865 28.0938 53.0937 28.0938ZM49.9687 21.0625C50.1233 21.0625 50.2743 21.1083 50.4028 21.1942C50.5313 21.28 50.6314 21.402 50.6905 21.5448C50.7496 21.6875 50.7651 21.8446 50.735 21.9962C50.7048 22.1477 50.6304 22.2869 50.5212 22.3962C50.4119 22.5054 50.2727 22.5798 50.1212 22.61C49.9696 22.6401 49.8125 22.6247 49.6698 22.5655C49.527 22.5064 49.405 22.4063 49.3192 22.2778C49.2333 22.1493 49.1875 21.9983 49.1875 21.8438C49.1875 21.6366 49.2698 21.4378 49.4163 21.2913C49.5628 21.1448 49.7615 21.0625 49.9687 21.0625ZM44.5 11.6875C44.6545 11.6875 44.8056 11.7333 44.934 11.8192C45.0625 11.905 45.1626 12.027 45.2218 12.1698C45.2809 12.3125 45.2964 12.4696 45.2662 12.6212C45.2361 12.7727 45.1617 12.9119 45.0524 13.0212C44.9432 13.1304 44.804 13.2048 44.6524 13.235C44.5009 13.2651 44.3438 13.2497 44.201 13.1905C44.0583 13.1314 43.9362 13.0313 43.8504 12.9028C43.7646 12.7743 43.7187 12.6233 43.7187 12.4688C43.7187 12.2616 43.8011 12.0628 43.9476 11.9163C44.0941 11.7698 44.2928 11.6875 44.5 11.6875ZM32 12.4688C32.1545 12.4688 32.3056 12.5146 32.434 12.6004C32.5625 12.6863 32.6626 12.8083 32.7218 12.951C32.7809 13.0938 32.7964 13.2509 32.7662 13.4024C32.7361 13.554 32.6617 13.6932 32.5524 13.8024C32.4432 13.9117 32.304 13.9861 32.1524 14.0162C32.0009 14.0464 31.8438 14.0309 31.701 13.9718C31.5583 13.9127 31.4363 13.8125 31.3504 13.684C31.2646 13.5556 31.2187 13.4045 31.2187 13.25C31.2187 13.0428 31.3011 12.8441 31.4476 12.6976C31.5941 12.5511 31.7928 12.4688 32 12.4688ZM20.2812 10.9063C20.2812 10.7517 20.3271 10.6007 20.4129 10.4722C20.4988 10.3437 20.6208 10.2436 20.7635 10.1845C20.9063 10.1253 21.0634 10.1099 21.2149 10.14C21.3665 10.1702 21.5057 10.2446 21.6149 10.3538C21.7242 10.4631 21.7986 10.6023 21.8287 10.7538C21.8589 10.9054 21.8434 11.0625 21.7843 11.2052C21.7251 11.348 21.625 11.47 21.4965 11.5558C21.3681 11.6417 21.217 11.6875 21.0625 11.6875C20.8553 11.6875 20.6566 11.6052 20.5101 11.4587C20.3636 11.3122 20.2812 11.1135 20.2812 10.9063ZM13.25 21.8438C13.25 21.6892 13.2958 21.5382 13.3817 21.4097C13.4675 21.2812 13.5895 21.1811 13.7323 21.122C13.875 21.0628 14.0321 21.0474 14.1837 21.0775C14.3352 21.1077 14.4744 21.1821 14.5837 21.2913C14.6929 21.4006 14.7673 21.5398 14.7975 21.6913C14.8276 21.8429 14.8122 22 14.753 22.1427C14.6939 22.2855 14.5938 22.4075 14.4653 22.4933C14.3368 22.5792 14.1858 22.625 14.0312 22.625C13.824 22.625 13.6253 22.5427 13.4788 22.3962C13.3323 22.2497 13.25 22.051 13.25 21.8438ZM10.9063 34.3438C10.7517 34.3438 10.6007 34.2979 10.4722 34.2121C10.3437 34.1262 10.2436 34.0042 10.1845 33.8615C10.1253 33.7187 10.1099 33.5616 10.14 33.4101C10.1702 33.2585 10.2446 33.1193 10.3538 33.0101C10.4631 32.9008 10.6023 32.8264 10.7538 32.7963C10.9054 32.7661 11.0625 32.7816 11.2052 32.8407C11.348 32.8999 11.47 33 11.5558 33.1285C11.6417 33.2569 11.6875 33.408 11.6875 33.5625C11.6875 33.7697 11.6052 33.9684 11.4587 34.1149C11.3122 34.2614 11.1135 34.3438 10.9063 34.3438ZM13.25 45.2812C13.0955 45.2812 12.9444 45.2354 12.816 45.1496C12.6875 45.0637 12.5874 44.9417 12.5282 44.799C12.4691 44.6562 12.4536 44.4991 12.4838 44.3476C12.5139 44.196 12.5883 44.0568 12.6976 43.9476C12.8068 43.8383 12.946 43.7639 13.0976 43.7338C13.2491 43.7036 13.4062 43.7191 13.549 43.7782C13.6917 43.8374 13.8137 43.9375 13.8996 44.066C13.9854 44.1944 14.0312 44.3455 14.0312 44.5C14.0312 44.7072 13.9489 44.9059 13.8024 45.0524C13.6559 45.1989 13.4572 45.2812 13.25 45.2812ZM21.0625 53.875C20.908 53.875 20.7569 53.8292 20.6285 53.7433C20.5 53.6575 20.3998 53.5355 20.3407 53.3927C20.2816 53.25 20.2661 53.0929 20.2963 52.9413C20.3264 52.7898 20.4008 52.6506 20.5101 52.5413C20.6193 52.4321 20.7585 52.3577 20.9101 52.3275C21.0616 52.2974 21.2187 52.3128 21.3615 52.372C21.5042 52.4311 21.6262 52.5312 21.7121 52.6597C21.7979 52.7882 21.8437 52.9392 21.8437 53.0938C21.8437 53.3009 21.7614 53.4997 21.6149 53.6462C21.4684 53.7927 21.2697 53.875 21.0625 53.875ZM38.25 52.3125C38.4045 52.3125 38.5556 52.3583 38.684 52.4442C38.8125 52.53 38.9126 52.652 38.9718 52.7948C39.0309 52.9375 39.0464 53.0946 39.0162 53.2462C38.9861 53.3977 38.9117 53.5369 38.8024 53.6462C38.6932 53.7554 38.554 53.8298 38.4024 53.86C38.2509 53.8901 38.0938 53.8747 37.951 53.8155C37.8083 53.7564 37.6863 53.6563 37.6004 53.5278C37.5146 53.3993 37.4687 53.2483 37.4687 53.0938C37.4687 52.8866 37.5511 52.6878 37.6976 52.5413C37.8441 52.3948 38.0428 52.3125 38.25 52.3125ZM45.2812 47.625C45.4358 47.625 45.5868 47.6708 45.7153 47.7567C45.8438 47.8425 45.9439 47.9645 46.003 48.1073C46.0622 48.25 46.0776 48.4071 46.0475 48.5587C46.0173 48.7102 45.9429 48.8494 45.8337 48.9587C45.7244 49.0679 45.5852 49.1423 45.4337 49.1725C45.2821 49.2026 45.125 49.1872 44.9823 49.128C44.8395 49.0689 44.7175 48.9688 44.6317 48.8403C44.5458 48.7118 44.5 48.5608 44.5 48.4062C44.5 48.1991 44.5823 48.0003 44.7288 47.8538C44.8753 47.7073 45.074 47.625 45.2812 47.625ZM41.375 39.0312C41.375 39.6529 41.1281 40.249 40.6885 40.6885C40.249 41.1281 39.6528 41.375 39.0312 41.375H24.9687C24.3471 41.375 23.751 41.1281 23.3115 40.6885C22.8719 40.249 22.625 39.6529 22.625 39.0312V24.9688C22.625 24.3472 22.8719 23.751 23.3115 23.3115C23.751 22.8719 24.3471 22.625 24.9687 22.625H39.0312C39.6528 22.625 40.249 22.8719 40.6885 23.3115C41.1281 23.751 41.375 24.3472 41.375 24.9688V39.0312ZM53.0937 42.1562C52.9392 42.1562 52.7882 42.1104 52.6597 42.0246C52.5312 41.9387 52.4311 41.8167 52.372 41.674C52.3128 41.5312 52.2974 41.3741 52.3275 41.2226C52.3576 41.071 52.4321 40.9318 52.5413 40.8226C52.6506 40.7133 52.7898 40.6389 52.9413 40.6088C53.0929 40.5786 53.25 40.5941 53.3927 40.6532C53.5355 40.7124 53.6575 40.8125 53.7433 40.941C53.8292 41.0694 53.875 41.2205 53.875 41.375C53.875 41.5822 53.7927 41.7809 53.6462 41.9274C53.4997 42.0739 53.3009 42.1562 53.0937 42.1562Z" stroke="#0051FF" stroke-width="0.2" mask="url(#path-14-outside-1)"/>
</svg>
