<svg width="64" height="64" viewBox="0 0 64 64" fill="none" xmlns="http://www.w3.org/2000/svg">
<mask id="path-1-outside-1" maskUnits="userSpaceOnUse" x="7.55237" y="7.56299" width="49" height="49" fill="black">
<rect fill="white" x="7.55237" y="7.56299" width="49" height="49"/>
<path d="M52.3125 49.1875C51.6215 49.1898 50.9506 49.421 50.405 49.8451C49.8593 50.2692 49.4697 50.8621 49.2969 51.5313H46.8438C46.6366 51.5313 46.4378 51.4489 46.2913 51.3024C46.1448 51.1559 46.0625 50.9572 46.0625 50.75V45.2813H47.7344C47.9245 46.0177 48.3768 46.6595 49.0063 47.0864C49.6358 47.5133 50.3994 47.6959 51.1539 47.6001C51.9085 47.5043 52.6021 47.1365 53.1049 46.5658C53.6078 45.9951 53.8852 45.2606 53.8852 44.5C53.8852 43.7394 53.6078 43.0049 53.1049 42.4342C52.6021 41.8635 51.9085 41.4958 51.1539 41.3999C50.3994 41.3041 49.6358 41.4867 49.0063 41.9136C48.3768 42.3405 47.9245 42.9823 47.7344 43.7188H46.0625V32H48.4063C50.2711 32 52.0595 31.2592 53.3781 29.9406C54.6967 28.622 55.4375 26.8336 55.4375 24.9688C55.4375 23.104 54.6967 21.3155 53.3781 19.9969C52.0595 18.6783 50.2711 17.9375 48.4063 17.9375H46.7969C46.6633 16.718 46.2122 15.5548 45.4885 14.5641C44.7649 13.5734 43.794 12.7899 42.6728 12.2917C41.5516 11.7936 40.3194 11.5983 39.0991 11.7253C37.8789 11.8524 36.7133 12.2973 35.7188 13.0156C34.3341 11.2615 32.4763 9.94041 30.3647 9.20851C28.2532 8.47661 25.9763 8.36449 23.8031 8.88541C21.6299 9.40632 19.6512 10.5385 18.101 12.1481C16.5507 13.7577 15.4936 15.7775 15.0547 17.9688C13.2424 18.1069 11.5541 18.9419 10.3445 20.2985C9.13495 21.6552 8.49816 23.4277 8.56793 25.244C8.63771 27.0602 9.40862 28.7787 10.7187 30.0385C12.0288 31.2983 13.7762 32.0014 15.5938 32H17.9375V42.1563H16.2656C16.0755 41.4198 15.6233 40.778 14.9938 40.3511C14.3642 39.9242 13.6006 39.7416 12.8461 39.8374C12.0916 39.9333 11.3979 40.301 10.8951 40.8717C10.3923 41.4424 10.1149 42.1769 10.1149 42.9375C10.1149 43.6981 10.3923 44.4326 10.8951 45.0033C11.3979 45.574 12.0916 45.9418 12.8461 46.0376C13.6006 46.1334 14.3642 45.9508 14.9938 45.5239C15.6233 45.097 16.0755 44.4552 16.2656 43.7188H17.9375V50.75C17.9375 50.9572 17.8552 51.1559 17.7087 51.3024C17.5622 51.4489 17.3635 51.5313 17.1563 51.5313H14.7031C14.513 50.7948 14.0608 50.153 13.4313 49.7261C12.8017 49.2992 12.0381 49.1166 11.2836 49.2124C10.5291 49.3083 9.83538 49.676 9.33257 50.2467C8.82977 50.8174 8.55237 51.5519 8.55237 52.3125C8.55237 53.0731 8.82977 53.8076 9.33257 54.3783C9.83538 54.949 10.5291 55.3168 11.2836 55.4126C12.0381 55.5084 12.8017 55.3258 13.4313 54.8989C14.0608 54.472 14.513 53.8302 14.7031 53.0938H17.1563C17.7773 53.0919 18.3724 52.8444 18.8115 52.4052C19.2506 51.9661 19.4982 51.371 19.5 50.75V43.7188H25.75C26.371 43.7169 26.9661 43.4694 27.4052 43.0302C27.8444 42.5911 28.0919 41.996 28.0938 41.375V32H31.2188V49.2969C30.4823 49.487 29.8405 49.9393 29.4136 50.5688C28.9867 51.1983 28.8041 51.9619 28.8999 52.7164C28.9958 53.471 29.3635 54.1646 29.9342 54.6674C30.5049 55.1702 31.2394 55.4477 32 55.4477C32.7606 55.4477 33.4951 55.1702 34.0658 54.6674C34.6365 54.1646 35.0043 53.471 35.1001 52.7164C35.1959 51.9619 35.0133 51.1983 34.5864 50.5688C34.1595 49.9393 33.5177 49.487 32.7813 49.2969V32H35.9063V42.9375C35.9081 43.5585 36.1556 44.1536 36.5948 44.5927C37.0339 45.0319 37.629 45.2794 38.25 45.2813H44.5V50.75C44.5019 51.371 44.7494 51.9661 45.1885 52.4052C45.6277 52.8444 46.2227 53.0919 46.8438 53.0938H49.2969C49.4439 53.6585 49.7462 54.1706 50.1697 54.5721C50.5931 54.9736 51.1207 55.2483 51.6924 55.3651C52.2641 55.4818 52.8571 55.4359 53.404 55.2325C53.951 55.0291 54.4299 54.6765 54.7865 54.2146C55.1431 53.7527 55.363 53.2001 55.4213 52.6195C55.4796 52.0389 55.3739 51.4536 55.1162 50.93C54.8586 50.4065 54.4593 49.9656 53.9637 49.6576C53.4681 49.3496 52.896 49.1867 52.3125 49.1875ZM50.75 42.9375C51.059 42.9375 51.3611 43.0291 51.6181 43.2008C51.875 43.3725 52.0753 43.6166 52.1936 43.9021C52.3118 44.1876 52.3428 44.5017 52.2825 44.8048C52.2222 45.1079 52.0734 45.3863 51.8549 45.6049C51.6363 45.8234 51.3579 45.9722 51.0548 46.0325C50.7517 46.0928 50.4376 46.0618 50.1521 45.9436C49.8666 45.8253 49.6225 45.625 49.4508 45.3681C49.2792 45.1111 49.1875 44.809 49.1875 44.5C49.1888 44.086 49.3538 43.6893 49.6465 43.3965C49.9393 43.1038 50.336 42.9387 50.75 42.9375ZM13.25 44.5C12.941 44.5 12.6389 44.4084 12.3819 44.2367C12.125 44.065 11.9247 43.821 11.8064 43.5354C11.6882 43.2499 11.6572 42.9358 11.7175 42.6327C11.7778 42.3296 11.9266 42.0512 12.1452 41.8327C12.3637 41.6141 12.6421 41.4653 12.9452 41.405C13.2483 41.3447 13.5624 41.3757 13.848 41.4939C14.1335 41.6122 14.3775 41.8125 14.5492 42.0694C14.7209 42.3264 14.8125 42.6285 14.8125 42.9375C14.8113 43.3515 14.6463 43.7482 14.3535 44.041C14.0607 44.3338 13.664 44.4988 13.25 44.5ZM11.6875 53.875C11.3785 53.875 11.0764 53.7834 10.8194 53.6117C10.5625 53.44 10.3622 53.196 10.2439 52.9104C10.1257 52.6249 10.0947 52.3108 10.155 52.0077C10.2153 51.7046 10.3641 51.4262 10.5827 51.2077C10.8012 50.9891 11.0796 50.8403 11.3827 50.78C11.6858 50.7197 11.9999 50.7507 12.2855 50.8689C12.571 50.9872 12.815 51.1875 12.9867 51.4444C13.1584 51.7014 13.25 52.0035 13.25 52.3125C13.2488 52.7265 13.0838 53.1232 12.791 53.416C12.4982 53.7088 12.1015 53.8738 11.6875 53.875ZM26.5313 41.375C26.5313 41.5822 26.449 41.7809 26.3024 41.9274C26.1559 42.0739 25.9572 42.1563 25.75 42.1563H19.5V32H26.5313V41.375ZM33.5625 52.3125C33.5625 52.6215 33.4709 52.9236 33.2992 53.1806C33.1275 53.4375 32.8835 53.6378 32.598 53.7561C32.3124 53.8743 31.9983 53.9053 31.6952 53.845C31.3921 53.7847 31.1137 53.6359 30.8952 53.4174C30.6766 53.1988 30.5278 52.9204 30.4675 52.6173C30.4072 52.3142 30.4382 52.0001 30.5564 51.7146C30.6747 51.4291 30.875 51.185 31.1319 51.0133C31.3889 50.8416 31.691 50.75 32 50.75C32.414 50.7512 32.8107 50.9163 33.1035 51.209C33.3963 51.5018 33.5613 51.8985 33.5625 52.3125ZM44.5 43.7188H38.25C38.0428 43.7188 37.8441 43.6364 37.6976 43.4899C37.5511 43.3434 37.4688 43.1447 37.4688 42.9375V32H44.5V43.7188ZM15.5938 30.4375C14.1434 30.4375 12.7524 29.8613 11.7268 28.8358C10.7012 27.8102 10.125 26.4192 10.125 24.9688C10.125 23.5184 10.7012 22.1274 11.7268 21.1018C12.7524 20.0762 14.1434 19.5 15.5938 19.5H15.6875C16.6474 19.5186 17.5855 19.7888 18.4081 20.2838C19.2308 20.7787 19.909 21.481 20.375 22.3203L21.75 21.5625C21.2227 20.6213 20.4877 19.8127 19.601 19.1981C18.7144 18.5835 17.6992 18.1791 16.6328 18.0156C17.1752 15.6428 18.5518 13.5437 20.5118 12.1005C22.4718 10.6574 24.8849 9.96606 27.3117 10.1525C29.7386 10.339 32.0178 11.3908 33.7343 13.1165C35.4508 14.8421 36.4905 17.1269 36.6641 19.5547L38.2188 19.4453C38.089 17.6289 37.5351 15.8682 36.6016 14.3047C37.6077 13.5764 38.8318 13.2124 40.0724 13.2724C41.313 13.3324 42.4963 13.813 43.4274 14.635C44.3585 15.457 44.9821 16.5715 45.1955 17.7951C45.4089 19.0187 45.1995 20.2785 44.6016 21.3672L45.9609 22.125C46.4099 21.3137 46.694 20.4215 46.7969 19.5H48.4063C49.8567 19.5 51.2477 20.0762 52.2733 21.1018C53.2988 22.1274 53.875 23.5184 53.875 24.9688C53.875 26.4192 53.2988 27.8102 52.2733 28.8358C51.2477 29.8613 49.8567 30.4375 48.4063 30.4375H15.5938ZM52.3125 53.875C52.0035 53.875 51.7014 53.7834 51.4444 53.6117C51.1875 53.44 50.9872 53.196 50.8689 52.9104C50.7507 52.6249 50.7197 52.3108 50.78 52.0077C50.8403 51.7046 50.9891 51.4262 51.2077 51.2077C51.4262 50.9891 51.7046 50.8403 52.0077 50.78C52.3108 50.7197 52.6249 50.7507 52.9105 50.8689C53.196 50.9872 53.44 51.1875 53.6117 51.4444C53.7834 51.7014 53.875 52.0035 53.875 52.3125C53.8738 52.7265 53.7088 53.1232 53.416 53.416C53.1232 53.7088 52.7265 53.8738 52.3125 53.875Z"/>
</mask>
<path d="M52.3125 49.1875C51.6215 49.1898 50.9506 49.421 50.405 49.8451C49.8593 50.2692 49.4697 50.8621 49.2969 51.5313H46.8438C46.6366 51.5313 46.4378 51.4489 46.2913 51.3024C46.1448 51.1559 46.0625 50.9572 46.0625 50.75V45.2813H47.7344C47.9245 46.0177 48.3768 46.6595 49.0063 47.0864C49.6358 47.5133 50.3994 47.6959 51.1539 47.6001C51.9085 47.5043 52.6021 47.1365 53.1049 46.5658C53.6078 45.9951 53.8852 45.2606 53.8852 44.5C53.8852 43.7394 53.6078 43.0049 53.1049 42.4342C52.6021 41.8635 51.9085 41.4958 51.1539 41.3999C50.3994 41.3041 49.6358 41.4867 49.0063 41.9136C48.3768 42.3405 47.9245 42.9823 47.7344 43.7188H46.0625V32H48.4063C50.2711 32 52.0595 31.2592 53.3781 29.9406C54.6967 28.622 55.4375 26.8336 55.4375 24.9688C55.4375 23.104 54.6967 21.3155 53.3781 19.9969C52.0595 18.6783 50.2711 17.9375 48.4063 17.9375H46.7969C46.6633 16.718 46.2122 15.5548 45.4885 14.5641C44.7649 13.5734 43.794 12.7899 42.6728 12.2917C41.5516 11.7936 40.3194 11.5983 39.0991 11.7253C37.8789 11.8524 36.7133 12.2973 35.7188 13.0156C34.3341 11.2615 32.4763 9.94041 30.3647 9.20851C28.2532 8.47661 25.9763 8.36449 23.8031 8.88541C21.6299 9.40632 19.6512 10.5385 18.101 12.1481C16.5507 13.7577 15.4936 15.7775 15.0547 17.9688C13.2424 18.1069 11.5541 18.9419 10.3445 20.2985C9.13495 21.6552 8.49816 23.4277 8.56793 25.244C8.63771 27.0602 9.40862 28.7787 10.7187 30.0385C12.0288 31.2983 13.7762 32.0014 15.5938 32H17.9375V42.1563H16.2656C16.0755 41.4198 15.6233 40.778 14.9938 40.3511C14.3642 39.9242 13.6006 39.7416 12.8461 39.8374C12.0916 39.9333 11.3979 40.301 10.8951 40.8717C10.3923 41.4424 10.1149 42.1769 10.1149 42.9375C10.1149 43.6981 10.3923 44.4326 10.8951 45.0033C11.3979 45.574 12.0916 45.9418 12.8461 46.0376C13.6006 46.1334 14.3642 45.9508 14.9938 45.5239C15.6233 45.097 16.0755 44.4552 16.2656 43.7188H17.9375V50.75C17.9375 50.9572 17.8552 51.1559 17.7087 51.3024C17.5622 51.4489 17.3635 51.5313 17.1563 51.5313H14.7031C14.513 50.7948 14.0608 50.153 13.4313 49.7261C12.8017 49.2992 12.0381 49.1166 11.2836 49.2124C10.5291 49.3083 9.83538 49.676 9.33257 50.2467C8.82977 50.8174 8.55237 51.5519 8.55237 52.3125C8.55237 53.0731 8.82977 53.8076 9.33257 54.3783C9.83538 54.949 10.5291 55.3168 11.2836 55.4126C12.0381 55.5084 12.8017 55.3258 13.4313 54.8989C14.0608 54.472 14.513 53.8302 14.7031 53.0938H17.1563C17.7773 53.0919 18.3724 52.8444 18.8115 52.4052C19.2506 51.9661 19.4982 51.371 19.5 50.75V43.7188H25.75C26.371 43.7169 26.9661 43.4694 27.4052 43.0302C27.8444 42.5911 28.0919 41.996 28.0938 41.375V32H31.2188V49.2969C30.4823 49.487 29.8405 49.9393 29.4136 50.5688C28.9867 51.1983 28.8041 51.9619 28.8999 52.7164C28.9958 53.471 29.3635 54.1646 29.9342 54.6674C30.5049 55.1702 31.2394 55.4477 32 55.4477C32.7606 55.4477 33.4951 55.1702 34.0658 54.6674C34.6365 54.1646 35.0043 53.471 35.1001 52.7164C35.1959 51.9619 35.0133 51.1983 34.5864 50.5688C34.1595 49.9393 33.5177 49.487 32.7813 49.2969V32H35.9063V42.9375C35.9081 43.5585 36.1556 44.1536 36.5948 44.5927C37.0339 45.0319 37.629 45.2794 38.25 45.2813H44.5V50.75C44.5019 51.371 44.7494 51.9661 45.1885 52.4052C45.6277 52.8444 46.2227 53.0919 46.8438 53.0938H49.2969C49.4439 53.6585 49.7462 54.1706 50.1697 54.5721C50.5931 54.9736 51.1207 55.2483 51.6924 55.3651C52.2641 55.4818 52.8571 55.4359 53.404 55.2325C53.951 55.0291 54.4299 54.6765 54.7865 54.2146C55.1431 53.7527 55.363 53.2001 55.4213 52.6195C55.4796 52.0389 55.3739 51.4536 55.1162 50.93C54.8586 50.4065 54.4593 49.9656 53.9637 49.6576C53.4681 49.3496 52.896 49.1867 52.3125 49.1875ZM50.75 42.9375C51.059 42.9375 51.3611 43.0291 51.6181 43.2008C51.875 43.3725 52.0753 43.6166 52.1936 43.9021C52.3118 44.1876 52.3428 44.5017 52.2825 44.8048C52.2222 45.1079 52.0734 45.3863 51.8549 45.6049C51.6363 45.8234 51.3579 45.9722 51.0548 46.0325C50.7517 46.0928 50.4376 46.0618 50.1521 45.9436C49.8666 45.8253 49.6225 45.625 49.4508 45.3681C49.2792 45.1111 49.1875 44.809 49.1875 44.5C49.1888 44.086 49.3538 43.6893 49.6465 43.3965C49.9393 43.1038 50.336 42.9387 50.75 42.9375ZM13.25 44.5C12.941 44.5 12.6389 44.4084 12.3819 44.2367C12.125 44.065 11.9247 43.821 11.8064 43.5354C11.6882 43.2499 11.6572 42.9358 11.7175 42.6327C11.7778 42.3296 11.9266 42.0512 12.1452 41.8327C12.3637 41.6141 12.6421 41.4653 12.9452 41.405C13.2483 41.3447 13.5624 41.3757 13.848 41.4939C14.1335 41.6122 14.3775 41.8125 14.5492 42.0694C14.7209 42.3264 14.8125 42.6285 14.8125 42.9375C14.8113 43.3515 14.6463 43.7482 14.3535 44.041C14.0607 44.3338 13.664 44.4988 13.25 44.5ZM11.6875 53.875C11.3785 53.875 11.0764 53.7834 10.8194 53.6117C10.5625 53.44 10.3622 53.196 10.2439 52.9104C10.1257 52.6249 10.0947 52.3108 10.155 52.0077C10.2153 51.7046 10.3641 51.4262 10.5827 51.2077C10.8012 50.9891 11.0796 50.8403 11.3827 50.78C11.6858 50.7197 11.9999 50.7507 12.2855 50.8689C12.571 50.9872 12.815 51.1875 12.9867 51.4444C13.1584 51.7014 13.25 52.0035 13.25 52.3125C13.2488 52.7265 13.0838 53.1232 12.791 53.416C12.4982 53.7088 12.1015 53.8738 11.6875 53.875ZM26.5313 41.375C26.5313 41.5822 26.449 41.7809 26.3024 41.9274C26.1559 42.0739 25.9572 42.1563 25.75 42.1563H19.5V32H26.5313V41.375ZM33.5625 52.3125C33.5625 52.6215 33.4709 52.9236 33.2992 53.1806C33.1275 53.4375 32.8835 53.6378 32.598 53.7561C32.3124 53.8743 31.9983 53.9053 31.6952 53.845C31.3921 53.7847 31.1137 53.6359 30.8952 53.4174C30.6766 53.1988 30.5278 52.9204 30.4675 52.6173C30.4072 52.3142 30.4382 52.0001 30.5564 51.7146C30.6747 51.4291 30.875 51.185 31.1319 51.0133C31.3889 50.8416 31.691 50.75 32 50.75C32.414 50.7512 32.8107 50.9163 33.1035 51.209C33.3963 51.5018 33.5613 51.8985 33.5625 52.3125ZM44.5 43.7188H38.25C38.0428 43.7188 37.8441 43.6364 37.6976 43.4899C37.5511 43.3434 37.4688 43.1447 37.4688 42.9375V32H44.5V43.7188ZM15.5938 30.4375C14.1434 30.4375 12.7524 29.8613 11.7268 28.8358C10.7012 27.8102 10.125 26.4192 10.125 24.9688C10.125 23.5184 10.7012 22.1274 11.7268 21.1018C12.7524 20.0762 14.1434 19.5 15.5938 19.5H15.6875C16.6474 19.5186 17.5855 19.7888 18.4081 20.2838C19.2308 20.7787 19.909 21.481 20.375 22.3203L21.75 21.5625C21.2227 20.6213 20.4877 19.8127 19.601 19.1981C18.7144 18.5835 17.6992 18.1791 16.6328 18.0156C17.1752 15.6428 18.5518 13.5437 20.5118 12.1005C22.4718 10.6574 24.8849 9.96606 27.3117 10.1525C29.7386 10.339 32.0178 11.3908 33.7343 13.1165C35.4508 14.8421 36.4905 17.1269 36.6641 19.5547L38.2188 19.4453C38.089 17.6289 37.5351 15.8682 36.6016 14.3047C37.6077 13.5764 38.8318 13.2124 40.0724 13.2724C41.313 13.3324 42.4963 13.813 43.4274 14.635C44.3585 15.457 44.9821 16.5715 45.1955 17.7951C45.4089 19.0187 45.1995 20.2785 44.6016 21.3672L45.9609 22.125C46.4099 21.3137 46.694 20.4215 46.7969 19.5H48.4063C49.8567 19.5 51.2477 20.0762 52.2733 21.1018C53.2988 22.1274 53.875 23.5184 53.875 24.9688C53.875 26.4192 53.2988 27.8102 52.2733 28.8358C51.2477 29.8613 49.8567 30.4375 48.4063 30.4375H15.5938ZM52.3125 53.875C52.0035 53.875 51.7014 53.7834 51.4444 53.6117C51.1875 53.44 50.9872 53.196 50.8689 52.9104C50.7507 52.6249 50.7197 52.3108 50.78 52.0077C50.8403 51.7046 50.9891 51.4262 51.2077 51.2077C51.4262 50.9891 51.7046 50.8403 52.0077 50.78C52.3108 50.7197 52.6249 50.7507 52.9105 50.8689C53.196 50.9872 53.44 51.1875 53.6117 51.4444C53.7834 51.7014 53.875 52.0035 53.875 52.3125C53.8738 52.7265 53.7088 53.1232 53.416 53.416C53.1232 53.7088 52.7265 53.8738 52.3125 53.875Z" fill="#0051FF"/>
<path d="M52.3125 49.1875C51.6215 49.1898 50.9506 49.421 50.405 49.8451C49.8593 50.2692 49.4697 50.8621 49.2969 51.5313H46.8438C46.6366 51.5313 46.4378 51.4489 46.2913 51.3024C46.1448 51.1559 46.0625 50.9572 46.0625 50.75V45.2813H47.7344C47.9245 46.0177 48.3768 46.6595 49.0063 47.0864C49.6358 47.5133 50.3994 47.6959 51.1539 47.6001C51.9085 47.5043 52.6021 47.1365 53.1049 46.5658C53.6078 45.9951 53.8852 45.2606 53.8852 44.5C53.8852 43.7394 53.6078 43.0049 53.1049 42.4342C52.6021 41.8635 51.9085 41.4958 51.1539 41.3999C50.3994 41.3041 49.6358 41.4867 49.0063 41.9136C48.3768 42.3405 47.9245 42.9823 47.7344 43.7188H46.0625V32H48.4063C50.2711 32 52.0595 31.2592 53.3781 29.9406C54.6967 28.622 55.4375 26.8336 55.4375 24.9688C55.4375 23.104 54.6967 21.3155 53.3781 19.9969C52.0595 18.6783 50.2711 17.9375 48.4063 17.9375H46.7969C46.6633 16.718 46.2122 15.5548 45.4885 14.5641C44.7649 13.5734 43.794 12.7899 42.6728 12.2917C41.5516 11.7936 40.3194 11.5983 39.0991 11.7253C37.8789 11.8524 36.7133 12.2973 35.7188 13.0156C34.3341 11.2615 32.4763 9.94041 30.3647 9.20851C28.2532 8.47661 25.9763 8.36449 23.8031 8.88541C21.6299 9.40632 19.6512 10.5385 18.101 12.1481C16.5507 13.7577 15.4936 15.7775 15.0547 17.9688C13.2424 18.1069 11.5541 18.9419 10.3445 20.2985C9.13495 21.6552 8.49816 23.4277 8.56793 25.244C8.63771 27.0602 9.40862 28.7787 10.7187 30.0385C12.0288 31.2983 13.7762 32.0014 15.5938 32H17.9375V42.1563H16.2656C16.0755 41.4198 15.6233 40.778 14.9938 40.3511C14.3642 39.9242 13.6006 39.7416 12.8461 39.8374C12.0916 39.9333 11.3979 40.301 10.8951 40.8717C10.3923 41.4424 10.1149 42.1769 10.1149 42.9375C10.1149 43.6981 10.3923 44.4326 10.8951 45.0033C11.3979 45.574 12.0916 45.9418 12.8461 46.0376C13.6006 46.1334 14.3642 45.9508 14.9938 45.5239C15.6233 45.097 16.0755 44.4552 16.2656 43.7188H17.9375V50.75C17.9375 50.9572 17.8552 51.1559 17.7087 51.3024C17.5622 51.4489 17.3635 51.5313 17.1563 51.5313H14.7031C14.513 50.7948 14.0608 50.153 13.4313 49.7261C12.8017 49.2992 12.0381 49.1166 11.2836 49.2124C10.5291 49.3083 9.83538 49.676 9.33257 50.2467C8.82977 50.8174 8.55237 51.5519 8.55237 52.3125C8.55237 53.0731 8.82977 53.8076 9.33257 54.3783C9.83538 54.949 10.5291 55.3168 11.2836 55.4126C12.0381 55.5084 12.8017 55.3258 13.4313 54.8989C14.0608 54.472 14.513 53.8302 14.7031 53.0938H17.1563C17.7773 53.0919 18.3724 52.8444 18.8115 52.4052C19.2506 51.9661 19.4982 51.371 19.5 50.75V43.7188H25.75C26.371 43.7169 26.9661 43.4694 27.4052 43.0302C27.8444 42.5911 28.0919 41.996 28.0938 41.375V32H31.2188V49.2969C30.4823 49.487 29.8405 49.9393 29.4136 50.5688C28.9867 51.1983 28.8041 51.9619 28.8999 52.7164C28.9958 53.471 29.3635 54.1646 29.9342 54.6674C30.5049 55.1702 31.2394 55.4477 32 55.4477C32.7606 55.4477 33.4951 55.1702 34.0658 54.6674C34.6365 54.1646 35.0043 53.471 35.1001 52.7164C35.1959 51.9619 35.0133 51.1983 34.5864 50.5688C34.1595 49.9393 33.5177 49.487 32.7813 49.2969V32H35.9063V42.9375C35.9081 43.5585 36.1556 44.1536 36.5948 44.5927C37.0339 45.0319 37.629 45.2794 38.25 45.2813H44.5V50.75C44.5019 51.371 44.7494 51.9661 45.1885 52.4052C45.6277 52.8444 46.2227 53.0919 46.8438 53.0938H49.2969C49.4439 53.6585 49.7462 54.1706 50.1697 54.5721C50.5931 54.9736 51.1207 55.2483 51.6924 55.3651C52.2641 55.4818 52.8571 55.4359 53.404 55.2325C53.951 55.0291 54.4299 54.6765 54.7865 54.2146C55.1431 53.7527 55.363 53.2001 55.4213 52.6195C55.4796 52.0389 55.3739 51.4536 55.1162 50.93C54.8586 50.4065 54.4593 49.9656 53.9637 49.6576C53.4681 49.3496 52.896 49.1867 52.3125 49.1875ZM50.75 42.9375C51.059 42.9375 51.3611 43.0291 51.6181 43.2008C51.875 43.3725 52.0753 43.6166 52.1936 43.9021C52.3118 44.1876 52.3428 44.5017 52.2825 44.8048C52.2222 45.1079 52.0734 45.3863 51.8549 45.6049C51.6363 45.8234 51.3579 45.9722 51.0548 46.0325C50.7517 46.0928 50.4376 46.0618 50.1521 45.9436C49.8666 45.8253 49.6225 45.625 49.4508 45.3681C49.2792 45.1111 49.1875 44.809 49.1875 44.5C49.1888 44.086 49.3538 43.6893 49.6465 43.3965C49.9393 43.1038 50.336 42.9387 50.75 42.9375ZM13.25 44.5C12.941 44.5 12.6389 44.4084 12.3819 44.2367C12.125 44.065 11.9247 43.821 11.8064 43.5354C11.6882 43.2499 11.6572 42.9358 11.7175 42.6327C11.7778 42.3296 11.9266 42.0512 12.1452 41.8327C12.3637 41.6141 12.6421 41.4653 12.9452 41.405C13.2483 41.3447 13.5624 41.3757 13.848 41.4939C14.1335 41.6122 14.3775 41.8125 14.5492 42.0694C14.7209 42.3264 14.8125 42.6285 14.8125 42.9375C14.8113 43.3515 14.6463 43.7482 14.3535 44.041C14.0607 44.3338 13.664 44.4988 13.25 44.5ZM11.6875 53.875C11.3785 53.875 11.0764 53.7834 10.8194 53.6117C10.5625 53.44 10.3622 53.196 10.2439 52.9104C10.1257 52.6249 10.0947 52.3108 10.155 52.0077C10.2153 51.7046 10.3641 51.4262 10.5827 51.2077C10.8012 50.9891 11.0796 50.8403 11.3827 50.78C11.6858 50.7197 11.9999 50.7507 12.2855 50.8689C12.571 50.9872 12.815 51.1875 12.9867 51.4444C13.1584 51.7014 13.25 52.0035 13.25 52.3125C13.2488 52.7265 13.0838 53.1232 12.791 53.416C12.4982 53.7088 12.1015 53.8738 11.6875 53.875ZM26.5313 41.375C26.5313 41.5822 26.449 41.7809 26.3024 41.9274C26.1559 42.0739 25.9572 42.1563 25.75 42.1563H19.5V32H26.5313V41.375ZM33.5625 52.3125C33.5625 52.6215 33.4709 52.9236 33.2992 53.1806C33.1275 53.4375 32.8835 53.6378 32.598 53.7561C32.3124 53.8743 31.9983 53.9053 31.6952 53.845C31.3921 53.7847 31.1137 53.6359 30.8952 53.4174C30.6766 53.1988 30.5278 52.9204 30.4675 52.6173C30.4072 52.3142 30.4382 52.0001 30.5564 51.7146C30.6747 51.4291 30.875 51.185 31.1319 51.0133C31.3889 50.8416 31.691 50.75 32 50.75C32.414 50.7512 32.8107 50.9163 33.1035 51.209C33.3963 51.5018 33.5613 51.8985 33.5625 52.3125ZM44.5 43.7188H38.25C38.0428 43.7188 37.8441 43.6364 37.6976 43.4899C37.5511 43.3434 37.4688 43.1447 37.4688 42.9375V32H44.5V43.7188ZM15.5938 30.4375C14.1434 30.4375 12.7524 29.8613 11.7268 28.8358C10.7012 27.8102 10.125 26.4192 10.125 24.9688C10.125 23.5184 10.7012 22.1274 11.7268 21.1018C12.7524 20.0762 14.1434 19.5 15.5938 19.5H15.6875C16.6474 19.5186 17.5855 19.7888 18.4081 20.2838C19.2308 20.7787 19.909 21.481 20.375 22.3203L21.75 21.5625C21.2227 20.6213 20.4877 19.8127 19.601 19.1981C18.7144 18.5835 17.6992 18.1791 16.6328 18.0156C17.1752 15.6428 18.5518 13.5437 20.5118 12.1005C22.4718 10.6574 24.8849 9.96606 27.3117 10.1525C29.7386 10.339 32.0178 11.3908 33.7343 13.1165C35.4508 14.8421 36.4905 17.1269 36.6641 19.5547L38.2188 19.4453C38.089 17.6289 37.5351 15.8682 36.6016 14.3047C37.6077 13.5764 38.8318 13.2124 40.0724 13.2724C41.313 13.3324 42.4963 13.813 43.4274 14.635C44.3585 15.457 44.9821 16.5715 45.1955 17.7951C45.4089 19.0187 45.1995 20.2785 44.6016 21.3672L45.9609 22.125C46.4099 21.3137 46.694 20.4215 46.7969 19.5H48.4063C49.8567 19.5 51.2477 20.0762 52.2733 21.1018C53.2988 22.1274 53.875 23.5184 53.875 24.9688C53.875 26.4192 53.2988 27.8102 52.2733 28.8358C51.2477 29.8613 49.8567 30.4375 48.4063 30.4375H15.5938ZM52.3125 53.875C52.0035 53.875 51.7014 53.7834 51.4444 53.6117C51.1875 53.44 50.9872 53.196 50.8689 52.9104C50.7507 52.6249 50.7197 52.3108 50.78 52.0077C50.8403 51.7046 50.9891 51.4262 51.2077 51.2077C51.4262 50.9891 51.7046 50.8403 52.0077 50.78C52.3108 50.7197 52.6249 50.7507 52.9105 50.8689C53.196 50.9872 53.44 51.1875 53.6117 51.4444C53.7834 51.7014 53.875 52.0035 53.875 52.3125C53.8738 52.7265 53.7088 53.1232 53.416 53.416C53.1232 53.7088 52.7265 53.8738 52.3125 53.875Z" stroke="#0051FF" stroke-width="0.4" mask="url(#path-1-outside-1)"/>
<path d="M13.25 24.9688C13.25 24.3471 13.4969 23.751 13.9365 23.3115C14.376 22.8719 14.9721 22.625 15.5938 22.625V21.0625C14.5577 21.0625 13.5642 21.4741 12.8316 22.2066C12.0991 22.9392 11.6875 23.9327 11.6875 24.9688C11.6875 26.0048 12.0991 26.9983 12.8316 27.7309C13.5642 28.4634 14.5577 28.875 15.5938 28.875H20.2812V27.3125H15.5938C14.9721 27.3125 14.376 27.0656 13.9365 26.626C13.4969 26.1865 13.25 25.5904 13.25 24.9688Z" fill="#0051FF"/>
<path d="M27.3047 21.7578C27.2855 21.5665 27.1955 21.3891 27.0525 21.2606C26.9095 21.132 26.7236 21.0614 26.5313 21.0625H23.4063C23.2139 21.0614 23.0281 21.132 22.8851 21.2606C22.742 21.3891 22.6521 21.5665 22.6328 21.7578L21.8516 28.7891L23.3985 28.9609L23.6719 26.5313H26.2657L26.5391 28.9609L28.086 28.7891L27.3047 21.7578ZM23.8438 24.9688L24.1094 22.625H25.8282L26.0938 24.9688H23.8438Z" fill="#A437BF"/>
<path d="M35.125 21.0625H30.4375C30.2303 21.0625 30.0316 21.1448 29.8851 21.2913C29.7386 21.4378 29.6562 21.6365 29.6562 21.8438V28.875H31.2188V25.75H35.125C35.3322 25.75 35.5309 25.6677 35.6774 25.5212C35.8239 25.3747 35.9062 25.176 35.9062 24.9688V21.8438C35.9062 21.6365 35.8239 21.4378 35.6774 21.2913C35.5309 21.1448 35.3322 21.0625 35.125 21.0625ZM34.3438 24.1875H31.2188V22.625H34.3438V24.1875Z" fill="#A437BF"/>
<path d="M40.5937 22.625V27.3125H42.1562V28.875H37.4688V27.3125H39.0312V22.625H37.4688V21.0625H42.1562V22.625H40.5937Z" fill="#A437BF"/>
</svg>
