<svg width="64" height="64" viewBox="0 0 64 64" fill="none" xmlns="http://www.w3.org/2000/svg">
<g clip-path="url(#clip0)">
<path d="M51.0764 19.5093C50.4684 19.5088 49.864 19.6018 49.2844 19.7851C49.3394 19.3482 49.3672 18.9082 49.3677 18.4679C49.2595 12.0271 43.9505 6.89348 37.5096 7.00168C32.8096 7.08062 28.6163 9.97323 26.8733 14.3389C23.5024 12.2487 19.0754 13.287 16.9853 16.6578C16.3048 17.7552 15.9328 19.0157 15.9085 20.3066C15.001 19.7827 13.9712 19.5075 12.9234 19.5093C9.70251 19.5093 7.09149 22.1203 7.09149 25.3412C7.09149 28.5621 9.70251 31.1731 12.9234 31.1731C13.3835 31.1731 13.7565 30.8001 13.7565 30.34C13.7565 29.8799 13.3835 29.5068 12.9234 29.5068C10.623 29.4694 8.78857 27.5744 8.82596 25.274C8.86334 22.9737 10.7584 21.1392 13.0588 21.1766C14.459 21.1994 15.7541 21.9242 16.5058 23.1058C16.7578 23.4908 17.2742 23.5986 17.6592 23.3467C17.9919 23.1289 18.1244 22.7064 17.9755 22.3377C17.7131 21.7049 17.5762 21.0273 17.5722 20.3423C17.6057 17.3231 20.0766 14.9007 23.0959 14.927C24.4411 14.9323 25.739 15.4248 26.7491 16.3133C27.0959 16.6158 27.6222 16.5797 27.9246 16.2329C28.0065 16.139 28.0663 16.0278 28.0996 15.9076C29.624 10.6031 35.16 7.53873 40.4644 9.06315C44.676 10.2735 47.6079 14.0865 47.6956 18.4678C47.6921 19.3411 47.5701 20.21 47.3332 21.0505C47.21 21.4938 47.4694 21.9531 47.9127 22.0763C48.1526 22.1429 48.4097 22.0989 48.6137 21.9561C49.3344 21.4479 50.1947 21.1752 51.0764 21.1755C53.377 21.1755 55.2421 23.0405 55.2421 25.3411C55.2421 27.6417 53.377 29.5067 51.0764 29.5067C50.6163 29.5067 50.2433 29.8798 50.2433 30.3399C50.2433 30.7999 50.6163 31.173 51.0764 31.173C54.2973 31.173 56.9083 28.562 56.9083 25.3411C56.9083 22.1203 54.2973 19.5093 51.0764 19.5093Z" fill="#0051FF"/>
<path d="M46.161 38.6711H17.8347C16.4543 38.6711 15.3353 39.7901 15.3353 41.1705V44.503C15.3353 45.8834 16.4543 47.0024 17.8347 47.0024H46.161C47.5414 47.0024 48.6604 45.8834 48.6604 44.503V41.1705C48.6604 39.7901 47.5414 38.6711 46.161 38.6711ZM46.9941 44.503C46.9941 44.9631 46.6211 45.3362 46.161 45.3362H17.8347C17.3746 45.3362 17.0016 44.9631 17.0016 44.503V41.1705C17.0016 40.7104 17.3746 40.3374 17.8347 40.3374H46.161C46.6211 40.3374 46.9941 40.7104 46.9941 41.1705V44.503Z" fill="#0051FF"/>
<path d="M43.85 41.2222C42.9622 41.2277 42.2454 41.9489 42.2454 42.8367C42.2495 43.7306 42.976 44.4526 43.87 44.4513C44.7617 44.4458 45.4801 43.7184 45.4746 42.8267C45.469 41.935 44.7417 41.2167 43.85 41.2222ZM43.87 42.8893C43.845 42.8893 43.8283 42.8618 43.8283 42.8368L43.87 42.7851V42.8893Z" fill="#0051FF"/>
<path d="M35.1637 42.0039H19.3343C18.8742 42.0039 18.5012 42.3769 18.5012 42.837C18.5012 43.2971 18.8742 43.6702 19.3343 43.6702H35.1637C35.6238 43.6702 35.9968 43.2971 35.9968 42.837C35.9968 42.3769 35.6239 42.0039 35.1637 42.0039Z" fill="#0051FF"/>
<path d="M40.3083 42.0039H38.0922C37.6321 42.0039 37.2591 42.3769 37.2591 42.837C37.2591 43.2971 37.6321 43.6702 38.0922 43.6702H40.3083C40.7684 43.6702 41.1415 43.2971 41.1415 42.837C41.1415 42.3769 40.7685 42.0039 40.3083 42.0039Z" fill="#0051FF"/>
<path d="M46.161 48.6687H17.8347C16.4543 48.6687 15.3353 49.7877 15.3353 51.1681V54.5006C15.3353 55.881 16.4543 57 17.8347 57H46.161C47.5414 57 48.6604 55.881 48.6604 54.5006V51.1681C48.6604 49.7877 47.5414 48.6687 46.161 48.6687ZM46.9941 54.5006C46.9941 54.9607 46.6211 55.3337 46.161 55.3337H17.8347C17.3746 55.3337 17.0016 54.9607 17.0016 54.5006V51.1681C17.0016 50.708 17.3746 50.335 17.8347 50.335H46.161C46.6211 50.335 46.9941 50.708 46.9941 51.1681V54.5006Z" fill="#0051FF"/>
<path d="M43.85 51.2198C42.9622 51.2253 42.2454 51.9465 42.2454 52.8343C42.2495 53.7282 42.976 54.4502 43.87 54.4489C44.7617 54.4434 45.4801 53.716 45.4746 52.8243C45.469 51.9326 44.7417 51.2142 43.85 51.2198ZM43.87 52.8869C43.845 52.8869 43.8283 52.8594 43.8283 52.8344L43.87 52.7827V52.8869Z" fill="#0051FF"/>
<path d="M35.1637 52.0012H19.3343C18.8742 52.0012 18.5012 52.3743 18.5012 52.8343C18.5012 53.2944 18.8742 53.6675 19.3343 53.6675H35.1637C35.6238 53.6675 35.9968 53.2944 35.9968 52.8343C35.9968 52.3743 35.6239 52.0012 35.1637 52.0012Z" fill="#0051FF"/>
<path d="M40.3083 52.0012H38.0922C37.6321 52.0012 37.2591 52.3743 37.2591 52.8343C37.2591 53.2944 37.6321 53.6675 38.0922 53.6675H40.3083C40.7684 53.6675 41.1415 53.2944 41.1415 52.8343C41.1415 52.3743 40.7685 52.0012 40.3083 52.0012Z" fill="#0051FF"/>
<path d="M46.161 28.6736H17.8347C16.4543 28.6736 15.3353 29.7926 15.3353 31.173V34.5055C15.3353 35.8859 16.4543 37.0049 17.8347 37.0049H46.161C47.5414 37.0049 48.6604 35.8859 48.6604 34.5055V31.173C48.6604 29.7926 47.5414 28.6736 46.161 28.6736ZM46.9941 34.5055C46.9941 34.9656 46.6211 35.3386 46.161 35.3386H17.8347C17.3746 35.3386 17.0016 34.9656 17.0016 34.5055V31.173C17.0016 30.7129 17.3746 30.3398 17.8347 30.3398H46.161C46.6211 30.3398 46.9941 30.7129 46.9941 31.173V34.5055Z" fill="#0051FF"/>
<path d="M45.2129 32.6117C45.0524 31.7267 44.2048 31.1393 43.3197 31.2999C42.9003 31.3759 42.5275 31.6133 42.2812 31.9611C42.0338 32.3102 41.9372 32.7439 42.0129 33.1649C42.1531 33.9405 42.8278 34.5047 43.6158 34.5054C43.7069 34.5053 43.7977 34.4978 43.8874 34.483C44.3153 34.4123 44.6965 34.172 44.9447 33.8165C45.1929 33.4674 45.2896 33.033 45.2129 32.6117ZM43.5734 32.905L43.6108 32.8392L43.615 32.9433C43.5775 32.9433 43.575 32.9225 43.5734 32.905Z" fill="#0051FF"/>
<path d="M34.9971 32.0061H19.1677C18.7076 32.0061 18.3346 32.3791 18.3346 32.8392C18.3346 33.2993 18.7076 33.6724 19.1677 33.6724H34.9971C35.4572 33.6724 35.8303 33.2993 35.8303 32.8392C35.8303 32.3791 35.4573 32.0061 34.9971 32.0061Z" fill="#0051FF"/>
<path d="M39.7759 32.0061H37.5598C37.0997 32.0061 36.7267 32.3791 36.7267 32.8392C36.7267 33.2993 37.0997 33.6724 37.5598 33.6724H39.7759C40.236 33.6724 40.6091 33.2993 40.6091 32.8392C40.6091 32.3791 40.2361 32.0061 39.7759 32.0061Z" fill="#0051FF"/>
<path d="M28.4212 20.5866L25.9219 18.0872C25.5965 17.762 25.0692 17.762 24.7438 18.0872L22.2445 20.5866C21.9248 20.9175 21.934 21.445 22.265 21.7646C22.5878 22.0764 23.0997 22.0764 23.4225 21.7646L24.4997 20.6874V26.1743C24.4997 26.6344 24.8728 27.0075 25.3329 27.0075C25.7929 27.0075 26.166 26.6344 26.166 26.1743V20.6874L27.2432 21.7646C27.5742 22.0842 28.1016 22.075 28.4212 21.7441C28.733 21.4213 28.733 20.9094 28.4212 20.5866Z" fill="#A437BF"/>
<path d="M41.7309 23.0859C41.408 22.7741 40.8962 22.7741 40.5733 23.0859L39.496 24.1631V18.6761C39.496 18.2161 39.123 17.843 38.6629 17.843C38.2028 17.843 37.8298 18.2161 37.8298 18.6761V24.1631L36.7525 23.0859C36.4216 22.7662 35.8942 22.7753 35.5745 23.1063C35.2627 23.4291 35.2627 23.941 35.5745 24.2639L38.0739 26.7633C38.3992 27.0885 38.9266 27.0885 39.2519 26.7633L41.7513 24.2639C42.071 23.933 42.0618 23.4055 41.7309 23.0859Z" fill="#A437BF"/>
</g>
<defs>
<clipPath id="clip0">
<rect width="50" height="50" fill="white" transform="translate(7 7)"/>
</clipPath>
</defs>
</svg>
