<svg width="64" height="64" viewBox="0 0 64 64" fill="none" xmlns="http://www.w3.org/2000/svg">
<g clip-path="url(#clip0)">
<path d="M52.6543 28.3662C53.1937 28.3662 53.6309 27.929 53.6309 27.3896C53.6309 26.8503 53.1937 26.4131 52.6543 26.4131H48.9549V23.7544H52.6543C53.1937 23.7544 53.6309 23.3172 53.6309 22.7778C53.6309 22.2385 53.1937 21.8013 52.6543 21.8013H48.9549V20.2035C48.9549 19.9446 48.8521 19.6964 48.6691 19.5133L45.8452 16.687C45.6621 16.5037 45.4136 16.4007 45.1544 16.4007H43.5563V12.7046C43.5563 12.1652 43.119 11.728 42.5797 11.728C42.0403 11.728 41.6031 12.1652 41.6031 12.7046V16.4007H38.9439V12.7046C38.9439 12.1652 38.5067 11.728 37.9674 11.728C37.428 11.728 36.9908 12.1652 36.9908 12.7046V16.4007H34.3344V12.9011C34.3344 9.64717 31.6869 7 28.4326 7C25.7701 7 23.4562 8.79961 22.7504 11.2997C20.7209 11.506 18.8405 12.4032 17.3895 13.8723C15.7508 15.5314 14.8483 17.7298 14.8483 20.0623C14.8483 21.2198 15.0769 22.3663 15.515 23.4291C14.1442 24.1575 12.9681 25.2051 12.0765 26.4997C10.9596 28.1216 10.3691 30.023 10.3691 31.9986C10.3691 35.6354 12.3576 38.8975 15.5146 40.5709C15.0769 41.6317 14.8485 42.7772 14.8485 43.935C14.8485 46.2675 15.751 48.4658 17.3896 50.125C18.8406 51.594 20.721 52.4913 22.7505 52.6976C23.4562 55.1993 25.7703 57 28.4328 57C31.687 57 34.3346 54.3528 34.3346 51.0989V47.5966H36.991V51.2954C36.991 51.8348 37.4282 52.272 37.9676 52.272C38.5069 52.272 38.9441 51.8348 38.9441 51.2954V47.5966H41.6033V51.2954C41.6033 51.8348 42.0405 52.272 42.5799 52.272C43.1192 52.272 43.5564 51.8348 43.5564 51.2954V47.5966H45.1546C45.4136 47.5966 45.6619 47.4938 45.8451 47.3105L48.669 44.487C48.8521 44.3039 48.9551 44.0555 48.9551 43.7965V42.1959H52.6543C53.1937 42.1959 53.6309 41.7587 53.6309 41.2193C53.6309 40.68 53.1937 40.2428 52.6543 40.2428H48.9549V37.5869H52.6543C53.1937 37.5869 53.6309 37.1497 53.6309 36.6104C53.6309 36.071 53.1937 35.6338 52.6543 35.6338H48.9549V32.9752H52.6543C53.1937 32.9752 53.6309 32.538 53.6309 31.9986C53.6309 31.4593 53.1937 31.0221 52.6543 31.0221H48.9549V28.3662H52.6543ZM28.4328 55.0469C26.8128 55.0469 25.3865 54.0507 24.786 52.6121C25.4983 52.4846 26.1929 52.2679 26.8607 51.9614C27.8313 51.5158 28.6994 50.906 29.4407 50.1487C29.818 49.7633 29.8114 49.145 29.4261 48.7677C29.0406 48.3904 28.4225 48.397 28.045 48.7823C27.4713 49.3683 26.7987 49.8406 26.0461 50.1861C25.2508 50.551 24.4078 50.7532 23.5403 50.7884C19.8224 50.7271 16.8017 47.6579 16.8017 43.9347C16.8017 42.7582 17.1039 41.599 17.6757 40.5822C17.8136 40.3372 17.8391 40.0446 17.7457 39.7795C17.6524 39.5143 17.4493 39.3021 17.1885 39.1974C14.2324 38.0102 12.3223 35.1844 12.3223 31.9986C12.3223 28.812 14.2321 25.9874 17.1879 24.8027C17.7686 24.4888 17.9313 24.0272 17.6763 23.4185C17.1041 22.3987 16.8017 21.2382 16.8017 20.0624C16.8017 16.3392 19.8224 13.27 23.5403 13.2087C24.4023 13.2438 25.246 13.4462 26.0459 13.8108C26.7999 14.1569 27.472 14.6297 28.0436 15.216C28.235 15.4123 28.4889 15.5109 28.743 15.5109C28.9887 15.5109 29.2347 15.4188 29.4245 15.2337C29.8107 14.8572 29.8186 14.2389 29.4421 13.8527C28.7022 13.0938 27.8337 12.4825 26.8583 12.0348C26.1884 11.7294 25.4948 11.5132 24.7859 11.3857C25.3864 9.94834 26.8127 8.95312 28.4328 8.95312C30.6101 8.95312 32.3814 10.7242 32.3814 12.9011V24.874H29.3412L26.7503 22.2834C27.0261 21.78 27.1731 21.2128 27.1731 20.6229C27.1731 19.6975 26.8128 18.8274 26.1582 18.173C24.8074 16.8225 22.6094 16.8224 21.2585 18.173C20.6041 18.8274 20.2437 19.6975 20.2437 20.6228C20.2437 21.548 20.604 22.4181 21.2585 23.0725C21.9339 23.7478 22.8211 24.0854 23.7083 24.0854C24.2806 24.0854 24.8524 23.944 25.368 23.6631L28.2461 26.5409C28.4544 26.7273 28.6846 26.8228 28.9366 26.827H32.3813V31.0219H26.2615C25.8385 29.5869 24.5088 28.536 22.9374 28.536C21.028 28.536 19.4747 30.0893 19.4747 31.9984C19.4747 33.9091 21.028 35.4636 22.9374 35.4636C24.5091 35.4636 25.839 34.4115 26.2617 32.975H32.3813V37.1699H28.9366C28.9104 37.1699 28.888 37.1713 28.8673 37.1732C28.6409 37.1893 28.4189 37.283 28.2458 37.4562L25.3676 40.3363C24.0531 39.62 22.3693 39.8164 21.2584 40.9271C20.6033 41.5822 20.243 42.4529 20.2436 43.379C20.2441 44.3037 20.605 45.1724 21.2584 45.8239C21.934 46.4994 22.8213 46.837 23.7086 46.837C24.5955 46.837 25.4824 46.4995 26.1571 45.8249C26.8115 45.1724 27.1724 44.3038 27.1729 43.3791C27.1733 42.7883 27.0262 42.2203 26.7499 41.7162L29.3412 39.1231H32.3812V51.0988C32.3813 53.2758 30.6101 55.0469 28.4328 55.0469ZM25.22 20.6229C25.22 21.0266 25.0628 21.4061 24.7773 21.6915C24.1879 22.2809 23.229 22.2809 22.6396 21.6915C22.3541 21.4061 22.1969 21.0266 22.1969 20.6229C22.1969 20.2193 22.3541 19.8397 22.6396 19.5544C23.229 18.9651 24.188 18.9651 24.7773 19.5544C25.0628 19.8397 25.22 20.2192 25.22 20.6229ZM24.4497 31.9986C24.4497 32.8323 23.7713 33.5106 22.9374 33.5106C22.1051 33.5106 21.4278 32.8323 21.4278 31.9986C21.4278 31.1665 22.1051 30.4894 22.9374 30.4894C23.7713 30.4894 24.4497 31.1664 24.4497 31.9986ZM25.22 43.3778C25.2197 43.7803 25.0629 44.1582 24.7773 44.4429C24.1879 45.0321 23.2289 45.0322 22.6386 44.4419C22.354 44.1582 22.1971 43.7803 22.1969 43.3778C22.1966 42.974 22.3538 42.5942 22.6396 42.3085C23.2289 41.7193 24.1879 41.7192 24.7771 42.3084C25.0628 42.5941 25.2203 42.9742 25.22 43.3778ZM47.0018 43.3919L44.75 45.6435H34.3345V42.7495H43.1307C43.67 42.7495 44.1072 42.3123 44.1072 41.7729V36.3806C44.1072 35.8412 43.67 35.404 43.1307 35.404C42.5913 35.404 42.1541 35.8412 42.1541 36.3806V40.7964H34.3345V23.2036H42.1541V27.6083C42.1541 28.1477 42.5913 28.5849 43.1307 28.5849C43.67 28.5849 44.1072 28.1477 44.1072 27.6083V22.2271C44.1072 21.6877 43.67 21.2505 43.1307 21.2505H34.3345V18.3538H44.7497L47.0018 20.6078V43.3919Z" fill="#0051FF"/>
<path d="M43.1307 31.0193C42.5914 31.0193 42.1542 31.4565 42.1542 31.9959V31.9986C42.1542 32.5379 42.5914 32.9738 43.1307 32.9738C43.6701 32.9738 44.1073 32.5352 44.1073 31.9959C44.1073 31.4565 43.67 31.0193 43.1307 31.0193Z" fill="#A437BF"/>
</g>
<defs>
<clipPath id="clip0">
<rect width="50" height="50" fill="white" transform="translate(7 7)"/>
</clipPath>
</defs>
</svg>
