<svg width="64" height="64" viewBox="0 0 64 64" fill="none" xmlns="http://www.w3.org/2000/svg">
<path d="M29.9242 11.631H52.4061C52.8101 11.631 53.1375 11.3035 53.1375 10.8995C53.1375 10.4955 52.8101 10.168 52.4061 10.168H29.9242C29.5202 10.168 29.1926 10.4954 29.1926 10.8995C29.1926 11.3035 29.5202 11.631 29.9242 11.631Z" fill="#0051FF"/>
<path d="M52.4061 13.7954H29.9242C29.5202 13.7954 29.1926 14.1229 29.1926 14.527C29.1926 14.931 29.5202 15.2584 29.9242 15.2584H52.4061C52.8101 15.2584 53.1375 14.931 53.1375 14.527C53.1375 14.1229 52.8101 13.7954 52.4061 13.7954Z" fill="#0051FF"/>
<path d="M29.9242 18.886H45.1797C45.5837 18.886 45.9113 18.5585 45.9113 18.1545C45.9113 17.7505 45.5838 17.423 45.1797 17.423H29.9242C29.5202 17.423 29.1926 17.7504 29.1926 18.1545C29.1926 18.5585 29.5202 18.886 29.9242 18.886Z" fill="#0051FF"/>
<path d="M52.4061 27.641H29.9242C29.5202 27.641 29.1926 27.9684 29.1926 28.3724C29.1926 28.7764 29.5202 29.1039 29.9242 29.1039H52.4061C52.8101 29.1039 53.1375 28.7764 53.1375 28.3724C53.1375 27.9684 52.8101 27.641 52.4061 27.641Z" fill="#0051FF"/>
<path d="M52.4061 31.2684H29.9242C29.5202 31.2684 29.1926 31.5959 29.1926 32C29.1926 32.4041 29.5202 32.7315 29.9242 32.7315H52.4061C52.8101 32.7315 53.1375 32.4041 53.1375 32C53.1375 31.5959 52.8101 31.2684 52.4061 31.2684Z" fill="#0051FF"/>
<path d="M29.9242 36.359H45.1797C45.5837 36.359 45.9113 36.0316 45.9113 35.6276C45.9113 35.2236 45.5838 34.8961 45.1797 34.8961H29.9242C29.5202 34.8961 29.1926 35.2236 29.1926 35.6276C29.1926 36.0316 29.5202 36.359 29.9242 36.359Z" fill="#0051FF"/>
<path d="M26.41 43.0317C25.9977 42.6691 25.4689 42.4892 24.9208 42.5238C24.3728 42.5589 23.8713 42.8053 23.5086 43.2176L23.1372 43.6399C21.841 42.5825 20.1889 41.946 18.3895 41.946C14.2392 41.946 10.8625 45.3226 10.8625 49.473C10.8625 53.6234 14.2391 57 18.3895 57C22.54 57 25.9166 53.6234 25.9166 49.473C25.9166 48.6558 25.7828 47.8701 25.5404 47.1331L26.5959 45.9332C26.9586 45.5209 27.139 44.992 27.1039 44.444C27.0687 43.896 26.8223 43.3944 26.41 43.0317ZM18.3895 55.537C15.0458 55.537 12.3256 52.8167 12.3256 49.473C12.3256 46.1294 15.0459 43.409 18.3895 43.409C19.819 43.409 21.1334 43.9076 22.1711 44.7382L19.0728 48.2606L17.961 46.9636C17.6037 46.5467 17.1054 46.294 16.5579 46.2517C16.0111 46.2092 15.4793 46.3831 15.0623 46.7405C14.2017 47.4783 14.1017 48.7786 14.8394 49.6393L17.4918 52.7338C17.8793 53.186 18.443 53.4476 19.0385 53.4517C19.0439 53.4518 19.0492 53.4518 19.0527 53.4518C19.6436 53.4518 20.2061 53.1974 20.5963 52.7538L24.3687 48.4651C24.4242 48.793 24.4537 49.1296 24.4537 49.473C24.4535 52.8167 21.7332 55.537 18.3895 55.537ZM25.4973 44.9669L19.4977 51.7876C19.3857 51.9147 19.2247 51.988 19.0555 51.9888C19.0532 51.9888 19.0509 51.9887 19.0486 51.9887C18.877 51.9877 18.7144 51.9123 18.6025 51.7818L15.95 48.6873C15.7373 48.4391 15.7662 48.0641 16.0144 47.8513C16.1228 47.7585 16.2578 47.7087 16.399 47.7087C16.4145 47.7087 16.4299 47.7092 16.4454 47.7105C16.6033 47.7226 16.747 47.7956 16.8501 47.9158L18.5101 49.8524C18.6479 50.0132 18.8488 50.1065 19.0607 50.1079C19.2752 50.1109 19.4747 50.0187 19.6146 49.8594L24.6069 44.1838C24.7115 44.065 24.8561 43.9939 25.0142 43.9838C25.1719 43.9733 25.3247 44.0257 25.4436 44.1302C25.5625 44.2349 25.6335 44.3794 25.6436 44.5375C25.6539 44.6955 25.6019 44.8479 25.4973 44.9669Z" fill="#0051FF"/>
<path d="M52.4061 45.1141H29.9242C29.5202 45.1141 29.1926 45.4416 29.1926 45.8456C29.1926 46.2496 29.5202 46.577 29.9242 46.577H52.4061C52.8101 46.577 53.1375 46.2496 53.1375 45.8456C53.1375 45.4416 52.8101 45.1141 52.4061 45.1141Z" fill="#0051FF"/>
<path d="M52.4061 48.7416H29.9242C29.5202 48.7416 29.1926 49.069 29.1926 49.473C29.1926 49.877 29.5202 50.2046 29.9242 50.2046H52.4061C52.8101 50.2046 53.1375 49.8771 53.1375 49.473C53.1375 49.0691 52.8101 48.7416 52.4061 48.7416Z" fill="#0051FF"/>
<path d="M45.1797 52.369H29.9242C29.5202 52.369 29.1926 52.6965 29.1926 53.1005C29.1926 53.5045 29.5202 53.832 29.9242 53.832H45.1797C45.5837 53.832 45.9113 53.5046 45.9113 53.1005C45.9113 52.6964 45.5837 52.369 45.1797 52.369Z" fill="#0051FF"/>
<path d="M26.41 8.08564C25.9977 7.72305 25.4689 7.54297 24.9208 7.57764C24.3728 7.61279 23.8713 7.85918 23.5086 8.27148L23.1382 8.69268C21.842 7.63535 20.1889 7 18.3895 7C16.5258 7 14.7372 7.68633 13.3534 8.93271C13.0532 9.20312 13.0291 9.66563 13.2995 9.96592C13.5698 10.2661 14.0324 10.2902 14.3326 10.0199C15.4472 9.01602 16.888 8.46309 18.3895 8.46309C19.819 8.46309 21.1334 8.96162 22.171 9.79238L19.0728 13.3146L17.9609 12.0176C17.6036 11.6007 17.1053 11.3479 16.5578 11.3057C16.011 11.2632 15.4792 11.4371 15.0622 11.7944C14.2016 12.5322 14.1016 13.8325 14.8393 14.6932L17.4917 17.7876C17.8792 18.2398 18.4429 18.5015 19.0384 18.5056C19.0438 18.5057 19.0491 18.5057 19.0526 18.5057C19.6435 18.5057 20.206 18.2513 20.5962 17.8076L24.3686 13.5189C24.4239 13.8469 24.4535 14.1834 24.4535 14.5269C24.4535 17.8705 21.7332 20.5908 18.3895 20.5908C15.0459 20.5908 12.3256 17.8705 12.3256 14.5269C12.3256 13.8097 12.4493 13.108 12.6935 12.4415C12.8324 12.0621 12.6375 11.642 12.2581 11.503C11.8789 11.3642 11.4586 11.559 11.3196 11.9384C11.0163 12.7666 10.8625 13.6375 10.8625 14.5269C10.8625 18.6772 14.2391 22.0538 18.3895 22.0538C22.54 22.0538 25.9166 18.6772 25.9166 14.5269C25.9166 13.7093 25.7845 12.9223 25.5423 12.1848L26.5959 10.987C26.9586 10.5747 27.139 10.0459 27.1039 9.49785C27.0687 8.9499 26.8223 8.44834 26.41 8.08564ZM25.4973 10.0208L19.4977 16.8415C19.3857 16.9687 19.2247 17.0419 19.0555 17.0428C19.0532 17.0428 19.0509 17.0427 19.0486 17.0427C18.877 17.0416 18.7144 16.9662 18.6025 16.8357L15.95 13.7412C15.7373 13.4931 15.7662 13.1181 16.0144 12.9053C16.1228 12.8124 16.2578 12.7626 16.399 12.7626C16.4145 12.7626 16.4299 12.7632 16.4454 12.7645C16.6033 12.7766 16.747 12.8495 16.8501 12.9697L18.5101 14.9063C18.6479 15.0672 18.8488 15.1604 19.0607 15.1618C19.2752 15.1603 19.4747 15.0726 19.6146 14.9134L24.6069 9.23779C24.7115 9.11895 24.8561 9.04785 25.0142 9.03779C25.1719 9.02764 25.3247 9.07969 25.4436 9.18418C25.5625 9.28887 25.6335 9.4334 25.6436 9.5915C25.6539 9.74941 25.6019 9.90186 25.4973 10.0208Z" fill="#A437BF"/>
<path d="M26.41 25.5588C25.9977 25.1962 25.4689 25.0157 24.9208 25.0509C24.3727 25.086 23.8713 25.3324 23.5086 25.7447L23.1367 26.1675C21.8406 25.1101 20.1889 24.4731 18.3895 24.4731C14.2392 24.4731 10.8625 27.8497 10.8625 32.0001C10.8625 36.1505 14.2391 39.5271 18.3895 39.5271C22.54 39.5271 25.9165 36.1505 25.9165 32.0001C25.9165 31.1827 25.7838 30.3961 25.5414 29.6588L26.5958 28.4602C26.9585 28.0479 27.1389 27.519 27.1038 26.971C27.0686 26.423 26.8223 25.9215 26.41 25.5588ZM25.4973 27.4939L22.3852 31.0318C22.1184 31.3351 22.1479 31.7974 22.4513 32.0642C22.7546 32.3312 23.2168 32.3015 23.4837 31.9981L24.3684 30.9924C24.4237 31.3202 24.4535 31.6567 24.4535 32.0001C24.4535 35.3438 21.7332 38.0641 18.3895 38.0641C15.0459 38.0641 12.3255 35.3438 12.3255 32.0001C12.3255 28.6564 15.0458 25.9361 18.3894 25.9361C19.8189 25.9361 21.1331 26.435 22.1708 27.2655L19.0727 30.7877L17.9609 29.4907C17.6036 29.0738 17.1053 28.821 16.5578 28.7788C16.011 28.7358 15.4792 28.9102 15.0622 29.2676C14.2016 30.0054 14.1016 31.3057 14.8393 32.1663L17.4917 35.2608C17.8792 35.713 18.4429 35.9746 19.0384 35.9787C19.0438 35.9788 19.0491 35.9788 19.0526 35.9788C19.6435 35.9788 20.206 35.7244 20.5962 35.2809L23.4837 31.9981C23.7505 31.6947 23.721 31.2326 23.4176 30.9658C23.1143 30.6987 22.6519 30.7286 22.3852 31.0318L19.4977 34.3146C19.3858 34.4416 19.2251 34.5149 19.0553 34.5158C19.0531 34.5158 19.0509 34.5157 19.0486 34.5157C18.8769 34.5147 18.7144 34.4393 18.6025 34.3087L15.95 31.2142C15.7373 30.966 15.7662 30.591 16.0144 30.3782C16.1347 30.2752 16.2882 30.2247 16.4455 30.2374C16.6034 30.2495 16.7471 30.3225 16.8502 30.4427L18.5102 32.3793C18.648 32.5401 18.8489 32.6334 19.0608 32.6348H19.0655C19.2758 32.6348 19.4759 32.5443 19.6147 32.3864L24.607 26.7108C24.7116 26.592 24.8562 26.5209 25.0143 26.5108C25.172 26.5005 25.3248 26.5527 25.4436 26.6572C25.5626 26.7619 25.6336 26.9064 25.6437 27.0646C25.6539 27.2226 25.6019 27.375 25.4973 27.4939Z" fill="#0051FF"/>
</svg>
