<svg width="64" height="64" viewBox="0 0 64 64" fill="none" xmlns="http://www.w3.org/2000/svg">
<path d="M55.0938 19.5H54.0791C54.9856 18.4888 55.5799 17.2368 55.7902 15.8951C56.0005 14.5535 55.8177 13.1796 55.264 11.9396C54.7103 10.6996 53.8094 9.64645 52.6701 8.90743C51.5307 8.16842 50.2018 7.77515 48.8438 7.77515C47.4857 7.77515 46.1568 8.16842 45.0174 8.90743C43.8781 9.64645 42.9772 10.6996 42.4235 11.9396C41.8698 13.1796 41.687 14.5535 41.8973 15.8951C42.1076 17.2368 42.7019 18.4888 43.6084 19.5H34V11.6875C34 11.4803 33.9177 11.2815 33.7712 11.135C33.6247 10.9885 33.426 10.9062 33.2188 10.9062H30.0938C29.8865 10.9062 29.6878 10.9885 29.5413 11.135C29.3948 11.2815 29.3125 11.4803 29.3125 11.6875V19.5H28.5312V8.56246C28.5312 8.35526 28.4489 8.15655 28.3024 8.01004C28.1559 7.86352 27.9572 7.78121 27.75 7.78121H24.625C24.4178 7.78121 24.2191 7.86352 24.0726 8.01004C23.9261 8.15655 23.8438 8.35526 23.8438 8.56246V19.5H23.0625V14.0312C23.0625 13.824 22.9802 13.6253 22.8337 13.4788C22.6872 13.3323 22.4885 13.25 22.2812 13.25H19.1562C18.949 13.25 18.7503 13.3323 18.6038 13.4788C18.4573 13.6253 18.375 13.824 18.375 14.0312V19.5H12.9062C12.0777 19.5009 11.2834 19.8304 10.6976 20.4163C10.1117 21.0021 9.78218 21.7964 9.78125 22.625V46.0625C9.78218 46.891 10.1117 47.6853 10.6976 48.2711C11.2834 48.857 12.0777 49.1865 12.9062 49.1875H29.0098L27.9678 52.3125H25.4062C25.199 52.3125 25.0003 52.3948 24.8538 52.5413C24.7073 52.6878 24.625 52.8865 24.625 53.0937V54.6562H16.8125C16.6053 54.6562 16.4066 54.7385 16.2601 54.885C16.1136 55.0315 16.0312 55.2303 16.0312 55.4375C16.0312 55.6447 16.1136 55.8434 16.2601 55.9899C16.4066 56.1364 16.6053 56.2187 16.8125 56.2187H51.1875C51.3947 56.2187 51.5934 56.1364 51.7399 55.9899C51.8864 55.8434 51.9688 55.6447 51.9688 55.4375C51.9688 55.2303 51.8864 55.0315 51.7399 54.885C51.5934 54.7385 51.3947 54.6562 51.1875 54.6562H43.375V53.0937C43.375 52.8865 43.2927 52.6878 43.1462 52.5413C42.9997 52.3948 42.8009 52.3125 42.5938 52.3125H40.0322L38.9902 49.1875H55.0938C55.9223 49.1865 56.7166 48.857 57.3024 48.2711C57.8883 47.6853 58.2178 46.891 58.2188 46.0625V22.625C58.2178 21.7964 57.8883 21.0021 57.3024 20.4163C56.7166 19.8304 55.9223 19.5009 55.0938 19.5ZM49.625 9.40035C50.7926 9.57073 51.874 10.1135 52.7084 10.9478C53.5427 11.7822 54.0855 12.8636 54.2559 14.0312H49.625V9.40035ZM49.167 15.5937H54.2559C54.1209 16.5325 53.744 17.42 53.1622 18.1689C52.5803 18.9179 51.8136 19.5026 50.9373 19.8654C50.061 20.2283 49.1054 20.3568 48.1644 20.2385C47.2234 20.1201 46.3294 19.7589 45.5703 19.1904L49.167 15.5937ZM43.375 14.8125C43.3769 13.498 43.8514 12.228 44.712 11.2344C45.5726 10.2408 46.7618 9.58986 48.0625 9.40035V14.4892L44.4658 18.0859C43.7567 17.142 43.3738 15.9931 43.375 14.8125ZM30.875 12.4687H32.4375V27.3125H30.875V12.4687ZM28.5312 21.0625H29.3125V27.3125H28.5312V21.0625ZM25.4062 9.34371H26.9688V27.3125H25.4062V9.34371ZM23.0625 21.0625H23.8438V27.3125H23.0625V21.0625ZM19.9375 14.8125H21.5V27.3125H19.9375V14.8125ZM41.8125 53.875V54.6562H26.1875V53.875H41.8125ZM29.6152 52.3125L30.6572 49.1875H37.3428L38.3848 52.3125H29.6152ZM56.6562 46.0625C56.6557 46.4767 56.4909 46.8738 56.198 47.1667C55.9051 47.4596 55.508 47.6244 55.0938 47.625H12.9062C12.492 47.6244 12.0949 47.4596 11.802 47.1667C11.5091 46.8738 11.3443 46.4767 11.3438 46.0625V44.5H56.6562V46.0625ZM56.6562 42.9375H11.3438V22.625C11.3443 22.2107 11.5091 21.8136 11.802 21.5207C12.0949 21.2278 12.492 21.063 12.9062 21.0625H18.375V27.3125H17.5938V22.625C17.5938 22.4178 17.5114 22.219 17.3649 22.0725C17.2184 21.926 17.0197 21.8437 16.8125 21.8437H13.6875C13.4803 21.8437 13.2816 21.926 13.1351 22.0725C12.9886 22.219 12.9062 22.4178 12.9062 22.625V28.0937C12.9062 28.3009 12.9886 28.4996 13.1351 28.6461C13.2816 28.7927 13.4803 28.875 13.6875 28.875H38.6875C38.8947 28.875 39.0934 28.7927 39.2399 28.6461C39.3864 28.4996 39.4688 28.3009 39.4688 28.0937V22.625C39.4688 22.4178 39.3864 22.219 39.2399 22.0725C39.0934 21.926 38.8947 21.8437 38.6875 21.8437H35.5625C35.3553 21.8437 35.1566 21.926 35.0101 22.0725C34.8636 22.219 34.7812 22.4178 34.7812 22.625V27.3125H34V21.0625H45.6289C46.6228 21.5758 47.7251 21.8437 48.8438 21.8437C49.9624 21.8437 51.0647 21.5758 52.0586 21.0625H55.0938C55.508 21.063 55.9051 21.2278 56.198 21.5207C56.4909 21.8136 56.6557 22.2107 56.6562 22.625V42.9375ZM16.0312 23.4062V27.3125H14.4688V23.4062H16.0312ZM36.3438 27.3125V23.4062H37.9062V27.3125H36.3438Z" fill="#0051FF"/>
<path d="M18.375 45.2812H13.6875C13.4803 45.2812 13.2816 45.3636 13.1351 45.5101C12.9886 45.6566 12.9062 45.8553 12.9062 46.0625C12.9062 46.2697 12.9886 46.4684 13.1351 46.6149C13.2816 46.7614 13.4803 46.8438 13.6875 46.8438H18.375C18.5822 46.8438 18.7809 46.7614 18.9274 46.6149C19.0739 46.4684 19.1562 46.2697 19.1562 46.0625C19.1562 45.8553 19.0739 45.6566 18.9274 45.5101C18.7809 45.3636 18.5822 45.2812 18.375 45.2812Z" fill="#0051FF"/>
<path d="M21.5 45.2812H20.7188C20.5115 45.2812 20.3128 45.3636 20.1663 45.5101C20.0198 45.6566 19.9375 45.8553 19.9375 46.0625C19.9375 46.2697 20.0198 46.4684 20.1663 46.6149C20.3128 46.7614 20.5115 46.8438 20.7188 46.8438H21.5C21.7072 46.8438 21.9059 46.7614 22.0524 46.6149C22.1989 46.4684 22.2812 46.2697 22.2812 46.0625C22.2812 45.8553 22.1989 45.6566 22.0524 45.5101C21.9059 45.3636 21.7072 45.2812 21.5 45.2812Z" fill="#0051FF"/>
<path d="M42.5937 27.3125C42.6963 27.3126 42.798 27.2925 42.8928 27.2532C42.9876 27.214 43.0737 27.1564 43.1461 27.0837L46.0422 24.1875H52.7499C52.9571 24.1875 53.1559 24.1052 53.3024 23.9587C53.4489 23.8122 53.5312 23.6135 53.5312 23.4063C53.5312 23.1991 53.4489 23.0003 53.3024 22.8538C53.1559 22.7073 52.9571 22.625 52.7499 22.625H45.7187C45.6161 22.625 45.5145 22.6452 45.4197 22.6845C45.3249 22.7237 45.2388 22.7813 45.1663 22.8538L42.0413 25.9788C41.932 26.0881 41.8576 26.2273 41.8274 26.3788C41.7973 26.5304 41.8128 26.6875 41.8719 26.8302C41.931 26.973 42.0312 27.095 42.1596 27.1809C42.2881 27.2667 42.4392 27.3125 42.5937 27.3125Z" fill="#0051FF"/>
<path d="M52.75 35.9062C52.3394 35.9065 51.9362 36.0147 51.5805 36.2198C51.2249 36.425 50.9294 36.7199 50.7236 37.0752L42.5449 32.3037C42.4341 31.7713 42.1416 31.294 41.7176 30.9536C41.2935 30.6131 40.7643 30.4308 40.2205 30.4377C39.6767 30.4446 39.1523 30.6404 38.737 30.9915C38.3218 31.3427 38.0415 31.8273 37.9443 32.3623L29.7139 38.5352C29.49 38.1903 29.1792 37.9106 28.8129 37.7239C28.4466 37.5373 28.0376 37.4504 27.627 37.472C27.2164 37.4936 26.8188 37.6229 26.4741 37.8469C26.1293 38.0709 25.8496 38.3817 25.6631 38.748L17.5283 35.3584C17.4 34.8232 17.0875 34.3503 16.6455 34.0223C16.2035 33.6943 15.6603 33.5323 15.1109 33.5645C14.5615 33.5968 14.0409 33.8212 13.6404 34.1986C13.2398 34.576 12.9848 35.0823 12.9199 35.6288C12.855 36.1753 12.9844 36.7272 13.2855 37.1879C13.5866 37.6486 14.0401 37.9887 14.5667 38.1487C15.0933 38.3087 15.6593 38.2783 16.1658 38.063C16.6723 37.8476 17.0868 37.4609 17.3369 36.9707L25.4717 40.3603C25.5973 40.883 25.8988 41.3466 26.3256 41.6734C26.7524 42.0002 27.2786 42.1703 27.816 42.1552C28.3533 42.1401 28.8691 41.9407 29.2769 41.5904C29.6847 41.2402 29.9596 40.7604 30.0557 40.2314L38.2861 34.0586C38.5042 34.3945 38.8047 34.6688 39.159 34.8554C39.5134 35.042 39.9096 35.1346 40.31 35.1243C40.7103 35.114 41.1013 35.0012 41.4455 34.7966C41.7898 34.5921 42.0759 34.3027 42.2764 33.9561L50.4551 38.7275C50.5454 39.1613 50.7567 39.5606 51.0647 39.8792C51.3727 40.1977 51.7647 40.4224 52.1952 40.5272C52.6257 40.632 53.0771 40.6127 53.497 40.4714C53.917 40.3301 54.2883 40.0727 54.5679 39.729C54.8474 39.3852 55.0239 38.9693 55.0767 38.5294C55.1295 38.0895 55.0566 37.6436 54.8663 37.2435C54.676 36.8433 54.3762 36.5053 54.0016 36.2686C53.6271 36.032 53.1931 35.9063 52.75 35.9062ZM16.0312 35.9102C16.0307 36.1177 15.9479 36.3166 15.8008 36.463C15.6538 36.6095 15.4546 36.6917 15.2471 36.6914C15.0395 36.6911 14.8406 36.6085 14.6939 36.4617C14.5472 36.3148 14.4648 36.1157 14.4648 35.9082C14.4648 35.7007 14.5472 35.5016 14.6939 35.3547C14.8406 35.2079 15.0395 35.1253 15.2471 35.125C15.4546 35.1247 15.6538 35.2069 15.8008 35.3534C15.9479 35.4998 16.0307 35.6987 16.0312 35.9062V35.9102ZM27.75 40.5937C27.5429 40.5935 27.3443 40.5111 27.1979 40.3646C27.0514 40.2182 26.969 40.0196 26.9688 39.8125V39.8086C26.9695 39.6542 27.016 39.5036 27.1023 39.3756C27.1886 39.2477 27.3109 39.1481 27.4537 39.0896C27.5965 39.0311 27.7535 39.0162 27.9048 39.0467C28.0561 39.0773 28.1949 39.152 28.3038 39.2614C28.4127 39.3709 28.4867 39.5101 28.5165 39.6615C28.5463 39.813 28.5306 39.9698 28.4714 40.1124C28.4122 40.2549 28.312 40.3767 28.1836 40.4623C28.0552 40.548 27.9043 40.5937 27.75 40.5937ZM40.25 33.5625C40.0955 33.5625 39.9444 33.5167 39.816 33.4308C39.6875 33.345 39.5874 33.223 39.5282 33.0802C39.4691 32.9375 39.4536 32.7804 39.4838 32.6288C39.5139 32.4773 39.5883 32.3381 39.6976 32.2288C39.8068 32.1196 39.946 32.0452 40.0976 32.015C40.2491 31.9849 40.4062 32.0003 40.549 32.0595C40.6917 32.1186 40.8137 32.2187 40.8996 32.3472C40.9854 32.4757 41.0312 32.6267 41.0312 32.7812C41.031 32.9884 40.9486 33.1869 40.8021 33.3334C40.6557 33.4798 40.4571 33.5622 40.25 33.5625ZM52.75 39.0312C52.5955 39.0312 52.4444 38.9854 52.316 38.8996C52.1875 38.8137 52.0874 38.6917 52.0282 38.549C51.9691 38.4062 51.9536 38.2491 51.9838 38.0976C52.0139 37.946 52.0883 37.8068 52.1976 37.6976C52.3068 37.5883 52.446 37.5139 52.5976 37.4838C52.7491 37.4536 52.9062 37.4691 53.049 37.5282C53.1917 37.5873 53.3137 37.6875 53.3996 37.816C53.4854 37.9444 53.5312 38.0955 53.5312 38.25C53.531 38.4571 53.4486 38.6557 53.3021 38.8021C53.1557 38.9486 52.9571 39.031 52.75 39.0312Z" fill="#A437BF"/>
<path d="M46.5 40.5938H41.0312C40.824 40.5938 40.6253 40.6761 40.4788 40.8226C40.3323 40.9691 40.25 41.1678 40.25 41.375C40.25 41.5822 40.3323 41.7809 40.4788 41.9274C40.6253 42.0739 40.824 42.1562 41.0312 42.1562H46.5C46.7072 42.1562 46.9059 42.0739 47.0524 41.9274C47.1989 41.7809 47.2812 41.5822 47.2812 41.375C47.2812 41.1678 47.1989 40.9691 47.0524 40.8226C46.9059 40.6761 46.7072 40.5938 46.5 40.5938Z" fill="#0051FF"/>
<path d="M46.5 38.25H44.1562C43.949 38.25 43.7503 38.3323 43.6038 38.4788C43.4573 38.6253 43.375 38.824 43.375 39.0312C43.375 39.2384 43.4573 39.4372 43.6038 39.5837C43.7503 39.7302 43.949 39.8125 44.1562 39.8125H46.5C46.7072 39.8125 46.9059 39.7302 47.0524 39.5837C47.1989 39.4372 47.2812 39.2384 47.2812 39.0312C47.2812 38.824 47.1989 38.6253 47.0524 38.4788C46.9059 38.3323 46.7072 38.25 46.5 38.25Z" fill="#0051FF"/>
<path d="M13.6875 31.2188H22.2812C22.4885 31.2188 22.6872 31.1364 22.8337 30.9899C22.9802 30.8434 23.0625 30.6447 23.0625 30.4375C23.0625 30.2303 22.9802 30.0316 22.8337 29.8851C22.6872 29.7386 22.4885 29.6562 22.2812 29.6562H13.6875C13.4803 29.6562 13.2816 29.7386 13.1351 29.8851C12.9886 30.0316 12.9062 30.2303 12.9062 30.4375C12.9062 30.6447 12.9886 30.8434 13.1351 30.9899C13.2816 31.1364 13.4803 31.2188 13.6875 31.2188Z" fill="#0051FF"/>
<path d="M24.625 31.2188H25.4062C25.6135 31.2188 25.8122 31.1364 25.9587 30.9899C26.1052 30.8434 26.1875 30.6447 26.1875 30.4375C26.1875 30.2303 26.1052 30.0316 25.9587 29.8851C25.8122 29.7386 25.6135 29.6562 25.4062 29.6562H24.625C24.4178 29.6562 24.2191 29.7386 24.0726 29.8851C23.9261 30.0316 23.8438 30.2303 23.8438 30.4375C23.8438 30.6447 23.9261 30.8434 24.0726 30.9899C24.2191 31.1364 24.4178 31.2188 24.625 31.2188Z" fill="#0051FF"/>
</svg>
