<svg width="64" height="64" viewBox="0 0 64 64" fill="none" xmlns="http://www.w3.org/2000/svg">
<path d="M29.0818 37.8181V37.9181H29.1818H33.6273V38.9545C33.6273 40.2632 34.6914 41.3272 36 41.3272C37.3086 41.3272 38.3727 40.2632 38.3727 38.9545V37.9181H44.9909V51.4545C44.9909 53.9061 42.997 55.9 40.5455 55.9H29.1818H26.9091H15.5455C13.0939 55.9 11.1 53.9061 11.1 51.4545V40.0909V37.8181V26.4545C11.1 24.0029 13.0939 22.0091 15.5455 22.0091H29.0818V26.5988V26.6763L29.1569 26.6957C31.0729 27.1891 32.4909 28.9331 32.4909 31C32.4909 33.0669 31.0729 34.8108 29.1569 35.3043L29.0818 35.3236V35.4011V37.8181ZM27.0091 24.1818V24.0818H26.9091H15.5455C14.2368 24.0818 13.1727 25.1459 13.1727 26.4545V37.8181V37.9181H13.2727H15.6898H15.7673L15.7866 37.8431C16.2801 35.9271 18.024 34.5091 20.0909 34.5091C22.1578 34.5091 23.9018 35.9271 24.3952 37.8431L24.4145 37.9181H24.492H26.9091H27.0091V37.8181V33.3727H28.0455C29.3541 33.3727 30.4182 32.3086 30.4182 31C30.4182 29.6913 29.3541 28.6272 28.0455 28.6272H27.0091V24.1818ZM13.2727 39.9909H13.1727V40.0909V51.4545C13.1727 52.7631 14.2368 53.8272 15.5455 53.8272H26.9091H27.0091V53.7272V51.3102V51.2327L26.934 51.2134C25.018 50.7199 23.6 48.976 23.6 46.9091C23.6 44.8422 25.018 43.0982 26.934 42.6048L27.0091 42.5854V42.5079V40.0909V39.9909H26.9091H22.4636V38.9545C22.4636 37.6459 21.3995 36.5818 20.0909 36.5818C18.7823 36.5818 17.7182 37.6459 17.7182 38.9545V39.9909H13.2727ZM40.4011 39.9909H40.3236L40.3043 40.0659C39.8109 41.9819 38.0669 43.4 36 43.4C33.9331 43.4 32.1891 41.9819 31.6957 40.0659L31.6764 39.9909H31.5989H29.1818H29.0818V40.0909V44.5363H28.0455C26.7368 44.5363 25.6727 45.6004 25.6727 46.9091C25.6727 48.2177 26.7368 49.2818 28.0455 49.2818H29.0818V53.7272V53.8272H29.1818H40.5455C41.8541 53.8272 42.9182 52.7631 42.9182 51.4545V40.0909V39.9909H42.8182H40.4011Z" fill="#0051FF" stroke="#F9F9F9" stroke-width="0.2"/>
<path d="M41.6818 10.5454C39.8023 10.5454 38.2727 12.075 38.2727 13.9545V14.0909C38.2727 14.6431 38.7204 15.0909 39.2727 15.0909H39.5454C40.0977 15.0909 40.5454 14.6431 40.5454 14.0909V13.9545C40.5454 13.3272 41.0545 12.8181 41.6818 12.8181C42.3091 12.8181 42.8182 13.3272 42.8182 13.9545V14.15C42.8182 14.4488 42.6977 14.742 42.4852 14.9534L41.5443 15.8943C40.9 16.5375 40.5454 17.3943 40.5454 18.3045V18.6363C40.5454 19.1886 40.9931 19.6363 41.5454 19.6363H41.8182C42.3704 19.6363 42.8182 19.1886 42.8182 18.6363V18.3045C42.8182 18.0056 42.9386 17.7125 43.1511 17.5011L44.092 16.5602C44.7363 15.917 45.0909 15.0602 45.0909 14.15V13.9545C45.0909 12.075 43.5613 10.5454 41.6818 10.5454Z" fill="#A437BF"/>
<path d="M40.5455 22.9091C40.5455 22.3568 40.9932 21.9091 41.5455 21.9091H41.8182C42.3705 21.9091 42.8182 22.3568 42.8182 22.9091V23.1818C42.8182 23.7341 42.3705 24.1818 41.8182 24.1818H41.5455C40.9932 24.1818 40.5455 23.7341 40.5455 23.1818V22.9091Z" fill="#A437BF"/>
<path d="M37.2364 27.7682V27.7027L37.1764 27.6765C33.1023 25.898 30.4182 21.8497 30.4182 17.3636C30.4182 11.153 35.4711 6.1 41.6818 6.1C47.8925 6.1 52.9454 11.153 52.9454 17.3636C52.9454 23.119 48.5412 27.9649 42.851 28.5562L42.8207 28.5594L42.7973 28.5789L37.2364 33.2126V27.7682ZM42.3341 26.5214L42.3343 26.5213C47.1218 26.1836 50.8727 22.1616 50.8727 17.3636C50.8727 12.2959 46.7495 8.17273 41.6818 8.17273C36.6141 8.17273 32.4909 12.2959 32.4909 17.3636C32.4909 21.2437 34.9541 24.7211 38.6188 26.0204L38.619 26.0204L39.3091 26.2639V28.5739V28.7874L39.4731 28.6507L42.0005 26.5442L42.3341 26.5214Z" fill="#A437BF" stroke="#F9F9F9" stroke-width="0.2"/>
<path d="M31.4545 50.3182H33.7273V52.591H31.4545V50.3182Z" fill="#0051FF"/>
<path d="M36 50.3182H38.2727V52.591H36V50.3182Z" fill="#0051FF"/>
<path d="M14.4091 42.3636H16.6818V44.6364H14.4091V42.3636Z" fill="#0051FF"/>
<path d="M14.4091 46.9091H16.6818V49.1818H14.4091V46.9091Z" fill="#0051FF"/>
<path d="M15.5455 26.4546H17.8182V28.7273H15.5455V26.4546Z" fill="#0051FF"/>
<path d="M20.0909 26.4546H22.3636V28.7273H20.0909V26.4546Z" fill="#0051FF"/>
</svg>
