<svg width="64" height="64" viewBox="0 0 64 64" fill="none" xmlns="http://www.w3.org/2000/svg">
<path d="M47.625 21.8438C50.6398 21.8438 53.0938 19.3906 53.0938 16.375C53.0938 13.3594 50.6398 10.9062 47.625 10.9062C44.6102 10.9062 42.1562 13.3594 42.1562 16.375C42.1562 19.3906 44.6102 21.8438 47.625 21.8438ZM47.625 12.4688C49.7789 12.4688 51.5312 14.2211 51.5312 16.375C51.5312 18.5289 49.7789 20.2812 47.625 20.2812C45.4711 20.2812 43.7188 18.5289 43.7188 16.375C43.7188 14.2211 45.4711 12.4688 47.625 12.4688Z" fill="#A437BF"/>
<path d="M16.375 42.1562C13.3602 42.1562 10.9062 44.6094 10.9062 47.625C10.9062 50.6406 13.3602 53.0938 16.375 53.0938C19.3898 53.0938 21.8438 50.6406 21.8438 47.625C21.8438 44.6094 19.3898 42.1562 16.375 42.1562ZM16.375 51.5312C14.2211 51.5312 12.4688 49.7789 12.4688 47.625C12.4688 45.4711 14.2211 43.7188 16.375 43.7188C18.5289 43.7188 20.2812 45.4711 20.2812 47.625C20.2812 49.7789 18.5289 51.5312 16.375 51.5312Z" fill="#0051FF"/>
<path d="M16.375 10.9062C13.3602 10.9062 10.9062 13.3594 10.9062 16.375C10.9062 19.3906 13.3602 21.8438 16.375 21.8438C19.3898 21.8438 21.8438 19.3906 21.8438 16.375C21.8438 13.3594 19.3898 10.9062 16.375 10.9062ZM16.375 20.2812C14.2211 20.2812 12.4688 18.5289 12.4688 16.375C12.4688 14.2211 14.2211 12.4688 16.375 12.4688C18.5289 12.4688 20.2812 14.2211 20.2812 16.375C20.2812 18.5289 18.5289 20.2812 16.375 20.2812Z" fill="#0051FF"/>
<path d="M47.625 53.0938C50.6398 53.0938 53.0938 50.6406 53.0938 47.625C53.0938 44.6094 50.6398 42.1562 47.625 42.1562C44.6102 42.1562 42.1562 44.6094 42.1562 47.625C42.1562 50.6406 44.6102 53.0938 47.625 53.0938ZM47.625 43.7188C49.7789 43.7188 51.5312 45.4711 51.5312 47.625C51.5312 49.7789 49.7789 51.5312 47.625 51.5312C45.4711 51.5312 43.7188 49.7789 43.7188 47.625C43.7188 45.4711 45.4711 43.7188 47.625 43.7188Z" fill="#A437BF"/>
<path d="M39.772 38.5966C41.1176 37.0148 41.985 35.021 42.1626 32.8312H46.872C47.2664 35.0476 49.2021 36.7375 51.5312 36.7375C54.144 36.7375 56.2687 34.6128 56.2687 32C56.2687 29.3872 54.144 27.2625 51.5312 27.2625C49.2029 27.2625 47.2672 28.9524 46.872 31.1688H42.1626C41.985 28.979 41.1168 26.9852 39.7719 25.4035L42.1328 23.0426C43.6277 24.2753 45.5409 25.0187 47.625 25.0187C52.3909 25.0187 56.2687 21.1409 56.2687 16.375C56.2687 11.6091 52.3909 7.73125 47.625 7.73125C42.8591 7.73125 38.9813 11.6091 38.9813 16.375C38.9813 18.4591 39.7247 20.3723 40.9574 21.8672L38.5965 24.2281C37.0148 22.8832 35.0203 22.015 32.8312 21.8374V17.128C35.0476 16.7336 36.7375 14.7979 36.7375 12.4688C36.7375 9.85598 34.6128 7.73125 32 7.73125C29.3872 7.73125 27.2625 9.85598 27.2625 12.4688C27.2625 14.7971 28.9524 16.7328 31.1688 17.128V21.8374C28.979 22.015 26.9852 22.8832 25.4035 24.2281L23.0426 21.8672C24.2753 20.3723 25.0187 18.4591 25.0187 16.375C25.0187 11.6091 21.1409 7.73125 16.375 7.73125C11.6091 7.73125 7.73125 11.6091 7.73125 16.375C7.73125 21.1409 11.6091 25.0187 16.375 25.0187C18.4591 25.0187 20.3723 24.2753 21.8672 23.0426L24.2281 25.4035C22.8832 26.9852 22.015 28.9797 21.8374 31.1688H17.128C16.7336 28.9524 14.7979 27.2625 12.4688 27.2625C9.85598 27.2625 7.73125 29.3872 7.73125 32C7.73125 34.6128 9.85598 36.7375 12.4688 36.7375C14.7971 36.7375 16.7328 35.0476 17.128 32.8312H21.8374C22.015 35.021 22.8832 37.0148 24.2281 38.5965L21.8672 40.9574C20.3723 39.7247 18.4591 38.9813 16.375 38.9813C11.6091 38.9813 7.73125 42.8591 7.73125 47.625C7.73125 52.3909 11.6091 56.2687 16.375 56.2687C21.1409 56.2687 25.0187 52.3909 25.0187 47.625C25.0187 45.5409 24.2753 43.6277 23.0426 42.1328L25.4035 39.7719C26.9852 41.1168 28.9797 41.985 31.1688 42.1626V46.872C28.9524 47.2664 27.2625 49.2021 27.2625 51.5312C27.2625 54.144 29.3872 56.2687 32 56.2687C34.6128 56.2687 36.7375 54.144 36.7375 51.5312C36.7375 49.2029 35.0476 47.2672 32.8312 46.872V42.1626C35.021 41.985 37.0148 41.1168 38.5965 39.7719L40.9574 42.1328C39.7247 43.6277 38.9813 45.5409 38.9813 47.625C38.9813 52.3909 42.8591 56.2687 47.625 56.2687C52.3909 56.2687 56.2687 52.3909 56.2687 47.625C56.2687 42.8591 52.3909 38.9813 47.625 38.9813C45.5409 38.9813 43.6277 39.7247 42.1328 40.9574L39.772 38.5966ZM51.5312 28.925C53.2271 28.925 54.6063 30.3042 54.6063 32C54.6063 33.6958 53.2271 35.075 51.5312 35.075C49.8354 35.075 48.4562 33.6958 48.4562 32C48.4562 30.3042 49.8354 28.925 51.5312 28.925ZM12.4688 35.075C10.7729 35.075 9.39375 33.6958 9.39375 32C9.39375 30.3042 10.7729 28.925 12.4688 28.925C14.1646 28.925 15.5437 30.3042 15.5437 32C15.5437 33.6958 14.1646 35.075 12.4688 35.075ZM47.625 9.39375C51.4747 9.39375 54.6063 12.526 54.6063 16.375C54.6063 20.224 51.4747 23.3562 47.625 23.3562C43.7753 23.3562 40.6437 20.224 40.6437 16.375C40.6437 12.526 43.7753 9.39375 47.625 9.39375ZM28.925 12.4688C28.925 10.7729 30.3042 9.39375 32 9.39375C33.6958 9.39375 35.075 10.7729 35.075 12.4688C35.075 14.1646 33.6958 15.5437 32 15.5437C30.3042 15.5437 28.925 14.1646 28.925 12.4688ZM9.39375 16.375C9.39375 12.526 12.5253 9.39375 16.375 9.39375C20.2247 9.39375 23.3562 12.526 23.3562 16.375C23.3562 20.224 20.2247 23.3562 16.375 23.3562C12.5253 23.3562 9.39375 20.224 9.39375 16.375ZM16.375 54.6063C12.5253 54.6063 9.39375 51.474 9.39375 47.625C9.39375 43.776 12.5253 40.6437 16.375 40.6437C20.2247 40.6437 23.3562 43.776 23.3562 47.625C23.3562 51.474 20.2247 54.6063 16.375 54.6063ZM35.075 51.5312C35.075 53.2271 33.6958 54.6063 32 54.6063C30.3042 54.6063 28.925 53.2271 28.925 51.5312C28.925 49.8354 30.3042 48.4562 32 48.4562C33.6958 48.4562 35.075 49.8354 35.075 51.5312ZM32 40.5438C27.2893 40.5438 23.4563 36.7107 23.4563 32C23.4563 27.2893 27.2893 23.4563 32 23.4563C36.7107 23.4563 40.5438 27.2893 40.5438 32C40.5438 36.7107 36.7107 40.5438 32 40.5438ZM54.6063 47.625C54.6063 51.474 51.4747 54.6063 47.625 54.6063C43.7753 54.6063 40.6437 51.474 40.6437 47.625C40.6437 43.776 43.7753 40.6437 47.625 40.6437C51.4747 40.6437 54.6063 43.776 54.6063 47.625Z" fill="#0051FF" stroke="#0051FF" stroke-width="0.1"/>
<path d="M32 24.9688V26.5312C35.0148 26.5312 37.4688 28.9844 37.4688 32H39.0312C39.0312 28.1234 35.8773 24.9688 32 24.9688Z" fill="#0051FF"/>
</svg>
