<svg width="24" height="24" viewBox="0 0 24 24" fill="none" xmlns="http://www.w3.org/2000/svg">
<path fill-rule="evenodd" clip-rule="evenodd" d="M9.85727 11.9149L12.0613 14.1189C12.67 14.7276 13.6 14.8786 14.3699 14.4936L14.6197 14.3687C15.3897 13.9837 16.3196 14.1346 16.9283 14.7433L19.6611 17.4761C19.8564 17.6714 19.8564 17.988 19.6611 18.1832C19.6231 18.2212 19.5793 18.2529 19.5312 18.2769L17.3232 19.3809C15.6341 20.2254 13.5941 19.8944 12.2587 18.559L6.25992 12.5602C4.80638 11.1067 4.29883 8.95663 4.94887 7.0065L5.7537 4.59202C5.84102 4.33005 6.12418 4.18847 6.38616 4.27579C6.45979 4.30034 6.52671 4.34169 6.5816 4.39658L9.23287 7.04785C9.84159 7.65657 9.9925 8.58652 9.60751 9.35649L9.48263 9.60626C9.09764 10.3762 9.24855 11.3062 9.85727 11.9149Z" fill="#272727"/>
</svg>
