<svg xmlns="http://www.w3.org/2000/svg" width="946" height="699" viewBox="0 0 946 699" fill="none">
    <path opacity="0.25" fill-rule="evenodd" clip-rule="evenodd" d="M829.21 631.734C673.098 721.822 419.077 721.37 262.063 630.681C104.898 539.991 104.146 393.354 260.258 303.266C416.37 213.179 670.391 213.629 827.406 304.319C984.42 395.008 985.323 541.495 829.21 631.734Z" fill="url(#paint0_radial)"/>
    <path d="M734.296 245.387C902.99 342.772 903.841 500.639 736.28 598.024C568.72 695.408 296.122 695.408 127.428 598.024C-41.2666 500.639 -42.1169 342.772 125.444 245.387C293.004 148.002 565.602 148.002 734.296 245.387Z" fill="#0A2340"/>
    <path d="M659.869 274.523C598.593 239.152 517.59 219.652 431.826 219.652C346.062 219.652 265.229 239.152 204.349 274.58C140.806 311.538 105.831 361.591 105.945 415.555C105.945 416.802 105.945 418.049 106.001 419.24C107.645 472.127 142.96 521.102 205.823 557.381C267.1 592.752 348.102 612.252 433.867 612.252C519.631 612.252 600.463 592.752 661.4 557.324C723.299 521.386 758.047 472.864 759.748 420.487C759.805 419.126 759.805 417.709 759.805 416.349C759.691 362.045 724.206 311.652 659.869 274.523ZM726.701 424.285C726.757 466.005 697.621 505.911 644.734 536.691C586.689 570.418 510.334 587.31 433.81 587.31C357.342 587.31 280.704 570.418 222.262 536.691C168.525 505.684 138.935 465.438 138.878 423.378C138.878 422.017 138.935 420.6 138.935 419.24C138.878 417.993 138.878 416.746 138.878 415.499C138.822 373.778 167.958 333.872 220.901 303.092C278.947 269.365 355.301 252.53 431.826 252.53C508.35 252.53 584.932 269.422 643.374 303.149C697.111 334.156 726.701 374.402 726.757 416.462C726.757 417.766 726.701 419.07 726.701 420.43V420.544C726.701 421.734 726.701 423.038 726.701 424.285Z" fill="#06121F"/>
    <path d="M759.692 420.542C758.048 367.655 722.733 318.68 659.869 282.401C598.593 247.03 517.59 227.53 431.826 227.53C346.062 227.53 265.229 247.03 204.35 282.458C142.45 318.396 107.645 366.862 106.001 419.239C105.945 420.656 105.945 422.016 105.945 423.433C106.001 477.794 141.486 528.13 205.823 565.315C267.1 600.687 348.103 620.186 433.867 620.186C519.631 620.186 600.464 600.687 661.4 565.315C724.944 528.357 759.862 478.304 759.805 424.34C759.748 423.036 759.692 421.789 759.692 420.542ZM138.992 419.239C140.806 378.992 169.715 340.73 220.902 310.97C278.947 277.243 355.301 260.351 431.826 260.351C508.351 260.351 584.932 277.243 643.374 310.97C695.411 341.013 724.83 379.729 726.701 420.372V420.486C726.758 421.789 726.757 423.036 726.757 424.34C726.814 466.06 697.678 505.966 644.791 536.746C586.746 570.474 510.391 587.366 433.867 587.366C357.399 587.366 280.761 570.474 222.319 536.746C168.582 505.74 138.992 465.493 138.935 423.433C138.879 421.959 138.935 420.599 138.992 419.239Z" fill="#06121F"/>
    <path d="M861.384 422.98L861.044 444.18C860.874 507.611 819.21 570.928 735.94 619.28C568.38 716.665 295.782 716.665 127.088 619.28C42.2307 570.248 -0.169545 505.967 0.000509486 441.743L0.340605 420.543C0.17055 484.767 42.5709 549.104 127.428 598.08C296.122 695.465 568.663 695.465 736.28 598.08C819.494 549.671 861.157 486.354 861.384 422.98Z" fill="#06121F"/>
    <path fill-rule="evenodd" clip-rule="evenodd" d="M178.615 644.732L178.615 644.731C232.449 667.398 293.252 681.964 355.982 688.429L355.982 688.434C471.959 700.395 594.568 684.75 692.293 641.443L692.633 620.242C594.924 663.486 472.339 679.19 356.378 667.24L356.378 667.235C293.571 660.773 232.805 646.205 178.955 623.531L178.955 623.531C160.929 615.936 143.697 607.49 127.428 598.08C42.5709 549.104 0.17052 484.767 0.340574 420.543L0.000478968 441.743C-0.169576 505.967 42.2307 570.248 127.088 619.28C143.357 628.69 160.589 637.136 178.615 644.732ZM861.384 422.98L861.323 426.768C861.36 425.505 861.38 424.243 861.384 422.98ZM861.323 426.768C860.253 463.534 845.199 500.148 816.263 533.742L816.263 533.741C796.253 556.925 769.555 578.692 736.28 598.078C722.449 606.127 707.881 613.553 692.69 620.242L692.35 641.442C707.541 634.697 722.109 627.328 735.94 619.278C769.271 599.892 795.913 578.125 815.923 554.941L815.923 554.942C845.909 520.194 860.93 482.215 861.044 444.18L861.323 426.768Z" fill="#0A1D33" style="&#10;    transform: translate(0, -1px);&#10;"/>
    <defs>
        <radialGradient id="paint0_radial" cx="0" cy="0" r="1" gradientUnits="userSpaceOnUse" gradientTransform="translate(544.706 467.5) rotate(90.0295) scale(231.5 401.027)">
            <stop stop-color="#18EDFA"/>
            <stop offset="1" stop-color="#18EDFA" stop-opacity="0"/>
        </radialGradient>
        <linearGradient id="paint1_linear" x1="432.875" y1="227.53" x2="432.875" y2="620.186" gradientUnits="userSpaceOnUse">
            <stop stop-color="#0AB4EF"/>
            <stop offset="1" stop-color="#A437BF"/>
        </linearGradient>
    </defs>
</svg>
