<svg width="48" height="48" viewBox="0 0 48 48" fill="none" xmlns="http://www.w3.org/2000/svg">
<path d="M14.2857 30.2857H13.0357V31.5357H14.2857V30.2857ZM33.7143 30.2857V31.5357H34.9643V30.2857H33.7143ZM7 29.0357C6.30964 29.0357 5.75 29.5954 5.75 30.2857C5.75 30.9761 6.30964 31.5357 7 31.5357V29.0357ZM41 31.5357C41.6904 31.5357 42.25 30.9761 42.25 30.2857C42.25 29.5954 41.6904 29.0357 41 29.0357V31.5357ZM14.2857 36.75C13.5954 36.75 13.0357 37.3096 13.0357 38C13.0357 38.6904 13.5954 39.25 14.2857 39.25V36.75ZM33.7143 39.25C34.4046 39.25 34.9643 38.6904 34.9643 38C34.9643 37.3096 34.4046 36.75 33.7143 36.75V39.25ZM15.5357 30.2857C15.5357 25.2271 19.3917 21.25 24 21.25V18.75C17.8782 18.75 13.0357 23.983 13.0357 30.2857H15.5357ZM24 21.25C28.6083 21.25 32.4643 25.2271 32.4643 30.2857H34.9643C34.9643 23.983 30.1218 18.75 24 18.75V21.25ZM14.2857 31.5357H33.7143V29.0357H14.2857V31.5357ZM7 31.5357H41V29.0357H7V31.5357ZM14.2857 39.25H33.7143V36.75H14.2857V39.25Z" fill="#F9F9F9"/>
<path d="M24 12V10M33 14.1244L31.1244 16M16.8756 16L15 14.1244" stroke="#F9F9F9" stroke-width="2.5" stroke-linecap="round" stroke-linejoin="round"/>
</svg>
