<svg width="48" height="48" viewBox="0 0 48 48" fill="none" xmlns="http://www.w3.org/2000/svg">
<path d="M5.77079 17.6975C7.1161 12.2797 11.412 8.09068 16.8611 6.88324L17.7689 6.6821C21.8732 5.77263 26.1268 5.77263 30.2312 6.6821L31.1389 6.88324C36.588 8.09068 40.8839 12.2797 42.2292 17.6975C43.2569 21.8363 43.2569 26.1637 42.2292 30.3025C40.8839 35.7203 36.588 39.9093 31.1389 41.1168L30.2311 41.3179C26.1268 42.2274 21.8732 42.2274 17.7689 41.3179L16.8611 41.1168C11.412 39.9093 7.1161 35.7203 5.77079 30.3025C4.74307 26.1637 4.74307 21.8363 5.77079 17.6975Z" stroke="#F9F9F9" stroke-width="2.5"/>
<path fill-rule="evenodd" clip-rule="evenodd" d="M14.5003 12C14.9464 12 15.308 12.3504 15.308 12.7826V13.4229H15.3974C16.8995 13.4229 18 14.6882 18 16.1027C18 16.5349 17.6384 16.8853 17.1923 16.8853C16.7462 16.8853 16.3846 16.5349 16.3846 16.1027C16.3846 15.4216 15.8779 14.9881 15.3974 14.9881H15.308V17.4519L16.3985 17.8361C17.3895 18.1853 18 19.1349 18 20.1406C18 21.4207 17.0026 22.577 15.6277 22.577H15.308V23.2174C15.308 23.6496 14.9464 24 14.5003 24C14.0542 24 13.6926 23.6496 13.6926 23.2174V22.577H13.6026C12.1005 22.577 11 21.3117 11 19.8972C11 19.465 11.3616 19.1146 11.8077 19.1146C12.2538 19.1146 12.6154 19.465 12.6154 19.8972C12.6154 20.5783 13.1221 21.0118 13.6026 21.0118H13.6926V18.5482L12.6015 18.1638C11.6105 17.8146 11 16.865 11 15.8593C11 14.5792 11.9974 13.4229 13.3723 13.4229H13.6926V12.7826C13.6926 12.3504 14.0542 12 14.5003 12ZM13.6926 14.9881H13.3723C13.019 14.9881 12.6154 15.3127 12.6154 15.8593C12.6154 16.2774 12.8667 16.5917 13.1535 16.6928L13.6926 16.8827V14.9881ZM15.308 19.1174V21.0118H15.6277C15.981 21.0118 16.3846 20.6872 16.3846 20.1406C16.3846 19.7226 16.1333 19.4082 15.8465 19.3071L15.308 19.1174Z" fill="#F9F9F9"/>
<path fill-rule="evenodd" clip-rule="evenodd" d="M24.5003 24C24.9464 24 25.308 24.3504 25.308 24.7826V25.4229H25.3974C26.8995 25.4229 28 26.6882 28 28.1027C28 28.5349 27.6384 28.8853 27.1923 28.8853C26.7462 28.8853 26.3846 28.5349 26.3846 28.1027C26.3846 27.4216 25.8779 26.9881 25.3974 26.9881H25.308V29.4519L26.3985 29.8361C27.3895 30.1853 28 31.1349 28 32.1406C28 33.4207 27.0026 34.577 25.6277 34.577H25.308V35.2174C25.308 35.6496 24.9464 36 24.5003 36C24.0542 36 23.6926 35.6496 23.6926 35.2174V34.577H23.6026C22.1005 34.577 21 33.3117 21 31.8972C21 31.465 21.3616 31.1146 21.8077 31.1146C22.2538 31.1146 22.6154 31.465 22.6154 31.8972C22.6154 32.5783 23.1221 33.0118 23.6026 33.0118H23.6926V30.5482L22.6015 30.1638C21.6105 29.8146 21 28.865 21 27.8593C21 26.5792 21.9974 25.4229 23.3723 25.4229H23.6926V24.7826C23.6926 24.3504 24.0542 24 24.5003 24ZM23.6926 26.9881H23.3723C23.019 26.9881 22.6154 27.3127 22.6154 27.8593C22.6154 28.2774 22.8667 28.5917 23.1535 28.6928L23.6926 28.8827V26.9881ZM25.308 31.1174V33.0118H25.6277C25.981 33.0118 26.3846 32.6872 26.3846 32.1406C26.3846 31.7226 26.1333 31.4082 25.8465 31.3071L25.308 31.1174Z" fill="#F9F9F9"/>
<path fill-rule="evenodd" clip-rule="evenodd" d="M33.5003 12C33.9464 12 34.308 12.3504 34.308 12.7826V13.4229H34.3974C35.8995 13.4229 37 14.6882 37 16.1027C37 16.5349 36.6384 16.8853 36.1923 16.8853C35.7462 16.8853 35.3846 16.5349 35.3846 16.1027C35.3846 15.4216 34.8779 14.9881 34.3974 14.9881H34.308V17.4519L35.3985 17.8361C36.3895 18.1853 37 19.1349 37 20.1406C37 21.4207 36.0026 22.577 34.6277 22.577H34.308V23.2174C34.308 23.6496 33.9464 24 33.5003 24C33.0542 24 32.6926 23.6496 32.6926 23.2174V22.577H32.6026C31.1005 22.577 30 21.3117 30 19.8972C30 19.465 30.3616 19.1146 30.8077 19.1146C31.2538 19.1146 31.6154 19.465 31.6154 19.8972C31.6154 20.5783 32.1221 21.0118 32.6026 21.0118H32.6926V18.5482L31.6015 18.1638C30.6105 17.8146 30 16.865 30 15.8593C30 14.5792 30.9974 13.4229 32.3723 13.4229H32.6926V12.7826C32.6926 12.3504 33.0542 12 33.5003 12ZM32.6926 14.9881H32.3723C32.019 14.9881 31.6154 15.3127 31.6154 15.8593C31.6154 16.2774 31.8667 16.5917 32.1535 16.6928L32.6926 16.8827V14.9881ZM34.308 19.1174V21.0118H34.6277C34.981 21.0118 35.3846 20.6872 35.3846 20.1406C35.3846 19.7226 35.1333 19.4082 34.8465 19.3071L34.308 19.1174Z" fill="#F9F9F9"/>
</svg>
