<svg width="48" height="48" viewBox="0 0 48 48" fill="none" xmlns="http://www.w3.org/2000/svg">
<path d="M5.77079 17.6975C7.1161 12.2797 11.412 8.09068 16.8611 6.88324L17.7689 6.6821C21.8732 5.77263 26.1268 5.77263 30.2312 6.6821L31.1389 6.88324C36.588 8.09068 40.8839 12.2797 42.2292 17.6975C43.2569 21.8363 43.2569 26.1637 42.2292 30.3025C40.8839 35.7203 36.588 39.9093 31.1389 41.1168L30.2311 41.3179C26.1268 42.2274 21.8732 42.2274 17.7689 41.3179L16.8611 41.1168C11.412 39.9093 7.1161 35.7203 5.77079 30.3025C4.74307 26.1637 4.74307 21.8363 5.77079 17.6975Z" stroke="#F9F9F9" stroke-width="2.5"/>
<path fill-rule="evenodd" clip-rule="evenodd" d="M24.0005 14C24.7652 14 25.3851 14.584 25.3851 15.3043V16.3715H25.5385C28.1134 16.3715 30 18.4803 30 20.8379C30 21.5582 29.3801 22.1422 28.6154 22.1422C27.8507 22.1422 27.2308 21.5582 27.2308 20.8379C27.2308 19.7027 26.3622 18.9802 25.5385 18.9802H25.3851V23.0865L27.2546 23.7269C28.9534 24.3088 30 25.8915 30 27.5676C30 29.7012 28.2902 31.6284 25.9332 31.6284H25.3851V32.6957C25.3851 33.416 24.7652 34 24.0005 34C23.2358 34 22.6159 33.416 22.6159 32.6957V31.6284H22.4615C19.8866 31.6284 18 29.5196 18 27.162C18 26.4416 18.6199 25.8576 19.3846 25.8576C20.1493 25.8576 20.7692 26.4416 20.7692 27.162C20.7692 28.2971 21.6378 29.0197 22.4615 29.0197H22.6159V24.9137L20.7454 24.273C19.0466 23.691 18 22.1084 18 20.4322C18 18.2987 19.7098 16.3715 22.0668 16.3715H22.6159V15.3043C22.6159 14.584 23.2358 14 24.0005 14ZM22.6159 18.9802H22.0668C21.4611 18.9802 20.7692 19.5211 20.7692 20.4322C20.7692 21.1289 21.2001 21.6529 21.6918 21.8213L22.6159 22.1379V18.9802ZM25.3851 25.8623V29.0197H25.9332C26.5389 29.0197 27.2308 28.4787 27.2308 27.5676C27.2308 26.8709 26.7999 26.3469 26.3082 26.1785L25.3851 25.8623Z" fill="#F9F9F9"/>
</svg>
