<svg width="45" height="52" viewBox="0 0 45 52" fill="none" xmlns="http://www.w3.org/2000/svg">
<path d="M9.55078 0C7.77832 0 6.32812 1.4436 6.32812 3.20801V48.1201C6.32812 49.8845 7.77832 51.3281 9.55078 51.3281H41.7773C43.5498 51.3281 45 49.8845 45 48.1201V12.832L32.1094 0H9.55078Z" fill="#0E713D"/>
<path d="M35.5078 12.6562H45L32.3438 0V9.49219C32.3438 11.2324 33.7676 12.6562 35.5078 12.6562Z" fill="#0E542F"/>
<path d="M45 22.5L35.1562 12.6562H45V22.5Z" fill="#136339"/>
<path d="M38.6719 42.0117C38.6719 42.8818 37.9468 43.5938 37.0605 43.5938H1.61133C0.725098 43.5938 0 42.8818 0 42.0117V26.1914C0 25.3213 0.725098 24.6094 1.61133 24.6094H37.0605C37.9468 24.6094 38.6719 25.3213 38.6719 26.1914V42.0117Z" fill="#0B4828"/>
<path d="M11.2616 32.7003L13.4928 29.905C14.16 29.0325 15.4561 30.1471 14.7246 30.9811C13.9563 31.892 13.1479 32.8799 12.378 33.8918L14.9941 37.149C15.6999 38.1112 14.29 39.0333 13.597 38.0839L11.236 35.0577L8.91497 38.1497C8.26054 39.0847 6.81052 38.0342 7.54195 37.1618L10.1196 33.8918C9.31115 32.8783 8.5284 31.892 7.74726 30.9811C6.94045 30.0188 8.44019 29.0325 9.03046 29.9322L11.2616 32.7003Z" fill="white"/>
<path d="M16.5771 30.3902C16.5771 29.9667 16.9364 29.6074 17.3856 29.6074C17.7962 29.6074 18.1427 29.9683 18.1427 30.3902V36.8158H21.6314C22.8873 36.8158 22.9146 38.4952 21.6314 38.4952H17.3872C16.938 38.4952 16.5788 38.176 16.5788 37.7141V30.3902H16.5771Z" fill="white"/>
<path d="M24.0632 31.5452C24.3584 29.0558 28.1149 28.6083 29.8858 29.9685C30.7583 30.6726 29.8344 31.789 29.0645 31.2244C28.1149 30.6229 25.9608 30.3406 25.6913 31.6719C25.3448 33.7764 30.9236 32.5718 30.8337 35.9835C30.7439 39.2412 26.0249 39.3166 24.2541 37.8553C23.829 37.5089 23.8435 36.9459 24.0745 36.5978C24.4081 36.2658 24.7786 36.1503 25.2165 36.5096C26.2671 37.2266 28.9747 37.7655 29.1656 35.9434C29.0004 34.0474 23.6654 35.1879 24.0632 31.5452Z" fill="white"/>
<path d="M37.0547 43.2422H6.32812V45H37.0547C37.9441 45 38.6719 44.209 38.6719 43.2422V41.4844C38.6719 42.4512 37.9441 43.2422 37.0547 43.2422Z" fill="#136339"/>
</svg>
