<svg width="116" height="44" viewBox="0 0 116 44" fill="none" xmlns="http://www.w3.org/2000/svg">
<path d="M17.0422 28.2323H13.5649V11.6562H17.0422V28.2323Z" fill="#272727"/>
<path d="M19.5638 28.2323V15.5849H22.8108V17.8478H22.8799C23.6244 16.2167 24.9831 15.4011 26.9559 15.4011C28.3606 15.4011 29.4621 15.8184 30.2604 16.6532C31.0664 17.4879 31.4694 18.6443 31.4694 20.1223V28.2323H28.1073V20.823C28.1073 19.9806 27.8885 19.3335 27.451 18.8817C27.0211 18.4222 26.4109 18.1925 25.6202 18.1925C24.8142 18.1925 24.1618 18.4528 23.6628 18.9736C23.1715 19.4943 22.9259 20.1759 22.9259 21.0183V28.2323H19.5638Z" fill="#272727"/>
<path d="M45.1366 15.5849L40.7613 28.2323H36.9846L32.5863 15.5849H36.1787L38.873 25.2341H38.942L41.6248 15.5849H45.1366Z" fill="#272727"/>
<path d="M51.6767 17.8708C50.909 17.8708 50.2681 18.1235 49.7538 18.629C49.2472 19.1344 48.9632 19.793 48.9017 20.6048H54.371C54.3402 19.7777 54.0793 19.1153 53.588 18.6175C53.0967 18.1197 52.4596 17.8708 51.6767 17.8708ZM54.417 24.3726H57.5143C57.3301 25.5979 56.7122 26.5858 55.6605 27.3363C54.6089 28.0791 53.3117 28.4505 51.7688 28.4505C49.8421 28.4505 48.3222 27.8723 47.2092 26.7159C46.1038 25.5596 45.5511 23.9743 45.5511 21.9603C45.5511 19.9462 46.1 18.3456 47.1977 17.1586C48.303 15.9639 49.7845 15.3666 51.6421 15.3666C53.469 15.3666 54.9198 15.9333 55.9944 17.0667C57.0768 18.2001 57.6179 19.7279 57.6179 21.6501V22.6839H48.8672V22.8907C48.8672 23.802 49.1397 24.541 49.6847 25.1077C50.2297 25.6668 50.9436 25.9463 51.8263 25.9463C52.4634 25.9463 53.0123 25.8085 53.4729 25.5328C53.9411 25.2494 54.2558 24.8627 54.417 24.3726Z" fill="#272727"/>
<path d="M59.2069 19.3067C59.2069 18.1197 59.6905 17.1663 60.6577 16.4464C61.6248 15.7265 62.9106 15.3666 64.5149 15.3666C66.0808 15.3666 67.3435 15.7342 68.303 16.4694C69.2625 17.1969 69.7538 18.1657 69.7768 19.3756H66.668C66.6296 18.8779 66.4147 18.4835 66.0232 18.1925C65.6318 17.8938 65.1136 17.7445 64.4688 17.7445C63.8624 17.7445 63.375 17.8708 63.0065 18.1235C62.6381 18.3686 62.4539 18.6941 62.4539 19.0999C62.4539 19.7203 63.018 20.1606 64.1464 20.421L66.5299 20.9379C67.8041 21.2289 68.7137 21.6386 69.2587 22.167C69.8114 22.6954 70.0877 23.4306 70.0877 24.3726C70.0877 25.5979 69.5734 26.5858 68.5448 27.3363C67.5162 28.0791 66.1691 28.4505 64.5034 28.4505C62.853 28.4505 61.5251 28.0868 60.5195 27.3592C59.5216 26.624 58.9804 25.64 58.896 24.407H62.1775C62.262 24.9431 62.5114 25.3566 62.9259 25.6476C63.3404 25.931 63.897 26.0727 64.5955 26.0727C65.2633 26.0727 65.7891 25.954 66.1729 25.7166C66.5567 25.4715 66.7486 25.1422 66.7486 24.7287C66.7486 24.3994 66.6258 24.139 66.3802 23.9475C66.1422 23.7561 65.7354 23.5914 65.1597 23.4536L62.8223 22.9252C60.412 22.3814 59.2069 21.1753 59.2069 19.3067Z" fill="#272727"/>
<path d="M72.736 12.7705H76.0981V15.5849H78.447V18.1235H76.0981V24.2692C76.0981 25.2341 76.6009 25.7166 77.6064 25.7166C77.9365 25.7166 78.2167 25.6974 78.447 25.6591V28.1404C77.9864 28.2323 77.4452 28.2782 76.8235 28.2782C75.3573 28.2782 74.3096 28.0102 73.6801 27.4741C73.0507 26.938 72.736 26.0535 72.736 24.8206V18.1235H71.0204V15.5849H72.736V12.7705Z" fill="#272727"/>
<path d="M85.9772 28.4505C84.0505 28.4505 82.5268 27.8685 81.4061 26.7045C80.2854 25.5404 79.725 23.9399 79.725 21.9028C79.725 19.8887 80.2892 18.2958 81.4176 17.1241C82.546 15.9525 84.0658 15.3666 85.9772 15.3666C87.8962 15.3666 89.4161 15.9525 90.5368 17.1241C91.6652 18.2882 92.2293 19.8811 92.2293 21.9028C92.2293 23.9475 91.669 25.5519 90.5483 26.7159C89.4353 27.8723 87.9116 28.4505 85.9772 28.4505ZM83.8816 24.832C84.3882 25.5213 85.0868 25.8659 85.9772 25.8659C86.8676 25.8659 87.5623 25.5213 88.0612 24.832C88.5602 24.1352 88.8097 23.1587 88.8097 21.9028C88.8097 20.6622 88.5564 19.6934 88.0497 18.9966C87.5508 18.292 86.8599 17.9397 85.9772 17.9397C85.0868 17.9397 84.3882 18.292 83.8816 18.9966C83.3827 19.6934 83.1332 20.6622 83.1332 21.9028C83.1332 23.1587 83.3827 24.1352 83.8816 24.832Z" fill="#272727"/>
<path d="M94.0371 28.2323V15.5849H97.284V17.8478H97.3531C97.5681 17.0744 97.9365 16.4809 98.4585 16.0673C98.9805 15.6461 99.6176 15.4355 100.37 15.4355C100.746 15.4355 101.061 15.4777 101.314 15.5619V18.5371C101.015 18.3992 100.612 18.3303 100.105 18.3303C99.253 18.3303 98.589 18.5792 98.1131 19.077C97.6371 19.5747 97.3992 20.2678 97.3992 21.1561V28.2323H94.0371Z" fill="#272727"/>
<path d="M104.4 32.8501C103.717 32.8501 103.291 32.8348 103.122 32.8042V30.208C103.237 30.231 103.49 30.2425 103.882 30.2425C104.519 30.2425 105.018 30.1238 105.378 29.8864C105.747 29.6567 105.996 29.2929 106.127 28.7951L106.242 28.3127L101.798 15.5849H105.482L108.222 25.5098H108.292L111.043 15.5849H114.59L110.203 28.485C109.666 30.0932 108.959 31.2228 108.084 31.8737C107.217 32.5246 105.989 32.8501 104.4 32.8501Z" fill="#272727"/>
<ellipse cx="114.622" cy="27.2715" rx="1.37822" ry="1.375" fill="#272727"/>
<path d="M49.9946 33.5684L49.3697 35.6795H48.8588L47.9902 32.8986H48.5287L49.1143 35.0098H49.1221L49.7431 32.8986H50.2658L50.8868 35.0098H50.8946L51.4841 32.8986H52.0068L51.1383 35.6795H50.6274L50.0025 33.5684H49.9946Z" fill="#272727"/>
<path d="M52.9087 33.5684C52.7331 33.7512 52.6453 33.9914 52.6453 34.2891C52.6453 34.5867 52.7331 34.827 52.9087 35.0098C53.0842 35.1925 53.3095 35.2839 53.5847 35.2839C53.8598 35.2839 54.0851 35.1925 54.2606 35.0098C54.4362 34.827 54.524 34.5867 54.524 34.2891C54.524 33.9914 54.4362 33.7512 54.2606 33.5684C54.0851 33.3856 53.8598 33.2942 53.5847 33.2942C53.3095 33.2942 53.0842 33.3856 52.9087 33.5684ZM52.5471 35.327C52.2772 35.0502 52.1423 34.7042 52.1423 34.2891C52.1423 33.8739 52.2772 33.5292 52.5471 33.255C52.817 32.9782 53.1628 32.8398 53.5847 32.8398C54.0065 32.8398 54.3523 32.9782 54.6222 33.255C54.8921 33.5292 55.027 33.8739 55.027 34.2891C55.027 34.7042 54.8921 35.0502 54.6222 35.327C54.3523 35.6012 54.0065 35.7383 53.5847 35.7383C53.1628 35.7383 52.817 35.6012 52.5471 35.327Z" fill="#272727"/>
<path d="M57.7751 35.6795H57.217L56.651 34.5828H56.0104V35.6795H55.5349V32.8986H56.7611C57.0598 32.8986 57.2877 32.9756 57.4449 33.1297C57.6021 33.2837 57.6807 33.4874 57.6807 33.7407C57.6807 33.9313 57.6349 34.0958 57.5432 34.2342C57.4515 34.37 57.3152 34.4666 57.1344 34.5241L57.7751 35.6795ZM57.0912 34.0345C57.1646 33.9614 57.2012 33.8634 57.2012 33.7407C57.2012 33.618 57.1646 33.5201 57.0912 33.4469C57.0178 33.3738 56.9091 33.3373 56.765 33.3373H56.0104V34.1441H56.765C56.9091 34.1441 57.0178 34.1076 57.0912 34.0345Z" fill="#272727"/>
<path d="M59.9478 35.2408V35.6795H58.1793V32.8986H58.6548V35.2408H59.9478Z" fill="#272727"/>
<path d="M61.2681 35.6795H60.3209V32.8986H61.2681C61.7397 32.8986 62.1065 33.0265 62.3685 33.2824C62.6331 33.5357 62.7655 33.8713 62.7655 34.2891C62.7655 34.7069 62.6331 35.0437 62.3685 35.2996C62.1065 35.5529 61.7397 35.6795 61.2681 35.6795ZM62.0069 34.9902C62.1772 34.8204 62.2624 34.5867 62.2624 34.2891C62.2624 33.9914 62.1772 33.759 62.0069 33.5919C61.8392 33.4221 61.5877 33.3373 61.2523 33.3373H60.7964V35.2408H61.2523C61.5877 35.2408 61.8392 35.1573 62.0069 34.9902Z" fill="#272727"/>
<path d="M64.3688 34.4457V34.8805H63.119V34.4457H64.3688Z" fill="#272727"/>
<path d="M64.7195 34.2851C64.7195 33.8595 64.8492 33.5122 65.1086 33.2433C65.3706 32.9743 65.706 32.8398 66.1147 32.8398C66.4632 32.8398 66.7593 32.9365 67.003 33.1297C67.2466 33.3229 67.3973 33.584 67.4549 33.913H66.9479C66.9008 33.7198 66.8025 33.5684 66.6532 33.4587C66.5064 33.349 66.327 33.2942 66.1147 33.2942C65.837 33.2942 65.6182 33.3843 65.4584 33.5645C65.3012 33.742 65.2226 33.9822 65.2226 34.2851C65.2226 34.588 65.3012 34.8296 65.4584 35.0098C65.6182 35.1899 65.837 35.28 66.1147 35.28C66.327 35.28 66.5064 35.2252 66.6532 35.1155C66.8025 35.0058 66.9008 34.8544 66.9479 34.6612H67.4549C67.3973 34.9902 67.2466 35.2513 67.003 35.4445C66.7593 35.6377 66.4632 35.7344 66.1147 35.7344C65.706 35.7344 65.3706 35.5999 65.1086 35.3309C64.8492 35.062 64.7195 34.7134 64.7195 34.2851Z" fill="#272727"/>
<path d="M69.7041 35.2408V35.6795H67.9356V32.8986H68.4111V35.2408H69.7041Z" fill="#272727"/>
<path d="M70.2501 35.6795H69.7471L70.8278 32.8986H71.3348L72.4196 35.6795H71.9008L71.7003 35.1429H70.4506L70.2501 35.6795ZM71.0794 33.4861H71.0715L70.6078 34.7121H71.5431L71.0794 33.4861Z" fill="#272727"/>
<path d="M73.6062 35.3074C73.7974 35.3074 73.9455 35.2748 74.0503 35.2095C74.1551 35.1416 74.2075 35.045 74.2075 34.9197C74.2075 34.8283 74.1786 34.7539 74.121 34.6964C74.0634 34.639 73.9887 34.5959 73.897 34.5672C73.8053 34.5384 73.7044 34.5136 73.5944 34.4927C73.4843 34.4692 73.373 34.4418 73.2603 34.4105C73.1503 34.3765 73.0494 34.3335 72.9577 34.2812C72.866 34.229 72.7913 34.1507 72.7337 34.0462C72.676 33.9418 72.6472 33.8138 72.6472 33.6624C72.6472 33.4326 72.7376 33.2381 72.9184 33.0788C73.1018 32.9195 73.3441 32.8398 73.6455 32.8398C73.9625 32.8398 74.2088 32.926 74.3843 33.0984C74.5625 33.2681 74.6542 33.4887 74.6594 33.7603H74.1917C74.1891 33.6167 74.1407 33.4992 74.0463 33.4078C73.952 33.3138 73.8184 33.2668 73.6455 33.2668C73.4804 33.2668 73.3507 33.3007 73.2564 33.3686C73.1647 33.4339 73.1188 33.5279 73.1188 33.6506C73.1188 33.7316 73.1476 33.7995 73.2053 33.8543C73.2629 33.9065 73.3376 33.947 73.4293 33.9757C73.5236 34.0018 73.6258 34.0266 73.7359 34.0501C73.8485 34.071 73.9599 34.0998 74.0699 34.1363C74.1826 34.1703 74.2848 34.2159 74.3765 34.2734C74.4708 34.3282 74.5468 34.4092 74.6044 34.5162C74.6621 34.6207 74.6909 34.7486 74.6909 34.9001C74.6909 35.1534 74.59 35.3557 74.3883 35.5072C74.1865 35.6586 73.9179 35.7344 73.5826 35.7344C73.2393 35.7344 72.9813 35.6443 72.8083 35.4641C72.6354 35.2839 72.545 35.0659 72.5372 34.81H73.0088C73.0193 34.9641 73.0756 35.0855 73.1778 35.1743C73.28 35.263 73.4228 35.3074 73.6062 35.3074Z" fill="#272727"/>
<path d="M76.0049 35.3074C76.1962 35.3074 76.3442 35.2748 76.449 35.2095C76.5538 35.1416 76.6062 35.045 76.6062 34.9197C76.6062 34.8283 76.5774 34.7539 76.5198 34.6964C76.4621 34.639 76.3875 34.5959 76.2958 34.5672C76.2041 34.5384 76.1032 34.5136 75.9931 34.4927C75.8831 34.4692 75.7717 34.4418 75.6591 34.4105C75.549 34.3765 75.4482 34.3335 75.3565 34.2812C75.2648 34.229 75.1901 34.1507 75.1324 34.0462C75.0748 33.9418 75.046 33.8138 75.046 33.6624C75.046 33.4326 75.1364 33.2381 75.3172 33.0788C75.5006 32.9195 75.7429 32.8398 76.0442 32.8398C76.3613 32.8398 76.6076 32.926 76.7831 33.0984C76.9613 33.2681 77.053 33.4887 77.0582 33.7603H76.5905C76.5879 33.6167 76.5394 33.4992 76.4451 33.4078C76.3508 33.3138 76.2172 33.2668 76.0442 33.2668C75.8792 33.2668 75.7495 33.3007 75.6551 33.3686C75.5634 33.4339 75.5176 33.5279 75.5176 33.6506C75.5176 33.7316 75.5464 33.7995 75.6041 33.8543C75.6617 33.9065 75.7364 33.947 75.8281 33.9757C75.9224 34.0018 76.0246 34.0266 76.1346 34.0501C76.2473 34.071 76.3586 34.0998 76.4687 34.1363C76.5814 34.1703 76.6835 34.2159 76.7752 34.2734C76.8696 34.3282 76.9455 34.4092 77.0032 34.5162C77.0608 34.6207 77.0896 34.7486 77.0896 34.9001C77.0896 35.1534 76.9888 35.3557 76.787 35.5072C76.5853 35.6586 76.3167 35.7344 75.9813 35.7344C75.6381 35.7344 75.38 35.6443 75.2071 35.4641C75.0342 35.2839 74.9438 35.0659 74.9359 34.81H75.4075C75.418 34.9641 75.4744 35.0855 75.5765 35.1743C75.6787 35.263 75.8215 35.3074 76.0049 35.3074Z" fill="#272727"/>
<path d="M79.5244 35.3074C79.7157 35.3074 79.8637 35.2748 79.9685 35.2095C80.0733 35.1416 80.1257 35.045 80.1257 34.9197C80.1257 34.8283 80.0969 34.7539 80.0393 34.6964C79.9816 34.639 79.9069 34.5959 79.8152 34.5672C79.7235 34.5384 79.6227 34.5136 79.5126 34.4927C79.4026 34.4692 79.2912 34.4418 79.1786 34.4105C79.0685 34.3765 78.9676 34.3335 78.8759 34.2812C78.7842 34.229 78.7096 34.1507 78.6519 34.0462C78.5943 33.9418 78.5655 33.8138 78.5655 33.6624C78.5655 33.4326 78.6558 33.2381 78.8366 33.0788C79.02 32.9195 79.2624 32.8398 79.5637 32.8398C79.8807 32.8398 80.127 32.926 80.3026 33.0984C80.4807 33.2681 80.5724 33.4887 80.5777 33.7603H80.11C80.1074 33.6167 80.0589 33.4992 79.9646 33.4078C79.8703 33.3138 79.7366 33.2668 79.5637 33.2668C79.3986 33.2668 79.269 33.3007 79.1746 33.3686C79.0829 33.4339 79.0371 33.5279 79.0371 33.6506C79.0371 33.7316 79.0659 33.7995 79.1235 33.8543C79.1812 33.9065 79.2558 33.947 79.3476 33.9757C79.4419 34.0018 79.5441 34.0266 79.6541 34.0501C79.7668 34.071 79.8781 34.0998 79.9882 34.1363C80.1008 34.1703 80.203 34.2159 80.2947 34.2734C80.389 34.3282 80.465 34.4092 80.5227 34.5162C80.5803 34.6207 80.6091 34.7486 80.6091 34.9001C80.6091 35.1534 80.5083 35.3557 80.3065 35.5072C80.1048 35.6586 79.8362 35.7344 79.5008 35.7344C79.1576 35.7344 78.8995 35.6443 78.7266 35.4641C78.5537 35.2839 78.4633 35.0659 78.4554 34.81H78.927C78.9375 34.9641 78.9938 35.0855 79.096 35.1743C79.1982 35.263 79.341 35.3074 79.5244 35.3074Z" fill="#272727"/>
<path d="M81.74 33.5684C81.5645 33.7512 81.4767 33.9914 81.4767 34.2891C81.4767 34.5867 81.5645 34.827 81.74 35.0098C81.9156 35.1925 82.1409 35.2839 82.416 35.2839C82.6911 35.2839 82.9164 35.1925 83.092 35.0098C83.2675 34.827 83.3553 34.5867 83.3553 34.2891C83.3553 33.9914 83.2675 33.7512 83.092 33.5684C82.9164 33.3856 82.6911 33.2942 82.416 33.2942C82.1409 33.2942 81.9156 33.3856 81.74 33.5684ZM81.3784 35.327C81.1086 35.0502 80.9736 34.7042 80.9736 34.2891C80.9736 33.8739 81.1086 33.5292 81.3784 33.255C81.6483 32.9782 81.9942 32.8398 82.416 32.8398C82.8378 32.8398 83.1837 32.9782 83.4535 33.255C83.7234 33.5292 83.8584 33.8739 83.8584 34.2891C83.8584 34.7042 83.7234 35.0502 83.4535 35.327C83.1837 35.6012 82.8378 35.7383 82.416 35.7383C81.9942 35.7383 81.6483 35.6012 81.3784 35.327Z" fill="#272727"/>
<path d="M86.1348 35.2408V35.6795H84.3662V32.8986H84.8418V35.2408H86.1348Z" fill="#272727"/>
<path d="M88.3002 35.4289C88.0827 35.6351 87.805 35.7383 87.467 35.7383C87.129 35.7383 86.8513 35.6351 86.6338 35.4289C86.4163 35.2226 86.3076 34.9249 86.3076 34.5358V32.8986H86.7832V34.5554C86.7832 34.7852 86.8408 34.9667 86.9561 35.0998C87.074 35.233 87.2443 35.2996 87.467 35.2996C87.6897 35.2996 87.8587 35.233 87.974 35.0998C88.0919 34.9667 88.1508 34.7852 88.1508 34.5554V32.8986H88.6264V34.5358C88.6264 34.9249 88.5177 35.2226 88.3002 35.4289Z" fill="#272727"/>
<path d="M91.0479 32.8986V33.349H90.2383V35.6795H89.7628V33.349H88.9531V32.8986H91.0479Z" fill="#272727"/>
<path d="M91.8807 32.8986V35.6795H91.4052V32.8986H91.8807Z" fill="#272727"/>
<path d="M93.1543 33.5684C92.9788 33.7512 92.891 33.9914 92.891 34.2891C92.891 34.5867 92.9788 34.827 93.1543 35.0098C93.3299 35.1925 93.5552 35.2839 93.8303 35.2839C94.1054 35.2839 94.3307 35.1925 94.5063 35.0098C94.6818 34.827 94.7696 34.5867 94.7696 34.2891C94.7696 33.9914 94.6818 33.7512 94.5063 33.5684C94.3307 33.3856 94.1054 33.2942 93.8303 33.2942C93.5552 33.2942 93.3299 33.3856 93.1543 33.5684ZM92.7928 35.327C92.5229 35.0502 92.3879 34.7042 92.3879 34.2891C92.3879 33.8739 92.5229 33.5292 92.7928 33.255C93.0626 32.9782 93.4085 32.8398 93.8303 32.8398C94.2521 32.8398 94.598 32.9782 94.8679 33.255C95.1377 33.5292 95.2727 33.8739 95.2727 34.2891C95.2727 34.7042 95.1377 35.0502 94.8679 35.327C94.598 35.6012 94.2521 35.7383 93.8303 35.7383C93.4085 35.7383 93.0626 35.6012 92.7928 35.327Z" fill="#272727"/>
<path d="M96.2482 33.682V35.6795H95.7805V32.8986H96.2639L97.6198 34.9001V32.8986H98.0875V35.6795H97.6002L96.2482 33.682Z" fill="#272727"/>
<path d="M36.3369 32.7731C33.0636 37.0837 27.8792 39.875 22.0516 39.875C12.172 39.875 4.13467 31.8565 4.13467 22C4.13467 12.1435 12.172 4.125 22.0516 4.125C27.8539 4.125 33.0199 6.89333 36.2955 11.1742H41.2502C37.4647 4.50312 30.2865 0 22.0516 0C9.87267 0 0 9.84958 0 22C0 34.1504 9.87267 44 22.0516 44C30.3071 44 37.5015 39.474 41.2824 32.7731H36.3369Z" fill="#A437BF"/>
</svg>
