<svg width="116" height="44" viewBox="0 0 116 44" fill="none" xmlns="http://www.w3.org/2000/svg">
<path d="M17.0422 28.2313H13.5649V11.6553H17.0422V28.2313Z" fill="#272727"/>
<path d="M19.5638 28.2313V15.5839H22.8108V17.8469H22.8799C23.6244 16.2157 24.9831 15.4001 26.9559 15.4001C28.3606 15.4001 29.4621 15.8175 30.2604 16.6522C31.0664 17.4869 31.4694 18.6433 31.4694 20.1213V28.2313H28.1073V20.822C28.1073 19.9797 27.8885 19.3325 27.451 18.8807C27.0211 18.4212 26.4109 18.1915 25.6202 18.1915C24.8142 18.1915 24.1618 18.4519 23.6628 18.9726C23.1715 19.4934 22.9259 20.1749 22.9259 21.0173V28.2313H19.5638Z" fill="#272727"/>
<path d="M45.1366 15.5839L40.7613 28.2313H36.9846L32.5863 15.5839H36.1787L38.873 25.2331H38.942L41.6248 15.5839H45.1366Z" fill="#272727"/>
<path d="M51.6767 17.8698C50.909 17.8698 50.2681 18.1226 49.7538 18.628C49.2472 19.1334 48.9632 19.792 48.9017 20.6038H54.371C54.3402 19.7767 54.0793 19.1143 53.588 18.6165C53.0967 18.1187 52.4596 17.8698 51.6767 17.8698ZM54.417 24.3716H57.5143C57.3301 25.5969 56.7122 26.5848 55.6605 27.3353C54.6089 28.0781 53.3117 28.4495 51.7688 28.4495C49.8421 28.4495 48.3222 27.8713 47.2092 26.715C46.1038 25.5586 45.5511 23.9734 45.5511 21.9593C45.5511 19.9452 46.1 18.3446 47.1977 17.1576C48.303 15.963 49.7845 15.3656 51.6421 15.3656C53.469 15.3656 54.9198 15.9323 55.9944 17.0657C57.0768 18.1991 57.6179 19.7269 57.6179 21.6491V22.683H48.8672V22.8897C48.8672 23.8011 49.1397 24.5401 49.6847 25.1068C50.2297 25.6658 50.9436 25.9453 51.8263 25.9453C52.4634 25.9453 53.0123 25.8075 53.4729 25.5318C53.9411 25.2484 54.2558 24.8617 54.417 24.3716Z" fill="#272727"/>
<path d="M59.2069 19.3057C59.2069 18.1187 59.6905 17.1653 60.6577 16.4454C61.6248 15.7256 62.9106 15.3656 64.5149 15.3656C66.0808 15.3656 67.3435 15.7332 68.303 16.4684C69.2625 17.1959 69.7538 18.1647 69.7768 19.3747H66.668C66.6296 18.8769 66.4147 18.4825 66.0232 18.1915C65.6318 17.8928 65.1136 17.7435 64.4688 17.7435C63.8624 17.7435 63.375 17.8698 63.0065 18.1226C62.6381 18.3676 62.4539 18.6931 62.4539 19.099C62.4539 19.7193 63.018 20.1596 64.1464 20.42L66.5299 20.9369C67.8041 21.2279 68.7137 21.6376 69.2587 22.166C69.8114 22.6945 70.0877 23.4296 70.0877 24.3716C70.0877 25.5969 69.5734 26.5848 68.5448 27.3353C67.5162 28.0781 66.1691 28.4495 64.5034 28.4495C62.853 28.4495 61.5251 28.0858 60.5195 27.3583C59.5216 26.6231 58.9804 25.639 58.896 24.406H62.1775C62.262 24.9421 62.5114 25.3557 62.9259 25.6467C63.3404 25.93 63.897 26.0717 64.5955 26.0717C65.2633 26.0717 65.7891 25.953 66.1729 25.7156C66.5567 25.4705 66.7486 25.1412 66.7486 24.7277C66.7486 24.3984 66.6258 24.138 66.3802 23.9466C66.1422 23.7551 65.7354 23.5905 65.1597 23.4526L62.8223 22.9242C60.412 22.3805 59.2069 21.1743 59.2069 19.3057Z" fill="#272727"/>
<path d="M72.736 12.7695H76.0981V15.5839H78.447V18.1226H76.0981V24.2682C76.0981 25.2331 76.6009 25.7156 77.6064 25.7156C77.9365 25.7156 78.2167 25.6964 78.447 25.6581V28.1394C77.9864 28.2313 77.4452 28.2772 76.8235 28.2772C75.3573 28.2772 74.3096 28.0092 73.6801 27.4731C73.0507 26.9371 72.736 26.0525 72.736 24.8196V18.1226H71.0204V15.5839H72.736V12.7695Z" fill="#272727"/>
<path d="M85.9772 28.4495C84.0505 28.4495 82.5268 27.8675 81.4061 26.7035C80.2854 25.5394 79.725 23.9389 79.725 21.9018C79.725 19.8878 80.2892 18.2949 81.4176 17.1232C82.546 15.9515 84.0658 15.3656 85.9772 15.3656C87.8962 15.3656 89.4161 15.9515 90.5368 17.1232C91.6652 18.2872 92.2293 19.8801 92.2293 21.9018C92.2293 23.9466 91.669 25.5509 90.5483 26.715C89.4353 27.8713 87.9116 28.4495 85.9772 28.4495ZM83.8816 24.8311C84.3882 25.5203 85.0868 25.8649 85.9772 25.8649C86.8676 25.8649 87.5623 25.5203 88.0612 24.8311C88.5602 24.1342 88.8097 23.1578 88.8097 21.9018C88.8097 20.6612 88.5564 19.6925 88.0497 18.9956C87.5508 18.291 86.8599 17.9388 85.9772 17.9388C85.0868 17.9388 84.3882 18.291 83.8816 18.9956C83.3827 19.6925 83.1332 20.6612 83.1332 21.9018C83.1332 23.1578 83.3827 24.1342 83.8816 24.8311Z" fill="#272727"/>
<path d="M94.0371 28.2313V15.5839H97.284V17.8469H97.3531C97.5681 17.0734 97.9365 16.4799 98.4585 16.0664C98.9805 15.6452 99.6176 15.4346 100.37 15.4346C100.746 15.4346 101.061 15.4767 101.314 15.5609V18.5361C101.015 18.3982 100.612 18.3293 100.105 18.3293C99.253 18.3293 98.589 18.5782 98.1131 19.076C97.6371 19.5738 97.3992 20.2668 97.3992 21.1552V28.2313H94.0371Z" fill="#272727"/>
<path d="M104.4 32.8491C103.717 32.8491 103.291 32.8338 103.122 32.8032V30.2071C103.237 30.23 103.49 30.2415 103.882 30.2415C104.519 30.2415 105.018 30.1228 105.378 29.8854C105.747 29.6557 105.996 29.2919 106.127 28.7941L106.242 28.3117L101.798 15.5839H105.482L108.222 25.5088H108.292L111.043 15.5839H114.59L110.203 28.484C109.666 30.0922 108.959 31.2218 108.084 31.8727C107.217 32.5237 105.989 32.8491 104.4 32.8491Z" fill="#272727"/>
<ellipse cx="114.622" cy="27.2715" rx="1.37822" ry="1.375" fill="#272727"/>
<path d="M49.9946 33.5682L49.3697 35.6816H48.8587L47.9902 32.8977H48.5286L49.1142 35.0111H49.1221L49.743 32.8977H50.2657L50.8867 35.0111H50.8946L51.4841 32.8977H52.0068L51.1382 35.6816H50.6273L50.0024 33.5682H49.9946Z" fill="#272727"/>
<path d="M52.9086 33.5682C52.7331 33.7511 52.6453 33.9916 52.6453 34.2896C52.6453 34.5876 52.7331 34.8281 52.9086 35.0111C53.0842 35.1941 53.3095 35.2855 53.5846 35.2855C53.8597 35.2855 54.085 35.1941 54.2606 35.0111C54.4361 34.8281 54.5239 34.5876 54.5239 34.2896C54.5239 33.9916 54.4361 33.7511 54.2606 33.5682C54.085 33.3852 53.8597 33.2937 53.5846 33.2937C53.3095 33.2937 53.0842 33.3852 52.9086 33.5682ZM52.547 35.3287C52.2772 35.0516 52.1422 34.7052 52.1422 34.2896C52.1422 33.874 52.2772 33.529 52.547 33.2545C52.8169 32.9774 53.1628 32.8389 53.5846 32.8389C54.0064 32.8389 54.3523 32.9774 54.6221 33.2545C54.892 33.529 55.027 33.874 55.027 34.2896C55.027 34.7052 54.892 35.0516 54.6221 35.3287C54.3523 35.6031 54.0064 35.7404 53.5846 35.7404C53.1628 35.7404 52.8169 35.6031 52.547 35.3287Z" fill="#272727"/>
<path d="M57.775 35.6816H57.2169L56.651 34.5837H56.0104V35.6816H55.5348V32.8977H56.761C57.0597 32.8977 57.2877 32.9748 57.4449 33.129C57.6021 33.2832 57.6807 33.4871 57.6807 33.7407C57.6807 33.9315 57.6348 34.0962 57.5431 34.2347C57.4514 34.3707 57.3152 34.4674 57.1344 34.5249L57.775 35.6816ZM57.0911 34.0348C57.1645 33.9616 57.2012 33.8635 57.2012 33.7407C57.2012 33.6178 57.1645 33.5198 57.0911 33.4466C57.0178 33.3734 56.909 33.3368 56.7649 33.3368H56.0104V34.1445H56.7649C56.909 34.1445 57.0178 34.108 57.0911 34.0348Z" fill="#272727"/>
<path d="M59.9478 35.2424V35.6816H58.1792V32.8977H58.6548V35.2424H59.9478Z" fill="#272727"/>
<path d="M61.268 35.6816H60.3208V32.8977H61.268C61.7396 32.8977 62.1064 33.0258 62.3684 33.2819C62.6331 33.5355 62.7654 33.8714 62.7654 34.2896C62.7654 34.7079 62.6331 35.0451 62.3684 35.3012C62.1064 35.5548 61.7396 35.6816 61.268 35.6816ZM62.0069 34.9915C62.1772 34.8216 62.2623 34.5876 62.2623 34.2896C62.2623 33.9916 62.1772 33.759 62.0069 33.5917C61.8392 33.4218 61.5877 33.3368 61.2523 33.3368H60.7964V35.2424H61.2523C61.5877 35.2424 61.8392 35.1588 62.0069 34.9915Z" fill="#272727"/>
<path d="M64.3687 34.4465V34.8817H63.1189V34.4465H64.3687Z" fill="#272727"/>
<path d="M64.7195 34.2857C64.7195 33.8596 64.8492 33.512 65.1086 33.2427C65.3706 32.9735 65.7059 32.8389 66.1147 32.8389C66.4632 32.8389 66.7592 32.9356 67.0029 33.129C67.2466 33.3225 67.3972 33.5838 67.4549 33.9132H66.9479C66.9007 33.7198 66.8025 33.5682 66.6531 33.4584C66.5064 33.3486 66.3269 33.2937 66.1147 33.2937C65.8369 33.2937 65.6182 33.3839 65.4583 33.5642C65.3011 33.742 65.2225 33.9825 65.2225 34.2857C65.2225 34.5889 65.3011 34.8307 65.4583 35.0111C65.6182 35.1914 65.8369 35.2816 66.1147 35.2816C66.3269 35.2816 66.5064 35.2267 66.6531 35.1169C66.8025 35.0072 66.9007 34.8555 66.9479 34.6621H67.4549C67.3972 34.9915 67.2466 35.2529 67.0029 35.4463C66.7592 35.6397 66.4632 35.7365 66.1147 35.7365C65.7059 35.7365 65.3706 35.6018 65.1086 35.3326C64.8492 35.0634 64.7195 34.7144 64.7195 34.2857Z" fill="#272727"/>
<path d="M69.7041 35.2424V35.6816H67.9355V32.8977H68.4111V35.2424H69.7041Z" fill="#272727"/>
<path d="M70.2501 35.6816H69.747L70.8278 32.8977H71.3348L72.4195 35.6816H71.9007L71.7003 35.1444H70.4505L70.2501 35.6816ZM71.0793 33.4858H71.0715L70.6077 34.7131H71.5431L71.0793 33.4858Z" fill="#272727"/>
<path d="M73.6061 35.3091C73.7974 35.3091 73.9454 35.2764 74.0502 35.211C74.155 35.1431 74.2074 35.0464 74.2074 34.9209C74.2074 34.8294 74.1786 34.7549 74.1209 34.6974C74.0633 34.6399 73.9886 34.5968 73.8969 34.568C73.8052 34.5393 73.7044 34.5144 73.5943 34.4935C73.4843 34.47 73.3729 34.4425 73.2602 34.4112C73.1502 34.3772 73.0493 34.3341 72.9576 34.2818C72.8659 34.2295 72.7912 34.1511 72.7336 34.0465C72.676 33.942 72.6471 33.8139 72.6471 33.6623C72.6471 33.4322 72.7375 33.2375 72.9183 33.078C73.1017 32.9186 73.3441 32.8389 73.6454 32.8389C73.9624 32.8389 74.2087 32.9251 74.3843 33.0977C74.5624 33.2676 74.6541 33.4884 74.6594 33.7603H74.1917C74.1891 33.6165 74.1406 33.4989 74.0463 33.4074C73.9519 33.3133 73.8183 33.2663 73.6454 33.2663C73.4803 33.2663 73.3506 33.3002 73.2563 33.3682C73.1646 33.4335 73.1188 33.5276 73.1188 33.6505C73.1188 33.7315 73.1476 33.7995 73.2052 33.8544C73.2629 33.9067 73.3375 33.9472 73.4292 33.9759C73.5236 34.0021 73.6257 34.0269 73.7358 34.0504C73.8485 34.0714 73.9598 34.1001 74.0699 34.1367C74.1825 34.1707 74.2847 34.2164 74.3764 34.2739C74.4707 34.3288 74.5467 34.4099 74.6044 34.517C74.662 34.6216 74.6908 34.7497 74.6908 34.9013C74.6908 35.1548 74.5899 35.3574 74.3882 35.509C74.1864 35.6607 73.9179 35.7365 73.5825 35.7365C73.2393 35.7365 72.9812 35.6463 72.8083 35.4659C72.6353 35.2855 72.545 35.0673 72.5371 34.8111H73.0087C73.0192 34.9653 73.0755 35.0869 73.1777 35.1758C73.2799 35.2646 73.4227 35.3091 73.6061 35.3091Z" fill="#272727"/>
<path d="M76.0049 35.3091C76.1961 35.3091 76.3442 35.2764 76.449 35.211C76.5538 35.1431 76.6062 35.0464 76.6062 34.9209C76.6062 34.8294 76.5774 34.7549 76.5197 34.6974C76.4621 34.6399 76.3874 34.5968 76.2957 34.568C76.204 34.5393 76.1031 34.5144 75.9931 34.4935C75.883 34.47 75.7717 34.4425 75.659 34.4112C75.549 34.3772 75.4481 34.3341 75.3564 34.2818C75.2647 34.2295 75.19 34.1511 75.1324 34.0465C75.0747 33.942 75.0459 33.8139 75.0459 33.6623C75.0459 33.4322 75.1363 33.2375 75.3171 33.078C75.5005 32.9186 75.7429 32.8389 76.0442 32.8389C76.3612 32.8389 76.6075 32.9251 76.783 33.0977C76.9612 33.2676 77.0529 33.4884 77.0582 33.7603H76.5905C76.5878 33.6165 76.5394 33.4989 76.445 33.4074C76.3507 33.3133 76.2171 33.2663 76.0442 33.2663C75.8791 33.2663 75.7494 33.3002 75.6551 33.3682C75.5634 33.4335 75.5175 33.5276 75.5175 33.6505C75.5175 33.7315 75.5464 33.7995 75.604 33.8544C75.6616 33.9067 75.7363 33.9472 75.828 33.9759C75.9223 34.0021 76.0245 34.0269 76.1346 34.0504C76.2472 34.0714 76.3586 34.1001 76.4686 34.1367C76.5813 34.1707 76.6835 34.2164 76.7752 34.2739C76.8695 34.3288 76.9455 34.4099 77.0031 34.517C77.0608 34.6216 77.0896 34.7497 77.0896 34.9013C77.0896 35.1548 76.9887 35.3574 76.787 35.509C76.5852 35.6607 76.3167 35.7365 75.9813 35.7365C75.6381 35.7365 75.38 35.6463 75.2071 35.4659C75.0341 35.2855 74.9437 35.0673 74.9359 34.8111H75.4075C75.418 34.9653 75.4743 35.0869 75.5765 35.1758C75.6787 35.2646 75.8215 35.3091 76.0049 35.3091Z" fill="#272727"/>
<path d="M79.5244 35.3091C79.7156 35.3091 79.8637 35.2764 79.9685 35.211C80.0733 35.1431 80.1257 35.0464 80.1257 34.9209C80.1257 34.8294 80.0968 34.7549 80.0392 34.6974C79.9816 34.6399 79.9069 34.5968 79.8152 34.568C79.7235 34.5393 79.6226 34.5144 79.5126 34.4935C79.4025 34.47 79.2912 34.4425 79.1785 34.4112C79.0685 34.3772 78.9676 34.3341 78.8759 34.2818C78.7842 34.2295 78.7095 34.1511 78.6519 34.0465C78.5942 33.942 78.5654 33.8139 78.5654 33.6623C78.5654 33.4322 78.6558 33.2375 78.8366 33.078C79.02 32.9186 79.2623 32.8389 79.5637 32.8389C79.8807 32.8389 80.127 32.9251 80.3025 33.0977C80.4807 33.2676 80.5724 33.4884 80.5776 33.7603H80.1099C80.1073 33.6165 80.0588 33.4989 79.9645 33.4074C79.8702 33.3133 79.7366 33.2663 79.5637 33.2663C79.3986 33.2663 79.2689 33.3002 79.1746 33.3682C79.0829 33.4335 79.037 33.5276 79.037 33.6505C79.037 33.7315 79.0658 33.7995 79.1235 33.8544C79.1811 33.9067 79.2558 33.9472 79.3475 33.9759C79.4418 34.0021 79.544 34.0269 79.654 34.0504C79.7667 34.0714 79.8781 34.1001 79.9881 34.1367C80.1008 34.1707 80.203 34.2164 80.2947 34.2739C80.389 34.3288 80.465 34.4099 80.5226 34.517C80.5803 34.6216 80.6091 34.7497 80.6091 34.9013C80.6091 35.1548 80.5082 35.3574 80.3064 35.509C80.1047 35.6607 79.8361 35.7365 79.5008 35.7365C79.1575 35.7365 78.8995 35.6463 78.7265 35.4659C78.5536 35.2855 78.4632 35.0673 78.4554 34.8111H78.927C78.9374 34.9653 78.9938 35.0869 79.096 35.1758C79.1981 35.2646 79.3409 35.3091 79.5244 35.3091Z" fill="#272727"/>
<path d="M81.7399 33.5682C81.5644 33.7511 81.4766 33.9916 81.4766 34.2896C81.4766 34.5876 81.5644 34.8281 81.7399 35.0111C81.9155 35.1941 82.1408 35.2855 82.4159 35.2855C82.691 35.2855 82.9164 35.1941 83.0919 35.0111C83.2675 34.8281 83.3552 34.5876 83.3552 34.2896C83.3552 33.9916 83.2675 33.7511 83.0919 33.5682C82.9164 33.3852 82.691 33.2937 82.4159 33.2937C82.1408 33.2937 81.9155 33.3852 81.7399 33.5682ZM81.3784 35.3287C81.1085 35.0516 80.9736 34.7052 80.9736 34.2896C80.9736 33.874 81.1085 33.529 81.3784 33.2545C81.6482 32.9774 81.9941 32.8389 82.4159 32.8389C82.8378 32.8389 83.1836 32.9774 83.4535 33.2545C83.7234 33.529 83.8583 33.874 83.8583 34.2896C83.8583 34.7052 83.7234 35.0516 83.4535 35.3287C83.1836 35.6031 82.8378 35.7404 82.4159 35.7404C81.9941 35.7404 81.6482 35.6031 81.3784 35.3287Z" fill="#272727"/>
<path d="M86.1347 35.2424V35.6816H84.3661V32.8977H84.8417V35.2424H86.1347Z" fill="#272727"/>
<path d="M88.3001 35.4306C88.0827 35.6371 87.8049 35.7404 87.4669 35.7404C87.1289 35.7404 86.8512 35.6371 86.6337 35.4306C86.4163 35.2241 86.3075 34.9261 86.3075 34.5366V32.8977H86.7831V34.5562C86.7831 34.7863 86.8407 34.9679 86.956 35.1013C87.0739 35.2346 87.2442 35.3012 87.4669 35.3012C87.6896 35.3012 87.8586 35.2346 87.9739 35.1013C88.0918 34.9679 88.1508 34.7863 88.1508 34.5562V32.8977H88.6263V34.5366C88.6263 34.9261 88.5176 35.2241 88.3001 35.4306Z" fill="#272727"/>
<path d="M91.0479 32.8977V33.3486H90.2383V35.6816H89.7627V33.3486H88.9531V32.8977H91.0479Z" fill="#272727"/>
<path d="M91.8807 32.8977V35.6816H91.4051V32.8977H91.8807Z" fill="#272727"/>
<path d="M93.1543 33.5682C92.9787 33.7511 92.8909 33.9916 92.8909 34.2896C92.8909 34.5876 92.9787 34.8281 93.1543 35.0111C93.3298 35.1941 93.5551 35.2855 93.8303 35.2855C94.1054 35.2855 94.3307 35.1941 94.5062 35.0111C94.6818 34.8281 94.7696 34.5876 94.7696 34.2896C94.7696 33.9916 94.6818 33.7511 94.5062 33.5682C94.3307 33.3852 94.1054 33.2937 93.8303 33.2937C93.5551 33.2937 93.3298 33.3852 93.1543 33.5682ZM92.7927 35.3287C92.5228 35.0516 92.3879 34.7052 92.3879 34.2896C92.3879 33.874 92.5228 33.529 92.7927 33.2545C93.0626 32.9774 93.4084 32.8389 93.8303 32.8389C94.2521 32.8389 94.5979 32.9774 94.8678 33.2545C95.1377 33.529 95.2726 33.874 95.2726 34.2896C95.2726 34.7052 95.1377 35.0516 94.8678 35.3287C94.5979 35.6031 94.2521 35.7404 93.8303 35.7404C93.4084 35.7404 93.0626 35.6031 92.7927 35.3287Z" fill="#272727"/>
<path d="M96.2482 33.6819V35.6816H95.7805V32.8977H96.2639L97.6198 34.9013V32.8977H98.0875V35.6816H97.6001L96.2482 33.6819Z" fill="#272727"/>
<path d="M36.3369 32.7731C33.0636 37.0837 27.8792 39.875 22.0516 39.875C12.172 39.875 4.13467 31.8565 4.13467 22C4.13467 12.1435 12.172 4.125 22.0516 4.125C27.8539 4.125 33.0199 6.89333 36.2955 11.1742H41.2502C37.4647 4.50312 30.2865 0 22.0516 0C9.87267 0 0 9.84958 0 22C0 34.1504 9.87267 44 22.0516 44C30.3071 44 37.5015 39.474 41.2824 32.7731H36.3369Z" fill="#296DFF"/>
</svg>
